<svg xmlns="http://www.w3.org/2000/svg" width="96" height="96" fill="none"><path fill="#5656E9" fill-rule="evenodd" d="M16.043 26.553h4.085v-2.042h-4.085zm4.085-2.042h4.085v-2.043h-4.085zm4.085-2.043h4.085v-2.043h-4.085zm8.17-4.085h4.085V16.34h-4.085zm4.085-2.043h4.085v-2.042h-4.085zm12.255-6.127h-2.042v2.042h2.043zm0 0h4.086V8.17h-4.085zm6.128-4.085H52.81V8.17h2.042z" clip-rule="evenodd"/><path fill="#1D1DA1" fill-rule="evenodd" d="M38.51 34.723h-2.042v2.043h2.043zm4.086 0h-2.043v2.043h2.043zm6.127-2.042v-4.085h-2.042v2.042h-2.043v2.043h-2.042v2.042h4.085v-2.042zm-12.255 0h-2.042v2.042h2.042zm4.085 0h-2.042v2.042h2.042zm-2.042-2.043h-2.043v2.043h2.043zm4.085 0h-2.043v2.043h2.043zm2.042-2.042h-2.042v2.042h2.042zm-4.085 0h-2.042v2.042h2.042zm6.128-2.043h-2.043v2.043h2.043zm-4.085 0h-2.043v2.043h2.043zm16.34 2.043v-2.043h4.085v-8.17h-4.085v2.043h-2.042v2.042H54.85v6.128zM48.723 24.51h-2.042v2.042h2.042zm-4.085 0h-2.042v2.042h2.042zm2.043-2.043h-2.043v2.043h2.043zm2.042-2.043h-2.042v2.043h2.042zm22.469 0h4.085v-2.042h4.085V16.34h-4.085v-2.042h-4.085v-2.043h-4.086v-2.042h-4.085V8.17h-4.085V6.128h-2.042v8.17h2.042v-2.043h6.128v2.043h2.042v2.042h2.043v6.128h2.043zm-20.426-2.042h-2.043v2.043h2.043zm2.043-2.043h-2.043v2.043h2.043zm2.042-2.042H52.81v2.042h2.042z" clip-rule="evenodd"/><path fill="#CEDBF2" fill-rule="evenodd" d="M75.277 22.468h2.042v20.426h2.043V20.426h-4.085zM46.68 36.766h-4.085v2.043h4.085zm4.085-2.043h-4.085v2.043h4.085zm4.085-2.042h-4.085v2.042h4.085zm4.085-2.043h-4.085v2.043h4.085zm4.085-2.042h-4.085v2.042h4.085zM52.81 30.638v-8.17h-2.043v8.17zm10.212-2.042h4.085v-2.043h-4.085zm4.085-2.043h4.086v-2.042h-4.086zm0-2.042v-8.17h-2.042v8.17zm8.17-2.043h-4.084v2.043h4.085zm-20.425 0v-4.085H52.81v4.085zm-24.51-2.043V10.214h-2.043v10.213zm28.595-4.085h-4.085v2.043h4.085zm6.128-2.042h-6.128v2.042h6.128zm-20.426 0V4.085h-2.042v10.213zm-12.255-4.085V6.128H30.34v4.085zm4.085-6.128h-4.085v2.043h4.085zm6.128-2.042h-6.128v2.042h6.128z" clip-rule="evenodd"/><path fill="#F168AA" fill-rule="evenodd" d="M63.021 49.021H60.98v2.043h2.042zm6.128-6.127v8.17h2.043v-8.17zm-8.17 4.085h-2.043v2.042h2.043zm-8.17 0h6.127v-2.043H52.81zm16.34-6.128h-4.085v2.043h4.085z" clip-rule="evenodd"/><path fill="#EB2682" fill-rule="evenodd" d="M65.064 63.32h2.042v-4.086h2.043v-4.085h2.043v-4.085h-2.043v-8.17h-4.085v2.042H63.02v6.128H60.98V49.02h-2.043V46.98H52.81v2.042h-2.043v10.213h2.043v4.085h2.042v2.043h2.043v2.042h2.042v2.043h2.043v2.042h2.042v-4.085h2.043z" clip-rule="evenodd"/><path fill="#64AAE8" fill-rule="evenodd" d="M54.851 83.745H52.81v2.042h2.042zm-4.085 0h-2.042v2.042h2.042zm-2.042-2.043H46.68v2.043h2.043zm4.085 2.043v-2.043h2.042v2.043h4.085v-2.043h4.085V79.66h4.085v-2.043h4.086v-2.043h4.085v-2.042h4.085V42.894h-2.043V22.468h-2.042v2.043h-4.085v2.042h-4.086v2.043h-4.085v2.042h-4.085v2.043h-4.085v2.042h-4.085v2.043h-4.085v2.043h-4.085v32.68h2.042v2.043h-2.042v2.043h2.042v-2.043h2.043v2.043h-2.043v2.042h2.043v-2.043h2.043v2.043H46.68v2.043h2.043v-2.043h2.042v2.043h-2.042v2.042h2.042V79.66h2.043v2.042h-2.043v2.043zM46.68 79.66h-2.043v2.042h2.043zm-2.043-2.043h-2.042v2.043h2.042zm20.426-38.808v2.042H63.02v4.085h-4.085v-2.042H52.81v2.042h-2.043v4.085h-2.042v10.213h2.042v4.085h2.043v2.043h2.042v2.042h2.043v2.043h2.042v2.042h2.043v2.043h2.042v-2.043h2.043v-4.085h2.042V63.32h2.043v-4.085h2.043v-4.085h2.042V42.894h-2.042V40.85h-2.043V38.81z" clip-rule="evenodd"/><path fill="#3939EA" fill-rule="evenodd" d="M24.213 87.83h4.085v2.042h4.085v2.043h4.085v-2.043h-2.042V87.83h-2.043v-4.085H30.34v-2.043h-2.042V79.66H22.17v2.042h-4.085v2.043h2.043v2.042h4.085zm2.042-10.213V36.766h-2.042v2.043H22.17v2.042h-2.042v2.043h-2.043V79.66h4.085v-2.043zm-6.127-38.808h-2.043v2.042h2.043zm2.042-2.043h-2.042v2.043h2.042zm2.043-2.043H22.17v2.043h2.043zm-4.085 0h-2.043v2.043h2.043zm20.425 0h-2.042v2.043h2.042zm2.043-2.042h-2.043v2.042h2.043zm-4.085 0h-2.043v2.042h2.043zm-12.256 0h-2.042v2.042h2.042zm-4.085 0h-2.042v2.042h2.042zm2.043 0v-2.043h4.085v2.043h4.085v2.042h2.043v-2.042h2.042v-2.043h2.043v-2.042h2.042v-2.043h2.043v-2.042h2.042v-2.043h2.043v-2.043h2.042v-2.042h2.043V16.34h2.043v-2.042h2.042V8.17H52.81v2.043h-4.086v2.042h-2.042v2.043h-2.043v2.042h-2.042v-2.042h-2.043v2.042h-4.085v2.043h-4.085v2.043H30.34v2.042h-6.127v2.043h-4.085v4.085h4.085v2.042H22.17v2.043zm16.34-2.043h-2.042v2.043h2.042zm4.085 0h-2.042v2.043h2.042zm-2.042-2.042h-2.043v2.042h2.043zm4.085 0h-2.043v2.042h2.043zm2.042-2.043h-2.042v2.043h2.042zm-4.085 0h-2.042v2.043h2.042zm2.043-2.042h-2.043v2.042h2.043zm2.042-2.043h-2.042v2.043h2.042zm2.043-2.043h-2.043v2.043h2.043z" clip-rule="evenodd"/><path fill="#3979E2" fill-rule="evenodd" d="M42.596 91.915h4.085v-2.043h4.085V87.83h4.085v-2.043H52.81v-2.042h-2.043v2.042h-2.042v-2.042H46.68v-2.043h-2.043V79.66h-2.042v-2.043h2.042v-2.043h-2.042v-2.042h2.042v-2.043h-2.042V38.81h-2.043v55.148h2.043zm-10.213-8.17h2.043v4.085h2.042v2.042h2.043V38.81h-2.043v-2.043h-4.085v-2.043h-4.085V79.66h2.043v2.042h2.042zm26.553 0h-4.085v2.042h4.085zm4.085-2.043h-4.085v2.043h4.085zm-8.17 0H52.81v2.043h2.042zm-4.085 0h-2.042v2.043h2.042zm-2.042-2.042H46.68v2.042h2.043zm4.085 0h-2.043v2.042h2.043zm14.297 0h-4.085v2.042h4.085zm4.086-2.043h-4.086v2.043h4.086zm-20.426 0h-2.042v2.043h2.042zm-4.085 0h-2.043v2.043h2.043zm28.596-2.043h-4.085v2.043h4.085zm-26.553 0H46.68v2.043h2.043zm30.638-2.042h-4.085v2.043h4.085zm-32.681 0h-2.043v2.043h2.043zM22.17 38.809h-2.043v2.042h2.042zm2.042-2.043H22.17v2.043h2.043zm2.042-2.043h-2.042v2.043h2.042zm-4.085 0h-2.042v2.043h2.042zm2.043-2.042H22.17v2.042h2.043zm-6.128 4.085v-2.043h2.043v-2.042h2.042v-2.043h-2.042v-2.042h-4.085v53.106h2.042V42.894h2.043V40.85h-2.043V38.81h2.043v-2.043z" clip-rule="evenodd"/><path fill="#000" fill-rule="evenodd" d="M36.468 96h6.128v-2.043h-2.043V38.81h2.043v-2.043h-6.128v2.043h2.043v51.063h-2.043v2.043h-4.085v2.042h4.085zm10.213-4.085h-4.085v2.042h4.085zm-14.298-2.043h-4.085v2.043h4.085zm18.383 0h-4.085v2.043h4.085zm4.085-2.042h-4.085v2.042h4.085zm-18.383 0h-2.043v2.042h2.043zm-8.17 0h-4.085v2.042h4.085zm30.638-2.043h-4.085v2.043h4.085zm-34.723 0h-4.085v2.043h4.085zm10.212 2.043v-4.085h-2.042v4.085zM16.043 26.553v-2.042H14v59.234h2.043v2.042h4.085v-2.042h-2.043v-2.043h-2.042V28.596h4.085v-2.043zM63.02 83.745h-4.085v2.042h4.085zm-30.638-2.043H30.34v2.043h2.043zm34.723 0h-4.085v2.043h4.085zm4.086-2.042h-4.086v2.042h4.086zm-49.022 0h-4.085v2.042h4.085zm8.17 0h-2.042v2.042h2.042zm44.937-2.043h-4.085v2.043h4.085zm-46.98-46.979h-4.084v2.043h2.042v44.936H22.17v2.043h6.128V34.723h4.085v-2.042h-4.085zm51.065 44.936h-4.085v2.043h4.085zm-8.17-53.106h4.085v-2.043h4.085v55.15h2.042V16.34h-2.042v2.043h-4.085v2.043h-4.085zm-8.17 49.021h-2.043v2.043h2.042zm2.042 0v-4.085H63.02v4.085zm-4.085-2.042h-2.043v2.042h2.043zm-2.043-2.043h-2.042v2.043h2.042zm-2.042-2.042H54.85v2.042h2.043zm10.212 2.042V63.32h-2.042v4.085zM54.851 63.32H52.81v2.043h2.042zm-2.042 0v-4.085h-2.043v4.085zm16.34 0v-4.085h-2.043v4.085zm-18.383-4.085V49.021h-2.043v10.213zm20.426 0v-4.085h-2.043v4.085zm2.042-4.085V42.894h-2.042v12.255zM52.81 49.02v-4.085h-2.043v4.085zm10.212 0v-4.085h-4.085v2.043h2.043v2.042zm2.043-4.085v-4.085H63.02v4.085zm-6.128-2.042H52.81v2.042h6.127zm12.256-2.043h-2.043v2.043h2.043zm-2.043-2.042h-4.085v2.042h4.085zm-22.468-4.086h-4.085v2.043h4.085zm-10.213 0h-4.085v2.043h4.085zm10.213 0h4.085v-2.042h4.085v-2.043h4.085v-2.042h-4.085v-6.128H52.81v8.17h-2.043v-8.17h-2.043v10.213h-2.042zm-22.468-6.127h-4.085v2.042h4.085zm38.808-2.043h-4.085v2.043h4.085zm-4.085-6.128v-2.042h4.085v8.17h4.085v-2.042h-2.042v-8.17h-6.128v2.042h-4.085v4.085h2.043v-2.043zm10.213 2.043V16.34h-2.043v8.17h4.086v-2.042zm-49.021 0h-4.085v2.043h4.085zm32.68 0v-4.085h-2.042v4.085zM30.34 20.425h-2.042v2.043h2.042zm-6.127 0h-4.085v2.043h4.085zm4.085 0V10.214h-2.043v8.17h-2.042v2.043zm4.085-6.127v-4.085H30.34v10.213h2.043V16.34h4.085v-2.042zm22.468 2.042H52.81v2.043h2.042zm12.255-2.042h-2.042v2.042h2.042zm12.256 0h-4.085v2.042h4.085zM48.723 8.17h4.086V6.128h2.042V16.34h4.085v-2.042h-2.042v-8.17h2.042V4.085H52.81v2.043h-4.086zm-4.085 6.128h-2.042v2.042h2.042zM34.426 8.17h2.042V6.128h4.085v6.127h-4.085v2.043h6.128V4.085h-6.128v2.043h-4.085v4.085h2.042zm40.85 4.085h-4.084v2.043h4.085zM46.682 8.17V4.085h-2.043v10.213h2.043v-4.085h2.042V8.17zm18.383 4.085h-6.128v2.043h6.128zm6.128-2.042h-4.086v2.042h4.086zm-40.852 0V6.128h-2.042v4.085zM67.106 8.17h-4.085v2.043h4.085zm-4.085-2.042h-4.085V8.17h4.085zM32.383 4.085H30.34v2.043h2.043zm4.085-2.042h-4.085v2.042h4.085zm8.17 0h-2.042v2.042h2.042zM42.596 0h-6.128v2.043h6.128z" clip-rule="evenodd"/></svg>