<?xml version="1.0" encoding="UTF-8"?>
<svg id="Layer_1" xmlns="http://www.w3.org/2000/svg" version="1.1" viewBox="0 0 800 800">
  <!-- Generator: Adobe Illustrator 29.7.1, SVG Export Plug-In . SVG Version: 2.1.1 Build 8)  -->
  <defs>
    <style>
      .st0 {
        fill: #47bcea;
      }

      .st1 {
        fill: #0e49a0;
      }

      .st2 {
        fill: #dd3664;
      }

      .st3 {
        fill: #137aed;
      }

      .st4 {
        fill: #0c55b0;
      }

      .st5 {
        fill: #3796d6;
      }

      .st6 {
        fill: #0c5ab9;
      }

      .st7 {
        fill: #0c5cbc;
      }

      .st8 {
        fill: #0b60c1;
      }

      .st9 {
        fill: #1067d4;
      }

      .st10 {
        fill: #0e469b;
      }

      .st11 {
        fill: #df3867;
      }

      .st12 {
        fill: #f3cc65;
      }

      .st13 {
        fill: #1070de;
      }

      .st14 {
        fill: #102e55;
      }

      .st15 {
        fill: #4ed1fb;
      }

      .st16 {
        fill: #3a9bda;
      }

      .st17 {
        fill: #04060c;
      }

      .st18 {
        fill: #3999d9;
      }

      .st19 {
        fill: #0e4293;
      }

      .st20 {
        fill: #02070e;
      }

      .st21 {
        fill: #e13a69;
      }

      .st22 {
        fill: #04080c;
      }

      .st23 {
        fill: #0b5cbb;
      }

      .st24 {
        fill: #000102;
      }

      .st25 {
        fill: #010307;
      }

      .st26 {
        fill: #efe47e;
      }

      .st27 {
        fill: #0d58b6;
      }

      .st28 {
        fill: #ef4a84;
      }

      .st29 {
        fill: #0e51ab;
      }
    </style>
  </defs>
  <path class="st20" d="M299,58c.1-.1,1.7.5,2-.7,1.5-5.6-2.8-24.8,5.5-26.3l111.1.9c.5.4,2.4,4.2,2.4,4.6v20.5l54.3.2c6.3,1.8,2.8,15.5,3.7,20.8h23.5c6.1,6.1,2.2,16.3,3.9,24.1,1.6,2.2,22.6-2.2,22.6,3.4v22.5c7.8.5,14.9-2.5,22.4.9,1.2.7.4,2.3.6,3.1.2,9.6-.3,19.4,0,29s0,2,0,3c5.2,1.1,24-3.2,24,4.5v20.5c5.8,1,25.8-1.8,29.6.9s2.4,3.3,2.4,3.6v20.5c9.5,1.3,23.5-1.7,32.5,0s4.5,4.3,4.5,6.5v97.5h18.5c.5,0,4.5,3.1,4.5,3.5v19.5c3.3-.2,22-2.2,22,2.5v22.5h19.5l1.5,1.5v17l1.5,1.5h17c1.3,0,3.3,3.8,3.6,5.4,1.5,11.3-1.1,26.2-.3,37.8-1,3.5-12.1,7.8-15.8,8.7l-2-1v2c-.3.1-.7-.1-1,0l-1,1c-.3.1-.7-.1-1,0l-1,1c-.3.1-.7-.1-1,0l-1,1c-.3.1-.7-.1-1,0l-1,1c-.3.1-.7-.1-1,0l-1,1c-.3.1-.7-.1-1,0l-1,1c-.3.1-.7-.1-1,0l-1,1c-.3.1-.7-.1-1,0l-1,1c-.3.1-.7-.1-1,0l-1,1c-.3.1-.7-.1-1,0l-1,1h-1c-3.6,0-8.2,1.1-9,5-.3.1-.7-.1-1,0l-1,1c-.3.1-.7-.1-1,0l-1,1c-.3.1-.7-.1-1,0-3.8,1.4-11.4,1.3-13,7-.3.1-.7-.1-1,0l-1,1c-.3.1-.7-.1-1,0l-1,1c-.3.1-.7-.1-1,0-4.7,1.7-8.5,2.7-13.2,5.1s-1.3,3-4.8,1.9c0,5.2-.2,10.4,0,15.5s-1,4,2,3.5c0,1,0,2,0,3-3-.6-1.9,1.5-2,3.5-1.9,56.2,1.5,112.7-.1,168.9-1.6,4.8-26.6,1.8-31.9,2.6,0,.7,0,1.3,0,2-.3,6.5,1.3,13.1-2,19h-51v14.5c0,.2-3.1,2.5-3.5,2.5h-48.5v15.5c0,.2-2.3,2.5-2.5,2.5h-47.5c1.3,3.5,1.5,17-3.5,17h-44.5v15c0,0-1.1-.2-1.6.4s-.3,1.6-.4,1.6h-47c-.6,6.3,2.8,14.6-5.6,15.9-22-2.1-49.7,3-71,.1s-5.4-2.3-5.4-3.6v-31.5h-35.5c-.2,0-3.5-3.3-3.5-3.5v-19.5h-37.5c-.4,0-3.5-4-3.5-4.5v-17.5h-28.5c-4.3,0-1.9-20.8-2.4-24.5-.3-1.2-2.6-.2-3.1-.5s.4-1.7-.7-2c-3.9-1-7.8,1.8-10.4-4.5V251.5c.4-1.5.3-3.8,1.8-4.5,6.9-3.2,24.5.5,32.7-1s1.9-.5,2.5-1.5v-19c0-1.1,3.9-4.5,5.5-4.5h57.5l1.5-133.1.7-1.8,23.9-1.6,2-23.5c1.9-2.2,15.1-.3,18.2-1.1s.5-1.9.7-2ZM374,81l.6,11.1,24.4.9c-1.6-3.6,2.5-12.1,1.9-14.4s-4-2-4.7-4.3-1-11.4-.3-14.7l-.8-1.1-70,.5c1,3.6.8,17.3-.5,20s-1.8,1.7-3,2c-6.2,1.1-14.1.8-20.5,1v18c-.8.6-1.8.7-2,2-3.3.3-21.4-.9-22.1,1.6-.1,18,.4,36,.1,53.9s-1,23.6-1,35.5,0,24.7,0,37c6.8-.5,14.4.7,21,0s3.8-.6,4-1.7c0-18.1,0-36.2,0-54.3s0-22,0-33-1.2-17.1,0-25,.9-1.4,1-2c5.8-3.7,13.4-1.4,20-2l1-16c.6-.7,1.6-1.1,2-2l23-2,1-13c.2-.3.7-.8,1-1,7.6.4,15.6-1,23,1,.6.9.8,1.7,1,2ZM411,97c-.4,5.8.6,12.3,0,18s0,2-1,3h-1l-.5-1-.5,1c-4,0-8-.1-12,0s-2,0-3,0-2.7,0-4,0c-.4,5.4.7,14.4-1.1,19.4s-3.4,1.4-3.9,2.6c-1.2.1-2.8,0-4,0s-.2-1-2-1-4.8-.2-7,0-4,.2-5.9,1.1c-1,1.5.9,3.5.9,3.9s0,.7,0,1c-1.1,3.1-1.9,8.2-2,11.5-1.2,24.8,0,51.5,0,76.5s0,2.7,0,4c0,10.8.2,21.7,0,32.5s-1.8,10.5,0,16.5h18c-.1-3.6.1-7.4,0-11s0-.7,0-1,0-.5,0-1,0-.7,0-1c2-17.7.8-36.1,1-54s0-.7,0-1c.2-17.3.8-34.7,1-52s-.5-8.8,1-13c.2-.3.7-.6,1-1l17.1-1.4c1.8-6.1.2-12.5,3.9-18.6,3.8-.4,8.1,0,12,0s5.3,0,8,0c-.2-14.3-2.3-17.9,13.5-18.1,2.5,0,18.6,1.1,19.5,1.6,2.8,1.4,2.8,12.1,3,15.5h16c.1,0,.9,1.3,2,2l1,18,18,1,2,23.5c.1,18.5-.3,37,0,55.5,0,2-.1,4,0,6s-.2,2.6,0,3.9c1.5-.4,3.7,1.1,4.4,1.1h16c1-.6,1.3-1.4,1.5-2.5,1.3-6.8-.3-19.3,0-27s1-4.6,1.1-6.9c.5-20.7-.4-41.4,0-62l-1.6-2.4-15.4-1.1c-4.1-3.2-2.7-3.3-3-8s.5-9-1.6-13.1c-7.1-2.6-15.9,1.4-22.4-2.9-1.7-3.7.4-17.9-2.6-18.9-18.8,0-37.6-.4-56.4-.1s-2.7,0-4,0c-2.1,0-4.3-.2-6.4,0l-.6.9ZM365,114h-14.5c-2,1.4-1.5,3.8-1.5,6h16v-6ZM340,138h-16v52h16v-52ZM428.5,172h-18.5v11h38l.5-13,7.6-3.6-1-12h-23.1c-2.8,1.9,1.5,16.2-3.4,17.6ZM572,211c-10.8,0-14.5.8-15.9-10.6s3-14-10.1-10.4v41h35.5c3.3-5.1.7-13.3,1.5-19.4.1-1.1-1.3-.5-2-.6-2.5-.3-6.4-.1-9,0ZM466,205c-1.1,1.3-3.1,1.4-4,2l-55,1,1.1,64.9h24.9c.2-5.4.3-12,3-16.9l42-2c0-6,0-12,0-18,0-14.3,0-28.7,0-43h-12s0,12,0,12ZM321,246c-.3,0-.7,0-1,0-8.4,1.5-15.6.7-24,1-28.5,1-56.5.7-85,0l-1,26,29,1c6.8.3,2.8,17.8,4,19,6.3,1,33.2-1.8,36.5,1s1.4,2.4,1.5,3c.4,2.2-.9,11.5,1.7,12h17.7c1.5-.4,1.4-3.9,1.7-5,.5-2-.3-3.6,1.5-6s2.9-1.4,4.5-2l31-1,1-80h-15v14.5c0,.3-.9,1.7-1,3-.5,5.2,1.6,9.6-3,13.5ZM605,238c-1,1-.9,1-1.1,2.4-1.3,12.1,0,29.9,0,42.6s0,11,0,16.6l1,1.4,15,1c-.2-15,.2-30,0-45,0-6.3.4-12.8-.4-19.1-1.1-1.5-12.9-1.6-14.6,0ZM550,368v18s13,0,13,0l1.1-42.4c1-3.1,14.2-.9,17.8-2.7v-82.5c.1,0-70,.6-70,.6-.6.6-.6,15.1-1,17.5s-.4,2-1.6,2.4l-52.4,1.1v22l-94,3c-.8,5.2-2.3,11.9,0,17-.1.3.1.8,0,1-3-1.1-7.6,1-9.5,1h-30.5c.5,10.4-13.5,4-21,7s-1.3-.3-1.9.1l-.2,255.5c-.6,1.2,1.1,3.1,1.1,3.4,0,1,0,2,0,3v73c0,8,0,16,0,24-1.6.7-1.6,4.3,0,5,0,16.5-.2,33,0,49.5s-.6,4.4,1,5.5h1v2c3.9-.4,8.6,1.1,12-1,5.9.3,12.1-.4,18,0s1.5,1.7,3,1c.5-1.3-1-1.9-1-2-.2-1.5,0-3.4,0-5s0-1.9,0-2c0-1,0-2,0-3l3.6-4.1c13.9-1.4,32.3,2.2,45.7-.2.8-.1,2.5-.4,2.8-1.4l.9-13.9c11.7-2.6,23.7-1,35.6-1.4s4,1,3.5-2c1.3,0,2.7,0,4,0s.7,1.1,1.4,1c3.3-.9.3-14.5,2.6-18,.8-.2,2.1.2,3,0,4.1,1.7,10.1,1.2,14.5,1s4,1,3.5-2c6.4-.2,13.8.6,20,0,1.4,1.3,6.2,1.7,7.1.4,1.1-4.3,1.9-10.3-.1-14.4.2-.5-.1-1.4,0-2,.3,0,.7,0,1,0,.7,0,1.8,1.4,3,1v-2h2c2.3,0,4.7,0,7,0,5.4,1.7,13.6,1.7,19,0v-1c1,0,2,0,3,0,1.7,0,3.3,0,5,0v2s7.6,0,7.6,0c2,.3,1.3-2,1.4-2.1.8-.8,1.8-1.9,2-2,.5-.3,3.5.7,4.6-.9.6-4.2,2-8,.4-12.1h46.6c2,.4,1.3-1.8,1.4-2s1.7.4,2-.7c.5-1.9-.5-4.7,0-6.7s2-.6,2-1.2c0-1.8-1.8-5.5,1.2-7.2s19.5,0,23.3-.2,4,1,3.5-2c.7,0,1.4,0,2,0s2.3,1.8,4,1v-2s-3-3-3-3v-14l2-.6v-7.4s-2,0-2,0v-7c6.7.3,2.4-5,2.1-8.6s-.5-6.5-.2-9,2.5-1,2.1-2.9-2.3-2.9-2.2-6,1.8-3.4,2.1-5.1c1.2-7.9-2.7-13.3-2-20.9l3.1-1.1c-1.8-3.6-.6-7.4-1.1-10.9-1.6-11.2-3.5-26.4-2-38.1s2.6-4.3,2.8-6.1-1.5-15.3-1.9-16.7c-1.6-5.8-5.2-.9-5.6-.8-3.8,1.3-14.4,1.5-15.7,4.1s-.2,3-.7,3.7c-.7,1.1-4.6,0-3.8,3.2-.3.1-.7,0-1,0-2.4-5.2-6.5-1.3-8-2.4-2.5-1.8-.9-10.7-11.8-5.5l-.2,14.8-12.4,1-1.1,3.1-6.5-1,1,4.4-2.1,1.2c.2,2.2,1.5,4.4,1.1,6.7s-1.9.7-2.3,1.9c-.7,1.7-.5,5.5-.8,5.7s-4.6.3-6.3,1.3-1.5,2.6-2.4,2.8c-1.9.5-5.6-.9-6.9.9l-.4,18.1-4,2h-3l-.5-2h-2.5s0,2,0,2c-2.3,0-4.7,0-7,0s-2.2-1.3-4,0l1.1,12.4-3.6,1.5-.4,5.1-6.5-2-1.5,4c-.6,0-1.7.2-2,0s-1.9-4.9-5-4c.5,2.4.7,4.7.7,7.2s-2.4,3.3,1.2,2.8c-.1,1.3,0,2.7,0,4h-2s0,9,0,9h-16.5c-.5,0-3.7,2.8-5.5,2l2,5h-3s0,3,0,3h2.9c0,0,0,5,0,5l-4-.6c-2.1,1.3-1.8,6.3-2,6.5-.6.5-5.7-1.1-8.4,2.2s-.3,2.2-.8,2.7c-.9.8-3.9-1-2.8,2.7s2.6.8,2.9,2.1-2.4,5,.1,6.4c-2.5,2.2-16,.8-20.1.6l-.9-12.6c-18.6,3.4-11.6-10.8-14-23h-18.5l-1.5-1.5v-18.5h-14.5c-.7,0-4-1.6-4.4-2.6l-1.1-18.4c-6.1-.5-14.6,1.5-20-2l-1-4c-.2-4.6.1-9.4,0-14-4.9.3-10.1-.4-15,0l-4.1-1.6-.4-18.5c-1.6-2.3-18.6.8-18.6-4.4v-19.5l-11.8-1.2-1-2.5v-67.6c1.1-4,8.3-2.3,11.6-3.8l1.3-23.8,20.9-1.1v-18.5c0-2.5,11.7-3.4,14.5-3.5,21.8-1.3,45,1.1,67,0,6.8.5,3.6,20,4.5,21l6-1c3.1.7,5,.7,8,1,2.1,1.8,4.3,2.8,4,6,2.4-.6,2.2-3.5,3-5s.8-.6,1-1l15-1v-18.5c0-1.3,3.1-2.4,4.5-2.5,13.2-1.8,33.8.2,48.1,0,1.7,0,4.4.6,5.5-1h14c-.1.8,2.3,1.8,3,2ZM174,577c0,4,0,8,0,12s0,2.7,0,4c0,17.3,0,34.7,0,52h8c0-.7,0-1.3,0-2s0-1.3,0-2c.2-3.3-.1-6.7,0-10,1-2,2.2-2.3,4-3h17v-16.5c0-5.4,13.3-4.7,17-4.5v-308s-.6-.9-.6-.9c-.8-.2-1.6,0-2.4,0-6.1-.4-26.2.9-30.4-2.1s-1.3-1.1-1.6-2.4c-1.3-7.1.2-18.8-1-26.5h-8.4c0,.1-1.6,2.5-1.6,2.5,0,102.5-.1,205,0,307.5ZM243,316c-1.8,4.5.2,4.8,0,8.5-2.1,59.1-1.4,118.8-1.1,178,.2,38.7,2.4,78,0,117s-.8,4.1,2,3.5v1c-.3.3-.6.8-1,1s-1.9,1-2,1c-.9.2-2,0-3,0-4.3.3-8.7-.2-13,0v16.5c0,5.4-15.4,4-19.1,4.9-.7.5-1.7,10.4-1.9,12.6s0,.7,0,1c-4.4,3.1-9.9,1.8-15,2v8h27.5c1.1,0,4.6,2.2,6.5,2l1,19h24.5c1-.6,1.3-1.4,1.5-2.5.4-2.3.7-16.4,0-18.5s.2-1.4,0-2c-1.8-1-4.3.9-5,1-1.6.1-3.4,0-5,0l-.2-1.9c-4.5.7-1.3-3.8-4.8-3.1-.2-1.9.1-4,0-6,3.1-6.1-.8-18.8,1.1-24.4s4.6-.4,3.9-3.6c.6-.1,1.3,0,2,0,1.7,1.4,5.5,1.8,7,0,1.6.4,1.9-.4,4,1v4s2,0,2,0c1,6.9-.8,14.1,0,21l-1,5.3c.3,1.1,1.9.5,2,.7s-.5,1.7.7,2c3.4.9,6.6-1,8.3-1s2,0,3,0v2s3,0,3,0l.4,20.1c1,1.4,6.7,1.2,8.6.9s2.1.5,2-.6c-.8-25.9,1-52,0-77.9s1-4-2-3.5v-4l2-.6v-3.4s-2,0-2,0c0-1.3,0-2.7,0-4l2-.6v-4.4s-2,0-2,0c0-1.3,0-2.7,0-4l2-.5v-2.5s-2,0-2,0c0-1.3,0-2.7,0-4l2-.5v-1.5s-2,0-2,0c0-.9-1.7-3.3-1-5,3,.6,1.9-1.5,2-3.5,1.3-37.8-2.2-77.6,0-115.1s2.1-7.3,2.1-8.9-1.9,0-2.1-2c-1.8-13.1,1-28.9,1-42s-.6-30.3-1-45.1.9-15.7.1-22.1-14.6-2.7-19.1-3.5c-.2-.6-.8-1-1-2,1.7-1.7,1.5-10.6,0-11.6l-17.4-.5c-1.2.2-.4,1.5-.6,2ZM645,358l-1-16-18-1.5-2.9-16.1h-20.1s-2.1,35.9-2.1,35.9l-1.5,1.5-8.7.3-1.6,2.4-.9,109.4c3.4,2,6.7.2,9.9-1.3,9.7-4.6,19-12.8,29.3-16.7l7.7-5.8c16.6-8.8,32.7-17.7,49-26s2.8-.5,4.2-1.3c2.7-1.4,18.2-9.2,18.6-10.4.6-1.8,0-4.4.2-6.3-1.2-1.2-16.1,2.5-18-3,0-.3,0-.7,0-1,0-.8.9-2.2.8-3.5-.1-2.3-.9-12.5-1.7-13.1l-20-1.5-1-23.5-21.1-1.4c-.3-.3-.9-.8-1-1ZM367,409c0,.3,0,.7,0,1-6.5,3.1-16.1-1.4-22,2.5v74.5l17.5,2c-.1,1.6,1.5,4.6,1.5,5.5v15.5h17.5c1,.6,1.3,1.4,1.5,2.5.9,5,0,13,1,18.5h17.5c2.7,5.5,2.4,13.7,2.5,20h17.5l1.5,1.5v18l1.5,1.5h17l1.5,1.5v18.5h26l1-20h19l1-20,18.1-.4,1.9-19.6c.3,0,.7,0,1,0,5.2-.7,11.6.5,17,0v-17.5c0-1,2.5-3.5,3.5-3.5h16.5v-19.5l1.7-1.3,13.3-1.2,1-83h-26s0-15,0-15h-45l-1.9,18.6-21.6,1.4-1.4,21.1h-25c-.2-.4-.9-.7-1-1v-21c-6.7.2-13.4,2.4-20,0-3.3-6.3,2.6-13.6-1.5-19h-52c-2.6,4.5-1.6,12.4-1.5,18ZM280,705h-18v9c6.1-.6,12,1.4,17.9,0v-8.9Z"/>
  <path class="st22" d="M694,75h16.5c.2,0,2,1,2.2,1.3l1.3,15.7h25.5c3.2,2.4,3.3,6.8,3.5,10.5s1.2,24.5-3.5,24.5h-25.5c-.2,4,1.7,17-4.5,17h-15.5v35.5c0,.7-3.2,3.2-4.5,3.5-4.4.9-21,.5-26,0s-7.5-1.5-7.5-4.5v-34.5h-17.5c-6.2,0-4.3-13-4.5-17h-25.5c-.7,0-3.2-3.2-3.5-4.5-.7-3.8-.5-19.8,0-24s2-6.5,4.5-6.5h24.5c-.3-2.8-.6-17,3.5-17h18.5v-37.5c0-3.1,5-4.3,7.5-4.5,4.4-.4,25.3-.5,27.9,1.2s2.6,2.9,2.6,3.4v37.5ZM668,119c1.5,13.2,3.6,26.4,6,39.5.3,1.6-.7,1.7,2,1.5l9.3-42.7,42.7-8.3-43.8-9.2-7.2-42.8-10.2,43.8-41.8,7.7c5.9,2.2,41.5,6.2,43,10.5Z"/>
  <path class="st24" d="M299,58c-.1.1.5,1.7-.7,2-3.2.8-16.4-1.1-18.2,1.1l-2,23.5-23.9,1.6-.7,1.8-1.5,133.1h-57.5c-1.6,0-5.5,3.4-5.5,4.5v19c-.6,1-1.4,1.3-2.5,1.5-8.2,1.5-25.8-2.2-32.7,1s-1.5,3-1.8,4.5v412c2.6,6.2,6.4,3.4,10.3,4.5s.6,2,.7,2c-5.5,0-12.1,1.7-13.1-5.4V251.5s1.5-5.5,1.5-5.5c.5-.5,4.5-2,5-2h30.5v-20.5c0-.9,5.4-4.5,6.5-4.5h56l1.5-1.5V86.5c0-2.4,3.7-3.1,5.6-3.4,6.5-.8,13.8.3,20.4-.1,1-1-1.5-18.5.9-22.6s16-1.6,21.1-2.4Z"/>
  <path class="st24" d="M645,494c-.4,57.4.5,114.8-.3,172.3l-.9,3.5c-2.7,2.7-27.4.5-32.8,1.2,0-.7,0-1.3,0-2,5.3-.8,30.3,2.1,31.9-2.6,1.7-56.2-1.7-112.7.1-168.9,0-1.9-1-4,2-3.5Z"/>
  <path class="st24" d="M661,465l-15.8,8.2c-.4,5.9-.1,11.9-.2,17.8-3,.6-1.9-1.5-2-3.5-.2-5.2.1-10.4,0-15.5,3.5,1.1,3.5-1.2,4.8-1.9,4.7-2.4,8.5-3.4,13.2-5.1Z"/>
  <path class="st16" d="M551,161c-.3-9.6.2-19.4,0-29,1.8,6.7,1.1,16.3,1,23.5s.6,4.4-1,5.5Z"/>
  <path class="st24" d="M679,456c-3.9,2.6-8.7,5.2-13,7,1.6-5.7,9.2-5.6,13-7Z"/>
  <path class="st24" d="M693,449c-2.5,2.1-6,3.7-9,5,.8-3.9,5.4-5.1,9-5Z"/>
  <polygon class="st24" points="716 438 714 439 714 437 716 438"/>
  <path class="st24" d="M662,465l1-1c0,0-.3.7-1,1Z"/>
  <path class="st24" d="M664,464l1-1c-.2,0-.4.8-1,1Z"/>
  <path class="st24" d="M680,456l1-1c0,0-.2.7-1,1Z"/>
  <path class="st24" d="M682,455l1-1c-.1,0-.4.8-1,1Z"/>
  <path class="st24" d="M694,449l1-1c0,0-.2.7-1,1Z"/>
  <path class="st24" d="M696,448l1-1c-.1,0-.4.8-1,1Z"/>
  <path class="st24" d="M698,447l1-1c-.2,0-.4.8-1,1Z"/>
  <path class="st24" d="M700,446l1-1c-.2,0-.4.8-1,1Z"/>
  <path class="st24" d="M702,445l1-1c-.2,0-.4.8-1,1Z"/>
  <path class="st24" d="M704,444l1-1c-.2,0-.4.8-1,1Z"/>
  <path class="st24" d="M706,443l1-1c-.2,0-.4.8-1,1Z"/>
  <path class="st24" d="M710,441l1-1c-.2,0-.4.7-1,1Z"/>
  <path class="st24" d="M712,440l1-1c-.2,0-.4.7-1,1Z"/>
  <path class="st24" d="M708,442l1-1c-.2,0-.4.7-1,1Z"/>
  <path class="st21" d="M468,432c.1-.1,1.4.3,2-.7,2.2-4,1.1-14.5,1-19.3,3.9-.9,23,3,23-3.5v-16.5h43c-1.3,2-1.6,12.9-.8,13.8s1.6,0,1.8.2-.5,1.7.7,2c2.7.7,10.7,0,14.3,0l8,1,1,73c0,2,0,4,0,6l-14.8,1.2-2.2,19.3c-2.2,1.5-11.6.9-14.5,1.5-6.3,1.2-5.6,15.1-5.5,20-3.5,0-7-.1-10.6,0s-4-1-3.5,2c-.3,0-.7,0-1,0-1.3.4-1.5,1.6-2,2s-1.6,0-2.5,1c-2.9,3.3-3.9,7.3-9.2,9.9-2.7,1.3-15.3,2.3-11.9,7.2l2.5,1.5-1.6,5.5c-5.6,1.7-6-2.7-7-2.9-2.9-.7-9.5.7-14.9-1.1s-3.8-4.5-8.3-2.3-1.7,3.4-3.7,3.4c-3.9,0-7-4.7-12,0l-1.5-6c-2.6-.8-2.3,2.7-3.7,3-2.1.5-7-.4-9.3-1s-4.5-2.5-7.6-2.9-8.4.2-12.4,0l-1-18.5-19-1.5v-16.5c0-6.2-16-4.1-20-3.5v-19.5c0-4.9-14.6-3.2-18-3.5v-73c5.1-.7,16.2,1.7,20.1-1.5,1.5-1,0-1.4,0-1.5,0-.3,0-.7,0-1,3,.6,1.9-1.5,2-3.5.1-4.2,0-8.4,0-12.6h50.4c1.5.2,0,14.2.6,16.3s1.9.5,2,.7-.5,1.7.7,2c3.3.9,16.8-1,18.3,0-.2,5.9-.8,13.6,1,19s.8.6,1,1-.3,1.5.1,1.9h24.3c1.1,0,.5-1.7.6-1.9Z"/>
  <path class="st18" d="M585,494c2.8-.7,1.7,1.6,2,2l.2,3.8,7.8,2.2c-2,4.4,1,8.6.8,9.3s-1.9,1.7-1.7,3,2.4,2.5,2.7,4.4-1.6,8.5-1.5,11.7c.2,4.1,3.6,4.9-1.3,10.1l4,3.1c-2.6,2.6-.6,5.3-1.5,7.4s-6,6.1-6.4,7.8c-1,3.6,3.4,12.1,1.7,16.7s-4.3.2-4.9,5.1,1.8,8.8,1.9,12-1.1,3.6-.9,6c.4,4,3.4,12,3,15s-3,3-2.9,4.8c.3,3,3.5,6.8,6.9,5.7-1,2.1-.5,5.5-1.2,7.3s-2.8,1.8-3.9,3.2c-3.2,4.1-4.2,5.3-7.6,8.8s-3.4,5.9-5,6.5c-3.4,1.2-10.1-.7-13.6.1s-3.4,7.3-8.1,3.9-1.4-4.7-6.6-2.4-1.4,7.3-2,11.5c-13.8.4-15.4.7-14.5,16-4.8-.9-9.7.8-14.5,1s-29.4-1.2-33.1.5-.8,1-.9,1.5v1c-.3,0-.7,0-1,0-.7,0-1.3,0-2,0v13c-10.1,3.8-40.4-2.4-47.7,2.3-1,.6-2.4,4.3-2.3,5.7,0,.3,0,.7,0,1-4.2-.7-1,8-2,9-9.3,2.2-33.6-2.7-40.8.7s-4.9,4.1-5.1,4.4c-.3.6,2,10.1-.2,12.8-11-1-23.5-1.7-34.5-1s-19.8,3.8-15.5,17c-10,1.7-19.9-1.4-30-1,4.3-55.6-3.2-116.4,0-172.5l1-5.5c2.3,2.8.2,7.3,1,10.3s2.1.6,2,1.2c0,1.5-2,2.5-2.1,5s0,8.5.2,9.9c.3,3.1,1.9,6.4,1.9,9.7,1.7,0,2.2.6,1.9-1.4s-2.8-11.6,1.6-10.6,2.5,4.5,2.5,5.6c0,2.3-2,3.5-1.8,4.7.3,2.3,8,9.6-3.6,4.7-.6.5-1.1.9-1.4,1.7-.4,1.2-1.3,12.2-1.2,13.9.2,3,1.8,4.8,1.9,6.1s-2.6,6.1-1.9,10.9,1.4,1.1,2,2.2-.5,2.3.7,3.3,8.2,3.6,9.2,3.7c3.1.4,8.8-2.4,6.1,5.5s-6.4,2.4-5.8,5.7c6.5,2.9,11.2,1,18,1,1.5-3.2-6.2-10.1-.5-10s1.9,10.6,5.7,12.8,10.3-1.4,13.8.2c-.5-3.3.5-4.1,3.1-5.7l-2.1-6.3,3.4.9c1.5-.4,2.6-6.1,5.6-3.2,0,2.1,2.3,12,5.5,11.4,2.1-.9,2-4.1,3.2-5,4.9-3.9,2.1,5,8.6,2.8s14.6-10.8,16.2-10.8c1.3,3.9,2.3,4.5,6.5,5,.7,2.5-3.9,5.7-1,7.5s2.9-.7,4.5-.5c2.4.2,4.4,3.6,8.5,1-1.1,6.8,2.5,9.1,8.6,9.9l2.4-1.5-2-5c3.9-2.9,6.9.9,11.6-3.5s.6-2.4.7-3.8c.4-5.5,4.3-2.5,4.6-.6s-6.4,9,6.6,6.4,2.3-4.4,4.4-6.6,5.3-.8,5.1-5.4c2-1.5,5.4,4.8,1,5.5l.5,1.5c4.4,2.5,17.8,9.5,16.5,0,3.8,1,7.3,4.1,11.6,3.9s4-5.4,9.8,0c3.7.1,3.8-8.4,5.9-3.5s0,5.2,5.1,3.7-.3-3.9,5.1,0c3.1-1.1,2-6.2,4.6-7.5s7.4-.2,10.3-1.7,2-2.9,3.2-3.8c7.6-5.3,11.2-4.7,15.3-14.7s-.2-12.6,9.2-11.2c-1.7-4.7,3.2-6.3,3.8-8.7,1.7-6,1.8-4.9,3.7-9.3s1.4-5.9,1.3-6.3c-.1-.9-1.7-1.8-1.8-3.2s1.2-3.2.9-4.8c-.5-2.2-7-5.2,1.1-7.7l-2-5.9c7.3-.5,3.4-8.2,9-11.5.7-3-5.5-2-5.9-4.1,2.3-3.4.8-8.2,1.2-10.8s3.6-6.2,4.5-8.4-.2-3.7.7-5.3,3.8-1.3,3.6-3.5c0-2-2.8-3-3-4.1s4.5-5.4-.6-7.4c-1.8-.7-1.3,1.8-2.1,2-2.1.5-5.1-.3-7.3,0,.3-3.6-.2-7.4,0-11h13.4c1.2-.2.5-1.8.6-2,6.3-7.1,2.6-6.2,5-14s1.8-3.3,3-4Z"/>
  <path class="st16" d="M499,282c-.4,3.4.9,6,4.5,6.1,2.2,0,2.4-4.1,5.2-4.9s13.5,1.9,16.1-1.4-.8-4.6,2.7-4.9,5.2,5,6.1,5.2,3.2-1.3,4.8-1.1,2.7,2.1,3.9,1.9,2-2.5,3.3-2.8c2-.5,3.2,1.9,4.6,1.8s2.3-1.7,4-1.6c5.3.4,8.6,5.7,9.4,10.5.9,5.4-2,14.1,6.2,13.3l-1.1,9.9-5.4,1.1c-.2.4-1.3,7.7-1.3,8.6,0,2.4,2,4.2,1.6,6.7-.5,4.1-3.2,8.1-7.8,6.8l-1.9,12.4-5.5.7c-2.7.8-.6,11.2-.7,13.9,4.5-2.4,8.2-.5,12.9-2.1,1-5.3-1.5-14.5,1.1-18.9l-.4,41.1c-1,1.5-8.1,1.5-9.1,0l-1.5-17.1c-.5,0-.9,1-1,1-.7-.2-3.1-1.2-3-2s.9-.5,1-1c-3.7,0-7.4,0-11,0l-.6-2h-7.4s0,2,0,2c-.7,0-1.3,0-2,0l-.6-2h-3.4s0,2,0,2c-2.7,0-5.3,0-8,0-2.2-1.7-8-1.7-10,0-4.7,0-9.3,0-14,0-3-1.6-12-1.7-14.6,0s-1.9,3.6-2.8,5.7-1.4.4-1.6,1.1c-.7,3.1,1,11.4-.5,13.4l-11.5,2.1c-.4.6,0,1.6,0,1.9s-.8.7-1,1c-2.3-.4-4.6-.8-7-1s-4.9-.3-8-1-4.7-.2-5-1.7l1.1-15.6-7.6-5.7c-23.3,0-46.7,2.2-69.9,1.9s-6.9-2.9-10.5,2h-9c-.7-5.3-3.5-8.4-1-14l-7,2c-.1-2.3,2.1-2.7,2-5.4-.1-3.8-4.5-6.7-3.9-8.9l2.9-4.7,6,3-.9-5.8,4.4-2.2c2.9-.6,1,4.4,1.5,6h3c-1.3-7.7,4.6-6.8,9-9.6s12.5-10.5,10.9-15.8-5.5-2.4-3.9-6.6c2.4.3,5.5,0,8,0,7.7.2,16.6.7,24-1,.7,0,1.3,0,2,0,3.4,2.3,6.6,1.6,6.1,6.9,5.3,1.6,11.4-.9,16.4.1s2.9,2.5,4.2,2.8,3.5-.9,5.3-.5,4.6,4.8,6.3,4.5c2.7-1.1,3.9-6,6.3-6.7,3.6-1.1,7.5,1.4,9.8,0,5-3.2,8.3-14,9.5-14.7s3.3.9,5.3.4,3.7-2.6,5.7-3.4,3.9-.1,5.4-.6,1.9-3.2,3.7-4.3c4.1-2.4,8.4.2,7-8.5,2.6,0,5.4.1,8,0ZM560.8,368.2l-4.8-1.1v10c5.3.5,5.6-4.7,4.8-8.8Z"/>
  <path class="st18" d="M366,307c-1.6,4.2,3.4,5,3.9,6.6,1.6,5.3-6.8,13.2-10.9,15.8s-10.3,1.9-9,9.6h-3c-.5-1.6,1.3-6.6-1.5-6l-4.4,2.2.9,5.8-6-3-2.9,4.7c-.6,2.2,3.8,5.1,3.9,8.9s-2.1,3-2,5.4l7-2c-2.5,5.6.3,8.7,1,14h9c-3.1,4.2-3.7,14-2,19h-16.5c-.4,0-5,4.8-5.3,5.7-.8,2.7-.1,19.5-1.3,20.2-1.7.7-4.5-1.3-5.7-.8s-5.1,6.1-5.1,7.4c1.1,19.5-1.6,40.7,0,59.9s2.4,12.4,13,11.5c.6,5.7-1.4,14.2,1.2,19.3s5.5,2.6,9.2,2.8,5.6,1.6,8.6.9c-1.9,4.5-.7,8.1-.2,12.5s-2,6.5,4.2,7.5,11.1-.5,16,0c.6.6-.4,13.4,0,16s.8.7,1,1,0,1.5.5,2l19.5,1c.8,11.2-5.7,22.2,10.5,22,2.9,0,5.5-1.4,8.5-1v17.5c0,6.8,15.3,2.7,18.7,3.8,5.1,1.6-1.1,19.5,6.7,22.3l8.5-.6c-2.9,6.3-.5,13.9,6.6,14.9s5.7,0,8.4,0l1,7c-2,.2-4.6-.5-6.4.1s-1.3,2.8-2.3,2.9-3.1-1.2-4.8-1.1c-2.7.2-7.5,4.5-10.6.6s-2.8-8-4.6-9.6-5.6-1.4-7.2-2.5-1.4-3.1-4-4-6.9-.2-10.1-.4c1,3.9-1.8,4.2-3.6,7h-1.9c-1.5-5.1-7.7-.9-7.6-6.5s3.7-6.1,1.1-10.5c3.6-1,2.2,2.1,4.5,2l3.4-3.7c.4-1.6-1.6-3.4-2-5.7-1-7.2,5.7-15.8-7-14.5.7-15.9-10-2.3-18-5.5v-7.5s-3.9,6.6-3.9,6.6c2.7,11.7-1.8,6.3-5.6,9.3s-.8,4-2,5.2c-2.2,2.1-6.7,2-9.4.9l2,7c3.1-.2,3.7-3.8,7.4-3.1s-1.6,15.9-1.4,19.1c-3.3-1.3-4.2-2.2-8-1.4l-2-8,3.6-1.5.4-3.1c-3.9.8-2.7-1.5-4-3.3s-2-.6-2.1-1.3c-.2-2.2,1.5-6.2,0-9.4l4-1.5-2.5-2.5c-1.8-.7-1.4,2-2.1,2.1s-7-2-7.2-2.3c-.5-.6.1-2.6-1.2-4.3s-4.9-2.7-6.9-2.6l-.8-8.3,5.7-5.2c.3-1.3-3.1-4.4-.9-7.4h-3s0-2,0-2h3s0,2,0,2c.2-.2,4.6-.8,1.8-3.9s-2.3,0-3.3-1.1-6.2-7-6.5-7.5c-1.9-2.6-2-7.6-6.5-8.5-3.1-.5-.8,4.6-.9,6.4-.3,5.8-8.2,1.7-6.7-3.4-4.6.4-7.1,2.2-6,7l-7-3-1,14-1-236h18.5c4.1-7.4,2.6-4.4,7.9-5,10.9-1.2,21.7-.6,32.6-1.5.6-.3.7-1.1,1-1.5s-.1-.7,0-1c1.8-5.3.8-10.4,1-16,.2.2,1.9,1,2,1Z"/>
  <path class="st18" d="M370,552c-.2-.2-.9.2-1,0v-1c0-1,0-2,0-3l1,4Z"/>
  <path class="st7" d="M259,317c1,2.9,1.3,6,2,9s.8,1.4,1,2-.1.7,0,1c.2.5-.2,1.4,0,2h15s1,291.5,1,291.5l2,3.5c0,1,0,2,0,3-3-.6-1.9,1.5-2,3.5-.2,7.1-.3,15,0,22.1s-1,4,2,3.5v7l-1.6,20h-5.4s0-19.4,0-19.4c-.2-1.2-1.5-.4-2.1-.6-1-.4-1.9-1-3-1s-2,0-3,0c-1.4-1.8-4.8-.9-7-1-2.6-5.4,0-11.4,0-16.4s-.9-13.5-1.4-14.6c-2-4.6-14.1-4.4-18.5-3l-2-2c.8,0,1.7,0,2-1,1,0,2.1.2,3,0l2-1c.4-.2.7-.7,1-1,1.8-2.4,1.1-15.5,1-19.5s.6-4.4-1-5.5v-15l1-1.5-1-.5v-36l1-.5-1-.5v-40c1.7-5.1,1.7-13,0-18v-6c1.7-5.1,1.7-13,0-18,0-1.7,0-3.3,0-5v-118c0-5-.1-10,0-15h2s0-2.5,0-2.5l-2-.5c0-.8-.2-2.6,0-3s2.5.2,2-2h13Z"/>
  <path class="st27" d="M176,557c3.5.1,2.8.6,3-2.5,1-12.8.4-22.9,2.1-36s-3.8-21.3-.5-28.5,2.4-2.3,3-4,1.2-10.8,2.5-11.9,4.3,1.1,7.5-2.1,4.1-6.2,4.3-6.8c.5-2.6-2.9-7.2,2.9-9.1s4,2,4.9-4.3l4.4-.9,2,14c4.4,0,3.2-5.8,4-8.3s1.9-.6,2-.7h1v11c-1.6,1-1.6,5.1,0,6,0,4.3,0,8.7,0,13-1.7,3.7-1.7,11.1,0,15v3l-1,.5,1,.5c0,16,0,32,0,48-1.7,1-1,3.8-1,5.5,0,7.3,0,14.7,0,22s-.6,4.4,1,5.5c0,1.7,0,3.3,0,5l-1,.5,1,.5c0,3.9.3,8.2,0,12l-1,.5,1,.5-.5.9c-3.5-.9-14.2-.3-16,3.1s1.1,15.8-1.4,17.6c-5.4,1.2-9.9-.6-15.1,1.4s-3,1-4,3-1.9,7.6,0,10c0,.7,0,1.3,0,2-2.1.6-5.9,2.3-6.9-.7s-.2-20.3-.1-25.3h5.9c2.4-4.1-2.3-6.6.1-11l-6,1c0-1,0-2,0-3h2c.4-1.2-1-1.9-1-2,0-.3,0-.7,0-1,1.8.1,3.9,0,3.9-2.4,0-4.3-.5-11.5-4.9-5.6h-1c0-1.3,0-2.7,0-4,.4-.2.7-.9,1-1,1.3-.4,2.5,1,2-2h-2v-2l5-.6c.6-7.1.5-13.8,0-21s-2.5-1-4-1.5c0-1.3,0-2.7,0-4ZM214,467h-2s0,5,0,5h1.5s1.4-1.6,1.4-1.6l-.9-3.4Z"/>
  <path class="st11" d="M635,450c-11.6,6.2-23,14-34.8,19.7-3.1,1.5-6.9,3.4-10.2,3.3v-109c3-.3,10.9,1.2,12.3-2.2s.2-19,.7-25.3.7-7.6,1.1-8.9c.9-2.8,14.4-1.5,17.8-2.7l2.5,17c2.1,2.1,15.1,1.5,18.5,1,.4.4-.4,10.3,0,12.5s1.8,2.1,2,2.5.7.7,1,1-.4,1.4.1,1.8c3.1,2.5,15.7.2,19.9.2v21.5c1.4,5,18.8,4.6,19.9,5.7s0,1.6.5,2.4,1.4.5,1.6,1.1c.7,3.1-1.3,7.6,1,10.3,0,.3,0,.7,0,1,.4,7.8,10.5,4.3,16,5,0,1.1.2,2.4-.2,3.3-.9,2.4-18.2,9.8-20.8,12.7-16.3,8.3-32.4,17.2-49,26ZM642,378c-3.4-3.1-8.1-7.4-11.8-10s-7.2-5.4-9-5.8c-10.6-2.4-13,8-13.3,16.3s1.2,12.4,1.1,18c-.2,9.9-1.7,19.9-1.1,30,0,1.6.8,10,1.1,10.4s1.6-.1,1.9,0c1.4.8,1.2,1,2,2s-.6,1.4.7,2c8.2,4,12.8-1,18.3-5,8.9-6.4,19.9-15.6,28-23,.5,2,2.4-.3,3-.8,6.1-5.6,7.6-14.3-1-18.2-.2-.3-.7-.6-1-1-1.2-1.3-.2-4-4-3-4.4-4.3-7.6-5.7-12-9,.4-1.9-.1-2.3-2-2-.4-.3-.6-.7-1-1Z"/>
  <path class="st19" d="M321,246c.8-.2,2.2.4,2.8-.2s2.2-4.1,2.2-4.3v-24.5l12-1v78c-10,.7-20.5-1.8-30,2s-2.6-.4-4.5,2-1,4-1.5,6l-2.6,3.1h-16.5c.4-4,0-6.5-1-10.1s.4-1.8-.2-2.7-5-3.3-5.3-3.3h-31.5c-.3-4.8.7-10-.8-14.6s-2.7-1.8-2.3-4.2c-.5-.6-2-.1-2.9-.2-8.7-.7-18.2.5-27,0v-23c27.6-.2,55.4.2,83,0,6.9,0,14.3.4,21.7-.9,1.9-.3,3.9.8,3.3-2.1.3,0,.7,0,1,0Z"/>
  <path class="st23" d="M422,96l56,1c.4,5.3.1,13.4,2,18s-.3,1.9,1.7,2.8c5.1,2.5,15.7,2.3,21.3,1.2-1.2,2.6-2.7,11.7,2,12,.3,4.7-1.1,4.8,3,8s.3,1.3,1.7,1.8c3.2,1.1,10.1,1.8,13.3.2-1.4,4.5-.3,8.6-.4,12.7-.2,24.3,1.1,48.9-1.5,72.9-.4,4.1.1,8.3,0,12.4-7.1-.2-13,1.4-19-3-.1-2,0-4,0-6,1.7-1,1-3.8,1-5.5.3-21.4,1.5-47.1,0-68.1-.1-1.5-.1-3.6-1-4.8s-1.9-.5-2-.6.5-1.7-.7-2c-2.2-.6-15.8-.4-16.4-1v-15.4c0-1.2-1.6-.4-2-.6-1.1-.7-1.9-1.9-2-2-6.2-3-8.8-.3-14.9-2.1-.3-3.9.9-14.3-3.8-15.7l-29.9-.3c-6.7,3.4-5.5,10.7-5.4,17.1-.8.8-6.9-1.9-6,2-3.9,0-8.2-.4-12,0s-1.2-.3-1.8.2c-2.2,4.5-3.8,8.7-3.2,13.8-6.7.4-17.6,5.8-18-5,11.1-1.2,2.5-16,9-22,1,0,2,0,3,0,2.3,1.6,12.1,1.8,14,0s.9-1.7,1-3l2-.7c0-3.4,0-6.9,0-10.3,1.8-.8.5-3.8,1.1-4.9s4.9-.2,3.9-3.1c1.3,0,2.7,0,4,0Z"/>
  <path class="st1" d="M284,104c-4.1,5.3-1.6,12.7,5.4,10.1l2.1,2.9,5.9-3.1,1.5,2c.2,7.2-.2,14.4,0,21.5s-1,4,2,3.5c0,11,0,22,0,33l-1,53-1,1c-.7,0-1.4,0-2,0s-1.4-1-3.4-1.1c-5.5,0-10.3,1.1-15.6,1.1.4-11.7,0-23.3,0-35-.2-29.7.1-59.4,0-89,2,0,4,0,6,0Z"/>
  <path class="st4" d="M378,139l2,1c1.2,0,2.8.1,4,0,.4,10.8,11.3,5.4,18,5,0,.3,1.7,1.5,1,3l-16.4,1c-1.2.2-.4,1.7-.6,2.1s-.8.7-1,1c-4.1,6-2.8,6-3,13-1.1,35.1-1,72.3,0,107s0,.7,0,1v1c0,.3,0,.7,0,1-2.1,2-.6,6.2-1,9h-16l-1-47c0-1.3,0-2.7,0-4,.6-.1,1.6.2,2,0,1.4-.7.9-1.2,1-2.4.8-7.7,0-19,0-27.1s.6-4.4-1-5.5v-8c1.7-6.8,1.7-16.2,0-23,0-.7,0-1.3,0-2,10.9-4.3,2-14.8,1-21s0-1.4,0-2h3.4c0-.1.6-1,.6-1v-2c2.2-.2,4.7,0,7,0Z"/>
  <path class="st8" d="M304,83c12.6-.8,22.5,4.3,23.8-11.5s-1.1-3.1-.8-4.9,2.7-3.9,2.1-6.5h61.4c0,0,2.4,1.6,2.4,1.6.4,5.6-.8,9.8,2.3,14.8s2.6,1.4,2.9,2.3c.8,3-.6,8.8,0,12.3h-22v-9.3c-.2-1.1-1.9-.6-2-.7-.2-.3-.4-1.1-1-2s.6-1.3-.7-2c-2.2-1.3-16.8-1.5-19.8-1s-2,1.6-2.5,2-.8.7-1,1c-.4.5-1.6.3-2,2.5s.4,9.2,0,9.5c-7.7.5-15.9-1.6-22.9,2.1l.9.9c-.4.9-1.4,1.3-2,2s-1.2.9-2,2-1.5.7,0,2c0,1.3,0,2.7,0,4-3.3.5-6.4,2.3-6,6-2,.1-4.1-.2-6,0-4.2-1.9-2.1-7.6-4-10.4s-2-.6-2-.6c-.2-.2,0-1.4,0-2,2.2-3.8.5-9.6,1-14Z"/>
  <path class="st29" d="M466,205c.3-.4,1.1-.6,1-1.5l1.1-9.4h8.9c-.5,13.8.7,27.9,0,41.9s-1.3,16.4-2.1,16.9c-9.8.7-20.1-.5-29.9.1-4.3-13.5-1.2-28.9-2-43,4.2,0,15.3.8,18.3-1s.6-1.9.7-2c.9-.6,2.9-.7,4-2Z"/>
  <path class="st29" d="M236,627l2,2c-3.2,1-1.4.5-3,3s-.9.7-1,1c-.2.5-.9.7-1.1,2.4-.8,7.2-.2,19.6,0,27.2s-1,4,2,3.5c0,.9-.2,2.3,0,3,1.7,5.7,11.7,1.2,13.6,3.9l-.6,17.1h-22c-.2-4.8.2-11.8-1-16.3s-1.9-.6-2-.7c-.8-.9.7-2.4-3.6-2.9-9-1.2-19.2,1.1-28.4-1.1v-4c2.5.2,13.4-.3,14-2.6.1-.7-1-1.3-1-1.4,0-.3,0-.7,0-1,3.2.6,1.7-1.6,2-3.5s.3-5,1.2-7.4c9.8-2,20.1,2,19.9-11.6s-2.1-6.4-.6-9.6c1.2-1.7,7.2-.8,9.6-.9Z"/>
  <path class="st13" d="M174,577c-.1-102.5,0-205,0-307.5l1.6-2.4h8.4c1.2,7.5-.3,19.3,1,26.4s.5,1.7,1.6,2.4c4.2,2.9,24.3,1.7,30.4,2.1.1.5.5.9,1,1v1c-2.3-.2-4.7.2-7,0-7.1-.7-15-.2-21.4-1.1-11.7-1.7-7.2-21.4-6.6-29.9h-7c-.6,3.9,1,7.6,1,11.5.8,67.1-.9,134.3-1,201.5,0,1.3,0,2.7,0,4,0,9.7,0,19.3,0,29s0,2,0,3c0,13,.2,26,0,39s0,2.7,0,4c0,4,.2,8,0,12s0,.7,0,1c0,1.6-1,2.8-1,3h-1Z"/>
  <path class="st4" d="M581,211c2.3,5.7.6,12.2,0,18h-31.5c-.3,0-.8,1.3-1.5,1v-39l6.1.6c2.4,14.4-2.8,21.3,15.5,20.5,1.3,0,2.3-1,2.4-1,2.6-.1,6.5-.3,9,0Z"/>
  <path class="st3" d="M259,317h-15s0,2,0,2c-.2.4,0,2.2,0,3s0,2,0,3c-.1,5,0,10,0,15-.3,39.3,0,78.7,0,118s0,3.3,0,5c0,6,0,12,0,18v142c-2.9.6-2.2-1.6-2-3.5,2.4-38.9.2-78.3,0-117-.3-59.3-1-118.9,1.1-178s-1.9-4,0-8.5c5.1.6,11.5-1.3,16,1Z"/>
  <path class="st3" d="M278,330l1,3c4.8,77.2-3.6,159.3,0,237-.7,1.7,1,4.1,1,5s0,1.3,0,2c0,1.3,0,2.7,0,4s0,2,0,3,0,2.7,0,4,0,3.3,0,5,0,2.7,0,4,0,2.7,0,4v4c0,7,0,14,0,21l-2-3.5-1-291.6h-15c-.1-.6.2-1.5,0-2l16,1Z"/>
  <path class="st15" d="M363,323c-.3.4-.4,1.2-1,1.5-10.9.9-21.7.3-32.6,1.5s-3.9-2.5-7.9,5h-18.5l1,236v2l-1,5.5c-3.2,56.1,4.3,117,0,172.5s0,1.7-1,2c-.5-45.3.7-90.7,0-136,0-.7,0-1.3,0-2,0-2.7.1-5.3,0-8s-.9-7.6-1-10,0-2,0-3c1.7-1,1-3.8,1-5.5,1-79.8,0-159.7,0-239.5v-4c0-3.3,0-6.7,0-10,7.5-3,21.5,3.4,21-7h30.5c1.9,0,6.5-2.1,9.5-1Z"/>
  <path class="st24" d="M302,331c0,3.3,0,6.7,0,10-1.6.4-1.5,3.7,0,4,0,79.8,1,159.7,0,239.5,0,1.7.6,4.4-1,5.5,0-.3-1.7-2.2-1.1-3.4l.2-255.5c.6-.4,1.5,0,1.9-.1Z"/>
  <path class="st0" d="M363,305l94-3v-22l52.4-1.1c1.3-.3,1.4-1.2,1.6-2.4.4-2.4.4-16.9,1-17.5l70.1-.6v82.5c-3.7,1.8-16.9-.4-17.9,2.7l-1.1,42.4h-13s0-18,0-18c0,0,.5-.9,1-1l1.5,17.1c1,1.5,8.1,1.5,9.1,0l.4-41.1c4.2-7.1,16.2-.6,18.6-3.9.9-7.6.4-15.4.4-23.1.2-18.7-.1-37.4,0-56-6,0-12-.1-18,0s-16.4.6-24.5,1-16.6,2.5-25.5,1c.5,5.9.9,11.1-.1,16.9-5.4,2.8-8,2.9-13.9,3.1s-5.4,0-8,0c-10.3,0-20.6-.8-30.9-.9-3,1.9,5.6,20.4-7.1,23.4-6.5,1.5-14.7-.5-21.6,1.5-10.5-2.4-21.3-.3-31.5,0s-1.3,0-2,0c-7.8.2-16.5-1-24,1-2.5,0-5.6.3-8,0s-1.8-.8-2-1-.3-1-1-1Z"/>
  <path class="st25" d="M262,328c4.5.7,18.3-2.4,19.1,3.5s-.3,15.3-.1,22.1c.3,14.8.9,30,1,45.1s-2.8,28.8-1,42,2.1,1.4,2.1,2c0,1.6-1.9,5.9-2.1,8.9-2.2,37.5,1.3,77.2,0,115.1,0,1.9,1,4-2,3.5-3.6-77.7,4.8-159.8,0-237,0-.8.2-1.6,0-2.4l-.9-.6-16-1c-.1-.3.1-.7,0-1Z"/>
  <path class="st17" d="M535,553l4-2,.4-18.1c1.3-1.8,5-.5,6.9-.9s1.1-2.1,2.4-2.8,6.1-1,6.3-1.3,0-4.1.8-5.7,2.2-1.1,2.3-1.9c.4-2.3-.9-4.5-1.1-6.7l2.1-1.2-1-4.4,6.5,1,1.1-3.1,12.4-1,.2-14.8c11-5.2,9.3,3.7,11.8,5.5s5.6-2.8,8,2.4c-5.7,1.8-6.3,4.4-11-2s.8-2.7-2-2v-1l-2.5-2c-1,0-.3,1.3-.5,2-.5,1.7-.6,3.3-1,5-1,4-1.5,8.6-3.6,11.9l-17,2-.4,20.1c-.3.3-.7.8-1,1l-17,.4c-1.7,1.2-.8,7.1-1,9.6-.2,4,.6,6.1-1,10h-5Z"/>
  <path class="st28" d="M468,432l1.4-21.1,21.6-1.4,1.9-18.6h45v15h26s-1,83-1,83l-13.3,1.2-1.7,1.3v19.5h-16.5c-1,0-3.5,2.5-3.5,3.5v17.5c-5.4.5-11.8-.7-17,0-.6-3,1.5-1.9,3.5-2,3.5-.1,7.1,0,10.6,0-.1-4.9-.8-18.8,5.5-20s12.3,0,14.5-1.5l2.2-19.3,14.8-1.2c0-2,0-4,0-6,.9-24.6-.6-49.4,0-74-3,0-6,0-9,0s-11.6.7-14.3,0-.5-1.9-.7-2-1.4.3-1.8-.2c-.8-.9-.5-11.8.8-13.8h-43v16.5c0,6.5-19.1,2.6-23,3.5,0,4.8,1.2,15.3-1,19.3s-1.9.6-2,.7c-.2.2.4,1.8-.6,2h-24.3c-.4-.4,0-1.7-.1-2h25Z"/>
  <path class="st17" d="M599,498c-.8-3.1,3.1-2.1,3.8-3.2s.1-2.6.7-3.7c1.4-2.7,12-2.8,15.7-4.1s3.9-5,5.6.8c.4,1.4,2.1,15.5,1.9,16.7-.2,1.8-2.4,3.1-2.8,6.1-1.5,11.7.4,26.9,2,38.1s-.7,7.4,1.1,10.9l-3.1,1.1c-.6,7.6,3.3,13,2,20.9s-1.9,2.9-2.1,5.1c-.2,3.1,1.8,4.1,2.2,6s-1.9.8-2.1,2.9,0,6.4.2,9,4.6,8.9-2.1,8.6v-30c0-4.7,0-9.3,0-14v-82c-8.4,2.5-14.7,8.1-23,11Z"/>
  <path class="st28" d="M635,450l-7.7,5.8c-10.3,4-19.6,12.1-29.3,16.7s-6.5,3.3-9.9,1.3l.9-109.4,1.6-2.4,8.7-.3,1.5-1.5,2.1-35.9h20.1s2.9,16.1,2.9,16.1l18,1.5,1,16c-.2-.4-1.6-.3-2-2.5s.4-12.1,0-12.5c-3.4.5-16.4,1.1-18.5-1l-2.5-17c-3.4,1.2-17-.2-17.8,2.7s-1,7.1-1.1,8.9c-.5,6.2,1.3,20.5-.7,25.3s-9.3,1.9-12.3,2.2v109c3.4.1,7.2-1.7,10.2-3.3,11.7-5.7,23.1-13.5,34.8-19.7Z"/>
  <path class="st0" d="M370,552c5.4,3.5,13.9,1.5,20,2l1.1,18.4c.4,1.1,3.7,2.6,4.4,2.6h14.5v18.5l1.5,1.5h18.5c2.4,12.2-4.6,26.4,14,23l.9,12.6c4.1.2,17.6,1.7,20.1-.6s.7-1.2,1-2c.3-.3.7-.6,1-1,.4-.6,1.1-1,1-2,0,.3,1.4,1.4,1,3.3l-4,5.7c-1.6-.5-5.8.1-8,0s-5.8.3-8.4,0c-7.1-1.1-9.4-8.7-6.6-14.9l-8.5.6c-7.9-2.8-1.7-20.6-6.7-22.3s-18.7,2.9-18.7-3.8v-17.5c-2.9-.4-5.6,1-8.5,1-16.2.1-9.7-10.8-10.5-22l-19.5-1c-.5-.6-.2-1.6-.5-2,.1.2.8-.2,1,0Z"/>
  <path class="st0" d="M369,552c-.2-.3-1-.7-1-1h1v1Z"/>
  <path class="st0" d="M599,498c8.3-2.9,14.6-8.5,23-11v76c-1.6,1-1.6,5.1,0,6,0,4.7,0,9.3,0,14-1.7,1-1,3.8-1,5.5-.2,17.8,0,35.7,0,53.5v4c-.6,0-1.3,0-2,0-10.3-.4-20.7.3-31,0,.7-1.6,2.9-1.9,4.5-2,8.7-.9,18.7.7,27.5,0v-155l-12.3,6c-1,2.8-3.4,1.7-5.4,2.8s-7.1,3.8-7.3,4.2l-7.8-2.2-.2-3.8c4.7,6.4,5.3,3.8,11,2s.7.1,1,0Z"/>
  <path class="st3" d="M220,299v308c-3.7-.2-17-.9-17,4.5v16.5h-17c5.2-2,9.7-.2,15.1-1.4,2.5-1.8-.5-14,1.4-17.6s12.5-4,16-3.1l.5-.9c0-.3,0-.7,0-1,.3-3.8,0-8.1,0-12s0-.7,0-1c0-1.7,0-3.3,0-5,0-11,0-22,0-33,0-16,0-32,0-48v-4c0-5,0-10,0-15s0-8.7,0-13v-21c0-2.3,0-4.7,0-7s0-1.3,0-2c0-3.7,0-7.3,0-11s0-.7,0-1v-11c0-6.3,0-12.7,0-19s0-4.7,0-7c0-8.3,0-16.7,0-25s0-1.3,0-2c0-2.7,0-5.3,0-8s0-3.3,0-5c0-11,.1-22,0-33s.4-14.2-1-21v-1c.6.1,1.4,0,2,0Z"/>
  <path class="st13" d="M301,100v-18c6.3-.2,14.3.1,20.5-1s2.4-.7,3-2c1.3-2.7,1.5-16.4.5-20l70-.5.8,1.1c-.8,3.4-.6,11.6.3,14.7s4.2,2.6,4.7,4.3-3.5,10.7-1.9,14.4l-24.4-.9-.6-11.1c0,.1,1.8-.4,2,.7v9.3s22,0,22,0c-.6-3.4.8-9.3,0-12.3s-2.1-1.2-2.9-2.3c-3.1-5-1.9-9.2-2.3-14.8l-2.4-1.6h-61.4c.6,2.7-1.8,4.8-2.1,6.6s.9,3.5.8,4.9c-1.3,15.8-11.2,10.7-23.8,11.5l-1,1.4c.3,4.1-.3,8.5,0,12.6s-.2,1.8,0,2c-.6.4-1.4.6-2,1Z"/>
  <path class="st9" d="M508,139l15.4,1.1,1.6,2.4c-.4,20.7.5,41.4,0,62s-1,4.6-1.1,6.9c-.2,7.7,1.3,20.2,0,27s-.5,1.9-1.5,2.5h-16c-.7,0-2.9-1.5-4.4-1.1-.3-1.3,0-2.6,0-3.9,6,4.4,11.9,2.8,19,3,.2-4.1-.4-8.3,0-12.4,2.6-24,1.4-48.6,1.5-72.9s-1-8.2.4-12.7c-3.2,1.6-10.1.9-13.3-.2s-1.3-1.5-1.7-1.8Z"/>
  <path class="st0" d="M352,369c3.6-4.9,6.5-2.1,10.5-2,23.2.3,46.6-2,69.9-1.9l7.6,5.7-1.1,15.6c.3,1.5,3.9,1.4,5,1.7l-6,1c-.9-.9,2.2-20.5-4.5-21-22,1-45.2-1.4-67,0-2.8.2-14.5,1-14.5,3.5v18.5l-20.9,1.1-1.3,23.8c-3.3,1.5-10.5-.2-11.7,3.8v67.6s1,2.5,1,2.5l11.8,1.2v19.5c0,5.2,17,2.1,18.6,4.4l.4,18.5,4.1,1.6c-.8,0-1.7,0-2,1-6.2-1-3.9-4.5-4.2-7.5-.4-4.4-1.6-8,.2-12.5-3,.7-6-.8-8.6-.9s-6.5,2.6-9.2-2.8-.6-13.6-1.2-19.3c-10.6.9-12.2-1.7-13-11.5-1.6-19.2,1.1-40.5,0-59.9,0-1.3,4.7-7.2,5.1-7.4,1.2-.5,4,1.5,5.7.8,1.1-.8.4-17.5,1.3-20.2s4.9-5.7,5.3-5.7h16.5c-1.7-5-1.1-14.8,2-19Z"/>
  <path class="st0" d="M529,553c1,0,2,0,3,0h8c-.2.5.6,1.8-.6,2-5.3,0-10.1,1.4-15.4,0-1.1,4.4,0,17.1-2.5,20s-13.3.7-17.5,2c4.1,18.1-.9,22.9-19,21,.1,6.6.9,11.6-3,17,0-.3,0-.7,0-1,.3-6.1-1.4-14,1.5-19h17c2.7-2.6,1.3-7.4,1.5-11s-.1-2.7,0-4c.2-1.9,1.2-3.9,1.1-5.9h1.9c.3.1,1.4-.1,2,0,2.4.2,12.6.5,13.6-.9l1.4-20.1c2.3,0,4.7,0,7,0Z"/>
  <path class="st29" d="M303,99c0,0,1.4-.2,2,.6,1.9,2.7-.3,8.5,4,10.4-.9.1-7.7,1.7-8,2-.5.6,1,1.9,1,2,0,.6-.9,1.4-1,2h-2l-1.5-2-5.9,3.1-2.1-2.9c-7.1,2.6-9.5-4.8-5.4-10.1,1.3,0,2.7,0,4,0,1.7,2.3,3.2.1,4,0,2.5-.4,5.4-.3,8-1l-1-1c.2-1.3,1.2-1.4,2-2s1.4-.6,2-1Z"/>
  <path class="st28" d="M367,410c0,.1,1.6.4,0,1.5-3.8,3.2-14.9.8-20.1,1.5v73c3.4.3,18-1.4,18,3.5v19.5c4-.6,20-2.7,20,3.5v16.5l19,1.5,1,18.5c4,.3,8.5-.4,12.4,0s5.3,2.3,7.6,2.9v18h17c4,5.6,3.9,13.5,2,20l22.9-1c.6-.6.3-13.3,1.5-16,2.2-4.7,14.2-2.5,18.5-3,.3-5.2-.6-12.4,1-17.3s1.8-.6,2-.7-.5-1.7.7-2c2.6-.7,15.7.7,16.3,0l1-16c.5-.4.7-1.6,2-2l-1.9,19.6-18.1.4-1,20h-19l-1,20h-26v-18.5l-1.5-1.5h-17l-1.5-1.5v-18l-1.5-1.5h-17.5c-.1-6.3.2-14.5-2.5-20h-17.5c-1.1-5.5,0-13.5-1-18.5s-.5-1.9-1.5-2.5h-17.5v-15.5c0-.9-1.6-4-1.5-5.5l-17.5-2v-74.5c5.9-3.9,15.5.6,22-2.5Z"/>
  <path class="st6" d="M462,207c0,0,.4,1.3-.7,2-3,1.8-14.1.9-18.3,1-11.3.2-22.7-.1-34,0v60.5l1.5,1.5h20c4-5.3-1.5-11,4.5-16h1c-2.7,4.9-2.8,11.4-3,17h-24.9c0-.1-1.1-65-1.1-65l55-1Z"/>
  <path class="st27" d="M321,246c4.6-4,2.5-8.4,3-13.5s1-2.6,1-3v-14.5h15l-1,80-31,1c9.5-3.8,20-1.3,30-2v-78l-12,1v24.5c0,.2-2,4.2-2.2,4.3-.7.6-2,0-2.8.2Z"/>
  <path class="st9" d="M581,211c.7,0,2.1-.5,2,.6-.8,6.1,1.8,14.3-1.5,19.4h-35.5v-41c13.1-3.6,9.1,1.6,10.1,10.4s5,10.6,15.9,10.6c-.2,0-1.1,1-2.4,1-18.3.8-13.1-6.1-15.5-20.5l-6.1-.6v39c.7.3,1.2-1,1.5-1h31.5c.6-5.8,2.3-12.3,0-18Z"/>
  <path class="st24" d="M427,717c.6,3-1.5,1.9-3.5,2-11.9.5-23.9-1.1-35.6,1.4l-.9,13.9c-.2,1-1.9,1.3-2.8,1.4-13.4,2.4-31.7-1.1-45.7.2l-3.6,4.1c.2-2.9-.2-5.3,3.5-6h46.5v-14.5c1.7-1.8,4.2-2.2,6.5-2.5,10-1.2,25-.1,35.5,0Z"/>
  <path class="st17" d="M502,584c-.2,3.6,1.2,8.4-1.5,11h-17c-2.9,5-1.2,12.9-1.5,19-4.3,4.1-9.5,2.9-15,3,.7,3-.5,5.4-1,8s.2,2.3,0,3-.2,1.3-1,2c-2.6-1.5.2-5.1-.1-6.4s-2.7-1.3-2.9-2.1c-1.1-3.7,1.9-1.9,2.8-2.7s.3-2.1.8-2.7c2.6-3.2,7.8-1.6,8.4-2.2s-.1-5.3,2-6.5l4,.6v-4.9c0,0-3,0-3,0v-3s3,0,3,0l-2-5c1.8.8,5-2,5.5-2h16.5v-9s2,0,2,0Z"/>
  <path class="st8" d="M296,247l-1,2c-27.6.2-55.4-.2-83,0v23c8.8.5,18.3-.7,27,0v2l-29-1,1-26c28.5.7,56.5,1,85,0Z"/>
  <path class="st17" d="M619,646c.6,3-1.5,1.9-3.5,2-3.9.2-21.8-.7-23.3.2-3,1.7-1.2,5.4-1.2,7.2s-1.8.5-2,1.2c-.5,2,.5,4.8,0,6.7s-1.9.5-2,.7.6,2.4-1.4,2.1h-46.6c1.6,4,.2,7.8-.4,12-1.1,1.6-4.1.6-4.6.9.3-5-1.7-11.7,3.7-14.8l49.3-.2c.7-5.5.4-11.7,1-17s0-.8,0-1c10.3.3,20.7-.4,31,0Z"/>
  <path class="st7" d="M366,165c0,.7,0,1.3,0,2,0,7.7,0,15.3,0,23v43c-.4.2-1.4-.1-2,0,0-25-1.3-51.8,0-76.5s1-8.3,2-11.5c.3,6.6,0,13.4,0,20Z"/>
  <path class="st28" d="M422,410c6.6,2.4,13.3.2,20,0v21c-1.8-5.4-1.2-13.1-1-19-1.5-1-15,.9-18.3,0s-.5-1.9-.7-2-1.7.5-2-.7c-.6-2.1.9-16.1-.6-16.4h-50.4c0,4.2.1,8.4,0,12.6s1,4-2,3.5c0-5.6-1.1-13.5,1.5-18h52c4.1,5.4-1.8,12.7,1.5,19Z"/>
  <path class="st25" d="M280,605c3-.6,1.9,1.5,2,3.5,1,25.9-.8,52,0,77.9.1,1.1-1.3.5-2,.6v-58c0-1,0-2,0-3,0-7,0-14,0-21Z"/>
  <path class="st9" d="M299,102l1,1c-2.6.8-5.5.6-8,1h-4c-1.3,0-2.7,0-4,0-2,0-4,0-6,0,.1,29.7-.2,59.4,0,89h-2c0-11.9.9-23.8,1-35.5.3-18-.2-36-.1-53.9.7-2.5,18.7-1.4,22.1-1.6Z"/>
  <path class="st0" d="M491,365h-8.5s-2,1-2,1c17.5,0,35,0,52.5,0-1,1.7-3.8,1-5.5,1-14.2.2-34.8-1.8-48.1,0s-4.5,1.3-4.5,2.5v18.5l-15,1c.2-.3-.3-1.3,0-1.9l11.5-2.1c1.4-2-.3-10.2.5-13.4s1.4-.7,1.6-1.1c.9-2.1.5-4.2,2.8-5.7s11.5-1.5,14.6,0Z"/>
  <path class="st13" d="M384,165c-.2,17.3-.8,34.7-1,52v1c-.2,17.9,1,36.3-1,54-1-34.7-1.1-71.9,0-107h2Z"/>
  <path class="st0" d="M431,705c-.5,3.7.3,8.2,0,12-1.3,0-2.7,0-4,0-10.5-.1-25.5-1.2-35.5,0s-4.8.7-6.5,2.5v14.5h-46.5c-3.7.7-3.4,3.1-3.5,6s0,2,0,3l-1,1.5,1,.5c0,1.6-.2,3.5,0,5l-2,1c-5.9-.4-12.1.3-18,0s.1-.9-1.5-1c-3.5-.2-7,0-10.5,0h-1v-1c1-.3.9-1.2,1-2,10.1-.4,20,2.7,30,1-4.3-13.3,4.1-16.3,15.5-17s23.5,0,34.5,1c2.2-2.8,0-12.2.2-12.8s4.8-4.3,5.1-4.4c7.2-3.4,31.5,1.5,40.8-.7,1-1-2.2-9.7,2-9Z"/>
  <path class="st0" d="M620,257h-1c0-.1-1-1.1-1-2.4-.3-4.8.7-9.8-.4-14.6l-11.6-.9v61c-.4,0-.9.5-1,1l-1-1.4c0-5.5,0-11.1,0-16.6l1-45c1.6-1.6,13.5-1.6,14.6,0,.9,6.3.4,12.7.4,19.1Z"/>
  <path class="st14" d="M302,749v1c-1.7-1-1-3.8-1-5.5-.2-16.5,0-33,0-49.5v-5c0-8,0-16,0-24,0-15.8-.2-31.7,0-47.5s-.6-4.4,1-5.5c.7,45.3-.5,90.7,0,136Z"/>
  <path class="st9" d="M204,661c0,0,1.1.7,1,1.4-.6,2.2-11.5,2.8-14,2.6v4c9.2,2.2,19.4,0,28.4,1.1s2.8,2,3.6,2.9,1.7-.5,2,.7c1.2,4.6.8,11.5,1,16.3h22l.6-17.1c-1.9-2.7-11.9,1.7-13.6-3.9,1.6,1.1,3.2.9,5,1s3.4.1,5,0c.9,1.6,3.4.9,5,1,.7,2.1.4,16.2,0,18.5s-.5,1.9-1.5,2.5h-24.5l-1-19c-1.9.2-5.4-2-6.5-2h-27.5v-8c5.1-.2,10.6,1.1,15-2Z"/>
  <path class="st29" d="M278,193c0,11.7.4,23.3,0,35,5.4,0,10.1-1.2,15.6-1.1s2.9,1,3.4,1.1v2c-6.6.7-14.3-.5-21,0,0-12.3,0-24.7,0-37h2Z"/>
  <path class="st15" d="M483,683c-.1.6.2,1.5,0,2-1.6,4.4-.9,8.2-1,13-2.2-1-5.3.9-6,1-6.2.6-13.6-.2-20,0s-11.4,0-18,1-2.2-.2-3,0c-2.1.5-3.4,1.7-4,4-.2-1.5,1.3-5.1,2.3-5.7,7.4-4.7,37.6,1.5,47.7-2.3v-13c.7,0,1.4,0,2.1,0Z"/>
  <path class="st13" d="M258,663c-.7,0-1.3,0-2,0,1-2.2-.9-5.2-1-6-.8-6.9,1-14.1,0-21s.2-2.1-.5-3c-.3-.6-1-.7-1.5-1-2.1-1.4-2.4-.6-4-1-4.7-1-3.5-.3-7,0s-1.4-.1-2,0c-1.6.3-3.5-.2-5,1,1.6-2.5-.2-2,3-3s16.4-1.6,18.5,3,1.4,12.4,1.4,14.6c.1,5-2.5,11,0,16.4Z"/>
  <path class="st29" d="M239,272c.9,0,2.3-.4,2.9.2-.4,2.4,1.8,2.8,2.3,4.2,1.6,4.6.6,9.9.8,14.6h31.5c.3,0,5.1,3,5.3,3.3.6,1,0,2,.2,2.7h-1c0-.6-1.1-2.7-1.5-3-3.3-2.8-30.3,0-36.5-1-1.2-1.2,2.8-18.7-4-19v-2Z"/>
  <path class="st13" d="M419,131c-.9-3.9,5.2-1.2,6-2,0-6.3-1.2-13.7,5.4-17.1l29.9.3c4.7,1.4,3.5,11.8,3.8,15.7,6,1.8,8.7-.9,14.9,2.1h-16c-.2-3.4-.2-14.1-3-15.5s-17-1.6-19.5-1.6c-15.8.2-13.7,3.7-13.5,18.1-2.7,0-5.3,0-8,0Z"/>
  <path class="st17" d="M522,553l-1.4,20.1c-1,1.4-11.1,1.2-13.6.9l1.5-4,6.5,2,.4-5.1,3.6-1.5-1.1-12.4c1.8-1.3,3.5,0,4,0Z"/>
  <path class="st13" d="M364,237l1,47h16c.4-2.8-1.1-7,1-9,.1,3.6-.1,7.4,0,11h-18c-1.8-5.9,0-11.1,0-16.5.2-10.8,0-21.7,0-32.5Z"/>
  <path class="st3" d="M481,132c.4.2,1.9-.6,2.1.6v15.4c.5.6,14.1.4,16.3,1s.5,1.9.7,2,1.4-.2,2,.6.9,3.3,1,4.8c1.5,20.9.2,46.7,0,68.1,0,1.7.6,4.4-1,5.5-.3-18.5.2-37,0-55.5l-2-23.5-18-1-1-18Z"/>
  <path class="st9" d="M478,236c0,6,0,12,0,18l-42,2h-1c3.5-2.9,5.8-2.7,10-3,9.8-.6,20,.6,29.9-.1.8-.5,2-14.4,2.1-16.9h1Z"/>
  <path class="st3" d="M481,115h-1c-1.9-4.6-1.5-12.7-2-18l-56-1c18.8-.3,37.6.1,56.4.1,3,1,.9,15.1,2.6,18.9Z"/>
  <path class="st24" d="M302,603c-1.7,1.6-1.7,6.5,0,8,0,.7,0,1.3,0,2-1.7,1-1,3.8-1,5.5-.2,15.8,0,31.7,0,47.5v-73c0,2.4.9,6.5,1,10Z"/>
  <path class="st9" d="M481,115c6.5,4.3,15.3.3,22.4,2.9,2.1,4.1,1.3,8.8,1.6,13.1-4.7-.3-3.2-9.4-2-12-5.6,1.1-16.2,1.3-21.3-1.2-1.9-.9-1.2-1.6-1.7-2.8h1Z"/>
  <path class="st1" d="M366,165c0-6.6.3-13.4,0-20s0-.7,0-1h1c1,6.2,9.9,16.7-1,21Z"/>
  <path class="st28" d="M646,359l21.1,1.4,1,23.5,20,1.5c.8.6,1.6,10.8,1.7,13.1s-.8,2.6-.8,3.5c-2.3-2.7-.3-7.2-1-10.3s-1.3-.7-1.6-1.1c-.5-.8-.3-2.2-.5-2.4-1.1-1-18.5-.7-19.9-5.7v-21.5c-4.2,0-16.8,2.4-19.9-.2s0-1.7-.1-1.8Z"/>
  <path class="st13" d="M271,665c.5.2,1.9-.6,2.1.6v19.4c0,0,5.4,0,5.4,0l1.6-20v22c-1.8.2-7.6.4-8.6-.9l-.4-20.1v-1Z"/>
  <path class="st15" d="M620,257c.2,15-.1,30,0,45l-15-1c.1-.5.5-1,1-1,3.9-.4,8,.4,11.9-.1,1.7-1.4,1.3-37.7,1.1-42.9h1Z"/>
  <path class="st13" d="M280,705v8.9c-6,1.5-11.9-.6-18,0v-9h18ZM279,707h-16c-2.2,9.3,10,5.1,16,6v-6Z"/>
  <path class="st15" d="M491,365c4.7,0,9.3,0,14,0s6.7,0,10,0,5.3,0,8,0,2.7,0,4,0,1.3,0,2,0c2.7,0,5.3,0,8,0s7.4,0,11,0c0,.5-1,.8-1,1h-14c-17.5,0-35,0-52.5,0l2-1h8.5Z"/>
  <path class="st13" d="M466,205v-12s12,0,12,0c0,14.3,0,28.7,0,43h-1c.7-13.9-.5-28.1,0-42h-8.9c0,.1-1.1,9.5-1.1,9.5.1.8-.7,1.1-1,1.5Z"/>
  <path class="st28" d="M689,403c1.9,5.5,16.8,1.8,18,3-.2,2,.4,4.5-.2,6.3s-15.9,9-18.6,10.4-3.2.7-4.2,1.3c2.7-2.9,19.9-10.3,20.8-12.7s0-2.3.2-3.3c-5.5-.7-15.6,2.8-16-5Z"/>
  <path class="st3" d="M175,596c.2.9.9,1.7,1,2,.2.9-.1,2.1,0,3s0,.7,0,1l-1,2c0,1,0,2,0,3-.2,3.2,0,6.7,0,10,0,5-1,22,.1,25.3s4.8,1.2,6.9.7c0,.7,0,1.3,0,2h-8c0-17.3,0-34.7,0-52h1c.1,1-.2,2.1,0,3Z"/>
  <path class="st27" d="M282,297c.9,3.5,1.4,6.1,1,10h16.5c0,0,2.6-3,2.6-3-.3,1.2-.2,4.7-1.7,5h-17.7c-2.5-.6-1.3-9.9-1.7-12h1Z"/>
  <path class="st25" d="M240,631c.7,3.2-3.1,1.3-3.9,3.6-1.9,5.6,2,18.3-1.1,24.4,0-.2-1-1.1-1-2.4-.4-7.8.4-15.8,0-23.6.1-.3.8-.6,1-1,1.5-1.2,3.4-.7,5-1Z"/>
  <path class="st9" d="M301,174c0,18.1,0,36.2,0,54.3-.3,1.1-3.1,1.6-4,1.7v-2c.6,0,1.3,0,2,0l1-1,1-53Z"/>
  <path class="st9" d="M407,131c-3.8,6-2.1,12.4-3.9,18.6l-17.1,1.4c.2-.3-.6-1.9.6-2.1l16.4-1c.7-1.5-1-2.7-1-3-.6-5.1,1-9.4,3.2-13.8.6-.4,1.2-.1,1.8-.2Z"/>
  <path class="st5" d="M622,613v29h-1c0-17.8-.2-35.7,0-53.5,0-1.7-.6-4.4,1-5.5v30Z"/>
  <path class="st25" d="M261,326c-.7-3-1-6.1-2-9-4.5-2.3-10.9-.4-16-1,.2-.5-.6-1.8.6-2l17.4.5c1.4,1,1.7,9.8,0,11.6Z"/>
  <path class="st9" d="M323,96l-1,16c-6.6.6-14.2-1.7-20,2,0-.1-1.5-1.3-1-2s7.2-1.9,8-2c1.9-.2,4,.1,6,0s4,0,6,0c0-2,0-4,0-6s0-2.7,0-4v-2c.8-1.1,1.5-1.4,2-2Z"/>
  <path class="st3" d="M349,79l-1,13-23,2-.9-.9c7.1-3.7,15.3-1.6,22.9-2.1.4-.4-.3-7.7,0-9.5s1.6-2,2-2.5Z"/>
  <path class="st24" d="M435,700c-2.3,3.5.7,17.1-2.6,18-.7.1-1.2-1-1.4-1,.3-3.8-.5-8.3,0-12s0-.7,0-1c.6-2.3,1.9-3.5,4-4Z"/>
  <path class="st1" d="M320,246c.6,3-1.4,1.8-3.3,2.1-7.4,1.3-14.8.8-21.7.9l1-2c8.4-.3,15.6.5,24-1Z"/>
  <path class="st0" d="M587,664l-49.3.2c-5.4,3.1-3.4,9.8-3.7,14.8-.2,0-1.2,1.2-2,2h-9c-1.7,0-3.3,0-5,0v-1c4.8-.2,9.7-1.9,14.5-1-.9-15.2.7-15.5,14.5-16,13-.4,26-.5,39-1,1.1-1.1-2.2-13.5,2-15-.6,5.3-.3,11.5-1,17Z"/>
  <path class="st9" d="M238,626c-.3,1-1.2,1-2,1-2.4.1-8.4-.7-9.6.9-1.4,3.2.6,6.4.6,9.6.2,13.7-10.1,9.6-19.9,11.6-.9,2.4-.9,4.9-1.2,7.4s1.3,4.1-2,3.5c.2-2.2,1.2-12.1,1.9-12.6,3.6-.9,19.1.4,19.1-4.9v-16.5c4.3-.2,8.7.3,13,0Z"/>
  <path class="st7" d="M604,283c0-12.7-1.4-30.5,0-42.6s0-1.4,1.1-2.4l-1,45Z"/>
  <path class="st3" d="M350,78c.5-.4.3-1.6,2.5-2s17.6-.3,19.8,1,.5,1.8.7,2c-7.4-2-15.4-.6-23-1Z"/>
  <path class="st9" d="M301,116c-1.2,7.9,0,16.6,0,25-3,.6-1.9-1.5-2-3.5-.2-7.2.2-14.4,0-21.5h2Z"/>
  <path class="st24" d="M483,685c2,4.1,1.2,10.1.1,14.4-.9,1.3-5.7.9-7.1-.4.7,0,3.8-2,6-1,0-4.8-.6-8.6,1-13Z"/>
  <path class="st13" d="M235,659c.1,2-.2,4.1,0,6s0,.7,0,1c-3,.6-1.9-1.5-2-3.5-.3-7.6-.9-20,0-27.2s.9-1.8,1.1-2.4c.3,7.8-.4,15.8,0,23.6s1,2.2,1,2.4Z"/>
  <path class="st15" d="M518,680v1c-1,0-2,0-3,0-1.7,0-3.3,0-5,0s-2,0-3,0c-5.7.6-12.6-1.3-18,1h-5c.2-.5.4-1.3.9-1.5,3.6-1.7,26.7-.2,33.1-.5Z"/>
  <path class="st24" d="M456,699c.6,3-1.5,1.9-3.5,2-4.5.2-10.5.7-14.5-1,6.6-1.1,11.3-.8,18-1Z"/>
  <path class="st3" d="M411,97h2c0,2.3,0,4.7,0,7,0,3.4,0,6.9,0,10.3l-2,.7c.6-5.7-.4-12.2,0-18Z"/>
  <path class="st13" d="M393,118c-6.5,6,2.1,20.8-9,22,.4-1.3,3.2-.8,3.9-2.6,1.9-5,.8-14,1.1-19.4,1.3,0,2.7,0,4,0Z"/>
  <path class="st15" d="M354,534c4.9-.4,10.1.3,15,0,.1,4.6-.2,9.4,0,14s0,2,0,3h-1c-.4-2.7.6-15.4,0-16-5-.5-11.3.8-16,0,.3-1,1.2-.9,2-1Z"/>
  <path class="st15" d="M364,306c-.2,5.6.8,10.7-1,16-2.3-5.1-.8-11.8,0-17,.7,0,.8.9,1,1Z"/>
  <path class="st17" d="M502,580c-3.6.4-1.2-1.4-1.2-2.8,0-2.5-.2-4.7-.7-7.2,3.1-.9,4.7,3.8,5,4h-1.9c.1,2.1-.9,4.1-1.1,6Z"/>
  <path class="st4" d="M244,624v-25c1.7,1,1,3.8,1,5.5,0,4,.8,17.1-1,19.5Z"/>
  <path class="st24" d="M315,751c-3.4,2.1-8.1.6-12,1v-2c3.5.1,7-.2,10.5,0s1.4,1,1.5,1Z"/>
  <path class="st24" d="M510,681l.7.8,4.3.2c-5.4,1.7-13.6,1.7-19,0,3.8-.1,8.1-.9,11-1s2,0,3,0Z"/>
  <path class="st9" d="M384,165h-2c.2-7-1.1-7,3-13-1.5,4.2-.9,8.6-1,13Z"/>
  <path class="st9" d="M418,96c1,3-3.3,2.2-3.9,3.1s.6,4.1-1.1,4.9c0-2.3,0-4.7,0-7h-2s.6-.9.6-.9c2.1-.3,4.3,0,6.4,0Z"/>
  <path class="st24" d="M532,681c-.1.1.5,2.4-1.4,2.1h-7.6c0,0,0-2.1,0-2.1h9Z"/>
  <path class="st17" d="M507,681c-2.9,0-7.2.9-11,1s-4.7,0-7,0c5.4-2.3,12.3-.4,18-1Z"/>
  <path class="st0" d="M459,390c-.8,1.5-.6,4.4-3,5,.3-3.2-1.9-4.2-4-6,2.4.2,4.7.6,7,1Z"/>
  <path class="st25" d="M256,663c.7,0,1.3,0,2,0,2.2,0,5.6-.8,7,1-1.7,0-5,1.9-8.3,1s-.5-1.9-.7-2-1.7.5-2-.7l1-5.3c0,.8,2,3.8,1,6Z"/>
  <polygon class="st17" points="622 620 624 620 624 627.4 622 628 622 620"/>
  <path class="st23" d="M371,139v2l-4,1c0,.6-.1,1.4,0,2h-1c0-.4-2-2.4-.9-3.9,1.9-.9,3.9-.9,5.9-1.1Z"/>
  <path class="st25" d="M235,665c3.5-.6.3,3.8,4.8,3.1l.2,1.9c-1.8,0-3.4,0-5-1-.2-.7,0-2.1,0-3s0-.7,0-1Z"/>
  <path class="st25" d="M249,631c-1.5,1.8-5.3,1.4-7,0,3.5-.3,2.3-1,7,0Z"/>
  <path class="st13" d="M408,118h2c-1.9,1.8-11.7,1.6-14,0,4-.1,8,0,12,0Z"/>
  <path class="st17" d="M622,642l3,3v2c-1.7.8-3.4-.9-4-1v-4h1Z"/>
  <path class="st3" d="M175,584v4c-.3,0-.6.8-1,1,0-4,0-8,0-12h1c-.2,2.3,0,4.7,0,7Z"/>
  <path class="st25" d="M280,588h2s0,4.4,0,4.4l-2,.6c0-1.7,0-3.3,0-5Z"/>
  <path class="st25" d="M245,670c.7,0,3.2-2,5-1,.2.6-.1,1.5,0,2-1.6,0-4.1.6-5-1Z"/>
  <path class="st3" d="M182,641c-1.9-2.4-1.4-7.2,0-10-.1,3.3.2,6.7,0,10Z"/>
  <path class="st25" d="M280,597h2s0,3.4,0,3.4l-2,.6c0-1.3,0-2.7,0-4Z"/>
  <path class="st25" d="M255,636h-2s0-4,0-4c.5.3,1.2.4,1.5,1,.7.9.4,2,.5,3Z"/>
  <path class="st25" d="M280,581h2s0,2.5,0,2.5l-2,.5c0-1,0-2,0-3Z"/>
  <path class="st24" d="M335,750c0,.1,1.4.7,1,2-1.5.7-2.7-1-3-1l2-1Z"/>
  <path class="st17" d="M529,553v-2s2.5,0,2.5,0l.5,2c-1,0-2,0-3,0Z"/>
  <path class="st24" d="M301,695c-1.6-.7-1.6-4.3,0-5v5Z"/>
  <path class="st25" d="M271,665v1h-3s0-2,0-2c1.1,0,2,.6,3,1Z"/>
  <path class="st17" d="M515,681v1l-4.3-.2-.7-.8c1.7,0,3.3,0,5,0Z"/>
  <path class="st24" d="M487,682v2c-1.2.4-2.3-.9-3-1v-1h3Z"/>
  <path class="st24" d="M335,745l-1-.5,1-1.5c0,.1,0,1.8,0,2Z"/>
  <path class="st25" d="M280,575h2s0,1.5,0,1.5l-2,.5c0-.7,0-1.3,0-2Z"/>
  <path class="st6" d="M220,299c-.6,0-1.4.1-2,0s-.9-.5-1-1c.8,0,1.6-.2,2.4,0l.6.9Z"/>
  <path class="st13" d="M380,140l-2-1c1.8,0,1.9,1,2,1Z"/>
  <path class="st3" d="M243,625l-2,1c.1,0,1.8-.9,2-1Z"/>
  <path class="st13" d="M382,274v-1c0,.5,0,.9,0,1Z"/>
  <path class="st19" d="M383,218v-1c0,.3,0,.7,0,1Z"/>
  <polygon class="st9" points="409 118 408 118 408.5 117 409 118"/>
  <path class="st26" d="M668,119c-1.5-4.3-37.1-8.3-43-10.5l41.8-7.7,10.2-43.8,7.2,42.8,43.8,9.2-42.7,8.3-9.3,42.7c-2.6.2-1.7.1-2-1.5-2.4-13-4.5-26.3-6-39.5,3.9,7,4.5,21.5,6.3,30.2.2,1.2.1,4,1.7,3.8,1.9-8.2,2.8-29,7.5-35s22-6,29.5-8v-3c-5.7-.9-24.9-2.2-28.7-5.3-4.4-3.6-6.4-30.2-8.3-36.7l-5.8,29.6c-1.8,5.9-2,7.3-8.1,8.9s-19.2,2.9-28,4.5l30,6.5c2.5.6,2.9,2.6,4,4.5Z"/>
  <path class="st2" d="M508,534l-1,16c-.7.7-13.8-.7-16.3,0s-.5,1.9-.7,2-1.6-.5-2,.7c-1.6,4.9-.8,12.1-1,17.3-4.4.5-16.3-1.7-18.5,3s-1,15.4-1.5,16l-22.9,1c1.9-6.5,2-14.4-2-20h-17v-18c2.3.6,7.2,1.5,9.3,1s1.1-3.8,3.7-3l1.5,6c5-4.6,8.1.1,12,0s1.8-2.4,3.7-3.4c4.5-2.3,5,1.2,8.3,2.3,5.4,1.8,12.1.5,14.9,1.1s1.3,4.6,7,2.9l1.6-5.5-2.5-1.5c-3.4-4.9,9.2-5.9,11.9-7.2,5.3-2.5,6.2-6.6,9.2-9.9s2.1-.7,2.5-1Z"/>
  <path class="st2" d="M553,408c3,0,6,0,9,0-.7,24.6.9,49.4,0,74l-1-73-8-1Z"/>
  <path class="st16" d="M563,525c2.3-.3,5.2.5,7.3,0s.3-2.7,2.1-2c5.1,2,.4,6.3.6,7.4s3,2.2,3,4.1c.2,2.2-2.9,2.3-3.6,3.5s-.1,3.8-.7,5.3c-.9,2.2-3.9,5.5-4.5,8.4s1,7.3-1.2,10.8c.4,2.1,6.6,1.1,5.9,4.1-5.6,3.3-1.7,11-9,11.5l2,5.9c-8.1,2.6-1.7,5.5-1.1,7.7s-1,3.2-.9,4.8,1.7,2.4,1.8,3.2-1.2,6-1.3,6.3c-1.9,4.4-2,3.3-3.7,9.3s-5.5,4-3.8,8.7c-9.4-1.4-7,5.7-9.2,11.2-4.1,10.1-7.7,9.4-15.3,14.7s-1.3,2.8-3.2,3.8c-2.9,1.5-7.9.5-10.3,1.7s-1.5,6.4-4.6,7.5c-5.4-3.9-3.9-.3-5.1,0-5.1,1.5-3.9-1-5.1-3.7-2.1-4.9-2.2,3.7-5.9,3.5-5.8-5.4-6.1-.1-9.8,0s-7.7-2.9-11.6-3.9c1.3,9.5-12.1,2.6-16.5,0l-.5-1.5c4.4-.7,1-7-1-5.5.2,4.6-3.2,3.5-5.1,5.4s-1,5.9-4.4,6.6c-13,2.6-6.4-5-6.6-6.4s-4.2-4.9-4.6.6,1.4,1.8-.7,3.8c-4.7,4.4-7.7.6-11.6,3.5l2,5-2.4,1.5c-6.1-.8-9.7-3.2-8.6-9.9-4.2,2.6-6.1-.8-8.5-1s-3.1,1.4-4.5.5c-2.9-1.8,1.7-5,1-7.5-4.2-.5-5.2-1.1-6.5-5-1.6,0-13.8,10-16.2,10.8-6.5,2.2-3.7-6.7-8.6-2.8s-1.1,4.1-3.2,5c-3.2.7-5.4-9.3-5.5-11.4-2.9-2.9-4,2.9-5.6,3.2l-3.4-.9,2.1,6.3c-2.6,1.5-3.6,2.3-3.1,5.7-3.5-1.6-11.3,1.2-13.8-.2-3.8-2.2,1-12.8-5.7-12.8s2,6.9.5,10c-6.8,0-11.5,1.9-18-1-.6-3.3,4.9-2.9,5.8-5.7,2.8-7.9-3-5.1-6.1-5.5s-8.5-3.2-9.2-3.7c-1.2-1-.2-2.4-.7-3.3s-1.8-.5-2-2.2c-.7-4.8,2-9.7,1.9-10.9s-1.7-3.2-1.9-6.1.9-12.6,1.2-13.9.8-1.2,1.4-1.7c11.7,5,3.9-2.3,3.6-4.7s1.9-2.4,1.8-4.7-1.4-5.4-2.5-5.6c-4.4-1-1.8,8.8-1.6,10.6s-.2,1.4-1.9,1.4c0-3.2-1.7-6.6-1.9-9.7s-.2-8.5-.2-9.9c.1-2.4,2.1-3.5,2.1-5s-1.8-.4-2-1.2c-.8-3,1.3-7.6-1-10.3v-2l1-14,7,3c-1.1-4.8,1.4-6.7,6-7-1.6,5.1,6.4,9.1,6.7,3.4s-2.2-6.9.9-6.4c4.5.9,4.5,5.9,6.5,8.5s6.2,7.1,6.5,7.5c1.1,1,3.1.8,3.3,1.1,2.7,3.1-1.7,3.6-1.8,3.9v-2s-3,0-3,0v2s3,0,3,0c-2.2,3,1.2,6.1.9,7.4l-5.7,5.2.8,8.3c2.1-.1,5.7,1,6.9,2.6s.7,3.7,1.2,4.3,6.7,2.3,7.2,2.3.2-2.8,2.1-2.1l2.5,2.5-4,1.5c1.4,3.1-.2,7.2,0,9.4s1.6.6,2.1,1.3c1.2,1.8,0,4.1,4,3.3l-.4,3.1-3.6,1.5,2,8c3.8-.8,4.7,0,8,1.4-.3-3.2,5.8-18.1,1.4-19.1s-4.3,2.9-7.4,3.1l-2-7c2.7,1.1,7.2,1.1,9.4-.9s.3-3.8,2-5.2c3.8-3,8.3,2.4,5.6-9.3l4-6.6v7.5c8,3.2,18.7-10.4,18,5.5,12.6-1.3,6,7.4,7,14.5s2.4,4.1,2,5.7l-3.4,3.7c-2.3,0-.9-3-4.5-2,2.6,4.4-1.1,7.1-1.1,10.5,0,5.7,6.1,1.4,7.6,6.5h1.9c1.8-2.8,4.6-3.1,3.6-7,3.2.2,7-.6,10.1.4s2.6,3.1,4,4,5.6,1.1,7.2,2.5,3.4,8.2,4.6,9.6c3.2,4,7.9-.4,10.6-.6s3.6,1.2,4.8,1.1.8-2.5,2.3-2.9,4.4,0,6.4-.1l-1-7c2.2.1,6.4-.5,8,0s1.6,3.4,3.4,3c6.3-2.7,5.7-9.2,8.7-13.3s4-1.1,4.9-6.6,0-1.3,0-2c3.9-5.4,3.1-10.4,3-17,18.2,1.9,23.1-2.9,19-21,4.2-1.4,15,.9,17.5-2s1.5-15.5,2.5-20c5.2,1.4,10,.1,15.4,0,1.2-.2.4-1.5.6-2,1.6-3.9.8-6,1-10,4.1.7,1.1-6.5,2-8h13.5c2.2-.4,2-1.6,2.5-2s.7-.7,1-1c1.2-1.4,1.1-.7,2-3s.8-1.7,1-4ZM331,557c-3.5-1.7-5.4,4.8-2.5,6s2.3-4,2.5-6ZM313,571c0-3.2,4.6-13.2-2.4-11.8-4.7.9-1.1,7.8.3,10.4s-.5,1.9,2.1,1.4ZM322,562h-3v2h3v-2ZM315,578c-1.8-.2-2.9,0-4,1.5v1.5s4,0,4,0v-3ZM315.2,591.8c.9-7.8,6.4,1.6,9.3-4.9s2.3-12.7-3.3-7.4l.9,5.4-12,2c-.2.3,3.6,7.3,4,7.5,3.1,2.2,5-1.8,1.3-2.7ZM332,580h-2v2h2v-2ZM376,606c.5-3.1-1.8-5.4-5-5l.2,3.8,4.8,1.2ZM555,601l-5,1v2s5,0,5,0v-3ZM545,605h-2v2h2v-2ZM331,608h-2v2h2v-2ZM554,612l-1-3.5-3-.5v1.5s4,2.5,4,2.5ZM374,609h-4s0,1.5,0,1.5l2.5,2.5h1.5s0-4,0-4ZM391,613c.2-2.5-1.6-3.4-4-3v2s4,1,4,1ZM375,617c-2.5-.4-5.1,1.3-5,4h5s0-4,0-4ZM546,618h-3c-.2,2-.2,3.8,1.5,5h1.5s0-5,0-5ZM314,632c.3-1.8-1.1-3.3-3-3v3s3,0,3,0ZM365,642h-3v2h3v-2Z"/>
  <path class="st5" d="M595,502c.2-.4,6.4-3.7,7.3-4.2,2-1.1,4.4,0,5.4-2.8l12.3-6v155c-8.8.7-18.9-.9-27.5,0s-3.8.4-4.5,2,0,.6,0,1c-4.2,1.5-.9,13.9-2,15-13,.5-26,.6-39,1,.6-4.2-3-9.2,2-11.5s4.4.8,6.6,2.4c4.7,3.4,7-3.6,8.1-3.9,3.5-.9,10.2,1,13.6-.1s3.5-5,5-6.5c3.4-3.6,4.4-4.7,7.6-8.8s3.2-1.4,3.9-3.2.2-5.2,1.2-7.3c-3.4,1.1-6.6-2.7-6.9-5.7s2.6-2.5,2.9-4.8-2.7-11.1-3-15c-.2-2.4,1-4.3.9-6-.1-3.2-2.7-6.3-1.9-12s4.1-2.7,4.9-5.1c1.6-4.5-2.7-13.1-1.7-16.7s5.6-5.8,6.4-7.8-1.2-4.8,1.5-7.4l-4-3.1c5-5.2,1.5-6,1.3-10.1-.1-3.1,1.9-9.1,1.5-11.7s-2.6-3.3-2.7-4.4,1.6-2.2,1.7-3-2.8-4.9-.8-9.3ZM570,659h-3v2h3v-2Z"/>
  <path class="st0" d="M582,498c-2.4,7.8,1.3,6.9-5,14l-15,1v16c-.9,2.3-.8,1.6-2,3l.4-20.1,17-2c2.1-3.3,2.6-7.9,3.6-11.9h1Z"/>
  <path class="st5" d="M577,512c-.2.2.6,1.8-.6,2h-13.4c-.2,3.6.3,7.3,0,11s-.3,2.1-1,4v-16s15-1,15-1Z"/>
  <path class="st5" d="M585,493v1c-1.2.7-2.6,2.8-3,4h-1c.4-1.7.5-3.3,1-5h3Z"/>
  <path class="st18" d="M563,260c2.3,2.5,16.1,0,17,1l1,55c0,7.7.4,15.4-.4,23.1-2.3,3.3-14.4-3.2-18.6,3.9s0,13.6-1.1,18.9c-4.7,1.6-8.3-.3-12.9,2.1,0-2.6-2-13,.7-13.9l5.5-.7,1.9-12.4c4.6,1.3,7.3-2.7,7.8-6.8s-1.6-4.3-1.6-6.7,1-8.2,1.3-8.6l5.4-1.1,1.1-9.9c-8.2.8-5.3-7.9-6.2-13.3-.8-4.8-4.2-10.2-9.4-10.5s-2.8,1.5-4,1.6-2.6-2.3-4.6-1.8-2.3,2.7-3.3,2.8-2.4-1.8-3.9-1.9-3.5,1.3-4.8,1.1-2-5.5-6.1-5.2-1.9,3.9-2.7,4.9c-2.6,3.2-13,.5-16.1,1.4s-3,4.9-5.2,4.9c-3.6,0-5-2.7-4.5-6.1,5.9-.3,8.4-.3,13.9-3.1,1-5.8.6-11,.1-16.9,8.9,1.5,17-.5,25.5-1s16.4-.8,24.5-1Z"/>
  <path class="st18" d="M491,282c1.4,8.8-2.9,6.1-7,8.5s-1.9,3.6-3.7,4.3-3.6,0-5.4.6-4.4,3.1-5.7,3.4c-2,.4-4-1.1-5.3-.4s-4.5,11.5-9.5,14.7-6.2-1-9.8,0c-2.4.8-3.6,5.6-6.3,6.7-1.8.3-3.9-3.9-6.3-4.5s-3.5.9-5.3.5-2-2.4-4.2-2.8c-5-1-11.2,1.5-16.4-.1.6-5.4-2.7-4.6-6.1-6.9,10.2-.3,21-2.3,31.5,0,6.8-2,15.1,0,21.6-1.5,12.7-3,4.1-21.6,7.1-23.4,10.3.1,20.5.8,30.9.9Z"/>
  <path class="st18" d="M560.8,368.2c.8,4.2.5,9.4-4.8,8.8v-10s4.8,1.1,4.8,1.1Z"/>
  <path class="st18" d="M398,306c-7.4,1.7-16.3,1.2-24,1,7.5-2,16.2-.8,24-1Z"/>
  <path class="st18" d="M529,365v-2s7.4,0,7.4,0l.6,2c-2.7,0-5.3,0-8,0Z"/>
  <path class="st18" d="M515,365c-3.3,0-6.7,0-10,0,2-1.7,7.8-1.7,10,0Z"/>
  <path class="st18" d="M523,365v-2s3.4,0,3.4,0l.6,2c-1.3,0-2.7,0-4,0Z"/>
  <path class="st4" d="M244,458c0-39.3-.3-78.7,0-118v118Z"/>
  <path class="st13" d="M280,629v29c-3,.6-1.9-1.5-2-3.5-.3-7.1-.2-15,0-22.1s-1-4,2-3.5Z"/>
  <path class="st4" d="M244,505v-18c1.7,5,1.7,12.9,0,18Z"/>
  <path class="st4" d="M244,481c0-6,0-12,0-18,1.7,5,1.7,12.9,0,18Z"/>
  <path class="st4" d="M244,322l2,.5v2.5s-2,0-2,0c0-1,0-2,0-3Z"/>
  <path class="st4" d="M246,317c.5,2.2-1.9,1.9-2,2v-2s2,0,2,0Z"/>
  <polygon class="st4" points="244 584 244 582 245 582.5 244 584"/>
  <polygon class="st4" points="244 546 244 545 245 545.5 244 546"/>
  <path class="st6" d="M176,482c.1-67.3,1.8-134.5,1-201.5,0-3.9-1.6-7.5-1-11.5h7c-.6,8.5-5.1,28.2,6.6,29.9s14.3.4,21.4,1.1c1.4,1.2,2.6.2,3,2.5.9,4.7,1,10.4,1.9,15s0,3.5,3,3.5c.1,11,0,22,0,33-1.6.7-1.6,4.3,0,5,0,2.7,0,5.3,0,8l-.7,1.2.7.8c0,8.3,0,16.7,0,25-1.7,1.3-1.7,5.7,0,7,0,6.3,0,12.7,0,19-1.6.7-1.6,4.3,0,5v7c0,3.7,0,7.3,0,11l-.7.8.7,1.2c0,2.3,0,4.7,0,7-1.7.6-.6,3.4-1,4s-1.6-.4-2,.7c-.8,2.5.4,8.3-4,8.3l-2-14-4.4.9c-.9,6.3-.9,3-4.9,4.3-5.8,1.9-2.4,6.5-2.9,9.1s-3.6,6.1-4.3,6.8c-3.1,3.2-6.6,1.3-7.5,2.1-1.4,1.1-1.9,9.9-2.5,11.9s-2.3,2.7-3,4c-3.4,7.2,1.4,20.9.5,28.5-1.6,13.1-1.1,23.2-2.1,36s.5,2.6-3,2.5c.2-13,0-26,0-39,1.5-.1,1.5-2.9,0-3,0-9.7,0-19.3,0-29,1.6-.4,1.5-3.7,0-4Z"/>
  <path class="st6" d="M176,561c1.5.4,3.8-1.4,4,1.5.5,7.1.6,13.9,0,21l-5,.6c0-2.3-.2-4.7,0-7s.9-1.4,1-3l.9-.5-.9-.5c.2-4,0-8,0-12Z"/>
  <path class="st6" d="M175,607l6-1c-2.4,4.4,2.2,6.9-.1,10.9h-5.9c0-3.1-.2-6.6,0-9.9Z"/>
  <path class="st6" d="M176,601c-.1-.9.2-2.1,0-3h2s0-2,0-2h-3c-.2-.9.1-2,0-3,4.5-5.9,5,1.3,4.9,5.6s-2.1,2.5-3.9,2.4Z"/>
  <path class="st29" d="M219,586c-1.7-1-1-3.8-1-5.5,0-7.3,0-14.7,0-22s-.6-4.4,1-5.5c0,11,0,22,0,33Z"/>
  <path class="st29" d="M219,501c-1.7-3.9-1.7-11.3,0-15,0,5,0,10,0,15Z"/>
  <polygon class="st6" points="214 467 214.9 470.4 213.5 472 212 472 212 467 214 467"/>
  <path class="st29" d="M219,473c-1.6-.9-1.6-5,0-6v6Z"/>
  <path class="st29" d="M219,456h-1c.4-.6-.7-3.4,1-4v4Z"/>
  <path class="st6" d="M175,586h2c.5,3-.7,1.6-2,2v-2Z"/>
  <path class="st6" d="M176,602c0,.1,1.4.8,1,2h-2s1-2,1-2Z"/>
  <path class="st29" d="M219,605l-1-.5,1-.5c0,.3,0,.7,0,1Z"/>
  <path class="st29" d="M219,592l-1-.5,1-.5c0,.3,0,.7,0,1Z"/>
  <polygon class="st29" points="219 505 218 504.5 219 504 219 505"/>
  <path class="st17" d="M611,437c-.6-1.8-.9-3.6-1-5.5-.8-16.5-1.5-42,0-58.1.8-9,5.1-11,13.7-8.6,5.6,5,12.3,8.7,18.4,13.2s.6.7,1,1,1,1.2,2,2c4.4,3.3,7.6,4.7,12,9s1.9,2.6,4,3c.3.4.8.7,1,1,1.5,1.9,3.1,2.5,3.8,5.7,1.5,7.7-.7,8.6-5.8,13.3-8.1,7.4-19.1,16.6-28,23-6,3.8-11.9,5.5-19,3-.8-1-.6-1.2-2-2ZM642,403c.1-.1,3.6.5,1.5-2l-14.5-10v22c3,0,5-3.1,7-5,4.9-2,3.4-1.9,6-5Z"/>
  <path class="st28" d="M611,437c-.3-.2-1.6.3-1.9,0s-1-8.8-1.1-10.4c-.6-10.1,1-20.1,1.1-30,0-5.6-1.3-12.3-1.1-18,.3-8.2,2.7-18.6,13.3-16.3,1.8.4,7,4.4,9,5.8,3.6,2.6,8.3,6.9,11.8,10-6-4.5-12.7-8.2-18.4-13.2-8.6-2.4-12.8-.4-13.7,8.6-1.5,16.1-.8,41.6,0,58.1s.5,3.7,1,5.5Z"/>
  <path class="st28" d="M632,436c-5.6,4-10.1,9.1-18.3,5s-.5-1.8-.7-2c7.1,2.5,13,.8,19-3Z"/>
  <path class="st28" d="M662,394c8.6,3.8,7.1,12.6,1,18.2s-2.6,2.8-3,.8c5.1-4.6,7.3-5.6,5.8-13.3s-2.3-3.8-3.8-5.7Z"/>
  <path class="st28" d="M657,390c3.8-1,2.8,1.7,4,3-2.1-.4-2.8-1.8-4-3Z"/>
  <path class="st28" d="M643,379c1.9-.3,2.4.1,2,2-1-.8-1.6-1.7-2-2Z"/>
  <path class="st29" d="M299,228l1-1-1,1Z"/>
  <path class="st1" d="M366,233v-35c1.7,1,1,3.8,1,5.5.1,8.1.9,19.4,0,27.1s.4,1.7-1,2.4Z"/>
  <path class="st1" d="M366,190c0-7.7,0-15.3,0-23,1.7,6.8,1.7,16.2,0,23Z"/>
  <polygon class="st1" points="371 141 370.4 141.9 367 142 371 141"/>
  <path class="st29" d="M321,104c0,2,0,4,0,6-2,0-4-.1-6,0-.4-3.7,2.7-5.5,6-6Z"/>
  <path class="st29" d="M303,97c-.3-4.1.2-8.4,0-12.6l1-1.4c-.5,4.4,1.2,10.2-1,14Z"/>
  <path class="st29" d="M321,100c-1.5-1.3-.6-1.2,0-2v2Z"/>
  <path class="st10" d="M443,210c.8,14.1-2.3,29.5,2,43-4.2.3-6.5.1-10,3-6,5-.5,10.7-4.5,16h-20l-1.5-1.5v-60.5c11.3-.1,22.7.2,34,0Z"/>
  <path class="st29" d="M218,300c1.4,6.8.9,14,1,21-3,0-2.6-1.4-3-3.5-1-4.6-1-10.4-1.9-15s-1.7-1.2-3-2.5c2.3.2,4.7-.2,7,0Z"/>
  <path class="st4" d="M176,486c0-1.3,0-2.7,0-4,1.5.3,1.6,3.6,0,4Z"/>
  <path class="st4" d="M176,518c0-1,0-2,0-3,1.5.1,1.5,2.9,0,3Z"/>
  <path class="st4" d="M176,574c0-.3,0-.7,0-1l.9.5-.9.5Z"/>
  <path class="st8" d="M279,333l-1-3,.9.6c.2.8,0,1.6,0,2.4Z"/>
  <path class="st14" d="M302,611c-1.7-1.5-1.7-6.4,0-8,.1,2.7,0,5.3,0,8Z"/>
  <path class="st20" d="M302,345c-1.5-.3-1.6-3.6,0-4v4Z"/>
  <path class="st5" d="M563,260c6-.1,12,0,18,0-.1,18.7.2,37.4,0,56l-1-55c-.9-.9-14.7,1.5-17-1Z"/>
  <path class="st15" d="M559,533c-.5.4-.3,1.6-2.5,2h-13.5c-.9,1.5,2.1,8.7-2,8,.1-2.4-.8-8.3,1-9.6l17-.4Z"/>
  <path class="st16" d="M585,493h-3c.2-.7-.5-2.1.5-2l2.5,2Z"/>
  <path class="st5" d="M622,569c-1.6-.9-1.6-5,0-6v6Z"/>
  <path class="st18" d="M465,634l4-5.7c.4-1.9-1-3-1-3.3,0-1.7-.5-5.6.9-6.6l13.1-1.4c-.9,5.5-2.6,3.5-4.9,6.6s-2.4,10.6-8.7,13.3c-1.8.4-2.3-2.6-3.4-3Z"/>
  <path class="st15" d="M482,615c0,.7.1,1.4,0,2l-13.1,1.4c-1.4,1-1,4.8-.9,6.6.1,1-.6,1.4-1,2l-1-2c.5-2.6,1.7-5,1-8,5.5,0,10.7,1.1,15-3,0,.3,0,.7,0,1Z"/>
  <path class="st18" d="M467,627c-.3.4-.7.7-1,1,.2-.7-.2-2.1,0-3l1,2Z"/>
  <path class="st29" d="M219,401c-1.7-1.3-1.7-5.7,0-7,0,2.3,0,4.7,0,7Z"/>
  <path class="st29" d="M219,425c-1.6-.7-1.6-4.3,0-5v5Z"/>
  <path class="st29" d="M219,359c-1.6-.7-1.6-4.3,0-5,0,1.7,0,3.3,0,5Z"/>
  <path class="st29" d="M219,445l-.7-1.2.7-.8c0,.7,0,1.3,0,2Z"/>
  <path class="st29" d="M219,369l-.7-.8.7-1.2c0,.7,0,1.3,0,2Z"/>
  <path class="st29" d="M219,432v-1c0,.3,0,.7,0,1Z"/>
  <path class="st1" d="M292,104c-.8.1-2.3,2.3-4,0h4Z"/>
  <path class="st5" d="M619,257c.2,5.2.6,41.5-1.1,42.9-3.9.5-8-.3-11.9.1v-61s11.6.9,11.6.9c1.1,4.8.1,9.8.4,14.6s1,2.3,1,2.4Z"/>
  <path class="st4" d="M279,707v6c-6-.9-18.2,3.3-16-6h16Z"/>
  <path class="st27" d="M175,596h3s0,2,0,2h-2c0-.3-.8-1-1-2Z"/>
  <path class="st12" d="M668,119c-1-1.9-1.5-3.9-4-4.5l-30-6.5c8.9-1.5,19.5-2.2,28-4.5s6.3-3,8.1-8.9l5.8-29.6c1.9,6.5,3.9,33.1,8.3,36.7,3.8,3.1,23,4.3,28.7,5.3v3c-7.5,1.9-24.8,1.7-29.6,8s-5.6,26.9-7.5,35c-1.5.2-1.4-2.7-1.7-3.8-1.9-8.7-2.4-23.1-6.3-30.2Z"/>
  <path class="st18" d="M315.2,591.8c3.7.8,1.8,4.9-1.3,2.7s-4.2-7.2-4-7.5l12-2-.9-5.4c5.7-5.3,4.9,3.8,3.3,7.4-2.9,6.5-8.4-2.9-9.3,4.9Z"/>
  <path class="st18" d="M313,571c-2.6.5-1.5-.4-2.1-1.4-1.4-2.7-5-9.5-.3-10.4,6.9-1.3,2.4,8.7,2.4,11.8Z"/>
  <path class="st18" d="M331,557c-.2,2,1.4,7.6-2.5,6s-1-7.7,2.5-6Z"/>
  <path class="st18" d="M376,606l-4.8-1.2-.2-3.8c3.2-.5,5.4,1.9,5,5Z"/>
  <path class="st18" d="M375,617v4s-5,0-5,0c-.1-2.7,2.5-4.4,5-4Z"/>
  <path class="st18" d="M546,618v5s-1.5,0-1.5,0c-1.8-1.2-1.7-3-1.5-5h3Z"/>
  <polygon class="st18" points="374 609 374 613 372.5 613 370 610.5 370 609 374 609"/>
  <polygon class="st18" points="554 612 550 609.5 550 608 553 608.5 554 612"/>
  <polygon class="st18" points="555 601 555 604 550 604 550 602 555 601"/>
  <path class="st18" d="M315,578v3s-4,0-4,0v-1.5c1.1-1.6,2.1-1.7,4-1.5Z"/>
  <path class="st18" d="M391,613l-4-1v-2c2.4-.4,4.2.5,4,3Z"/>
  <path class="st18" d="M314,632h-3s0-3,0-3c1.9-.3,3.3,1.2,3,3Z"/>
  <rect class="st18" x="319" y="562" width="3" height="2"/>
  <rect class="st18" x="362" y="642" width="3" height="2"/>
  <rect class="st18" x="543" y="605" width="2" height="2"/>
  <rect class="st18" x="330" y="580" width="2" height="2"/>
  <rect class="st18" x="329" y="608" width="2" height="2"/>
  <rect class="st18" x="567" y="659" width="3" height="2"/>
  <path class="st28" d="M636,408c-2,1.9-4,5-7,5v-22l14.5,10c2.1,2.6-1.4,1.9-1.5,2-2.6,3.1-1.1,3-6,5,0,0-.2-1.1.4-1.7s4.7-2.7,5.6-3.3c1.3-1.8-9.7-7.7-11-9v16c1.6-1.7,3.6-1.4,5-2Z"/>
  <path class="st2" d="M636,408c-1.4.6-3.4.3-5,2v-16c1.2,1.3,12.3,7.2,11,9-.9.6-5.3,3-5.6,3.3-.6.6-.3,1.6-.4,1.7Z"/>
</svg>