<?xml version="1.0" encoding="UTF-8"?>
<svg id="Layer_1" xmlns="http://www.w3.org/2000/svg" version="1.1" viewBox="0 0 542 542">
  <!-- Generator: Adobe Illustrator 29.7.1, SVG Export Plug-In . SVG Version: 2.1.1 Build 8)  -->
  <defs>
    <style>
      .st0 {
        fill: #eaa413;
      }

      .st1 {
        fill: #563225;
      }

      .st2 {
        fill: #eca815;
      }

      .st3 {
        fill: #faf0d6;
      }

      .st4 {
        fill: #070638;
      }

      .st5 {
        fill: #e89e11;
      }

      .st6 {
        fill: #fee50e;
      }

      .st7 {
        fill: #f5c618;
      }

      .st8 {
        fill: #e29611;
      }

      .st9 {
        fill: #fcdb84;
      }

      .st10 {
        fill: #030722;
      }

      .st11 {
        fill: #dc9012;
      }

      .st12 {
        fill: #f6cb37;
      }

      .st13 {
        fill: #a26212;
      }

      .st14 {
        fill: #0a1434;
      }

      .st15 {
        fill: #f9df97;
      }

      .st16 {
        fill: #b46f11;
      }

      .st17 {
        fill: #d48b10;
      }

      .st18 {
        stroke: #000;
        stroke-miterlimit: 10;
      }

      .st18, .st19 {
        fill: #fff;
      }

      .st20 {
        fill: #a8670f;
      }

      .st21 {
        fill: #8e909c;
      }

      .st22 {
        fill: #f2bf2c;
      }

      .st23 {
        fill: #c88111;
      }

      .st24 {
        fill: #91500b;
      }

      .st25 {
        fill: #fae6b6;
      }

      .st26 {
        fill: #091435;
      }

      .st27 {
        fill: #f7cf40;
      }

      .st28 {
        fill: #fcf43f;
      }

      .st29 {
        fill: #0b1433;
      }

      .st30 {
        fill: #231c31;
      }

      .st31 {
        fill: #f6c933;
      }
    </style>
  </defs>
  <path class="st26" d="M135,342c2.5-4.2,10.4-1.1,15-2v29.5l1.5,1.5h15.5c-1.6,7.5-1.3,16.7-1,24.5s-1,4,2,3.5v1c0,.6-1.4,1.7-1,2h18c.2.6,0,2.1,0,3-1.7,1.3-1.7,5.7,0,7v2c0,.7-1.1,1,0,2,.3,1.2,1.4.9,2.4,1.1,4.4.5,28.5-1.1,29.6,0v13c-5.5,1.4-9.5.9-15,1s-1.3,0-2,0c-5.1.2-10.3-.9-15,1s-1.8-.6-2,.6l-.9,11c-4.7.2-9.5-1.9-13.9.6-.4.5,0,1.3-.1,1.8s0,.7,0,1l-1,15h16v14l-8,1c-6.5,0-15.5-.7-21.6,0s-1.4,0-2.4,1.1c-1.8,1.8-1.5,10.6,0,13,2.5,3.8,4.3,1.6,7,1h23.6l1.4-1c-.5-4.3.3-7.9,1-12h15v14c-5.2,1.1-9.6,1.3-15,1v11c-.1.6,0,1.4,0,2,1.6-.1,3.4.2,5,0l11.1.6c1.7-1.2.9-9.9.9-12.6l46-1v13l2-9c.2,3-.2,6,0,9s0,.7,0,1v1h94v-3c.2-3.1.5-9.2,0-12,16.3-.5,32.7.7,49,0,0,3,.1,6,0,9-1.6,5.6-8.9,3-13.5,3s-4-.9-3.5,2h-8v-2h-6.9c-.4.7,0,1.6-.1,2-2,5.1-.3,9.1-1,14l-1,1h-2c-.1-1.5-2.9-1.5-3,0h-176l-9-2c0-4.3.2-8.7,0-13s0-1.3,0-2l-15,2h-2v-2h-2.5l-.5,2h-6l-6-1c-1-.9,2.2-9.7-2-9v-5h-16c.4-5.1-.6-11,0-16s1.4-1.7,1-2h-16v-15h-16c-.6-.6.6-11.1,0-13.3s-1.9-.5-2-.7.4-1.7-.7-2c-3.1-.8-10.9,2.9-12.9,0s1.1-11.5-1.4-14.6c-.5-.3-10.1-2.1-9.1,1.6h-5l-1-30v-1h16v2h-2v7c0,1.8-.2,3.6,0,5.4l.9.6c6.2-1.1,25.9,1.9,30-1l1-1v-1c3,.6,1.9-1.5,2-3.5.2-6.5.5-14.7,0-21.1s0-4.1-2-5.5v-10c3,.6,1.9-1.5,2-3.5.2-4.2,0-8.4,0-12.6h13v14h3c.4,1.3,2.3,1,3.4,1.1,2.5,0,11.9.6,12.6-1.1v-3c1.7-6.8,1.7-16.2,0-23v-2h0ZM135,388c-1.5,3.8-1.8,10.5,0,14v10c-1.8,4.6-15,0-16,3v16l16,1-16,.5,13.4,1.5,2.6,3v5c-1.7,1.5-1.7,6.4,0,8v7c-1.3,1.3-1.4,1.8,0,3s3.7,1.1,6,1c-.6,3,1.5,1.9,3.5,2s5,0,7.5,0l1-29,16-1c.3-3.9,2.2-7.7-1-10.9v-4c3.6.7,2.2-4.5.4-4.9l-15.4.9v-28h-2c-5.1-.2-10.3.2-15.4,0-1.2.2-.4,1.5-.6,2h0ZM358,521c0-2.8.1-5.7,0-8.5s.8-3.7-1-3.5c0,2.8-.1,5.7,0,8.5s-.8,3.7,1,3.5Z"/>
  <path class="st14" d="M409,35c.1-.5,1.9-1.6,2.1-4.5.2-4.5-2.5-9.8-.6-14.5l14.6-.9v28h2c4.8.2,10.8-1,15,1l-11,.5,11,1.5v2c-2,1.3-1.9,3.4-2,5.5-.4,5.5-.1,12.5,0,18.1s-1,4,2,3.5v3h14v12h3c9.5,4,21.3,1.2,31.4,1.9l2.6,3.1v3l-1,7c-5.4-.9-11.4.8-16.4.9s-5.8-.9-9.2-.9-4-1-3.5,2c-1,0-2.1,0-3,0s-1.5-1.7-3-1v15l-13,1c-.8,0-1.6,0-2,1-2.6,3,0,22.7-1,28h-14.4c-1.2.2-.4,1.5-.6,2-3,7.5.1,21.5-1,30h-14v-30h-2c-5.2-.3-12.6-1-17-1v-29l-15-1h-1v-14c-1-1.7-3.8-1-5.5-1h-27.5c-9.1,0-.7,0-1,0v-17c1.2-1.2,27.9,1.4,34-1s1.8.6,2-.6l-1-11.4c4.6-.8,13.2,2,16-2s-.1-.7,0-1c2.8-8.3,0-20.9,1-30h15.5c2.2-1.9,2.7-6.7-.5-8v-1.2ZM409,60v1h-2v2c-.8,8.2.6,17.6,0,26h-14v2c-.2,5,.7,11.3,0,16s-1.5.6-1,2c5-2,9.6.6,14.9,0v26.3c.2,1.2,1.9.5,2.1.6s.2,1.1,1,1l-1,2c3-.2,17.8.8,19-1,1.9-3-1.8-2.8-2-2.9s0-2.2,0-3c3,.6,1.9-1.5,2-3.5.3-6.8-.2-13.7,0-20.5h14v-1c-2.2,1-4.9-.9-6-1,1.9.2,4.2-.3,6,0s.7,1.4,2,1v-17c-1.7-.8-3.4.9-4,1-1.9.2-4,0-6,0l-7-2v-30c-1.7-.8-3.5.9-4,1-2.5.3-5.4,0-8,0l-6.5-2-.5,1.4c.1.3.9.4.9.6h.1Z"/>
  <path class="st27" d="M325,61v15c.1,1.4,1.5.9,2.4,1,6.9.9,17.7,0,25.1,0s4.4.6,5.5-1l1-1c5.4-.4,11.5,0,17,0v1h-10l7.9,1.1v11.9c.1,0-32.9,0-32.9,0l1,17v1h-7c-2-2.1-6.2-.6-9-1v-17l-61,1v17h-40v9l-2,5h-25v15l-13,1v1l-1,13h-16v31c-4.3.4-9.4-.6-13.5,0s-2.1,1.9-2.5,2.1c-6.8,2.1-11.3,1-9.4,11l-5.6,2c.3-9.3-.2-18.7,0-28,.6-.6,12,.6,14.3,0s.5-1.9.7-2,1.4.3,1.8-.2c1.2-1.4-.4-23.9.2-27.8.6-.6,11.1.6,13.3,0s.5-1.9.7-2,1.7.5,2-.7c.6-2.1-.6-11.8,0-12.3h13v-3h2v-14c2.4,0,11.8.4,13.1-.4,2.6-2.9,0-7.2,0-9.6s0-.7,0-1v-2c.2-1.2.5-1.2,1-2h31.6l1.4-1c0-3-.1-6,0-9l2-5c1.1-1.1,26.5,1.6,30-1l1-1,1-14,58-1h1v1h-.1Z"/>
  <path class="st26" d="M183,29h141v13h-60c-2.3,2.3-.4,11.4-1,15-6.6,1-46.4-1.7-49,1s.1.7,0,1c-2,4.7-.6,10-1,15h-15v-13c-1-1.7-3.8-1-5.5-1-8,0-16.5-.3-24.5,0s-.7,0-1,0c-4.6.3-9.4-.4-14,0-.3-1-1.1-.9-2-1v-15h32v-2c.2-4.1-.5-9.1,0-13Z"/>
  <path class="st14" d="M491,230c0-.1,1.4-1,1-2-2.1-2.4-13.2,2.5-16-1.5v-41.5h13v28.5c0,.3,1,2.3,1.7,2.5h13.3c.9.6,1.5.9,2,2l-1,137c-4.3.6-9.5-.4-14,0v-125Z"/>
  <path class="st14" d="M36,215v139c-1.6,0-4.1-.6-5,1h-5v-2l-3,.5v-137.5c4.5.7,8.8-.7,13-1Z"/>
  <path class="st12" d="M458,124v31c-1.7,1-1,3.8-1,5.5,0,3.6-.5,23.2.5,24.6l14.6.9v28h-14l-14-1v-8c3.1,1.9,11.9-.7,12.8-3.7,1.6-5.1-1.3-7-1.9-10.8-.8-5.6.7-13,0-18.9-.3-1.3-4.8-1.8-6-3.2s-.8-3.5-1.9-5.1-3.6-1.8-5-4.1-.8-3.8-1.1-4.4l3.1-2.5v-27.5l13.9-1v.2Z"/>
  <path class="st29" d="M149,59h2c.9,0,1.7,0,2,1-1.8,0-1.8.5-3,1s-1.8-.6-2,.6v12.4h-28.3c-1.2.2-.4,1.5-.6,2-1.5,3.7-3.2,10.5-1,14v1h-15l-1,1c-.6.9-.9,1.9-1,3-.2,1.5,0,3.4,0,5s.2,3.4,0,5,0,1.3,0,2h-15c-5,0-.7,0-1,0v-17h16v-15h16v-16c10.6.2,21.4-.2,32,0h-.1ZM116,77h-13v13l11.9-1.1,1.1-11.9Z"/>
  <path class="st29" d="M488,354l3,1v7c-3-.6-1.9,1.5-2,3.5-.4,11.2.3,22.4,0,33.6h-10l10,2h-14c-1.1,1.1,1.6,26.3-1,30v-30h-3c-3.5,0-5.1-.6-8-1h11c.3-15-.4-30,0-45s0-.7,0-1h14Z"/>
  <path class="st10" d="M183,29c0-.7-.5-2.1.6-2h142.4v15h32c0,6-.1,12,0,18h-33v-16h-61c.8,4.1-.2,8.2,0,12.6s1,2.9,1,3.4h-2l-.5-1-.5,1h-3l-.5-1-.5,1h-3l-.5-1-.5,1h-10l-.5-1-1.5,1h-3c-3.6-1.7-10.6-1.7-14,0h-5c-1.1-1.8-4.1-.9-6-1,.1-.3-.2-.8,0-1l49-1c.6-3.6-1.3-12.7,1-15,19-.4,38,.6,57,0s2,0,3,0v-13h-141ZM357,44h-30v14h30v-14Z"/>
  <path class="st14" d="M69,137v27c-.2.5,0,1.4,0,2-5.6,1.7-10.1,0-15,2v2h-1l-.5-2-.5,2v43h-13v-4c3.4,1.4,9.3,1.8,9.8-2.7s-.8-3.7-.7-5.7c0-7.8,0-16,0-24.1s-1.5-4.9-1-7.5l2-1-3,1c-.6,0-1.4-.1-2,0l-7-1,15.5-.9c1.2-.3.2-2.6.5-3.1s2.4.5,2.1-1.4v-23.6c2.7,0,5.6.1,8.5,0s4,1,3.5-2h2-.2Z"/>
  <path class="st10" d="M44,169c-1.3.3-2.9,1.7-5,1,.6,12.8-.8,26.3,0,39s0,2.7,0,4h13v2c-4.6,0-9.4-.2-14,0s-.7,0-1,0h-1c-4.2.3-8.5,1.7-13,1v137.5l3-.5v2l-5-.6v-140.4h16v-46l7,1Z"/>
  <path class="st29" d="M458,154h17v29h14.5c1.4.9,1.4,2,1.6,3.4.5,4.2-1,26.6,0,27.6,3.3.4,7.4-.6,10.5,0s1.9,1.6,2.5,2h-13.3c-.7-.2-1.7-2.2-1.7-2.5v-28.5h-13v41.5c2.8,4,13.9-.9,16,1.5.4,1-1,1.8-1,2h-17v-46h-16v-29c0-9.7,0-.7,0-1h-.1ZM473,156c-4.4.2-9.6-1.2-13,2.5v24.5l13-1v-26Z"/>
  <path class="st26" d="M471,402l2,.6c1,9.6-2.4,19,0,28.4h-10l-4-2v-27h12Z"/>
  <path class="st14" d="M69,132l2,1.5v-24.5h13v27l-14-1c0-.2-1-1.3-1-3Z"/>
  <path class="st10" d="M506,218c.5,1,1.5,1.7,1.1,3.4v133c0,1.1-1.3.5-2.1.6l1-137Z"/>
  <path class="st4" d="M38,223v3l-1,1.5,1,.5v5c-1.7,1.9-1.7,7.1,0,9v2c-1.7,3.6-1.7,10.6,0,14v24c-1.7,1.5-1.7,6.4,0,8v65h-2v-140h1c.3,2.5-1,6.3,1,8Z"/>
  <path class="st26" d="M458,431v3l-1,.5,1,.5v3l-1.6,6.1c-4.7,1.7-9.6.5-14.4.9v-14h16Z"/>
  <path class="st21" d="M177,523h182l-190,1c1.7-1.8,5.5-1,8-1Z"/>
  <path class="st4" d="M427,446h3c-1.2,1.2-2.8.2-3.1,2.4-.5,3.7.3,8.6,0,12.6s-1,1.1-1,2.4c-.3,4.5.3,9.1,0,13.6h-6l-5-2,8.6-.9.4-12.1h-12.4c-1.2.2-.3,10.5-.6,12.5s-.9,2.1-.9,2.5-.9.9-1.1,2.4c-.3,2.3.5,13.1,0,13.6-4.8.2-9.8-.3-14.6,0s-2.3,1-2.4,1c-16.3.7-32.7-.5-49,0,0-.2-.8-.6-1-1,5.2,0,10.8.3,16,0s1.7,0,2-1h32v-15l17-1v-15h16c1.2-1.2-2.4-15.6,2-15h.1ZM407,478h-13v13h13v-13Z"/>
  <path class="st14" d="M410,477c0-.4.8-1.5.9-2.5.3-2-.5-12.3.6-12.5h12.4l-.4,12.1-8.6.9,5,2c-3.3.1-6.7,0-10,0h.1Z"/>
  <path class="st14" d="M432,446c1,1.6,5.1,1.6,6,0h2l1,13c-3.9.4-9.1-1.4-12,2h-2c.2-4-.6-8.9,0-12.6s1.9-1.2,3.1-2.4h2-.1Z"/>
  <path class="st4" d="M85,107h1v30h-7c-2.3,0-6.1-.2-9,1v-3l14,1v-27h-13v24.5l-2-1.5c-.2-8.3.2-16.7,0-25h16Z"/>
  <path class="st29" d="M409,35c-2.3-6.8-.4-14.9-1-22h19v30h-2V15l-14.6.9c-1.9,4.8.9,10,.6,14.5-.3,4.5-2,4-2.1,4.5h.1Z"/>
  <path class="st29" d="M85,446c0,.1,1.7-.5,2,.7.6,2.2-.6,12.7,0,13.3h16v15h16c.4.3-.9,1.5-1,2h-17v-15h-16v-16Z"/>
  <path class="st28" d="M444,122c4.3-.6,9.6.4,14,0,.4.3.7.6.7,1.2s-.7.6-.7.8l-14,1v27.5l-3,2.5c-1.1-1.8-10.5-.7-13-1v30h-1c-.6-9.8,1.3-20.4-1-30v-1h17l-1-30c.4-1,1.2-.9,2-1Z"/>
  <path class="st10" d="M39,355v44h13c0,.2,1,1.1,1,2h-16v-46h2Z"/>
  <path class="st4" d="M39,355h15c0,3.8,0,7.7,0,11.6s1,2.3,1,2.4c0,4.1-1,10.1-1,15s0,.7,0,1c0,5,.3,10.1,0,15s0,.7,0,1c0,.5-.5.8-1,1v-1c0-.9-1-1.8-1-2-.3-10.8.4-21.7,0-32.5s-2-6.5,0-10.5h-13v-1Z"/>
  <path class="st29" d="M409,36c3.2,1.3,2.7,6.1.5,8h-15.5c-1,9.1,1.8,21.7-1,30-2.3-10.2-.4-21.5-1-32h15.5l1.2-1.5c-.3-1.7,0-2.9.3-4.5Z"/>
  <path class="st25" d="M326,61v13h31v-13h1c0,4.6-.7,9.8,1,14-.8,0-1.7,0-2,1-10.5,1-21.5-.9-32,0v-15h1Z"/>
  <path class="st10" d="M491,362v39h-2l-10-2h10c.3-11.2-.4-22.4,0-33.6,0-1.9-1-4,2-3.5h0Z"/>
  <path class="st10" d="M174,42c1.3,1.7,5.7,1.7,7,0h2v2h-32v15h-1l-1-1v-16c8,1.2,16.5,0,25,0Z"/>
  <path class="st10" d="M67,137c.6,3-1.5,1.9-3.5,2h-8.6v23.6c.4,1.9-1.9,1.3-2,1.4v-27h14.1Z"/>
  <path class="st10" d="M61,431c-1-3.6,8.6-1.9,9.1-1.6,2.5,3.1-.5,12,1.4,14.6s9.8-.9,12.9,0,.5,1.9.7,2h-16v-15h-8.1Z"/>
  <path class="st10" d="M459,90c11.3.3,22.7-.2,34,0v5l-2.6-3.1c-10.2-.7-22,2.1-31.4-1.9Z"/>
  <path class="st10" d="M56,431h-3c-.2-9.6.3-19.4,0-29,.5-.2.9-.5,1-1h1l1,30Z"/>
  <path class="st10" d="M493,98v9c-10-.2-20,.3-30,0-.6-3,1.5-2,3.5-2,3.4,0,6.7.9,9.2.9,5,0,11-1.8,16.4-.9l1-7h-.1Z"/>
  <path class="st10" d="M442,76h16v14h-2v-12h-14v-2Z"/>
  <path class="st29" d="M393,75c-2.8,4-11.4,1.2-16,2l1,11.4c-.2,1.2-1.5.4-2,.6v-14h17Z"/>
  <path class="st4" d="M463,400c2.9.4,4.5.9,8,1v1h-12v27l4,2h-2l-.5-1-.5,1h-2v-1c0-9.5.5-19.6,0-29l1-1c1.3.1,2.7-.2,4,0Z"/>
  <path class="st10" d="M442,75c-3,.6-1.9-1.5-2-3.5-.2-5.6-.4-12.6,0-18.1s0-4.1,2-5.5c.5,8.9-.2,18.1,0,27h0Z"/>
  <path class="st4" d="M442,445v16h-13c2.9-3.4,8.1-1.6,12-2l-1-13,1-1h1Z"/>
  <path class="st10" d="M471,401h3v30h-1c-2.4-9.3,1-18.8,0-28.4l-2-.6v-1Z"/>
  <path class="st10" d="M392,503v5h-17c-.6-2.9,1.6-2,3.5-2,4.6,0,11.9,2.6,13.5-3Z"/>
  <path class="st3" d="M358,60v1h-33v-1h33Z"/>
  <path class="st10" d="M460,107h-2v15c-4.4.4-9.7-.6-14,0l13-1v-15c1.5-.7,2.6.9,3,1Z"/>
  <path class="st16" d="M70,138c.2,7.4,1,19.6-1,26v-27h1v1Z"/>
  <path class="st10" d="M134,498c4.2-.7,1,8.1,2,9l6,1h-8c-.1-3.3.2-6.7,0-10Z"/>
  <path class="st10" d="M458,438v8h-16v-1c4.8-.4,9.7.8,14.4-.9l1.6-6.1Z"/>
  <path class="st10" d="M153,508l15-2v2h-15Z"/>
  <path class="st10" d="M360,508c.2-.4-.3-1.3.1-1.9h6.9c0-.1,0,1.9,0,1.9h-7Z"/>
  <path class="st10" d="M442,44v2l-11-1.5,11-.5Z"/>
  <path class="st10" d="M177,523c-2.5,0-6.3-.8-8,1l-1.7-1.5c0-.6.7-1.2.7-1.5l9,2Z"/>
  <path class="st26" d="M181,42c-1.3,1.7-5.7,1.7-7,0h7Z"/>
  <path class="st10" d="M148,508l.5-2h2.5v2h-3Z"/>
  <path class="st30" d="M36,354v1h-5c.9-1.6,3.4-.9,5-1Z"/>
  <path class="st26" d="M461,431h-1l.5-1,.5,1Z"/>
  <path class="st1" d="M150,59h-1v-1l1,1Z"/>
  <path class="st10" d="M458,435l-1-.5,1-.5v1Z"/>
  <path class="st10" d="M359,523h-1l1-1v1Z"/>
  <path class="st1" d="M101,369v13c0,3.3,0,2,0,3h-2l-45-1c0-4.9,1-10.9,1-15h46Z"/>
  <path class="st1" d="M175,477c3,0,6.2-.6,9,1v1c-.7,4.1-1.5,7.7-1,12-7.1.7-15.7-.9-22.6,0s-2.2,1-2.4,1.1c-2.7.6-4.5,2.8-7-1,2.7-3.8,0-8.9,0-13,1-1,1-.9,2.4-1.1,6.1-.7,15.1,0,21.6,0Z"/>
  <path class="st4" d="M92,214c0,1.5,2.9,1.5,3,0h3c.3,1,1.1,1,2,1v1h-13v137h13v-30h1c0,8.8,0,17.7,0,26.5s-.6,4.4,1,5.5h16v15h-2v-14h-13c0,4.2.2,8.4,0,12.6s1,4-2,3.5v-16h-2c-3.4-.2-11.9,1-14-1v-95l1-1.5-1-.5v-5c1.5-.1,1.5-2.9,0-3v-8c1.7-1.6,1.7-6.5,0-8v-3c1.6-.7,1.6-4.3,0-5v-2l1-1.5-1-.5v-7c1.6.8,3.3-.9,4-1s2,0,3,0h0Z"/>
  <path class="st1" d="M100,403l1,9v1l-1,1c-4.1,2.9-23.8,0-30,1l1-6h-2v-2h2v-5c9.2-.5,20-.5,29,1Z"/>
  <path class="st23" d="M342,493c.2.4,1,.8,1,1,.5,2.8.2,8.9,0,12l-1,1h-15c-.2-.4-1-.8-1-1-.7-3.8.5-9,0-13,4.3,1,8.8-1.1,12.6-1.1s3.2,1.1,3.4,1.1Z"/>
  <path class="st4" d="M137,338h15c0,6.9-1.3,23.5,0,29s11.6,1.8,15,2c1.3,9.2,1.7,20.7,1,30-3,.6-1.9-1.5-2-3.5-.3-7.9-.6-17,1-24.5h-15.5l-1.5-1.5v-29.5c-4.6.9-12.5-2.2-15,2v-4h2Z"/>
  <path class="st4" d="M320,507c1,1.6,5.1,1.6,6,0h17v2h-94v-1l2-1h69Z"/>
  <path class="st2" d="M103,324c-.2,9.7.7,19.4,0,29h15c2.3,2.3.4,11.4,1,15l13.1-.4.9-29.6h2v6c.1,7.3.4,15.8,0,23s0,2,0,3c-5.3,0-10.7.1-16,0s-.7,0-1,0v-15h-16v-31h1Z"/>
  <path class="st30" d="M184,505c.6-3.3,1.6-6.2,1-10h15v11c-2.8.2-5.8-.3-8.6,0s-2.2,1-2.4,1c-1.6.2-3.4-.1-5,0,0-.6-.1-1.4,0-2Z"/>
  <path class="st6" d="M203,491c4.6.6,11.1,0,16,0,10.5,0,20.8.5,31,1v14h76c0,.2.8.6,1,1h-78c-.2-3,.2-6,0-9v-5c-1-1.7-3.8-1-5.5-1h-42.5v-2c.6.2,1.4.9,2,1Z"/>
  <path class="st29" d="M168,422c3.2,3.2,1.3,7.1,1,10.9l-16,1-1,29c-2.5,0-5,.2-7.5,0s-4,1-3.5-2c3.6-.2,6.7-2,10,0v-12c1.6-.4,1.5-3.7,0-4v-6c1.5-.1,1.5-2.9,0-3v-5h17v-9h0Z"/>
  <path class="st10" d="M238,523h111-111Z"/>
  <path class="st29" d="M343,509h-94,94Z"/>
  <path class="st29" d="M151,386h2v28l15.4-.9c1.8.4,3.3,5.6-.4,4.9v-3h-17v-29Z"/>
  <path class="st4" d="M215,415l4,1c.2,4.6-.3,9.4,0,14-.6,0-1.4-.1-2,0v-13c-1-1-25.2.6-29.6,0s-2.1.1-2.4-1.1c.4-.3.7-.7,1-1,8.5,1.2,20-.6,29,0h0Z"/>
  <path class="st7" d="M170,370c-.2,5.4-.8,10.6-1,16s.1,8.7,0,13h16c0,.1,1.6.4,2,2.5.7,3.7-.4,8.7,0,12.5-.4,0-.7.7-1,1-.5,0-.9-.5-1-1v-2c0-2.3.2-4.7,0-7s.2-2.4,0-3c-1.3-3.5-13.6-1.5-17-2v-1c.7-9.3.3-20.8-1-30h1c.6,0,1.4.8,2,1Z"/>
  <path class="st15" d="M219,430v2c-1.7,3-.8,6.7-1,10-.3-2.3-1.9-5.8-1-9h-14v11c.5.5,12.5-.5,15,0-1.1,3.8-12.5,1.3-16,2v-15c5.5-.1,9.5.4,15-1s1.4,0,2,0Z"/>
  <path class="st29" d="M168,448v12.5l1,.5h1c.6.1,1.3,0,2,0h11c.5.2,1.5,0,2,.5,2.5,2.1.5,11.4,0,14.5s-.9,1.4-1,2c-2.8-1.6-6-1-9-1l8-1v-14h-16l1-15v1Z"/>
  <path class="st4" d="M185,476c5.1,2.4,10.8.4,16,0v17c-.6.1-1.4-.1-2,0v-14h-15v-1c0-.6.9-1.4,1-2Z"/>
  <path class="st4" d="M204,492c2.7,1.7,9.1,1.7,12,0h4l28,1,1,2v3l-2,9v-13l-46,1v-2c.5,0,.9-.5,1-1h2Z"/>
  <path class="st29" d="M185,432v14h-17c0-.6-.3-1.3.1-1.8,4.4-2.5,9.3-.4,13.9-.6l.9-11c.2-1.2,1.5-.4,2-.6h.1Z"/>
  <path class="st4" d="M101,382c2,1.3,1.9,3.4,2,5.5.4,6.4.2,14.6,0,21.1s1,4-2,3.5l-1-9,1-3v-15c0-5,0-2,0-3h0Z"/>
  <path class="st30" d="M101,400l-1,3c-9-1.5-19.8-1.5-29-1v5h-2v-5h2v-2h30Z"/>
  <path class="st1" d="M201,493v-1h1c-.1.5-.5.9-1,1Z"/>
  <path class="st1" d="M201,493v2c0,2.7.7,11.4-.9,12.6l-11.1-.6c.2,0,1.1-.9,2.4-1,2.8-.3,5.8.3,8.6,0v-11h-15c.6,3.8-.4,6.7-1,10v-11c5.4.3,9.8,0,15-1s1.4.1,2,0Z"/>
  <path class="st10" d="M234,523h-53,53Z"/>
  <path class="st7" d="M200,431v1l-13.1.5-.7,1c1.3,3.4,1.1,9.8-1.2,12.5v-14c4.7-1.9,9.9-.8,15-1Z"/>
  <path class="st30" d="M185,402h-18c-.4-.3.9-1.4,1-2,3.4.5,15.7-1.5,17,2Z"/>
  <path class="st23" d="M55,387v12h16v1h-17c.3-4.9,0-10,0-15h1v2Z"/>
  <path class="st10" d="M135,432v5l-2.6-3-13.4-1.5,16-.5Z"/>
  <path class="st24" d="M183,491l-1.4,1h-23.6c.2,0,.9-.9,2.4-1.1,6.9-.8,15.5.7,22.6,0h0Z"/>
  <path class="st4" d="M135,367c.4-7.2.1-15.7,0-23,1.7,6.8,1.7,16.2,0,23Z"/>
  <path class="st29" d="M151,491c-1.5-2.4-1.8-11.2,0-13,0,4.1,2.7,9.2,0,13Z"/>
  <path class="st10" d="M135,412v3h-16c1-3.1,14.2,1.6,16-3Z"/>
  <path class="st4" d="M135,370c-.6,1.6-10.1,1.1-12.6,1.1s-3,.3-3.4-1.1c5.3.1,10.7,0,16,0Z"/>
  <path class="st10" d="M135,402c-1.8-3.5-1.5-10.2,0-14v14Z"/>
  <path class="st10" d="M358,521c-1.7.2-.9-2.3-1-3.5-.1-2.8,0-5.7,0-8.5,1.7-.2.9,2.3,1,3.5.1,2.8,0,5.7,0,8.5Z"/>
  <path class="st30" d="M69,409h2l-1,6-.9-.6c-.3-1.8,0-3.6,0-5.4h0Z"/>
  <path class="st10" d="M135,450c-1.7-1.6-1.7-6.5,0-8v8Z"/>
  <path class="st30" d="M185,412c-1.7-1.3-1.7-5.7,0-7,.2,2.3,0,4.7,0,7Z"/>
  <path class="st8" d="M202,431v3h-2v-3h2Z"/>
  <path class="st10" d="M356,523h-3c.1-1.5,2.9-1.5,3,0Z"/>
  <path class="st10" d="M135,460c-1.4-1.2-1.3-1.7,0-3v3Z"/>
  <path class="st16" d="M168,448v-2h1l-1,2Z"/>
  <path class="st30" d="M251,507l-2,1v-1h2Z"/>
  <path class="st30" d="M186,415c-.3.3-.6.7-1,1-1.1-1,0-1.9,0-2,.1.5.5.9,1,1Z"/>
  <path class="st1" d="M55,401h-1v-1h1v1Z"/>
  <path class="st4" d="M100,414l1-1-1,1Z"/>
  <path class="st30" d="M343,507h-1l1-1v1Z"/>
  <path class="st11" d="M265,107h77c2.3,0,.7,0,1,0v1c-2,4.3-.6,9.4-1,14h-91l-1-14v-1h15Z"/>
  <path class="st16" d="M376,108v13c-5.1,1.6-10.7,1-16,1h-18c.4-4.6-1-9.7,1-14h33Z"/>
  <path class="st23" d="M376,121v17c-5.3.1-10.7,0-16,0v-16c5.3,0,10.9.6,16-1Z"/>
  <path class="st16" d="M383,137c2.6,0,5.3,1.5,8,1h1v14c-.5,0-1.4.8-2,1,.6-3-1.5-1.9-3.5-2-3.2-.1-6.4,0-9.6,0l-1-12v-1c1.6,0,4.1-1,7-1h.1Z"/>
  <path class="st4" d="M409,153h2v30h14c1.1-8.5-2-22.5,1-30v31h-17v-14l1-.5c-.2-.6-.6-.4-1-.5v-16Z"/>
  <path class="st10" d="M442,123l1,30h-17c.2-.5-.6-1.8.6-2h14.4c.9-5.3-1.6-24.9,1-28Z"/>
  <path class="st10" d="M409,63c.2,9.3-.2,18.7,0,28h-16v-2h14c.6-8.4-.8-17.8,0-26h2Z"/>
  <path class="st28" d="M376,76v13c-6.1,2.4-32.8-.2-34,1v16l-1-17h33v-11.9c-.1,0-8-1.1-8-1.1h10Z"/>
  <path class="st10" d="M393,107h16v29c-.2-.2-1.8.6-2-.6v-26.3c-5.3.5-9.9-2.1-15,0-.5-1.4,1-1.9,1-2h0Z"/>
  <path class="st7" d="M409,153v16c-4.7-1-11.7,1.5-16-1,2.7-.1,14.1.8,15-2v-12c-4.6.2-9.4-.2-14,0s-1.3,0-2,0v13l-1-13-15-1h14c.6-.2,1.5-1,2-1,4.4,0,11.8.7,17,1Z"/>
  <path class="st29" d="M423,60c.6,0,2.3-1.8,4-1v30l7,2h-9c-.3-9.2.4-18.4,0-27.6,0-1.9,1-4-2-3.5h0Z"/>
  <path class="st10" d="M436,106c1.1,0,3.8,2,6,1v1h-14c-.2,6.8.3,13.7,0,20.5s1,4-2,3.5c-.5-8.6.4-17.4,0-26,3.2.2,6.8-.3,10,0Z"/>
  <path class="st10" d="M426,135c.1.2,3.9,0,2,2.9s-15.9.8-19,1l1-2c4.2-.1,8.4.2,12.5,0s4,1,3.5-2h0Z"/>
  <path class="st29" d="M440,91c.6,0,2.3-1.8,4-1v17c-1.2.4-1.9-1-2-1v-15h-2Z"/>
  <path class="st8" d="M377,122l15,1v15h-1v-14h-14v-2Z"/>
  <path class="st2" d="M376,108h-33v-1c9.2,0,18.3,0,27.5,0s4.4-.6,5.5,1Z"/>
  <path class="st24" d="M377,124v12l6,1c-2.9,0-5.4,1-7,1v-16h1v2Z"/>
  <path class="st29" d="M415,60h-6c0-.2-.8-.2-.9-.6l.5-1.4,6.5,2h-.1Z"/>
  <path class="st29" d="M409,61v2h-2v-2h2Z"/>
  <path class="st25" d="M171,93c5.8,1.8,13.3,1.1,19.5,1,1.7,0,4.4.6,5.5-1,.5,0,1.4.8,2,1v2l-1,.5,1,.5c0,2.3,2.7,6.7,0,9.6-1.2.9-10.7.6-13.1.4s-1.4,0-2,0-.2-1.3-1-1v15h-15v15h-15v-29c4.5,0,10.8-.6,15,0s.7,1.4,2,1v-15h2.1Z"/>
  <path class="st12" d="M152,184v29h-14c.2-1.7-.2-3.5-2-4v-7c0-2.3,0-1.3,0-2,1.3-.5,1-1.9,1-3l5.6-2c-1.8-10,2.7-8.9,9.4-11Z"/>
  <path class="st25" d="M265,65c.1,3.4-.7,6.8,0,10l-1,1h-32c.8,2,0,4,0,6-.1,3,0,6,0,9h-23c.6-3-1.5-1.9-3.5-2s-4.4,0-6.6,0l1-12h14l-1,12h18v-15h32v-9h2.1Z"/>
  <path class="st3" d="M183,107c0,4.7.1,9.3,0,14s0,.7,0,1c-3.5.5-8.8-.7-12,0l-2,1-1,14h-16v30h-16l-2-5c.3-7.5-.9-17,0-24s1-.4,1-1h15v-30h2v29h15v-15h15v-15c.8-.3.9,1,1,1ZM150,139h-14v27h15c-1.6-8.9-.8-18-1-27Z"/>
  <path class="st24" d="M322,90l3,3c.3,3.5,0,7.4,0,11l-1,3h-1v-15h-57v15h-1v-16l2-1c15.4-1.1,39.7-1.1,55,0Z"/>
  <path class="st25" d="M324,58h1v2h-1c-19.3,0-38.7-.3-58,0v-2h58Z"/>
  <path class="st28" d="M185,152h-16c-.4,9.3.6,18.7,0,28s.4,4.4-1.5,4.7l-14.5-.7v30c-.4,0-.9.5-1,1-5,.2-10-.1-15,0v-2h15v-29c.4-.1.6-1.8,2.5-2.1,4.1-.5,9.3.5,13.5,0v-31h16l1-13v14h0Z"/>
  <path class="st7" d="M152,167c-.1.1.5,1.7-.7,2-2.3.6-13.7-.7-14.3,0-.2,9.3.3,18.7,0,28s.3,2.5-1,3c-.4-10-1.7-19.9-1-30,.3-1,.5-1.2,1-2s.7-.6,1-1h15Z"/>
  <path class="st28" d="M265,90l61-1v17c2.8.4,7-1.1,9,1h-10v-3c0-3.6.3-7.5,0-11s0-2,0-3h-3c-15.3-1.1-39.6-1.1-55,0s-1.3,0-2,0Z"/>
  <path class="st31" d="M168,137c-.1.1.5,1.7-.7,2-2.2.6-12.7-.6-13.3,0-.6,3.9,1,26.4-.2,27.8s-1.6,0-1.8.2v-30h16Z"/>
  <path class="st28" d="M225,116v4l-1,2h-1c-4.5,0-9-.2-13.5,0s-6.1,2.3-9.5,0v15c-1.3.2-2.9-.2-4,0h-11l13-1v-15h25l2-5Z"/>
  <path class="st7" d="M324,60l-58,1-1,14c-.7-3.2.1-6.6,0-10s0-3.3,0-5h1c19.3-.3,38.7,0,58,0Z"/>
  <path class="st24" d="M250,107v15h-2v-14h-22v14h-1v-15h25Z"/>
  <path class="st3" d="M220,60h19c4.7,0,2,0,3,0h22c-.2,0-1.5,1-3.4,1.1-14.9.3-29.8-.4-44.6,0l-1,15-1-15,.6-.9c1.8-.3,3.6,0,5.4,0v-.2Z"/>
  <path class="st3" d="M214,76h1l-1,1h-14l-1,12h6.6c2.2,0,4-1,3.5,2-2.9,0-5.8.2-8.6-.6-1,0-1,1-1.4,1.6s-.8.8-1,2c-.6-.2-1.5-.9-2-1-7-.7-17.8-.4-25,0s-1.3,0-2,0v15c-1.3.4-1.9-1-2-1v-12c0-3.9,0-.7,0-1v-3c.6,0,1.5-.2,2,0,8.4,2.6,20,0,29,1v-16h16-.1Z"/>
  <path class="st7" d="M183,122v2h-13c-.6.6.6,10.2,0,12.3s-1.9.5-2,.7l1-14c1,.4,1.8-1,2-1,3.2-.7,8.5.5,12,0Z"/>
  <path class="st7" d="M264,76c-3.5,2.6-28.9,0-30,1l-2,5c0-2,.8-4,0-6h32Z"/>
  <path class="st7" d="M209,91h23l-1.4,1h-31.6c.4-.6.4-1.5,1.4-1.6,2.8.8,5.7.6,8.6.6Z"/>
  <path class="st7" d="M357,76h1c-1,1.7-3.8,1-5.5,1-7.4,0-18.2.9-25.1,0s-2.3.3-2.4-1c10.5-.9,21.5,1,32,0Z"/>
  <path class="st7" d="M185,107v14h-2c.1-4.7,0-9.3,0-14,.6,0,1.3,0,2,0Z"/>
  <path class="st11" d="M196,137c-3.3.7-6.2,1.6-10,1v14h-1v-15h11Z"/>
  <path class="st9" d="M359,75l-1,1h-1c.3-1,1.2-.9,2-1Z"/>
  <path class="st16" d="M267,90l-2,1v-1h2Z"/>
  <path class="st3" d="M198,97l-1-.5,1-.5v1Z"/>
  <path class="st24" d="M168,61c-.2,4.3.2,8.7,0,13s0,.7,0,1c-.1.8-.5,1.4-1,2l-1-1h-16v-1l1-14c4.5-.2,9.1.3,13.6,0s2.3-1,2.4-1h1v1Z"/>
  <path class="st29" d="M321,42c-19,.6-38-.4-57,0h57Z"/>
  <path class="st30" d="M220,60c-1.8,0-3.6-.2-5.4,0l-.6.9v15h-16v-2h15c.4-5.1-1-10.3,1-15,1.9,0,4.9-.8,6,1h0Z"/>
  <path class="st30" d="M263,57l-49,1c2.6-2.7,42.4,0,49-1Z"/>
  <path class="st23" d="M153,60c4.6-.4,9.4.3,14,0-.1,0-1.1,1-2.4,1-4.5.3-9.1-.3-13.6,0l-1,14v-14c1.2-.5,1.2-.9,3-1Z"/>
  <path class="st5" d="M198,61h-2c-9.3-.5-18.7.4-28,0v-1c8-.3,16.5,0,24.5,0s4.4-.6,5.5,1Z"/>
  <path class="st17" d="M198,61v13h-2v-13h2Z"/>
  <path class="st6" d="M491,230v1c-1.7.4-1,3.1-1,4.5-.9,37.9,2.5,78.7,0,116s.8,2.9-2,2.5v-123l-13-1h16Z"/>
  <path class="st17" d="M491,354v1l-3-1c2.8.4,1.9-.5,2-2.5,2.5-37.4-.9-78.1,0-116,0-1.4-.7-4.1,1-4.5-1.8,40,0,82.7,0,123Z"/>
  <path class="st4" d="M491,354c0-40.3-1.8-83,0-123v123Z"/>
  <path class="st30" d="M36,308v-90,90Z"/>
  <path class="st27" d="M441,155c.3.5.1,2.8,1.1,4.4s4,2.7,5,4.1.7,3.6,1.9,5.1,5.7,1.9,6,3.2c.6,5.9-.9,13.2,0,18.9s3.4,5.7,1.9,10.8-9.7,5.5-12.8,3.7c-.2-6.5,0-13,0-19.6l-1-1.4h-15v-30c2.5.3,11.9-.8,13,1v-.2Z"/>
  <path class="st22" d="M473,230c-3.9,0-10.7.7-14,0s-.4-1-1-1c0-4.3.5-10,0-14s0-.7,0-1h14v-28l1,44Z"/>
  <path class="st28" d="M458,155v29h16v46h-1l-1-44-14.6-.9c-1-1.4-.5-20.9-.5-24.6s-.6-4.4,1-5.5h.1Z"/>
  <path class="st28" d="M444,205v8l14,1h-2c-3,0-6,.1-9,0s-2.1.1-3,0-.7,0-1,0v-30l1,1.4c0,6.5-.2,13.1,0,19.6Z"/>
  <path class="st17" d="M150,77v14h-2c-1.8.2-4.1.9-5,1-8.4-.3-16.7-1-25-1v-1c0-.3.9-1.1,1-2.4.3-3.4-.3-7.1,0-10.6h31Z"/>
  <path class="st23" d="M118,91c-.3,5,.2,10,0,15-4.6,0-9.8,1-15,1v-14h14l-6-2h7Z"/>
  <polygon class="st14" points="116 77 114.9 88.9 103 90 103 77 116 77"/>
  <path class="st4" d="M150,61v15h-31c.2-.5-.6-1.8.6-2h28.4v-12.3c.2-1.2,1.6-.4,2-.6h0Z"/>
  <path class="st7" d="M150,76v1h-31c-.2,3.5.3,7.1,0,10.6s-1,2.3-1,2.4c-2.2-3.5-.5-10.3,1-14h31Z"/>
  <path class="st2" d="M111,91l6,2h-14v14h-1l-1-2c.2-1.6,0-3.4,0-5,1.6-.7,1.6-4.3,0-5,0-1.1.4-2.1,1-3l1-1h8Z"/>
  <path class="st6" d="M101,107l-14,1v14h-1v-15h15Z"/>
  <path class="st23" d="M101,100c0-1.6-.2-3.5,0-5,1.6.7,1.6,4.3,0,5Z"/>
  <path class="st23" d="M102,107h-1v-2l1,2Z"/>
  <path class="st23" d="M102,92l1-1-1,1Z"/>
  <path class="st0" d="M473,230h2l13,1v107h-13c-.9,5.3-.8,10.6-1,16s0,.7,0,1h-16v-1l1-124c3.3.7,10.1,0,14,0Z"/>
  <path class="st11" d="M488,354h-14c.2-5.4.1-10.7,1-16h13v-107,123Z"/>
  <path class="st6" d="M474,355c-.4,15,.3,30,0,45h-11c-1.3-.2-2.7.1-4,0h-1v-1h15v-44h1Z"/>
  <polygon class="st15" points="215 76 214 76 214 61 215 76"/>
  <path class="st15" d="M265,65h-2v9h-32v15h-18l1-12,1-1,1-15c14.8-.3,29.8.4,44.6,0,14.8-.4,3.2-1.1,3.4-1.1h1v5h0Z"/>
  <rect class="st14" x="327" y="44" width="30" height="14"/>
  <path class="st3" d="M265,60c0-.5-.9-2-1-3.4-.2-4.3.8-8.5,0-12.6h61v14h-1l-1-13h-57v15h-1Z"/>
  <path class="st30" d="M239,60h-14c3.4-1.7,10.4-1.7,14,0Z"/>
  <path class="st30" d="M244,60h-2l1.5-1,.5,1Z"/>
  <polygon class="st30" points="263 60 262 60 262.5 59 263 60"/>
  <polygon class="st30" points="255 60 254 60 254.5 59 255 60"/>
  <polygon class="st30" points="259 60 258 60 258.5 59 259 60"/>
  <path class="st29" d="M46,169h1c-.5,2.6.9,5.1,1,7.5.2,8.1.2,16.3,0,24.1s1,3.4.7,5.7c-.5,4.6-6.4,4.1-9.8,2.7-.8-12.7.6-26.2,0-39,2.1.7,3.7-.7,5-1s1.4,0,2,0h0Z"/>
  <path class="st7" d="M79,137c1.1,1.7,4.1,1,6,1-.3.3-.6.8-1,1l-13,1v2c-.4,4.4,0,9.5,0,14v10c-.6.1-1.5-.2-2,0,0-.6-.2-1.5,0-2,2-6.4,1.2-18.6,1-26,2.9-1.2,5.9-.9,9-1Z"/>
  <path class="st4" d="M54,194v2c-1.7,4.3-1.7,11.9,0,16v3h-2v-45h1l1,24Z"/>
  <path class="st28" d="M70,168c0,0-.8.9-2.4,1.1s-12.2-.5-12.6,0v14c0,4.6,0,.7,0,1h-1c0-4.6-.2-9.4,0-14s0-1.3,0-2h16Z"/>
  <path class="st1" d="M54,184v10l-1-24h1c-.2,4.6,0,9.4,0,14Z"/>
  <path class="st16" d="M71,166v1c-.4,0-.8,1-1,1h-16c4.9-2.1,9.4-.3,15-2s1.4.1,2,0Z"/>
  <polygon class="st10" points="46 169 49 168 47 169 46 169"/>
  <polygon class="st10" points="53 170 52 170 52.5 168 53 170"/>
  <path class="st28" d="M52,215h3l-16,1v13c0,4.3,0,.7,0,1h-1v-15c4.6-.2,9.4,0,14,0Z"/>
  <path class="st30" d="M38,223c-2-1.7-.7-5.5-1-8h1v8Z"/>
  <path class="st14" d="M473,156v26l-13,1v-24.5c3.4-3.7,8.6-2.3,13-2.5Z"/>
  <polygon class="st20" points="85 262 85 276 39 276 38 276 38 262 39 262 85 262"/>
  <polygon class="st24" points="84 308 84 309 39 309 38 309 38 308 39 308 84 308"/>
  <path class="st5" d="M39,353s-.4,1-1,1v-45h1v44Z"/>
  <path class="st23" d="M39,353c1.5-.3,14.2-.3,14.9.1l1.1,14.9h44v-12h2v13h-46c0-.1-1-1.1-1-2.4,0-3.9,0-7.7,0-11.6h-16v-1c.6,0,.9-1,1-1Z"/>
  <path class="st6" d="M39,231v30h-1v-31h1v1Z"/>
  <path class="st6" d="M39,278v30h-1v-31h1v1Z"/>
  <path class="st30" d="M38,258c-1.7-3.4-1.7-10.4,0-14v14Z"/>
  <path class="st30" d="M38,242c-1.7-1.9-1.7-7.1,0-9v9Z"/>
  <path class="st30" d="M38,290c-1.7-1.6-1.7-6.5,0-8v8Z"/>
  <polygon class="st30" points="38 228 37 227.5 38 226 38 228"/>
  <rect class="st30" x="38" y="276" width="1" height="1"/>
  <rect class="st30" x="38" y="261" width="1" height="1"/>
  <path class="st16" d="M457,430h1v1h-16v14h-1v-14l1-1h15Z"/>
  <path class="st5" d="M456,426v3l-14,1-1,1-1,13c-.5.5-10.7-.3-13,0s-2.3,0-2.8,1.6v13.4c-3.5.7-15.3-1.8-16.2,2v14h-15c-2.3-.2-4.7,0-7,0v2c-9,.2-18-.1-27,0-.5.5.4,11.6,0,14s-.8.6-1,1v1c-5.2.3-10.8,0-16,0s-1.6-1.1-3.4-1.1c-3.8,0-8.3,2.1-12.6,1.1.5,4-.7,9.3,0,13h-1l-59-1v-13c-5.3-.2-10.7.3-16,0-10.2-.5-20.5-1-31-1l-.5-15c-4.9,1.8-10.3.7-15.5,1v14c-.6,0-1.4-.8-2-1v-14c-5.2.4-10.9,2.4-16,0,.5-3.1,2.5-12.4,0-14.5s-1.5-.3-2-.5c-2.7-1.1-6.4-2.2-9,0h-2l-.8-.7-1.2.7h-1v-3h1c4.6,2,10.1.6,15,1l-1-12,1-1c2.4-2.8,2.5-9.2,1.2-12.5l.7-1,13.1-.5v2h2v12l-1,1h16c1,1-1.7,13.2,1.5,15h45.5l1,14v1h78v-1h2v-14h30.5c3.2-1.8.5-14,1.5-15,5.2-.3,10.2.9,15-1s1.8.6,2-.6v-13.4l15-1,.9-15.6c6-.7,10,2,16.1-.4s1.8.6,2-.6v-12.4c.4-.5,11.3.4,13.5,0s1.3-1.9,2.1-2.1c2.8-.7,10.7-1,11.3,2.5,1.3,6.9-1.8,16.6,1,23.5h.1Z"/>
  <rect class="st29" x="394" y="478" width="13" height="13"/>
  <path class="st2" d="M393,475c.2,0,1.1,1,2.4,1,4.5.2,9.1-.2,13.6,0l-17,1v15h-34c.2-.4,1-.8,1-1h1c7.7,0,15.4.1,23,0s4.7,0,7,0l1-.5-1-.5c0-2.3-.1-4.7,0-7s0-.7,0-1c0-.9,2-3.8,1-6-1.7,1-3.1,1-5,1v-2c2.3,0,4.7-.2,7,0Z"/>
  <path class="st1" d="M360,492c-.3,1-1.2,1-2,1v-1h2Z"/>
  <path class="st6" d="M441,445l-1,1h-13v-2c2.3-.3,12.5.5,13,0l1-13v14Z"/>
  <path class="st4" d="M438,446c-.9,1.6-5,1.6-6,0h6Z"/>
  <path class="st22" d="M88,122h45c-.6,4.2.4,9.6,0,14h-15v1h16c5.3,0,.7,0,1,0,0,.6-1,.9-1,1h-16v28c-.2,0-.7,1-1,1v-27.6l-1-1.4h-29c-9.7,0-.7,0-1,0v-16h2Z"/>
  <path class="st16" d="M86,137v1h-1c-1.9,0-4.9.7-6-1h7Z"/>
  <path class="st20" d="M428,184l13,1v28h-14c-.6-3.4,1.3-10.7-1-13s-13.1.9-17-2h17v-12c0-4,0-1.3,0-2h2Z"/>
  <path class="st1" d="M427,184h-1v-30c2.3,9.6.4,20.2,1,30Z"/>
  <path class="st2" d="M427,444v2c-4.4-.6-.7,13.8-2,15h-17c.9-3.8,12.6-1.3,16-2v-13.4c.7-1.6,1.7-1.5,3-1.6Z"/>
  <path class="st6" d="M409,476c-4.5-.2-9.1.2-13.6,0s-2.3-1-2.4-1h15v-14h1v15Z"/>
  <path class="st29" d="M39,356h13c-1.9,3.9,0,6.8,0,10.5.4,10.8-.3,21.7,0,32.5h-13v-43Z"/>
  <path class="st30" d="M99,385h-45v-1l45,1Z"/>
  <rect class="st9" x="326" y="61" width="31" height="13"/>
  <path class="st11" d="M458,385v8.4c.4,1.3,4.7-.1,4.1,4.1l-5,.5c-.2.9,1,.9,1,1v2c.5,9.4,0,19.5,0,29h-1v-29c-1.8-.2-.9,2.3-1,3.5-.3,7.1.2,14.4,0,21.5-2.8-6.9.3-16.6-1-23.5s-8.5-3.1-11.3-2.5-.3,1.8-2.1,2.1-13.1-.6-13.6,0v12.4c-.2,1.2-1.5.4-2,.6v-14c2.6.1,15.2.4,16-2v-14c0-4.7,0-.7,0-1l16,1h-.1Z"/>
  <path class="st29" d="M458,401v-1h1l-1,1Z"/>
  <path class="st26" d="M151,449v-4c1.5.3,1.6,3.6,0,4Z"/>
  <path class="st26" d="M151,439v-3c1.5.1,1.5,2.9,0,3Z"/>
  <path class="st13" d="M99,385h2v15h-30v-1h28v-12h-44v-2h44Z"/>
  <path class="st13" d="M84,309c0,13.2-1.5,31.1,0,43.6s0,1.4,1.1,2.4c2.1,2,10.6.8,14,1v12h-44l-1.1-14.9c-.6-.4-13.3-.4-14.9-.1v-44h45,0Z"/>
  <path class="st14" d="M100,216v107c0,35.6,0,20,0,30h-13v-137h13Z"/>
  <path class="st10" d="M101,278v45h-1v-108h1v63Z"/>
  <path class="st23" d="M102,324v31c-1.7-1-1-3.8-1-5.5,0-8.8,0-17.7,0-26.5v-45h1v46Z"/>
  <path class="st24" d="M85,261v1h-46v-1c15-.3,30.2.9,45-1,0,0,.6.8,1,1Z"/>
  <path class="st6" d="M85,215v46c-.4-.2-.9-1-1-1v-46h1v1Z"/>
  <path class="st8" d="M85,355c-1-1-.9-1-1.1-2.4-1.4-12.5,0-30.4,0-43.6v-1h1v47h0Z"/>
  <path class="st24" d="M85,276v1h-22c-6.3,0-7.4-.1-11,0s-4.8-.2-7,0h-6v-1h46Z"/>
  <path class="st6" d="M101,214h-9c-1,0-2.1-.1-3,0h-3l14-1v-29c.2,0,.6-.8,1-1v31Z"/>
  <path class="st7" d="M85,289v19h-1v-31h1v12Z"/>
  <path class="st30" d="M85,242v-8c1.7,1.5,1.7,6.4,0,8Z"/>
  <path class="st30" d="M85,231v-5c1.6.7,1.6,4.3,0,5Z"/>
  <path class="st30" d="M89,214c-.7.1-2.4,1.8-4,1v-1h4Z"/>
  <path class="st30" d="M101,214h1c0,.4-.5.9-1,1s-.7,0-1,0c-.9,0-1.7,0-2-1h3Z"/>
  <path class="st30" d="M95,214c0,1.5-2.9,1.5-3,0h3Z"/>
  <path class="st30" d="M85,253v-3c1.5.1,1.5,2.9,0,3Z"/>
  <polygon class="st30" points="85 224 85 222 86 222.5 85 224"/>
  <polygon class="st30" points="85 260 85 258 86 258.5 85 260"/>
  <path class="st30" d="M85,290v-1,1Z"/>
  <path class="st16" d="M151,330c.1,3,.8,5,1,7v1h-15l1-15c3.8-.6,3.3,5.5,4.9,6.5s5.8.2,8,.5h.1Z"/>
  <path class="st16" d="M153,355h15v14h-1c-3.4-.2-14.2,1.4-15-2h15v-10.4l-14-.6v-1Z"/>
  <path class="st6" d="M153,355v12h-1c-1.3-5.5,0-22.1,0-29s0-.7,0-1c.7,6.1,1,11.6,1,18Z"/>
  <path class="st20" d="M137,323c0-.1.9-.8,1.1-2.4.9-8.3-.8-18.1,0-26.6h13c.4,11.9-.6,24.1,0,36-2.2-.3-6.3.7-8-.5s-1.2-7.1-4.9-6.5l-1,15h-1l-1-1v-1c1-2.9.6-6.3,1-9s-.2-2.2,0-3,1-.8,1-1h-.2Z"/>
  <path class="st31" d="M136,338h-1v-1l1,1Z"/>
  <path class="st30" d="M326,507c-.9,1.6-5,1.6-6,0h6Z"/>
  <path class="st5" d="M118,338h3c3.6-.2,7.4,0,11,0s.7,0,1,0l-.9,29.6-13.1.4c-.6-3.6,1.3-12.7-1-15s-9-.1-9-1.5c4.7-6.7-.2-12.6,9-13.5Z"/>
  <path class="st11" d="M117,324c0,.5.9,2,1,3.4.2,3.5,0,7.1,0,10.6-9.2.9-4.3,6.8-9,13.5,0,1.4,6.8-.7,9,1.5h-15c.7-9.6-.2-19.3,0-29h14Z"/>
  <path class="st22" d="M136,324c-.2.8.2,2.1,0,3h-2c0,2.5-.2,5,0,7.5s1,1.4,1,1.5v2h-3c-2.5-1.7-8.7-1.7-11,0h-3c0-3.5.2-7,0-10.6s-1-2.9-1-3.4v-2c6.5-.6,12.7,1,19,2Z"/>
  <path class="st28" d="M103,279v45h-1v-46h1v1Z"/>
  <path class="st17" d="M250,492c5.3.3,10.7-.2,16,0v13l59,1h-75v-14Z"/>
  <path class="st17" d="M203,491v-14c5.2-.3,10.5.8,15.5-1l.5,15c-4.9,0-11.4.6-16,0Z"/>
  <path class="st1" d="M249,493h-1l-28-1c7.8,0,15.7-.1,23.5,0s4.4-.6,5.5,1Z"/>
  <path class="st1" d="M216,492c-2.9,1.7-9.3,1.7-12,0h12Z"/>
  <path class="st26" d="M249,495l-1-2h1v2Z"/>
  <path class="st0" d="M441,236c-.8,14.5-1.5,32.2-1,46.5,0,1.9-1,4,2,3.5v2c-3.2-.5-1.9,1.5-1.8,3.4.1,3.9.7,8.2.9,12.1s-.2,10.7,0,16.1l1,1.4c0,9.5.2,19,0,28.5,0,1.8.5,4-1,5.5-5-.2-10,.1-15,0v30h-2c-5.1.2-10,.5-15,1v13c0,4.3,0,.7,0,1h-17v14c0,4.7,0,1.3,0,2h-2c-.7,0-1.6-1-3.4-1.1s-10.1-.5-10.6,1.1v15h-33v15h-1c-22.4,0-45.1.7-67.5,0-2.5,0-4.8-1-7.5-1s-1.3,0-2,0c-8.4-.3-17.2-1-26-1v-13h-20v-1c-.3-4.6.2-9.4,0-14l-1-1c-1-1.7-3.8-1-5.5-1-6.8,0-19.5-1-25.5,0-.5-3.9.7-8.9,0-12.5s-1.9-2.3-2-2.5c-.6-2.1.6-12.4,0-13h-16c.2-5.4.8-10.6,1-16s-.2-9.4,0-14c4.7,2.6,4.3-1.7,5.7-2s6.1-.2,7.3.5l3.5,9.6,11.5-2c.9-.8-2-7.9,2-7-.2,8.5-.9,20.4,0,28.6s.1,1.4,1.1,2.4,1.5.8,2,1c7.1,2.7,19,0,27,1v12l18,1v16.4c.2,1.2,1.5.4,2,.6s1,.9,2.4,1c6.1.5,21.3.6,26.6-1s2.5.5,3-1v-16l12-1,1-9,1,22v3l-1,.5,1,.5h2v1c0,.9.7.9,1.5,1,5,.8,17.7.4,23.1,0s3.1.3,3.4-1.1l.8-.4c0-.2-.8-.4-.8-.6v-1h2v-15c.3-.3,1-.7,1-1h47c.7-4.3-.5-8.2-1-12s0-.9,0-1c.3-.3,1.7.9,2-2h15c.2-4.3-.3-8.7,0-13s1.8-9.9,1-15c5-.4,10.9,1.1,15.4-1.1s1.2-1.6,1.6-1.9.7-.7,1-1,1.7.3,2.5-1c3.4-5.1,2-15.6,2.6-21.5s1.6-3,1.8-5-.5-6.3-.7-8.9c.6-2.1,4.5-1.1,5.5-2.6s-.2-4.5,1.4-5.6,3.3.1,4.2-1,0-3.4.3-4.7,1.8-2.2,1.7-4.1-2.2-3.5-1.9-4.9,4.3-3.1,4.8-6.2,1.1-10.4,1-10.9c-.2-1.7-2-2.6-2-4.9,0-4.2,5-7.2,4.8-10-1-6-9.4-2.9-9.8-8.7l6-1c.6-2.3-2.5-2.9-2.8-4.6s1.4-4.2,1.9-5.8l8.9-5.6h-.4Z"/>
  <path class="st6" d="M218,415h-3c-9-.6-20.5,1.2-29,0,.3-.3.6-.9,1-1,6-1.1,18.7,0,25.5,0s4.4-.6,5.5,1Z"/>
  <path class="st29" d="M218,415l1,1-4-1h3Z"/>
  <path class="st2" d="M250,108l1,14h109v16c5.3,0,10.7.1,16,0v15l15,1,1,13,1,1c4.3,2.5,11.3,0,16,1v15h17v2h-17v12c3.9,2.9,14.1-.9,17,2v14c.7.7,12.9-.7,15.3,0s.6,2,.7,2v14h-1v-14h-15v14c4.6.3,9.4-.3,14,0l2,1v3c-1,.3-1,1.2-1,2l-8.9,5.6c-.5,1.6-2.2,4.3-1.9,5.8s3.4,2.3,2.8,4.6l-6,1c.4,5.8,8.8,2.7,9.8,8.7.2,2.7-4.7,5.8-4.8,10s1.8,3.3,2,4.9-.8,10-1,10.9c-.6,3-4.5,4.4-4.8,6.2s1.8,3.2,1.9,4.9-1.4,2.8-1.7,4.1.7,3.4-.3,4.7-3.1.3-4.2,1c-1.6,1.1-.5,4.3-1.4,5.6s-4.9.4-5.5,2.6c.3,2.6,1,6.4.7,8.9s-1.6,3.3-1.8,5c-.6,5.8.8,16.4-2.6,21.5s-2.3.8-2.5,1c-.7-5.6,1.4-43.6-1-45s-.6,0-1,0h-1v-2l-14.1.6c-1.9-1.3-.5-9.7-.9-12.6s-1-2.9-1.7-3c-4.2.5-9.3-.6-13.3,0l-1-13c3.4-.6,10.7,1.3,13-1s0-54.2,1-62c-5-.2-10,.2-15,0v-5l1-9c4.6.2,7.8.2,12-1s2.7.7,3.1-.6c-.5-5.3.9-10.5-1.1-15.4s.6-1.8-.6-2l-12.4,1v-16h-3c-4.7-2.3-11-.4-16-1v16h-31l-.5-34.1-1.5-.9h-29v3c-.1,5.8.8,10.6,1,16-.6,0-1.4-.1-2,0-5.6,1-9.4.9-15,1,1.1-1.6.9-3.2,1-5,.2-4.6-.1-9.4,0-14-1-1.7-3.8-1-5.5-1h-22c-7.3,0-4.4-.6-5.5,1v1l-1,33-45,1-1,45c-.5-14.1.6-28.4,0-42.5s.8-3.7-1-1.5c-1.5,1-1,2.9-1,4.4-.4,11.3-.8,26,0,37.1s-.2,2,1.1,3.4.6,1.9,1,0c.4.1.8.9,1,1,5.1,1.6,9.6.9,15,1v14.5c3.8,3.1,10.3.8,15,1.5v75l-15,1c-.3.8,1,.9,1,1v1l-1,12c-4.5.8-14.5-2-17,2s-.9,11.7-1,16c-4-.9-1.1,6.2-2,7l-11.5,2-3.5-9.6c-1.2-.7-6-.9-7.3-.5s-1,4.7-5.7,2c-.2,4.6.2,9.4,0,14-.6-.2-1.4-.9-2-1v-14h-15c0-6.4-.3-11.9-1-18v-45c-2.6.9-5.2-.2-8,0l8-1c1.2-10,.6-20,1-30s1-1.6,1.1-3.4c.4-13.8-.5-27.8,0-41.6,3.8-.1,7.7.2,11.6,0s4,1,3.5-2h1l1-29,16-1v-30c3.2-.5,8.5.8,11.3,0s.5-1.9.7-2,1.7.5,2-.7c.6-2.1-.6-11.8,0-12.3h24.5c1.5-.3-.5-.9-.5-1,0-3.3.2-6.7,0-10h2v-6c7-.2,14,.3,21,0s1.3,0,2,0v-14,.2ZM387,213c-2.3.6-7.7-1.3-9,1,2.3-.6,7.6,1.3,9-1ZM394,276v-60h-1v60h1ZM196,352h-3v2h3v-2Z"/>
  <path class="st23" d="M169,386h16c.6.6-.6,10.9,0,13h-16c.1-4.3-.1-8.7,0-13Z"/>
  <path class="st8" d="M219,431h20v13h-19c-.2-3.1.3-6.5,0-9.6s-1-2.3-1-2.4v-1Z"/>
  <path class="st8" d="M221,446c-3-.6-1.9,1.5-2,3.5-.1,3.5,0,7.1,0,10.6h47c.4.3.9,1,1,1-2.9,4.5-1.7,10-2,15l-1-14h-45.5c-3.2-1.8-.5-14-1.5-15h-16l1-1c3.5-.7,14.9,1.8,16-2,1.3.2,2.8,2,3,2h0Z"/>
  <path class="st9" d="M218,444c-2.5-.4-14.5.5-15,0v-11h14c-.9,3.2.7,6.7,1,9s.1,1.6,0,2Z"/>
  <path class="st17" d="M219,432c0,.1.9,1.1,1,2.4.3,3.1-.3,6.5,0,9.6h19c6.3,0,17.6.7,26,1v1h-2c-1-1.7-3.8-1-5.5-1-7.6,0-16.3-.7-23.5,1h-3c-1.3-1.7-5.7-1.7-7,0-1,0-2,.1-3,0s-1.7-1.8-3-2c.1-.4,0-1.5,0-2,.2-3.3-.7-7,1-10Z"/>
  <path class="st6" d="M185,446l-1,1h-14v11h-1c0-2.5.8-6.4-1-8v-2l1-2h16Z"/>
  <path class="st16" d="M169,458v3l-1-.5v-10.5c1.8,1.6,1,5.5,1,8Z"/>
  <path class="st16" d="M183,461h-9c2.6-2.2,6.3-1.1,9,0Z"/>
  <path class="st16" d="M172,461c-.7,0-1.4.1-2,0l1.2-.7.8.7Z"/>
  <path class="st24" d="M55,387h44v12h-44v-12Z"/>
  <path class="st2" d="M323,107h1-58,57Z"/>
  <path class="st16" d="M325,107h-1l1-3v3Z"/>
  <path class="st13" d="M377,124h14v14c-2.7.5-5.4-1-8-1l-6-1v-12Z"/>
  <path class="st24" d="M376,139l1,12c3.2,0,6.4-.1,9.6,0s4-1,3.5,2h-14v-14h-.1Z"/>
  <path class="st30" d="M409,170v-1c.4,0,.8-.1,1,.5l-1,.5Z"/>
  <path class="st16" d="M394,154c4.6-.2,9.4.2,14,0v12h-14v-12Z"/>
  <path class="st24" d="M394,154v12h14c-.9,2.8-12.3,1.9-15,2l-1-1v-13h2Z"/>
  <path class="st10" d="M167,107c-4.2-.6-10.5,0-15,0h-2v30h-15c-5,0-.7,0-1,0v-2l15,1v-28c-2.2,1-4.8-.9-6-1h7v-3l16,2,1-11v12Z"/>
  <path class="st15" d="M196,93c-1,1.7-3.8,1-5.5,1-6.2,0-13.7.8-19.5-1,7.2-.4,18-.7,25,0Z"/>
  <path class="st15" d="M136,167v1c-.5.8-.7,1-1,2-1.9,7-1.3,20.7-1,28.5s-1,4,2,3.5v15h-1v-3l-16,1-1-2v-45c.6,0,2,1,3.4,1,3.6.1,7.3,0,10.9-.1,2.5-.8,1.5-4.8,1.6-6.9l2,5h0Z"/>
  <path class="st25" d="M136,200v2c-3,.6-1.9-1.5-2-3.5-.3-7.9-.9-21.6,1-28.5-.7,10.1.6,20,1,30Z"/>
  <path class="st7" d="M138,213h-2v-4c1.8.5,2.2,2.3,2,4Z"/>
  <path class="st25" d="M150,139c.2,9-.6,18.1,1,27h-15v-27h14Z"/>
  <path class="st30" d="M134,138c-.9,7,.3,16.5,0,24s.8,6-1.6,6.9c-3.6.2-7.3.3-10.9.1s-2.9-1-3.4-1c-5.6-.2-11.4.1-17,0v-1c5.3-.2,10.7.3,16,0s.8-1,1-1c5-.3,10,.2,15,0v-27l-6-1h7,0Z"/>
  <path class="st27" d="M171,122c-.2,0-1,1.4-2,1l2-1Z"/>
  <path class="st27" d="M136,168v-1h1c-.3.4-.8.6-1,1Z"/>
  <path class="st20" d="M266,107v-15h57v15h-57Z"/>
  <path class="st16" d="M322,90h3v3l-3-3Z"/>
  <path class="st15" d="M318,45c.7,1.6,4.3,1.6,5,0l1,13h-57v-12c14.2-.4,28.4.5,42.6,0,1.8,0,3.2-1.1,3.4-1.1h5Z"/>
  <path class="st9" d="M313,45c-.2,0-1.6,1-3.4,1.1-14.2.4-28.5-.5-42.6,0v12h-1v-13h47Z"/>
  <path class="st13" d="M171,182c.2.2.9.1,1,.5v1.5l-2.1,1.4v28.6h-.9c-4.7,0-9.4-.1-14,0s-1.4,0-2,0v-30l14.5.7c1.9-.3,1.4-3.3,1.5-4.7.6.7,1.4,1.3,2,2ZM168,186h-13v27h13v-27Z"/>
  <path class="st24" d="M183,152c.3,1,1.1.9,2,1v31h-2c.1-.6-.2-1.5,0-2,2.5-8.2.2-19.2,1-28h-12.4l-.6,28c-.6-.7-1.4-1.3-2-2,.6-9.3-.4-18.7,0-28h14Z"/>
  <path class="st17" d="M185,152h1v1h-1c-.9,0-1.7,0-2-1h2Z"/>
  <path class="st24" d="M223,122c2.9,1.2,1.9,3.4,2,6,.1,2.6,0,6.7,0,10l-24-1-1,1-1,14c-4.2,1.3-8.6,1.2-13,1v-15c3.8.6,6.7-.3,10-1s2.7.2,4,0v-15c3.4,2.3,6.3,0,9.5,0s9,0,13.5,0ZM224,124h-23v12h23v-12ZM198,139h-11v12h11v-12Z"/>
  <path class="st23" d="M225,122h2v6h-2c-.1-2.6.9-4.8-2-6h2Z"/>
  <path class="st27" d="M225,122h-1l1-2v2Z"/>
  <path class="st20" d="M226,122v-14h22v14c-7,.3-14-.2-21,0h-1Z"/>
  <path class="st14" d="M192,76h6v2c-2.4,2.7,0,8.2-1.1,11.4l-.9.6c-8.3-2.3-17.9-.4-26.5-1-1.4.2.5.9.5,1,0,.5-.4,1.2-1,1-.5-.2-1.4,0-2,0v-14c.5-.6.9-1.2,1-2,7.7,1.7,16.1,1,24,1Z"/>
  <path class="st26" d="M167,90v3l-1,.5,1,.5v1l-1,11-16-2v-13h1c5.3-.3,10.9.8,16-1Z"/>
  <path class="st1" d="M198,78v14c-9-.9-20.6,1.6-29-1,.6.2,1-.5,1-1h26l.9-.6c1-3.2-1.4-8.8,1.1-11.4Z"/>
  <path class="st10" d="M167,94l-1-.5,1-.5v1Z"/>
  <path class="st24" d="M152,215h1l-1,45c-4.5-.4-9.8-.3-14,1s-.7,0-1,0v-46c5-.1,10,.2,15,0ZM151,216h-13v43h13v-43Z"/>
  <polygon class="st0" points="137 215 137 218 136 217 136 213 137 213 137 215"/>
  <path class="st2" d="M155,214c-.3,1-1.1.9-2,1s-.7,0-1,0c.1-.5.5-.9,1-1s1.3,0,2,0Z"/>
  <path class="st16" d="M196,61v13h-28c.2-4.3-.2-8.7,0-13,9.3.4,18.7-.5,28,0Z"/>
  <path class="st20" d="M166,76v13c-3.8,0-7.7-.2-11.5,0s-4-1-3.5,2h-1v-15h16Z"/>
  <path class="st2" d="M196,74h2v1c-1.9,0-4.9-.8-6,1-7.9,0-16.3.7-24-1v-1h28Z"/>
  <path class="st17" d="M167,77v13c-5.1,1.8-10.7.7-16,1-.6-3,1.5-1.9,3.5-2,3.8-.2,7.7,0,11.6,0v-13l1,1h-.1Z"/>
  <path class="st24" d="M198,75v1h-6c1.1-1.8,4.1-.9,6-1Z"/>
  <path class="st24" d="M443,184v10c-1.6,2.7-1.6,19.2,0,20h1c.9,1.3,2,1.2,3,0,3,.1,6,0,9,0l2,1c.5,4,0,9.7,0,14,.2,31,0,62,0,93-.8,0-1.7-1-2-1v-105c-2.4-.5-12.9.7-14,0s.4-1.7-.7-2c-2.5-.7-14.7.7-15.3,0v-14c2.3,2.3.4,9.6,1,13h14v-28l-13-1h15Z"/>
  <path class="st7" d="M459,230l-1,124v-32c0-31,.2-62,0-93,.6,0,.9,1,1,1Z"/>
  <path class="st23" d="M458,214v1l-2-1h2Z"/>
  <path class="st23" d="M443,214c-1.6-.8-1.6-17.3,0-20v20Z"/>
  <path class="st23" d="M447,214c-1,1.2-2.1,1.3-3,0,.9.1,2,0,3,0Z"/>
  <path class="st31" d="M148,91v14c-7,0-14,.2-21,0s-5.3,0-8,0v-12c.8-.8,18.2.5,21.6,0s2.3-1,2.4-1.1c.9,0,3.2-.8,5-1h0Z"/>
  <path class="st28" d="M150,91v13c0,4.3,0,2,0,3h-7c-2.8-.3-6.1,0-9,0s-4.7,0-7,0v-2c7,.2,14,0,21,0v-14h2Z"/>
  <path class="st27" d="M143,92c-.1,0-.9.9-2.4,1.1-3.4.4-20.8-.8-21.6,0v12h8v2c-3.1,0-7.2-1-9-1,.2-5-.3-10,0-15,8.3,0,16.6.7,25,1h0Z"/>
  <path class="st8" d="M118,106c1.8,0,5.9.9,9,1,3.1,0,4.7,0,7,0v14c-.5,0-.9.5-1,1h-46v-14l14-1h2c5.2,0,10.4-1,15-1Z"/>
  <path class="st17" d="M451,321c1.6,0,3.5-.2,5,0s1.2,1.1,2,1v34h-16c-1.1.2-.9-1-1-1,1.5-1.4,1-3.6,1-5.5.2-9.5,0-19,0-28.5h9Z"/>
  <path class="st11" d="M473,355v31l-9.8-.2-5.2-7.8v-22c0-7.3,0-.7,0-1h15Z"/>
  <path class="st17" d="M458,378l5.2,7.8,9.8.2v13h-15s-1.2-.1-1-1l5-.5c.6-4.2-3.7-2.8-4.1-4.1,0-2.8.1-5.6,0-8.4s0-4.7,0-7h.1Z"/>
  <path class="st17" d="M473,379v-1,1Z"/>
  <path class="st9" d="M323,45c-.7,1.6-4.3,1.6-5,0h5Z"/>
  <path class="st5" d="M87,138c9.2,2.3,19.5.4,29,1v27c-.9.9-12.9-1.4-15,1v1l-6-1c-3-2.5-22,0-23-1l-1-7v-3c1.7-3.4,1.7-10.4,0-14v-2c4.2-.5,9.3,1.2,13-1s.7-.7,1-1h2Z"/>
  <path class="st11" d="M71,159l1,7c1,1,20-1.5,23,1-6.8,1-17.7-1.4-24,0v-8Z"/>
  <path class="st11" d="M71,156c0-4.5-.4-9.6,0-14,1.7,3.6,1.7,10.6,0,14Z"/>
  <path class="st11" d="M84,139c-3.7,2.2-8.8.5-13,1l13-1Z"/>
  <path class="st17" d="M82,214h-19c-6.3,0-5.6-.7-7,1h-2v-2h1c8.8.6,18.5-1.3,27,1Z"/>
  <path class="st6" d="M55,186v27h-1v-29h1v2Z"/>
  <path class="st1" d="M54,212c-1.7-4.1-1.7-11.7,0-16v16Z"/>
  <path class="st22" d="M95,167l6,1v15c-.4.2-.8,1-1,1h-1l-44-1v-14c.4-.4,10.5.3,12.6,0s2.3-1,2.4-1.1c.2,0,.6-.9,1-1,6.3-1.4,17.2,1,24,0h0Z"/>
  <path class="st27" d="M99,184c-2,.1-4,0-6,0h-38v-1l44,1Z"/>
  <path class="st22" d="M82,214h2v16h-1c-6.1-1.7-14.9-1.7-21,0h-5c0,0-.9-.9-2.4-1.1-4.8-.6-10.7.5-15.6,0v-13l16-1h1l7,1v-2h19Z"/>
  <path class="st12" d="M57,230h-18v-1c4.9.5,10.8-.6,15.6,0s2.3,1,2.4,1.1h0Z"/>
  <path class="st17" d="M52,277c2.3,1.7,8.5,1.7,11,0h19l2,1v30h-45v-30c2.2,1,4.8-.9,6-1,2.2-.2,4.7,0,7,0Z"/>
  <path class="st8" d="M48,230v2h3.4l.6-2h5c.2,0,1.6.9,3.4,1.1,2.8.3,8.4.5,10.6-1.1h2l9.9,2v27h-43.9v-28l1-1h8Z"/>
  <path class="st2" d="M83,259h1v1c-14.8,1.9-30,.7-45,1v-2h44Z"/>
  <path class="st17" d="M39,231v-1h1l-1,1Z"/>
  <path class="st5" d="M45,277c-1.2.1-3.8,2-6,1v-1h6Z"/>
  <path class="st6" d="M457,430h-15l14-1v-3c.2-7.1-.3-14.4,0-21.5,0-1.2-.8-3.7,1-3.5v29Z"/>
  <path class="st23" d="M390,482l-1,.5,1,.5c-.1,2.3,0,4.7,0,7v1h-7c-6.8-1.7-16.2-1.7-23,0h-1c.3-2.4-.5-13.5,0-14,9-.1,18,.2,27,0s3.2,0,5-1c1,2.2-.9,5.1-1,6Z"/>
  <path class="st15" d="M423,400c.5,1.3,1.9,1,3,1v14c-6.1,2.4-10.1-.3-16.1.4l-.9,15.6h-17c-.1,2.1-1,3.5-1,4,.6-3-1.5-1.9-3.5-2-3.5-.1-7.1,0-10.6,0,.8,4.3-.5,8.2-1,12h-1v-14h17c.2-5,0-10,0-15,5.3.2,10.8.3,16.1-.4,1.7-1.2.9-11.8.9-14.6s0-.7,0-1h14.1ZM425,414c-2-4.7,3.3-11.2-3.5-12s-7.2.4-10.6,0v12h14.1ZM408,417h-14v12c4.3.3,8.6-.2,12.8-1.2l1.2-10.8Z"/>
  <path class="st11" d="M184,447l1,12c-4.9-.4-10.4,1-15-1v-11h14Z"/>
  <path class="st11" d="M291,476c.4,1.6,3.7,1.5,4,0,15,0,31.2.8,46,0l2,1h-78l1-1c7,.9,17.5,0,25,0Z"/>
  <path class="st17" d="M390,446h2c-4.8,1.9-9.8.7-15,1-1,1,1.7,13.2-1.5,15h-30.5v14h-2c.5-3.7-.4-8.2,0-12v-3c10.7,0,21.3-.4,32-1,.4-.4-.2-8.1,0-10s.8-2.1,1-4c4.6-.3,9.5.4,14,0Z"/>
  <path class="st11" d="M409,431l-15,1v13.4c-.2,1.2-1.5.4-2,.6l-1-2c.5-2.6-.2-6.2,0-9s.9-1.9,1-4h17Z"/>
  <path class="st22" d="M343,476v1l-2-1h2Z"/>
  <path class="st22" d="M265,477v-1h1l-1,1Z"/>
  <path class="st16" d="M383,491c-7.6.1-15.3,0-23,0,6.8-1.7,16.2-1.7,23,0Z"/>
  <path class="st16" d="M390,483l-1-.5,1-.5v1Z"/>
  <polygon class="st16" points="390 491 390 490 391 490.5 390 491"/>
  <path class="st26" d="M127,138l6,1v27c-5,.2-10-.3-15,0v-28h9Z"/>
  <path class="st6" d="M117,167c-5.3.3-10.7-.2-16,0,2.1-2.4,14.1,0,15-1v-28l1,1.4v27.6Z"/>
  <path class="st27" d="M132,122h-44,44Z"/>
  <path class="st28" d="M134,135v2h-16v-1h15c.4-4.4-.6-9.8,0-14s.5-.9,1-1v14Z"/>
  <path class="st11" d="M116,138v1c-9.5-.6-19.8,1.3-29-1h29Z"/>
  <path class="st16" d="M426,186v12h-17v-12h17Z"/>
  <path class="st2" d="M458,356v22c0,7.3,0,4.7,0,7l-16-1c.1-8.6,0-17.4,0-26v-2h16Z"/>
  <path class="st9" d="M442,385v14h-15l.4-12.1c3.9-1.3,7.2-1,11.6-1.9s2.1.1,3,0Z"/>
  <path class="st17" d="M442,384v1c-.9.1-2.2-.2-3,0h-13v15h-17v-1h14.9c1.5-4.6-.5-9.3.1-14h2v-14l1,12h14l1-25c0,8.6.1,17.4,0,26Z"/>
  <path class="st25" d="M439,385c-4.3,1-7.7.6-11.6,1.9l-.4,12.1h15c-.8,2.4-13.4,2.1-16,2v-16h13Z"/>
  <path class="st9" d="M118,214v4c-3-.6-1.9,1.5-2,3.5-.6,18.1.4,36.4,0,54.6h-13c0-17.9.7-36.7,0-54.5s.8-3.7-1-3.5v60h-1v-63c.5,0,.9-.6,1-1h16Z"/>
  <path class="st8" d="M68,184c-.6,3,1.5,1.9,3.5,2,4.6.2,9.5.2,14.1,0s4,1,3.5-2h4v2h7v27l-14,1h-4c-8.5-2.3-18.2-.4-27-1v-27h11v-2h2,0Z"/>
  <polygon class="st17" points="83 230 84 230 84 259 83 259 82.9 232 73 230 83 230"/>
  <path class="st5" d="M63,277c-2.5,1.7-8.7,1.7-11,0,3.6-.1,7.3,0,11,0Z"/>
  <polygon class="st5" points="84 277 84 278 82 277 84 277"/>
  <path class="st29" d="M118,168v2c-1.7-.9-1.8,0-2,1.5-.8,6.1,1.5,40.1,0,41.5l-13,1h-2v-46c5.6.1,11.4-.2,17,0Z"/>
  <path class="st11" d="M99,184h1v2h-7v-2c2,0,4,.1,6,0Z"/>
  <path class="st24" d="M144,292c2.8-.2,5.4.9,8,0v45c-.2-2-.9-4-1-7-.6-11.9.4-24.1,0-36h-13c-.7,8.5,1,18.3,0,26.6s-1,2.3-1.1,2.4c.9-1.9-.9-4.1-1-5-.3-2.8-.6-23.9.2-24.8s1.6,0,1.8-.2c2.2,1,4.9-.9,6-1h.1Z"/>
  <polygon class="st23" points="153 356 167 356.6 167 367 153 367 153 356"/>
  <path class="st31" d="M135,268c0,14.8-.2,29.7,0,44.5s-.6,4.4,1,5.5c.1.9,1.9,3.1,1,5,0,.2-.9.6-1,1-6.3-1-12.5-2.6-19-2,0-4.3,3-28,2-29-3.7-1.5-5.5,4.7-6.7,5-1.7.4-7.9-.5-8.3,0-.2,6.5.3,13.1,0,19.6s-1,2.3-1,2.4v-41l15-1,1,1v-5c8.1,5.6,8.8-4.3,16-6Z"/>
  <path class="st31" d="M136,327c-.4,2.7,0,6.1-1,9,0,0-.8.1-1-1.5-.2-2.5,0-5,0-7.5h2Z"/>
  <path class="st31" d="M132,338c-3.6,0-7.4-.2-11,0,2.3-1.7,8.5-1.7,11,0Z"/>
  <path class="st12" d="M103,320c0-.1,1-1.1,1-2.4.3-6.5-.3-13.1,0-19.6.4-.4,6.6.4,8.3,0s3-6.5,6.7-5c1,1-2,24.7-2,29s0,1.3,0,2h-13l-1-2v-2Z"/>
  <path class="st31" d="M104,324h-1v-2l1,2Z"/>
  <path class="st15" d="M118,218v60l-15,1v-3h13c.4-18.1-.6-36.4,0-54.5,0-1.9-1-4,2-3.5Z"/>
  <path class="st25" d="M103,276v2h-1v-60c1.7-.2.9,2.3,1,3.5.7,17.8,0,36.6,0,54.5Z"/>
  <path class="st29" d="M376,342c3.7-5.1,13.6.8,18-3.5v-28.5h13v43h-15v2c-.2,5,.2,10,0,15h-16v14.5c-6,3.7-14.9.5-21.5.5-9.7,0-19.2,2.3-28.5,0v2c-.9,8.6,0,20,0,29s0,.7,0,1c-9.3-.2-18.7.3-28,0s-.7,0-1,0c-.5-15.6.7-31.4,0-47,21,.1,42-.1,63,0,3.7-3.8,0-9.2,1-14l13-1h4v-10.4l-2-.6v-2Z"/>
  <path class="st5" d="M342,446v13h-75v-14c2.7,0,4.9,1,7.5,1,22.4.7,45.1,0,67.5,0Z"/>
  <path class="st17" d="M375,388c.5,3.8,1.7,7.7,1,12h-47c.4-3.8-.3-8.1,0-12h46Z"/>
  <path class="st11" d="M441,355s-.1,1.2,1,1v2l-1,25h-14l-1-12v-16c5,.1,10-.2,15,0Z"/>
  <path class="st8" d="M375,431v2l-1,11h-31v-13h32Z"/>
  <path class="st17" d="M203,387h45v14l-18-1v-12c-8-1-19.9,1.8-27-1Z"/>
  <path class="st8" d="M409,400v1l-1,13h-16v-14h17Z"/>
  <path class="st8" d="M296,413l-1-22-1,9-12,1v-15h13l1-8c.2,11.6.2,23.4,0,35Z"/>
  <path class="st8" d="M424,385c-.6,4.7,1.4,9.4-.1,13.9h-14.9v-12.9c5-.5,9.9-.8,15-1Z"/>
  <path class="st11" d="M392,372c-.3,4.3.2,8.7,0,13h-15c.5-4.1-.3-8.8,0-13h15Z"/>
  <path class="st8" d="M390,416l1,13h-14l-1-13c.5-1.6,8.5-1.2,10.6-1.1s3.2,1.1,3.4,1.1Z"/>
  <path class="st11" d="M267,445v14h75v-13h1v15h-27c-8.6-.1-17.3,0-26,0s-18.9,1.1-23,0-.6-.7-1-1-.2-1.7-1-2v-13h2Z"/>
  <path class="st4" d="M249,386c.4.2,1.8-.6,2,.6v28.4h29v-13l-14-1,16-1v17h-33v-31Z"/>
  <path class="st6" d="M202,340c1,14.1-1.4,30.1,0,44s0,1.3,0,2h2c14.2,1.4,30.5-1,45,0v31h33c-.5,1.5-2.2.7-3,1h-29c-.5-.2-1.8.6-2-.6v-30.4h-45c-.5-.2-1.8-.8-2-1v-47c2.5-4,12.5-1.2,17-2l1-12c.2,2.5.5,12.5-.9,13.6l-16.1,1.4Z"/>
  <path class="st6" d="M410,354c-.3.2-.7,1.4-1.6,1.9-4.5,2.3-10.5.7-15.4,1.1.8,5.1-.7,10.3-1,15h-15c-.3,4.2.5,8.9,0,13s-1.7,1.7-2,2h-49v-2c9.4,2.3,18.8-.1,28.5,0s15.5,3.3,21.5-.5v-14.5h16c.2-5-.2-10,0-15h15.6l1.4-1v-46c.4,0,.8-.1,1,0v46Z"/>
  <path class="st24" d="M442,314v-26c0-8.7,0-1.3,0-2v-56,84Z"/>
  <path class="st7" d="M442,286c-3,.6-1.9-1.5-2-3.5-.6-14.4.2-32,1-46.5s0-1.7,1-2v52Z"/>
  <path class="st17" d="M375,445c-1.6,0-4.1-.6-5,1h-25l-2-1v-1h31l1-11v12Z"/>
  <path class="st23" d="M375,387v1h-46c-.3,3.9.4,8.2,0,12s-.7.7-1,1v-14h47Z"/>
  <path class="st17" d="M376,416l1,13h14l-1-13h2c0,5,.2,10,0,15h-16v-15Z"/>
  <path class="st7" d="M328,387v29h-2c0-9-.9-20.4,0-29h2Z"/>
  <path class="st17" d="M201,386c-.9-1-.9-.9-1.1-2.4-.8-8.2-.1-20.1,0-28.6s-.9-12.9,1-16v47h.1Z"/>
  <path class="st6" d="M297,417h-1v-4c.2-11.6.2-23.4,0-35s0-2,0-3v-3c.2-.5-.1-1.4,0-2h1c.7,15.6-.5,31.4,0,47Z"/>
  <path class="st23" d="M392,416v-2h16l1-13c0,2.8.7,13.4-.9,14.6-5.3.7-10.8.6-16.1.4Z"/>
  <path class="st11" d="M411,353c-.3.3-.6.7-1,1v-46c2.4,1.4.3,39.4,1,45Z"/>
  <path class="st7" d="M442,288v26c0,8.7,0,3.3,0,5v2l-1-1.4c-.2-5.3.3-10.7,0-16.1s-.8-8.2-.9-12.1-1.3-3.9,1.8-3.4h.1Z"/>
  <path class="st11" d="M279,418c-5.3,1.7-20.5,1.6-26.6,1s-1.7-.8-2.4-1h29Z"/>
  <path class="st6" d="M326,417c0,.1.8.3.8.6l-.8.4h-28v-1c9.3.3,18.7-.2,28,0Z"/>
  <path class="st11" d="M326,418c-.4,1.4-2.3,1-3.4,1.1-5.4.4-18.1.7-23.1,0s-1.5-.1-1.5-1h28Z"/>
  <path class="st22" d="M345,446h-2v-1l2,1Z"/>
  <polygon class="st8" points="296 417 295 416.5 296 416 296 417"/>
  <path class="st29" d="M249,183h2l1-33h27l1,12h2c0,1.8,0,3.4-1,5-5.3.1-10.7,0-16,0v15.6c0,5.2,1,2.3,1,2.4v1c0,1.3-1.1,3.3-1,5.4s1.6,4.9,1,7.6h-19c-9.3,0-18.6-.1-27.9.1l-1.1,14.9h16v2c.2,4.6-.2,9.4,0,14l13,1v106l-13,1-.7.5c0,.6.7,1.2.7,1.5v15h-15v14c.3,1.2,1.5.8,2,1,6.6,3,41.5-.5,43,1,1,8.2-1.8,20.8,1,28s.7,1.3,1,2l14,1v13h-29v-28.4c-.2-1.2-1.6-.4-2-.6s-.7-1-1-1v-1c-.1-1.2-1.5-1-2.4-1-13-1-27.4.9-40.6,0l-1-5c-.4-12.6.3-25.4,0-38h15.5c3.4-2.6,0-10.4,1.9-13.1l12.6-.9-1-2c.8,0,.8-.8,1-1s2.4.8,2.1-1.4v-76c0-1.2-1.4-.4-2.1-.6s-1.4.1-2,0c-3.6-.7-7-1.6-11-1v-14c-.9-.4-2,3.8-2,4-.4-1.5,1.4-3.8-1.5-4-4.8-.3-9.7.2-14.5,0-.2,0-.6-.9-1-1v-1l1-45c15.3-.6,30.8.7,46,0Z"/>
  <path class="st29" d="M298,167c1.5,0,.9-1.4,1-2.5.5-4.6-.4-9.8,0-14.5h26l1,4v2c-1.6,1-1.6,5.1,0,6v3c-1.7,2.7-1.7,9.1,0,12v3l-1,.5,1,.5v1c0,.3.7.6,1,1s-.2.8,0,1c1,1,.9.9,2.4,1.1,9.3.9,20.1-.8,29.6,0l1,14v1l14,1v14h2c5,.2,10-.2,15,0-1,7.9,1.8,59.2-1,62h-14v14h-16v-31h16v-24c0-2,.2-3.6,0-5.4l-.9-.6c-5,0-10-.1-15,0,0-4,.1-8,0-12s-1-2.4-1-3,1.4-1.1,1-2h-13.9c0-.1-2.1-13-2.1-13v-1l-46-1c-.1-.8,0-1.7-1-2-.2-3.3,0-6.7,0-10s0-.7,0-1v-2c1.8-3.3,1.1-9,1-13s0-2,0-3h-.1Z"/>
  <path class="st20" d="M442,216c1.1.7,11.6-.5,14,0v105c-1.5-.2-3.4,0-5,0l-9-2v-103Z"/>
  <path class="st3" d="M375,167h1v17h15c2,4.9.6,10.1,1.1,15.4-.3,1.2-2.2.3-3.1.6-3.9-1.7-11.3-1.7-15,0-4.3-.6-9.6.4-14,0v-1c-.6-4.3,0-10.4,0-15s0-.7,0-1v-16c5,0,10-.1,15,0ZM362,184v14l13-.5-12-.5c0-3.2.1-6.4,0-9.5s.8-3.7-1-3.5ZM391,186h-15l1,12h14v-12Z"/>
  <path class="st17" d="M152,260c.5,0,.9.5,1,1-.4,10,.2,20-1,30l-8,1c-1.1,0-3.8,2-6,1,.1-.2,0-1.4,0-2,.9-9.6-.6-20.3,0-30,4.2-1.3,9.5-1.4,14-1Z"/>
  <path class="st11" d="M440,230c-4.6-.3-9.4.3-14,0v-14h15v14h-1Z"/>
  <path class="st4" d="M233,324l1,2-12.6.9c-1.9,2.7,1.5,10.5-1.9,13.1h-15.5c.3,12.6-.4,25.4,0,38s0,4,0,6h44v1c-10.3-1.4-27.4-.2-38.5,0s-4.4-.6-5.5,1h-2v-46l16.1-1.4c1.5-1,1.1-11.1.9-13.6s0-.7,0-1h14Z"/>
  <path class="st30" d="M282,148c-.1,4.6.2,9.4,0,14h-2l-1-12h-27l-1,33h-2v-35h33Z"/>
  <path class="st25" d="M296,166l2,1v3c-1.8,3.3-1,8.9-1,13s0,.7,0,1c-9.6.3-19.4-.4-29,0l27.1-1.4.8-11.9-.8-1.2-28.1-.4v15c-.6,0-.9.4-1,1,0-.1-1-.2-1-2.4,0-5.2.1-10.4,0-15.6,5.3,0,10.7.1,16,0s9.4,0,15-1h0Z"/>
  <path class="st6" d="M203,230c4.8.2,9.7-.3,14.5,0s1,2.5,1.5,4c-.4,3.8.3,8.1,0,12l13-1c.6.1,1.5-.2,2,0v78c-.2.2-.2,1.1-1,1h-14s-1.3-.2-1-1l15-1v-75c-4.7-.7-11.2,1.6-15-1.5v-14.5c-5.4,0-9.9.6-15-1Z"/>
  <path class="st7" d="M169,214c.6,3-1.5,1.9-3.5,2-3.8.2-7.7-.1-11.6,0-.4,13.8.5,27.8,0,41.6-.5,13.8-1.1,3.2-1.1,3.4-.1-.5-.5-1-1-1l1-45c.9,0,1.7,0,2-1,4.6-.1,9.3,0,14,0h.2Z"/>
  <path class="st6" d="M249,183c-15.2.7-30.7-.6-46,0l45-1,1-33v34Z"/>
  <path class="st7" d="M225,138s2,.7.5,1h-24.5c-.6.6.6,10.2,0,12.3s-1.9.5-2,.7.5,1.7-.7,2c-2.8.8-8.1-.6-11.3,0v30l-16,1-1,29v-28.6l2-1.4h3c2.6,0,5.4.1,8,0s1.3,0,2,0v-31h1c4.4.2,8.8.3,13-1l1-14,1-1,24,1Z"/>
  <path class="st7" d="M328,182h-2v-5c-.1-4,0-8,0-12s0-2,0-3v-15l1.5.9.5,34.1Z"/>
  <path class="st4" d="M326,149v5l-1-4h-26c-.4,4.7.5,9.9,0,14.5s.5,2.4-1,2.5v-1c-.2-5.4-1.1-10.2-1-16,9.2-2.2,19.5-.4,29-1Z"/>
  <rect class="st8" x="393" y="216" width="1" height="60"/>
  <path class="st5" d="M376,167h2v16l12.4-1c1.2.2.4,1.5.6,2h-15v-17Z"/>
  <path class="st6" d="M202,228v1c-.4,1.9-.6.5-1,0v-45c1.8-2.2.9,0,1,1.5.6,14.1-.5,28.4,0,42.5Z"/>
  <path class="st16" d="M409,354c-1.7-1-1-3.8-1-5.5-.1-13,1-27.8,0-40.5h1v46Z"/>
  <path class="st11" d="M201,229c-1.2-1.5-.9-1.7-1.1-3.4-.8-11.1-.4-25.8,0-37.1s-.5-3.5,1-4.4v45h.1Z"/>
  <path class="st27" d="M389,200c-4.3,1.2-7.5,1.2-12,1l-1,9c0-2.2.8-9.2-1-10h-1c3.7-1.7,11.1-1.7,15,0Z"/>
  <path class="st6" d="M328,182h31v1h-32c-.3-.4-.9-.7-1-1h2Z"/>
  <path class="st10" d="M374,200h1v9.5l1,.5v2l-1,.5,1,.5v2h-2v-14l-14-1c4.4.4,9.7-.6,14,0Z"/>
  <path class="st6" d="M282,148h-33c1-1.7,3.8-1,5.5-1h22c7.3,0,4.4-.6,5.5,1Z"/>
  <path class="st8" d="M375,167c-5-.1-10,0-15,0v16h-1v-17c5,.6,11.3-1.3,16,1Z"/>
  <path class="st7" d="M378,291c4-.6,9.2.4,13.3,0,.7.2,1.6,2.4,1.7,3h-1c-2.6-1.8-6.8-1-10-1s-1.3,0-2,0h-4c-.9-.5,0-.9,0-1,.8,0,1.7-.9,2-1Z"/>
  <path class="st6" d="M393,294c.4,2.9-1,11.2.9,12.6l14.1-.6v2c-5.3-.4-10.7.3-16,0v-14h1Z"/>
  <path class="st6" d="M326,147v1c-9.5.6-19.8-1.2-29,1v-2h29Z"/>
  <path class="st6" d="M390,277c-2.3,2.3-9.6.4-13,1l1,13c-.3,0-1.2,1.1-2,1v-15h14Z"/>
  <path class="st27" d="M387,213c-1.4,2.3-6.7.4-9,1,1.3-2.3,6.7-.4,9-1Z"/>
  <rect class="st0" x="193" y="352" width="3" height="2"/>
  <path class="st1" d="M298,166v1l-2-1c.6-.1,1.4,0,2,0Z"/>
  <path class="st7" d="M442,230v1l-2-1h2Z"/>
  <path class="st29" d="M376,213l-1-.5,1-.5v1Z"/>
  <path class="st1" d="M326,148v1c-9.5.6-19.8-1.2-29,1v-1c9.2-2.2,19.5-.4,29-1Z"/>
  <path class="st25" d="M290,461c.6,3-1.5,1.9-3.5,2-6.5.3-13.1-.2-19.6,0v12h75c.2-2.8-.3-5.8,0-8.6s1-2.3,1.1-2.4c-.4,3.8.5,8.3,0,12h-2c-14.8.8-31,0-46,0s-2.7,0-4,0c-7.5,0-18,.9-25,0s-.7,0-1,0c.3-5-.9-10.5,2-15,4.1,1.1,17.6,0,23,0Z"/>
  <path class="st25" d="M221,446c1,.1,2,0,3,0,2.2.2,4.7,0,7,0h3c9.6.2,19.4,0,29,0h2v14h-46c0-3.5-.1-7,0-10.5s-1-4,2-3.5ZM264,447h-44v12h44v-12Z"/>
  <path class="st22" d="M266,460h-1v-2c.8.3.8,1.8,1,2Z"/>
  <path class="st22" d="M263,446c-9.6,0-19.4.2-29,0,7.2-1.8,16-1.1,23.5-1,1.7,0,4.4-.6,5.5,1Z"/>
  <path class="st8" d="M231,446c-2.3,0-4.8.2-7,0,1.3-1.7,5.7-1.7,7,0Z"/>
  <path class="st27" d="M135,216v1c.1,4.3,0,8.7,0,13-6.9,1.3-10.5-2-16-5v-9h16Z"/>
  <path class="st28" d="M137,218v41c-1,.3-1,1.2-1,2-.6,9.7-.2,20.5,2,30,0,.6.1,1.8,0,2s-1.4-.3-1.8.2c-.8.9-.6,22-.2,24.8-1.7-1-1-3.8-1-5.5-.2-14.8,0-29.7,0-44.5v-38c0-12.6.1-8.7,0-13h1l1,1Z"/>
  <path class="st30" d="M118,170v40c0,13.3,0,2,0,3v1h-15l13-1c1.5-1.5-.8-35.4,0-41.5s.3-2.4,2-1.5Z"/>
  <path class="st7" d="M119,215l16-1v2h-16v9c-.3,16.3.3,32.7,0,49s0,3.3,0,5l-1-1v-63h1Z"/>
  <path class="st3" d="M118,210v-40,40Z"/>
  <path class="st27" d="M119,215h-1v-2l1,2Z"/>
  <path class="st14" d="M143,107c1.2,0,3.8,2,6,1v28l-15-1v-28c2.9,0,6.2-.3,9,0Z"/>
  <path class="st20" d="M171,182l.6-28h12.4c-.8,8.8,1.5,19.8-1,28h-8v2h-3v-1.5c-.1-.4-.8-.3-1-.5Z"/>
  <rect class="st20" x="155" y="186" width="13" height="27"/>
  <path class="st13" d="M183,182c-.2.5.1,1.4,0,2-2.6.1-5.4,0-8,0v-2h8Z"/>
  <rect class="st20" x="201" y="124" width="23" height="12"/>
  <path class="st23" d="M200,138l1-1-1,1Z"/>
  <rect class="st20" x="187" y="139" width="11" height="12"/>
  <path class="st30" d="M196,90h-26s-1.8-.8-.5-1c8.6.6,18.2-1.3,26.5,1Z"/>
  <rect class="st16" x="138" y="216" width="13" height="43"/>
  <path class="st23" d="M138,261c-.6,9.7.9,20.4,0,30-2.2-9.5-2.6-20.3-2-30h2Z"/>
  <path class="st0" d="M137,261h-1c0-.8,0-1.7,1-2v2Z"/>
  <path class="st24" d="M451,321h-9v-2l9,2Z"/>
  <path class="st28" d="M63,214v2l-7-1c1.4-1.7,4.8-1,7-1Z"/>
  <path class="st11" d="M66,184v2h-11v-2h11Z"/>
  <path class="st11" d="M89,184c.6,3-1.5,1.9-3.5,2-4.6.2-9.5.2-14.1,0s-4,1-3.5-2h21.1Z"/>
  <path class="st12" d="M83,230h-21c6.1-1.7,14.9-1.7,21,0Z"/>
  <path class="st17" d="M62,230h9c-2.2,1.5-7.8,1.4-10.6,1.1s-3.2-1-3.4-1.1h5Z"/>
  <polygon class="st17" points="52 230 51.4 232 48 232 48 230 52 230"/>
  <path class="st9" d="M425,414h-14v-12c3.4.3,7.3-.4,10.5,0,6.8.8,1.5,7.3,3.5,12Z"/>
  <path class="st9" d="M408,417l-1.2,10.8c-4.2,1-8.5,1.5-12.8,1.2v-12h14Z"/>
  <path class="st8" d="M426,400v1c-1.1,0-2.5.3-3-1h3Z"/>
  <path class="st22" d="M295,476c-.3,1.5-3.6,1.6-4,0h4Z"/>
  <path class="st9" d="M316,461v2h3.4l.6-2h6l1.5,1,.5-1h3c1,0,1.1.9,2.4,1,3.1.3,7.3-1.1,9.6,1v1c0,.3-.9.9-1.1,2.4-.3,2.8.3,5.8,0,8.6h-75v-12c6.5-.2,13,.3,19.5,0s4,1,3.5-2c8.7,0,17.4-.1,26,0h.1Z"/>
  <path class="st9" d="M376,445c.5-3.8,1.7-7.7,1-12,3.5,0,7-.1,10.6,0s4-1,3.5,2c-.2,2.8.5,6.4,0,9s-1.4,1-1,2c-4.5.4-9.4-.3-14,0v-1h-.1Z"/>
  <path class="st25" d="M345,446h30v4c-.2,1.9.4,9.7,0,10-10.7.6-21.3,1-32,1v2c-2.3-2-6.5-.7-9.6-1s-2.3-1-2.4-1h12v-11h2v9h29v-12h-31v-1h2Z"/>
  <path class="st27" d="M376,446c-.2,1.9-.9,3.3-1,4v-5h1v1Z"/>
  <path class="st27" d="M392,446h-2c-.4-1,1-1.9,1-2l1,2Z"/>
  <path class="st12" d="M135,230v38c-7.2,1.7-7.9,11.6-16,6,.3-16.3-.3-32.7,0-49,5.5,3,9.1,6.3,16,5Z"/>
  <path class="st4" d="M392,294v14c5.3.3,10.7-.4,16,0,1,12.7-.2,27.5,0,40.5,0,1.7-.6,4.4,1,5.5l-1.4,1h-15.6v-2h15v-43h-13v28.5c-4.4,4.3-14.3-1.6-18,3.5v-4h1c4.8-.2,10.5-.6,15,1-.5-8.5.7-17.6,0-26s-.3-4.7-1.7-5h-14.3v-1h14v-12c-.9-.9-8.8,2.1-8-2,3.2,0,7.4-.8,10,1Z"/>
  <path class="st17" d="M361,353v2c0,.7-1,1.1-1,2.4-.3,4.2.3,8.4,0,12.6-21-.1-42,.1-63,0v-1c14.2-.5,28.5.6,42.6,0s3.2-1.1,3.4-1.1c4.8-.2,10.8,1,15-1-.1-1.6.2-3.4,0-5,.3-2.1-.5-5.2,0-7s1.6-1.4,2-2h1Z"/>
  <path class="st4" d="M363,355h11l-13,1c-1,4.8,2.7,10.2-1,14,.2-4.2-.3-8.4,0-12.6s1-2.3,1-2.4h2Z"/>
  <path class="st2" d="M376,338v15h-1c-2-3.9-.6-8.7-1-13s-.3-1-1-1c.2,0,.8-.9,3-1Z"/>
  <path class="st4" d="M376,344l2,.6v10.4h-2v-11Z"/>
  <path class="st17" d="M375,353h1v2h-7v-2h6Z"/>
  <path class="st0" d="M296,370c-.1.6.2,1.5,0,2-.9,3.1,0,2.1,0,3v3l-1,8h-27l-1-14v-2c6.7,1.3,21.3,0,29,0Z"/>
  <path class="st17" d="M267,372l1,14h14v13c-4.7-1.2-8.7-1.4-13.4,0l-1.2-.9c-.8-8.6-.5-17.4-.5-26h.1Z"/>
  <path class="st2" d="M266,369c.2.1.5.9,1,1v2c0,8.6-.4,17.4.5,26l1.2.9c4.7-1.3,8.7-1.1,13.4,0v1l-16,1c-.3-.7-.7-1.3-1-2v-29h-44c-.5-.2-1.7.2-2-1h47-.1Z"/>
  <polygon class="st9" points="343 447 374 447 374 459 345 459 345 450 343 450 343 447"/>
  <path class="st25" d="M320,461l-.6,2h-3.4v-2h4Z"/>
  <path class="st25" d="M328,461l-.5,1-1.5-1h2Z"/>
  <path class="st24" d="M248,385c.3,0,.7.8,1,1-14.5-1-30.8,1.4-45,0,1-1.7,3.8-1,5.5-1,11.1-.1,28.2-1.3,38.5,0Z"/>
  <path class="st24" d="M202,384c-1.4-13.9,1-29.9,0-44v44Z"/>
  <path class="st22" d="M375,445v1h-5c.9-1.6,3.4-.9,5-1Z"/>
  <path class="st31" d="M236,223l1.6,4.1c4.6-1.4,12.1,1.4,15.8.9s4.6-3.1,7.1-3,2.8,2.8,4.9,2.9,7.1-3.3,10.1-3l5.5,4.1v46.5l1,2.1c1.1.8,2.9.2,4,.4,8.4,1.9,28.6,1.9,37,0s2.8.4,4-.5c1.3-.9.7-2.6,1-3.5,1.1-3.9,1.3-6.8,1-11l13-1v-2h2v-16c1.2-.3,3.8-2.1,5.7-2.8s3.8,0,5.5-.4c2.9-.9,5.3-5.8,4.7-8.8l-5-2h5l14,1v27c1.8.2,1-2.3,1-3.5.1-3.4-.2-6.7,0-10.1s1-2.3,1-2.4v18h-16c-1.4.1-.9,1.5-1,2.4-.8,6.6,0,17,0,24.1s-.6,4.4,1,5.5v15l13.6,1.1,2.4-3.1v3c0,5.3-.4,8.9-1,14s-.9.9-1.1,2.4c-.3,2.1.5,12.2,0,12.6h-15c-.4.3.9,1.5,1,2,.5,4.4-.4,9.5,0,14-.4.6-1.9,1.6-2,2h-15v7l-.8.7-.2,4.3c-13.2.8-27.5-1-40.6,0-2,.1-2.2.7-3.4,1.1s-1.4-.1-2,0c-.3.8,1,.8,1,1v1h-1c-7.7,0-22.3,1.3-29,0s-.8-.9-1-1c-.3-.2-.6-.8-1-1-.7-.4-.7-.9-2.4-1.1-12.9-1.4-28.4,1.2-41.6,0l-1-8v-2l1-1h2c.6,0,1.1,1.5,2,0h10v-15l14-1h1l.9-.6c.3-.8,0-1.6.1-2.4,1.7-1,1-3.8,1-5.5.3-24.3,3.6-77.6-1-98.5s.8-4.1-1.6-4.9h-14.4c1-1.9.9-3.3,1-5.1h.2ZM283,293h-1c-.3,0-.2-1.3-1-1v7c-1.7,1-1,3.8-1,5.5-.1,9.6-.8,21.8,0,31.1s-.3,2.6,1.1,3.4l1,1c3.5,1.9,17.7,1,23,1-1,2.7-2,12.2,0,13.6l11.1.4v-14c3.2-.1,5.9-.8,9-1s.7,1.1,1.4,1c3-.8,1-12.9,1.6-16,3.6,0,13.6,2.1,15.5-1s1.2-15.9-1-18h-14.5v-14c-13.3-1.5-28-1.5-41.5-1s-4-1-3.5,2h-.2Z"/>
  <path class="st8" d="M296,375c0-.9-.9.1,0-3v3Z"/>
  <path class="st12" d="M297,186c0,3.3-.2,6.7,0,10s-.2,1.6,0,2.4l.9.6v2c.1,3.4.8,6.5,1,9s.2,2.9,0,4-1.4,1.7-1,2h35v2c4,.5,8.9-.5,10,4v2h-3v6.4c.2,1.1,2.1.5,3,.6s2.7,0,4,0l.5,4c2.8.5,3.8-1.4,3.5-4,.7,0,2.3-.9,4-1l5,2c.6,3-1.8,7.9-4.7,8.8s-3.8,0-5.5.4-4.5,2.5-5.7,2.8-.7,0-1,0l-2.5-2-.5,2h-3c-4.3-5.7,3.3-18.5-7.6-17.1s-1.2,2-1.4,2.1-2.8-1-4.4-1.1c-12.3-.2-24.8-.1-37.1,0s-4.4-.6-5.5,1l-5.5-4.1c-2.9-.3-7.5,3.2-10.1,3s-2.8-2.8-4.9-2.9-5,2.7-7.1,3c-3.8.5-11.2-2.3-15.8-.9l-1.6-4.1c.1-2.3,0-4.7,0-7h-2v-2c5.4.6,9.4,1,15.1-.4l.9-12.6h-3v-2h19c.6-2.6-1-5.2-1-7.6s1.1-4.1,1-5.4h31Z"/>
  <path class="st10" d="M234,230h16v4c-1.7,4-1.7,11.8,0,16v31c0,5.3,0,.7,0,1v20c0,6.7,0,2.9,0,4v16c-2.3,4.5-.4,10.9-1,16-3.3,2.7-8.9-.7-12,2h-3c0-.3-.8-.9-.7-1.5l.7-.5h14l-1-107-13-1Z"/>
  <path class="st4" d="M234,245c.7.2,2.1-.6,2,.6v76c.4,2.2-1.8,1.2-2,1.4v-78Z"/>
  <polygon class="st30" points="247 231 248 338 234 338 247 337 247 231"/>
  <path class="st28" d="M237,340c3.7,0,8.5.4,12,0l-14,1v15h-14l-1,1v2c-.3,2.9.2,6,0,9h45c.4.2.7.8,1,1h-47v-14h15v-15h3Z"/>
  <path class="st3" d="M247,199v2c-9-.3-18,.2-27,0v12c.4.4,9.6-.3,11.6,0s2.3,1,2.4,1.1h-16l1.1-14.9c9.3-.2,18.6,0,27.9-.1h0Z"/>
  <path class="st4" d="M221,370h44v29c-2.8-7.3,0-19.8-1-28-1.5-1.5-36.4,2.1-43-1Z"/>
  <path class="st7" d="M268,184c9.6-.4,19.4.3,29,0v2h-31v-1c0-.6.4-.9,1-1s.7,0,1,0Z"/>
  <path class="st27" d="M234,216h2c0,2.3.1,4.7,0,7s0,3.2-1,5h14.4c2.4.9,1.3,3.4,1.6,5v1h-1v-4h-16c-.2-4.6.2-9.4,0-14Z"/>
  <path class="st30" d="M204,378l1,5c13.2.8,27.5-1.1,40.6,0s2.3-.2,2.4,1h-44v-6Z"/>
  <path class="st4" d="M219,234c0-.2,1.1-4.4,2-4v14c4-.6,7.4.3,11,1l-13,1c.3-3.9-.4-8.2,0-12Z"/>
  <path class="st9" d="M360,218c.1,4,0,8,0,12h-5c-1.7,0-3.3,1-4,1h-4c-1.3,0-2.8.1-4,0v-13h17Z"/>
  <path class="st27" d="M359,215c0,.6,1,1.9,1,3h-17v-4h1c4.7,0,10.9-.9,15,1Z"/>
  <path class="st28" d="M375,230c.1,1.9-.8,4.9,1,6v6c0,2-1,1.1-1,2.4-.2,3.3.2,6.7,0,10.1-.2,3.4.8,3.7-1,3.5v-27l-14-1c5-.1,10,0,15,0Z"/>
  <path class="st10" d="M360,184c0,4.6-.6,10.7,0,15l-1-14c-9.5-.7-20.3,1-29.6,0s-1.4,0-2.4-1.1h33Z"/>
  <path class="st10" d="M376,291v1c0,.3-.9.5,0,1v1h-2c-4.5,0-9.9.7-14-1v-2h16Z"/>
  <path class="st10" d="M344,199h-46v-1l46,1Z"/>
  <path class="st21" d="M344,199v1h-46v-1h46Z"/>
  <path class="st1" d="M359,183h1v1h-33c-.2-.2.2-.8,0-1h32Z"/>
  <path class="st28" d="M360,291v1c-1.7-1-1-3.8-1-5.5,0-7.1-.8-17.4,0-24.1s-.3-2.3,1-2.4v31Z"/>
  <path class="st10" d="M344,200l2.1,12.9h13.9c.4,1.1-1,2-1,2.1-4.1-1.9-10.3-1-15-1v-14Z"/>
  <path class="st1" d="M297,183c0-4.1-.8-9.7,1-13,.1,4,.8,9.7-1,13Z"/>
  <path class="st4" d="M326,177c-1.7-2.9-1.7-9.3,0-12,0,4-.1,8,0,12Z"/>
  <path class="st4" d="M326,162c-1.6-.9-1.6-5,0-6v6Z"/>
  <path class="st31" d="M376,236c-1.8-1.1-.9-4.1-1-6l.9.6c.3,1.8,0,3.6,0,5.4h.1Z"/>
  <path class="st1" d="M298,198v1l-.9-.6c-.2-.8,0-1.6,0-2.4,1,.3.9,1.2,1,2h-.1Z"/>
  <path class="st1" d="M297,186v-1,1Z"/>
  <path class="st4" d="M326,181l-1-.5,1-.5v1Z"/>
  <polygon class="st25" points="391 186 391 198 377 198 376 186 391 186"/>
  <path class="st25" d="M362,184c1.8-.2.9,2.3,1,3.5.1,3.2,0,6.4,0,9.5l12,.5-13,.5v-14Z"/>
  <path class="st15" d="M268,184h-1v-15l28.1.4.8,1.2-.8,11.9-27.1,1.4h0Z"/>
  <path class="st29" d="M376,210l-1-.5v-9.5c1.7.8,1,7.8,1,10Z"/>
  <path class="st26" d="M382,293c-.8,4.1,7.1,1.1,8,2v12h-14v-2c0-3.7.7-7.7-1-11h1c1.5,0,2.9.3,4-1h2Z"/>
  <path class="st4" d="M380,293c-1.1,1.3-2.5.9-4,1v-1h4Z"/>
  <rect class="st9" x="220" y="447" width="44" height="12"/>
  <path class="st8" d="M376,308h14.3c1.3.3,1.6,3.8,1.7,5-2,5.4-.8,12.2-1,18l-1-20h-13v25h14l-.6.9-13.4,1.1h-1c-.1-5.3,0-10.7-1-16,.6-5.1,1-8.7,1-14Z"/>
  <path class="st6" d="M392,313c.7,8.4-.5,17.5,0,26-4.5-1.6-10.2-1.2-15-1l13.4-1.1.6-.9v-5c.2-5.8-1-12.6,1-18Z"/>
  <path class="st8" d="M374,340c.4,4.3-1,9.1,1,13h-6v2h-2c-.3-1.5-3.6-1.6-4,0h-2v-2c.3-4.3-.2-8.7,0-13h13Z"/>
  <path class="st0" d="M358,367h-13v-10.4l12-.6c-1,2.3.9,4.8,1,6s-.1,3.4,0,5Z"/>
  <path class="st8" d="M358,355c-.5,1.8.3,4.9,0,7-.1-1.2-2-3.8-1-6l-12,.6v10.4h13c-4.2,2-10.2.8-15,1v-13h15Z"/>
  <path class="st28" d="M343,368c-.2,0-1.6,1-3.4,1.1-14.2.5-28.5-.5-42.6,0,0-.1-1.3-.2-1-1,.6-.1,1.5.2,2,0l44-1,.2-4.3.8-.7v6h0Z"/>
  <path class="st23" d="M373,339c.7,0,.9.3,1,1h-13c-.2,4.3.3,8.7,0,13h-1c-.4-4.5.5-9.6,0-14,4.3-.2,8.7.3,13,0Z"/>
  <path class="st17" d="M367,355h-4c.4-1.6,3.7-1.5,4,0Z"/>
  <path class="st28" d="M376,338c-2.2,0-2.8,1-3,1-4.3.3-8.7-.2-13,0,0-.5-1.4-1.7-1-2h15c.4-.5-.3-10.5,0-12.6s1-2.3,1.1-2.4c1.1,5.3.9,10.7,1,16h-.1Z"/>
  <path class="st30" d="M287,293c.5,2.3-1.8,1.4-2.1,3.4-1.5,12.4,1.3,27.8,0,40.6h41c0,1.1.3,2.5-1,3-3.1.2-5.8.9-9,1s-7.4,0-11,0c-5.3,0-19.5.9-23-1v-47h1c1.3.1,2.7,0,4,0h.1Z"/>
  <path class="st28" d="M283,293c-.6-3,1.5-1.9,3.5-2,13.5-.5,28.2-.5,41.5,1v14h14.5c2.2,2.1,2.1,16.1,1,18-1.9,3.1-11.9.9-15.5,1-.6,3.1,1.4,15.2-1.6,16-.7.1-1.3-1-1.4-1,1.3-.5,1-1.9,1-3,.1-4.3-.1-8.7,0-13h16v-5c.1-3.6-.1-7.4,0-11h-16v-15c-1-.4-1.9,1-2,1-1.3,0-3.2-.9-5-1-6.6-.3-13.4,0-20,0h-12c-4,0-2.7.1-4,0Z"/>
  <path class="st15" d="M374,294v13h-14v-14c4.1,1.7,9.5,1.1,14,1Z"/>
  <path class="st28" d="M328,229l.4,14.1c1.1,1.6,6.4.9,8.6.9h3c1,0,2.1.1,3,0s.7,0,1,0v16h-2c.4-4.9-.3-10.1,0-15h-14c-4.7,0-1.3,0-2,0v-15h-44v47h44v-16h16v1h-14v12c-.3,1,.4,2.6-1,3.5-1.2.9-2.9.2-4,.5h-37c-1.1-.2-2.9.4-4-.4l-1-2.1v-46.5c1-1.7,3.8-1,5.5-1,12.3-.2,24.8-.3,37.1,0s4.3,1.2,4.4,1.1h0Z"/>
  <path class="st9" d="M316,341v14l-11.1-.4c-2-1.4-.9-10.9,0-13.6,3.6,0,7.4.1,11,0h.1Z"/>
  <path class="st28" d="M251,337c0,.8.2,1.6-.1,2.4l-.9.6v-90c0-4,.3-10.8,0-16h1c-2,33.4,2.7,69.9,0,103Z"/>
  <path class="st22" d="M251,337c2.7-33.1-2-69.6,0-103v-1c4.6,20.9,1.3,74.2,1,98.5s.6,4.4-1,5.5Z"/>
  <path class="st22" d="M220,359l1,8c13.2,1.1,28.8-1.5,41.6,0,1.7.2,1.6.7,2.4,1.1h-45c.2-3-.3-6.1,0-9h0Z"/>
  <path class="st28" d="M282,293v47l-1-1c.2-13.3-.2-26.7,0-40s0-4.7,0-7c.8-.3.9,1,1,1Z"/>
  <path class="st22" d="M342,367l-44,1c1.1-.4,1.4-.9,3.4-1.1,13.1-1,27.4.9,40.6,0h0Z"/>
  <path class="st22" d="M281,339c-1.3-.8-1-2.1-1.1-3.4-.8-9.3,0-21.5,0-31.1s-.6-4.4,1-5.5c-.2,13.3.2,26.7,0,40h.1Z"/>
  <path class="st25" d="M376,305l-2.4,3.1-13.6-1.1h14v-13h1c1.7,3.3.9,7.3,1,11Z"/>
  <path class="st22" d="M323,278c-8.4,1.9-28.6,1.9-37,0h37Z"/>
  <path class="st22" d="M342,262l-13,1c.3,4.2.2,7.1-1,11v-12h14Z"/>
  <path class="st11" d="M342,260v1h-16v-1c5.3,0,10.7.3,16,0Z"/>
  <path class="st11" d="M326,245h2c-3.5,2.3-1.9,10.5-2,15h-28v-15h28ZM324,247h-25v12c5.8-1,11.7.5,17.5,0,9.6-.8,7.5-3.5,7.5-12Z"/>
  <path class="st29" d="M250,340h-1c-3.5.4-8.3,0-12,0,3.1-2.7,8.7.7,12-2h1v2Z"/>
  <path class="st22" d="M225,356c-.9,1.5-1.9,0-2,0h2Z"/>
  <path class="st22" d="M220,357l1-1-1,1Z"/>
  <path class="st9" d="M298,201h45c-.5,3.9,1.1,8.7-1,12h-40.6l-2.4-3c-.2-2.5-.9-5.6-1-9Z"/>
  <path class="st9" d="M247,201h3l-.9,12.6c-5.6,1.4-9.6,1.1-15.1.4s-1-.9-2.4-1.1c-2-.2-11.2.5-11.6,0v-12c9,.2,18-.3,27,0h0Z"/>
  <path class="st31" d="M337,244c-2.2,0-7.4.7-8.6-.9l-.4-14.1c.2-.1-.8-1.8,1.4-2.1,10.9-1.4,3.2,11.4,7.6,17.1Z"/>
  <path class="st7" d="M342,214h1v2h-45c-.4-.3.9-1.4,1-2h43Z"/>
  <path class="st3" d="M344,200v14h-2v-1c2.2-3.3.5-8.1,1-12h-45v-1h46Z"/>
  <path class="st25" d="M299,210l2.4,3.1h40.6v.9h-43c.2-1.1,0-2.8,0-4Z"/>
  <path class="st31" d="M343,216v6c-1.1-4.5-6-3.6-10-4v-2h10Z"/>
  <path class="st31" d="M343,224v7c-.9,0-2.9.6-3-.6v-6.4h3Z"/>
  <path class="st31" d="M351,231c.3,2.6-.7,4.5-3.5,4l-.5-4h4Z"/>
  <path class="st31" d="M343,244c-.9.1-2,0-3,0l.5-2,2.5,2Z"/>
  <path class="st1" d="M250,250c-1.7-4.2-1.7-12,0-16,.3,5.2,0,10.8,0,16Z"/>
  <path class="st1" d="M250,338h-1c.6-5.1-1.3-11.5,1-16v16Z"/>
  <path class="st1" d="M250,314v-4,4Z"/>
  <path class="st1" d="M250,306v-4,4Z"/>
  <path class="st1" d="M250,265v-3,3Z"/>
  <path class="st1" d="M250,282v-1,1Z"/>
  <path class="st0" d="M391,336h-14v-25h13l1,20v5Z"/>
  <path class="st26" d="M299,293c-.6,3,1.5,1.9,3.5,2,4.3.2,8.8.1,13.1,0s4,1,3.5-2c1.8,0,3.7,1,5,1l2,3v3c-1.5.1-1.5,2.9,0,3v4l-3,1c-5.6,0-11.4-.2-17,0s-4.4-.3-6,0l-2,1v1l-2-1.5c.1,3.3-.1,6.7,0,10s-1,4,2,3.5v4h7.4l.6-2h4l.6,2h7.4v-2h2l3.5,1,1.3,1.4.2,10.5h-40c1.2-12.8-1.5-28.1,0-40.6s2.6-1.2,2.1-3.4h12-.2Z"/>
  <path class="st4" d="M326,308h16c-.1,3.7.1,7.4,0,11-4.2.7-1-8-2-9-3.6.4-8-.5-11.5,0s-1.6-.6-1.5,1.5c.2,3.3,1.8,6.8,1,10.5h14v2h-16c0,4.3.1,8.7,0,13h-1l-.2-10.5-1.3-1.4-3.5-1c1.6,0,3.6.4,5.1-.5,1-.6.8-1.6.9-2.5.3-1.7,0-4.1,0-6s0-.7,0-1v-6h0Z"/>
  <path class="st14" d="M342,322h-14c.8-3.7-.8-7.2-1-10.5s0-1.3,1.5-1.5c3.5-.5,7.9.4,11.5,0,1,1-2.2,9.7,2,9v3Z"/>
  <path class="st30" d="M319,293c.6,3-1.5,1.9-3.5,2-4.3.1-8.8.2-13.1,0s-4,1-3.5-2c6.6,0,13.4-.3,20,0h.1Z"/>
  <path class="st30" d="M324,294c.1,0,1-1.4,2-1v4l-2-3Z"/>
  <path class="st30" d="M326,303c-1.5-.1-1.5-2.9,0-3v3Z"/>
  <path class="st30" d="M326,307v1h-3l3-1Z"/>
  <path class="st29" d="M328,245h14c-.3,5,.4,10.1,0,15-5.3.3-10.7,0-16,0,0-4.5-1.5-12.7,2-15Z"/>
  <path class="st29" d="M326,230v14c-9.1.6-19.2-1.3-28,1v15h28v17h-44v-47h44ZM284,231v44h11l-10-1v-42c2.5,0,5,.1,7.5,0s3.7.8,3.5-1h-12Z"/>
  <path class="st16" d="M326,230h-44,44Z"/>
  <path class="st4" d="M326,244v1h-28c8.8-2.3,18.9-.4,28-1Z"/>
  <path class="st8" d="M306,308v2h-7v12l27-1c-.2.9,0,1.9-.9,2.5-1.4.9-3.5.4-5.1.5s-1.3,0-2,0h-20v-2c-.2-4,.1-8,0-12v-1c.9.3,1.8-1,2-1,1.6-.3,4.2,0,6,0Z"/>
  <path class="st23" d="M323,308h3v6h-1c-.8-1.4-1-4-1.6-4.1-5.8.2-11.6,0-17.4,0v-2c5.6-.2,11.4,0,17,0h0Z"/>
  <path class="st4" d="M298,310c.1,4-.2,8,0,12-3,.6-1.9-1.5-2-3.5-.1-3.3,0-6.7,0-10l2,1.5Z"/>
  <path class="st4" d="M318,324v2h-7.4l-.6-2h8Z"/>
  <path class="st4" d="M306,324l-.6,2h-7.4v-2h8Z"/>
  <path class="st23" d="M300,308c-.2,0-1.1,1.3-2,1l2-1Z"/>
  <path class="st16" d="M306,310c5.8-.2,11.6.2,17.4,0,.5.1.8,2.6,1.6,4.1s.7.7,1,1c0,1.9.3,4.3,0,6l-27,1v-12h7Z"/>
  <path class="st8" d="M326,315c-.3-.3-.8-.6-1-1h1v1Z"/>
  <path class="st30" d="M284,231h12c.2,1.8-2.3.9-3.5,1-2.5.1-5,0-7.5,0v42l10,1h-11v-44Z"/>
  <path class="st16" d="M324,247c0,8.5,2.1,11.2-7.5,12s-11.7-1-17.5,0v-12h25Z"/>
  <rect class="st18" x="408.4" y="60.5" width="18.7" height="76.9"/>
  <rect class="st19" x="393" y="91" width="48" height="15.9"/>
  <rect class="st18" x="135.6" y="386.1" width="15.6" height="73"/>
  <rect class="st18" x="119" y="415" width="49" height="15.9"/>
</svg>