<?xml version="1.0" encoding="UTF-8"?>
<svg id="Layer_1" xmlns="http://www.w3.org/2000/svg" version="1.1" viewBox="0 0 600 600">
  <!-- Generator: Adobe Illustrator 29.7.1, SVG Export Plug-In . SVG Version: 2.1.1 Build 8)  -->
  <defs>
    <style>
      .st0 {
        fill: #1c1941;
      }

      .st1 {
        fill: #02adee;
      }

      .st2 {
        fill: #3972c1;
      }
    </style>
  </defs>
  <path class="st1" d="M102,187.5c65.2-39.1,131.7-76.5,197.6-114.5l2.4.6,161.1,93c-19.4,2.1-36.6,17.8-37.1,38,0,3.8,2.4,9.5,0,12L107,400.5l-5,1.5v-93.5c58-34.9,117.3-68.2,176-102.1,3.2-.8,7.1,3.6,10.6,5.4,35.4,18.2,71.5-21.7,50.2-55.2-19.2-30.2-68-17.7-70.7,18s1.9,11.4-.1,13.9l-166,95.5v-96.5Z"/>
  <path class="st2" d="M497,414.5l-196.6,113.5-4.5-1.4c-23.3-14.6-48.2-26.9-71.6-41.4s-7.7-3.9-7.3-5.7l164.7-95.3c4.4,1.4,7.3,5,11.6,7,36.5,16.7,70.7-26,47.5-57.5-20.9-28.6-66.6-16.1-69.7,18.9s1.7,12-.6,14.4l-174.3,100.8-83.2-47.8,322-185.6c4.6-1.4,8.3,3.8,12.3,5.8,13.6,6.5,30.1,5,41.7-4.7l8-8.5v187.5Z"/>
  <polygon class="st0" points="536 164 536 436 516 425.3 515.5 176 302.7 52.8 300 50.5 300 29 536 164"/>
  <polygon class="st0" points="64 165 82.4 175.1 84 177.5 84.2 425.8 300 550.5 300 572 297.1 571.4 64 436.5 64 165"/>
</svg>