<svg xmlns="http://www.w3.org/2000/svg" width="96" height="96" fill="none"><g fill-rule="evenodd" clip-path="url(#a)" clip-rule="evenodd"><path fill="#CEDBF2" d="M51.23 62v8.615h2.155V62zM8.155 59.846v4.308h2.154v-4.308zm45.23-2.154V62h2.154v-4.308zm-40.922-2.154h-2.154v2.154h2.153zm43.076-2.153v4.307h2.154v-4.307zm-40.923 0h-2.154v2.153h2.154zm2.154-2.154h-2.154v2.154h2.154zm43.077 0h-2.154v2.154h2.154zM62 49.077h-2.154v2.154H62z"/><path fill="#5555E7" d="M42.615 62v10.77h2.154V62zm-30.154-2.154V72.77h2.154V59.846zm32.308-2.154V62h2.154v-4.308zm-30.154-2.154v4.308h2.154v-4.308zm32.308-2.153v4.307h2.154v-4.307zm-28 0h-2.154v2.153h2.154zm32.308-2.154h-2.154v2.154h2.154zm-30.154 0h-2.154v2.154h2.154zm32.308-2.154H51.23v2.154h2.154zm2.153-2.154h-2.153v2.154h2.153zM62 29.693v8.615h2.154v-8.616zm-38.77 0v6.46h2.154v-6.46zm36.616-6.462v6.461H62v-6.461zm-34.461 0v4.307h2.153v-4.307zm32.307-4.308v4.308h2.154v-4.308zm-30.154 0v4.308h2.154v-4.308zm28-4.308v4.308h2.154v-4.308zm-25.846 0v4.308h2.154v-4.308zm25.846-2.154h-2.153v2.154h2.153zm-19.384 0H34v2.154h2.154z"/><path fill="#F2B973" d="M62 74.923V62h-2.154v12.923zm4.308-17.23H62V62h2.154v-2.154h2.154zm2.153-10.77v-17.23h-2.153v17.23zM21.077 44.77V29.692h-2.154V44.77zm45.23-15.077v-6.461h-2.153v6.461zm-43.076 0v-6.461h-2.154v6.461zm2.153-6.461v-4.308H23.23v4.308zm38.77 0v-4.308H62v4.308zm-36.616-4.308v-4.308h-2.154v4.308zm34.462 0v-4.308h-2.154v4.308zm-32.308-6.461h-2.154v2.153h2.154zm30.154 0h-2.154v2.153h2.154zM34 10.308h-4.308v2.154H34zm23.692 0h-2.154v2.154h2.154zm-4.308-2.154H34v2.154h19.384z"/><path fill="#11116C" d="M36.154 74.923v-10.77H34V62h-2.154v-2.154H23.23V62h-2.154v10.77h2.153v2.153h2.154v2.154H34v-2.154z"/><path fill="#E68C4F" d="M68.462 74.923h-2.154v2.154h2.154zm4.307 0h-2.154v2.154h2.154zm2.154-2.154H72.77v2.154h2.154zm-4.308 0h-2.153v2.154h2.153zm6.462-2.154h-2.154v2.154h2.154zm-4.308 0h-2.154v2.154h2.154zm2.154-2.153H72.77v2.153h2.154zm2.154-2.154h-2.154v2.154h2.154zM62 12.462h-2.154v2.153H62zm-2.154-2.154h-2.153v2.154h2.153zM55.54 8.154h-2.154v2.154h2.154zm17.23 60.308v-2.154h2.154v-2.154h2.154v-4.308h-2.154v-2.154H72.77v-2.154h-2.154v-6.461h2.154V29.692h-2.154v-6.461h-2.153v-4.308h-2.154v-4.308H62v4.308h2.154v4.308h2.154v6.461h2.154V55.54h-2.154v4.307h-2.154V62H62v15.077h2.154v-2.154h2.154V72.77h2.154v-2.154h2.153v-2.153z"/><path fill="#D26218" d="M72.77 74.923v2.154h-2.154v-2.154h-2.154v2.154h-2.154v-2.154h-2.154v4.308h10.77v-2.154h2.153v-4.308h-2.154v2.154zm-4.308-2.154h-2.154v2.154h2.154zm4.307 0h-2.154v2.154h2.154zm-2.154-2.154h-2.153v2.154h2.153zm4.308 2.154v-2.154h2.154v2.154h2.154V59.846h-2.154v4.308h-2.154v2.154H72.77v2.154h2.154v-2.154h2.154v2.154h-2.154v2.153H72.77v2.154zm-2.154-4.307h-2.154v2.153h2.154zm4.308-10.77h-2.154v2.154h2.154zm-2.154-2.154H72.77v2.154h2.154zm-2.154 0v-6.461h-2.154v6.462zm2.154-6.461V29.692H72.77v19.385zM72.77 29.692v-6.461h-2.154v6.461zm-2.154-6.461v-4.308h-2.153v4.308zm-2.153-4.308v-4.308h-2.154v4.308zm-2.154-6.461H62v2.153h4.308zM62 10.308h-2.154v2.154H62zm-4.308-2.154H55.54v2.154h2.153z"/><path fill="#3939E8" d="M23.23 79.23h-2.153v2.155h2.154zm19.385-6.46v4.307h2.154v2.154h2.154v2.154h2.154v-4.308h-2.154V62h-2.154v10.77zm-21.538 4.307h-2.154v2.154h2.154zm4.307 0h-2.153v2.154h2.153zm-10.769-17.23v17.23h4.308v-2.154h2.154v-2.154h-2.154V62h2.154v-2.153h-2.154v-2.154h2.154v-2.154h2.154v-2.153h2.153V51.23h2.154v-2.154h-6.461v4.308h-2.154v2.153h-2.154v4.308zm8.616 15.076h-2.154v2.154h2.154zM49.077 62v-4.308h-2.154V62zM23.23 57.692h-2.154v2.154h2.154zm28 0v-4.307h-2.154v4.307zm-21.539-2.154h-2.154v2.154h2.154zm-4.308 0h-2.153v2.154h2.153zm2.154-2.153h-2.154v2.153h2.154zm4.308 0h-2.154v2.153h2.154zm21.539-2.154H51.23v2.154h2.154zm-23.693 0h-2.154v2.154h2.154zm4.308 0h-2.154v2.154H34zm-2.154-2.154h-2.154v2.154h2.154zm23.692 0h-2.153v2.154h2.153zm8.616-2.154v-8.615H62v8.615zM34 23.231v-4.308h2.154v-2.154h2.153v-2.154h2.154v-2.154h-4.307v2.154h-4.308v4.308h-2.154v4.308h-2.154v4.307h-2.154v8.616h-2.153v8.615h4.307v-2.154h2.154V29.692h2.154v-6.461z"/><path fill="#63A9E6" d="M64.154 83.539H62v2.153h2.154zm2.154-2.154h-2.154v2.153h2.154zm-4.308 0h-2.154v2.153H62zm2.154-2.154H62v2.154h2.154zm-51.692-6.462h-2.154v2.154h2.153zm-2.154 0v-8.615H8.154v8.615zM59.846 62v-4.308H62v-2.154h4.308v-8.615h-2.154v2.154H62v2.154h-2.154v2.154h-2.154v4.307h-2.154V62h-2.153v8.615H51.23v6.462h2.154v4.308h2.153v2.153h2.154v-2.153h2.154V79.23H62v-2.154h-2.154v-2.154h-2.154V62zm-47.384-4.308h-2.154v2.154h2.153z"/><path fill="#1C1C9E" d="M59.846 85.692h-4.308v2.154h4.308zm-8.615-4.307v-4.308h-2.154v6.461h2.154v2.154h4.307v-2.154h-2.154v-2.153zM31.846 55.538h-2.154v2.154h2.154v2.154H34V62h2.154v2.154h2.153v10.769h-2.153v2.154H34v2.154H23.23v2.154h-2.153v4.307h15.077v-2.154h4.307v-2.153h2.154v-4.308h-2.154V62h2.154v-4.308h-2.154v-2.154h-2.154v-2.153h-2.153V51.23H34v2.154h-2.154zm-10.77 23.693h-2.153v2.154h2.154zm2.155-2.154h-2.154v2.154h2.154zm-4.308 0h-2.154v2.154h2.154zm2.154-2.154h-2.154v2.154h2.154zm28 2.154V62h-2.154v15.077zM51.23 62v-4.308h-2.154V62zm-30.154-4.308h-2.154v2.154h2.154zm32.307 0v-4.307h-2.153v4.307zm-25.846-2.154h-2.154v2.154h2.154zm-4.307 0h-2.154v2.154h2.154zm2.153-2.153h-2.153v2.153h2.153zm4.308 0h-2.154v2.153h2.154zm-2.154-2.154h-2.154v2.154h2.154zm28 0h-2.154v2.154h2.154zm-23.692 0h-2.154v2.154h2.154zm-2.154-2.154h-2.154v2.154h2.154zm30.154 0v-4.308h-2.154v2.154h-2.154v4.308h2.154v-2.154zm-32.308-4.308h-6.461v2.154h6.461zm2.154-2.154h-2.154v2.154h2.154zm2.154 0V29.692h-2.154v12.923zM34 29.692v-6.461h-2.154v6.461zm2.154-6.461v-4.308H34v4.308zm2.153-6.462h-2.153v2.154h2.153zm2.154-2.154h-2.154v2.154h2.154zm8.616-2.154H40.46v2.154h8.616z"/><path fill="#3979E2" d="M64.154 83.538v4.308h10.769v-2.154h4.308v-2.154h2.154v-2.153h2.153v-4.308h2.154v-4.308h2.154V59.846h-2.154v-4.308h-2.154v-2.153h-2.153V51.23H79.23v-2.154h-4.308v6.461h2.154v2.154h2.154v2.154h2.154V72.77H79.23v4.308h-2.154v2.154h-2.154v2.154h-8.615v2.153zm-2.154 0h-2.154v2.154H62zm-43.077-2.153h-2.154v2.153h2.154zm45.23 0H62v2.153h2.154zm-4.307 0h-2.154v2.153h2.154zM16.77 79.23h-2.154v2.154h2.154zm45.23 0h-2.153v2.154H62zm-47.384-2.154h-2.154v2.154h2.154zm-2.154-2.154h-2.153v2.154h2.153z"/><path fill="#000" d="M55.539 90h19.384v-2.154h-10.77v-2.154h-4.307v2.154H55.54zm23.692-4.308h-4.308v2.154h4.308zm-43.077 0H21.077v2.154h15.077zm19.384 0h-4.307v2.154h4.307zm-34.461 0v-4.307h-2.154v2.153H16.77v2.154zm19.385-2.153h-4.308v2.153h4.307zm40.923 0H79.23v2.153h2.154zm-30.154 0h-2.154v2.153h2.154zm8.615 0H55.54v2.153h4.307zm23.693-2.154h-2.154v2.153h2.153zm-66.77 0h-2.154v2.153h2.154zm38.77 0h-2.154v2.153h2.154zm-6.462 0h-2.154v2.153h2.154zm-6.462 0h-2.154v2.153h2.154zm32.308-2.154h-10.77v2.154h10.77zm-21.538 2.154v-4.308H51.23v4.308zm-8.616-2.154v-2.154h-2.154v4.308h4.308V79.23zm-25.846 0H16.77v2.154h2.154zm-4.308 0h-2.154v2.154h2.154zm71.077 2.154v-4.308H83.54v4.308zM16.77 77.077h-2.154v2.154h2.154zm17.231 0h-8.615v2.154H34zm30.154 0H62v2.154h2.154zm12.923 0h-2.154v2.154h2.154zm-64.615 0h-2.154v2.154h2.153zm38.769 0V62h-2.154v15.077zM62 74.923h-2.154v2.154H62zm17.23 2.154v-4.308h-2.153v4.308zm-68.922 0v-4.308H8.154v4.308zm4.307 0v-4.308h-2.154v4.308zm10.77-2.154H23.23v2.154h2.154zm62.461 2.154v-4.308h-2.154v4.308zm-51.692-2.154H34v2.154h2.154zm6.461 2.154V62h-2.154v15.077zm17.231-2.154V62h-2.154v12.923zM23.231 72.77h-2.154v2.154h2.154zm15.077 2.154v-10.77h-2.154v10.77zM8.154 72.77V59.846H6V72.77zm4.307 0V59.846h-2.153V72.77zm68.924 0V59.846H79.23V72.77zm8.615 0V59.846h-2.154V72.77zm-68.923 0V62h-2.154v10.77zM36.154 62H34v2.154h2.154zm8.615 0v-4.308h-2.154V62zm-21.538-2.154h-2.154V62h2.154zM62 62v-4.308h-2.154V62zm-8.615 0v-4.308H51.23V62zM34 59.846h-2.154V62H34zm-2.154-2.154h-8.615v2.154h8.615zm47.385 0h-2.154v2.154h2.154zm-68.923 2.154V55.54H8.154v4.307zm4.307 0V55.54h-2.154v4.307zm73.231 0V55.54h-2.154v4.307zm-10.77-4.307h-2.153v2.153h2.154zm-30.153 2.153v-4.307H44.77v4.307zm19.385-2.154H62v2.154h4.308zm-10.77 2.154v-4.307h-2.153v4.307zm-12.923-2.154h-2.154v2.154h2.154zm43.077-2.153H83.54v2.154h2.153zm-68.923 0h-2.154v2.154h2.154zm51.693 2.154v-8.616h-2.154v8.615zm-28-2.154h-2.154v2.154h2.154zm34.461 2.154v-6.462H72.77v6.462zm-62.461-2.154h-2.154v2.154h2.153zm36.615-2.154h-2.154v2.154h2.154zm-10.77 0h-2.153v2.154h2.154zm19.385 0h-2.154v2.154h2.154zm25.847 0h-2.154v2.154h2.153zm-23.693-2.154h-2.154v2.154h2.154zm-8.615 0h-2.154v2.154h2.154zm-15.077 0h-4.308v2.154h4.308zm45.23 0h-2.153v2.154h2.154zm-62.46 4.308V51.23h2.153v-2.154h10.77v-2.154h-2.155V44.77h-2.154v2.154h-6.461V44.77h-2.154v4.308h-4.308v2.154h-2.154v2.154h2.154V51.23h2.154v2.154zm34.46-6.462h4.308V44.77h2.154v4.308h4.308v-2.154H62v-17.23h-2.154v12.922h-2.154v2.154h-4.307zm23.693 0v-17.23h-2.154v19.384h4.308v-2.154zm-23.692 0H51.23v2.154h2.154zm12.923 0v-17.23h-2.154v17.23zm-34.462-4.308h-2.154v2.154h2.154zM18.923 44.77V29.692H16.77V44.77zm4.308 0V29.692h-2.154V44.77zM34 42.615V29.692h-2.154v12.923zm2.154-12.923v-6.461H34v6.461zm23.692 0v-6.461h-2.154v6.461zm4.308 0v-6.461H62v6.461zm10.77 0v-6.461h-2.155v6.461zm-49.54 0v-6.461h-2.153v6.461zm-4.307 0v-6.461h-2.154v6.461zm51.692-6.461v-4.308h-2.154v4.308zm-15.077 0v-4.308h-2.154v4.308zm-30.153 0v-4.308h-2.154v4.308zm-4.308 0v-4.308h-2.154v4.308zm15.077 0v-4.308h-2.154v4.308zm23.692 0v-4.308h-2.154v4.308zm8.615-4.308v-4.308h-2.153v4.308zm-10.769 0v-4.308h-2.154v4.308zm-4.307 0v-4.308h-2.154v4.308zm-30.154 0v-4.308H23.23v4.308zm15.077-2.154h-2.154v2.154h2.154zm-10.77 2.154v-4.308h-2.154v4.308zm19.385-4.308h-8.615v2.154h8.615zm0 0h4.308v-2.154h2.154v-2.153H34v2.153h-4.308v2.154H34v-2.154h15.077zm19.385-2.154h-2.154v2.154h2.153zm-10.77 0h-2.154v2.154h2.154zm-30.153 0h-2.154v2.154h2.153zm2.153-2.153h-2.154v2.153h2.154zm36.616 0H62v2.153h4.308zM34 8.154h-4.308v2.154H34zm28 0h-4.308v2.154H62zM57.692 6H34v2.154h23.692z"/></g><defs><clipPath id="a"><path fill="#fff" d="M6 6h84v84H6z"/></clipPath></defs></svg>