<svg xmlns="http://www.w3.org/2000/svg" width="96" height="96" fill="none"><g fill-rule="evenodd" clip-path="url(#a)" clip-rule="evenodd"><path fill="#D26218" d="M22.395 13.105V31.58h2.052V13.105z"/><path fill="#E68C4F" d="M24.447 13.105h59.527V31.58H24.447zM65.5 25.421v2.053h-6.158v2.052h8.21v-2.052h2.053V15.158H65.5v8.21h-2.053v-8.21h-4.105v8.21h2.053v2.053zm-30.79 2.053h-4.105V17.21h4.105v4.105h4.106V17.21h-2.053v-2.053h-8.21v2.053H26.5v10.263h2.052v2.052h8.211v-2.052h2.053v-4.106H34.71zm10.264 2.052V17.211h2.052v12.315h4.105V17.211h2.053v12.315h4.105V17.211h-2.052v-2.053h-4.105v2.053h-2.053v-2.053h-4.105v2.053H42.92v-2.053h-2.053v14.368zm32.842-10.263h-2.053v-4.105h-4.105v14.368h4.105v-8.21h2.053v8.21h4.105v-8.21h-4.105zh2.052V17.21h2.053v-2.052h-2.053v2.053h-2.052z"/><path fill="#F2B973" d="M22.395 13.105h61.579V31.58h2.052V11.053H22.395z"/><path fill="#64AAE8" d="M28.553 39.79h20.526v20.526H28.553zm8.21 16.42v2.053h4.105v-2.052zM34.711 48v-4.105h6.157V48h-2.052v2.053h-2.053v4.105h4.105v-4.105h2.053V48h2.053v-4.105H42.92v-2.053h-8.21v2.053h-2.053V48z"/><path fill="#fff" d="M36.763 74.684H34.71v2.053h2.053zm-4.105 0h-2.053v2.053h2.053zm0-4.105h-2.053v2.053h2.053zm-4.106 0H26.5v2.053h2.052zM26.5 68.526h-2.053v2.053H26.5zm2.052-2.052H26.5v2.052h2.052zm53.369-4.106v-2.052H55.237v2.052zm0 8.21v-2.052H55.237v2.053zm0-4.104V64.42H55.237v2.053zm0-8.21V56.21H55.237v2.052zm0-4.106v-2.053H55.237v2.053zm0-4.105V48H55.237v2.053zm-26.684-6.158v2.052H81.92v-2.052zm28.737 28.737h2.052v-39H24.447v28.736H26.5V37.737h24.632v24.631H26.5v2.053h-2.053v2.053H26.5V64.42h24.632v2.053H30.605v2.052h20.527v2.053H34.71v2.053h16.422v2.052H38.816v2.053h10.263v2.053h4.105v-2.053h28.737v-2.053H55.237v-2.052H81.92v2.052h2.053zm-2.053-30.79v-4.105H55.237v4.105z"/><path fill="#E0D9D0" d="M16.237 80.842h-2.053v2.053h2.053zm-2.053 0v-4.105h-2.052v4.105zm4.106 0v-4.105h-2.053v4.105zm20.526-6.158h-2.053v2.053h2.053zm-4.105 0h-2.053v2.053h2.053zm-14.369 2.053V13.105H18.29v63.632zm-4.105 0v-61.58h-2.053v61.58zm-4.105 0V17.21h-2.053v59.526zm22.579-6.158h-2.053v2.053h2.053zm-4.106 0h-2.052v2.053h2.052zm0-4.105h-2.052v2.052h2.052zm-8.21 14.368v2.053h24.632v-2.053zm8.21-6.158H26.5V70.58h-2.052v-2.053H26.5v-2.052h-2.052V64.42H26.5v-2.053h-2.052V33.632h-2.053v43.105h-2.053v4.105H18.29v2.053h-2.053v2.052h61.579v-2.052H51.132v-2.053h26.684v2.053h4.105v-2.053h2.053v-4.105h2.052v-4.105h-2.052v2.052H81.92v2.053H79.87v2.053H24.448v-2.053h6.157z"/><path fill="#000" d="M77.816 84.947h-61.58V87h61.58zm4.105-2.052h-4.105v2.052h4.105zm-65.684 0h-2.053v2.052h2.053zm30.79-2.053H22.394v2.053h24.631zm30.789 0H51.132v2.053h26.684zm-59.526 0h-2.053v2.053h2.053zm-4.106 0h-2.052v2.053h2.052zm69.79 0H81.92v2.053h2.053zm2.052 0v-4.105h-2.052v4.105zm-65.684 0v-4.105H18.29v4.105zm-4.105 0v-4.105h-2.053v4.105zm-4.105 0v-4.105h-2.053v4.105zm67.736-4.105H53.185v2.053H79.87zm-30.789 0H24.447v2.053H49.08zm39 0V9H20.342v2.053h-4.105v2.052h-4.105v2.053H8.026v61.579h2.053V17.21h2.053v59.526h2.052v-61.58h2.053v61.58h2.053V13.105h2.052v63.632h2.053V33.632h63.631v43.105zm-6.158-4.105H55.237v2.052H81.92zm-30.79 0H26.5v2.052h24.632zm0-4.106H26.5v2.053h24.632zm30.79 0H55.237v2.053H81.92zm0-4.105H55.237v2.053H81.92zm-30.79 0H26.5v2.053h24.632zm30.79-4.105H55.237v2.052H81.92zm-30.79 2.052H26.5V37.737h24.632zM28.554 39.79v20.527h20.526V39.789zm12.315 16.422h-4.105v2.052h4.105zm41.053 0H55.237v2.052H81.92zm0-4.106H55.237v2.053H81.92zm0-4.105H55.237v2.053H81.92zm0-4.105H55.237v2.052H81.92zm-26.684-6.158H81.92v4.105H55.237zM22.395 11.053v20.526h63.631V11.053zm57.474 6.157h-2.053v2.053h2.052zm2.052-2.052h-2.053v2.053h2.053zM40.868 50.053h2.053V48h2.053v-4.105H42.92v-2.053h-8.21v2.053h-2.053V48h2.053v-4.105h6.157V48h-2.052v2.053h-2.053v4.105h4.105zm36.948-20.527v-8.21h4.105v8.21zm-24.632 0h4.105V17.211h-2.052v-2.053h-4.105v2.053h-2.053v-2.053h-4.105v2.053h2.052v12.315h4.106V17.211h2.052zm-12.315 0h4.105V17.211H42.92v-2.053h-2.053zm-6.158-2.052h-4.106V17.21h4.106v4.105h4.105V17.21h-2.053v-2.053h-8.21v2.053H26.5v10.263h2.053v2.052h8.21v-2.052h2.053v-4.106H34.71zm43.105-8.21h-2.053v-4.106h-4.105v14.368h4.105v-8.21h2.053zM65.5 23.367h-2.053v-8.21h-4.105v8.21h2.053v2.053H65.5v2.053h-6.158v2.052h8.21v-2.052h2.053V15.158H65.5z"/></g><defs><clipPath id="a"><path fill="#fff" d="M8.026 9H88.08v78H8.026z"/></clipPath></defs></svg>