<?xml version="1.0" encoding="UTF-8"?>
<svg id="Layer_1" xmlns="http://www.w3.org/2000/svg" version="1.1" viewBox="0 0 770 770">
  <!-- Generator: Adobe Illustrator 29.7.1, SVG Export Plug-In . SVG Version: 2.1.1 Build 8)  -->
  <defs>
    <style>
      .st0 {
        fill: #949da5;
      }

      .st1 {
        fill: #a6aeb4;
      }

      .st2 {
        fill: #848e98;
      }

      .st3 {
        fill: #bbc2c5;
      }

      .st4 {
        fill: #808b95;
      }

      .st5 {
        fill: #a7afb5;
      }

      .st6 {
        fill: #ad4542;
      }

      .st7 {
        fill: #e16868;
      }

      .st8 {
        fill: #293550;
      }

      .st9 {
        fill: #060d2d;
      }

      .st10 {
        fill: #17213f;
      }

      .st11 {
        fill: #e2cda1;
      }

      .st12 {
        fill: #a0a8af;
      }

      .st13 {
        fill: #e8dcaa;
      }
    </style>
  </defs>
  <path class="st4" d="M445,102c-37.6-3.6-80.8,2.7-119,0h119Z"/>
  <g>
    <path class="st10" d="M203,454c.9,1.3,3.5,4.7,3.6,6.5s-1.1,1.4-1.2,2.1c-.2,3.3-1.8,9,1.6,9.8-3.4,2.8-1.6,7.6-2,11.5l2-1c3,6-1.6,3-2,4.5-.5,3.7.7,7.5.8,11,.3,5.1-.8,8.4-.9,13s2.1,11,1.1,17.5c-3-6.4-1.9-14.1-2-21s0-15,0-22.5.6-4.4-1-5.5v-26Z"/>
    <path class="st9" d="M564,529c-.7-24.4,3.4-49.2,1.3-73.4,0-1.1,1.5-1.3,1.7-1.6l-1,63.5-2,11.5Z"/>
    <path class="st4" d="M177,410c-.2-.9-.9-1.4-1.1-3.4-.9-10.5-1.3-53.3,1.1-61.6v65Z"/>
    <path class="st9" d="M594,408v-63,63Z"/>
    <path class="st4" d="M204,508c-1.7-1-1-3.8-1-5.5,0-7.5,0-15,0-22.5,1.7,1,1,3.8,1,5.5,0,7.5-.1,15,0,22.5Z"/>
    <path class="st9" d="M564,533c-1.5,0-1.5-2.9,0-3,0,1,0,2,0,3Z"/>
    <path class="st4" d="M496,555c-3.5,3.4-9.1,5.5-5.9-2.2s1.1-4.1,2.2-8c6.4-23.8,13.1-47.5,17.8-71.8l7.9,3.1.2,1.3c-3.1,14.7-7,29.2-11.1,43.5s-5.1,15.4-6,24c0,.3,0,.7,0,1h-1.9c-.9,3.3-.7,6.6-3.1,9Z"/>
    <path class="st1" d="M261,476c2,5.8,2,11,3,16,1.9,9.7,4.6,17.7,7,27s2.5,11.4,4,17,.8,2.1,1,3c-2.3,1.7-.3,4.9,0,7l1-1c.1.4.8,1.1,1,2-3,1.8,1.9,8.1,1,9-2.9.3-7.8-3.8-3.3-5.2l-.7-2.8-4,2c-1.9-5.4-2.6-9.6-4-15-3.7-14.4-8.6-28.7-12-43s-.5-6.2-1-9l4.6,3,.9-2,1.5,2-.9-7.5-1.4-1.5,2.3-.9Z"/>
    <path class="st10" d="M380,509c.5.2,1.8-.2,2,0s-2,4.3,2.9,5.1c-2.8,3.6-4.7,9.7,2.1,7.4-2.2-3.3,3.6-8.8-1-8.5v-1c4.2.5,2.5-7.5,3-8h3s-1,4-1,4c3.5,0,16.8-1.8,19,.5s.6,8.2,1.2,10,2.9.8,2.9,3.1c0,3.7-2.9,3-3.2,4.2s1,9.4,0,10.3c-1.8.2-3.5-.7-5.3-.6-3.7,0-11.2,1.8-14.1,1.6s-1.3-3.5-4.6-2c.6-1.9,1.8-8.9-.5-10-1,0-4.3,3.4-4.4,3.6-.5,1.7,1,3.5.7,4.2s-3.2,2.9-3.5,3c-2,.6-7.4.3-9.9.2s-4,1-3.5-2c4.7,0,9.3,0,14,0v-25ZM396,509c-2,.2-4,.1-5.9,1.1v12.9c-.2.3-.1.7-.1,1-.2,3.3.2,6.7,0,10,2,0,4,0,6,0s.7,0,1,0c3.8,0,5.6-.5,9-1s.7,0,1,0,.1,1,.5,1c2.8-.3,1.1-19.9,1.4-23.3-.8-2.6-9.3-1.8-11.9-1.6s-.7,0-1,0Z"/>
    <path class="st2" d="M470,462c.7.4,2.3.3,3.4,1.1,1.6,1.2,17.9,32.1,18.4,34.7.8,4-1.9,6.8-1.8,10.7-.7,1.9-4.5-2.4-4.9-3.2-3.3-6.7-7-17.7-10.1-25.2l-2.3-8.3-2.7-2.7c0-.3,0-.7,0-1-.5-1.9.3-3.9-2-6h2Z"/>
    <path class="st11" d="M340,563c-.9-2.3,2.1-3.5-3.9-3v-17s12.8,2.1,12.8,2.1l1.2,19.4-3.1,2.5c-.9-.1-6.7-3.2-7-4Z"/>
    <path class="st2" d="M286,498l-2.2-2.8-1.8-.7c1.7-2.7,2.1-5.9,3.1-8.5,1.8-4.8,8.1-19.1,11.1-22.4s5.3-2.7,7.9-4.6c-4.4,12.2-10,24.3-15.2,36.3s-2.7,2.5-2.8,2.7Z"/>
    <path class="st11" d="M433,561c-1.9,1.7-2.3,3.1-5,4l1.5-3-8.5,3c.3-2-.5-4.6,0-6.3s2.8,0,2-2.1l-2,.5c-1.7-1.7,5.6-2.9,0-4.5l2.1-4c0-.6-3.7-.4-1.6-2.5s12.2-2.4,13.1-1c1.6,5.6,0,10.8-1.5,16Z"/>
    <path class="st13" d="M350,531c-5.2,2.4-5.7-.7-6.7-.9-2.5-.7-6-.4-8.7-1.9l-.7-1.6,1.6-17.6c1.8-3.1,12.1-1.4,14.5.5v21.5ZM346.7,514.7c.6-.7.9-1.5,1.2-2.3.1-3.6-9.7-3.1-10.9-.8-.5,2.2,2,.7,2.1,2.9s-1,7.4-1.1,10.5c10.2-4.6,3.1,2.1,4,3l6,1c.7-.7-2.5-7.6-5-7l4-2-3-1c-1.1-2.9,1.5-3,2.7-4.3ZM336.5,515v1c.6-.3.6-.7,0-1Z"/>
    <path class="st13" d="M390,546c6.7,0,13.3,0,20,0l-1,20c-2.1,0-4.5-.8-4,2l-1-2h-2c0,.5.1,1.5-.2,1.7-1.8,1.3-8.5,0-10.8-.7-2.2-6.6-.5-14.2-1-21ZM408,551c.7-4-7.6-3.6-9.1-2.6l-1,3.5h-3s0-3,0-3h-2.9s-1.1,5.3-1.1,5.3l3.1,3.2-3,2v2s1.9.9,1.9.9l-.9,2.5c3.4-1.1,5.6-1.2,9,0l-3-4c2.5.5,2.6,2.1,3.5-1,1.1-.2.2,6.3,3.5,5l2.1-6.4-2.1-1.5c2.8-.1,3.7-2.3,2.8-4.9l-1.8-.2,2-1Z"/>
    <path class="st13" d="M380,546v20h-18l-1-20h19ZM379,548c-3,1.4-6.6,1.6-9.6,0l-.8,1.8c-1.7-.9-3.9-1.7-5.1,0l-.5,8.4,4.1,1.7c-.8,1.9-2.9.4-2,4,3.9-1.8,6.2.3,10,1l-1-5,5,3v-15Z"/>
    <path class="st13" d="M362,509c2-.1,4,0,6,0s1.3,0,2,0c3.3,0,6.7,0,10,0v25c-4.7,0-9.3,0-14,0s-.7,0-1,0l-4-2c-.2-.3-1-.7-1-1-1-6.5.7-15.2,0-22,.7,0,1.3,0,2,0ZM379,511c-5.8.7-11.2,1.3-17,0,2.4,7.3,0,13.4.9,20.5,3.1,2.8,12,0,16.1,1.5,1.3-2.7-2-3.2-2-3.5.1-.8,1.6-2.5,1.8-4.3.4-4.3,0-9.8.2-14.3Z"/>
    <path class="st13" d="M421,508h13c.3,1-.2,2.3,0,3l-5-1-.5,2c-2.8-2.8-9-3.2-6.3,1.8s3.2.7,2.8,2.7l-3,1.5,4,.5-4,.5v9c2.9,1,9.7,1.2,11.5-1.9s-1.5-3.1-1.5-3.5l2-11.6c2.1,6.1,2.5,10.4,2,17-2.1-.2-3.6,1.5-5,2-2.5.9-8.9,2.7-11.1,1.5l-.9-1.5c2.3-6.1.4-13.6,1-20,.4-.4.6-1.8,1-2Z"/>
    <path class="st13" d="M314.6,506.1c1.8-.6,8.6-.7,9.3,1.5s-1.2,16.4-1.9,16.9c-3.1,0-9.8.3-10.9-3.3s1.1-14.4,3.5-15.2ZM322,508c-4.9-1-4.1,5.8-8,6v1.9c0,0,2.1.7,2.1.7l-1.1,5.4h6c1.4-4.7-2.6-4.6-2.1-8.5l3.1-5.5Z"/>
    <path class="st13" d="M419,549l2.1-6.9h14.9c0-.1-1,18.4-1,18.4-.6.6-1.8.3-2,.4,1.5-5.2,3.2-10.4,1.5-16-.9-1.3-11.6-.5-13.1,1-2.1,2.1,1.5,2,1.6,2.5l-2.1,4c5.6,1.6-1.7,2.8,0,4.5l2-.5c.7,2.1-1.8,1.1-2,2.1-.5,1.8.3,4.4,0,6.3l8.5-3-1.5,3c-2.8.9-4.2.5-6.3,1s-.1,3.2-2.7,2c0-1.7,0-3.3,0-5-.2-4.6.2-9.4,0-14Z"/>
    <path class="st13" d="M448,554l.5-16,9.5-3c1.5,0,1.1,2.3,1,3.5-.6,8.2-1.5,12.4-9.4,15.7s-1.3,1.5-1.7-.2ZM453,538l-2,4,6-2.5-2.5-1.5-.5,2-1-2ZM450.5,544v1c.6-.3.6-.7,0-1ZM453,547c-.4.3-4.1-.9-3,1.5s2.3,1.8,4,1c3.1-1.4-1.9-1.4-1-2.5h2c-1.2-5.8-1.8-.2-2,0Z"/>
    <path class="st10" d="M267,535c-2.7.6-1.9-1.3-2.5-3-1-2.9-1.7-6-2.6-8.9h-4.9c3.1-3.4,1.2-8,2-12.1l-2,1c2.7-7.1-5.1-13-2-20,3.4,14.3,8.3,28.6,12,43Z"/>
    <path class="st13" d="M447,524c-.3-5.7,0-11.3-.9-16.9l9.9-2.1c.8,2,.7,4.1,1,6,.6,3.6,1.2,7.3,1,11-.7,0-1.3,0-2,0v-9s-3,0-3,0l1-4h-5s0,14,0,14c2.4-.3,4.6-.8,7-1-.4,1.6-7.3,3.6-9,2Z"/>
    <path class="st10" d="M336,561c-.2-.2-1.4.4-2.1-.6-4.1-6.1,2.4-14-3.9-16.9l4.6-4.3,15.6,2.8c1.8.8,2.5,13.6,2.7,16.5s.7,6.5-1,7.5l-2.2-21.8-15.8-2.2c.8,6.1-1.9,13.9,2,19Z"/>
    <path class="st13" d="M322,538c0,1.3,0,2.7,0,4-4.5-2.2-3.5-5.3-8.1-.4-.2,1.9,4.2,9.8,7.1,10.4-9.3,2.8-10.7-10.4-10-17,.8-.8,9.6,2.2,11,3Z"/>
    <path class="st13" d="M336,561c-3.9-5.1-1.2-12.9-2-19l15.8,2.2,2.2,21.8c-.7.4-4.1,1.1-5,1l3.1-2.5-1.2-19.4-12.9-2.1v17c6.1-.4,3.1.7,4,3-1.9,0-2.7-1.1-4-2Z"/>
    <path class="st12" d="M285,486c-1,2.6-1.3,5.8-3.1,8.5l1.8.7,2.2,2.8c-.8,1.9-.8,9.6-3.5,11s-3.4-6.4-3.5-7.5c-.4-5.1,1.8-12.3,6-15.5ZM281.5,499v1c.6-.3.6-.7,0-1ZM283.5,500v1c.6-.3.6-.7,0-1Z"/>
    <path class="st2" d="M261,476l-2.3.9,1.4,1.5.9,7.5-1.5-2-.9,2-4.6-3c-.2-1.4-3.4-4.4-1.6-7l7-2.9c1.5.7,1.2,1.9,1.6,3Z"/>
    <path class="st10" d="M296,556c-2.2,7.9.7,19.7-1.2,25.3s-6.3,2.7-8.8,2.7c-.6-3.6,3.3-1.1,5.6-2.9s0-17.2,1.5-21.6l-3.1-2.5,6-1Z"/>
    <path class="st11" d="M321,552c-2.8-.5-7.2-8.4-7.1-10.4,4.5-4.9,3.5-1.8,8.1.4-.2,2.9-.9,7.3,0,10h-1Z"/>
    <path class="st10" d="M264,492c4.7,0,3.3,11.3,4,12h4c.6,2.8-1,2-3,2-.8.8,4.4,10.9,2,13-2.4-9.3-5.1-17.3-7-27Z"/>
    <path class="st10" d="M421,508c2.8-1.9,12-4,14.5-1s1.4,10.7,1.5,14.5,1,3.5,1.1,5.1-1.9,1.2-2.1,1.4c-.7.7.4,3.3-5,2,1.4-.5,2.9-2.2,5-2,.5-6.6.1-10.9-2-17s.3-2,0-2.9h-13Z"/>
    <path class="st3" d="M281,558c-.1.2-.7-.1-1,0l-6-2c-3.7-3.8-1.7-2.3-3-6l4-2,.7,2.8c-4.5,1.4.4,5.5,3.3,5.2.9-.9-4-7.2-1-9,1,3.6,2.6,7.2,3,11Z"/>
    <path class="st10" d="M390,546c.5,6.8-1.2,14.4,1,21-.9-.3-1.9-.7-2.8-1.1l.8-20.4c.7-.8.9.6,1,.6Z"/>
    <path class="st10" d="M501,546c0,1.7,0,3.3,0,5-.5,0-.8,0-1,.5l1,.5,2,4-4,2v-2s-3-1-3-1c2.4-2.4,2.3-5.7,3.1-8.9h1.9Z"/>
    <path class="st10" d="M501,552v-1c.5,0,.8,0,1,.5l-1,.5Z"/>
    <path class="st10" d="M275,536c2.5-.5,2.2,1.1,2.7,2.8,1.2,4.1,3.4,11.2,4.1,15s.7,2.7-.8,4.2c-.4-3.8-2-7.4-3-11s-.9-1.6-1-2c-.4-1.7-.5-3.9-1-6s-.7-1.9-1-3Z"/>
    <path class="st10" d="M322,538c.8.5,1.5.5,1.9,1.7v14.3c-.7.3-1.8-1.7-1.9-2-.9-2.7-.2-7.1,0-10s0-2.7,0-4Z"/>
    <path class="st10" d="M457,511c4,2.9,1.8,2.4,2.3,5.3s2.5,2.5.4,5.5-1.6.2-1.7.3.2,1.4-.3,1.7c-2.4,1.6-6.9,1.6-8.2,5.3l-2.4-1.2c-.5-1.2-.1-2.5-.2-3.8,1.7,1.6,8.6-.4,9-2,.7,0,1.3,0,2,0,.2-3.7-.4-7.4-1-11Z"/>
    <path class="st10" d="M420,510c-.6,6.4,1.3,13.9-1,20v-8.9c0,0-3-1-3-1,6.2,1.2,1.6-7.1,1.9-9.4s1.9-.4,2.1-.6Z"/>
    <path class="st10" d="M507,521c3,1.2,1.6,1.7,1.1,3.5-1.9,6.5-2.5,8.3-3.2,15s-1.6.3-1.8,1.1c-.5,1.9,1.4,4.9-2,4.3.9-8.6,3.8-16.1,6-24Z"/>
    <path class="st9" d="M360,531c-1.7-6.4-1.7-15.6,0-22,.7,6.8-1,15.5,0,22Z"/>
    <path class="st9" d="M419,549c.2,4.6-.2,9.4,0,14-3.5.3-1.1-.8-1.1-2.6.2-5.1,0-10.3,0-15.4,1.8-.2.9,2.8,1,4Z"/>
    <path class="st9" d="M458,535l-9.5,3-.5,16c-1.9-5-1.3-12.2,0-17.3.7-1.2,8.6-3.4,10.1-1.7Z"/>
    <path class="st0" d="M470,462h-2c2.3,2.1,1.5,4.1,2,6l-4-8.5c1.4-1.1,3.4,2.1,4,2.5Z"/>
    <path class="st9" d="M380,509c-3.3,0-6.7,0-10,0,2.9-3,6.7-1.3,10,0Z"/>
    <path class="st0" d="M470,469l2.7,2.7,2.3,8.3c-1.5-3.7-3.8-7.1-5-11Z"/>
    <path class="st10" d="M280,558c-4.5,2-3.5.5-6-2l6,2Z"/>
    <path class="st9" d="M368,509c-2,0-4-.1-6,0,1-1.6,5.1-1.6,6,0Z"/>
    <path class="st10" d="M365,534c-.2,0-1.4,1.5-3.3,0-1-.4-.5-1.6-.7-2.1l4,2Z"/>
    <polygon class="st10" points="414 527 414 526 417 525.5 415.5 527 414 527"/>
    <path class="st10" d="M479.5,561c.6.3.6.7,0,1v-1Z"/>
    <path class="st3" d="M277,545l-1,1c-.3-2.1-2.3-5.3,0-7,.5,2.1.6,4.3,1,6Z"/>
    <path class="st13" d="M407,533c2.2-6.9.5-14.8,1-22-3,.2-6,0-8.9-.4s-2.4,1.4-2.1-1.6c2.5-.1,11-.9,11.9,1.6-.3,3.4,1.4,23-1.4,23.3s-.4-1-.5-1Z"/>
    <path class="st13" d="M396,509l-5,2c-.3,3.1.3,6.4,0,9.5s-1,2.3-1,2.4v-12.9c2-1,4-1,6-1.1Z"/>
    <path class="st11" d="M346.7,514.7c-1.1,1.3-3.8,1.4-2.7,4.3l3,1-4,2c2.5-.6,5.7,6.3,5,7l-6-1c-.9-.8,6.2-7.6-4-3,.1-3.2,1.3-7.5,1.1-10.5s-2.6-.7-2.1-2.9c1.2-2.3,11-2.7,10.9.8-.3.9-.6,1.7-1.2,2.3ZM345,511h-3v1h3v-1Z"/>
    <path class="st11" d="M336.5,515c.6.3.6.7,0,1v-1Z"/>
    <path class="st11" d="M408,551l-2,1,1.8.2c1,2.6,0,4.7-2.8,4.9l2.1,1.5-2.1,6.4c-3.3,1.3-2.4-5.3-3.5-5-.8,3.1-1,1.5-3.5,1l3,4c-3.4-1.2-5.6-1.1-9,0l.9-2.5-1.9-.9v-2s3-2,3-2l-3.1-3.2,1.1-5.3h2.9s0,3,0,3h3s1-3.6,1-3.6c1.5-1.1,9.8-1.4,9.1,2.6Z"/>
    <path class="st11" d="M379,548v15s-5-3-5-3l1,5c-3.7-.7-6-2.8-10-1-.9-3.6,1.2-2.1,2-4l-4.1-1.7.5-8.4c1.3-1.8,3.5-.9,5.1,0l.8-1.8c3,1.5,6.6,1.4,9.6,0Z"/>
    <path class="st11" d="M434,511l-2,11.6c0,.4,3.4.2,1.5,3.5s-8.6,2.9-11.5,1.9v-9s4-.5,4-.5l-4-.5,3-1.5c.5-2-2.4-2-2.8-2.7-2.7-5,3.5-4.6,6.3-1.8l.5-2,5,1Z"/>
    <path class="st11" d="M322,508l-3.1,5.5c-.6,3.9,3.5,3.8,2.1,8.5h-6s1.1-5.4,1.1-5.4l-2-.7v-1.9c3.8-.3,3-7,7.9-6Z"/>
    <polygon class="st11" points="453 538 454 540 454.5 538 457 539.5 451 542 453 538"/>
    <path class="st11" d="M453,547c.2-.2.8-5.8,2,0h-2c-.9,1.1,4.1,1.1,1,2.5s-3.2.7-4-1,2.6-1.2,3-1.5Z"/>
    <path class="st11" d="M456,522c-2.4.2-4.6.7-7,1v-14h5s-1,4-1,4h3s0,9,0,9Z"/>
    <path class="st2" d="M283.5,500c.6.3.6.7,0,1v-1Z"/>
    <path class="st2" d="M281.5,499c.6.3.6.7,0,1v-1Z"/>
    <g>
      <path class="st1" d="M223,492c3.3.3,2.8-2,0-2.4,1.1-2.9.4-4.8,3.9-5.6v4s5-1,5-1l-3,3c2.6,0,7-.5,7,3l3-1c.1,3.7-.1,7.4,0,11,.2,6.2.2,12.7,1,19.5s-1.3,4.1,2,3.5c.5,4.5.5,9.7,1,14.3l5,3.7c3,6.1,5.7,6.5,8.8,11.7,6.5,10.8,6.1,9.2,14.8,17.7,4.8,4.6,5.1,10.6,14.3,10.7s7.8.3,8.8-2.7c1.9-5.7-1.1-17.4,1.2-25.3s.8-.7,1-1c5.9,0,3.3,5.2,5.2,6.8s3.7.6,5.1,1.4c2.7,1.6,1.5,4.9,6.7,2.8l-1,5c2.9.7,1.4-2,4-2.6s2.2.5,3,.6.7,0,1,0l8.3,5.2,8.7,2.8c.7.3,1.4.8,2,1-2.1,1.7,2.4,2.6,2.7,2.7,8.7,1.9,16.8,1.5,25.8,1.4s4.4.6,5.5-1c4.1,0,9.5,2.5,11-1,.3,0,.7,0,1,0,2.2,1.5,4.6.8,7,1s2.6,0,4,0,1.3,0,2,0,.7,0,1,0c.7,0,1.3,0,2,0,5.4,1.7,13.6,1.7,19,0,.7,0,1.3,0,2,0s3.5,3.1,3-1c3-.9,5.9-2.4,9-3-1.2,1.1-4.9,3.2-5,3.7-.5,2.1.4,5.2,0,7.8-.9,6.1-4.1,30-2.9,34.5-1.4,6.5-4,12-6.8,17.7l-10.2,11.3c-.7,0-1.3,0-2,0-1-1.7-3.8-1-5.5-1-7,0-14,0-21,0s-4.4-.6-5.5,1c-.3,0-.7,0-1,0-1-1.7-3.8-1-5.5-1-11.9-.1-28.1,2.4-38.1-2.9l-2,2c-2.8.3-5.6-3.5-7.1-3.9-2.5-.7-2.2.9-2.3.9-4.6-.3-13.7-13.9-16.5-17-17.8-19.9-38.1-37.9-55.9-58.1-4.8-5.4-12.2-13-15.6-18.9-6.2-10.8-6.6-17.6-6.1-29.6s-1.3,0-1.9-4.4c3.3.4,1.7-1.2,1.5-3-.3-4.3-.4-8.3-.5-12.5s1-4-2-3.5c-.1-2.7,0-5.3,0-8ZM306,587c0,.7,0,1.3,0,2-.2,2.3,0,4.7,0,7-3-.6-1.9,1.5-2,3.5,0,3-.5,17.3,1,18.5,1.1.2.9-1,1-1,.4,0,1.5-.1,1.7.1-1.5,3.6,1,3.4,2.3,4.9,2.9,3.5,10.1,11.3,14,13s6.7,1.4,9,1,5.8-4.4,6-5l4-1.5c.7-3.1-3-1.7-2-6s2.7-1.6,3-3.5l-4-1.7-.9-12.9c6,1.8,2.2-5.2-2-3.5-.5-3.7-1.1-7.3-1.5-11-1.5-1.7-3.6-2.8-5.5-4-4-2.6-13.7-8.8-18-9-6.3-3.6-6.5,4.3-6,9ZM357,635h53.5c5.7,0,3.4-15.9,3.5-19.5.1-4.9,3.4-17.1-1.4-20.5s-13.4,0-18,.1c-12.6.1-25.4-2.6-37.9-.1-2.7,1.9-2.4,38.2.4,40.1ZM346,648h-3v2h3v-2Z"/>
      <path class="st4" d="M473,552c.4.5.5.6,1,1,4.9,8.3-1.1,19.6,1,27.3s1.9.5,2,.7-.5,1.4.7,2,5.4.8,7.3,1l7.5,2,.5,2.5-6,4.5-3-5c2.4,5-1.1,5.7-2.9,9.6s-3,8.4-1.6,10.4,2.8.4,2.5,2h-4c-.4,1.6,1.4.6,1.7,1.2.8,1.3-.4,4,1.3,4.8-8.1,8.6-15.6,18.2-24,26.5-14,13.8-29.6,9.5-47,9.5l10.2-11.3c2.8-5.7,5.4-11.2,6.8-17.7.1.6,2.2,1.6,2,3.5l-2.1,1.1,1,3.8c.9,1.4,3.1.2,4.1.6s1.3.7,2,1,1.3.7,2,1c4.1,1.6,4.6,3.5,10,1s.6-.7,1-1c1.1-.8,1.4-1.5,2-2,2.5-2.1,3.9-4,6-6s.7-.7,1-1c.7-.7,1.3-1.3,2-2s1.3-1.3,2-2,1.3-1.3,2-2,1.6-.6,2-1c1.6-1.7,1.8-2.1,2-4.5.8-7.9.2-19.9-1-27.5s.8-4.3-2-7-.5-.9-1-1-1.5,0-2,0l-.6-1c-4,1-7.2,3.6-10.4,6s-.6.7-1,1c-1.2,1-2.8.7-4,1-2.8.8-4.4,2.2-7,3,0-1.3-1-1.9-.5-3.9,1.1-3.9,4.5-3.2,5.4-4.1s-2.9-6.2,2-7.9c.7-.4,1.4-.7,2-1-.1,5,2.7-2.8,5-1.5l3-3.5c6.4-4,10.7-4.9,14-12s.8-2.9,2-4c.3,0,.7,0,1,0l2,2Z"/>
      <path class="st2" d="M444,572c-4.9,1.8-1.7,7.6-2,7.9-1,.9-4.4.2-5.4,4.1s.4,2.7.5,3.9.1,1.5,0,2c-.2.9-.6.7-1,1s-1.5-.7-2,.7c-1,2.7-1,7.3-2,10.8s-2.8,2.8,1,2.5c-.2,2.3.2,4.7,0,7-2,6.3-3,13.6-1,20-1-.3-3.2.8-4.1-.6l-1-3.8,2.1-1.1c.1-1.9-1.9-2.9-2-3.5-1.1-4.6,2-28.5,2.9-34.5.4-2.5-.5-5.7,0-7.8s3.8-2.6,5-3.7.8-1.8,2-2c2.4-.9,4.8-1.8,7-3Z"/>
      <path class="st0" d="M222,476c0-2.9-.5-6.2.5-9,1.4,2.1,4.7,3.2,6.1,4.3s1.2,2.2,2.4,3.1c2.4,1.9,4.8,2,7,4.5-.7,4.5.9,8.7,1,13l-3,1c0-3.5-4.4-2.9-7-3l3-3-5,1v-4c-3.6.8-2.9,2.7-3.9,5.6,2.7.4,3.2,2.7,0,2.4-.2-5.1-1.1-10.3-1-16Z"/>
      <path class="st9" d="M375,652c.3,0,.7,0,1,0,4,0,8,0,12,0,.6,3-1.5,1.9-3.5,2-14.7.6-31.4.5-46.1,0s-4,1-3.5-2c13.4.6,26.7-.1,40,0Z"/>
      <path class="st10" d="M437,575c-1.2.2-1.4,1.5-2,2-3.1.6-6,2.1-9,3s-2.1.4-3,1c-.7,0-1.3,0-2,0-6.3-.3-12.7,0-19,0s-1.3,0-2,0h-1c-.7,0-1.3,0-2,0h-4c-2.4-.2-4.8.5-7-1,16,0,37.2,0,51-5Z"/>
      <path class="st3" d="M320,647c.1,0-.2-1.6,2.3-.9s4.3,4.2,7.1,3.9l2-2c10,5.3,26.2,2.8,38.1,2.9,1.7,0,4.4-.6,5.5,1-13.3-.1-26.6.6-40,0s-13.4.5-15-5Z"/>
      <path class="st10" d="M385,580c-1.5,3.5-6.9,1.1-11,1-12.3-.2-21.3,1.6-33-3,1.5-1.8,4.1.8,6.5,1,10.4,1,26.9,1,37.5,1Z"/>
      <path class="st10" d="M238,479c4.6,5.4,1.3,16,3,23.3s1.9.6,1.9,1.1l-.9,5.9,2,.7-3,5c-.4-4-1.5-8-2-12-.1-3.6.1-7.3,0-11s-1.7-8.5-1-13Z"/>
      <path class="st3" d="M297,555c.7-1.6,0-5.3,4-5,1.5,3.6,3.7,9.4,6.6,11.9s9.7,2.8,12.4,7.1c-.8,0-1.3-1-3-.6-2.6.6-1.1,3.3-4,2.6l1-5c-5.2,2-4-1.2-6.7-2.8s-4.2-.7-5.1-1.4c-1.9-1.6.6-6.7-5.2-6.8Z"/>
      <path class="st9" d="M223,492c0,2.7-.1,5.3,0,8,.2,4.4.7,8.7,1,13-2.7,1.8-1.9,1-2-1.5-.5-10-1.1-20-1-30s-.6-4.4,1-5.5c0,5.7.8,10.9,1,16Z"/>
      <path class="st10" d="M474,553c.2.2,1.3-.3,1.8.2,3,2.9.5,23,1.2,27.8,5.4.8,9.5,3,15,1-1.2,1.1-1.4,2.4-3.7,2.8s-2.5-.8-3.3-.8c-1.8-.2-5.9-.3-7.3-1s-.6-1.8-.7-2-1.7.5-2-.7c-2-7.8,3.9-19.1-1-27.3Z"/>
      <path class="st3" d="M374,581c-1,1.7-3.8,1-5.5,1-9,.1-17.1.5-25.8-1.4-.4,0-4.8-.9-2.7-2.7.3.1.7-.1,1,0,11.7,4.6,20.7,2.8,33,3Z"/>
      <path class="st3" d="M408,652c-6.7,0-13.3,0-20,0s-8,0-12,0c1-1.7,3.8-1,5.5-1,7,0,14,0,21,0s4.4-.6,5.5,1Z"/>
      <path class="st2" d="M454,566l-3,3.5c-2.3-1.3-5.1,6.6-5,1.5,2-1.1,5.7-3.5,8-5Z"/>
      <path class="st10" d="M528,523c-.3,2.1-.7,4-1,6,.5-6.8,1-13.8,2-20.5.1-.9.9-1.4,1-1.5,1.1,5.7-1.2,10.8-2,16Z"/>
      <path class="st3" d="M338,577l-8.7-2.8-8.3-5.2c6.7,1.5,11.2,5.4,17,8Z"/>
      <path class="st10" d="M500,573c-1.9,2.1-4.3,5.6-7,8,1.7-3.3,2.8-8,7-8Z"/>
      <path class="st10" d="M471,550c.6,0,1.3-.3,1.9.1.4.4,0,1.7,0,1.9l-2-2Z"/>
      <path class="st10" d="M470,550c-1.2,1.1-1.4,2.7-2,4l-.8-.6c.4-3,.4-3,2.8-3.4Z"/>
      <path class="st4" d="M357,635c-2.7-1.8-3.1-38.2-.4-40.1,12.5-2.5,25.3.3,37.9.1s14.2-2.8,18-.1,1.5,15.6,1.4,20.5c-.1,3.6,2.3,19.5-3.5,19.5h-53.5Z"/>
      <path class="st8" d="M312,578c4.3.2,14,6.4,18,9-1.4,5.3,2.5,3.2,3.8,5.7s.9,5,1.2,6.8-1.2,4,2,3.5c0,.3,0,.7,0,1s0,.7,0,1,0,.7,0,1c-1.7,2.2.2,4.7-3,5.5l5,9.5c0,.7,0,1.3,0,2-1.9,2-.5,5.2-1.7,7.8s-5.3.8-4.3,5.2c-2.3.4-6.8,0-9-1,1.2-5.1-2-3.7-4.5-6s-4.9-5.1-7.5-7.5-2.2-2.8-2,.5c-1.3-1.5-3.8-1.3-2.3-4.9-.2-.2-1.3-.2-1.7-.1v-13c1.7-3.7,1.7-11.1,0-15,0-.7,0-1.3,0-2,.2-2,1.6-5.5,1.4-8.1.8-1.2,3.2-1,4.6-.9Z"/>
      <path class="st3" d="M337,602c4.2-1.7,8,5.3,2,3.5l.9,12.9,4,1.7c-.3,1.9-2.4.6-3,3.5-.9,4.2,2.7,2.9,2,6l-4,1.5c.4-1.1,0-6.2,0-8s0-1.3,0-2c-.2-4.9-1.4-10.1-2-15s0-.7,0-1l1-.5-1-.5c0-.3,0-.7,0-1s0-.7,0-1Z"/>
      <path class="st3" d="M306,596c-.1,2.6,0,5.3,0,8v13c0,0,.1,1.2-1,1-1.5-1.3-1.1-15.5-1-18.5s-1-4,2-3.5Z"/>
      <path class="st10" d="M310,622c-.2-3.3.5-1.9,2-.5,2.6,2.4,4.9,5.2,7.5,7.5s5.7.9,4.5,6c-3.9-1.7-11.1-9.5-14-13Z"/>
      <path class="st10" d="M337,602c0,.3,0,.7,0,1-3.2.6-1.7-1.6-2-3.5s-.4-5.3-1.2-6.8c-1.3-2.5-5.2-.3-3.8-5.7,1.9,1.2,4,2.3,5.5,4,.4,3.7,1,7.4,1.5,11Z"/>
      <path class="st3" d="M421,581c-5.4,1.7-13.6,1.7-19,0,6.3,0,12.7-.3,19,0Z"/>
      <path class="st9" d="M306,604c0-2.7-.1-5.4,0-8s-.2-4.7,0-7c1.7,3.9,1.7,11.3,0,15Z"/>
      <path class="st10" d="M339,631c-.2.6-4.6,4.8-6,5-1-4.4,2.9-2.2,4.3-5.2s-.2-5.8,1.7-7.8c0,1.8.4,6.9,0,8Z"/>
      <path class="st9" d="M312,578c-1.4,0-3.7-.3-4.6.9.2,2.6-1.2,6.1-1.4,8.1-.5-4.7-.3-12.6,6-9Z"/>
      <rect class="st3" x="343" y="648" width="3" height="2"/>
      <path class="st3" d="M426,580c.5,4.1-2.2,1.1-3,1,.9-.6,2-.7,3-1Z"/>
      <path class="st3" d="M397,581c-1.4,0-1.8.2-4,0h4Z"/>
      <path class="st3" d="M399,581h1c-.3,0-.7,0-1,0Z"/>
      <path class="st8" d="M462,578l1,1c2.8,2.7,1.5,4.1,2,7,0,8.7-1,17.3-1,26l-2,7c-.7.7-1.3,1.3-2,2h-2s0,2,0,2c-.7.7-1.3,1.3-2,2l-1,1c-2.1,2-3.5,3.9-6,6l-2,2c-.4.3-.7.8-1,1l-10-1c-.7-.3-1.3-.7-2-1-3.6-5.6-.7-13.4-.3-19.7s-.7-1.2-.7-1.3c.2-2.3-.2-4.7,0-7,.4-4.2,1.9-9.8,3-14,.4-.3.8,0,1-1h1l.5.9c.3,0,.3-.8.5-.9s.6-.7,1-1,2.7.9,2-2c1-.7,1.1-.6,2-1,1.6-.7,1,.3,4-2s.6-.7,1-1c4.5.2,7.5-4.5,11-5s1.5-.1,2,0Z"/>
      <path class="st12" d="M464,618c0-2,0-4,0-6,0-8.7,1-17.3,1-26,1.2,7.6,1.9,19.6,1,27.5s-.4,2.8-2,4.5Z"/>
      <path class="st10" d="M446,635c-5.4,2.5-5.9.6-10-1l10,1Z"/>
      <path class="st10" d="M460,578c-3.5.5-6.5,5.2-11,5,3.3-2.4,6.4-4.9,10.4-6l.6,1Z"/>
      <path class="st10" d="M464,618c-.4.4-1.6.6-2,1l2-7c0,2,0,4,0,6Z"/>
      <path class="st0" d="M444,585v1c-.9.4-1,.3-2,1s-1.7.9-2,2c-.4.3-.7.9-1,1h-2c.1-.5,0-1.4,0-2,2.6-.8,4.2-2.2,7-3Z"/>
      <path class="st10" d="M444,586v-1c1.2-.3,2.8,0,4-1-3,2.3-2.4,1.3-4,2Z"/>
      <path class="st10" d="M460,621c-.7.7-1.4,1.3-2,2v-2s2,0,2,0Z"/>
      <path class="st10" d="M434,633c-.7-.3-1.3-.8-2-1-2-6.4-1-13.7,1-20,0,0,.7.5.7,1.3-.4,6.4-3.3,14.2.3,19.7Z"/>
      <path class="st10" d="M463,579l-1-1c.5.1.7.7,1,1Z"/>
      <path class="st10" d="M455,626l1-1c-.3.3-.7.7-1,1Z"/>
      <path class="st10" d="M447,634l2-2c-.6.5-.9,1.2-2,2Z"/>
      <path class="st11" d="M397,509c-.3,3,.3,1.4,2.1,1.6,3,.3,5.9.6,8.9.4-.5,7.2,1.2,15.1-1,22-.3,0-.7,0-1,0l-9-1v2c-.3,0-.7,0-1,0l-4.6-1.9c-1.4-1.8.8-6.6-1.4-8.1,0-.3,0-.7,0-1s.9-1.1,1-2.4c.3-3.1-.3-6.4,0-9.5l5-2c.3,0,.7,0,1,0Z"/>
      <path class="st13" d="M396,534c-2,0-4,0-6,0,.2-3.3-.2-6.7,0-10,2.2,1.5,0,6.2,1.4,8.1l4.6,1.9Z"/>
      <path class="st13" d="M406,533c-3.4.5-5.2,1-9,1v-2s9,1,9,1Z"/>
      <path class="st0" d="M436,591c-1.1,4.2-2.6,9.8-3,14-3.8.3-1.4-1.1-1-2.5,1-3.6,1-8.2,2-10.8s1.7-.4,2-.7Z"/>
      <path class="st11" d="M379,511c-.3,4.4.2,9.9-.2,14.3s-1.6,3.5-1.8,4.3,3.3.8,2,3.5c-4.1-1.4-13,1.3-16.1-1.5-.9-7.1,1.5-13.2-.9-20.5,5.8,1.3,11.2.7,17,0Z"/>
      <path class="st11" d="M450.5,544c.6.3.6.7,0,1v-1Z"/>
      <path class="st10" d="M339,621l-5-9.5c3.2-.8,1.3-3.3,3-5.5.6,4.9,1.8,10.1,2,15Z"/>
      <path class="st10" d="M337,605c0-.3,0-.7,0-1l1,.5-1,.5Z"/>
      <path class="st9" d="M306,606v-1,1Z"/>
      <path class="st9" d="M306,612v-1,1Z"/>
      <path class="st10" d="M442,587c.7,2.9-1.5,1.7-2,2,.3-1.1,1.2-1.4,2-2Z"/>
      <path class="st10" d="M438,590h1c-.2,0-.3.9-.5.9l-.5-.9Z"/>
      <g>
        <path class="st2" d="M547,498c0,.3,0,.7,0,1,0,1,0,2,0,3-.3,5.3-.6,10.7-1,16s0,1.3,0,2c-.5,6.7-.8,13.5-2,20-2.9,15.4-12.4,19.7-21.5,30-13.8,15.5-27,30.6-41.5,46-1.7-.8-.5-3.5-1.3-4.8s-2.2.4-1.7-1.2h4c.3-1.6-1.9-1-2.5-2-1.4-2.1.6-8.1,1.6-10.4,1.8-3.9,5.3-4.6,2.9-9.6l3,5,6-4.5-.5-2.5-7.5-2c.7,0,1.5,1.1,3.3.8s2.5-1.8,3.7-2.8.7-.7,1-1c2.7-2.4,5.1-5.9,7-8,8.8-9.4,14.4-17.3,22-27l6-4.8c.3-4.8,1.7-10,2-14.8s.9-4-2-3.5c.8-5.2,3.1-10.3,2-16,.7-5,1.5-10,2-15,6,3.9,5.9.4,10.9-2.1l-.9-3.9,3-.5v-2.5s-2,2-2,2v-3s4,0,4,0c-.8-2.2.7-3.7,1-5,.6,7.1-.6,14-1,21Z"/>
        <path class="st4" d="M548,477c-.3,1.3-1.8,2.8-1,5h-4s0,3,0,3l2-2v2.5s-3,.5-3,.5l.9,3.9c-5.1,2.5-4.9,6-10.9,2.1.4-3.7-.5-11.5,2-14.5s10.9-7.4,14.5-10.5c1.4,3.4.3,6.8-.5,10Z"/>
        <path class="st10" d="M224,519c.6,4.5,1.9,4.2,1.9,4.4-.5,11.9,0,18.8,6.1,29.6-8-2.5-7.1-15.5-8.2-22.3s-1.7-2.6-.8-9.3-2.4-6.1,1-7.4c.1,1.4-.3,2.8,0,5Z"/>
        <g>
          <path class="st9" d="M18,594c-.6-2.3-.7-6.8-.8-9.4-.8-20.1.9-42.6.9-63.1,0-7.3-2.1-19,.2-25.7s1.6-1.5,1.8-1.7l-2,100Z"/>
          <path class="st9" d="M141,603c-.3,0-.7,0-1,0H29c-5.2-1.2-3.6-1-7-4l7.5,3c35.3.3,70.7-.5,106,0,1.7,0,4.4-.6,5.5,1Z"/>
          <path class="st4" d="M140,603c-1,1.7-3.8,1-5.5,1-31.3.4-71.7,2.7-102.1,0-1.9-.2-2.5-.9-3.4-1.1h111Z"/>
          <path class="st9" d="M137,485h-59c18.8-.1,40.5-1.3,59,0Z"/>
          <path class="st4" d="M210,555c.2,0-.1.8,0,1h-59v-1h59Z"/>
          <path class="st9" d="M150,494c.4,12.3-.6,24.7,0,37s0,1.3,0,2h55c-2.7,2.6-47.9.5-55.1.6l-1.9-42.6c1.3,1.4,1.2.7,2,3Z"/>
          <path class="st9" d="M77,485h-43c11.6-1.6,30.4,0,43,0Z"/>
          <path class="st9" d="M150,593c0,.7.1,1.4,0,2-1.7-1-1-3.8-1-5.5,0-9-.8-20.4,0-29.1s-.3-2.7,1.1-3.4c-.7,11.7.9,24.4,0,36Z"/>
          <path class="st3" d="M150,593c.9-11.6-.7-24.3,0-36l1-1-1,37Z"/>
          <path class="st3" d="M150,531c-.6-12.3.4-24.7,0-37,.4,1.2.9,1.4,1.1,3.4.7,8.4,0,19.4,0,28.1s.6,4.4-1,5.5Z"/>
          <path class="st11" d="M130,506v76h-1c-14.7,1.4-29.7.3-44.5.3s-16.7,0-25.1-.2-20,1.9-21.4-1.1v-74l1-1h91Z"/>
          <path class="st10" d="M129,582c.6,3-1.5,1.9-3.5,2-28.3,1.1-56.7-.6-85.1,0-2.5,0-2-1.7-2.5-3,1.4,3,18.1,1.1,21.4,1.1,8.4.1,16.7.1,25.1.2,14.8,0,29.8,1.1,44.5-.3Z"/>
          <path class="st9" d="M130,506H39h91Z"/>
          <path class="st9" d="M130,582v-75,75Z"/>
          <path class="st9" d="M38,581c-.5-1.3-.9-1.4-1.1-3.4-1.9-21.7,1.6-46.2,0-68.2l1.1-2.4v74Z"/>
          <path class="st9" d="M210,555h-59,59Z"/>
        </g>
        <path class="st10" d="M241,517c3.2-.6,1.7,1.6,2,3.5,1.2,9.3,1.1,15.5,5,23.5l-5-3.7c-.5-4.6-.5-9.8-1-14.3s-.7-6-1-9Z"/>
        <path class="st0" d="M528,523c2.9-.6,2.1,1.6,2,3.5-.4,4.7-1.7,9.9-2,14.8l-6,4.8c3.6-4.6,4.5-4.7,5-11v-4c0-.6-.1-1.4,0-2,.3-2,.7-3.9,1-6Z"/>
        <path class="st3" d="M241,515c0,.7,0,1.3,0,2,.3,3,.7,6,1,9-3.2.6-1.7-1.6-2-3.5-.9-6.8-.8-13.3-1-19.5.5,4,1.6,8,2,12Z"/>
        <path class="st10" d="M546,520c2.1,5.6,1.1,12.9,0,18.5s1,3.4-2,1.5c1.2-6.5,1.5-13.3,2-20Z"/>
        <path class="st10" d="M547,502c3.3-.4,1.5.9,1.5,2.7,0,3.2-.2,6.6-.5,9.9s1.1,4-2,3.5c.4-5.3.7-10.7,1-16Z"/>
        <path class="st10" d="M527,535c0-.3-.4-1.5,0-4v4Z"/>
        <path class="st10" d="M547,499c0-.3,0-.7,0-1v1Z"/>
        <path class="st3" d="M223,500c3-.6,1.9,1.5,2,3.5.1,4.3.2,8.3.5,12.5s1.8,3.5-1.5,3c-.3-2.2.1-3.6,0-5s0-.7,0-1c-.3-4.3-.8-8.6-1-13Z"/>
        <g>
          <path class="st9" d="M623,599c.8-2.2,1.6,1.4,2.8,2s4.8.7,6.7,1.1h109.5c-1.1.4-1.5.7-3,1l-106,1c-4.6-1-7-1.1-10-5Z"/>
          <path class="st4" d="M739,603c-31.3,5.6-73.4-2.1-106,1l106-1Z"/>
          <path class="st9" d="M753,591c-1.7-1-1-3.8-1-5.5-.3-26.1,2.2-56.7,0-82.1-.3-3.5-1.7-6.1-2-9.5.7,1,1.9,1.9,2.2,3.2l.8,93.8Z"/>
          <path class="st9" d="M737,485c-1,1.7-3.8,1-5.5,1-30.2.3-60.4-.2-90.5,0,1-1.7,3.8-1,5.5-1,30.2-.4,60.4.3,90.5,0Z"/>
          <path class="st4" d="M620,555v1h-60c.1-.2-.1-.9,0-1h60Z"/>
          <path class="st9" d="M620,497c1.7,1,1,3.8,1,5.5,0,4.4.7,30.2-1.2,31.4l-54.9-.9,54.1-.4c2.2-1.6.2-30.2.9-35.6Z"/>
          <path class="st9" d="M620,592c-1.3-11.1,1-24.6,0-36,1.4.1.9,1.5,1,2.4,1,7.7,0,19.9,0,28.1,0,1.7.6,4.4-1,5.5Z"/>
          <path class="st13" d="M732,506c0,1,0,2,0,3,0,3,0,6,0,9s0,2.7,0,4c.2,8.8,0,17.3,0,26s0,1.3,0,2c0,10.7,0,21.3,0,32h-92l.9-75.6,91.1-.4ZM642.5,508v1c.6-.3.6-.7,0-1ZM659.2,509.9l.3-1.8-10.5,1v4s-1-3-1-3l-5.1,1.6c1.6,4.1-.8,6.3-1,9.8-.4,7.8.8,16.2,1,23.9s-3.2,6.9,1.1,8.1c-3.8,5.9.2,14.9-2,22l3.1,1-2.9.6v3.9c-.1,0,27.3,0,27.3,0l1.5-1.5-.9-2.4h2.9c-.5,6.5,10,3.1,14.5,3.1s5.9,3.2,8.1-2.1c1.4,3.5,8.4,2.8,12,2.8s3.8,0,6,0,5.6-.9,8.4,0v-4c1.9-.2,1.4,3.5,2.1,3.9,1.2.8,5.7-.6,6.6-2.2l.3-18.1-2-1.1,2.1-1.9-.5-45.6c-2.6-2.3-6.9-.5-8.2-4-3.3.4-12.2,2.3-14.9,1.9s.3-2.3-1.5-1.8l-1.5,3-.5-3c-5.8,2.1-12.5,0-18.5,0s-5,1.1-8.1,1.1c-4.7,0-12.6-3.6-14.5,2.9h-1c.3-2.1-1.1-2-2.8-2.1Z"/>
          <path class="st10" d="M732,509l2-1.5c-1.6,9,2.2,71.5-.2,74.3s-1.6,0-1.8.2c0-10.7,0-21.3,0-32l1-1.5-1-.5c0-8.7.2-17.2,0-26,1.6-.4,1.5-3.7,0-4,0-3,0-6,0-9Z"/>
          <path class="st9" d="M732,582c-.2.2.6,2.4-1.4,2.1-28.7-.9-57.5.9-86.1,0-1.9,0-4,1-3.5-2h91Z"/>
          <polygon class="st9" points="732 506 640.9 506.4 640 582 640.1 505.1 732 506"/>
          <path class="st9" d="M620,555h-60,60Z"/>
          <path class="st11" d="M659.2,509.9c1.8.1,3.1,0,2.8,2.1h1c1.9-6.5,9.8-2.9,14.5-2.9s5.8-1.1,8.1-1.1c5.9,0,12.6,2.2,18.5,0l.5,3,1.5-3c1.7-.4.5,1.7,1.5,1.8,2.8.4,11.6-1.4,14.9-1.9,1.3,3.4,5.6,1.7,8.2,4l.5,45.6-2.1,1.9,2,1.1-.3,18.1c-.9,1.6-5.4,3-6.6,2.2s-.2-4.1-2.1-3.9v4c-2.9-1-5.7,0-8.4,0s-3.8,0-6,0c-3.6,0-10.6.7-12-2.8-2.2,5.3-4.5,2.1-8.1,2.1s-15,3.4-14.5-3h-2.9c0,0,.9,2.3.9,2.3l-1.5,1.5h-27.4c0,0,.1-3.8.1-3.8l2.9-.6-3.1-1c2.2-7.1-1.7-16.1,2-22-4.3-1.2-1-5.4-1.1-8.1-.2-7.7-1.4-16.1-1-23.9.2-3.5,2.6-5.7,1-9.8l5.1-1.6,1,3v-4s10.5-1,10.5-1l-.3,1.8ZM729.5,564v1c.6-.3.6-.7,0-1Z"/>
          <path class="st8" d="M732,522c0-1.3,0-2.7,0-4,1.5.3,1.6,3.6,0,4Z"/>
          <path class="st8" d="M732,550c0-.7,0-1.3,0-2l1,.5-1,1.5Z"/>
          <path class="st11" d="M642.5,508c.6.3.6.7,0,1v-1Z"/>
          <path class="st13" d="M729.5,564c.6.3.6.7,0,1v-1Z"/>
        </g>
      </g>
    </g>
    <rect class="st13" x="342" y="511" width="3" height="1"/>
    <g>
      <path class="st8" d="M501,552l-1-.5c.2-.5.5-.5,1-.5v1Z"/>
      <path class="st8" d="M477,109c5.6,1.8,11.9,4.7,17.8,6.7s3.5,2.1,4.2.3c3.2,1.4,5.9,3.5,9,5-.6,3.2,2.7,1.5,4,2.5s.6,3,1.1,3.4,4,.4,5.6.9c3.7,1.2,6.2,6.6,11.2,6.2,7.6,5.7,19.1,15.2,24,23l-1,3c.9.2,2.2-.2,3,0,1.6,3,.9,6.1,5.1,6.6,0,6.6.9,3.1,3.4,5.4s2.8,6.7,3.9,8.7,3.9,3.7,4.5,6.1-.8,4.6-.8,7.2l3-1c0,4.2,4.7,5.1,2.3,9.8l3.7,3.2c1.9,6.4,2.8,11.5,4,18-.5,7.5,1.7,15,2,22.5.9,18.8-1.6,36.5-3.1,55s-.5,4.5,1.1,5.5c-.7,6.8-3.1,13.5-3,20.4l12,17.6v63c-8,14.8-16.7,32.6-27,46s-1.7.5-1.7,1.6c2.1,24.2-2,49-1.3,73.4,0,.3,0,.7,0,1-1.5,0-1.5,2.9,0,3h1l54.9.9c1.8-1.1,1.2-27,1.2-31.4s.6-4.4-1-5.5c.4-2.8,2.3-6.8,4.3-8.6,5.2-4.7,10.3-2.3,16.7-2.4,30.2-.1,60.4.3,90.5,0,1.7,0,4.4.6,5.5-1,5.1.3,10.2,4.9,13,9,.3,3.4,1.7,5.9,2,9.5,2.1,25.4-.3,56,0,82.1,0,1.7-.6,4.4,1,5.5-.3,1.6-5,8.7-6.3,9.7s-3.3.8-4.7,1.3h-109.5c-1.8-.4-5.1-.3-6.7-1s-1.9-4.2-2.8-2c-1.7-2.3-2.7-4.1-3-7,1.7-1,1-3.8,1-5.5.1-8.2,1-20.4,0-28.1s.3-2.3-1-2.4v-1h-60c-.1,0,.1.8,0,1-2.7,3-4.6,7.4-7,10.5-18,22.9-40,43.9-60,65-14.2,15-26.3,34.9-48.5,38.5-37.7-2.7-80,3.4-117.1,0-22-2.1-27.3-14.7-40.4-28.6-22.2-23.5-45.4-47-67-71-4.3-4.7-6.5-10.1-10-14.5s.2-.9,0-1h-59v1l-1,1c-1.3.7-1,2.2-1.1,3.4-.8,8.7,0,20.1,0,29.1s-.6,4.4,1,5.5c-.7,3.6-5.4,7.4-9,8-1-1.7-3.8-1-5.5-1-35.3-.4-70.7.3-106,0l-7.5-3c-1.6-1.4-3.4-2.9-4-5l2-100c.3-.5.2-1.7.9-2.5,2-2.1,10.2-6.1,13.1-6.5h43c.3,0,.7,0,1,0h59c5.1.3,2.9,1,4.8,1.9,3.6,1.8,3.2.8,6.2,4.1l1.9,42.6c7.1-.1,52.4,2,55.1-.6s.7-2.4,1-4c1-6.5-1.2-11.5-1.1-17.5s1.1-7.9.9-13-1.4-7.2-.8-11c.4-1.5,5,1.5,2-4.5l-2,1c.4-3.9-1.4-8.8,2-11.5-3.3-.8-1.7-6.6-1.6-9.8s1.2-1.6,1.2-2.1c0-1.8-2.7-5.2-3.6-6.5-4.9-7.1-7.5-12.7-11.7-19.7s-10.2-13.9-13.3-21.3l1-72c2-3.2,8.5-9.6,9-12.5s-2-11-2.5-15.5-.2-7.4-.5-11c-.5-6.8-.6-13.7-1-20.5s1.1-4-2-3.5c-1.2-23-1.4-40.5,4-63,3.2.6,1.6-1.6,2.1-3.4,2-7.6,5.5-15.3,8.4-22.6s2.4-3.5.5-4c23.1-45.4,64.4-70,111-81,1,1.7,3.7,1.1,5.4.9,41.3-4.3,90.6-2.6,132.6-1.9,10.5.2,20.6,2.7,31,6ZM330,122l-.9-2.3c-.8,2.3-6.7,1.4-9.6,1.9s-9,3.9-13,1.5l.4,1.9c-4.9,1-9.7,2.3-14.4,4.1-9.6,3.7-18.8,8-27.5,13-1.6.8-1.7,2.4-2.7,3-9.2,5.6-15.4,11.4-23.3,19s-1.8-.5-2.1.6c.2,2.3.4,5.2,1.1,7.4l-.7,1,.8.6c.4,3.6-1.7,10.9,3,11.4v2s-2,.5-2,.5c5.5,3.8,1.6,5.1,1,8s1.4.4,1.9,1.3c2.4,4.4-2.1,2.3-.9,6.6s1.7.5,1.9,1.4c.6,2.3,1.9,8.8-1,8.8.6.7,1.4,1.6,1.6,2.5.7,4.7,1,6.3-3.6,7.5l3.1,1.1c-.7,3.1.7,5.9.8,8.8s-.4,8.9-1.4,12.2.8,2.2.5,2.4l-4,.5,4.1,3.1-2.1,4.4c2.5-.3,1.9,2.6,3.4,4.1s5,2.1,7.6,2l-2,1.5,1.1,2.4h2.9c0,0,0-2.9,0-2.9l3,2v-3c7.8,2.3,17.7,6.2,27,6h1c0,2.9,1,2.3,2.9,2.7,7.1,1.6,14.5,2.3,21.1,3.3s6,1.5,9,2,2.3.7,4,1,.7,0,1,0c2.2,3.7,4.9,1.6,7.2,2.2,3.3.9,6.2,2.7,9.7,3.4s3.5,1.5,3.1-1.6c1.6.8,1.8,2.5,2.7,3,7.7,4.2,15.6,8.2,23.3,12.4,1.6,1.9-.7,16.3-.1,20.1s2.2,2.4,2.1,7.4-.9,2.7-1,4.5c0,5.1.2,10.3,0,15.5h29s2,1,2,1c.4-3.7-1.4-14.1,2.5-16l2.5,2,2-4.5-6,1.5v-11.3s4-2.2,4-2.2l-3.9-3.1-.2-1.9,2-.9c-1.5-2.7-1.4-5.2,1.1-7.1-2-1-2.3-.8-2-3.5h4s-1-4-1-4c4.2.6,4.7-2.5,7-4,4.8-3.1,12.2-8.4,17-10s1.8-1,2-1c.3,0,.7,0,1,0,5.1-1.2,13.1-.8,17.2-2.1s9.3-2.2,13.9-4,.9-1.9,1.4-1.9c1.8-.2,4.7,2.9,4.4-.9,4.4,1.4,12.1-1.1,17-2s3.3-.7,5-1c1,1.9,3.5.8,5,.6,9.7-1.6,19.1-5,28.9-5.7l.3-2.7,2.8-.2c-1.7-2.7-2.7-10.5-2-13.3s2.3,1.4,1-5.2,1.2-2.8-3-2.5c0-.7,0-1.3,0-2h2s0-5.4,0-5.4l-2-.6c0-5.3-.2-10.7,0-16,.4-11.5,2.2-21,5-32s4.8-13,4.8-16.7-2.9-2.6-3.8-3.3c-5.3-4.2-11-8.2-16-12s-5.2-5-8-7-3.5-4.2-9-5-.7,0-1,0c.5-2.6-1.2-2.1-2.8-2.7-3.7-1.4-7.2-3.1-10.7-4.4s-3.7-1.8-4.5,0c-3.2-.9-3.9-1.7-7-1s-1.6-.2-2,0c.9-2.5-4.9-3.6-7-4l-1-2.3-.6,1.4c-11.4-2.5-23.1-4.1-34.8-4.1l-.6-2-2.4,2.1h-24.1s-1.9-2.1-1.9-2.1l-1.1,2.1-19.4.9c-.3,0-.7,0-1,0s-.7,0-1,0c-4.4-3.6-9.1-.9-13.5-1s-11.5-3.1-11.5,1c-.7,0-1.3,0-2,0-1.4-3.6-11.5-.3-14.5-2s-1,.3-1.5,2c-.7,0-1.3,0-2,0ZM541,199c0,.4.1.8,0,1s-.9-.1-1,0c-1.9,3.6-.3,5.4-1,8.3s-1-1.7-1,4.2v28.5l-2,1,4,2c.3,3.5,1.3,14.4,2,17.3s2.9-.2,1.1,4.5c5.2,1.6,6.9,9.1,12.9,8.1l-5-14c-.7-6.4-1.3-13-2.1-19.4-.3-2.3-1.7-4.3-1.9-6.6-.5-4.3.3-20.1.9-24.6s1.8-1.3,2-2.2c1.3-5.4,2.5-11,2-16.5-2.4-.3-6.3-10.5-8-8.7-.8,2,0,5.8-.4,7.3-.9,3.6-1.9,4.4-2.7,9.7ZM221,189c-.7.8-1.5,2.1-2,3s-.8,1.9-1,3c-.9,4.2,1.1,6.6,1.7,10.8s1,7.1,1.3,10.7-1.2,4,2,3.5c.9,15.3-1.5,28.2-4,43-2.3,2.6-1,7.2-2,9.3s-2.8.1-2,2.7c8.1-.9,12.6-8.5,14-16s0-.7,0-1c3.2.6,1.7-1.6,2-3.5,2.7-17.2,3.3-42.8-1-59.5s-1.7-1.9-2-2.7c-1.4-4.9-.2-13.3-7-3.3ZM240,274c-9.6,9.5-20.8,19.3-31,28s-5.2,4.1-6.3,6.2-.5,3.9-1.6,5.3l2,1.9-2,3c2.1,1.6,3.7,1.3,3,4.5l-3,.5,3.1,1.1c0,3.6,2.5,7.9,2.7,11.1s-4.2,4.2,1.2,6.7l-2.1,5c-.2,2.1,2.8,2.1,3.1,3.2.5,2-.4,5.1,0,7.3-.6,1-1.4,1.9-2,3h-4c-.3-.4-.9-.7-1-1-1.8-3.5-2-10.2-6-13-.9,7.6.1,15.6,0,23-3-.6-1.9,1.5-2,3.5-.3,8.3-.9,21.2,0,29.1s.3,3.5,3.1,3.5c.1.3-.1.7,0,1,2.2,5.6,5.8,10.1,9,15,8.4,12.9,16.1,27.2,30,36l-1,1c6.4,4.2,11.1,2.2,18,3-1.3-5.5,7.6-2.8,8-8,9.5-3,19-5.1,26.7-7.7s14.2-7,22.2-8.9,3.7,2.1,4.5-1.4c3.8,4.5,10.1,11.4,9.2,17.7s-2.5,6.1-3.4,9.1c-1.6,5-3.5,9.4-5,14s-2.4,10.1-2.3,10.7c.4,4,5.7,5.4,8.7,6.2s2.1-.7,2.3-.7v3c2.5-.3,6.3,1,8-1,.7,0,1.3,0,2,0l1.5,2,2.5-2c.7,0,1.3,0,2,0,1,1.3,0,2.7,2,2.6,24.3-2,49.2,0,73.6-.5,1.7,0,3.2-1.1,3.4-1.1.9,0,2.6,1,4,0l4.5.8c6.3-2.2,13.9,1.2,19.5-2.8,13.2-2.3,10.1-8.4,6-18-.2-4.4-2.5-8.1-4-12s-.9-1.6-1-2-.9-.7-1-1,0-.7,0-1c-.5-1.6-.8-3.3-1-5s-1-2.8-.4-5.8,1.9-3.8,3.4-6.2,4.6-6.6,5.6-6.8c2.1.5,4.3,1.2,6.4,1.8-.6,3,1.5,1.7,3.2,2.3,10.3,3.1,21.2,7.4,30.6,10.4,5.2,1.6,12.5,5.6,17.3,4.3h1c4.4,4.7,4.3,2.4,9.2,4.1s.9,2.9,4.1,2.7,12.3-6.6,14.9-8.7c14.5-11.8,21.4-37.8,32.8-48s1.5,1.9,2-1.5.6-6.2-1-7.5c0-.7,0-1.3,0-2,.7-10.1.9-15.8,0-26-.2-2.8-.6-6.2-1-9s0-1.3,0-2,0-.7,0-1c-.3-1.5-1-3.8-3-3-.8,2.7-1.3,7.6-4.5,8.1-12-1.3-5.7-14.3-4.5-22.1s.8-1.1,1-2.4c.8-5.1.9-11.4,1-16.6.2-1.1,1.3-2.4,1.7-4.3,1.4-7.1-4.3-12.3-8.7-17.2-7-7.9-16.3-15.9-24-23.5s-3.6-2.4-8.6-2.1-2.5.6-4.1,1c-2.8.7-8.2,2.6-10.6,2.1s0-3-2.6-2l1,3c-.4.3-5.1.3-6.4.6-7,1.6-11.3,2.7-17.5,4.9s-14.4.1-16.1,5.5c-16.1,3.9-34.8,6.1-49,14s-2.1-.2-3,.5l-1,26.9c.2,1.2,1.6.4,2,.6,2.6,1.3,6,5.5,8.5,5.6s6.8-1.3,9.5-1.6c6-.6,9.8-1.6,15-2s5-.3,9.4-1.1,8.7-1.3,13.1-2,2.4-.2,1.5-2c5.7-.9,11.4-2.2,17-3s5.7.5,8.4-1.1l1.5,2c.2-4.4,4.4-2.4,7.1-3.4s2.3-1.4,2.9-1.6c4.4-1.5,8.1-2.9,13-3.6s5.5,2.2,5.1-1.4h1c-.3,2.7,2.5,2,4,3,5.6,3.6,9.4,7.3,13.7,12.2.3,1.9-.5,4-.7,5.8-.6,7.4-1,15.8-2,23s-1,1.9-1,2-.8.6-1,1.5c-.8,5.5-2,13.3,0,18.5-.3,2.3-.5,4.7-1,7s0,.7,0,1c-1.1.3-1.4,1.4-2,2-2,1.9-13.5,13.1-14,14h-1c-17.3,0-34.5-5.5-51.6-7.9-1.4-.2-8.3-1.4-7.4,1.9-.7,0-1.3,0-2,0-1.3-2-4.4-.6-6.3-1s-.6-1.7-1.4-1.9c-5.6-1.3-13.1-1.1-18.2-4.6s-9.9-14.4-11.1-17.4c-2.3-5.7-2.1-14.7-7-19,.7,4.2-3.4,6.6-4,10.6s.8,6.9.9,10.4,0,2,0,3-1.4.9-1,2h2c0,.7,0,1.3,0,2-3.7,4.6,3,10.5-3,12.5l3-.5c1.1,3.1.2,6.8.5,9.5s3.3,4-.5,7.5l5,2c1.8,9.9,4.1,7,8,13.5s2.9,14.8,3,21.5c-.3.9.5,2.5-1,3-2.6-2-6.6-2.4-9,0-.6,0-1.5.1-2,0-.7-5.1,1.8-12.1-2-16,0-.3,0-.7,0-1-.4-1.4-1.9-1.7-2-2-.3-.7-.7-1.3-1-2s-.9-.8-1-1c-7.1-15.5-7.7-31.5-11-48,1.5-4.7.3-14.4-1.8-18.7s-9.1-8-13.2-8.8-5.8,2.8-5-2.5l-1.1,2.9-7.9,1.2c-.3.8,1,.8,1,1,.1.6,0,1.4,0,2-.6.1-1.4-.1-2,0,1-2.2-3.7-3-3.9-2.9-.3.2-4.4,6.2-4.6,6.9-1.5,3.8-1.2,9.5-2.3,12.6s-5.1,2.8-.2,4.9l-4,4.5c3.8-.6.6,4.3,3,6-.8,4.7-1.4,9.5-2,14-3-.6-1.8,1.4-2.1,3.3-.7,4.2-.8,10.3-1.9,14s-.8-1.3-.9,3.7-.6,2-1,3c-2.2-.6-2,.9-3,2.5l1,.5c-.9,1.4-1.4,3.1-2,4s-1.7-.5-2,.7c-1,3.7.7,11.1,0,15.3-.7,0-1.3,0-2,0l-10-1c0-.7,0-1.3,0-2s0-1.3,0-2,0-.7,0-1c0-.7,0-1.3,0-2-.2-9.3-1.4-11.6,4.5-19.1.9-1.2,2.6-1.4,3.5-2.7,2.9-4.5,4.3-13.8,4-19.2l3.5-18.5c-1.1-3.9.5-6.7-.5-10.5s.2-1.6,0-2c.5-.5.9-1.3,1-2,.4-4.6-.4-8.9-2.5-13-6,1.7-5,13-6.5,17s-5.8,6.9-6.8,8.7-2,5.7-3.2,7.3-1.1,0-2,1-.7.7-1,1c-3.2,2.7-6.8,1.5-10.3,2.2s-7.1,2.7-11.7,2.8-1.5-1.2-3.4-1.1c-5.9.4-12.1,3.6-17.6.1v2.9c0,0-4,2.1-4,2.1-.6.1-1.4-.1-2,0-2.5-3.1-7.2,1.2-9.4.8s-2.1-2.1-2.6-1.8.1,1.3-.3,1.6c-2.1,1.5-18.3,4.4-21.1,4.1-4.4-.5-4-5-5.7-6.2s-2.7-.3-3-.5c-1-.7-1.2-.9-3-2s-1.6-1.7-2-2c.9-4-3.4-4.3-4.5-6s-1-7.8-1.2-9.2,1.2-2.7-2.3-2.8c0-.7,0-1.3,0-2l3-7.5-2-2,2-2.5h-3s2-2.5,2-2.5c-.7-.6-1.5-1.3-1.7-2.2-2.2-9.8-2-20.3-2.3-30.3l.2-1.8c1.4-.4,1.9-1.4,2.8-2.2,3.1-3.1,6.3-4.9,9.7-7.8,3.4-.2,6.9.4,10.3.8s-.3.8,1,1,.7,0,1,0c2.1,2.9,6,1.4,8.8,2.7s1.4,4.1,4.2,3.3v-3c3.6,2.5,7.3,1.5,11,2s.7,0,1,0,2.4.8,4,1c4.4.7,6.4.7,11,2s11.3,4.1,16.9,5.4,4.5-2.1,4.1,1.5l1.4-1.9c3.1,1.2,6.4,1.4,9.6,2.4s4.9,5,7,.5c3.1.7,7.8,1.5,11,2s.4.9,1.3.8c4.1-.4,10.5-4.2,12.7-7.8s1.2-14.4,1-18.6.8-3.8-2-3.4c-.1-1.3.7-3.1-.6-4.1-7.4-3.2-15.5-8.1-23.4-9.9-1.5-1.4-4-2-6-2.5-15.4-3.9-31.3-7.8-46.8-11.2s-7.2-1.9-9.2-.3c-.7-.3-1.5-.8-2-1s-.9-1.1-1.9-1.5c-3.1-1.1-20.3-5.1-22.4-4.5-1.2.2-.5,1.9-.6,2.1ZM321,280v-2h-1v2h1ZM282.8,338.3c-16.1,2.2-24.3,22.3-15.2,35.7,13.6,19.8,46,5.7,40.3-18.3-2.7-11.5-13.2-19-25.1-17.4ZM480.8,338.3c-29.2,3.6-24.6,50.1,8.5,44.5,25.7-4.3,20.3-48.1-8.5-44.5ZM575.5,359v1c.6-.3.6-.7,0-1ZM575.5,362v1c.6-.3.6-.7,0-1ZM361,378v-2h-1v2h1ZM285,486c-4.2,3.2-6.4,10.4-6,15.5s1.5,8.5,3.5,7.5,2.7-9.1,3.5-11,2-1,2.8-2.7c5.3-12,10.8-24.1,15.2-36.3-2.5,1.9-5.6,2.2-7.9,4.6s-9.4,17.6-11.1,22.4ZM470,468c0,.3,0,.7,0,1,1.2,3.9,3.5,7.3,5,11,3.1,7.5,6.7,18.5,10.1,25.2s4.2,5.2,4.9,3.2c-.1-3.9,2.6-6.7,1.8-10.7s-16.9-33.5-18.4-34.7-2.7-.7-3.4-1.1-2.6-3.6-4-2.5l4,8.5ZM222,476c-1.7,1-1,3.8-1,5.5-.1,10,.6,20,1,30s-.7,3.3,2,1.5c0,.3,0,.7,0,1-3.4,1.3-.6,4.6-1,7.4-.9,6.7-.3,3,.8,9.3s.2,19.7,8.2,22.3c3.4,5.9,10.8,13.5,15.6,18.9,17.9,20.1,38.2,38.1,55.9,58.1,2.8,3.2,11.8,16.7,16.5,17,1.6,5.5,10.4,4.8,15,5-.6,3,1.5,1.9,3.5,2,14.7.5,31.4.6,46.1,0s4,1,3.5-2c6.7,0,13.3,0,20,0s1.3,0,2,0c17.4,0,33.1,4.4,47-9.5,8.4-8.3,15.9-17.9,24-26.5,14.5-15.4,27.7-30.5,41.5-46,9.1-10.2,18.7-14.5,21.5-30,3,1.9,1.6.7,2-1.5,1.1-5.6,2-13,0-18.5,0-.7,0-1.3,0-2,3.1.6,1.8-1.6,2-3.5.3-3.3.4-6.6.5-9.9s1.8-3.1-1.5-2.7c0-1,0-2,0-3v-1c.4-7,1.6-13.9,1-21,.8-3.2,1.9-6.6.5-10-3.6,3.1-11.7,7.1-14.5,10.5s-1.6,10.8-2,14.5-1.3,10-2,15-.8.6-1,1.5c-1,6.7-1.5,13.7-2,20.5-.1.6,0,1.4,0,2-.4,2.5,0,3.7,0,4-.5,6.3-1.4,6.4-5,11-7.6,9.7-13.2,17.6-22,27-4.2,0-5.3,4.7-7,8-.3.3-.6.7-1,1-5.5,2-9.6-.2-15-1-.8-4.8,1.8-24.9-1.2-27.8s-1.6,0-1.8-.2c-.5-.4-.6-.5-1-1s.3-1.5,0-1.9c-.6-.4-1.3,0-1.9-.1s-.7,0-1,0c-2.5.4-2.4.4-2.8,3.4l.8.6c-3.3,7.1-7.6,8-14,12s-6,3.9-8,5-1.3.6-2,1c-2.2,1.2-4.6,2.1-7,3-13.8,5-35,4.9-51,5s-.7,0-1,0c-10.6,0-27.2,0-37.5-1s-5-2.8-6.5-1c-.3-.1-.7.1-1,0-.6-.2-1.3-.7-2-1-5.8-2.6-10.3-6.5-17-8s-.7,0-1,0c-2.7-4.3-8.8-4-12.4-7.1s-5.1-8.3-6.6-11.9c-3.9-.3-3.2,3.4-4,5s-.9.7-1,1l-6,1,3.1,2.5c-1.4,4.4,1.5,19.2-1.5,21.6s-6.2-.7-5.6,2.9c-9.2,0-9.6-6-14.3-10.7-8.7-8.5-8.3-6.9-14.8-17.7s-5.8-5.6-8.8-11.7-3.9-14.2-5-23.5,1.3-4.1-2-3.5c0-.7,0-1.3,0-2l3-5-2-.7.9-5.9c0-.5-1.7-.3-1.9-1.1-1.7-7.3,1.6-17.9-3-23.3s-4.6-2.6-7-4.5-1.5-2.5-2.4-3.1c-1.4-1.1-4.7-2.2-6.1-4.3-.9,2.8-.5,6.1-.5,9ZM254,483c.5,2.8.2,5.6,1,9-3.1,7,4.7,13,2,20l2-1c-.8,4.1,1.1,8.7-2,12h4.9c.9,3.1,1.6,6.1,2.6,9s-.2,3.5,2.5,3c1.4,5.4,2.1,9.6,4,15s-.7,2.2,3,6,1.5,4,6,2,.9.2,1,0c1.5-1.6,1.1-2.4.8-4.2-.7-3.8-2.9-10.9-4.1-15s-.2-3.3-2.7-2.8c-1.5-5.6-2.6-11.4-4-17,2.4-2.1-2.8-12.2-2-13,2,0,3.6.8,3-2h-4c-.7-.7.7-12.1-4-12-1-5-1-10.2-3-16s0-2.3-1.6-3l-7,2.9c-1.9,2.7,1.3,5.7,1.6,7ZM507,521c4.1-14.4,7.9-28.9,11.1-43.5l-.2-1.3-7.9-3.1c-4.6,24.2-11.4,47.9-17.8,71.8s-.6,4.1-2.2,8c-3.1,7.7,2.4,5.7,5.9,2.2l3,1v2s4-2,4-2l-2-4,1-.5c-.2-.5-.5-.5-1-.5,0-1.7,0-3.3,0-5s0-.7,0-1c3.4.6,1.5-2.4,2-4.3s1.7-.5,1.8-1.1c.8-6.7,1.4-8.5,3.2-15s1.9-2.3-1.1-3.5ZM366,534c-.6,3,1.5,1.9,3.5,2s7.9.5,9.9-.2,3.4-2.8,3.5-3c.2-.7-1.3-2.5-.7-4.2s3.4-3.7,4.4-3.6c2.3,1.1,1.1,8,.5,10,3.3-1.5,4.3,2,4.6,2,2.9.2,10.3-1.6,14.1-1.6s3.5.9,5.3.6c.9-.9-.4-9,0-10.3s3.2-.5,3.2-4.2-2.4-1.5-2.9-3.1,1.1-7.6-1.2-10-15.5-.5-19-.5l1-4h-3c-.5.5,1.2,8.5-3,8v1c4.6-.3-1.2,5.2,1,8.5-6.8,2.3-4.9-3.9-2.1-7.4-5-.8-2.7-4.8-2.9-5.1s-1.5.2-2,0c-3.3-1.3-7.1-3-10,0-.7,0-1.3,0-2,0-.9-1.6-5-1.6-6,0-.7,0-1.3,0-2,0-1.7,6.4-1.7,15.6,0,22,0,.3.8.7,1,1s-.4,1.6.7,2.1c1.9,1.5,3.2,0,3.3,0,.3,0,.7,0,1,0ZM39,506l-1,1-1.1,2.4c1.6,22-1.9,46.5,0,68.2.2,2,.5,2,1.1,3.4s0,2.9,2.5,3c28.4-.7,56.7,1.1,85.1,0,1.9,0,4,1,3.5-2h1v-76H39ZM421,508c-.4.2-.6,1.6-1,2s-1.9-.6-2.1.6c-.3,2.3,4.3,10.7-1.9,9.4l2.9,1v8.9c0,0,1,1.5,1,1.5,2.2,1.2,8.6-.6,11.1-1.5,5.4,1.3,4.3-1.3,5-2s2.2.8,2.1-1.4-1-3.3-1.1-5.1c-.2-3.7.8-11.7-1.5-14.5s-11.6-.9-14.5,1ZM457,511c-.3-1.9-.2-4-1-6l-9.9,2.1c.9,5.6.7,11.3.9,16.9s-.3,2.6.2,3.8l2.4,1.2c1.2-3.7,5.8-3.8,8.2-5.3s.2-1.6.3-1.7,1.3.2,1.7-.3c2.1-2.9-.2-3.9-.4-5.5-.5-2.9,1.8-2.3-2.3-5.3ZM640,582h1c-.6,3,1.5,1.9,3.5,2,28.6,1,57.5-.8,86.1,0,2,.3,1.3-1.9,1.4-2.1s1.4.3,1.8-.2c2.4-2.8-1.4-65.3.2-74.3l-2,1.5c0-1,0-2,0-3l-91.9-.9v76.9ZM314.6,506.1c-2.3.8-4.1,12.9-3.5,15.2,1.1,3.6,7.8,3.3,10.9,3.3.7-.5,2.2-15.9,1.9-16.9-.7-2.2-7.5-2.1-9.3-1.5ZM350,531v-21.5c-2.4-2-12.7-3.6-14.5-.5l-1.6,17.6.7,1.6c2.6,1.5,6.2,1.2,8.7,1.9s1.5,3.4,6.7.9ZM414,527h1.5s1.5-1.5,1.5-1.5l-3,.5v1ZM458,535c-1.5-1.8-9.3.5-10.1,1.7-1.3,5.2-1.8,12.4,0,17.3.3,1.7.6.6,1.7.2,7.8-3.2,8.7-7.4,9.4-15.7s.5-3.5-1-3.5ZM322,538c-1.4-.8-10.2-3.8-11-3-.7,6.6.7,19.8,10,17h1c0,.3,1.2,2.3,2,2v-14.3c-.5-1.2-1.2-1.2-2-1.7ZM352,566c1.7-1,1.1-5.6,1-7.5-.2-2.9-1-15.7-2.7-16.5l-15.6-2.8-4.6,4.3c6.3,2.9-.2,10.8,3.9,16.9s1.8.5,2.1.6c1.3.9,2.1,2.1,4,2,.3.8,6.1,3.9,7,4s4.3-.6,5-1ZM419,549c0-1.2.8-4.2-1-4,0,5.1.1,10.3,0,15.4,0,1.7-2.5,2.9,1.1,2.6,0,1.7,0,3.3,0,5,2.5,1.2,1.6-1.8,2.7-2,2.2-.5,3.6,0,6.3-1s3.1-2.3,5-4,1.4.1,2-.4l1-18.6h-14.9c0,.1-2.1,7-2.1,7ZM390,546c0,0-.3-1.3-1-.6l-.8,20.4c.9.5,1.9.8,2.8,1.1,2.3.8,9,2,10.8.7s.2-1.2.2-1.7h2s1,2,1,2c-.4-2.8,1.9-2,4-2l1-20c-6.7,0-13.4,0-20,0ZM380,546h-19l1,20h18v-20ZM479.5,561v1c.6-.3.6-.7,0-1Z"/>
      <path class="st9" d="M326,102c38.2,2.7,81.4-3.6,119,0,.5,0,.9.5,1,1-42.1-.8-91.3-2.5-132.6,1.9s-4.3.8-5.4-.9c5.5-1.3,12.3-1.8,18-2Z"/>
      <path class="st9" d="M588,276l-1,3c-.2,9.3-1,18.8-2,28-1.5-1-1.2-3.9-1.1-5.5,1.5-18.5,4-36.3,3.1-55-.4-7.5-2.5-14.9-2-22.5,3.2,17.8,3.6,33.9,3,52Z"/>
      <path class="st9" d="M178,413c-.4-1-.7-1.9-1-3v-65c.7-2.4.9-2.2,2-4l-1,72Z"/>
      <path class="st10" d="M197,185c2,.6,0,3-.5,4-3,7.3-6.5,15-8.4,22.6s1.1,4-2.1,3.4c2.6-10.9,5.9-20,11-30Z"/>
      <path class="st9" d="M182,278c3.1-.6,1.9,1.5,2,3.5.4,6.8.5,13.8,1,20.5-2.6-7.3-2.6-16.2-3-24Z"/>
      <path class="st10" d="M556,160c1.1.3,1.4,0,2.4,1s9.6,14.2,10.7,16.3c5,9.1,8.8,18.7,11.8,28.7l-3.7-3.2c2.5-4.7-2.3-5.6-2.3-9.8l-3,1c0-2.6,1.5-4.5.8-7.2s-3.8-4.9-4.5-6.1c-1.1-2-1.9-6.9-3.9-8.7s-3.4,1.2-3.4-5.4c-4.2-.5-3.4-3.6-5.1-6.6-.8-.2-2.1.1-3,0l1-3c.6,1,1.1,1.4,2,3Z"/>
      <path class="st9" d="M499,116c-.7,1.8-3.1.1-4.2-.3-5.8-2.1-12.2-5-17.8-6.7,7.3,1,15.2,4.1,22,7Z"/>
      <path class="st10" d="M508,121c8.4,4.2,14.4,7.3,22,13-5,.4-7.5-5-11.2-6.2s-5.4-.7-5.6-.9c-.5-.4,0-2.6-1.1-3.4s-4.6.7-4-2.5Z"/>
      <path class="st8" d="M587,279l1-3-1,3Z"/>
      <path class="st5" d="M350,122l.5,1,.5-1c1.3,0,2.7,0,4,0,.1,1.5,2.9,1.5,3,0,5.5,0,11.7,0,17,0s.7,0,1,0c-.6,3,1.5,1.9,3.5,2,17.3.6,39.9-2.1,56.1,0s1.3,2,1.9,2c2.1-.1,4.2-1.4,7.1-1s1.4,2.1,2,2.1c4,0,3.3-.6,8.3.4s5.9-2.1,4.6,4.6c1.8-3.8,3.4-3.4,7.5-2.9v2.9c2.1.8,2.6-1.8,3.1-2s1.4.1,2,0c2.4,8.7,4.9,4.6,10.5,4.9s10,2.4,13.5,3.1.7,0,1,0,.7,0,1,0c1.7,3.2,6.2,3,9,5,2.8,2,6.3,5.7,8,7-1.7,1-1.9,2.7-2,4.5-.7,7.3.5,15.6,0,23-.9,16.4-5.7,33.1-9.8,49.2-.6,2.3,1,5.8-2.2,5.3l2,1.5c-2.8,1.4-2.2,5.7-5,5.5l2,1c.9,2.6-1.6,1.5-2,2.7-2.8,8.7-5.2,15.2-9.3,22-.3.5-2.7.5-1.7,3.3-4.9.9-12.6,3.4-17,2s-.8-1.6-1.2-1.8c-3-1.2-7,2.8-10.1,4s-7.4.4-9.9,1c-4.3,1.1-6.8,4.4-12.8.8l-3,5c-.3,0-.7,0-1,0l-2,1c-4.8,1.6-12.2,6.9-17,10-4.3,1-7.7,2-11,5s-3,5.4-1,11c0,.7,0,1.3,0,2l-8,1-.7,4.6c1.5,2.8,4.3.8,6.7.5l-2,2,2,3.5-2,1c.6,2.8,1.7.1,2,4.5-9.2-3.9-18.5-2-28-1,.2-5-1.9-6.1-2.1-7.4-.5-3.8,1.7-18.2.1-20.1-7.7-4.2-15.6-8.3-23.3-12.4s-1.1-2.2-2.7-3c-5.9-2.9-13.8-2.9-20-4s-.7,0-1,0l-4-1c-3-.5-5.9-1.5-9-2-1.4-2.4-4-1.6-6-2,1.4-6.3-4.9-3.3-4-7.5l2-1c0-.7-3.6.1-1.5-3.5h-1.5s1-3,1-3c-1.5.2-3.1-.9-4.4-.7-3.1.4-2.5,3.1-6.6-.3l.5-2,3.5-.5c-5.3-1.5-.3-6.3-5.5-8.5s-.7,5.3-.8,6.3c-.4,4.5-3,9.9-5.3,13.7-2.5.6-15.6-2-15.3-6.1-5.5,5.6-7.7-1.4-10.5-2s0,3.3-2.5,2v-3s-3,4-3,4c-5.8-2.6-3.9-5.2-4-11h2c.6-3.5,0-7.2,0-10.5v-26c0-2,1.4-5.1-2-4.5-.3-3.8.5-8.3,0-12,1.2-10.7-5.3-21.3-6-32,7.9-7.6,14.1-13.3,23.3-19s1.1-2.3,2.7-3c4.4-2.2,12-4.9,17-7l11.5-3c3-.7,6.9-3.1,9.5-4,4.5-1.5,9.2-3.1,14-4-.8,1.2-2.3,3.1.5,3s0-1.5,1.2-2c2.2-.8,8.8-2.1,8.8,1l1.1-2.1h14.4c0,0,.5,3.1.5,3.1.2-3.1,5.5-2.5,4.5-5,.7,0,1.3,0,2,0ZM512.5,149v1c.6-.3.6-.7,0-1ZM260,173c-1.2,1.2-3,2.3-4,4l-1-1.5c.6,3.4-.8,8.9,0,11.8s1.9.5,2,.7-.4,1.8.7,2c2.6.6,6.3-1,8.3-1s1.3,0,2,0c2.5,0,5.9.8,8.8.8s3.7,1.5,3.2-1.8c.7,0,1.3,0,2,0,.6,2.1,2.9,2.3,4.9,1.9.3-.6,0-1.5,0-1.9,2.5-6.4,1.1-16,.8-22.8-4.5-2.8-9.5-.4-13.8-.2s-4.2-1.8-5.8-.8-.7,2.1-1.6,2.8c-2.9,2.3-4,3.3-6.5,6ZM448,211c0-3.8,2.5-7.9-2.5-9-3,5.6-12.1,2.4-17.5,3l2,1.5c-1.1,2.5-3.4-1-4,4.5s0,.7,0,1v1c-.7,4.4-2,8.6-2.6,13-.5,4,2.3,10.9-4.4,11.1v1c3.6-.7.5,6.1,2,9-5-1.8-5,.1-9,1l6,4c-4.7,3-6.4,2.7-12,3h-40c-.7,0-1.3,0-2,0s-.4-.6-.8-.7c-.7,0-1.1.7-1.2.7-18.8-2.9-15.1-16-17-30.5-.6-4.5-2.4-8.9-2-13.5-4.3,0-8.7-.1-13,0s-2,0-3,0-2.7,0-4,0l1,7c0,.3,0,.7,0,1l-5,1c4-.2,5.5,8.5,4.8,10.6s-2.3-.2-1.8,1.5l2.1.6-1.1,4.4,2-2c-.3,2.7.4,5.1.9,7.7s-.9,3.9,2.1,3.3c.5,4.1-1.1,9.7,2.5,13.1s2.3.7,2.5.9c.7.6.8,1.3,2,2s.9,1.1,3,2c1.1,2.5,8.6,7.8,12,9s1.4.9,3.4,1.1c18.5,1.7,44.5.3,63.6,0s1.1.9,2.3.7l21.1-17.8c2-2.8,2.9-20.1,3.6-24.9s.8-1.5,1-3c3.2.6,1.7-1.6,2-3.4,1-6.1,1.1-9,1-14.6Z"/>
      <path class="st5" d="M265,278c.5.2,1.3.7,2,1,11.9,5.7,32.8,6.5,47,12l4,1h1c2.5,2.6,7.6,1.8,10.3,3.2s1.5,2.4,1.8,2.7,2.8-1.2,4.2-.9.9,2,1.7,2.5c2.4,1.5,5.3,0,6,5.5,2.8.9,1.9-2.2,3.5-3l2.5,3,3-1c1.4,3.8-1.9,5.4-2.5,7.5-1.4,4.4,2.7,12,2.5,16.8l-5.6,4.7h-2s-1.5-2-1.5-2l-3,5c-3.2-.5-7.9-1.3-11-2s-8.3-3-13-4c.8-3.1-2.3-1.3-3-2.6s-.3-5.1-1.6-5.4h-4.4c-.4,1.7,1.4.5,2,1.8s.3,3.7,1,5.3c-2.8-.5-5.4-1.7-7-2,2.5-3.7-3.9-4-1-9-2.7,1.8-5.8,2.3-4,6l-4-2.6c-.5-3.5,5-4.4,7-6.9l-4-9.1,2.1-2c.6-2-5.4-8.9-6.6-9.4-2.1-.8-1.9,3.5-4.1,3.9l-4.9-2.9c-2.7.2.4,10.6-3,9s-2.5-10-10.5-8l-.2-4.8-3.8-1.1c1.3,5.1,2.6,10.9,1,16l9.9.9,1.1-1.9c.9,3.9-2.8,5.7-4,9,5.2,2,5.3-6.8,9-2.5l-2.9,1.7c-.5,1,2.4,7-1.6,7.8s-8.8-9.2-12.5-7c1.7,3.6,6.2,2,6,7-1.4-.7-3.4-.7-5-1l-7-4-.6,2c-3.3.3-5.6-2.8-5.9-2.8-.8-.2-3.7,1.1-5.5-.2,0,.7,0,1.4,0,2-3.4-.4-6.9-1-10.3-.8-3.4,2.9-6.6,4.7-9.7,7.8h-2.8c-.7.7-.7,3.1-1.2,4s-.8.7-1,1c-.3.6-1.8.7,0,2,0,.7,0,1.3,0,2l-2.6,7.5c-.3,2.2,3.9,2.1,2.6,6.8s-2.4-.2-2,2.1,3.1-.2,2,2.5l-3,1c4.8-1.3,1.3,3.4,5,3,.5,6.3,1.3,12.7,2,19s0,1.3,0,2c1.1,10.8-1.4,11.7,8,18,.4.3.9,1.3,2,2,.2,1.7,2.8,1.7,3,2,1,1.1,2.6,5.7,4.4,7.1s9.1,2.4,10.9,1.9.5-.7,4.7-1.4,11.3-2.4,17-3.6l4,3v-3c2.1-.3,2.2,0,2,2h1c.5-4.1,5.4-3.5,8-1v-2.9c3.9,0,7.4-1.2,11-2.1s3.5,1.1,4.7-2h1.3c4.6,0,7.6-1.9,11.7-2.8s7.1.4,10.3-2.2c-2.5,2-4.1,3.8-8,4l3.5,8c3.6-7.1,12.1-.8,17.9,0,1,0,.3-4.4,2.6,0-.4,1.3.2,1.7-1.9,2.4l.9,8c-5.5,1.6-6.1,5.2-5.1,10.6-2.9.3-4.5,0-5.1-2.9-4.4,2.1-1.3-1.4-4.9-1.1.5,3.8.8,5.1,4.6,5.9l-.6,8.1-4,.5c5.1,1.8,2.6,5.9,6,8.5,0,.7,0,1.3,0,2l-1,.5,1,.5c0,.7,0,1.3,0,2h-2c-.5,3.1.8,1.6,2,2,4.1,1.5,6.3,1.2,10,1s1.3,0,2,0,1.5-1,2-1c1.9-.1,3.7-.3,5,1.5-4.7-1-6.1,3.4-1,4.5-.3.4.8,5.4,1.2,5.8s1.6,0,1.8.2c2.1,1.7,8.3,8.4,10.4,7.9,4.4-4.6,9.9-18.1,17-17.9s8.9,6.7,10.6,12l1.8.2,2.2,5.8c-1.9.5-3.3,3.1-5,.5l3-2c-1.4-1.3-1.5-2.9-2-4.5-2.7.4-3.6,13.5,3,12l.5,2,.5-2c3.8.6,3.7.8,5,5h1c-.6-2.8,5-2.8,5.8-4.2s-.5-8.5,2.7-7.8.8,3.1,3.5,2l-3,2c5.6,1.7,9.9,1.3,15,5,1.4,4.6,3.3,9.1,4.1,13.9l9.9,1.1-21,2c-1.4,1-3.1,0-4,0v-1h-49c-.7,0-1.3,0-2,0-1-1.7-3.8-1-5.5-1-6.9,0-15-.7-21.5,1-.3,0-.7,0-1,0-.7,0-1.3,0-2,0-1.1,0-3,0-4,0s-1.3,0-2,0c-5.1,0-5.4-1.5-8-2s-1.3.9-2.3.7c-3.1-.8-8.3-2.1-8.7-6.2s2-9.6,2.3-10.7c1.5-4.6,3.4-9,5-14s3-6.1,3.4-9.1c.9-6.3-5.4-13.2-9.2-17.7-.9,3.5-2.2.9-4.5,1.4-8,1.9-14.6,6.4-22.2,8.9s-17.3,4.6-26.7,7.7-17.2,8.7-25,4c-13.9-8.8-21.6-23.1-30-36-1.1-2.7-2.5-5.5-4-8,2-2.7-4-7-4.6-8.9-.8-2.9-1.7-12.1,1.6-12.6-4.2-1.1-1.3-7.7-1.4-11.2,0-6.6-.3-12.6.3-18.7l4.1-2.6c.1.3.7.6,1,1,.7.8.8,2.2,2.5,2h1.5c.2-.6-.2-1.7,0-2,.6-1.1,1.4-2,2-3s2.4-1.1,2.6-3.5-2.1-9-2.6-12.5c4.5.5-1.8-4.3,2.9-4.1v-1.4c-3.2-1.3-2.5-2.9-3.9-5.5,0-.3,0-.7,0-1-.9-7.3-1.9-14.7-3-22,1.1-2.1,4.3-2.5,4-6,10.2-8.7,21.4-18.5,31-28l25,4ZM306,302c.8-.5,2.3-.2,2.3,1.2l.7,3.8c-3.4,1.4-5.5-3.4-3-5-1.6.6-5.6-1.4-6-1-3,8.3,7,8.5,8,10.5s-4,2-4.7,3.8-.7,2.4-.2,3.6c7,4.7,7.5-3.1,14.8-1.9l-1-3h4.9c0,0,.1-3.5.1-3.5l-7-1.5,2-5c-3.6,1.4-6.8-3.6-8.7-3.9s-2.1,1.8-2.3,1.9ZM208.5,361v1c.6-.3.6-.7,0-1ZM340,412c-.9,5,7,.4,4-5-3.4-.7-1.5,2.5-2,4.4.1,1-1.3.6-2,.6,0-.5,1.4-1.7,1-2-2.4,0-3.5-.6-3,2,.7,0,1.3,0,2,0ZM349,454l-9,1.5,7,2.5-.5-3,2.5-1ZM351,460v-1.5s-2-1.5-2-1.5v3s2,0,2,0ZM392.5,475v1c.6-.3.6-.7,0-1Z"/>
      <path class="st5" d="M400,477h-1l.5-1c.6,0,.4,1,.5,1Z"/>
      <path class="st2" d="M533,275c7.7,7.6,17,15.6,24,23.5s10.1,10.1,8.7,17.2-1.5,3.2-1.7,4.3c-1.1,5.1-2.6,10.1-3.2,15.4s-1.2,2.9,1.2,3.6c-1.3,7.8-7.5,20.7,4.5,22.1,3.2-.5,3.8-5.4,4.5-8.1,2-.8,2.7,1.5,3,3l-1,.5,1,.5c0,.7,0,1.4,0,2-1.7,1-1,3.8-1,5.5,0,7.6-.7,16.3,1,23.5,0,.3,0,.7,0,1,0,1.1,0,3,0,4s0,.7,0,1c0,.5-1.4,1.9-1,3h2c-.3,2.6.2,5.4-1,8-11.4,10.2-18.2,36.3-32.8,48-2.6,2.1-12.1,8.5-14.9,8.7s-3-2.3-4.1-2.7c-4.9-1.6-4.8.7-9.2-4.1s-2.8-2-2.8-2.2,0-4.4,0-4.6c.2-.4,2-.6,2.6-1.8,6.2-11.3,12.1-23.1,10.1-36.4,1.2-.5.7-1.4,1-2,3.4-2.3,1.9-2.8,2-3,.5-.9,12-12.1,14-14l1,1c-.1-1.1.8-2.1,1-3s0-.7,0-1c2.2-1,2.6-4.5,2.9-6.6.9-7.1.6-15.2,1.1-22.4s3.1-16.2,1-23c.1-1.8,1-3.8.7-5.8-4.3-5-8.1-8.7-13.7-12.2-.6-3.6-3.7-4.7-7-4l-1-39c2.1-.3,3.9-1.4,7,0ZM559.5,328v1c.6-.3.6-.7,0-1Z"/>
      <path class="st1" d="M526,275l1,39c3.3-.7,6.4.4,7,4-1.5-1-4.4-.3-4-3h-1c.5,3.6-2.5,1.1-5.1,1.4-4.9.7-8.5,2.1-13,3.6-1.7-1.3-3.1-.8-5-.6-5.4.7-11,1.2-15,4.6-5.6.8-11.3,2.1-17,3-1.5-2.9-12.4,1-15.5,1.1s-5.5-1.9-7.5-.6-.5,3.5-3.5,2.5l-1.5-2-.8,1.9-10.3,4.1c-2.7.2-8.3,1.6-9.5,1.6-2.6-.1-5.9-4.2-8.5-5.6.5-8.8-1.9-20.2,2-28,14.2-7.9,32.9-10.1,49-14,11.8-2.8,22.8-5.3,35-8,2.3,1.4,7.7-.6,10.2-1.3s5-1.1,6.8-2.7c2-.3,4-.7,6-1ZM458.5,326v1c.6-.3.6-.7,0-1Z"/>
      <path class="st1" d="M420,393c1,4,2.5,7.8,2,12l31.9-5.5c3.5,1.5,7.9-.5,10.1-.5s1.3,0,2,0c10.4,0,19.6,2.8,29,4,.2,3.9,7.1,1.8,10.2,3.1s6.1,2.9,8.5,3.9,6.5.1,9.3,0c1.9,13.3-4,25.1-10.1,36.4-.6,1.2-2.4,1.4-2.6,1.8s-.2,4.4,0,4.6,1.9,1.1,2.8,2.2h-1c-16.9-6-33.8-11.9-51-17-2.1-.6-4.2-1.3-6.4-1.8-1,.2-4.8,5.5-5.6,6.8-.6-5.5-6.9-2.8-9.7-3.7s-2.6-3.9-4.3-4.3c0,5.1.4,9.1-1,14,0-6.7.6-15.6-3-21.5s-6.2-3.6-8-13.5-2.4-9.6-2.9-13.6-.1-4.9-.1-7.4Z"/>
      <path class="st2" d="M531,162c4.3,6.4-2.1,12.8-1,20-2.8,11-4.6,20.5-5,32-3-.6-1.9,1.5-2,3.5-.2,7.1-1.4,15.2,2,21.5,0,.7,0,1.3,0,2-1.6.7-1.6,4.3,0,5,0,3.9-.4,7.8,1,11.6l-.9,1.9c-10.8,3.2-22,5.4-33,7.5s-3.3.7-5,1c-1-2.7,1.4-2.7,1.7-3.3,4.2-6.9,6.6-13.4,9.3-22,.4-1.2,2.9,0,2-2.7l-2-1c2.8.1,2.2-4.2,5-5.5l-2-1.5c3.2.5,1.6-3,2.2-5.3,4.1-16.2,8.9-32.8,9.8-49.2s-.7-15.7,0-23,.3-3.4,2-4.5c5,3.8,10.7,7.8,16,12Z"/>
      <path class="st12" d="M405,382c3.3,16.5,3.9,32.5,11,48l1,1c.3.7.7,1.3,1,2v1c-3.2-1.6-7.7-7.3-9,0-.4-1.1-1.8-3-2-4-1.4-6.6-1.5-14.1-4-20.6l2-2.4-4-3c-.8-4.3-2.5-15.4-5.7-18.1s-16.6-.5-21.3,0l-2-1.4c-1,5.4-2.6,10.8-3.7,16.2s-2,7.1-.3,9.2c0,.3,0,.7,0,1h-2c-.3.8,1,.9,1,1,.1.5,0,1.4,0,2-4.8-.3-2.1-.6-2.3,1.8-.6,6.1-5.6,35.3-7.5,39.9s-2.1,1.2-2.2,1.3c-5.1-1.1-3.7-5.5,1-4.5-1.3-1.8-3.1-1.6-5-1.5v-15c.6-.9,1.1-2.6,2-4s1.6-2.1,2-3,1-1.8,1-3c2.9-1.2,2.4-3.7,3-6,.5-.1.9-.5,1-1,.6-4.1.4-9.3,1-14s1.2-9.3,2-14,2.1-11.8,3.1-17.3,2.6-12.4,4.6-13.7,2.9-.6,4.3-.9,1.3,0,2,0c0-.6.1-1.4,0-2,4.2,3.1,5.1-.9,5.7-1,3.1-.8,13.8,3.1,16.3,5.5,4.2,3.8,4.8,14.6,6,20.5ZM362.5,418v1c.6-.3.6-.7,0-1Z"/>
      <path class="st6" d="M480.8,338.3c28.8-3.6,34.2,40.2,8.5,44.5-33.1,5.6-37.8-40.9-8.5-44.5ZM492.7,351.3c-1.6-1.6-5.9-3.3-8.2-3.4-15.7-.6-16.1,25.3,1.9,23,9.4-1.2,12.7-13.2,6.3-19.6Z"/>
      <path class="st6" d="M282.8,338.3c11.9-1.6,22.4,5.8,25.1,17.4,5.7,24-26.8,38.1-40.3,18.3s-.9-33.4,15.2-35.7ZM276.3,367.7c12.9,13.2,29.6-9.3,16-17.5-12.3-7.5-25.6,7.6-16,17.5Z"/>
      <path class="st4" d="M434,449c1.4-4.9,1-8.9,1-14,1.6.4,2.7,3.8,4.3,4.3,2.8.9,9.1-1.8,9.7,3.7-1.5,2.3-2.7,3-3.4,6.2s.2,3.5.4,5.8l-2,.5,3,4.5c0,.3-.1.7,0,1l1,1c.1.4.7,1.2,1,2-2.3,3.2,2.6,8.8,4,12,4.1,9.6,7.2,15.7-6,18s-2-.1-3,0l-9.9-1.1c-.8-4.8-2.8-9.3-4.1-13.9s-2.3-10.5-5-15c.9-1.1-.5-3,.2-3.8s2.3.5,1.8-1.1l-3-2,8-5c.3,0,.7,0,1,0,1.5-.5.7-2.1,1-3Z"/>
      <path class="st2" d="M541,199c.8-5.3,1.8-6,2.7-9.7s-.4-5.3.4-7.3c1.6-1.8,5.6,8.4,8,8.7.4,5.6-.7,11.2-2,16.5s-1.8.4-2,2.2c-.6,4.5-1.4,20.3-.9,24.6-3.3-.3-1.4.7-1.1,2.6,1.1,7.7,1.4,16.5,5.1,23.4l5,14c-6,.9-7.7-6.6-12.9-8.1,1.8-4.7-.9-3.6-1.1-4.5-.7-3-1.7-13.8-2-17.3s-1-7.8-1-9.5v-17.5l1.9-.4-.9-16.6c0-.1.9.1,1,0l1-.5-1-.5Z"/>
      <path class="st2" d="M417,376c5-.5,1.3-2.9,1.1-5.5s0-3.9-.1-5.9l3.1-2.6c3.7,1.8-2.1,4.2-2.1,4.5l3.1,7.4,1.5-2,3.5,2c1.2,3,8.7,15.8,11.1,17.4,5.1,3.5,12.6,3.3,18.2,4.6s.7,1.7,1.4,1.9c1.9.4,5-.9,6.3,1-2.2,0-6.6,2-10.1.5l-31.9,5.5c.5-4.2-1-8-2-12s-1.8-4.6-2-10,0-1.3,0-2,0-1.7-1-2c0-1,0-2,0-3Z"/>
      <path class="st2" d="M399,325c.2,2.5.9,5.5,1,7,.2,4,.2,8.1-1,12h-29c.2-5.1,0-10.4,0-15.5s.9-3.7,1-4.5c9.5-1,18.8-2.9,28,1Z"/>
      <path class="st3" d="M272,321c.2-5-4.3-3.4-6-7,3.6-2.3,11.1,7.3,12.5,7,4.1-.9,1.1-6.9,1.6-7.8l2.9-1.7c-3.7-4.3-3.8,4.4-9,2.5,1.2-3.3,4.9-5.1,4-9l-1.1,1.9-9.9-.9c1.6-5.1.3-10.9-1-16l3.8,1.1.2,4.8c8-2,7.6,6.6,10.5,8s.3-8.8,3-9l4.9,2.9c2.2-.4,2-4.7,4.1-3.9s7.2,7.3,6.6,9.4l-2.1,2,4,9.1c-2,2.5-7.5,3.4-7,6.9l4,2.6c-1.8-3.7,1.3-4.1,4-6-2.9,5,3.5,5.3,1,9-3.5-.7-9.1-.1-13-1-4.6-1.3-6.6-1.3-11-2l-4-1c-.3,0-.7,0-1,0-.6-.5-1.3-1.7-2-2ZM274,300h-2v3h2v-3ZM292.8,301.2l-8.8-1.2,1,5c.5.5,4.3-2.3,5.5,0,1.9,4.8-2.2,7.1-2.6,9.5s3.6,2.3,2.1,5.5h3s1.9-11.9,1.9-11.9h-2.9c-.4-2.7,0-2.6,2.1-3.6l-1.3-3.2ZM281,309l3-2.5-1.5-1.5h-1.5s0,4,0,4ZM279.5,306v1c.6-.3.6-.7,0-1ZM286,311h-2v2h2v-2ZM284.9,317.1c-2.5-.4-3.3,1.7-2.9,3.9l4.5,2c3.9-3.1-1.3-3-1.6-5.9ZM293,321c-1.9-.3-3.3,1.2-3,3h3s0-3,0-3ZM301,324h-2v1h2v-1Z"/>
      <path class="st0" d="M344,374v3c2.4-1.8,4.2-2.9,7-1,0,.6.1,1.4,0,2-9,1.8-5.4,9.9-3,16-2.5-1.6-4.1-2.3-7-1l3,1c-1.9,1.7,1.4,6.7,4,7-.3,1.6-.6,1.9-1,3-2.4-4.4-1.6,0-2.6,0-5.8-.8-14.2-7.1-17.9,0l-3.5-8c3.9-.2,5.5-2,8-4s.7-.7,1-1l2-1c1.2-1.7,1.9-5.4,3.2-7.3s6.6-7.9,6.8-8.7Z"/>
      <path class="st0" d="M409,434c1.3-7.3,5.8-1.6,9,0s1.3.7,2,1c0,.3,0,.7,0,1,.4,3.7-1.6,14.9,2,16s1.4,0,2,0c2.2.2,5.9.3,8,0l-8,5,3,2c.4,1.7-1.4.6-1.8,1.1-.6.9.8,2.8-.2,3.8-.3-.5-1.7-1.2-2.4-2.1s-.4-2.3-.8-2.7c-.7-.5-2.5.2-3.5-.5s-1.4-3.8-5.3-1.7c-.7-5.2-4.6-19.4-4-23Z"/>
      <path class="st3" d="M219,192c2.6,9.1,5.2,18.5,6.8,27.8s-1.2,5.8,1.2,9.2l3-2.5c-1.3-7.4-1-15-1-22.5,1.4,1.6,1.8,4.4,2,6.5,1.1,13.9.2,33.7-2,47.5s0,.7,0,1l-3-2c3.6-5.4,3.2-13.1,3-19.5s.8-3.7-1-3.5l-1,4-2-2c-.8,4.3.3,4.5,3,7h-4c0,0-1,4.6-1,4.6l1.9.4c.4,1.6-1.7.5-2,1.6-1.2,4.8,2.6,3.7,2,7.3l-3.6.9c.5,5.6-2,4.6-2.4,5.1,2.5-14.8,4.9-27.7,4-43s-1.9-17.1-5-25c.2-1.1.5-2,1-3Z"/>
      <path class="st10" d="M238,172c2.1,7.3,6,16.2,7,24s-.3,8.2,0,12c1,14.7-.2,26.8,0,41s-1.8,8.4,4,11,5.2,1.2,8,2v3s-3-2-3-2v3s-2.9,0-2.9,0l-1.1-2.4,2-1.5c-2.6.1-5.6,0-7.6-2s-.9-4.4-3.4-4.1l2.1-4.4-4.1-3.1,4-.5c.3-.2-.7-1.8-.5-2.4,1-3.2,1.5-8.7,1.4-12.2s-1.5-5.7-.8-8.8l-3.1-1.1c4.6-1.2,4.3-2.9,3.6-7.5s-1-1.8-1.6-2.5c2.9,0,1.6-6.4,1-8.8s-1.8-.7-1.9-1.4c-1.2-4.2,3.3-2.1.9-6.6s-2-.8-1.9-1.3c.7-2.9,4.5-4.2-1-8l2-.5v-2c-4.6-.5-2.5-7.8-2.9-11.4l-.8-.6.7-1Z"/>
      <path class="st1" d="M221,189c.5-.6,2.9-4,4-3,2.6,4.7.6,11.1,4,15,0,1,0,2,0,3,0,7.5-.3,15.1,1,22.5l-3,2.5c-2.4-3.4-.7-6.4-1.2-9.2-1.6-9.3-4.2-18.7-6.8-27.8.5-.9,1.3-2.2,2-3Z"/>
      <path class="st1" d="M219,263c.4-.5,2.9.5,2.4-5.1l3.6-.9c.6-3.7-3.2-2.6-2-7.3s2.4,0,2-1.6l-1.9-.4,1-4.5h4c-2.7-2.5-3.8-2.7-3-7l2,2,1-4c1.7-.2.9,2.3,1,3.5.3,6.4.6,14.1-3,19.5l3,2c-1.4,7.4-5.9,15.1-14,16-.8-2.6,1.4-1.6,2-2.7,1-2.1-.3-6.7,2-9.3Z"/>
      <path class="st10" d="M368,495c.7,0,1.3,0,2,0,16.3,0,32.7,0,49,0v1c-.2,0-1.6,1-3.4,1.1-24.4.5-49.3-1.5-73.6.5s-1-1.3-2-2.6c.3,0,.7,0,1,0,9,.2,18,0,27,0Z"/>
      <path class="st10" d="M377,122l19.4-.9,1.1-2.1,1.9,2.1h24.1s2.4-2.1,2.4-2.1l.6,2c11.7,0,23.4,1.6,34.8,4.1l.6-1.4,1,2.3c-25.9-5-59.2-3.8-86-4Z"/>
      <path class="st10" d="M413,290c-2.3,1.5-2.8,4.6-7,4l1,4h-4c-.3,2.7,0,2.5,2,3.5-2.5,1.9-2.6,4.4-1.1,7.1l-2,.9.2,1.9,3.9,3.1-4.1,2.2v11.3s6-1.5,6-1.5l-2,4.5-2.5-2c-3.9,1.8-2.2,12.3-2.5,16l-2-1c1.2-3.9,1.2-8,1-12,.1-8,.6-16,1-24s0-1.3,0-2c.1-3.8.4-7.3,1-11,3.3-3,6.7-4,11-5Z"/>
      <path class="st3" d="M202,360l-4.1,2.6c-.6,6.2-.4,12.1-.3,18.7s-2.8,10,1.4,11.2c-3.3.5-2.4,9.7-1.6,12.6s6.6,6.2,4.6,8.9c-1.4-2.4-3.1-4.9-5-7-.1-.3.1-.7,0-1-3.3-9.9-1.2-24.8-1-36s-.9-15.4,0-23c4,2.8,4.2,9.5,6,13ZM200,359l-1-4h-1s0,4,0,4h2Z"/>
      <path class="st10" d="M329,293c-2.7-.6-7-.6-10-1h-1l-4-1c-14.2-5.5-35.1-6.3-47-12,2-1.6,6.9-.2,9.2.3,15.5,3.4,31.4,7.3,46.8,11.2s4.5,1.1,6,2.5Z"/>
      <path class="st2" d="M353,370h-3c-.2,1.2,1.9,1.7,2,2,.2.4-.2,1.4,0,2-1,.3-.9,1.2-1,2-2.8-1.9-4.6-.8-7,1v-3c1.4-4,.5-15.3,6.5-17,2.1,4.1,2.9,8.3,2.5,13ZM348.5,372v1c.6-.3.6-.7,0-1ZM346.5,373v1c.6-.3.6-.7,0-1Z"/>
      <path class="st3" d="M329,293c7.9,1.8,16,6.7,23.4,9.9,1.3,1,.5,2.8.6,4.1.7,7.3,1.2,14.7,1,22-2.2,3.6-8.6,7.4-12.7,7.8s-1.2-.8-1.3-.8l3-5,1.5,2h2s5.6-4.7,5.6-4.7c.2-4.8-3.9-12.4-2.5-16.8s3.9-3.7,2.5-7.5l-3,1-2.5-3c-1.6.8-.7,3.9-3.5,3-.7-5.5-3.6-4.1-6-5.5s-.8-2.4-1.7-2.5c-1.5-.3-3.9,1.2-4.2.9s-.2-1.9-1.8-2.7c-2.7-1.3-7.8-.6-10.3-3.2,3,.4,7.3.4,10,1Z"/>
      <path class="st10" d="M209,302c.3,3.5-2.9,3.9-4,6-2.3,4.4,0,13.5,1,18.6s-.1,2.5,2,3.4c0,.3,0,.7,0,1,.4,3.5.5,7.4,1,11s2.8,9.5,2.6,12.5-2.1,2.6-2.6,3.5c-.3-2.2.5-5.3,0-7.3s-3.3-1.1-3.1-3.2l2.1-5c-5.4-2.5-.9-2.3-1.2-6.7s-2.7-7.6-2.7-11.1l-3.1-1.1,3-.5c.7-3.2-.9-2.9-3-4.5l2-3-2-1.9c1.2-1.5.9-4,1.6-5.3,1.1-2.1,4.7-4.8,6.3-6.2Z"/>
      <path class="st10" d="M230,195c4.3,16.7,3.6,42.3,1,59.5s1.3,4.1-2,3.5c2.2-13.8,3.1-33.6,2-47.5-.2-2.1-.6-4.9-2-6.5,0-1,0-2,0-3,0-1.9-.7-4.9,1-6Z"/>
      <path class="st0" d="M427,374l-3.5-2-1.5,2-3.1-7.4c0-.3,5.8-2.8,2.1-4.5l-3.1,2.6c0,2,0,3.9.1,5.9s4,5-1.1,5.5c-.1-3.5-1.5-6.8-.9-10.4s4.6-6.3,4-10.6c4.8,4.3,4.7,13.3,7,19Z"/>
      <path class="st10" d="M237,397c1.8,1.1,2,1.3,3,2s2-.2,3,.5c1.6,1.2,1.3,5.8,5.7,6.2s18.9-2.6,21.1-4.1.2-1.6.3-1.6c.6-.3,1.6,1.6,2.6,1.8,2.1.4,6.9-3.9,9.4-.8-1.3.3-3.8,1.8-5,2-5.6,1.1-11.3,2.6-17,3.6s-3.6,1.1-4.7,1.4c-1.8.5-9.4-.8-10.9-1.9s-3.4-5.9-4.4-7.1-2.8-.3-3-2Z"/>
      <path class="st10" d="M525,405c-.2.7-.8,1.4-1,2-9.8-.4-19.3-2.7-29-4s-18.6-4.1-29-4c-.9-3.3,6-2.1,7.4-1.9,17.1,2.4,34.3,8,51.6,7.9Z"/>
      <path class="st10" d="M533,275c-3.1-1.4-4.9-.3-7,0s-4,.7-6,1c-6,1-11.2,2.7-17,4-12.2,2.7-23.2,5.2-35,8,1.7-5.3,11.4-3.7,16.1-5.5s10.5-3.3,17.5-4.9,6.1-.3,6.4-.6l-1-3c2.7-1,1.6,1.8,2.6,2,2.4.5,7.9-1.4,10.6-2.1s-1.1-.7,4.1-1,4.2-2.3,8.6,2.1Z"/>
      <path class="st3" d="M433,279l3-5c6,3.7,8.5.3,12.8-.8s6.4.3,9.9-1,7.1-5.2,10.1-4,.8,1.7,1.2,1.8c.3,3.9-2.5.7-4.4.9s-.5,1.6-1.4,1.9c-4.6,1.8-9.9,2.8-13.9,4s-12.2.9-17.2,2.1Z"/>
      <path class="st10" d="M377,357c0-.2-1.3-.2-1-1l7.9-1.2,1.1-2.9c-.8,5.2,2.1,1.8,5,2.5s11.3,4.9,13.2,8.8,3.3,14,1.8,18.7c-1.2-5.9-1.8-16.8-6-20.5s-13.2-6.2-16.3-5.5-1.5,4.1-5.7,1Z"/>
      <path class="st10" d="M225,328c.4,10,.1,20.5,2.3,30.3s1,1.6,1.7,2.2l-2,2.5h3s-2,2.5-2,2.5l2,2-3,7.5c-.7-6.3-1.5-12.7-2-19s-1.7-15.5-2-23,0-1.3,0-2v-2c.2-.3.8-.6,1-1h1Z"/>
      <path class="st10" d="M363,391c-2.4-1.7.8-6.6-3-6l4-4.5c-4.9-2-.5-3.1.2-4.9,1.1-3.1.8-8.8,2.3-12.6s4.3-6.6,4.6-6.9,4.9.7,3.9,2.9c-1.4.3-2.9,0-4.3.9-2.1,1.3-4.2,11.1-4.6,13.7-.9,5.6-2.1,11.8-3.1,17.3Z"/>
      <path class="st3" d="M474,327c-7.8,1.2-16.8,1.8-24,5-5.2.4-9,1.4-15,2l10.3-4.1.8-1.9,1.5,2c3,1,2.5-1.9,3.5-2.5,2-1.3,5,.6,7.5.6s14-4,15.5-1.1Z"/>
      <path class="st10" d="M303,327c1.6.3,4.2,1.5,7,2s4.3.6,6,1c4.7,1,9.1,3.1,13,4-2.1,4.5-4.5.3-7-.5s-6.5-1.2-9.6-2.4l-1.4,1.9c.4-3.6-2.2-1.1-4.1-1.5-5.6-1.4-11.4-3.9-16.9-5.4,3.9.9,9.5.3,13,1Z"/>
      <path class="st10" d="M512,455c-4.8,1.3-12.1-2.7-17.3-4.3-9.3-3-20.3-7.2-30.6-10.4s-3.8.7-3.2-2.3c17.2,5.1,34.1,11,51,17Z"/>
      <path class="st3" d="M349,403c.3,5.4-1.1,14.7-4,19.2s-2.6,1.5-3.5,2.7c-5.8,7.4-4.7,9.7-4.5,19.1-3.4-2.6-.9-6.7-6-8.5l4-.5.6-8.1c-3.8-.8-4.1-2.2-4.6-5.9,3.5-.3.5,3.1,4.9,1.1.7,3,2.3,3.2,5.1,2.9-1.1-5.4-.5-9,5.1-10.6l-.9-8c2.1-.8,1.4-1.1,1.9-2.4s.7-1.4,1-3,0-.7,0-1c1.3.5.9,1.9,1,3Z"/>
      <path class="st10" d="M330,122c-4,.3-9,1.3-13,2s-9.5,2.5-14,4c-7.4.9-14.2,4.2-21,7s-12.6,4.8-17,7c8.7-5,17.9-9.3,27.5-13s9.5-3.1,14.4-4.1l-.4-1.9c4,2.5,9-.8,13-1.5s8.8.5,9.6-1.9l.9,2.3Z"/>
      <path class="st10" d="M540,200l.9,16.6-1.9.4v17.5c0,1.7.8,6.9,1,9.5l-4-2,2-1v-28.5c0-5.8.5-2.2,1-4.2.7-3-.9-4.7,1-8.3Z"/>
      <path class="st3" d="M330,122c.7,0,1.3,0,2,0,5.1-.3,10.8,0,16,0,1,2.5-4.3,1.9-4.5,5l-.5-3h-14.4c0,0-1.1,2-1.1,2,0-3.1-6.6-1.8-8.8-1s-.3,2-1.2,2c-2.8,0-1.2-1.8-.5-3,4-.7,9-1.7,13-2Z"/>
      <path class="st3" d="M479,131c5.9,1.6,11.6,4.3,17,7-3.5-.6-10.5-2.9-13.5-3.1-5.5-.3-8.1,3.8-10.5-4.9,3.1-.7,3.8.1,7,1Z"/>
      <path class="st10" d="M420,393c0,2.5-.1,4.9.1,7.4.4,4,2,9,2.9,13.6l-5-2c3.7-3.5.7-4.7.5-7.5s.6-6.4-.5-9.5l-3,.5c6-2-.7-7.9,3-12.5.2,5.4,1,5.9,2,10Z"/>
      <path class="st9" d="M196,370c-.2,11.2-2.3,26.1,1,36-2.7,0-2.8-1.2-3.1-3.5-.9-7.9-.2-20.7,0-29.1s-1-4,2-3.5Z"/>
      <path class="st10" d="M261,454c-.4,5.1-9.3,2.5-8,8-6.9-.8-11.6,1.1-18-3l1-1c7.8,4.7,16.8-1.4,25-4Z"/>
      <path class="st9" d="M419,302c-3.9,7.8-1.5,19.2-2,28-.4-.2-1.8.6-2-.6l1-26.9c.9-.7,2.6-.2,3-.5Z"/>
      <path class="st3" d="M239,164c.7,10.7,7.2,21.3,6,32-1-7.8-4.9-16.7-7-24s-.9-5.1-1.1-7.4c.3-1.2,1.9-.5,2.1-.6Z"/>
      <path class="st12" d="M352,374c1,3.9-.6,6.7.5,10.5l-3.5,18.5c0-1.1.3-2.5-1-3,.6-4.2,1.9-7.4-1-11h2.9c-.4-4.1.4-7.3,1.1-11s0-1.4,0-2,0-1.7,1-2Z"/>
      <path class="st10" d="M309,397h-1.3c-1.1,3.1-2.8,1.5-4.7,2-.8-1.8-3.3-.4-4.7-.2-4.7.8-9.7,1.2-14.3,2.2l3.9-2.1v-2.9c5.5,3.5,11.7.3,17.6-.1s3.2,1.1,3.4,1.1Z"/>
      <path class="st10" d="M525,238c4.2-.3,2.4,0,3,2.5,1.4,6.6-.7,3.7-1,5.2-.6,2.9.4,10.6,2,13.3l-2.8.2-.3,2.7c-9.8.7-19.2,4.1-28.9,5.7s-4.1,1.3-5-.6c11.1-2.1,22.2-4.3,33-7.5l.9-1.9c-1.4-3.8-.9-7.7-1-11.6s0-3.3,0-5,0-1.3,0-2,0-.7,0-1Z"/>
      <path class="st10" d="M375,122c-5.3,0-11.5,0-17,0s-2,0-3,0-2.7,0-4,0-.7,0-1,0c0-4,9.6-1,11.5-1,4.3,0,9.1-2.7,13.5,1Z"/>
      <path class="st3" d="M303,399c-3.6.9-7.1,2.2-10.9,2.1v2.9c-2.7-2.5-7.6-3.1-8.1,1h-1c.2-2.1.1-2.3-2-2v3s-4-3-4-3c1.2-.2,3.7-1.7,5-2s1.4.1,2,0c4.6-1,9.6-1.4,14.3-2.2s3.9-1.6,4.7.2Z"/>
      <path class="st12" d="M547,234c.3,2.3,1.6,4.3,1.9,6.6.8,6.4,1.3,13,2.1,19.4-3.7-6.9-4-15.6-5.1-23.4s-2.2-3,1.1-2.6Z"/>
      <path class="st10" d="M287,268c5.2.9,10.7,2.9,16,4s4.6-.4,6,2c-6.6-1-14.1-1.7-21.1-3.3-1.9-.4-2.9.3-2.9-2.7.6,0,1.4-.1,2,0Z"/>
      <path class="st10" d="M575,394h-1c0-.3,0-.7,0-1v-4c0-.3,0-.7,0-1,.2-6.6-.8-13.6,1-20,.9,10.2.7,15.9,0,26Z"/>
      <path class="st10" d="M267,320c1.6.3,3.6.3,5,1s1.4,1.5,2,2c-3.7-.5-7.4.5-11-2v3c-2.8.8-1.7-2.1-4.2-3.3s-6.7.2-8.8-2.7c5.4.8,11.7,1.1,17,2Z"/>
      <path class="st0" d="M542,388c.5-2.3.7-4.7,1-7,.8-6.6,1.3-13.3,1-20,0-.1.8-.8,1-2h1c-.5,7.2-.2,15.3-1.1,22.4-.3,2.1-.6,5.6-2.9,6.6Z"/>
      <path class="st10" d="M235,395c-9.4-6.3-6.9-7.2-8-18,3.5,0,2.1,1.2,2.3,2.8s.9,8.7,1.2,9.2c1.1,1.7,5.4,2,4.5,6Z"/>
      <path class="st0" d="M525,214c-.2,5.3,0,10.7,0,16s0,4,0,6,0,1.3,0,2,0,.7,0,1c-3.4-6.3-2.2-14.5-2-21.5s-1-4,2-3.5Z"/>
      <path class="st10" d="M265,278l-25-4c.2-.2-.5-1.8.6-2.1,2.2-.5,19.4,3.4,22.4,4.5s1.6,1.4,1.9,1.5Z"/>
      <path class="st10" d="M511,320c-.6.2-1.6,1.1-2.9,1.6-2.8,1-6.9-.9-7.1,3.4l-1.5-2c-2.7,1.6-5.8.7-8.4,1.1,4-3.4,9.6-3.8,15-4.6s3.3-.8,5,.6Z"/>
      <path class="st10" d="M361,405c-.6,4.7-.4,9.9-1,14-.4.2-.9.6-1,1-.6,2.3-.1,4.8-3,6,.1-5,.3-1.6.9-3.7,1.1-3.7,1.2-9.7,1.9-14s-.8-3.9,2.1-3.3Z"/>
      <path class="st10" d="M474,327c.9,1.8,0,1.8-1.5,2-4.4.7-8.7,1.2-13.1,2s-5.2.8-9.4,1.1c7.2-3.2,16.2-3.8,24-5Z"/>
      <path class="st10" d="M343,281c.5,3.1-1.1,2-3.1,1.6-3.5-.7-6.4-2.5-9.7-3.4s-5,1.5-7.2-2.2c6.2,1.1,14.1,1.1,20,4Z"/>
      <path class="st10" d="M223,220c-3.2.6-1.8-1.6-2-3.5-.4-3.6-.8-7.1-1.3-10.7s-2.6-6.6-1.7-10.8c3.1,7.9,4.5,16.6,5,25Z"/>
      <path class="st1" d="M575,368c-1.8,6.4-.8,13.4-1,20-1.8-7.2-1.1-16-1-23.5s-.6-4.4,1-5.5c.4,2.8.8,6.2,1,9Z"/>
      <path class="st3" d="M248,317c0-.6,0-1.3,0-2,1.8,1.3,4.7,0,5.5.2s2.6,3.2,5.9,2.8l.6-2,7,4c-5.3-.9-11.6-1.2-17-2s-.7,0-1,0c0-.6-1-.9-1-1Z"/>
      <path class="st3" d="M221,189c6.8-10.1,5.7-1.6,7,3.3s1.3.2,2,2.7c-1.7,1.1-1,4.1-1,6-3.4-3.9-1.4-10.3-4-15-1.1-1-3.5,2.4-4,3Z"/>
      <path class="st12" d="M546,359h-1c1-7.2,1.4-15.6,2-23,2.1,6.8-.5,15.9-1,23Z"/>
      <path class="st10" d="M530,182c-1.1-7.2,5.3-13.6,1-20,.9.7,3.8.2,3.8,3.3s-3.7,12.6-4.8,16.7Z"/>
      <path class="st0" d="M562,339c-2.4-.7-1.4-1.9-1.2-3.6.6-5.3,2.1-10.3,3.2-15.4-.1,5.2-.1,11.5-1,16.6s-1,2.2-1,2.4Z"/>
      <path class="st10" d="M444,494c1-.1,2.1.2,3,0-5.6,4-13.2.6-19.5,2.8l-4.5-.8,21-2Z"/>
      <path class="st9" d="M351,436v15c-.5,0-1.5,1-2,1,.7-4.3-1-11.6,0-15.3s2-.6,2-.7Z"/>
      <path class="st9" d="M353,307c2.9-.3,2,1.6,2,3.4.2,4.1.7,15.8-1,18.6.2-7.3-.3-14.7-1-22Z"/>
      <path class="st10" d="M422,452c-3.6-1.1-1.6-12.3-2-16,3.8,3.9,1.3,10.9,2,16Z"/>
      <path class="st10" d="M348,122c-5.2,0-10.9-.3-16,0,.5-1.7-1.9-3.8,1.5-2s13.1-1.7,14.5,2Z"/>
      <path class="st10" d="M543,381c-2-5.2-.7-13,0-18.5s1-1.4,1-1.5c.3,6.7-.2,13.4-1,20Z"/>
      <path class="st5" d="M284,268l.5-5h3.5s-1,5-1,5c-.6-.1-1.4,0-2,0h-1Z"/>
      <path class="st0" d="M453,476c-1.4-3.2-6.3-8.8-4-12,1.5,3.9,3.8,7.6,4,12Z"/>
      <path class="st9" d="M347,452c-3.7.2-5.9.5-10-1l10,1Z"/>
      <path class="st10" d="M479,131c.8-1.9,3.2-.5,4.5,0,3.5,1.2,7,3,10.7,4.4s3.3,0,2.8,2.7c-.3,0-.7,0-1,0-5.4-2.7-11.1-5.4-17-7Z"/>
      <path class="st10" d="M574,405c1.2-2.6.7-5.4,1-8s0-.7,0-1c1.6,1.3,1.3,5.5,1,7.5-.5,3.4-1.9,1.4-2,1.5Z"/>
      <path class="st10" d="M525,230l2,.6v5.4s-2,0-2,0c0-2,0-4,0-6Z"/>
      <path class="st10" d="M433,452c-.3,0-.7,0-1,0-2.1.3-5.8.2-8,0,2.4-2.4,6.4-2,9,0Z"/>
      <path class="st10" d="M332,495c-1.7,2-5.5.7-8,1v-3c2.6.5,2.9,2,8,2Z"/>
      <path class="st10" d="M338,495l-2.5,2-1.5-2c1,0,2.9,0,4,0Z"/>
      <path class="st10" d="M507,143c-2.8-2-7.3-1.8-9-5,5.5.8,5.3,2.4,9,5Z"/>
      <path class="st3" d="M207,361c-.2.4.2,1.4,0,2h-1.5c-1.7.2-1.8-1.2-2.5-2h4Z"/>
      <path class="st1" d="M575,396c0,.3,0,.7,0,1h-2c-.4-1.1,1-2.5,1-3h1c0,.7,0,1.3,0,2Z"/>
      <path class="st12" d="M353,370c0,.7-.5,1.5-1,2-.1-.3-2.2-.8-2-2h3Z"/>
      <path class="st3" d="M228,324c-.9.9-1.3,1.8-2.8,2.2l-.2,1.8h-1c.5-.9.5-3.3,1.2-3.9h2.8Z"/>
      <path class="st9" d="M202,414c1.5,2.5,2.9,5.3,4,8-3.2-4.9-6.8-9.4-9-15,1.9,2.1,3.6,4.6,5,7Z"/>
      <path class="st10" d="M322,277c-1.7-.3-3.2-.9-4-1l4,1Z"/>
      <path class="st10" d="M279,324c-1.6-.2-3.6-1-4-1l4,1Z"/>
      <path class="st3" d="M337,449c0,.7,0,1.3,0,2-1.2-.4-2.5,1.1-2-2h2Z"/>
      <path class="st0" d="M446,455c.2,1.7.5,3.4,1,5l-3-4.5,2-.5Z"/>
      <path class="st10" d="M418,381h-2c-.4-1.1,1-1.9,1-2,1,.3.9,1.1,1,2Z"/>
      <path class="st10" d="M355,429c-.4.9-1.4,2.1-2,3l-1-.5c1-1.6.7-3.1,3-2.5Z"/>
      <path class="st1" d="M526,405c-.1.2,1.4.7-2,3,.1-.3,0-.7,0-1,.2-.6.8-1.3,1-2h1Z"/>
      <rect class="st10" x="320" y="278" width="1" height="2"/>
      <path class="st3" d="M432,279c-.2,0-1.1.7-2,1l2-1Z"/>
      <path class="st0" d="M542,389c-.3.9-1.1,1.9-1,3l-1-1c.6-.6.9-1.7,2-2Z"/>
      <path class="st5" d="M334,390l-2,1c.9-.9,1.9-.9,2-1Z"/>
      <rect class="st10" x="360" y="376" width="1" height="2"/>
      <path class="st10" d="M575.5,362c.6.3.6.7,0,1v-1Z"/>
      <path class="st10" d="M575.5,359c.6.3.6.7,0,1v-1Z"/>
      <path class="st1" d="M574,357l-1-.5,1-.5c0,.3,0,.7,0,1Z"/>
      <path class="st10" d="M417,431l-1-1c.1.2.8.5,1,1Z"/>
      <path class="st10" d="M420,435c-.7-.3-1.3-.7-2-1v-1c.1.3,1.6.6,2,2Z"/>
      <path class="st3" d="M337,447l-1-.5,1-.5c0,.3,0,.7,0,1Z"/>
      <path class="st10" d="M249,318c-1.3-.2-.9-1-1-1,0,0,1,.4,1,1Z"/>
      <path class="st0" d="M448,462l-1-1c0,.3.9.6,1,1Z"/>
      <path class="st10" d="M541,200c.1-.2,0-.6,0-1l1,.5-1,.5Z"/>
      <path class="st8" d="M330,211c1.2,3.1,11.4,1.4,12,2,1.4,10.1.7,24.2,3.8,33.7,1.2,3.7,4.9,8.8,9.2,8.3l-2,3c4.4-3.6,8.6-.6,13.5-.6,9.1,0,21.1-1.6,30.1-.5,2.3.3.9,2.1,1.9,2.1l1.1-2.1h18.4c0,0,0-3.9,0-3.9l1.5.8,1.5-3.8c.3-.2.8-1.3,2-2s1.6.4,2.3,0c1-.6,1.1-2.8,3.7-2,.7-2.7-1.7-1.9-3-3.5l2-3c-5.5-2.1,1.1-7.2-1-10.9l2-.6-1.9-1.1c1.6-2.7.4-5.8.9-8.4,1.7-8.8,11.7-4.3,18-6l-2.7,18.5.7,1c-.7,4.8-1.6,22.2-3.6,24.9l-21.1,17.8c-1.2.2-2-.7-2.3-.7-1-1.7-3.8-1-5.5-1-8.1-.1-58.8,1.5-61.5,0s.3-1.3-.8-1.9c-1.6-.9-6-2.3-7-3.3-2.6-2.8,1-1.5-4.2-3.8-.1-.3.2-1.3-.2-1.7l-2.8-.3c-1.2-.7-1.3-1.4-2-2-.1-2.3-2.3-3.6-2.8-5.7-1.7-7.3-2.2-19.3-3.5-27.5s0-6.6-2.7-5.8c0-.7,0-1.3,0-2s0-.7,0-1c.3-1.8,1.2-5.1,3-5.7v-1.3c1,0,2,0,3,0Z"/>
      <path class="st10" d="M330,211c4.3-.1,8.7,0,13,0-.4,4.7,1.4,9,2,13.5,1.9,14.5-1.7,27.6,17,30.5h2c.7,0,1.3,0,2,0,12.3.6,27.7.6,40,0s7.3,0,12-3,2-1.4,3-2l-1.5,3.8-1.5-.8v4s-18.4,0-18.4,0l-1.1,2.1c-1,0,.4-1.8-1.9-2.1-8.9-1.1-21,.5-30.1.5s-9.1-3.1-13.5.6l2-3c-4.3.5-8-4.6-9.2-8.3-3.1-9.5-2.4-23.6-3.8-33.7-.6-.6-10.8,1.1-12-2Z"/>
      <path class="st10" d="M274,165c4.3-.2,9.3-2.6,13.8.2.4,6.8,1.7,16.4-.8,22.8h-5c-.7,0-1.3,0-2,0-3.8,0-9-.8-12,1-.7,0-1.3,0-2,0l-9-1-1-11c1-1.7,2.8-2.8,4-4,1.2,2.7-1.8,3-2,3.7-.5,2.5.5,4.9,1,7.3,4.1-.9,1.5-4.2,7-2l-2.5,5c4-1.1,6-1,8-5l1.5,5c1.9-1.3,2.9-5.1,6-2.3v2.3c2.1-1.1,4.5-1.7,6.5,0,0-2.1-1.6-4.3-1.6-6.5s1.8-1.2,2-2.1,0-8.8-.4-9.4c-4.2-2.7-5.4,1-7,4-2.2-1.2.3-3.9-2-5s-.9,3.2-2.5,1.5v-4.5Z"/>
      <path class="st10" d="M447,211c0,6-1.1,12.1-2,18s-1,2.6-1,3l-.7-1,2.7-18.5c-6.2,1.8-16.3-2.8-18,6-.5,2.6.6,5.7-.9,8.4l1.9,1.1-2,.6c2.2,3.7-4.5,8.8,1,10.9l-2,3c1.3,1.6,3.7.8,3,3.5-2.6-.8-2.7,1.4-3.7,2s-1.9-.2-2.3,0l4-37h20Z"/>
      <path class="st12" d="M448,211h-22c.6-5.5,2.9-2,4-4.5l-2-1.5c5.4-.6,14.5,2.6,17.5-3,5,1.1,2.4,5.2,2.5,9Z"/>
      <path class="st3" d="M423,248c-1.2.7-1.7,1.8-2,2-1,.6-2,1.4-3,2l-6-4c4-.9,4-2.8,9-1-1.5-2.9,1.6-9.7-2-9v-1c6.7-.2,3.9-7,4.4-11.1.6-4.4,1.9-8.6,2.6-13s0-.7,0-1,0-.7,0-1h1l-4,37ZM422.5,239v1c.6-.3.6-.7,0-1Z"/>
      <path class="st3" d="M401,308c-.4,8-.9,16-1,24,0-1.5-.8-4.5-1-7-.3-4.4-1.4-1.7-2-4.5l2-1-2-3.5,2-2c-2.4.3-5.2,2.4-6.7-.5l.7-4.6,8-1ZM398.5,310v1c.6-.3.6-.7,0-1Z"/>
      <path class="st10" d="M324,221c2.8-.8,2.4,4.1,2.7,5.8,1.3,8.2,1.8,20.2,3.5,27.5s2.7,3.4,2.8,5.7c-.3-.2-1.7-.2-2.5-.9-3.5-3.4-1.9-9-2.5-13.1-1-7.8-3.8-17.6-4-25Z"/>
      <path class="st9" d="M417,274c-19.1.4-45.1,1.8-63.6,0s-2.1-.6-3.4-1.1c2.7,1.5,53.4-.1,61.5,0,1.7,0,4.4-.6,5.5,1Z"/>
      <path class="st3" d="M245,208c3.4-.6,2,2.5,2,4.5v26c0,3.3.6,7,0,10.5h-2c-.2-14.2,1-26.3,0-41Z"/>
      <path class="st3" d="M324,219c0,.7,0,1.3,0,2,.2,7.4,3,17.2,4,25-3,.6-1.8-1.5-2.1-3.3s-1.2-5-.9-7.7l-2,2,1.1-4.4-2.1-.6c-.4-1.7,1.5-.5,1.8-1.5.6-2.1-.9-10.7-4.8-10.6l5-1Z"/>
      <path class="st3" d="M406,255c-12.3.6-27.7.6-40,0h40Z"/>
      <path class="st3" d="M448,211c0,5.6,0,8.5-1,14.6s1.1,4-2,3.4c.9-5.9,1.9-12,2-18h1Z"/>
      <path class="st3" d="M280,188c.5,3.2-1.3,1.7-3.2,1.8-2.9,0-6.3-.7-8.8-.8,3-1.8,8.2-1,12-1Z"/>
      <path class="st3" d="M256,177l1,11,9,1c-2,0-5.8,1.7-8.3,1s-.5-1.9-.7-2-1.7.5-2-.7c-.8-3,.6-8.5,0-11.8l1,1.5Z"/>
      <path class="st3" d="M401,306c-2-5.6-3.2-7.2,1-11-.6,3.7-.9,7.2-1,11Z"/>
      <path class="st10" d="M327,211v1.3c-1.8.6-2.7,3.9-3,5.7l-1-7c1.3,0,2.7,0,4,0Z"/>
      <path class="st3" d="M303,128c-2.6.9-6.4,3.3-9.5,4l-11.5,3c6.8-2.8,13.6-6.1,21-7Z"/>
      <path class="st3" d="M287,188c-.2.4.3,1.3,0,1.9-2,.4-4.3.2-4.9-1.9h5Z"/>
      <path class="st10" d="M335,262l2.8.3c.5.4.1,1.4.2,1.7,5.2,2.2,1.6,1,4.2,3.8s5.4,2.4,7,3.3.7,1.9.8,1.9c-3.4-1.2-10.9-6.5-12-9-2.1-.9-2-1.4-3-2Z"/>
      <path class="st3" d="M358,122c-.1,1.5-2.9,1.5-3,0,1,0,2,0,3,0Z"/>
      <path class="st3" d="M364,255h-2c0,0,.5-.7,1.2-.7s.6.6.8.7Z"/>
      <path class="st12" d="M426,213v-1c0,.3,0,.7,0,1Z"/>
      <path class="st2" d="M512.5,149c.6.3.6.7,0,1v-1Z"/>
      <path class="st3" d="M350,122c.3,0,.7,0,1,0l-.5,1-.5-1Z"/>
      <path class="st3" d="M463,126c2.1.4,7.9,1.5,7,4-.5.2-.9,2.8-3,2v-2.9c-4.1-.5-5.7-.9-7.5,2.9,1.3-6.6-1.4-3.9-4.6-4.6-5.1-1-4.3-.3-8.3-.4s0-1.9-2-2.1c-3-.4-5.1.9-7.1,1s0-1.7-1.9-2c-16.2-2-38.8.7-56.1,0s-4,1-3.5-2c.3,0,.7,0,1,0,26.8.2,60.1-1,86,4Z"/>
      <path class="st3" d="M249,260l3-4v3c2.4,1.2,1.9-2.1,2.5-2,2.8.6,5,7.6,10.5,2-.2,4.1,12.8,6.7,15.3,6.1,2.3-3.8,4.9-9.2,5.3-13.7s-2.1-7.5.8-6.3c5.3,2.2.2,7,5.5,8.5l-3.5.5-.5,2c4.1,3.4,3.5.7,6.6.3s2.9.9,4.4.7l-1,3h1.5c-2.1,3.6,1.5,2.8,1.5,3.5l-2,1c-.8,4.2,5.5,1.2,4,7.5-5.3-1.1-10.8-3.1-16-4l1-5h-3.5s-.5,5-.5,5c-9.3.2-19.2-3.7-27-6s-4.9-.6-8-2ZM286.5,254v1c.6-.3.6-.7,0-1ZM290,260h-3v2h3v-2ZM298,261c-1.5,0-3.4,1.9-4.6,2.8s-2.9,1-2.4,3.2l7-1v-5Z"/>
      <path class="st8" d="M367,415c3.1.6,1.7-1.5,2.1-3.3,1.2-5,3.2-10.2,4.2-14.7s-2.2-9.6,5.1-10.1l1,2.1c3.2-3.5,15.2.2,17,3.1s2.7,11.9,3.1,13.9-.7,3.1-.6,4.4,3.1,2.6,3,4.7c1,4.9,3,9.8,4,15,2.2,10.9,5.1,21.8,6,33-1.3.8-.7,1.6-1,2-3,.8-4.4,4.2-7.1,5.5s-2.3.3-2.9.5-.7,0-1,0l-2.2-5.8-1.8-.2c-1.7-5.3-3.9-11.7-10.6-12s-12.6,13.3-17,17.9c-2.1.5-8.3-6.2-10.4-7.9l3-18c3.9,0,2.9-7.4,3.2-9.2s2.9-6.3.8-8.8c.8-3.9,1.8-8,2-12ZM393.5,392v1c.6-.3.6-.7,0-1Z"/>
      <path class="st12" d="M413,457c3.9-2.1,4.3,1.1,5.3,1.7s2.9,0,3.5.5.3,2,.8,2.7,2.1,1.6,2.4,2.1c2.7,4.5,3.7,10.6,5,15-5.1-3.7-9.4-3.3-15-5l3-2c-2.7,1.1-3.1-1.9-3.5-2-3.2-.7-2,6.5-2.7,7.8s-6.4,1.4-5.8,4.2h-1c-1.3-4.2-1.2-4.4-5-5s.1-1-.5-1l-.5,1c-6.6,1.5-5.7-11.6-3-12,.5,1.6.6,3.2,2,4.5l-3,2c1.7,2.6,3.1,0,5-.5s.7.1,1,0c.3,5.6,4.8-1,5.8-2,1.9-1.8,1.8,0,4.2-4s-.3-1.2,1-2,2,.6,2.1-.5c.2-1.9-.8-3.7-1.1-5.5Z"/>
      <polygon class="st12" points="400 477 399.5 479 399 477 400 477"/>
      <path class="st3" d="M306,302c.2,0,.7-2.2,2.3-1.9s5.1,5.3,8.7,3.9l-2,5,7,1.5v3.4c-.1,0-5,0-5,0l1,3c-7.4-1.2-7.8,6.5-14.8,1.9-.5-1.2-.3-2.4.2-3.6.7-1.8,5.5-2.1,4.7-3.8s-11-2.3-8-10.5c.4-.4,4.4,1.6,6,1-2.5,1.5-.4,6.4,3,5l-.7-3.8c0-1.4-1.5-1.7-2.3-1.2Z"/>
      <path class="st3" d="M367,414c0,.3,0,.7,0,1-.2,4-1.2,8.1-2,12-1.1,5.6-3.9,11.9-4,18l-3,18c-.2-.1-1.3.3-1.8-.2s-1.5-5.4-1.2-5.8,1.4.6,2.2-1.3c1.9-4.6,6.9-33.8,7.5-39.9s-2.5-2,2.3-1.8Z"/>
      <path class="st3" d="M419,495c-16.3,0-32.7,0-49,0h49Z"/>
      <path class="st3" d="M225,356c-3.7.4-.2-4.3-5-3l3-1c1.1-2.7-1.9-1.5-2-2.5-.4-2.4,1.7-1,2-2.1,1.3-4.7-2.9-4.6-2.6-6.8l2.6-7.5c.3,7.5,1.4,15.5,2,23Z"/>
      <path class="st3" d="M208,330c-2.2-.9-1.7-1.7-2-3.4-1-5-3.2-14.2-1-18.6,1.1,7.3,2.1,14.7,3,22Z"/>
      <path class="st3" d="M310,329c-.7-1.6-.5-3.9-1-5.3s-2.3-.1-2-1.7h4.4c1.2.3.9,4.1,1.6,5.3s3.8-.5,3,2.6c-1.7-.4-3.9-.6-6-1Z"/>
      <path class="st3" d="M368,495c-9,0-18,.2-27,0,6.5-1.8,14.6-1.1,21.5-1s4.4-.6,5.5,1Z"/>
      <path class="st3" d="M208,331c1.4,2.6.7,4.2,4,5.5v1.4c-4.8-.3,1.5,4.6-3,4.1-.5-3.6-.6-7.5-1-11Z"/>
      <polygon class="st12" points="349 454 346.5 455 347 458 340 455.5 349 454"/>
      <path class="st3" d="M340,412c.7,0,2.1.4,2-.6.5-1.9-1.5-5.1,2-4.4,3,5.4-4.8,10-4,5-.7,0-1.3,0-2,0-.5-2.6.6-2.1,3-2,.4.2-.9,1.4-1,2Z"/>
      <polygon class="st12" points="351 460 349 460 349 457 351 458.5 351 460"/>
      <path class="st3" d="M318,292l-4-1,4,1Z"/>
      <path class="st3" d="M223,331c-1.8-1.3-.3-1.4,0-2v2Z"/>
      <path class="st3" d="M208.5,361c.6.3.6.7,0,1v-1Z"/>
      <path class="st12" d="M392.5,475c.6.3.6.7,0,1v-1Z"/>
      <path class="st3" d="M524,407c0,.3.1.7,0,1-.3.6.2,1.5-1,2-2.7,0-6.7.9-9.3,0s-5.8-2.7-8.5-3.9-10,.8-10.2-3.1c9.7,1.3,19.2,3.6,29,4Z"/>
      <path class="st1" d="M574,393c0-1,0-2.9,0-4v4Z"/>
      <path class="st0" d="M559.5,328c.6.3.6.7,0,1v-1Z"/>
      <path class="st3" d="M520,276c-1.8,1.6-4.5,2.1-6.8,2.7s-7.9,2.7-10.2,1.3c5.8-1.3,11-3,17-4Z"/>
      <path class="st3" d="M458.5,326c.6.3.6.7,0,1v-1Z"/>
      <path class="st0" d="M525,246c-1.6-.7-1.6-4.3,0-5,0,1.7,0,3.3,0,5Z"/>
      <path class="st10" d="M374,386c4.7-.6,18-2.8,21.3,0s4.9,13.7,5.7,18.1.4,8.1,1,11c0-2.1-3-4.4-3-4.7-.1-1.3.9-2.7.6-4.4s-2.7-13.3-3.1-13.9c-1.9-2.9-13.8-6.5-17-3.1l-1-2.1c-7.2.4-4.1,6-5.1,10.1s-3.1,9.6-4.2,14.7,1,3.9-2.1,3.3c0-.3,0-.7,0-1,0-.6.1-1.5,0-2,.4-.2.9-.5,1-1s0-.7,0-1c.9-3.8,3.9-22.9,6-24Z"/>
      <path class="st5" d="M409,434c-.6,3.6,3.3,17.8,4,23s1.2,3.5,1.1,5.5c0,1.1-1.7.3-2.1.5-.9-11.2-3.8-22.1-6-33h1c.2,1,1.6,2.9,2,4Z"/>
      <path class="st3" d="M401,404l4,3-2,2.4c2.6,6.5,2.6,14,4,20.6h-1c-1-5.2-3-10.1-4-15s-.3-7.6-1-11Z"/>
      <path class="st3" d="M368,410c-1.7-2.1-.2-6.7.3-9.2,1.1-5.4,2.7-10.7,3.7-16.2l2,1.4c-2.1,1.1-5.1,20.2-6,24Z"/>
      <path class="st3" d="M368,411c-.1.5-.6.8-1,1,0-.1-1.3-.2-1-1h2Z"/>
      <path class="st3" d="M359,420c.1-.4.6-.8,1-1,0,.5-.5.9-1,1Z"/>
      <path class="st3" d="M362.5,418c.6.3.6.7,0,1v-1Z"/>
      <path class="st7" d="M492.7,351.3c6.4,6.4,3.1,18.4-6.3,19.6-18,2.3-17.7-23.5-1.9-23,2.3,0,6.6,1.7,8.2,3.4Z"/>
      <path class="st7" d="M276.3,367.7c-9.6-9.9,3.7-25,16-17.5,13.6,8.3-3.2,30.8-16,17.5Z"/>
      <path class="st5" d="M292.8,301.2l1.3,3.2c-2,1-2.5.9-2.1,3.6h2.9c0,0-1.9,12-1.9,12h-3c1.5-3.2-2.3-4.1-2.1-5.5.4-2.4,4.5-4.7,2.6-9.5-1.2-2.3-5,.5-5.5,0l-1-5,8.8,1.2Z"/>
      <path class="st5" d="M284.9,317.1c.2,3,5.5,2.8,1.6,5.9l-4.5-2c-.4-2.2.4-4.3,2.9-3.9Z"/>
      <polygon class="st5" points="281 309 281 305 282.5 305 284 306.5 281 309"/>
      <path class="st5" d="M293,321v3s-3,0-3,0c-.3-1.8,1.1-3.3,3-3Z"/>
      <rect class="st5" x="272" y="300" width="2" height="3"/>
      <rect class="st5" x="284" y="311" width="2" height="2"/>
      <rect class="st5" x="299" y="324" width="2" height="1"/>
      <path class="st5" d="M279.5,306c.6.3.6.7,0,1v-1Z"/>
      <path class="st2" d="M351,378c-.7,3.7-1.5,6.9-1.1,10.9h-2.9c2.9,3.7,1.6,6.9,1,11.1s0,.7,0,1c-2.6-.3-5.9-5.3-4-7l-3-1c2.9-1.3,4.4-.6,7,1-2.4-6.1-5.9-14.2,3-16Z"/>
      <path class="st5" d="M298,261v5s-7,1-7,1c-.5-2.2,1.2-2.3,2.4-3.2s3.2-2.8,4.6-2.8Z"/>
      <rect class="st5" x="287" y="260" width="3" height="2"/>
      <path class="st5" d="M286.5,254c.6.3.6.7,0,1v-1Z"/>
      <polygon class="st5" points="200 359 198 359 198 355 199 355 200 359"/>
      <path class="st0" d="M348.5,372c.6.3.6.7,0,1v-1Z"/>
      <path class="st0" d="M346.5,373c.6.3.6.7,0,1v-1Z"/>
      <path class="st8" d="M274,165v4.5c1.6,1.7.2-2.6,2.5-1.5s-.2,3.8,2,5c1.7-3,2.8-6.7,7-4,.4.6.6,8.6.4,9.4s-2,.3-2,2.1,1.6,4.4,1.6,6.5c-2-1.7-4.4-1-6.5,0v-2.3c-3.1-2.8-4.1,1-6,2.3l-1.5-5c-2,4-4,3.8-8,5l2.5-5c-5.4-2.2-2.9,1.1-7,2-.5-2.4-1.5-4.8-1-7.3s3.2-1,2-3.7c2.6-2.7,3.6-3.7,6.5-6s1.3-2.6,1.6-2.8c1.6-1,4.3.9,5.8.8Z"/>
      <path class="st5" d="M422.5,239c.6.3.6.7,0,1v-1Z"/>
      <path class="st5" d="M398.5,310c.6.3.6.7,0,1v-1Z"/>
      <path class="st10" d="M365,427c2.1,2.5-.4,6.5-.8,8.8s.7,9.1-3.2,9.2c.1-6.1,2.9-12.4,4-18Z"/>
      <path class="st5" d="M411,465c-2.4,4-2.3,2.2-4.2,4s-5.4,7.6-5.8,2c.6-.2,1.6,0,2.9-.5,2.7-1.2,4.1-4.7,7.1-5.5Z"/>
      <path class="st10" d="M393.5,392c.6.3.6.7,0,1v-1Z"/>
    </g>
  </g>
</svg>