<?xml version="1.0" encoding="UTF-8"?>
<svg id="Layer_1" xmlns="http://www.w3.org/2000/svg" version="1.1" viewBox="0 0 590 590">
  <!-- Generator: Adobe Illustrator 29.7.1, SVG Export Plug-In . SVG Version: 2.1.1 Build 8)  -->
  <defs>
    <style>
      .st0 {
        fill: #4883de;
      }

      .st1 {
        fill: #ec8059;
      }

      .st2 {
        fill: #315399;
      }

      .st3 {
        fill: #5fa4f5;
      }

      .st4 {
        fill: #375da7;
      }

      .st5 {
        fill: #4675c3;
      }

      .st6 {
        fill: #4473c1;
      }

      .st7 {
        fill: #f4d1a6;
      }

      .st8 {
        fill: #fcf181;
      }

      .st9 {
        fill: #141e48;
      }

      .st10 {
        fill: #3c67b5;
      }

      .st11 {
        fill: #372d34;
      }

      .st12 {
        fill: #749eda;
      }

      .st13 {
        fill: #050722;
      }

      .st14 {
        fill: #f7e2be;
      }

      .st15 {
        fill: #32569e;
      }

      .st16 {
        fill: #739eda;
      }

      .st17 {
        fill: #436fbb;
      }

      .st18 {
        fill: #f0bd6e;
      }

      .st19 {
        fill: #131e49;
      }

      .st20 {
        fill: #01010a;
      }

      .st21 {
        fill: #1d2a59;
      }

      .st22 {
        fill: #090a2f;
      }

      .st23 {
        fill: #fcfadd;
      }

      .st24 {
        fill: #efd678;
      }

      .st25 {
        fill: #131f4a;
      }

      .st26 {
        fill: #6b8dce;
      }

      .st27 {
        fill: #86b2e7;
      }

      .st28 {
        fill: #a7d9fc;
      }

      .st29 {
        fill: #ee9863;
      }
    </style>
  </defs>
  <path class="st9" d="M315,44l1,4c0,.7,0,1.3,0,2v156c.3.3.6.7,1,1s.5.8,1,1v1h135c1-.8,1.6-1.8,2-3s1.6-1.8,1.1-3.4c-.4-28.4.3-56.8,0-85.1,0-1.7.6-4.4-1-5.5l.5-1c4.8,2.2,10.4-2.3,14.5,1.5v64c4.6,5.2,10.4-.3,16,2.5v56.5l1.5,1.5h18.5v17l-18,1v77l.5,1,15.5-1c1,0,2,0,3,0,0,.3,0,.7,0,1s0,.7,0,1l-1,15h-18c0,.7,0,1.3,0,2s0,.7,0,1c-3-.6-1.9,1.5-2,3.5-.3,9.8.2,19.7,0,29.5h-16l-1-164c-1-1.7-3.8-1-5.5-1-109.8-1.2-219.7.9-329.5,0l-2,.6v158.9s2,3.5,2,3.5c0,.7,0,1.3,0,2-5.9,0-14.1,1.2-19-1.5v-33.5l-19.9-1.1c-.4-4.9.2-10-.1-14.9h3s0-2,0-2h3v2s10.6,0,10.6,0c2.1.3,1.2-1.8,1.4-2.1s.8.2,1,0,.7.1,1,0v-76c-.5-.8-1.3-.7-2-1-5-1.8-12.3-1-18-1v-17h18.5l1.5-1.5v-56.5c5.9-.6,12.3-2.3,18,0v-67l15-1,1,98h149l2-2v-125.6c.5-1.5-.6-2.4-1-3.4s.6-1.8-.6-2h-13.4s0-33,0-33l30,1Z"/>
  <path class="st25" d="M192,428c.7,1.6,4.3,1.6,5,0,1,0,2,0,3,0,.4,1.6,3.7,1.5,4,0,2,0,4,0,6,0,.1,1.5,2.9,1.5,3,0,1,0,2,0,3,0,3.7,1.7,11.1,1.7,15,0,1,0,2,0,3,0l1.5,1,.5-1c3,0,6,0,9,0,4.1,1.7,11.7,1.7,16,0,.7,0,1.3,0,2,0h51c5.1,1.7,13,1.7,18,0h11c1,1.6,5.1,1.6,6,0h2c7.6,1.8,16.6,1.1,24.5,1s4.4.6,5.5-1h3c1,1.7,3.8,1,5.5,1,8.7.1,17.4,0,26,0s4.4.6,5.5-1h6l.5,1,.5-1h1c1.6,4.9-.7,8.7,0,14h-67.5c-.3,0-1.5,1.3-2.5,1v19.5c0,.3,1.3,1.5,1,2.5h69l-1,15c-82.3-1-164.7,1.3-247,0s-6,.2-8.9-.1c-.9-3-2.3-14-.1-15.5.7-.6,1.3.6,1.5.6h64c2.3-4.3,2-13.4,1.5-18.6s.3-2.3-1-2.4h-1c.6-3-1.5-1.9-3.5-2-20.8-.7-41.7.5-62.5,0-.5-4.4.2-8.7,1-13,3.1,1,6.9-.8,9-1,3.6-.3,7.4,0,11,0ZM257,444c-.5,3.9-.5,14.1,0,18s-.5,2.1.6,2h82.9c1.3-.2-.5-1.5-.5-2-.1-5.7,1-13-1-18s.3-1.3-.1-1.9l-81.3-.2c-1.1-.1-.5,1.3-.6,2Z"/>
  <path class="st13" d="M469,221l1,164h16c.2-9.8-.3-19.7,0-29.5s-1-4,2-3.5c-.3,11.6.2,23.4,0,35-1.4.6-3-1-3.5-1h-15.5v21c-6,0-12,0-18,0s-12.7,0-19,0v19h18l1-18v20h-20v16h-70v19h70v19h21v21h17v66H132v-66h17v-21h20v-19h69v-19c1.3.1,1,1.5,1,2.4.5,5.1.7,14.2-1.5,18.6h-64c-.3,0-.8-1.2-1.5-.6-2.2,1.5-.8,12.5.1,15.5,2.9.3,5.9,0,8.9.1v2c-3.3-.2-6.7.2-10,0v18c-3,.6-1.9-1.5-2-3.5-.1-4.2,0-8.4,0-12.6l-18-1v19h20c0,.3,0,.7,0,1-3.8,0-7.7-.2-11.5,0s-5.5,1.9-8.5,0l-1,47c-2.4-1.4-.3-39.4-1-45h-15v61l-1,1c.7,0,1.3,0,2,0,1.6,0,3.3,0,5,0,39.3.4,78.7-.3,118,0h5c1.3,0,2.7,0,4,0s1.3,0,2,0c10.3,0,20.7,0,31,0s4.7,0,7,0c23,0,46,0,69,0s2.7,0,4,0c14.7,0,29.3,0,44,0s3.3,0,5,0c7.7,0,15.3,0,23,0s6,0,9,0,4.7,0,7,0l-1-1v-61h-15l-1,43v-1l-1-43-.7-.9c-1.4-.4-2.9,0-4.3-.1-5-.3-10.1.4-15,0v-1c0-3.7,0-7.3,0-11s.2-4.1,0-6,0-.7,0-1c-.1-.8-.1-1.6-1-2l-1-1v-1l1-15h-69c.3-1-1-2.2-1-2.5v-19.5c1,.3,2.2-1,2.5-1h67.5c-.7-5.3,1.6-9.1,0-14s.1-1.4,0-2c.3,0,.7,0,1,0l1-1.5v-18.5c3.5-.1,6.3.2,9.5,0s6.9-1.5,10.5-1.1c.1-6.6-.2-13.4,0-20h17c0-11.6,0-23.3,0-35,.2-43-.1-86,0-129,.3,0,.7,0,1,0ZM468,387h-16v15.5c0,.3,1.3,1.5,1,2.5h15v-18ZM450,484h-19v18h19v-18Z"/>
  <path class="st13" d="M454,110c6,0,12,0,18,0v66h16v59h19v19c3.8.8,19.1-1.9,20,2v75c0,.7,0,1.3,0,2h-20c0-.3,0-.7,0-1,.7,0,1.3,0,2,0,5,.2,10-.1,15,0v-76h-15v43h-2c0-2,0-4,0-6s.7-.5.7-1.3c0-12.2-1.4-24.5-.7-36.7h-19s18-1,18-1v-17h-18.5l-1.5-1.5v-56.5c-5.6-2.8-11.4,2.7-16-2.5v-64c-4.1-3.8-9.7.7-14.5-1.5l-.5,1v94c-.4,1.2-1,2.2-2,3h-135v-1l134-1h1v-97c.3,0,.7,0,1,0Z"/>
  <path class="st9" d="M318,40c0-.1.9-1.1,1-2.4.3-3.4-.3-7.1,0-10.6h56c-.4,4.1.6,9,0,13l-55,1c-.7,0-1.4-.1-2,0,0-.3,0-.7,0-1Z"/>
  <path class="st22" d="M283,25v17c11,0,22,0,33,0l1,165c-.4-.3-.7-.7-1-1V50c0-.7,0-1.3,0-2-.1-1.1.2-2.3,0-3.4l-.9-.6-30-1v33h13.4c1.2.2.4,1.5.6,2h-15v-35s-60,0-60,0c-.5,5.1.5,10,1,15-4.7,4.2-11.1,1-16.5,1-8.2-.1-16.6,0-24.5,0,0-5.7,0-11.3,0-17h40l1-17h58ZM227,41h54l1-14h-56l1,14ZM223,44c-.5-1.6-8.5-1.1-10.5-1-8.8.4-17.6,1.8-26.5,1l-1,14c.7,0,1.3,0,2,0,11.1.9,23.3-.7,34.6,0l1.4-1c0-.7,0-1.3,0-2,.3-3.6-.2-7.4,0-11Z"/>
  <path class="st13" d="M95,254c5.7,0,13-.8,18,1-6.7,1.3-12.3.7-19,0,0,.7,0,1.3,0,2-.2,3.3,0,6.7,0,10s0,2.7,0,4c-.1,20.4,0,40.9,1,61s0,1.3,0,2c.3,4.9-.3,10,.1,14.9l19.9,1.1v33.5c4.9,2.7,13.1,1.5,19,1.5s10,0,15,0c.6.5,1,1.3,1,2h-15.4c-.4,0-1.6,3.2-1.6,3.5v14.5h17v2c-.3,0-.7,0-1,0-6,0-12,0-18,0l1-21h-16.5c-.3,0-1.4,1.4-2.5,1v-36h-20v-18h-18v-79c5.4,1.4,11.5,1.5,17,.5s.9-1.4,1-1.5c.4-.1,1.6,1,2,1ZM93,256h-16v74.5c4.1,3,11.3,1.5,16,.5v-75Z"/>
  <path class="st22" d="M165,77l1,1v32h-16v97h150l-2,2h-149l-1-98-15,1v67c-5.7-2.3-12.1-.6-18,0v56.5l-1.5,1.5h-18.5v17c-.4,0-1.6-1.1-2-1v-18h20v-59h18v-66c4.7-.8,13.2,1.1,17.3,0s.6-2,.7-2c1.2-.8,13.3.6,16,0v-29h-14c-.2,8.2.3,16.4,0,24.5s1,4-2,3.5v-30s16,0,16,0Z"/>
  <path class="st22" d="M377,35c0,2.3,0,4.7,0,7h42c0,5.6,0,11.3,0,17s-1.2,12.7,1.5,17h14.5l-1-15c-3.2,0-6.4.1-9.6,0s-4,1-3.5-2h15v18h18v32c-5.1-.6-11.5,1.3-16-1h14v-29c-5-.2-10,.3-15,0s-.7,0-1,0-.7-1-1-1c-6-.3-12,.2-18,0v-18c-5.5-.1-11,.2-16.5,0s-15.5-.9-23.5,0-.7,0-1,0v-17c-2.7,0-5.3,0-8,0l7-2c0-.3,0-.7,0-1l2-5ZM379,43l-1,15,39-1v-13s-38-1-38-1Z"/>
  <path class="st9" d="M149,107c3,.6,1.9-1.5,2-3.5.3-8.2-.2-16.4,0-24.5h14v29c-2.7.6-14.8-.8-16,0v-1Z"/>
  <path class="st25" d="M150,407c6.7,0,13.4,0,20,0-.1,6.3.2,12.7,0,19h-21c-.3-6.3.2-12.7,0-19,.3,0,.7,0,1,0Z"/>
  <path class="st20" d="M150,406h21s0,19,0,19c.6,1.8,12.2,1,15,1,1.9,1.7,7.1,1.7,9,0,3.3,0,6.7,0,10,0h177c1.7,0,3.3,0,5,0,3.9,1.7,11.3,1.7,15,0,1,0,2,0,3,0,1.5,1.7,6.4,1.7,8,0,4.9,0,11.4.6,16,0,.1.6-.2,1.5,0,2h-166c-.7,0-1.3,0-2,0-5.3,0-10.7,0-16,0s-6,0-9,0-1.3,0-2,0c-1,0-2,0-3,0h-15c-1,0-2,0-3,0s-2,0-3,0c-2,0-4,0-6,0s-2.7,0-4,0-2,0-3,0c-1.7,0-3.3,0-5,0-3.6,0-7.4-.3-11,0h-10s1,1,1,1c-.8,4.3-1.5,8.6-1,13s.9,1.3,1,2c-1,0-2,0-3,0-1.2-1.4.9-13.5,1-16s0-1.3,0-2c.2-6.3-.1-12.7,0-19-6.7,0-13.4,0-20,0v-1Z"/>
  <path class="st25" d="M451,407v1l-1,18h-18v-19c6.3,0,12.7,0,19,0Z"/>
  <path class="st20" d="M318,42c0,.3,0,.7,0,1v164s134,0,134,0l-134,1c-.5-.2-.7-.8-1-1l-1-165h2Z"/>
  <path class="st9" d="M184,59c0,5.6.4,11.5,0,17-5.5-.6-12.1,1.3-17-1v-14c3.5,0,7,.1,10.5,0s4,1,3.5-2c1,0,2,0,3,0Z"/>
  <path class="st9" d="M421,59c-.6,3,1.5,1.9,3.5,2,3.2.1,6.4,0,9.6,0l1,15h-14.5c-2.7-4.3-1.4-11.7-1.5-17h2Z"/>
  <path class="st13" d="M377,25c0,3.3,0,6.7,0,10l-2,5c.6-4-.4-8.9,0-13h-56c-.2,3.5.3,7.2,0,10.6s-1,2.3-1,2.4v-15h59Z"/>
  <path class="st13" d="M171,442c20.8.5,41.7-.7,62.5,0,1.9,0,4-1,3.5,2-21.6-.5-43.4.6-65,0-.1-.7-.9-1.5-1-2Z"/>
  <path class="st2" d="M527,331v-75c-.9,24.7,1.2,50.3,0,75Z"/>
  <path class="st21" d="M377,25h-59,59Z"/>
  <path class="st21" d="M283,25h-58,58Z"/>
  <path class="st13" d="M507,334c0,5.6,0,11.4,0,17h-19c0-.7,0-1.3,0-2h18s1-15,1-15Z"/>
  <path class="st20" d="M438,108c4.5,2.3,10.9.4,16,1v1c-.3,0-.7,0-1,0-5.7,0-11.3,0-17,0v-31c.3,0,.7,0,1,0v27.6s1,1.4,1,1.4Z"/>
  <path class="st22" d="M181,59c.6,3-1.5,1.9-3.5,2-3.5.1-7.1,0-10.6,0v14s-1,0-1,0c.4-2.7-.6-15.4,0-16,5,0,10,0,15,0Z"/>
  <path class="st9" d="M170,426c0,.7,0,1.3,0,2h-21c0-.7,0-1.3,0-2h21Z"/>
  <path class="st11" d="M184,76c0,.3,0,.7,0,1s0,.7,0,1h-18l-1-1c.2-.6.9-1.4,1-2h1c4.9,2.3,11.5.4,17,1Z"/>
  <path class="st22" d="M318,42h-1c.1-.5.5-.9,1-1,0,.3,0,.7,0,1Z"/>
  <path class="st10" d="M96,292h18c-.1,7.3-.9,14.5-1,22h-17v17c4.1.5,9.6-1.2,13,1-2.6.1-5.4,0-8,0h-6c-1-20.1-1.1-40.6-1-61,2.8,3.2-.8,20.1,2,21Z"/>
  <path class="st20" d="M469,221c-.3,0-.7,0-1,0-6.6.3-13.4,0-20,0-98.6-1.1-197.4,0-296,0h-18v-1c109.8.9,219.7-1.2,329.5,0,1.7,0,4.4-.6,5.5,1Z"/>
  <path class="st22" d="M134,220v2c0,46,.1,92,0,138s-.6,15.7,0,23l-2-3.5v-158.9s2-.6,2-.6Z"/>
  <path class="st15" d="M490,314h17c0,6,0,12,0,18-1,0-2,0-3,0s-.3-.9-2.4-1c-3.8-.3-7.8.3-11.6,0,0-3.8.1-7.7,0-11.6s1-4-2-3.5c0-.7,0-1.3,0-2h2Z"/>
  <path class="st21" d="M316,206V50v156Z"/>
  <path class="st3" d="M488,255h19c-.7,12.2.6,24.6.7,36.7s-.7,1.2-.7,1.3c-.4-.2-.8-1-1-1l-1-35c-4.8,1.6-10.5-2-15,1.7,0,11.1,0,22.2,0,33.3h-2c0-12,0-24,0-36v-1Z"/>
  <path class="st21" d="M298,209h-149,149Z"/>
  <path class="st21" d="M453,209h-135,135Z"/>
  <path class="st13" d="M300,207h-1V78c.4,1,1.5,1.8,1.1,3.4v125.6Z"/>
  <path class="st20" d="M115,256v76c-.3.1-.8-.2-1,0,.2-.6-.5-1-1-1,0-5.7,0-11.3,0-17s.9-14.7,1-22,.1-20.4,0-30.5.6-4.4-1-5.5v-1c.7.3,1.5.2,2,1Z"/>
  <path class="st21" d="M455,206v-94c1.7,1,1,3.8,1,5.5.4,28.4-.4,56.8,0,85.1.5,1.6-.8,2.6-1.1,3.4Z"/>
  <path class="st20" d="M488,292c0,7.3,0,14.7,0,22s0,1.3,0,2c0,5.3.6,10.7,0,16v-76c0,12,0,24,0,36Z"/>
  <path class="st21" d="M115,332v-76,76Z"/>
  <path class="st6" d="M488,316c3-.6,1.9,1.5,2,3.5.1,3.8,0,7.7,0,11.6,3.8.2,7.8-.3,11.6,0s2.3,1,2.4,1l-15.5,1-.5-1c.6-5.3,0-10.7,0-16Z"/>
  <path class="st0" d="M135,360c0,8,0,16,0,24h14s0,1,0,1c-5,0-10,0-15,0,0-.7,0-1.3,0-2-.6-7.3,0-15.5,0-23h1Z"/>
  <path class="st22" d="M113,332c-.2.2.7,2.4-1.4,2.1h-10.6c0,0,0-2.1,0-2.1,2.6,0,5.4.1,8,0s3-.9,4-1v1Z"/>
  <path class="st22" d="M98,332v2s-3,0-3,0c0-.7,0-1.3,0-2h3Z"/>
  <path class="st21" d="M316,48l-1-4,.9.6c.3,1.1,0,2.3,0,3.4Z"/>
  <path class="st21" d="M114,332c-.2.2-.9-.2-1,0v-1c.5,0,1.2.4,1,1Z"/>
  <path class="st20" d="M428,480v1c-4.5,0-9.1-.1-13.6,0s-2.3,1-2.4,1c-71.3,1.8-144.6,0-216.4-1-5.1,0-9.5.9-14.6,1v-2c82.3,1.3,164.7-1,247,0Z"/>
  <path class="st6" d="M339,444c2,5,.9,12.3,1,18h-83c-.5-3.9-.5-14.1,0-18h82ZM339,445h-81v16h81v-16Z"/>
  <path class="st13" d="M340,462c0,.5,1.8,1.8.5,2h-82.9c-1.1.1-.5-1.3-.6-2h83Z"/>
  <path class="st13" d="M257,444c0-.7-.5-2.1.6-2l81.3.2c.4.6,0,1.5.1,1.9h-82Z"/>
  <path class="st21" d="M308,428h-45,45Z"/>
  <path class="st21" d="M421,428c-1,1.7-3.8,1-5.5,1-8.7,0-17.4.1-26,0-1.7,0-4.4.6-5.5-1h37Z"/>
  <path class="st21" d="M381,428c-1,1.7-3.8,1-5.5,1-7.9,0-16.9.7-24.5-1h30Z"/>
  <path class="st21" d="M332,428c-5,1.7-12.9,1.7-18,0h18Z"/>
  <path class="st21" d="M261,428c-4.3,1.7-11.9,1.7-16,0,5.3,0,10.7,0,16,0Z"/>
  <path class="st21" d="M231,428c-3.9,1.7-11.3,1.7-15,0h15Z"/>
  <path class="st21" d="M181,428c-2.1.2-5.9,2-9,1l-1-1h10Z"/>
  <path class="st21" d="M349,428c-.9,1.6-5,1.6-6,0h6Z"/>
  <path class="st21" d="M197,428c-.7,1.6-4.3,1.6-5,0,1.7,0,3.3,0,5,0Z"/>
  <path class="st21" d="M204,428c-.3,1.5-3.6,1.6-4,0,1.3,0,2.7,0,4,0Z"/>
  <path class="st21" d="M213,428c-.1,1.5-2.9,1.5-3,0,1,0,2,0,3,0Z"/>
  <path class="st21" d="M236,428l-.5,1-1.5-1c.7,0,1.3,0,2,0Z"/>
  <polygon class="st21" points="427 428 428 428 427.5 429 427 428"/>
  <path class="st19" d="M134,566v-61h15c.7,5.6-1.4,43.6,1,45s.6,0,1,0c1,1.7,3.8,1,5.5,1,91.6,1.1,183.9,1.2,275.5,0,6,0,15.5,2,19-3l1-43h15v61c-1.9.1-4.9-.8-6,1-3,0-6,0-9,0-6.8-1.7-16.2-1.7-23,0-1.7,0-3.3,0-5,0h-44c-1.3,0-2.7,0-4,0h-69c-2.3,0-4.7,0-7,0-1-1.7-3.8-1-5.5-1-6.7,0-13.4,0-20,0s-4.4-.6-5.5,1c-.7,0-1.3,0-2,0-.4-1.6-3.7-1.5-4,0h-123c-1.7,0-3.4,0-5,0l-1-1Z"/>
  <path class="st5" d="M467,225c2,40.3.2,84.3,0,125l-9,1v26h-7c0,2.7,0,5.3,0,8-.2,6.6.1,13.4,0,20-3.6-.4-6.9,1-10.5,1.1s-6-.2-9.5,0-6.3,0-9.4,0c-1.2.2-.4,1.5-.6,2-.7,1.7-1.5,2.8-1,5l-42,1c-1,0-2,0-3,0v-16s12-1,12-1v-11h16v-9s10,0,10,0c.1-3.3-.2-6.7,0-10l8.9-1.1v-14.9c.3-.3.8-.8,1.1-1h8s-1-9-1-9c.2-.3.7-.8,1-1l9,1c1-4.1.2-6.6,1-11,1.6-.1,3.4.2,5,0s1.3,0,2,0c0-.7,0-1.3,0-2,.3-2.6-.2-5.4,0-8l-1-1h-6l-2-8c3.2,1.7,6.7,1.3,9.9-.1l.6-7.9c.9-1.3,2.9-.6,3.6-.9,6.8,1.7,3.2-6,4-10-2.7,0-5.3,0-8,0-.3-4,.9-8.4-1-12,.3,0,.7,0,1,0,1.6,0,7.9.5,8-.6v-7.4c-2.1.3-4.2-.2-6.3-.3-3.1-.1-1.7-1.7-1.7,2.3,0-.3-.9-1.1-1-2s0-1.3,0-2c.7,0,1.3,0,2,0v-6.4s-2-.6-2-.6c0-.7,0-1.3,0-2l-1.6-1.8-5.4.8v-7s5,0,5,0c.7.3,1.3.7,2,1l1.1,6.9,7.9-.9v-7s-8,0-8,0l-1-11h-9s.4-11.1.4-11.1l8.6-1.9h9s-7-1-7-1v-4s17,1,17,1ZM457,231h-7c.2,2.6-.7,4.1-2,6h9s0-6,0-6ZM449,385h-10s0,12,0,12h-9s1.5,7,1.5,7h18.5c.3-.7-1-1.2-1-1.5v-17.5Z"/>
  <path class="st15" d="M450,504c-1.7,1-1,3.8-1,5.5-.1,11.3-.4,22.8,0,34.1,0,1.9-1,4,2,3.5v1c-3.5,5-13,2.9-19,3-.3-1-1.2-1-2-1,0-9,0-18,0-27s0-12,0-18c3.8,0,7.7.1,11.6,0s4,1,3.5-2c1.4,0,2.9-.3,4.3.1l.7.9Z"/>
  <path class="st6" d="M430,503c4.9.4,10-.3,15,0,.6,3-1.5,1.9-3.5,2-3.8.1-7.7,0-11.6,0,0,6,0,12,0,18l-1,25h-15v-45h16Z"/>
  <path class="st4" d="M431,406v18.5s-1,1.5-1,1.5c-1-1.7-3.8-1-5.5-1-6.8,0-13.7,0-20.5,0,.6-4.5-2.8-4-4.9-5.6s-1.3-2.4-2.1-2.9c-2.3-1.5-6.6,1.3-6-2.5,10,0,20,0,30,0v-6c.2-.5-.6-1.8.6-2,3.1,0,6.3.1,9.4,0Z"/>
  <path class="st4" d="M467,350c0,11.3,0,22.7,0,34l-15,1h-1c0-2.7,0-5.3,0-8h7s0-26,0-26l9-1Z"/>
  <rect class="st19" x="431" y="484" width="19" height="18"/>
  <path class="st19" d="M171,502h-20v-19l18,1c0,4.2-.1,8.4,0,12.6s-1,4,2,3.5c0,.7,0,1.3,0,2Z"/>
  <path class="st15" d="M429,482c.9.4.9,1.2,1,2l-1,.5,1,.5c.2,1.9,0,4,0,6h-2s0,10.4,0,10.4l2,.6v1h-17c0-.3,0-.7,0-1,0-4.7-.7-8-1-12s.1-4.7,0-7c5.7,0,11.5.6,17-1Z"/>
  <path class="st4" d="M181,482c1.3,0,3.4.9,6,1v3c-2.4,2.2,0,15.1-1,16l-13,1c-.7,0-1.3,0-2,0,0-.3,0-.7,0-1,0-.7,0-1.3,0-2v-18c3.3.2,6.7-.2,10,0Z"/>
  <path class="st19" d="M468,387v18h-15c.3-1-1-2.2-1-2.5v-15.5h16Z"/>
  <path class="st3" d="M173,425h200c.3,0,.7,0,1,0,2.7,0,5.3,0,8,0s2.7,0,4,0c3.7,0,7.3,0,11,0s.7,0,1,0c2,0,4,0,6,0,6.8,0,13.7,0,20.5,0s4.4-.6,5.5,1c-.3,0-.7,0-1,0-4.6.6-11.1,0-16,0s-5.3,0-8,0-2,0-3,0c-5,0-10,0-15,0s-3.3,0-5,0c-59,.1-118,.3-177,0-3.3,0-6.7,0-10,0s-6,0-9,0-14.4.8-15-1h2Z"/>
  <path class="st3" d="M468,221c-.1,43,.2,86,0,129h-1c.2-40.7,2-84.7,0-125s0-1.3,0-2c-6.3.1-12.7-.2-19,0v-2c6.6,0,13.4.3,20,0Z"/>
  <path class="st17" d="M171,503c0,.7,0,1.3,0,2h-19c0,14.3,0,28.7,0,43v2c-.3,0-.7,0-1,0s-.8.1-1,0l1-47c2.9,1.9,5.4,0,8.5,0s7.7.1,11.5,0Z"/>
  <path class="st21" d="M258,567c-39.3-.3-78.7.4-118,0h118Z"/>
  <path class="st17" d="M451,547c-3,.6-1.9-1.5-2-3.5-.4-11.2-.2-22.8,0-34.1,0-1.7-.6-4.4,1-5.5l1,43Z"/>
  <path class="st21" d="M376,567c-23,0-46,0-69,0h69Z"/>
  <path class="st0" d="M468,350c0,11.7,0,23.4,0,35h-16s15-1,15-1c0-11.3,0-22.7,0-34h1Z"/>
  <path class="st21" d="M424,567c-14.7,0-29.3,0-44,0h44Z"/>
  <path class="st2" d="M428,481l1,1c-5.5,1.6-11.3,1-17,1v-1c.1,0,1.2-1,2.4-1,4.5,0,9.1.1,13.6,0Z"/>
  <path class="st21" d="M300,567c-10.3,0-20.7,0-31,0,1-1.7,3.8-1,5.5-1,6.7,0,13.4,0,20,0s4.4-.6,5.5,1Z"/>
  <path class="st21" d="M452,567c-7.7,0-15.3,0-23,0,6.8-1.7,16.2-1.7,23,0Z"/>
  <path class="st10" d="M430,491c0,3.7,0,7.3,0,11l-2-.6v-10.4s2,0,2,0Z"/>
  <path class="st21" d="M467,566l1,1c-2.3,0-4.7,0-7,0,1.1-1.8,4.1-.9,6-1Z"/>
  <path class="st21" d="M267,567c-1.3,0-2.7,0-4,0,.3-1.5,3.6-1.6,4,0Z"/>
  <path class="st21" d="M135,567c-.7,0-1.3,0-2,0l1-1,1,1Z"/>
  <path class="st10" d="M430,485l-1-.5,1-.5c0,.3,0,.7,0,1Z"/>
  <path class="st25" d="M509,299v-43h15v76c-5-.1-10,.2-15,0v-33Z"/>
  <path class="st23" d="M326,43h13c9.6,0,19.4-.2,29,0s5.3,0,8,0v17s-1-16-1-16c-15.2.8-31.5-1.1-46.6,0-1.9.1-2.8,1-3.4,1.1s-.7,0-1,0c-.8.2-2.1-.1-3,0v144h32l-1.4,1h-32.5c1.4,4.7,1.5,9.7.1,14.4l1.4,1.6h131.5c0-10,0-20,0-30s0-.7,0-1c.1-21,0-42,0-63l-16-2c5.7,0,11.3,0,17,0v97h-135s0-164,0-164h8Z"/>
  <path class="st17" d="M506,292c.2,0,.6.8,1,1,0,2,0,4,0,6,0,5,0,10,0,15h-17v-22c4.9,0,11.3-.6,16,0Z"/>
  <path class="st11" d="M453,207v-92,92Z"/>
  <path class="st22" d="M509,299v33c-.7,0-1.3,0-2,0,0-6,0-12,0-18s0-10,0-15h2Z"/>
  <path class="st13" d="M320,41c18.3-.7,36.7.5,55,0l-7,2c-9.6-.2-19.4,0-29,0-3.2-1.7-10-1.7-13,0h-8c0-.3,0-.7,0-1s0-.7,0-1c.6-.1,1.3,0,2,0Z"/>
  <path class="st21" d="M375,40c0,.3,0,.7,0,1-18.3.5-36.7-.7-55,0l55-1Z"/>
  <path class="st18" d="M225,58c-.5-5-1.5-9.9-1-15h60s0,35,0,35l-1-1.4-1-26.6-1-6c0,9.2-.1,18.3,0,27.5s-.6,4.4,1,5.5c.3,1.1,1.1,1.5,2,2,3.8,2.1,7.1.5,11,1s.7,0,1,0v110s-13,0-13,0v16c-32.6.3-65.4-.2-98,0l-1-14-16-1v-15h-17c0-.3,0-.7,0-1l1-64h14c1.1-.3,1.5-1.1,2-2,2.6-4.7,0-27.9,1-29l10-1c.7,0,1.3,0,2,0,1.4,1.7,1.3.6,2,0s.8-.4,1-1,0-.7,0-1h2s0-15,0-15c11-.9,23.9,1.2,34.6,0,1.5-.2,1.7-.8,2.4-1s1.9,0,2.6-1c1-1.2-.6-1.9-.6-2ZM194,92v17l-1,1c6.3,0,12.7,0,19,0v15s-1-14-1-14h-17v30c2.8,0,5.7-.1,8.5,0s3.7-.8,3.5,1h-13s0-32,0-32c-4.6,0-10.7-.6-15,0s-2.1-.5-2,.6c.3,9.3-.3,18.7,0,27.9s-1,4,2,3.5c0,.3,0,.7,0,1l13,1,.9,14.6,13.1.4c0,1.7,0,3.3,0,5l-2,.6v7.4s2,0,2,0c0,.3,0,.7,0,1l12,1c.6.6-.6,11.1,0,13.4s1.9.5,2,.7c.2.3,0,1.9.9,2.5s11.8.9,13.4.3c1.7-.4,1.2-1.9,1.6-2.9,1.8-4.6.8-9.1,1-14l11-1c.3,0,.7,0,1,0l1-14c3.1,0,6.3,0,9.4,0s2.9,2.5,2.6-1.1c.3,0,.7,0,1,0l1-14,13-1c0-.3,0-.7,0-1,.6,0,1.3,0,2,0-.7-9.9.9-20.9,0-30.6s-.2-2.4-2.1-3.4c-3.7-2-7.9-.7-12-1-.6-4.3,1.3-10.5-1-14s-.4-1.2-1-1.5l-29-.5v16s-18,0-18,0c-.6-4.3,1.3-10.5-1-14s-.4-1.2-1-1.5l-20-.5,1,1ZM192,108v-15h-1v14c-2.8,0-5.7-.1-8.5,0s-3.7-.8-3.5,1h13Z"/>
  <polygon class="st9" points="227 41 226 27 282 27 281 41 227 41"/>
  <path class="st9" d="M223,44c-1.7,2.3-1.7,8.5,0,11,0,.7,0,1.3,0,2l-36,1c-.7,0-1.3,0-2,0l1-14c8.9.8,17.7-.6,26.5-1s10-.6,10.5,1Z"/>
  <path class="st24" d="M284,78h15v129h-149v-29h1c0,7.5,0,15,0,22.5s-.6,4.4,1,5.5h32s0-14,0-14l1,14c32.6-.2,65.4.3,98,0,4.7,0,9.4,0,14,0l-1-126c-.3,0-.7,0-1,0-2.7-2.2-7.5-.5-11-1-.9-.5-1.7-.9-2-2v-27l1,26.6,1,1.4Z"/>
  <path class="st24" d="M223,61h-35.6s-1.4,1-1.4,1v15s-2,0-2,0c0-.3,0-.7,0-1,.4-5.5,0-11.4,0-17,7.9,0,16.3-.2,24.5,0,5.4,0,11.7,3.2,16.5-1,0,.2,1.6.8.6,2-.7.9-1.8.7-2.6,1Z"/>
  <path class="st21" d="M281,41h-54,54Z"/>
  <path class="st21" d="M223,57l-1.4,1c-11.3-.7-23.4.9-34.6,0l36-1Z"/>
  <path class="st21" d="M223,55c-1.7-2.5-1.7-8.7,0-11-.2,3.6.3,7.4,0,11Z"/>
  <path class="st6" d="M152,221v1c-.9.5,0,.9,0,1,0,.3,0,.7,0,1,0,3.8,0,7.7,0,11.5l-1,1.5c-.7,0-1.4,0-2,0s-1.2,0-2,0-.7,0-1,0-.7,0-1,0c-.7.2-2.1-.6-2,.6v91.8c-.1,1.1,1.3.5,2,.6s.7,0,1,0l4,1v17.3c.2,1.2,1.5.4,2,.6,2,.8,1.9.7,4,1l-.6,5,5.6,2,.5,3.1h8.5c0,0,1.1,16.8,1.1,16.8h7.9c0,.1.1,8.5.1,8.5.6,1.8,2,1.2,2.9,1.6,1.4.6,2.2,1.3,3.9,1.1v8.9c-3.8.4-5.6-.4-4.8,4.9,5,2.6,8.6,1.6,13.9,1.1,0,1,0,2,0,3-.6.1-4.4,1.7-4.6,2l.7,4.9,8.9,1.1c-2.3,0-4.7,0-7,0-3.5,0-7,0-10.5,0l-.5-3.1-3.9.9c-.8-2.6-2.1-4.4-5.1-3.9v17h-2v-19s-21,0-21,0v-1c0-5.9.3-12.1,0-18s-.4-1.5-1-2v-1c2.9.9,2.3-4.9,2-7s0-2-.9-2.5l-4.1-.5v3s-1-17-1-17h-10c-.2-45.6.1-91.3,0-137,3.8,0,7.7.1,11.6,0s4,1,3.5-2h2ZM168,365h-2v4h2v-4ZM168,371h-2v4h2v-4ZM160,381c.5-2.3,2.1-4.3-.5-6-9.2,3.5-11.1,4.7.5,6ZM176,379l-9-1c2,5.8.3,3-1.1,4s-1.2,1.7-2,2.3-2.4.4-2.7.8-.4,7-.1,8.2,3.4,1.5,2,4.7l7.9-1.1c1.9-3.4,1.4-8.2,2.3-11.2s4-3.3,2.8-6.7ZM157,387h-4v2h4v-2ZM152,404h7.4c2.3-.9,2-4.3,1.2-6.1l-6.7-1.3-.9-3.6-1,2.5v8.5ZM176,403c.3-1.9-1.2-3.3-3-3v3s3,0,3,0ZM181,406h-5v1h5v-1Z"/>
  <path class="st25" d="M93,256v75c-4.7,1-11.9,2.5-16-.5v-74.5h16Z"/>
  <path class="st25" d="M150,387c.3,5.9,0,12.1,0,18h-17v-14.5c0-.3,1.2-3.4,1.6-3.6h15.4Z"/>
  <path class="st3" d="M113,255v37h-1v-35h-16v35c-2.8-.9.8-17.8-2-21,0-1.3,0-2.7,0-4,1.7-2,1.7-7.8,0-10,0-.7,0-1.3,0-2,6.7.7,12.3,1.3,19,0Z"/>
  <path class="st10" d="M94,267c0-3.3-.2-6.7,0-10,1.7,2.2,1.7,8,0,10Z"/>
  <polygon class="st29" points="150 178 150 207 150 110 150 178"/>
  <path class="st14" d="M325,45c.6,0,1.5-.9,3.4-1.1,15.1-1,31.4.9,46.6,0l1,16c.3,0,.7,0,1,0,.3.3.6.8,1,1,.9.5.8.9,2.4,1.1,10.7.9,22.7-.8,33.6,0l1,6c0,.1.8.6.9,1.5,0,2.2-1.6,5.2-.9,7.9.2.7,2.3,1.7,2.5,1.7h16.5l1,31h1l16,2v63c0,.3,0,.7,0,1h-20c-.7,5.2,1.9,11.1-2,15v-15c.9,0,1.5-.2,2-1,.9-1.6.9-1.4,1.1-3.4.5-6.7.7-19.6,0-26.2,0-.9,0-2.1-1-2.4l-.5-.7c-.6,0-1.2.7-1.5.7,0-.7,0-1.3,0-2h-16.9c-.4.7,0,1.6-.1,2-1.9,4.8-.7,9.8-1,15h-33v-30h17.6c.9.1,1.1-.4,1.4-1s.8-2.3,1-3c1.7-5.6,1.7-23.1,1-29.6s0-2.3-1-2.4l-.4-.8c-.2,0-.4.8-.6.8-.3,0-.7,0-1,0,0-.7,0-1.3,0-2h-19v-15h-1c0,4.7,0,9.3,0,14l-1-14h-20c-2.2,3.1-.5,8.2-1,12-.1.6,0,1.4,0,2v2c-6.3,0-12.7,0-19,0v32.5c0,.2-1.5,1.1-1,1.5h20c0,.3,0,.7,0,1-.3.3-1,.7-1,1h-1c-4.6-1.7-12.3-1.7-17,0l1.5,1h15.5s0,61,0,61h-32V45c.9-.1,2.2.2,3,0l.5,1,.5-1ZM334,125v-34h-1v34h1Z"/>
  <polygon class="st9" points="379 43 417 44 417 57 379 57 379 43"/>
  <path class="st9" d="M437,79c5,.3,10-.2,15,0v29h-14l-1-1.4v-27.6Z"/>
  <path class="st23" d="M377,60c7.9-.9,15.7-.1,23.5,0s11-.2,16.5,0v18c6,.2,12-.3,18,0v32l-1-31h-16.5c-.3,0-2.3-1-2.5-1.7-.7-2.6,1-5.6.9-7.9s-.9-1.3-.9-1.5c0-2.3,0-4.7,0-7h-37c-.4-.2-.7-.7-1-1Z"/>
  <polygon class="st21" points="379 43 379 57 417 57 378 58 379 43"/>
  <path class="st7" d="M436,79v31h-1v-32c.3,0,.8,1,1,1Z"/>
  <path class="st21" d="M382,426h-177c59,.3,118,.1,177,0Z"/>
  <path class="st21" d="M402,426c-3.7,1.7-11.1,1.7-15,0,5,0,10,0,15,0Z"/>
  <path class="st21" d="M195,426c-1.9,1.7-7.1,1.7-9,0,3,0,6,0,9,0Z"/>
  <path class="st21" d="M413,426c-1.6,1.7-6.5,1.7-8,0,2.7,0,5.3,0,8,0Z"/>
  <path class="st8" d="M166,110v1h-14c-1.4.1-.9,1.5-1,2.4-2.1,17,0,43.4,0,61.6s0,.7,0,1c0,.7,0,1.3,0,2h-1v-68h16Z"/>
  <path class="st24" d="M184,78c-.2.6-.6.7-1,1h-2c-.7,0-1.3,0-2,0-3.7,0-7.3,0-11,0v30c-.5.9-.9,1.7-2,2v-33h18Z"/>
  <path class="st0" d="M96,292v-35h16v35h-16Z"/>
  <path class="st2" d="M113,314c0,5.7,0,11.3,0,17-1,0-2.3.9-4,1-3.4-2.2-8.9-.5-13-1v-17h17Z"/>
  <path class="st21" d="M114,292h-1v-36c1.7,1,1,3.8,1,5.5.1,10.1.2,20.4,0,30.5Z"/>
  <path class="st26" d="M448,221v1H152v-1c98.6,0,197.4-1.1,296,0Z"/>
  <path class="st3" d="M150,221c.6,3-1.5,1.9-3.5,2-3.8.1-7.7,0-11.6,0,.1,45.7-.2,91.4,0,137h-1c.1-46,0-92,0-138l1-1h15Z"/>
  <polygon class="st6" points="134 222 134 221 135 221 134 222"/>
  <path class="st0" d="M490,292c0-11.1,0-22.2,0-33.3,4.5-3.7,10.2,0,15-1.7l1,35c-4.7-.6-11.1,0-16,0v22h-2c0-7.3,0-14.7,0-22h2Z"/>
  <path class="st4" d="M135,360h10s1,17,1,17h5c.3,2.1.9,7.9-2,7h-14c0-8,0-16,0-24Z"/>
  <path class="st3" d="M412,482v1c-6.7,0-13.3,0-20,0s-2.7,0-4,0c-39.6,0-79.4,0-119,0-1.3,0-2.7,0-4,0-6.7,0-13.3,0-20,0s-3.3,0-5,0c-11.3,0-22.7,0-34,0s-11.4.1-17,0-.7,0-1,0-.7,0-1,0c-2.6,0-4.7-.9-6-1,5-.2,9.4-1.1,14.6-1,71.8,1.1,145.1,2.9,216.4,1Z"/>
  <rect class="st2" x="258" y="445" width="81" height="16"/>
  <path class="st20" d="M171,550c7,0,14,0,21,0s.7,0,1,0c43.3.1,86.7,0,130,0h4c20.3,0,40.7,0,61,0,3,0,6,0,9,0,4.7,0,9.3,0,14,0s1.3,0,2,0c5.6,0,11.5-.3,17,0s1.7,0,2,1c-91.6,1.2-183.9,1.2-275.5,0-1.7,0-4.4.6-5.5-1,.3,0,.7,0,1,0,6,.5,12.8,0,19,0Z"/>
  <path class="st12" d="M448,223v6l-8.6,1.9-.4,11.1h9s1,11,1,11l-1,1c-.7-.3-1.3-.7-2-1-2.3-.9-4.2-2.1-6.6,0l-.4,8.1h9c0,.7,0,1.3,0,2,.2,2.3-.2,4.7,0,7-1.9,0-4.8-.4-6.4,0s-.5,1.8-.6,2c-.4.6-1.7.5-2,2.5-1.2,7.3,3.9,5.3,9,5.5,1.9,3.6.7,8,1,12-.3,0-.7,0-1,0-3,0-6,0-9,0,0,1.8-.5,10.5,1.7,11h7.3c0-1.4,0-2.7,0-4l5,2-2.9-1v-7c0,0,5.9,0,5.9,0v7.4c0,.5-2.2,1.2-3,1.6s-2.7-.4-3.6.9l-.6,7.9c-3.2,1.4-6.7,1.8-9.9.1l2,8,6,1v8c-3-.5-4.5,0-7,1-4.8,1.8-1.9,5.8-4.2,9.9-2.1,0-2.9,0-4.8,1.1s-.8.7-1,1c-1.6,2.8-1,4.8-1,8-2.7-.3-3.8-.2-6,1s-.8.7-1,1c-2.2,3.9-.5,9.5-1,14h-8c0,.7,0,1.3,0,2-.2,3.3.1,6.7,0,10h-10s0,9,0,9h-16v11h-14l-1,16h-162l-1-7c-4,.2-8.1-.3-12,0s-.7,0-1,0v-9c-2.7,0-5.3,0-8,0s-.7,0-1,0v-10s-5,0-5,0c-.9-.4-2.3.2-2.9-1.6v-8.4c-.1,0-8-.1-8-.1l-1.1-16.9h-8.5c0,0-.5-3-.5-3,0-1.7.1-3.4,0-5s0-1.3,0-2l-8-1v-17.6s-1-1.4-1-1.4c-2-.1-4,.2-6,0v-93c.3,0,.7,0,1,0,.6.1,1.5-.2,2,0s.7,1,1.4.9l.6-.9,1-1.5c0-3.8,0-7.7,0-11.5h290.6c1.2.7,3.1-1,3.4-1,.7,0,1.3,0,2,0ZM239,255l7-1c0-.6-1.3-2-1.5-2h-33c-4,0-11.8,10.8-15,13l-.6,2.4c1.5,14.7-1.8,32.6.3,46.8s3.1,6.5,4.2,7.8c2.1,2.4,4.4,2.4,5.6,3.5,1.9,1.7-.6,2.9,3,3.5s1.3,0,2,0c.7,1.6,4.3,1.6,5,0,.7,0,1.3,0,2,0,1,1.2,2,1.2,3,0,2.7,0,5.3,0,8,0,3.4,1.5,12.8,1.9,16,0s.9-.4,1-1v-1l9.8-8.2.2-1.8-.2-53.3c-.3-.9-7-7.8-7.8-8.2-2.5-1.1-6.2-.4-9-.5ZM349,261c-.8,1.1,1.6,1.2-2,2s-.3-1.1-1-.6c-.9,1-1.6,2.3-2,3.6-1.5,4.2-1.8,11.1,0,15,0,3.3,0,6.7,0,10-1.7,5.7-1.7,14.2,0,20,0,1.3,0,2.7,0,4v1l1,1h1c0,.3,0,.7,0,1,.6,3.4,3.1,6.5,6,8.6s2.9.9,4,1.4,1.1.8,2,1c7.1,1.6,16.8,1.7,24,0,2.3,0,4.7,0,7,0s.4.4,3,0,.7,0,1,0c5.2-1.6,9.3-5.5,10-11,.2-.2.7.1,1,0,1.5-.8.7-1.9,1-3s.9-1.4,1.1-3.4c.9-10.8,1.1-32.6,0-43.2s-.8-1.7-1-2.4.2-1.2-1-2-.7,0-1,0h-1c-.6-1-1.3-2-2-3,.9-4.1-4.5-3.9-5.2-7.8l-38.3-.2c-2.4.5-7.1,5.4-7.5,8ZM258,266v50-50ZM232,363c-1.7.9-1.1,17.1-.5,20s1.4.9,1.5,1c.1.3-.1.8,0,1s-1.2.2,0,1c3.1,2,15,1.4,19,0h7c1,1.7,3.8,1,5.5,1,6.9,0,15,.7,21.5-1h5c.7,1.6,4.3,1.6,5,0h3c1,1.7,3.8,1,5.5,1,18.7.2,42,1.6,60.1,0,2-.2,1.8-.1,3.4-1.1s.8-.6,1-1v-1h1c1.3-.1,1-1.5,1-2.4.4-4.2.4-11.9,0-16.1s.3-1.6-1-2.4-.6,0-1,0h-137Z"/>
  <path class="st10" d="M387,397l-12,1v16c1,0,2,0,3,0,4.3.1,8.7,0,13,0-.6,3.8,3.7,1,6,2.5s1.1,2.1,2.1,2.9c2.1,1.6,5.5,1.1,4.9,5.6-2,0-4,0-6,0l-.5-1-.5,1c-3.7,0-7.3,0-11,0-.3-1.5-3.6-1.6-4,0-2.7,0-5.3,0-8,0l-1-1v-10c0-2.5-.6-16.4,0-17h14Z"/>
  <path class="st4" d="M449,385v17.5c0,.3,1.3.8,1,1.5h-18.5l-1.5-7h9s0-12,0-12h10Z"/>
  <path class="st0" d="M421,408v6c-10,0-20,0-30,0s-8.7.1-13,0l42-1c-.5-2.2.3-3.3,1-5Z"/>
  <path class="st16" d="M440,329c.6-.2,1.1.6,1,1-.8,4.4,0,6.9-1,11l-9-1c1.9-1.1,2.7-1.1,4.8-1.1,2.2-4.1-.6-8.1,4.2-9.9Z"/>
  <path class="st16" d="M457,231v6s-9,0-9,0c1.4-1.9,2.3-3.4,2-5.9h7Z"/>
  <path class="st10" d="M448,272c0,.9,1,1.7,1,2,.2,1.9-.2,4.1,0,6-.3,0-.7,0-1,0-5.1-.2-10.2,1.8-9-5.5.3-2,1.6-1.9,2-2.5h7ZM447,273h-6v6h6v-6Z"/>
  <path class="st10" d="M448,223c6.3-.2,12.7.1,19,0,0,.7,0,1.3,0,2l-17-1v4s7,1,7,1h-9v-6Z"/>
  <path class="st27" d="M449,292c2.7,0,5.3,0,8,0-.9,4,2.8,11.7-4,10,.8-.4,2.9-1.2,3-1.6v-7.4s-6.1,0-6.1,0v7c0,0,3,1,3,1l-5-2c0-2.3,0-4.7,0-7,.3,0,.7,0,1,0Z"/>
  <polygon class="st12" points="457 260 450 260 450 254.6 456 254 457 259 457 260"/>
  <path class="st17" d="M446,253h-5s0,7,0,7l5.4-.8,1.6,1.8h-9s.4-8.1.4-8.1c2.4-2,4.3-.9,6.6,0Z"/>
  <polygon class="st27" points="449 253 457 253 457 259 456 254 450 254.6 450 260 457 260 449.1 260.9 448 254 449 253"/>
  <path class="st27" d="M422,351v14.9c-.1,0-9,1.1-9,1.1,0-.7,0-1.3,0-2h8c.5-4.5-1.2-10.1,1-14Z"/>
  <path class="st27" d="M449,274c0-4-1.3-2.4,1.7-2.3s4.2.5,6.3.3v7.4c-.1,1.1-6.5.5-8,.6-.2-1.9.2-4.1,0-6ZM456,273h-6v6h6v-6Z"/>
  <path class="st27" d="M430,341l1,9h-8c2.2-1.2,3.3-1.3,6-1,0-3.2-.6-5.2,1-8Z"/>
  <path class="st26" d="M448,263l2,.6v6.4c-.7,0-1.4,0-2,0,0,.7,0,1.3,0,2h-7c.2-.3-.6-1.7.6-2s4.4.1,6.4,0c-.2-2.3.2-4.7,0-7Z"/>
  <path class="st27" d="M447,319l1,1c-.2,2.6.3,5.4,0,8l-2,2c-1.6.2-3.4-.1-5,0,0-.4-.4-1.2-1-1,2.5-.9,4-1.5,7-1v-8s-6-1-6-1h6Z"/>
  <path class="st16" d="M448,328c0,.7,0,1.3,0,2-.7,0-1.3,0-2,0l2-2Z"/>
  <path class="st16" d="M448,320l-1-1,1,1Z"/>
  <path class="st0" d="M430,550c-5.5-.3-11.4,0-17,0v-2c.3,0,.7,0,1,0h15s1-25,1-25c0,9,0,18,0,27Z"/>
  <path class="st10" d="M414,548c-.3,0-.7,0-1,0s-.7,0-1,0c.2-13.5-.2-27.1,0-40.6s1-3.7,1-4.4h1v45Z"/>
  <path class="st5" d="M412,490c.3,4,1.1,7.3,1,12h-2c-2.2-2.4-15.1,0-16-1v-11s17,0,17,0Z"/>
  <path class="st10" d="M412,483c.1,2.3-.2,4.7,0,7h-17s0,11,0,11c.9.9,13.8-1.4,16,1h-17l-1-1c-.1-2.8.2-5.7,0-8.6s-1-2.3-1-2.4c0-.3,0-.7,0-1s1.4-4,0-6c6.7,0,13.3,0,20,0Z"/>
  <path class="st27" d="M411,502h2c0,.3,0,.7,0,1,0,.7-1,2.5-1,4.4-.1,13.5.2,27.1,0,40.6-.3,0-.7,0-1,0v-45s-17-1-17-1h17Z"/>
  <path class="st5" d="M189,484v6c6,0,12,0,18,0,0,.7,0,1.3,0,2-.3,2.9.2,6,0,9l-11,2-1.1,1.5c0,1.5,1.1,2.3,1.1,2.5,0,.7,0,1.3,0,2h-2s0,2.5,0,2.5l2,.5c0,1.3,0,2.7,0,4s0,3.3,0,5,0,.7,0,1h-2c0,1,0,2,0,3-.5,7.6.4,15.4,0,23l-1,1v1c-.3,0-.7,0-1,0,.6-3-1.5-1.9-3.5-2-5.8-.2-11.7,0-17.5,0,0-14.3,0-28.7,0-43s0-1.3,0-2c.7,0,1.3,0,2,0,4.7,0,9.4,0,14,0,0-5.7,0-11.4,0-17v-3c.3,0,.7,0,1,0l1,1Z"/>
  <path class="st2" d="M187,486c0,5.7,0,11.4,0,17-4.7,0-9.4,0-14,0l13-1c.9-.9-1.4-13.8,1-16Z"/>
  <path class="st17" d="M207,414c.3,0,1.9,3.2,4.4,2.1,47.3-1.3,94.8,1.5,142.1,0s4,1,3.5-2h16v11h-147c-.3-1.5-3.6-1.6-4,0h-3c-.3-1.5-3.6-1.6-4,0h-4c-.3-1.2-2-1.1-3-1,2.4-4.2-2.1-5.9-2-10,.3,0,.7,0,1,0Z"/>
  <path class="st4" d="M173,425v-17c3-.5,4.4,1.3,5.1,3.9l3.9-.9.5,3.1c3.5,0,7-.1,10.5,0l-6,2,2,9h-16Z"/>
  <path class="st10" d="M200,414c1.9,0,4.3-.3,6,0,0,4.1,4.4,5.8,2,10-.5,0-.9.5-1,1h-11c-.3-1.5-3.6-1.6-4,0h-3l-2-9,6-2c2.3,0,4.7,0,7,0Z"/>
  <path class="st4" d="M226,425h-4c.4-1.6,3.7-1.5,4,0Z"/>
  <path class="st4" d="M196,425h-4c.4-1.6,3.7-1.5,4,0Z"/>
  <path class="st4" d="M211,425h-4c0-.5.5-.9,1-1,1-.1,2.7-.2,3,1Z"/>
  <path class="st4" d="M386,425c-1.3,0-2.7,0-4,0,.4-1.6,3.7-1.5,4,0Z"/>
  <path class="st4" d="M219,425h-4c.4-1.6,3.7-1.5,4,0Z"/>
  <path class="st4" d="M398,425c-.3,0-.7,0-1,0l.5-1,.5,1Z"/>
  <path class="st4" d="M374,425c-.3,0-.7,0-1,0v-1l1,1Z"/>
  <path class="st28" d="M448,222v1c-.7,0-1.3,0-2,0H152c0-.1-.9-.5,0-1h296Z"/>
  <path class="st15" d="M170,505v43c-6,0-12,0-18,0,0-14.3,0-28.7,0-43h18Z"/>
  <path class="st2" d="M171,548h-1v-43h1c0,14.3,0,28.7,0,43Z"/>
  <path class="st10" d="M170,548h1v2c-6.2,0-13,.5-19,0v-2c6,0,12,0,18,0Z"/>
  <path class="st7" d="M353,127h1c-2.2,19.5,1.7,42.7,0,62.6-.2,1.3.3,1.6,1.1,2.4,2.2,2.2,17.3.9,21,0s1.4-1.6,2-2,.8.2,1,0c10.2,1,22.6-1.3,32.5,0s1.8,1.6,2.5,2.1c2.4,1.5,12.2,1.6,15,.5s.7-1.2,1-1.5c3.9-3.9,1.3-9.8,2-15h20c0,10,0,20,0,30h-131.5l-1.4-1.6c1.4-4.7,1.3-9.7-.1-14.4h32.5s1.4-1,1.4-1v-61s-15.5,0-15.5,0l-1.5-1h17Z"/>
  <path class="st7" d="M321,189V45v144Z"/>
  <path class="st7" d="M452,175v-63c0,21,.1,42,0,63Z"/>
  <path class="st22" d="M339,43h-13c3-1.7,9.8-1.7,13,0Z"/>
  <path class="st7" d="M324,45c.3,0,.7,0,1,0l-.5,1-.5-1Z"/>
  <polygon class="st29" points="152 176 168 176 168 191 184 192 184 206 152 206 152 176"/>
  <path class="st22" d="M193,110v32l1.4,1c3.8.1,7.7-.2,11.6,0v3c0,3.2-.3,6.9,0,10s0,1.3,0,2h2s12,0,12,0v12c-.8,5.6-10.6,2-15,3,0-.3,0-.7,0-1-.3-2.4.1-5.4,0-8s0-3.3,0-5l-13-1v-15h-14c0-.3,0-.7,0-1-1.3-9.7,1-22,0-32,4.3-.6,10.4,0,15,0ZM180,112.5c1.2,8.6-.9,19.6,0,28.5h11v-27.5c0-.3,1.4-1.4,1-2.5h-13c-.5.4,1,1.2,1,1.5ZM205,144h-11v12h11v-12ZM218,159h-10s-1,12-1,12h11s0-12,0-12Z"/>
  <path class="st29" d="M296,80l1,126c-4.7,0-9.4,0-14,0v-16s13,0,13,0v-110Z"/>
  <path class="st8" d="M214,93v15s17.6,0,17.6,0l1.4-1v-16s29,.5,29,.5c.6.3.7,1,1,1.5v15s13,0,13,0c1.9,1,1.9,1.4,2.1,3.4.8,9.7-.8,20.7,0,30.6-.7,0-1.3,0-2,0,1.3-9.7-1-22,0-32-4.7,0-9.3,0-14,0-.1,0-.5-.9-1-1v-17h-27v15c0,.5.1,1.5-.2,1.7-1.2.8-18.4.3-21.8.3v-17s-18,0-18,0l-1-1,20,.5c.6.3.7,1,1,1.5Z"/>
  <path class="st9" d="M248,158c.2,5-.2,10,0,15-.3,0-.7,0-1,0-4,.5-8.9-.4-13,0,0-.3,0-.7,0-1s0-.7,0-1v-13c1.2-1.2,13.1,2.7,13-3,0,.2.9,1.4,1,3Z"/>
  <path class="st22" d="M263,111v30c3.6.2,7.4-.3,11,0s1,.9,2,1c0,.3,0,.7,0,1h-14s0,15,0,15c-.3,0-.7,0-1,0-4,.5-8.9-.4-13,0,0-1.6-1-2.8-1-3-.1-3.6,0-7.4,0-11l1-1c2.9-.5,11.8,1.5,12.9-1.6v-30.4c.1,0,.1-1,.1-1,.3,0,.7,0,1,0,.2,0,.6.9,1,1ZM260,144h-11v13c3.4-1.6,7.6-1.6,11,0v-13Z"/>
  <path class="st11" d="M234,107c1.3.3.6,1.8,2.4,2.1,7.1,1,17.8-1.4,24.6,0s.9,1,1,1c-.3,0-.7,0-1,0-9,0-18,0-27,0l1,1-1,15-11.6,1.1c-3-3.4-6.1-1.9-10.4-2.1v-15c-6.3,0-12.7,0-19,0l1-1c6,0,12,0,18,0s20.6.5,21.8-.3.3-1.2.2-1.7ZM233,111h-20c1.6,4,1.6,9.1,0,13h20v-13Z"/>
  <path class="st22" d="M194,92h18s0,17,0,17c-6,0-12,0-18,0v-17ZM195,95v12l16,1-1-14-15,1Z"/>
  <path class="st29" d="M151,175c0-18.1-2.2-44.5,0-61.6s-.3-2.3,1-2.4l-1,64Z"/>
  <path class="st8" d="M178,110c1,10-1.3,22.3,0,32-3,.6-1.9-1.5-2-3.5-.3-9.3.2-18.6,0-27.9-.1-1.1,1.3-.5,2-.6Z"/>
  <path class="st24" d="M221,171c0,.7,0,1.3,0,2s-1,1.1-1,2.4c-.3,4.2.9,8.7-1,12.6h16c-.4,1,0,2.4-1.6,2.9-1.6.5-12.2.4-13.4-.3s-.7-2.2-.9-2.5-1.7.5-2-.7c-.6-2.2.6-12.7,0-13.4l-12-1c4.4-1,14.2,2.6,15-3h1c0,.3,0,.7,0,1Z"/>
  <path class="st29" d="M179,79l-10,1c-1.1,1.1,1.6,24.3-1,29v-30c3.7,0,7.3,0,11,0Z"/>
  <path class="st29" d="M223,61c-.7.3-.9.9-2.4,1-10.7,1.2-23.6-1-34.6,0l1.4-1h35.6Z"/>
  <path class="st8" d="M247,173l-11,1c-.2,5,.8,9.4-1,14h-1v-6c1.7-1.6,1.7-6.5,0-8v-1c4.1-.4,9,.5,13,0Z"/>
  <path class="st29" d="M214,93c2.3,3.6.4,9.7,1,14h18s-1.4,1-1.4,1h-17.6s0-15,0-15Z"/>
  <path class="st29" d="M282,50v27c-1.7-1-1-3.8-1-5.5-.1-9.2.1-18.4,0-27.5l1,6Z"/>
  <path class="st1" d="M152,206c-1.7-1-1-3.8-1-5.5,0-7.5,0-15,0-22.5s0-1.3,0-2h1v30Z"/>
  <path class="st8" d="M261,158c.3,3.5-.8,1.1-2.6,1.1-3.1-.1-6.3,0-9.4,0l-1,14c-.2-5,.2-10,0-15,4.1-.4,9,.5,13,0Z"/>
  <polygon class="st8" points="276 143 263 144 262 158 262 143 276 143"/>
  <polygon class="st8" points="178 143 192 143 192 158 205 159 191.9 158.6 191 144 178 143"/>
  <path class="st29" d="M263,93c2.3,3.6.4,9.7,1,14,4.1.3,8.3-1,12,1h-13s0-15,0-15Z"/>
  <path class="st29" d="M192,108h-13c-.2-1.8,2.3-.9,3.5-1,2.8-.1,5.7,0,8.5,0v-14h1v15Z"/>
  <path class="st24" d="M205,164c.1,2.6-.3,5.6,0,8h-2s0-7.4,0-7.4l2-.6Z"/>
  <path class="st29" d="M295,80c-3.9-.5-7.2,1.1-11-1,3.5.5,8.3-1.2,11,1Z"/>
  <path class="st29" d="M183,79c-.7.6-.6,1.7-2,0h2Z"/>
  <path class="st26" d="M446,223c-.3,0-2.2,1.7-3.4,1.1H152c0-.4,0-.7,0-1.1h294Z"/>
  <path class="st5" d="M176,379c1.2,3.4-2.2,4.8-2.8,6.7-.9,2.9-.5,7.8-2.3,11.2l-7.9,1.1c1.4-3.2-1.9-4.2-2-4.7-.3-1.1-.2-7.8.1-8.2s1.9-.1,2.7-.8.9-1.6,2-2.3,3.1,1.8,1.1-4l9,1Z"/>
  <path class="st10" d="M145,237v93c-.7-.1-2.1.5-2-.6v-91.8c-.1-1.2,1.3-.4,2-.6Z"/>
  <path class="st5" d="M197,406l10,1v7c-.3,0-.7,0-1,0-1.7-.3-4.1,0-6,0l-8.9-1.1-.7-4.9c.2-.2,4-1.8,4.6-2s.7,0,1,0,.7,0,1,0Z"/>
  <path class="st27" d="M146,330c-.3,0-.7,0-1,0v-93c.3,0,.7,0,1,0v93Z"/>
  <path class="st5" d="M186,397c.3,0,.7,0,1,0s.7,0,1,0c.8,2.1,6.5.5,7,1,0,1.7,0,3.3,0,5-5.3.5-8.9,1.5-13.9-1.1-.8-5.3,1-4.5,4.9-4.9Z"/>
  <path class="st4" d="M152,404v-8.5s1-2.5,1-2.5l.9,3.6,6.7,1.3c.8,1.8,1.1,5.2-1.2,5.9h-7.4Z"/>
  <path class="st10" d="M152,330v19c-.5-.2-1.8.6-2-.6v-17.3s-4-1-4-1c2,.2,4-.1,6,0Z"/>
  <path class="st5" d="M160,350l1,2c.1,1.6,0,3.3,0,5l-5.6-2,.6-5c1.3.2,2.7-.1,4,0Z"/>
  <path class="st5" d="M160,381c-11.6-1.3-9.7-2.5-.5-6,2.6,1.7,1,3.7.5,6Z"/>
  <path class="st27" d="M152,330l1,1.4v17.6s8,1,8,1h-1c-1.3-.1-2.7.2-4,0-2.1-.3-2-.2-4-1v-19Z"/>
  <path class="st10" d="M188,397c2.7,0,5.3,0,8,0v9c-.3,0-.7,0-1,0,0-1,0-2,0-3,0-1.7,0-3.3,0-5-.5-.5-6.2,1.1-7-1Z"/>
  <path class="st10" d="M182,387h5s0,10,0,10c-.3,0-.7,0-1,0v-8.9c-1.8.2-2.6-.4-4-1.1Z"/>
  <path class="st5" d="M151,377h-5v-3s4.1.5,4.1.5c.9.6.8,1.6.9,2.5Z"/>
  <rect class="st5" x="153" y="387" width="4" height="2"/>
  <rect class="st5" x="166" y="371" width="2" height="4"/>
  <rect class="st5" x="166" y="365" width="2" height="4"/>
  <path class="st5" d="M176,403h-3s0-3,0-3c1.8-.3,3.3,1.1,3,3Z"/>
  <rect class="st4" x="176" y="406" width="5" height="1"/>
  <path class="st10" d="M149,237c-.5-.2-1.4.1-2,0,.8,0,1.9,0,2,0Z"/>
  <path class="st27" d="M151,237l-.6.9c-.7.1-1.1-.8-1.4-.9.6,0,1.3,0,2,0Z"/>
  <path class="st11" d="M356,109c0,5.3,0,10.7,0,16h20c.3,0,.7,0,1,0v35s9,0,9,0l-9,2h-1l-1-1v-32.6s-1-1.4-1-1.4h-17c0,1.3,0,2.7,0,4-1.2,19.3.9,39.6,0,59h18v-12c.5-1.1.8-2.3,2-3l2,2c-1,0-2,0-3,0v15c-3.7.9-18.8,2.2-21,0,0-22,0-44,0-66s0-.7,0-1c0-5.1-.8-11.5,1-16Z"/>
  <path class="st23" d="M399,92v32c-.2.7-.8,2.7-1,3h-20v32h35v-16c.2-.4-.3-1.3.1-1.9h16.9c0,.5,0,1.2,0,1.9.3,0,.9-.8,1.5-.7l.5.7v32c-.5.8-1.1,1-2,1,0-1.3,0-2.7,0-4,1.7-3.9,1.7-11.3,0-15v-2c0-.2.7-.5.7-.8,0-.8-.7-1.1-.7-1.2,0-2,0-4,0-6s0-.7,0-1c0-1,0-2,0-3-4.9,0-10.4.7-15-1v18c-.3,0-.7,0-1,0-1.2.2-2.7,0-4,0s-3.3,0-5,0-.7,0-1,0c-6,0-12,0-18,0h-9s0-34,0-34l1-1c.3,0,.7,0,1,0,4.6,1.7,12.3,1.7,17,0,.3,0,.7,0,1,0l1-1.5v-31.5c0,0,.3-.8.5-.8l.4.8Z"/>
  <path class="st20" d="M355,91c.3,0,.7,0,1,0,0,.3,0,.7,0,1s0,.7,0,1c-1.7,3.6-1.7,10.6,0,14,0,.7,0,1.3,0,2-1.8,4.5-1,10.9-1,16h-20c-.5-.4,1-1.3,1-1.5v-32.5c6.3,0,12.7,0,19,0ZM338,124h15l1-31h-17l1,31Z"/>
  <path class="st7" d="M398,127c-.4.6-.6,1.1-1.4,1h-17.6s0,30,0,30h33c.3-5.2-.9-10.2,1-15v16h-35v-32h20Z"/>
  <path class="st13" d="M356,75h20s1,14,1,14v2c-.7,0-1.3,0-2,0s-1.4,0-2,0h-17c-.1-.8,0-1.7-1-2,0-.6-.1-1.4,0-2,.7-3.9,1.6-7.7,1-12ZM375,78l-18-1v12.4c.1.9,16.3,1.3,18-.4v-11Z"/>
  <path class="st23" d="M355,192c-.8-.8-1.2-1.1-1.1-2.4,1.7-19.9-2.1-43.2,0-62.6s.7-.7,1-1c0,22,0,44,0,66Z"/>
  <path class="st23" d="M377,89c0-4.7,0-9.3,0-14h1s0,15,0,15h19c0,.7,0,1.3,0,2-6.5,0-13.6.4-20,0v-3Z"/>
  <path class="st7" d="M378,61h37c0,2.3,0,4.7,0,7l-1-6c-10.9-.7-22.9,1-33.6,0s-1.5-.6-2.4-1.1Z"/>
  <rect class="st7" x="333" y="91" width="1" height="34"/>
  <path class="st7" d="M397,125c-.4-10.9.5-22.1,0-33,.3,0,.7,0,1,0v31.5s-1,1.5-1,1.5Z"/>
  <path class="st7" d="M399,124v-32c1.1.1,1,1.6,1,2.4.6,6.4.7,23.9-1,29.6Z"/>
  <path class="st7" d="M432,175v-32c1.1.3,1,1.5,1,2.4.7,6.6.5,19.5,0,26.2s-.1,1.8-1.1,3.4Z"/>
  <path class="st23" d="M353,127h-17c4.7-1.7,12.4-1.7,17,0Z"/>
  <path class="st11" d="M355,87c.5-3.8-1.2-9,1-12,.6,4.3-.3,8.1-1,12Z"/>
  <path class="st11" d="M356,91c-.3,0-.7,0-1,0v-2c1,.3.9,1.2,1,2Z"/>
  <path class="st17" d="M206,483c1,1.7,3.8,1,5.5,1,7.7,0,15.4,0,23,0s4.4.6,5.5-1c1.7,0,3.3,0,5,0,5.8,1.7,14.3,1.7,20,0,1.3,0,2.7,0,4,0h119c1.3,0,2.7,0,4,0,1.4,2,0,5.6,0,6l-185,1c-6,0-12,0-18,0v-6s0-1,0-1c5.6.1,11.4,0,17,0Z"/>
  <path class="st10" d="M388,483h-119c39.6,0,79.4,0,119,0Z"/>
  <path class="st10" d="M240,483c-1,1.7-3.8,1-5.5,1-7.7,0-15.4,0-23,0s-4.4.6-5.5-1c11.3,0,22.7,0,34,0Z"/>
  <path class="st10" d="M265,483c-5.7,1.7-14.2,1.7-20,0,6.7,0,13.3,0,20,0Z"/>
  <path class="st10" d="M189,484l-1-1c.3,0,.7,0,1,0v1Z"/>
  <path class="st28" d="M411,548c.3,0,.7,0,1,0s.7,0,1,0v2c-.7,0-1.3,0-2,0-3.6-1.7-10.6-1.7-14,0-3,0-6,0-9,0h-65l-130-1,1-1c72.3-.3,144.7.4,217,0Z"/>
  <path class="st27" d="M323,550c-43.3,0-86.7.1-130,0v-1l130,1Z"/>
  <path class="st27" d="M388,550c-20.3,0-40.7,0-61,0h61Z"/>
  <path class="st0" d="M171,548c5.8,0,11.7-.2,17.5,0s4-1,3.5,2c-7,0-14,0-21,0v-2Z"/>
  <path class="st27" d="M411,550c-4.7,0-9.3,0-14,0,3.4-1.7,10.4-1.7,14,0Z"/>
  <path class="st9" d="M256,317l-.2,1.8-9.8,8.2-39-2c-3-2.3-5.3-5.4-8-8l2-54c.5-.8.2-2,1.4-3.1s2.1-.6,2.6-.9c1-.7,2.4-2.2,3-2.5,2.4-.9,33-1.2,36.5-.5s10.2,8.5,10.6,11.4c2,15.2-2.4,34.4.9,49.6Z"/>
  <path class="st9" d="M400,261c.7,1,1.4,2,2,3v54c-2.5,2.2-4.7,6.4-8,8h-38.3s-8.2-9-8.2-9l-.6-49.5c.3-2,2.8-5.6,4.1-7.4s1-3.4,4-4c11.3-2.1,27.6,2.4,39-1,.8,0,5.3,5,6,6Z"/>
  <path class="st10" d="M209,406v8c49.3,0,98.7,0,148,0,.6,3-1.5,1.9-3.5,2-47.3,1.6-94.8-1.2-142.1,0-2.6,1.1-4.2-2-4.4-2.1v-7s-10-1-10-1c3.9-.3,8,.2,12,0Z"/>
  <path class="st20" d="M235,363c-.1.6.2,1.5,0,2-1.4,4.5-1.4,10.6-1,15.5s-.5,2.6,3,2.5c1.3.3,3.5,0,5,0s1.3,0,2,0c40.9,1.1,82.1-.8,123,0,1.8-5.3,1-12.3,1-18v-2c.3,0,.7,0,1,0s.8-.1,1,0v21h-137c0-.1-1.4-.5-1.5-1-.6-2.8-1.3-19.1.5-20h3Z"/>
  <path class="st27" d="M373,414h-16c-49.3,0-98.7,0-148,0v-8s1,7,1,7h162l1-16c-.6.6,0,14.5,0,17Z"/>
  <path class="st27" d="M209,329c-3.6-.6-1.1-1.7-3-3.5s-3.5-1.1-5.6-3.5-3.9-6.2-4.2-7.8c-2.2-14.3,1.1-32.1-.3-46.8l.6-2.4c3.2-2.2,10.9-13,15-13h33c.2,0,1.6,1.3,1.5,2l-7,1c-7.2-.2-23.3-1.2-29.5,0-2.3.4-3.5,2.2-4.5,4-.4.3-1.7.1-2.6.9s-1,2.3-1.4,3.1-1.6.3-2.1,3.4c-2,15.3,1.6,34.8,0,50.6,2.7,2.6,5,5.7,8,8s.7,1.7,2,2v2Z"/>
  <path class="st28" d="M369,363c-.3,0-.7,0-1,0-42.9-3.2-89.7,2.4-133,0h-3,137Z"/>
  <path class="st28" d="M369,385c-.2.4-.6.8-1,1h-135c-1.2-.8.1-.7,0-1h136Z"/>
  <path class="st26" d="M369,384v1h-136c-.1-.2.1-.7,0-1h136Z"/>
  <path class="st20" d="M239,255c2.8,0,6.5-.6,9,.5s7.6,7.3,7.8,8.2l.2,53.3c-3.4-15.2,1.1-34.3-.9-49.6s-7.9-10.9-10.6-11.4-34.1-.4-36.5.5-2,1.8-3,2.5c1.1-1.8,2.3-3.5,4.5-4,6.2-1.2,22.3-.3,29.5,0Z"/>
  <path class="st26" d="M346,318l10.5,9c9-1.5,30.4,2.4,37.5-1s5.5-5.8,8-8,.8.2,1,0c-.7,5.5-4.8,9.4-10,11l-37-1c-1.2-.5-1.9,0-4-1.4s-5.4-5.2-6-8.6Z"/>
  <path class="st27" d="M349,261c.4-2.6,5.2-7.5,7.5-8l38.3.2c.7,3.9,6.1,3.7,5.2,7.8-.7-1-5.2-6-6-6l-39,1c-3,.6-3.3,2.9-4,4-.5.4-1.7.6-2,1Z"/>
  <path class="st26" d="M368,386c-1.6.9-1.4.9-3.4,1.1-18.1,1.5-41.5.2-60.1,0s-4.4.6-5.5-1h69Z"/>
  <path class="st20" d="M351,260c-1.3,1.9-3.8,5.5-4.1,7.4l.6,49.5,8.2,9h38.3c-7.1,3.4-28.5-.5-37.5,1l-10.5-9c0-.3,0-.7,0-1s0-.7,0-1c-.9-16.7.7-34.2,0-51,.3-.7.2-1.5,1-2,3.6-.8,1.2-.9,2-2s1.5-.6,2-1Z"/>
  <path class="st10" d="M448,292c0,2.3,0,4.7,0,7s0,2.7,0,4h-7.3c-2.2-.5-1.7-9.2-1.7-11,3,0,6,0,9,0ZM447,293h-6v7h6v-7Z"/>
  <path class="st28" d="M405,266v49c-.3,1.1.5,2.2-1,3v-54c1.2.8.7,1.2,1,2Z"/>
  <path class="st2" d="M404,318c-.3.1-.8-.2-1,0,2-16.6-1.5-37,0-54,.3,0,.8-.1,1,0v54Z"/>
  <path class="st20" d="M403,318c-.2.2-.8-.2-1,0v-54h1c-1.5,17,2,37.4,0,54Z"/>
  <path class="st27" d="M347,263c-.8.5-.7,1.3-1,2-4.2,11.4,1.1,37.8-1,51v1l-1-1v-1c0-1.3,0-2.7,0-4-.1-6.6,0-13.4,0-20s0-6.7,0-10v-15c.5-1.3,1.1-2.5,2-3.6.6-.5.9.6,1,.6Z"/>
  <path class="st28" d="M258,266v50-50Z"/>
  <path class="st26" d="M258,316v-50,50Z"/>
  <path class="st26" d="M405,315v-49c.3.7.9.9,1,2.4,1.1,10.6.9,32.5,0,43.2s-.8,2.3-1.1,3.4Z"/>
  <path class="st28" d="M393,329c-.3,0-.7,0-1,0h-3c-2.3,0-4.7,0-7,0-8,0-16,0-24,0-.9-.2-1.4-.7-2-1l37,1Z"/>
  <rect class="st10" x="209" y="327" width="37" height="1"/>
  <path class="st28" d="M246,328c-.1.6-.6.7-1,1h-16c-2.7,0-5.3,0-8,0s-2,0-3,0-1.3,0-2,0c-1.7,0-3.3,0-5,0s-1.4,0-2,0v-1h37Z"/>
  <path class="st26" d="M286,386c-6.5,1.8-14.6,1.1-21.5,1s-4.4.6-5.5-1h27Z"/>
  <path class="st26" d="M382,329c-7.2,1.7-16.9,1.6-24,0,8,0,16,0,24,0Z"/>
  <path class="st28" d="M370,384v-21c1.4.8.9,1.1,1,2.4.4,4.2.4,11.9,0,16.1s.3,2.3-1,2.4Z"/>
  <path class="st26" d="M344,311c-1.7-5.8-1.7-14.3,0-20,0,6.6-.1,13.4,0,20Z"/>
  <path class="st26" d="M252,386c-4,1.4-15.9,2-19,0h19Z"/>
  <path class="st27" d="M245,329c-3.2,1.9-12.6,1.5-16,0h16Z"/>
  <path class="st26" d="M344,281c-1.8-3.9-1.5-10.8,0-15v15Z"/>
  <path class="st27" d="M216,329c-.7,1.6-4.3,1.6-5,0,1.7,0,3.3,0,5,0Z"/>
  <path class="st26" d="M296,386c-.7,1.6-4.3,1.6-5,0h5Z"/>
  <path class="st26" d="M392,329c-2.6.4-2.1,0-3,0h3Z"/>
  <path class="st27" d="M221,329c-1,1.2-2,1.2-3,0,1,0,2,0,3,0Z"/>
  <path class="st6" d="M161,352l-1-2h1c0,.7,0,1.3,0,2Z"/>
  <path class="st26" d="M344,316v-1,1Z"/>
  <path class="st26" d="M346,317h-1v-1h1c0,.3,0,.7,0,1Z"/>
  <rect class="st5" x="441" y="273" width="6" height="6"/>
  <rect class="st12" x="450" y="273" width="6" height="6"/>
  <path class="st16" d="M207,492h185s1,9,1,9l1,1,17,1v45c-72.3.4-144.7-.3-217,0,.4-7.6-.5-15.4,0-23h2c1.6-.4,1.5-3.7,0-4,0-1.7,0-3.3,0-5l1-13,8.4-.2,1.6-1.8c.2-3-.3-6.1,0-9Z"/>
  <path class="st27" d="M392,490c0,.1,1,1.1,1,2.4.1,2.9-.2,5.7,0,8.6l-1-9h-185c0-.7,0-1.3,0-2,61.6.4,123.4-.3,185,0Z"/>
  <path class="st4" d="M392,489c0,.3,0,.7,0,1-61.6-.3-123.4.4-185,0l185-1Z"/>
  <path class="st27" d="M207,501l-1.6,1.8-8.4.2-1,13c0-1.3,0-2.7,0-4s0-2,0-3,0-1.3,0-2v-4l11-2Z"/>
  <path class="st10" d="M196,522c0,1,0,2,0,3h-2c0-1,0-2,0-3h2Z"/>
  <path class="st10" d="M196,509c0,1,0,2,0,3l-2-.5v-2.5s2,0,2,0Z"/>
  <path class="st10" d="M196,507c0-.1-1.2-1-1.1-2.5l1.1-1.5v4Z"/>
  <path class="st27" d="M196,525c0-1,0-2,0-3s0-.7,0-1c1.5.3,1.6,3.6,0,4Z"/>
  <path class="st14" d="M378,190v-12h35v11c-10.1.8-21.7-1.1-31.6,0s-1.5.5-2.4,1.1-.8-.2-1,0Z"/>
  <path class="st13" d="M430,143c0,1,0,2,0,3v1c0,2,0,4,0,6v4c0,5,0,10,0,15s0,2.7,0,4v15c-.3.3-.4,1.2-1,1.5-2.8,1.1-12.6,1-15-.5v-16c.5.2,1.8-.6,2,.6v13.4s13,0,13,0v-46h-13s-1,16-1,16v-18c4.6,1.7,10.1,1,15,1Z"/>
  <path class="st23" d="M379,177c3.6-.2,7.4,0,11,0s1.3,0,2,0c4.3,0,8.7,0,13,0h9v15c-.7-.5-.4-1.8-2.5-2.1-9.9-1.2-22.3,1-32.5,0,.9-.6.8-.9,2.4-1.1,9.9-1,21.5.8,31.6,0v-11h-35v12c-.6.4,1.5,1.2-2,2v-15c1,0,2,0,3,0Z"/>
  <path class="st1" d="M193,142h13c.2-1.8-2.3-.9-3.5-1-2.8-.1-5.7,0-8.5,0v-30h17l1,14c4.3.2,7.4-1.3,10.4,2.1l11.6-1.1,1-15h25v30s-13,0-13,0c0,.7,0,1.3,0,2s0,.7,0,1c0,3.6-.1,7.4,0,11,0,5.7-11.8,1.8-13,3v13s-13,0-13,0c0-.3,0-.7,0-1,.1-2.4.6-11.5-1-12h-12l12-2h-12s0-13,0-13c-.7,0-1.3,0-2,0-3.8-.2-7.7.1-11.6,0l-1.4-1Z"/>
  <path class="st9" d="M180,112.5c0-.3-1.5-1.1-1-1.5h13c.4,1.1-1,2.2-1,2.5v27.5h-11c-.9-8.9,1.2-19.9,0-28.5Z"/>
  <rect class="st9" x="194" y="144" width="11" height="12"/>
  <polygon class="st9" points="218 159 218 171 207 171 208 159 218 159"/>
  <path class="st18" d="M206,143c.7,0,1.3,0,2,0v13s12,0,12,0l-12,2h-2c0-.7,0-1.3,0-2,1.7-2,1.7-7.8,0-10v-3Z"/>
  <path class="st18" d="M221,170h-1v-12c1.6.5,1.1,9.6,1,12Z"/>
  <path class="st1" d="M206,156c-.3-3.1,0-6.8,0-10,1.7,2.2,1.7,8,0,10Z"/>
  <path class="st22" d="M234,107v-15h27v17c-6.7-1.3-17.5,1.1-24.6,0s-1.1-1.8-2.4-2.1ZM260,95l-1.4-1h-22.6v14l24-1v-12Z"/>
  <path class="st13" d="M262,110c4.7,0,9.4,0,14,0-1,10,1.3,22.3,0,32-1-.1-1.8-1-2-1l1-30c-.5-.5-9.9.4-12,0s-.8-1-1-1Z"/>
  <path class="st22" d="M234,173v1c0,2.7,0,5.3,0,8v6h-15c1.9-3.9.7-8.4,1-12.6s1-2.3,1-2.4c4.3-.3,9.1.9,13-1,0,.3,0,.7,0,1ZM233,174l-12,1v12s12,0,12,0v-13Z"/>
  <path class="st18" d="M234,171c0,.3,0,.7,0,1-3.9,1.9-8.7.7-13,1,0-.7,0-1.3,0-2h13Z"/>
  <path class="st9" d="M263,111c2.1.4,11.5-.5,12,0l-1,30c-3.6-.3-7.4.2-11,0v-30Z"/>
  <path class="st9" d="M260,144v13c-3.4-1.6-7.6-1.6-11,0v-13s11,0,11,0Z"/>
  <path class="st18" d="M248,143h-1c0-.7,0-1.3,0-2h13s0-30,0-30h1v30.4c-1.2,3.1-10.1,1.1-13,1.6Z"/>
  <path class="st24" d="M261,110v1h-26l-1-1c9,0,18,0,27,0Z"/>
  <path class="st9" d="M247,144c0-.3,0-.7,0-1h1l-1,1Z"/>
  <path class="st9" d="M233,111v13h-20c1.6-3.9,1.6-9,0-13h20Z"/>
  <polygon class="st9" points="195 95 209 95 209 106.4 195 107 195 95"/>
  <polygon class="st21" points="195 95 210 94 211 108 195 107 209 106.4 209 95 195 95"/>
  <path class="st18" d="M234,182c0-2.7,0-5.3,0-8,1.7,1.5,1.7,6.4,0,8Z"/>
  <path class="st9" d="M374,127c.9,10-1.2,21.8,0,31.6s0,1.8,1.1,2.4l1,1c.8,1.3,2.2,1,3.4,1.1,8.1.7,24.2.8,32.2,0s2.1,0,2.4-1l1-.5-1-1.5c.3,0,.7,0,1,0l1-16h13v46h-13s0-13.4,0-13.4c-.2-1.2-1.5-.4-2-.6-8.5-3.4-27.1.5-37-1-1.2.7-1.5,1.9-2,3-1.6,3.9-1,6.8-1,11h-16l-1-58c0-1.3,0-2.7,0-4h17Z"/>
  <path class="st23" d="M375,91c.2.5.5.9,1,1v33h-20c0-5.3,0-10.7,0-16s0-1.3,0-2c0-4.7.1-9.3,0-14s0-.7,0-1c4.8-.3,9.8.3,14.6,0s2.1-1,2.4-1c.6,0,1.3,0,2,0ZM357,123c-.2,1.4,1.6,1,2.5,1,5.1.4,10.4-.3,15.5,0-.5-9.3.7-19.3,0-28.5,0-.8.4-2.7-1-2.5h-17s0,30,0,30Z"/>
  <path class="st21" d="M357,131l1,58h16c0-4.2-.6-7.1,1-11v12h-18c.9-19.4-1.2-39.7,0-59Z"/>
  <path class="st20" d="M397,92c.5,10.9-.4,22.1,0,33-.3,0-.7,0-1,0-4.8.6-11.8,0-17,0s-.7,0-1,0-.7,0-1,0-.7,0-1,0v-1h20v-31h-20v-1c.3,0,.7,0,1,0,6.4.4,13.5,0,20,0Z"/>
  <path class="st20" d="M404,160l.5,1,.5-1c1.7,0,3.3,0,5,0l3.5,1,.5,1h-37l9-2c6,0,12,0,18,0Z"/>
  <path class="st21" d="M414,162c-.3,1.1-1.5,1-2.4,1-8,.8-24.1.7-32.2,0s-2.6.3-3.4-1.1h38Z"/>
  <path class="st21" d="M375,161c-1-.6-.9-1.4-1.1-2.4-1.1-9.8.9-21.6,0-31.6l1,1.4v32.6Z"/>
  <path class="st7" d="M377,126v-1c.3,0,.7,0,1,0l-1,1Z"/>
  <path class="st7" d="M396,125c-4.7,1.7-12.4,1.7-17,0,5.2,0,12.2.6,17,0Z"/>
  <path class="st11" d="M414,160l1,1.5-1,.5-.5-1-3.5-1c1.3,0,2.8.2,4,0Z"/>
  <path class="st11" d="M404,160c.3,0,.7,0,1,0l-.5,1-.5-1Z"/>
  <rect class="st9" x="338" y="94" width="15" height="30"/>
  <polygon class="st21" points="338 124 337 93 354 93 353 124 353 94 338 94 338 124"/>
  <path class="st14" d="M373,91c-.3,0-1.1,1-2.4,1-4.8.3-9.8-.3-14.6,0,0-.3,0-.7,0-1h17Z"/>
  <path class="st11" d="M356,107c-1.7-3.4-1.7-10.4,0-14,.1,4.7,0,9.3,0,14Z"/>
  <polygon class="st9" points="375 78 375 89 358 89 358 78.6 375 78"/>
  <path class="st21" d="M375,78l-17,.6v10.4s17,0,17,0c-1.7,1.7-17.9,1.3-18,.4v-12.4s18,1,18,1Z"/>
  <path class="st14" d="M377,91v1c-.3,0-.7,0-1,0-.5-.1-.8-.5-1-1,.7,0,1.3,0,2,0Z"/>
  <path class="st14" d="M430,172c0-5,0-10,0-15,1.7,3.7,1.7,11.1,0,15Z"/>
  <path class="st14" d="M430,155v-2c0,0,.7.4.7,1.2s-.7.6-.7.8Z"/>
  <path class="st14" d="M430,147v-1c0,.3,0,.8,0,1Z"/>
  <path class="st20" d="M199,317c1.5-15.8-2-35.3,0-50.6s1.6-2.6,2.1-3.4l-2,54Z"/>
  <path class="st20" d="M246,327h-37c-1.3-.3-1.5-1.6-2-2l39,2Z"/>
  <path class="st21" d="M402,317v-52,52Z"/>
  <path class="st20" d="M394,255c-11.4,3.4-27.7-1.1-39,1l39-1Z"/>
  <path class="st9" d="M237,383c-.2,0-1.9-1.3-2-1.7v-15.3h132v17c-40.9-.8-82.1,1.1-123,0l-1.5-1-.5,1c-1.5,0-3.7.3-5,0Z"/>
  <path class="st13" d="M368,363v2h-133c.2-.5-.1-1.4,0-2,43.3,2.4,90.1-3.2,133,0Z"/>
  <path class="st21" d="M368,365c0,5.7.8,12.7-1,18v-17h-132v15.3c0,.5,1.8,1.7,2,1.7-3.5.1-2.8.6-3-2.5-.4-4.9-.4-11,1-15.5h133Z"/>
  <path class="st21" d="M244,383c-.7,0-1.3,0-2,0l.5-1,1.5,1Z"/>
  <path class="st5" d="M346,316h-1c2.1-13.2-3.2-39.6,1-51,.7,16.8-.9,34.3,0,51Z"/>
  <rect class="st5" x="441" y="293" width="6" height="7"/>
  <path class="st20" d="M414,176v1h-1l-.5-1-.5,1h-6l-.5-1-.5,1c-4.3,0-8.7,0-13,0l-.5-1-1.5,1c-3.6,0-7.4-.2-11,0l-2-2c9.9,1.5,28.5-2.4,37,1Z"/>
  <path class="st11" d="M392,177c-.7,0-1.3,0-2,0l1.5-1,.5,1Z"/>
  <polygon class="st11" points="413 177 412 177 412.5 176 413 177"/>
  <polygon class="st11" points="406 177 405 177 405.5 176 406 177"/>
  <polygon class="st9" points="260 107 237 107 237 95 258 95 258.5 99 260 95 260 107"/>
  <polygon class="st21" points="260 95 258.5 99 258 95 237 95 237 107 260 107 236 108 236 94 258.6 94 260 95"/>
  <polygon class="st9" points="233 174 233 187 221 187 221 175 233 174"/>
  <path class="st14" d="M374,93c1.4-.2,1,1.6,1,2.5.7,9.2-.5,19.2,0,28.5-5.1-.3-10.5.4-15.5,0s-2.7.4-2.5-1l1-29,16-1Z"/>
  <rect class="st13" x="376" y="93" width="2" height="31"/>
  <polygon class="st7" points="374 93 358 94 357 123 357 93 374 93"/>
  <path class="st9" d="M378,93h18v31h-18v-31Z"/>
</svg>