<svg xmlns="http://www.w3.org/2000/svg" width="96" height="96" fill="none"><path fill="#1D1DA1" fill-rule="evenodd" d="M44.595 25.6h2.27v2.133h2.27V25.6h2.27v-2.133h-6.81z" clip-rule="evenodd"/><path fill="#F2B973" fill-rule="evenodd" d="M46.865 32h-2.27v2.133h2.27zm2.27-2.133h-2.27V32h2.27zM40.055 19.2h4.54v-2.133h-4.54zm9.08-4.267h-4.54v2.134h4.54z" clip-rule="evenodd"/><path fill="#E68C4F" fill-rule="evenodd" d="M44.595 36.267h4.54v-2.134h2.27V32h-4.54v2.133h-2.27zM42.325 19.2h-2.27v2.133h2.27zm9.08-2.133v-2.134h-2.27v2.134h-4.54V19.2h9.08v-2.133z" clip-rule="evenodd"/><path fill="#D26218" fill-rule="evenodd" d="M49.135 36.267h-2.27V38.4h2.27zm2.27-2.134h-2.27v2.134h2.27zm-9.08-12.8h-2.27v2.134h2.27zm0 0h11.35v2.134h2.271v-6.4h-2.27V19.2H42.324z" clip-rule="evenodd"/><path fill="#CEDBF2" fill-rule="evenodd" d="M51.406 85.331h-2.27v2.133h2.27zm0-10.666h-2.27v2.133h2.27zm0-10.667h-2.27v2.133h2.27zm0-10.667h-2.27v2.133h2.27zm-15.892-8.533h-2.27v2.133h2.27zm27.243 0h-2.27v2.133h2.27zM19.622 29.864h-2.27v2.134h2.27zm59.027 0h-2.27v2.134h2.27zm-54.487-2.133h-2.27v2.133h2.27zm49.946 0h-2.27v2.133h2.27zm-47.675 0h4.54v-2.133h-4.54zm38.594 0h4.54v-2.133h-4.54zm-27.243-8.533h-2.27v2.133h2.27zm22.703 0h-2.27v2.133h2.27zM49.135 12.81h-2.27v2.133h2.27zm2.27-2.133h-2.27v2.133h2.27zm0-6.4v6.4h2.27v-6.4zm-9.08 2.133h-2.27v2.134h2.27zm2.27-2.133h-2.27V6.41h2.27zm0 0h6.81V2.145h-6.81z" clip-rule="evenodd"/><path fill="#78B8F1" fill-rule="evenodd" d="M40.054 91.734V76.8h-2.27v2.133h-2.27v2.134h-2.27v6.4h2.27v4.267zm11.352-6.4V83.2h-2.27v2.133h-2.271V89.6h6.81v-4.266zM15.08 81.067H8.27v6.4h4.54V83.2h2.27zm72.649 6.4v-6.4h-6.811V83.2h2.27v4.267zM49.135 72.534v2.133h-2.27v4.266h6.81v-4.266h-2.27v-2.133zM17.351 44.8v-6.4h2.27v2.133h4.541v6.4h2.27v2.134h2.27v-8.534h11.352V38.4h-6.81v-4.267h-2.271v-6.4h-6.81v2.134h-4.541V32h-4.54v4.267H12.81v17.066h-2.27v8.534H8.27V64h2.27v4.267h2.27V70.4h-2.27v2.133H8.27v6.4h9.08V76.8h-2.27v-2.133h-2.27v-2.133h2.27v-6.4h2.27v2.133h2.27V64h2.27v-2.133h-2.27V57.6h-2.27v-6.4h-2.27v-4.267h2.27v2.134h2.27V44.8zm22.703 29.867v-8.534h-6.81V70.4h-2.271v4.267h2.27V76.8h2.27v-2.133zm9.081-12.8V64h-2.27v4.267h6.81V64h-2.27v-2.133zM40.055 64V49.067h-2.271V51.2h-6.811v4.267h2.27v4.267h2.27v2.133h2.27V64zm9.08-12.8v2.133h-2.27V57.6h6.81v-4.267h-2.27V51.2zm27.243 0h-2.27v2.133h2.27zm-54.486 0h-2.27v2.133h2.27zm45.405-2.133h-2.27V51.2h2.27zm-36.324 0h-2.27V51.2h2.27zm18.162-6.4h-2.27V44.8h2.27zm15.892 0h-6.81V44.8h6.81zm-27.243 0h-6.811V44.8h6.81zm15.892-12.8h2.27V32h4.54V21.334h-2.27v2.133h-2.27V25.6h-4.54v2.133h2.27zm-15.892-6.4v-2.133h-2.27V32h4.54v-2.133h2.27v-2.134h2.27V25.6h-4.54v-2.133zm34.054 23.467v-6.4h4.54V38.4h2.27v6.4h-2.27v4.267h2.27v-2.133h2.271V51.2h-2.27v6.4h-2.27v4.267h-2.27V64h2.27v4.267h2.27v-2.133h2.27V64h2.27v2.133h-2.27v6.4h2.27v2.134h-2.27V76.8h-2.27v2.133h9.08v-6.4h-2.27V70.4h-2.27v-2.133h2.27V64h2.27v-2.133h-2.27v-8.533h-2.27V36.267h-2.27V32h-4.54v-2.133h-4.541v-2.134h-6.81v6.4h-2.271V38.4h-6.811v-2.133h-2.27V38.4h-2.27v4.267h2.27v4.267h-2.27V44.8h-2.27v4.267h-2.271v-2.133h-2.27v44.8h15.892v-4.267h2.27v-6.4h-2.27v-2.133h-2.27V76.8h-2.271v-2.133h4.54V76.8h2.27v-2.133h2.271V70.4h-2.27v-4.267h-6.811V64h2.27v-2.133h2.27v-2.133h2.27v-4.267h2.271V51.2h-6.81v-2.133h-2.271v-8.534h11.351v8.534h2.27v-2.133z" clip-rule="evenodd"/><path fill="#3979E2" fill-rule="evenodd" d="M42.324 36.267V32h-2.27v2.133h-2.27v2.134h-2.27V38.4h4.54V64h-2.27v-2.133h-2.27v-2.133h-2.27v-4.267h-2.271V51.2h-2.27v-2.133h-2.27v6.4h2.27v6.4h2.27v4.267h-2.27v8.533h-2.27v17.067h4.54v2.133h11.351V44.8h2.27v-4.267h2.27V38.4h-2.27v-2.133zm27.244 19.2v-6.4h-2.27V51.2h-2.27v4.267h-2.271v4.267h-2.27v2.133h-2.27V64h-2.271v2.133h6.81V70.4h2.271v4.267h-2.27V76.8h-2.27v-2.133h-4.541V76.8h2.27v2.133h2.27v2.134h2.27v6.4h-2.27v4.267h-15.89v2.133h20.432v-2.133h4.54V74.667h-2.27v-8.534h-2.27v-4.266h2.27v-6.4zm-15.892 32h-2.27V89.6h2.27zm-4.54 0h-2.271V89.6h2.27zm-31.785 0v-6.4h-2.27V83.2h-2.27v4.267zM80.92 83.2v-2.133h-2.27v6.4h4.54V83.2zm-31.784-6.4h-2.27v2.133h2.27zm-31.784-8.533v-2.133h-2.27v6.4h-2.27v2.133h2.27V76.8h2.27v2.133h2.27V68.268zm63.568 4.267v-6.4h-2.27v2.133h-2.27v10.667h2.27V76.8h2.27v-2.133h2.27v-2.133zM53.676 76.8h-2.27v2.133h2.27zM33.243 66.134V70.4h-2.27v4.267h2.27V76.8h2.27v-2.133h4.541v-8.534zm-22.702 2.133V64H8.27v8.534h2.27V70.4h2.27v-2.133zm77.189 4.267V64h-2.27v4.267h-2.27V70.4h2.27v2.133zm-38.595-6.4h-2.27v2.133h2.27zm4.54 0h-2.27v2.133h2.27zM83.19 64h-2.27v2.133h2.27zm-4.54-19.2v-6.4h-2.27v2.133h-2.27v6.4h-2.271v8.534h2.27v6.4h2.27V57.6h2.27v-6.4h2.271v-4.267h-2.27v2.134h-2.27V44.8zm-59.027-4.267V38.4h-2.27v6.4h2.27v4.267h-2.27v-2.133h-2.27V51.2h2.27v6.4h2.27v4.267h2.27v-8.533h-2.27V51.2h2.27v2.133h2.27v-6.4h-2.27v-6.4zm34.054 14.934h-2.27V57.6h2.27zm-4.54 0h-2.271V57.6h2.27zm24.97-4.267v2.133h2.27V51.2zm-9.08-4.267h-2.271v2.134h2.27zm-4.542 0h-2.27v2.134h2.27zm-27.243 0h-2.27v2.134h2.27zm4.54 0h-2.27v2.134h2.27zm11.352 0h-2.27v2.134h2.27zm4.54-2.133h-2.27v2.134h2.27zm-6.81 0h-2.27v2.134h2.27zm4.54-2.133h-2.27V44.8h2.27zm-2.27-2.134h-2.27v2.134h2.27zm2.27-2.133h-2.27v2.133h2.27zm4.541-4.267V32h-2.27v4.267h-2.27V38.4h2.27v-2.133h2.27V38.4h4.54v-2.133h-2.27v-2.134zM60.486 32h-2.27v2.133h2.27zm4.541 2.133v-4.266h-2.27v4.266zm-31.784 0v-4.266h-2.27v4.266zM37.783 32h-2.27v2.133h2.27zm15.893-2.133h-2.27V32h2.27zm-9.081 0h-2.27V32h2.27zm18.162 0v-8.533h-2.27v8.533zm-27.243 0v-8.533h-2.27v8.533zm-2.27 57.6h2.27v4.267h4.54V76.8h-2.27v2.133h-2.27v2.134h-2.27z" clip-rule="evenodd"/><path fill="#000" fill-rule="evenodd" d="M44.595 93.867V44.8h-2.27v49.067H30.972V96h34.054v-2.133zm-13.622-2.134h-4.54v2.134h4.54zm34.054 2.134h4.54v-2.134h-4.54zm6.81-2.134V74.667h-2.27v17.066zm-45.405 0V74.667h-2.27v17.066zM78.65 89.6h9.08v-2.133h-9.08zm-70.379 0h9.081v-2.133h-9.08zm43.135-2.133h-2.27V89.6h2.27zm27.244 0v-6.4h9.08v6.4H90v-25.6h-2.27v17.066H76.378v8.534zm-24.973-2.134h-2.27v2.134h2.27zm-4.54 0h-2.271v2.134h2.27zM8.27 87.467v-6.4h9.081v6.4h2.27v-8.534H8.272V61.867H6v25.6zM51.405 83.2h-2.27v2.133h2.27zm0-6.4h-2.27v2.133h2.27zm24.973 2.133V64h-2.27v14.933zm-54.486 0V64h-2.27v14.933zm31.784-4.266h-2.27V76.8h2.27zm-4.54 0h-2.271V76.8h2.27zm-20.433 0v-8.534h-2.27v8.534zm22.702-2.134h-2.27v2.134h2.27zm18.163 2.134v-8.534h-2.27v8.534zm-18.163-8.534h-2.27v2.134h2.27zm15.892 0v-4.266h-2.27v4.266zM53.676 64h-2.27v2.133h2.27zm-4.54 0h-2.271v2.133h2.27zm-18.163 2.133v-4.266h-2.27v4.266zm20.432-4.266h-2.27V64h2.27zM74.108 64v-8.533h-2.27V64zm-45.405-2.133v-6.4h-2.27v6.4zm-18.162 0v-8.534H8.27v8.534zm77.189 0v-8.534h-2.27v8.534zm-18.162 0v-6.4h-2.27v6.4zm-18.163-6.4h-2.27V57.6h2.27zm-2.27-2.134h-2.27v2.134h2.27zM24.162 64v-8.533h2.27v-8.534h-2.27v6.4h-2.27V64zm47.676-8.533v-8.534h-2.27v8.534zm-18.162-2.134h-2.27v2.134h2.27zm31.784 0V36.267h-2.27v17.066zm-72.65 0V36.267h-2.27v17.066zM51.406 51.2h-2.27v2.133h2.27zm9.081-2.133h-2.27V51.2h6.811v-2.133h-2.27v-2.134h-2.27zm-27.243 0h-2.27V51.2h6.81v-2.133h-2.27v-2.134h-2.27zm6.811-8.534H28.703v8.534h2.27v-2.134h2.27V44.8h-2.27v-2.133h6.81V44.8h-2.27v2.133h2.27v2.134h2.271zm27.243 0H55.946v8.534h2.27v-2.134h2.27V44.8h-2.27v-2.133h6.811V44.8h-2.27v2.133h2.27v2.134h2.27zm6.811 6.4v-6.4h-2.27v6.4zM49.135 44.8h-2.27v2.133h2.27zm-24.973 2.133v-6.4h-2.27v6.4zm29.514-4.266h-2.27V44.8h2.27zM46.865 44.8v-4.267h-2.27V44.8zm4.54-4.267h-2.27v2.134h2.27zm-2.27-2.133h-2.27v2.133h2.27zm2.27-2.133h-2.27V38.4h2.27zm-4.54 0h-2.27V38.4h2.27zM62.757 38.4v-8.533h-2.27v4.266h-2.27v2.134h2.27V38.4zm20.432-2.133V32h-2.27v4.267zm-68.108 0V32h-2.27v4.267zm38.595 0V32h-2.27v4.267zm-9.081 0V32h-2.27v4.267zM35.514 38.4v-2.133h2.27v-2.134h-2.27v-4.266h-2.27V38.4zm4.54-6.4h-2.27v2.133h2.27zm18.162 0h-2.27v2.133h2.27zm-2.27-2.133h-2.27V32h2.27zm24.973 0h-2.27V32h2.27zm-63.568 0h-2.27V32h2.27zm24.973 0h-2.27V32h2.27zm0 0h2.27V32h2.27v-2.133h2.271V32h2.27v-2.133h2.27v-2.134h-2.27V25.6h-2.27v2.133h-2.27V25.6h-2.27v2.133h-2.27zm36.325-2.134h-4.54v2.134h4.54zm-56.757 0h-4.54v2.134h4.54zm4.54-2.133h4.541v4.267h2.27v-8.534h-2.27v2.134h-4.54zm47.676 0h-4.54v2.133h4.54zm-47.676 0h-4.54v2.133h4.54zm29.514-2.133h-2.27v-2.134H42.324v2.134h-2.27V25.6h4.54v-2.133h6.811V25.6h4.54zm9.081 6.4V25.6h4.54v-2.133h-4.54v-2.134h-2.27v8.534zM35.514 19.2h2.27v4.267h2.27v-6.4h-4.54zm24.972-2.133h-4.54v6.4h2.27V19.2h2.27zm2.27 2.133h-2.27v2.133h2.27zm-27.242 0h-2.27v2.133h2.27zm4.54-2.133h4.54v-2.134h-4.54zm15.892-2.134h-4.54v2.134h4.54zM44.595 12.8v2.133h6.81V12.8h-2.27v2.133h-2.27V12.8zm9.08-2.133h-2.27V12.8h2.27zm-4.54 0h-2.27V12.8h2.27zm6.81 0v-6.4h-2.27v6.4zm-13.62-2.134h-2.27v2.134h2.27zm2.27-2.133h4.54v4.267h2.27v-6.4h-6.81zm-4.54 0h-2.271v2.133h2.27zm4.54 0h-2.27v2.133h2.27zm-2.27-2.133h-2.27V6.4h2.27zm2.27-2.134h-2.27v2.134h2.27zm9.08 0h-2.27v2.134h2.27zM51.406 0h-6.81v2.133h6.81z" clip-rule="evenodd"/></svg>