<svg xmlns="http://www.w3.org/2000/svg" width="96" height="96" fill="none"><g clip-path="url(#a)"><path fill="#3939EA" fill-rule="evenodd" d="M75.404 20.426H73.36v2.042h2.043zm-40.851 2.042v-2.042h4.085v-2.043h2.042V16.34h2.043v2.043h2.042V16.34h2.043v2.043h2.042v-4.085h-4.085v-2.043H40.68v-2.042h-8.17v2.042h-2.042v8.17h2.042v2.043zm8.17-4.085H40.68v2.043h2.043zm30.638 0H71.32v2.043h2.042zm4.085 0h-2.042v2.043h2.042zm2.043-4.085v-4.085H73.36v2.042h-4.085v2.043h2.043v2.042h2.042v2.043h2.043V16.34h2.042v-2.042zm0 2.042h-2.043v2.043h2.043zm-26.553 0h-2.043v2.043h2.043zm28.595-2.042H79.49v2.042h2.042zm-16.34-4.085h-2.043v2.042h2.043zm-4.085 0h-2.043v2.042h2.043zm-16.34-4.085v6.127H57.02v-2.042h2.042V8.17h2.043V6.128h2.042V2.043H50.893v2.042h-4.085v2.043zM63.147 8.17h-2.042v2.043h2.042zm2.043-2.042h-2.043V8.17h2.043z" clip-rule="evenodd"/><path fill="#1D1DA1" fill-rule="evenodd" d="M63.149 26.553H73.36v-2.042h4.085v-2.043h2.043v-2.043h2.042V16.34H79.49v2.043h-2.043v2.043h-2.042v2.042H73.36v-2.043H71.32v-2.042h2.042V16.34H71.32v-2.042h-2.043v6.127h-2.042v2.043h-6.128v2.043h2.042zm-4.086-4.085h-2.042v2.043h2.042zM40.68 20.425v-2.042h-2.042v2.043h-4.085v2.042h8.17v-2.043zm4.086-4.085v2.043h-2.043v2.043h8.17v2.042h6.128v-2.043h-2.043v-2.042h-4.085V16.34h-2.042v2.043h-2.043V16.34zm30.638 2.043H73.36v2.043h2.043zm2.042-2.043h-2.042v2.043h2.042zm-34.723 0H40.68v2.043h2.043zm36.766-2.042h-2.043v2.042h2.043zm-12.255 0v-8.17H65.19V8.17h-2.043v2.043h-2.042v2.042h-2.043v-2.042h-2.042v2.042h-8.17v2.043zm14.298-2.043h-2.043v2.043h2.042zm-18.383-2.042v2.042h2.042v-2.042zM61.106 8.17h-2.043v2.043h2.043zm2.042-2.042h-2.042V8.17h2.042zm2.043-2.043h-2.043v2.043h2.043z" clip-rule="evenodd"/><path fill="#CEDBF2" d="M50.893 28.596h-2.042v2.042h2.042zM38.638 34.723h-2.043v2.043h2.043zM38.638 36.766h-2.043v2.043h2.043zM40.68 40.851h-2.042v2.043h2.043zM42.723 42.894H40.68v2.042h2.043zM20.255 46.979h-2.043v2.042h2.043zM22.297 49.021h-2.042v2.043h2.042zM24.34 51.064h-2.043v2.042h2.043zM26.383 51.064H24.34v2.042h2.043z"/><path fill="#F2B973" fill-rule="evenodd" d="M26.383 63.32H24.34v2.042h2.043zm36.766-2.043h-2.043v2.042h2.043zm-34.724 0h-2.042v2.042h2.042zm2.043-2.043h-2.043v2.043h2.043zm2.042 0h6.128v-2.043H32.51zm40.851-24.51H71.32v2.042h2.042zm2.043-2.043H73.36v2.043h2.043z" clip-rule="evenodd"/><path fill="#fff" fill-rule="evenodd" d="M44.765 67.404H30.468v2.043h14.297zm0-4.085H30.468v2.043h14.297zM34.553 77.617h2.042v-2.043h2.043v2.043h2.042v2.042h2.043v2.043h2.042V71.49H30.468v10.213h2.042V79.66h2.043z" clip-rule="evenodd"/><path fill="#E68C4F" fill-rule="evenodd" d="M42.723 59.234v-2.043h-4.085v2.043h-8.17v2.043h-2.043v2.042h-2.043v2.043H24.34v2.042h-2.043v10.213h2.043v4.085h2.043v2.043h2.042v2.042h14.298v-2.042h4.085v-2.043h2.043v-4.085h2.042V63.32h-2.042v-2.042h-2.043v-2.043zM30.468 71.49v10.213h2.042V79.66h2.043v-2.043h2.042v-2.043h2.043v2.043h2.042v2.043h2.043v2.042h2.042V71.49zm0-4.085v2.043h14.297v-2.043zm32.68 0V63.32h-2.042v4.085zm-32.68-4.085v2.043h14.297v-2.043zm34.723-2.042h-2.043v2.042h2.043zm14.298-18.383H73.36v2.042h6.128zm-18.383-4.085H57.02v2.042h4.085zm2.042-2.043h-2.042v2.043h2.042zm6.128 2.043h8.17v-2.043h2.043v-4.085h-4.085v2.042H73.36v2.043h-4.085zM65.191 16.34H54.978v2.042h10.213z" clip-rule="evenodd"/><path fill="#D26218" fill-rule="evenodd" d="M42.723 85.787H32.51v2.043h10.213zm4.085-2.042h-4.085v2.042h4.085zm2.043-2.043h-2.043v2.043h2.043zm2.042 0v-4.085h-2.042v4.085zm2.043-4.085V67.404h-2.043v10.213zM65.19 67.404V63.32H63.15v4.085zm8.17-24.51h-6.127v2.042h4.085v2.043h8.17v-2.043h-6.128zm-6.127-2.043h-6.128v2.043h6.128zm0 0h12.255V38.81h2.042v-4.086H79.49v2.043h-2.043v2.043H67.234zm0-4.085h-4.085v2.043h4.085zm0-16.34V16.34H65.19v2.042h-8.17v2.043z" clip-rule="evenodd"/><path fill="#64AAE8" fill-rule="evenodd" d="M63.149 89.872h-2.043v2.043h2.042zm-4.086 0h-2.042v2.043h2.042zm-4.085 0h-2.042v2.043h2.042zm-4.085 0h-2.042v2.043h2.042zm-4.085 0h-2.042v2.043h2.042zm2.043-2.042h-2.043v2.042h2.043zm4.085 0h-2.043v2.042h2.043zm4.085 0h-2.043v2.042h2.043zm4.085 0h-2.043v2.042h2.043zm4.085 0h-2.043v2.042h2.043zm4.085 0h-2.042v2.042h2.042zm-18.383-2.043h-2.042v2.043h2.042zm20.426 0h-2.043v2.043h2.043zm-4.085-10.213h2.042v4.086h-2.042v-2.043H65.19v-2.043h-2.043v-2.042h-2.042v4.085h2.042v2.043h2.043v4.085h-2.043v-2.043h-2.042V79.66h-2.043V63.32h-4.085v-2.043h-4.085v2.042h2.043v4.085h2.042v14.298h-2.042v2.043h-2.043v2.042h2.043v-2.042h2.042v2.042h-2.042v2.043h2.042v-2.043h2.043v2.043h2.042v-2.043h2.043v2.043h2.042v-2.043h2.043v2.043h2.043v-2.043h2.042v-2.042h2.043v-2.043h2.042V79.66h2.043v-2.043H73.36v-2.043h2.043v-2.042H73.36v-2.043H71.32v-2.042h-2.043v-2.043h-2.042v2.043H65.19v4.085h2.043zm6.127 8.17H71.32v2.043h2.042zm2.043-2.042H73.36v2.043h2.043zm2.042-2.042h-2.042v2.042h2.042zm0-4.085h-2.042v2.042h2.042zm0-4.086h-2.042v2.043h2.042zm-2.042-2.042H73.36v2.042h2.043zm-2.043-2.043H71.32v2.043h2.042zm2.043-2.042H73.36v2.042h2.043zm-4.085 0h-2.043v2.042h2.043zm2.042-2.043H71.32v2.043h2.042zm-51.064 0h-2.042v2.043h2.042zm-2.042-2.042h-2.043v2.042h2.043zm4.085 0h-2.043v2.042h2.043zm-2.043-2.043h-2.042v2.043h2.042zm28.596 0h-2.042v2.043h2.042zm-28.596 0h2.043v2.043h2.043v-2.043h2.042v-2.043h4.085V55.15h8.17v-2.043h-8.17v-2.042h-4.085V49.02H24.34V46.98h-2.043v-2.043h-2.042v-2.042h-2.043v-4.085H16.17v6.127h-2.043v2.043h2.043v6.127h2.042v2.043H16.17v2.042h2.042V55.15h2.043v2.042h-2.043v2.043h2.043v-2.043h2.042zm42.894-2.043h-2.043v2.043h2.043zm0-4.085h-2.043v2.043h2.043zm2.043-2.042H65.19v2.042h2.043zM22.297 49.02h-2.042v2.043h2.042v2.042h4.085v-2.042h-4.085zm44.937-2.042H65.19v2.042h2.043zm-49.022 0v2.042h2.043V46.98zm20.426-6.128v2.043h2.042v2.042h2.043v-2.042H40.68V40.85zm-2.043-6.128v4.086h2.043v-4.086zm26.554-4.085h-2.043v2.043h2.042zm-2.043-2.042h-2.043v2.042h2.043zm-6.128 10.213h2.043v-2.043h2.042v-2.043h2.043v-2.042h-2.043v-2.043h-2.042v-2.042h-2.043v-2.043h-4.085v2.043h2.043v2.042h2.042v4.085h-2.042v2.043h-6.128v2.043h-4.085v-2.043H40.68v-6.128h2.043v-2.042h2.043v-2.043h6.127v-2.042h-8.17v2.042h-6.128v6.128h-2.042v8.17h2.042v4.085h2.043v2.043h2.042v2.042h2.043v2.043h2.043v2.042h2.042v2.043h4.085v2.042h4.085v2.043h4.085v2.043h2.043V57.19h2.042V55.15h-2.042v-2.043h2.042v-2.042h2.043V49.02h-2.043V46.98h-2.042v-2.043H57.02v-2.042h-4.085V40.85h2.042z" clip-rule="evenodd"/><path fill="#3979E2" fill-rule="evenodd" d="M32.51 93.958h30.638v-2.043h-2.042v-2.043h-2.043v2.043h-2.042v-2.043h-2.043v2.043h-2.042v-2.043h-2.043v2.043H48.85v-2.043h-2.042v2.043h-2.043v-2.043h2.043V87.83h-4.085v2.042H32.51V87.83h-4.085v-2.043h-2.043v-2.042H24.34v-2.043h-2.043v-4.085h-2.042v-8.17h-2.043v-2.043H16.17V63.32h-4.086v4.085h-2.042v8.17h2.043v4.086h2.042v4.085h2.043v2.042h2.042v2.043h4.085v2.042h4.085v2.043h6.128zm32.68-4.086h-2.042v2.043h6.128v-2.043h-2.042V87.83H65.19zm-2.042-2.042h-2.042v2.042h2.042zm-8.17 0h-2.042v2.042h2.042zm-4.085 0H48.85v2.042h2.043zm24.51-6.128V79.66h2.043v2.042zv2.043H73.36v2.042H71.32v2.043h-2.043v2.042h4.085V87.83h4.085v-2.043h2.043v-2.042h2.042V79.66h2.043v-4.085h2.043v-8.17h-2.043v-4.086H81.53v-2.042H79.49v-2.043h-4.085v-2.043h-8.17v2.043H65.19v2.043h2.043v6.127h2.042v-2.042h2.043v-2.043h2.042v2.043H71.32v2.042h2.042v-2.042h2.043v2.042H73.36v2.043H71.32v2.042h2.042v-2.042h2.043v2.042H73.36v2.043h2.043v-2.043h2.042v2.043h-2.042v2.043H73.36v2.042h2.043v-2.043h2.042v2.043h-2.042v2.043H73.36v2.042zm-16.34 6.128h-2.042v2.042h2.042zm-6.127-2.043h-2.043v2.043h2.043zm16.34 0h-2.042v2.043h2.042zm-4.085 0h-2.043v2.043h2.043zm-4.085 0h-2.043v2.043h2.043zm-4.085 0h-2.043v2.043h2.043zm-8.17 0h-2.043v2.043h2.042zm22.468-2.042h-2.043v2.042h2.043zm-16.34 0h-2.043v2.042h2.042zm-4.086 0H48.85v2.042h2.043zm22.468-2.043H71.32v2.043h2.042zm-8.17 0h-2.043v2.043h2.043zm-12.255 0h-2.043v2.043h2.043zm2.042 0v-4.085h-2.042v4.085zm8.17-2.042h-2.042v2.042h2.042zm6.128-2.043h-2.042v2.043h2.042zm-8.17 0h-2.043v2.043h2.043zm6.128-2.043H65.19v2.043h2.043zm-2.043-2.042h-2.043v2.043h2.043zm-2.043 0v-4.085h-2.042v4.085zm8.17-6.128h-2.042v2.043h2.043zm-4.084 0H65.19v2.043h2.043zm-6.128 0h-2.043v2.043h2.043zm-40.851-2.042v-2.043h-2.043v4.085h4.085v-2.042zM16.17 53.106V46.98h-2.043v12.255h2.043v4.085h2.042v-2.042h2.043v-2.043h-2.043v-2.043H16.17V55.15h2.042v-2.043zm42.893 8.17h-4.085v2.043h4.085zm-36.766 0h-2.042v2.043h2.042zm32.681-2.042h-4.085v2.043h4.085zm-30.638 0h-2.043v2.043h2.043zm-2.043-2.043h-2.042v2.043h2.042zm28.596 0h-4.085v2.043h4.085zm12.255 0h-2.042v2.043h2.042zM20.255 55.15h-2.043v2.042h2.043zm46.979 2.042v-4.085H65.19v2.043h-2.043v2.042zM46.808 55.15h-4.085v2.042h4.085zm16.34-2.043h-2.042v2.043h2.042zm-20.425-2.042V49.02H40.68v4.085h4.085v-2.042zm28.596-4.085h-4.085v2.042H65.19v2.043h-2.043v2.042h2.043v-2.042h2.043v2.042h2.042v-4.085h2.043zm-4.085-2.043h-6.128v2.043h2.042v2.042h2.043V46.98h2.043zM40.68 46.98h-2.042v2.042h2.042zm20.426-4.085H57.02v2.042h4.085zm0-8.17h-2.043v2.042h2.043zM57.02 24.51h-6.128v2.042h4.085v2.043h2.043v2.042h2.042v-2.042h2.043v2.042h-2.043v2.043h2.043v-2.043h2.042v2.043h-2.042v2.043h10.213V32.68h2.042v-4.085H63.148v-2.043h-6.127zm-14.298 0h-4.085v2.042h4.085zm8.17-2.043h-8.17v2.043h8.17z" clip-rule="evenodd"/><path fill="#000" fill-rule="evenodd" d="M63.149 93.957H32.51V96H63.15zm6.127-2.042H63.15v2.042h6.127zm-36.766 0h-6.127v2.042h6.127zm40.852-2.043h-4.086v2.043h4.086zm-46.98 0h-4.084v2.043h4.085zm-4.084-2.042h-4.085v2.042h4.085zm55.149 0h-4.085v2.042h4.085zm-34.724 0H32.51v2.042h10.213zm-24.51-2.043H16.17v2.043h2.042zm61.276 0h-2.042v2.043h2.042zm-32.68 0h-4.086v2.043h4.085zm-14.299 0h-4.085v2.043h4.085zm-4.085-2.042h-2.042v2.042h2.042zm53.107 0h-2.043v2.042h2.043zm-32.681 0h-2.043v2.042h2.043zm-32.681 0h-2.043v2.042h2.043zm-2.043 0V79.66h-2.042v4.085zm12.256-2.043H24.34v2.043h2.043zm57.191 2.043V79.66h-2.042v4.085zm-32.68-2.043H48.85v2.043h2.042zm2.042 0v-4.085h-2.043v4.085zm-28.596 0v-4.085h-2.042v4.085zm40.851-2.042H63.15v2.042h2.042zm-53.106 0v-4.085h-2.043v4.085zm51.064-2.043h-2.043v2.043h2.043zm22.468 2.043v-4.085h-2.043v4.085zm-30.639-2.043V67.404h-2.042v10.213zm10.213-4.085v-6.128h-4.085v2.043h-2.042v8.17h2.042v-8.17h2.043v4.085zm4.085 2.043h-2.042v2.042h2.042zm-46.978 2.042V67.404h-4.085v2.043h2.042v8.17zm-12.256-2.043v-8.17H8v8.17zm77.617 0v-8.17h-2.042v8.17zm-20.425-2.042H65.19v2.043h2.043zm-55.15-6.128V63.32h-2.042v4.085zm12.256 0V63.32h-2.042v4.085zm42.894 0v-6.127H65.19v6.127zm-49.021 0V63.32H16.17v4.085zm34.723 0V63.32h-2.043v4.085zm8.17 0v-6.127h-2.042v6.127zm24.51 0V63.32h-2.042v4.085zM16.17 63.32v-4.085h-2.043v2.043h-2.042v2.042zm67.404-2.042h-2.042v2.042h2.042zm-32.68 0H48.85v2.042h2.042zm-24.511 0H24.34v2.042h2.043zm2.042-2.043h-2.042v2.043h2.042zm20.426 0h-2.043v2.043h2.043zm32.68 0H79.49v2.043h2.043zm-22.467 0h-4.086v2.043h4.086zm6.127 0h-4.085v2.043h4.085zm14.298-2.043h-4.085v2.043h4.085zm-12.255 0H65.19v2.043h2.043zm-12.255 0h-4.086v2.043h4.085zm-8.17 0h-4.086v2.043h4.085zm-14.299 0h-4.085v2.043h4.085zm-18.383 2.043V44.936h-2.042v14.298zm55.15-4.085v-2.043h-2.043v4.085h8.17V55.15zm-18.384 0h-4.085v2.042h4.085zm-4.085-2.043h-6.127v2.043h-8.17v2.042h10.212V55.15h4.085zm24.51 0v-4.085h-2.042v4.085zm-30.637 0v-4.085h-2.043v2.043H32.51v2.042zm-8.17-4.085h-4.086v2.043h4.085zm6.127 0v-4.085h-2.042v4.085zM79.49 46.98h-8.17v2.042h8.17zm-51.064 0H24.34v2.042h4.085zm53.107 0v-4.085h-2.043v4.085zm-10.213-2.043h-4.085v2.043h4.085zm-46.979 0h-2.042v2.043h2.042zm-8.17 0V38.81h-2.043v6.127zm6.128-2.042h-2.043v2.042h2.043zm44.936 0h-6.128v2.042h6.128zm-30.638 2.042v-4.085h-2.043v4.085zm-16.34-2.042v-4.085h-2.044v4.085zm59.233-2.043H67.234v2.043h12.255zm-24.51 0h-2.043v2.043h8.17V40.85h-4.085V38.81h-2.043zm26.553-2.042h-2.043v2.042h2.043zm-14.298 0h-6.128v2.042h6.128zM34.553 40.85v-8.17H32.51v8.17zm49.021-2.042v-4.086h-2.042v4.086zm-26.553 0h4.085v-2.043h6.128v2.043h2.042v-2.043h2.043v-2.043H61.106v2.043h-4.085zm-38.808-2.043H16.17v2.043h2.042zm32.68-10.213h-6.127v2.043h-2.043v2.042h-2.042v6.128h2.042v2.043h4.085v-2.043h6.128v-2.043h2.042v-4.085h-2.042v-2.042h-2.043v2.042h-2.042v-2.042h2.042zm30.639 6.128h-2.043v2.042h2.043zm-8.17 0h-2.043v2.042h2.043zm4.085-8.17h-4.085v2.042H63.149v2.043h10.213v4.085h6.127v-2.043h-4.085v-4.085h2.043zm-40.851 8.17v-6.128h-2.043v6.128zm6.127-10.213H32.51v2.043h4.086v2.042h2.042v-2.042h4.085zm24.51-2.043H57.022v2.043h-6.128v2.043h6.128v-2.043h2.043v2.043H57.02v2.042h6.128v-2.042h-2.043v-2.043h6.128zm12.256 2.043h-2.042v2.043h2.042zm-28.596-2.043h-8.17v2.043h8.17zm-18.383 0h-2.042v2.043h2.042zm49.022 0h-2.043v2.043h2.043zm2.042 0v-8.17h-2.042v8.17zM69.276 10.214V6.128h-2.042v8.17H48.85v2.042h4.085v2.043h2.042V16.34h12.256v4.085h2.042v-8.17h4.086v-2.042zM30.468 20.426v-8.17h-2.043v8.17zm26.553-2.043h-2.043v2.043h2.043zm-8.17-6.128h-4.085v2.043h4.085zm-4.085 0V6.128h-2.043v4.085h-2.042v2.042zM32.51 10.213h-2.042v2.042h2.042zm49.022 0h-2.043v2.042h2.043zM40.68 8.17h-8.17v2.043h8.17zm38.808 0h-6.127v2.043h6.127zM67.234 4.085H65.19v2.043h2.043zm-20.426 0h-2.042v2.043h2.042zm18.383-2.042H63.15v2.042h2.042zm-14.298 0h-4.085v2.042h4.085zM63.15 0H50.893v2.043H63.15z" clip-rule="evenodd"/></g><defs><clipPath id="a"><path fill="#fff" d="M8 0h79.66v96H8z"/></clipPath></defs></svg>