<?xml version="1.0" encoding="UTF-8"?>
<svg id="Layer_1" xmlns="http://www.w3.org/2000/svg" version="1.1" viewBox="0 0 908 908">
  <!-- Generator: Adobe Illustrator 29.7.1, SVG Export Plug-In . SVG Version: 2.1.1 Build 8)  -->
  <defs>
    <style>
      .st0 {
        fill: #1c2e4d;
      }

      .st1 {
        fill: #0b0f1d;
      }

      .st2 {
        fill: #94c7e0;
      }

      .st3 {
        fill: #497fd5;
      }

      .st4 {
        fill: #f3be68;
      }

      .st5 {
        fill: #d65358;
      }

      .st6 {
        fill: #3563b0;
      }

      .st7 {
        fill: #3c69b5;
      }
    </style>
  </defs>
  <path class="st1" d="M809,852c-20.6,14.6-45.5,21.1-71.5,23H166.5c-73.5-4.8-134.6-62.7-140.4-136.6V171.5C30.8,92.3,98.7,34.1,176.5,33h560.1c73.7,4.9,136.2,57.8,144.3,132.7,2.7,186.5.3,373.3,1.2,559.9-1.2,33.4-10.7,69.7-34,93.5-9.2,13.5-24.5,25.7-39,33,14.3-10.1,27.1-20.8,39-33,13.7-20.1,25.2-41.2,29.6-65.9,5.7-192.8.8-386.5,2.5-579.6-6.4-78.8-68.2-134.4-146.5-138.5H172.5C95.5,39.6,33.4,94,28,172.5v564.1c5.2,74,65,131.3,138.5,136.5h570.1c27.3-1.5,48.4-9,72.5-21Z"/>
  <path class="st0" d="M809,852c-24.1,12-45.1,19.5-72.5,21H166.5c-73.5-5.2-133.3-62.5-138.5-136.5V172.5C33.4,94,95.5,39.6,172.5,35h561.1c78.2,4.1,140.1,59.7,146.5,138.5-1.7,193.1,3.2,386.8-2.5,579.6-4.4,24.7-15.9,45.9-29.6,65.9-11.9,12.2-24.7,22.9-39,33ZM113,82c-15.7,10.6-30.7,25.5-40,42l-2,.5,2,.5v1c-1.2,1.2-1.9,2.7-3,4-6.7,7.4-10,21.6-12.7,31.8s-1.2,3.7,1.7,3.2c-.3,1.9-.7,2.8-1,4s-1.7,2-1.1,3.4c.3,187.4-.2,374.7,0,562.1,0,.8-.4,5.2,1,2.5,1.5,3.7,1.2,8,2,12-1.4,1.8.2,5.8.7,7.8,2.8,11.5,7.5,20.4,13.3,29.2s4.6,7.3,8,11c4.5,8,12.7,17,21,21l8,6c.2.2.8-.2,1,0s-.2.9,0,1c14.1,11.7,36.5,18.3,56.5,20h569.1c17.6.7,32.9-6,48.8-13.2l7.7-5.8c2.8-1.6,5.5-3.1,8-5,13.3-9.8,19-19,29-31s15.7-26,18.5-41c5.7-190.4.8-381.8,2.5-572.6-.4-3.3-.8-6.6-1.1-10s1.2-4-2-3.5c-.3-2.7.8-6.2-2-8-.3-2-.6-4-1-6s-.8-2.1-1-3c2.2-1.2.6-3.1,0-4.6-5.2-14.9-12.3-26.2-23.1-37.4s-1.6-.6-2-1v-1c.3-3-1.8-2.3-3-3s-2-1.4-3-2c-.2-.2.2-.8,0-1-1.1-1.4-2-2.9-3.5-4l-.5,1c-1.6-1.5-2.3-3.9-5-4l-4-3c-.1-2.4-4.7-5-6.5-6-16.6-9.3-34.9-15.1-54-17H166.5c-19.1,2-37.6,8.4-53.5,19Z"/>
  <path class="st6" d="M746,66c1.6,0,3.6-.2,5,0,.2.4.6.9,1,1s.7,0,1,0l39,14c2.6,1.4,6.3,5.4,9,5l4,3c.6,2.9,5.1,6,8,7h1c.2.2-.2.8,0,1,2.1,2.7,3.8,3.8,6,6s1.6.6,2,1c.4.7.6,1.4,1,2,0,.8.5,1.4,1,2,4.7,6.2,7.4,9.7,11,17s5.8,13.4,8.5,21-.2,3.5,2.5,3c.4,2,.7,4,1,6,5.3,191.5-.1,383.8,2,575.5,0,1.7-.6,4.4,1,5.5-.1,2.2-.4,4.9-1,7-.4.2-.9.6-1,1s0,.7,0,1c-2.8,6-3.3,13-5.4,19.1-2.3,6.8-6.2,13.2-8.6,19.9-1.2,1.8-2.4,3.9-3,6-10,12-15.7,21.2-29,31l-4.2.2-15.8,10.8c-3.7,1.6-10,3.7-14,5l-28.5,5H159c-2.3-.4-4.7-.6-7-1,.6-2.9-1.5-1.8-3.2-2.3-11.6-3.3-21-6.3-31.8-11.7s-2.9-2-5-2c-.2-.1.2-.9,0-1l-.5-1-.5,1-8-6,.8-.8c-7.1-6.5-15.6-13.5-21.8-20.2s-5.3-6.9-8-11c0-.7,0-1.4,0-2-1.4-10.9-16.7-32.5-14-47.5,0-190.7,0-382.3,0-572.5,0-4.6,2-8.7,3-13l10-25v-2c9.3-16.5,24.3-31.4,40-42,1.8,1.5,3.3-.4,5-1,14.8-5.2,30.6-13.3,47.5-15,193.5,2.2,387.1-2.8,580.5,0ZM812.4,136.6c-14.6-25.5-41.5-41.9-70.9-44.6H168.5c-41.9,3.2-79.5,36.5-82.5,79.5v560.1c4.6,45.3,41.6,80.2,86.5,84.5,190.8-1.1,382,1.9,572.6-1.5,43.2-8.4,77.5-45,78-90V172.5c-1.2-12.8-4.3-24.8-10.6-35.9Z"/>
  <path class="st1" d="M849,163c3.2-.6,1.8,1.6,2,3.5.3,3.3.7,6.6,1.1,10-1.7,190.8,3.2,382.2-2.5,572.6-2.9,15-9.3,29.9-18.5,41,.6-2.1,1.8-4.2,3-6,7.5-11.6,13-24.8,14-39s0-.7,0-1c.4-.2.9-.6,1-1,.6-2.1.9-4.8,1-7V171.5c-.1-2.9-.7-5.6-1-8.5Z"/>
  <path class="st3" d="M74,784c-6.7-9.3-11.7-23.8-14-35s-.5-8.3-2-12V169c.3-1.2.7-2.1,1-4s.6-.9,1-1c0,190.2,0,381.8,0,572.5-2.6,14.9,12.6,36.6,14,47.5Z"/>
  <path class="st1" d="M117,827c9.6,7.2,23.3,11.5,35,14s4.7.7,7,1c4.8.7,9.6,1.7,14.5,2h560.1c11.9-.8,23.2-3.4,34.5-7s10.3-3.4,14-5,8.2-3.9,12-6l-7.7,5.8c-15.9,7.2-31.2,13.9-48.8,13.2H168.5c-20-1.7-42.3-8.4-56.5-20.1,2.1,0,3.4,1.2,5,2Z"/>
  <path class="st1" d="M113,82c15.9-10.7,34.4-17,53.5-19h574.1c19,1.9,37.4,7.7,54,17s6.3,3.6,6.5,6c-2.7.4-6.4-3.6-9-5-13-7.3-23.3-12.9-39-14s-.7,0-1,0c-.1-.4-.6-.9-1-1-1.4-.2-3.4,0-5,0l-13.5-2H176.5c-19.6,1.4-38.4,4.9-55.8,14.2s-3.1.4-2.6,2.8c-1.7.6-3.2,2.5-5,1Z"/>
  <path class="st3" d="M849,163c.3,2.8.9,5.6,1,8.5v564.5c-1.7-1.1-1.1-3.8-1.1-5.5-2.1-191.8,3.3-384-2-575.5,2.8,1.8,1.7,5.3,2,8Z"/>
  <path class="st1" d="M58,737c-1.4,2.7-1-1.7-1-2.5-.3-187.4.2-374.7,0-562.1-.6-1.4,1-2.9,1.1-3.4v568Z"/>
  <path class="st1" d="M70,130c-3.4,6.8-5.3,13.7-7,21s-3.1,8.4-3,13c-.4.1-.9.6-1,1-2.9.5-2.2-1.3-1.7-3.2,2.7-10.2,6-24.3,12.7-31.8Z"/>
  <path class="st3" d="M82,797c6.1,6.8,14.7,13.7,21.8,20.2l-.8.8c-8.3-4-16.5-13-21-21Z"/>
  <path class="st1" d="M74,784c0,.6,0,1.3,0,2-5.8-8.7-10.5-17.7-13.3-29.2-.5-2.1-2-6-.7-7.8,2.3,11.2,7.3,25.7,14,35Z"/>
  <path class="st1" d="M822,104c10.8,11.3,17.8,22.6,23.1,37.4s2.1,3.4,0,4.6c-1.3-4.9-3.1-9.7-5.1-14.4-.8-1.9-2.3-6.9-4.9-6.6-3.6-7.3-6.3-10.8-11-17,.3-1.1-.7-1.5-1-2s-.6-1.3-1-2Z"/>
  <path class="st3" d="M835,125c2.6-.2,4,4.8,4.9,6.6,2.1,4.6,3.9,9.5,5.1,14.4s.8,1.8,1,3c-2.7.6-1.9-1.4-2.5-3-2.7-7.6-4.9-13.8-8.5-21Z"/>
  <path class="st3" d="M802,821c-2.5,1.9-5.2,3.4-8,5s-8,4.3-12,6l15.8-10.8,4.2-.2Z"/>
  <path class="st3" d="M810,93c1,.9,2.5,1.4,3,3-2.9-1-7.4-4.1-8-7,2.7,0,3.4,2.5,5,4Z"/>
  <path class="st1" d="M820,102l-3-3c1.2.7,3.3,0,3,3Z"/>
  <path class="st3" d="M63,151c1.7-7.3,3.6-14.2,7-21,1.1-1.3,1.8-2.8,3-4l-10,25Z"/>
  <polygon class="st1" points="73 124 73 125 71 124.5 73 124"/>
  <path class="st1" d="M112,824c-.2-.2-.8.2-1,0l.5-1,.5,1Z"/>
  <path class="st3" d="M817,99l3,3v1c-2.2-2.2-3.9-3.3-6-6,1,.6,2,1.4,3,2Z"/>
  <path class="st1" d="M814,96h-1c-.5-1.6-2-2.1-3-3l.5-1c1.5,1.1,2.4,2.5,3.5,4Z"/>
  <path class="st3" d="M812.4,136.6c6.4,11.1,9.4,23.1,10.6,35.9v552.1c-.5,45-34.8,81.6-78,90-190.6,3.4-381.8.4-572.6,1.5-44.9-4.3-81.9-39.2-86.5-84.5V171.5c3-43,40.6-76.3,82.5-79.5h573.1c29.4,2.7,56.3,19.2,70.9,44.6ZM466,120c-.1,0,.3-1.5-.2-1.8l-24.8-.2,21,2c-3.3,0-23.2-.9-24,0s.2,8.3-.1,10.4c-.6,4.2-2.5,9.5-3.9,13.6s-4,11.9-4.7,12c-7.3,2.2-27.6-1.4-36.9,0s-3.5.8-4.5,2.5-1.6,20.3-.7,22.9,7.4,5.4,9.8,6.7c2.1,1.5,5.6,5.6,8,4,.4.3.7.7,1,1,1.7,1.5,8.2,6.5,8.5,7,3.5,6.8-10.4,33.9-7.8,39.7s18.4,4.1,22.8,3.3,2.1-1.7,2.5-2c4.5-2.8,16.8-12.5,21.6-13s10.9,5.6,13.4,7c2.3,2.1,10.3,8.2,12.7,8.8s19.8.8,21.4-1.2c4.6-5.9-8.9-32.8-7.1-42.1.8-3.8,9.6-9,13-11.5s2.4-1.7,4-3c2.4-.5,7-2.2,7.8-4.7s.6-21.9.2-23.3c-.6-1.9-1.8-1.8-3.5-2-5.4-.7-36,1.1-37.4,0l-5.1-16.9c-1-3.9-2.5-15-3.5-17s-2.7-1.4-3.5-2ZM708,157c-7.2-.9-25.1-2.7-31,0s-2.5,2.5-3,4c-1.7,5.2-1.8,21.8,0,27s.2,2,2,3c4.8,2.7,29.9-.1,31,1s-1.4,28.7,1,35-.3,1.3.2,1.8,1.4,0,1.8.2c4.4,1.7,32,3.1,32-3.5v-33.5c0-1.6,29.2,1.9,32-1v-1c.3,0,.6-.8,1-1s1.7.6,2-.6c.6-2.1.3-23.7,0-26.9s-.9-5.5-3.5-5.5h-31.5c-1.8,0,2.2-32.4-1-36s-.7.1-1,0c-3.2-1.5-28.3-1.9-30.1.4-2.6,3.4.1,29.1-.9,35.2l-1,1.4ZM198,260c-3.3,2-4.5,4.1-7,6,.9-1.3-.7-2.9-2-2s-.4,2.4-1,3-.6.7-1,1c-4.5,4-7.1,5.3-11,11s-5.8,10-8,14-3.6,4.9-5.2,8.3c-9.1,19.3-9.6,38.7-8.8,59.7-1.3,2.2-7.4,4.4-10,6.6s-.8,2.1-1,2.4-1.4-.5-2.3,1.2c-4.8,9.2-3.9,35.9,4.8,42.8s13.1,3.6,15,6,5.2,14.6,7.5,19c4.4,8.4,12.6,18.6,19.5,25s7.6,3.4,8.5,8.5l-21.6,10.5c-5.3,3.8-10.4,7.9-15.5,12.1s-1.9,1-3,2-1.4,1.4-2,2l-8,8c-.3.3-.7.6-1,1-8.5,9.7-15.6,21-18.7,33.8s-5,21.8,5.7,25.2,1.9,1.6,3.4,1.1c49.1,1.3,99.2-2,148.2,0s4-1,3.5,2c-1.6,2.2-3.8,7.6-5,10-10.1,13.3-15.3,31.4-17,48-2.3.7-2,2.6-2.1,4.4-.3,5.7-.9,17.7,2.1,22.1s4.7,4.5,5.5,4.5h70.5c.9,15.1-3,31.7,2,46,1.1,5.4,4.4,10.3,7,15,8.2,14.5,16.4,20.9,29,31s10.5,10.5,17,12c12.2,9.7,25.2,18.3,38,27,9.9,6.7,20.3,16.7,32,5,21.8-10.8,54.5-36.6,74-52,29.3-23.2,29.7-48.4,28-84h69.5c1.2,0-.5-1-.5-1,9.7-5.4,7.8-15.9,6.9-26.4-1.9-21.2-8.6-33.5-18.9-50.6-1.3-2.2-7.8-12.8-8-14h2c1.1,1.6,3.8,1,5.5,1,51,.6,102-.5,153,0l-.5-1c9.5-4,7.3-14.8,5.7-23.2-1.9-10.3-8-25.6-15.7-32.8-.9-1.5-1.7-3.5-2-4-.8-1.3-1.5-2.4-3-3h-1c-.7-.8-1.7-1.6-2-2v-1c0-3-2.8-2.8-3-3-.3-.3-.7-.7-1-1-1.2-1-2.1-2.5-4-4-6.1-4.6-14.6-8.7-20.8-14l-19.1-9.5c6.2-6.4,14-11.9,19.9-18.5s14.1-20.6,16-33c4.1-4.7,13.4.5,18.5-10,1.6-3.2,1.9-5.6,2.5-9,2.4-13.6,2.4-22.1-8-32s-5.9-3.3-6.1-3.6c-1.2-3.7.4-21,0-26.8l-3-9.5c-2-11.2-6-23.9-13-33-4.4-8.9-9.4-14.6-17-21-30.3-25.8-76.3-27.2-110-7-9,5.4-14.5,9.4-21,17-9.6,11.2-13.8,20.5-17.7,34.8s.6,3.8-2.3,3.2c-17.3-20.6-23-34-50-47-21.5-12.8-48.7-16.5-73.5-16s-41,6-61.5,18-10,5.2-12.5,7-17.9,17.7-20.9,17-4.5-9.2-5.7-11.1c-6.4-10.7-17.7-21.7-27.9-28.8-26.5-18.4-62-22.4-92.8-13.3-8.8,2.6-20.3,7.7-27.2,13.3Z"/>
  <path class="st3" d="M768,837c-11.2,3.6-22.6,6.2-34.5,7H173.5c-4.9-.3-9.7-1.3-14.5-2h580.5s28.5-5,28.5-5Z"/>
  <path class="st3" d="M746,66c-193.4-2.8-387.1,2.1-580.5,0-16.9,1.8-32.7,9.8-47.5,15-.5-2.4,1.2-2.1,2.6-2.8,17.4-9.4,36.2-12.8,55.8-14.2h556.1s13.5,2,13.5,2Z"/>
  <path class="st3" d="M792,81l-39-14c15.7,1.1,26,6.7,39,14Z"/>
  <path class="st3" d="M834,784c2.5-6.7,6.4-13.1,8.6-19.9,2.1-6.2,2.5-13.2,5.4-19.1-1,14.2-6.5,27.4-14,39Z"/>
  <path class="st3" d="M117,827c10.8,5.4,20.3,8.4,31.8,11.7s3.8-.6,3.2,2.3c-11.7-2.5-25.4-6.8-35-14Z"/>
  <path class="st3" d="M824,108c-.5-.6-.9-1.2-1-2,.3.5,1.3.9,1,2Z"/>
  <path class="st3" d="M752,67c-.4,0-.8-.6-1-1,.4,0,.9.6,1,1Z"/>
  <path class="st3" d="M848,744c0-.4.6-.8,1-1-.1.4-.6.8-1,1Z"/>
  <path class="st0" d="M318,260c10.2,7.1,21.5,18.1,27.9,28.8s3.6,10.6,5.7,11.1,17.4-14.5,20.9-17,9.1-5,12.5-7c4.1-.2,6.7-3.6,10.3-5.2,36.4-16.4,89-13.9,124.7,3.2,27,13,32.7,26.4,50,47s.8,3.8,3,4c-.3-7.2,2.9-13.9,4.8-20.7l12.2-21.3c6.5-7.6,12-11.6,21-17,3.2-1.1,5.9-3.2,9-4.5,26.7-11,64.3-10.2,89.6,4.3,4.1,2.4,6.8,6.5,11.3,7.2,7.6,6.4,12.6,12.1,17,21,6.3,12.5,12,29.4,13,43.5.5,6.6-1.5,22.2,0,26.9s1.6.3,2,.6,1.2.4,2,1c16.6,11,10.2,14.7,13,33-.6,3.4-.9,5.7-2.5,9-5.1,10.5-14.4,5.3-18.5,10s-3.9,11.5-5.6,14.9c-3.1,6.2-7.8,11.7-10.4,18.1-5.9,6.7-13.7,12.1-19.9,18.5l19.1,9.5c6.2,5.3,14.7,9.4,20.8,14v1c-2,1.2,1.7,3.1,3,3h1c.3.3.7.7,1,1,.4.6.6,1.4,1,2,.8,1.2,1.6,1.5,2,2s1.3,1.2,2,2,1.3,5.3,3,3h1c.3.5,1.1,2.5,2,4,5.6,9.6,13.2,23.4,14.7,34.8s2.1,17-3.7,18.8l-160.4.4c-1-.1-.7,1.3-.6,2,.2,1.2,6.7,11.8,8,14,1.5,7.6,7.2,13.7,9.7,20.8,4.1,11.4,5.1,22.2,6.3,33.7.4,4.2,2.4,7.3,2,12s-2.3,8.6-4.5,8.6h-72.5c-3.8,0-1.2,38.3-1.5,42.1-.7,9.2-5.4,17.5-8.5,25.9-4.6,6.8-11.8,11.8-16,19-19.5,15.4-52.2,41.2-74,52-14.7,7.2-16.3,3.2-28.3-4.2s-3.4-2.6-3.7-.8c-12.8-8.7-25.8-17.3-38-27-.2-.2-1.6-3-3.1-4.3-2.8-2.3-10.1-6.6-13.9-7.7-12.6-10.1-20.8-16.5-29-31-4-11.6-6.6-23.1-7-35.5s1.8-25.5,1-26.6-1.4,0-2,0c-20.9-2.7-49.9,3.6-70-1h66.5s3.5-1,3.5-1h-71.5c-6.2,0-4.9-19.9-4.5-24.5,1.2-17.6,8-36,16-51.5s3.4-7.8,5-10,4.9-.6,2-3l-159.3-2.2c-9.2-3.2.8-32.7,3.8-38.9s8.2-11.9,11.5-18c.3-.4.7-.7,1-1,2-2.2,5.8-6,8-8s1.2-1.3,2-2l3-2c5-4.2,10.2-8.2,15.5-12.1l21.6-10.5c-.9-5.1-5.9-6-8.5-8.5-6.9-6.4-15.1-16.6-19.5-25l-6.2-20.8c-25.8-2.6-24.9-29.1-18.8-48.2.3-.3.1-1.6,1-2.4,2.5-2.2,8.6-4.4,10-6.6,2.3-3.9.5-16.8,1-22.5,1.5-16.3,6-30.8,13-45.5,2.2-4,5.6-10.5,8-14,.6-.2,1.4-.9,2-1,2.9-.5.9-.5,2-2,3.5-4.6,2.8-3.7,7-7s2.9-2.2,4-3c2.5-1.9,3.7-4,7-6,29-17.2,66.1-21,98.2-9.7,7.7,2.7,14.2,7.2,21.8,9.7ZM302,278c-2.2-4.6-11.2-8.1-15.8-9.7-25.9-9-53.9-5.3-76.7,9.7-1.6,1.1,1,1.2,1.5,1-3.7,2.2-9.6,7.1-13,10s-16.5,19-17.9,24.7-.6,5.1.9,6.3v1c1.3,2.2,21,6.4,24.5,6.8s1.3-.8,1.5-.8c1.3.1,2.7,0,4,0-.6,3,1.5,1.9,3.4,2,29.3,1.4,49.3,1.3,75.6-13,1.2-.7,1.7-1.8,2-2,4.9-2.8,11-7.5,16.8-3.3s3.5,10.4,8.2,15.3c-2.3,1.8,4.8,6.6,6,7.3,10.4,6,14.1,6.1,13-6.3s-3.6-19.5-9-25-2.1-1.3-3-2c-5.7-9.8-12.4-16.1-22-22ZM701,288c.6-3-.2-2.4-1.9-3.5-21.1-13.9-51.1-13.5-73.2-2.3s-6.3,3.6-5.8,4.9c-.8.5-1.1,1-1,2-8.9,5.6-12.8,10.7-18,19s-5.3,7.7-7,12c-2.5,6.2-4.8,13.8-5,20.6s.3,1.9,2,2.4c3.2,1,3.4-1.3,6.5-2.1,10.9-3,16.5-8.3,24.5-16.9.9,0,1.4-.5,2-1,8.6-3.6,11.5,1,18,4s11,5.1,21,7c1.7,2.5,10.7,4,13.5,4h36c1.5,0,6.6-1.5,8.5-2,3.8-1,9.6-1.2,9-6.4s-2-.5-2.1-1.1c-1.1-12.8-7.8-24-18-33.4-3.3-3.1-4.9-4.6-9-7ZM516,298c.2-2.2-5-3.9-6.8-4.7-35.5-16.9-87.1-20.8-118.2,5.7-11.4,9.7-18,15.6-27,28s-1.3.9-2,2c-5.3,7.8-6.6,11.5-10.1,20.2s-1.8.9-1.9,1.3c-.9,3.4,1.8,2.3,2,2.5.4.5.6,1.7,1,2,5.7,4.1,13.3,4.2,20,5s3.4-.2,5,0c.7,2.4,2.6,1.9,4.5,2,11.5,1.2,21.3.9,32.5,0s15.6-2.4,23-4c1,1.9,3.5.8,5,.6,13.7-2.3,28.1-8.4,40-15.6.7-.3,1.4-.7,2-1,1.7-.9,3.2-3.5,6-5,6.9-3.8,16.4-11.2,24-8,3.6,5.2,5.4,10.3,9,16s2,3,4,5c5.3,5.3,5.8,6.7,14,9-.6,2.6,1.3,2,3,2.5,2.6.7,15.2,3.2,16.1-.1s-5.5-21.6-7.9-26l-7.2-9.3c-.4-.6-.7-1.3-1-2-1.6-3-2.7-5.2-6-7h-1c-.3-.4-.7-.6-1-1v-1c.2-2.1.1-2.2-2-2h-1c-.2-.2.2-.9,0-1-.3-.3-.6-.8-1-1l-2-1v-1c-1.4-1.8-4-4.6-5.8-6s-4.7-3.3-5.2-2c-1.3-.9-3.2-2.5-4-3ZM297,335c-5.3-.8-1.7.3-3.7,1-39.3,14.6-73.7,14.4-113.7,5-.8-.2-1-4.7-3.7,0v49c0-.2-1-1.6-1.1-3.4-.4-14.4.5-28.8,0-43.1s.4-3.6-1-2c.5,16.3-.6,32.7,0,49,0,1.9-1,4,2,3.5,0,.7,0,1.3,0,2-1.3.4-1.1,2.3-1.1,3.4,0,4.5.7,5.3,1.1.6,3.1,18.9,11.3,33.3,24,47,7.7,8.2,18.5,15.2,30.2,18.4s35.6,3.6,49.1-2.5,5.1-2.8,6.6-4.9h1c.6,0,.8-.9,1-1,2.9-1.5,6.6-3.9,9-6-.2,3.5.5,1.8,2,.4,2.6-2.5,7.7-5.2,8.6-8.4,3.5-11.5-4.1-29.3,6.2-40.1,1.7-1.8,12.1-7.9,12.3-8.7,2.3-8.4-1.5-27.1,2.1-36.8l-.8-1.6-16.3-7.4c-.7-4.7-6.4-5.4-8.1-7.9s.8-3.9-3.9-5.6-1.4,0-2,0ZM620,354c-.7.4-1.3.7-2,1-3.5,1.6-10.2,3.6-14.6,4.9s-12.5.8-13.4,5.1c-.3.1-.8-.2-1,0-1.5,1.3-1.6,28-.3,30.8s6,3.8,7.9,6.2c8.8,11.2,2.2,23.1,9.2,34.7,13.5,22.5,53.5,31,77.5,23l9.8-5.7c9.9-4.5,20.1-14.6,27-23,9-10.9,9.2-15.2,12-29.3s2-.6,2-.7v-48c-2.4-.2-1.7-.3-2,1.5-1.5,9.5.5,24.1,0,34.5-2.7-11.5.2-24.4-1-36s.8-2-1.5-2c-4.9,0-15.6,2.4-21.9,3-18.6,1.9-37.3,1.8-56.9-4.3s-15.9-7.2-17.3-7.3c-4.7-.2-6.1,5-8.6,7s-7.9,1.9-4.9,4.6ZM561,383c-.3-.3.1-2.3-1.6-2.9-3.3-1.1-6.8,1.2-9.8.8-12.7-1.3-29.6-10.3-38.1-20-1.4-1.6-4.7-7.9-5.2-8.1-1.9-.5-9.3,2-9.3,5.1-1.5.6-4.6,2.8-7,4,.2-3.7-.7-1.2-2.1-.6-29.5,13.3-70.8,25-101.6,17.6s-6.8,1.1-8.7,1-.5-1.8-1.4-1.9c-7.2-1.3-19.5-4.7-26-4.8s-2.2-.9-2.2.8c1.9,33-5.5,67.5,7.8,98.7,3.5,8.1,8.6,15.8,13.2,23.3s7,9.6,17,16c3.6,4.6,4.8,6.1,10.3,9.2,22.3,12.7,46,17.9,72.4,13.8,2-.3,4.1,1.3,5.7,1.1,10.6-1.3,33.8-10.9,43.3-18.8,1.3-1.1,2-1.3,2.4-3.3.3-.1.7.1,1,0,1-.3,4,.2,1-2,1.6-2,2.8-1.6,4-2.7,6.9-6.7,11.6-15,19-21.3,13.8-11.8,18.2-41.2,19-60.5.6-14.3-.6-28.8-.3-43.1-.3-1.4-2.4-1.1-2.7-1.4ZM580,462c-.9.1-1.4-.4-2.1.6-1.2,1.7-4,15.5-5.4,19.4-2.3,6.1-5.5,12.3-8.5,18s-3.6,6.4-4,7c-.6,1-.7,2.7-2,4.2s-10.2,7.6-6,10.3,5.4-3.7,7.3-6.3,2.3-.1,2.5-.4c.8-1.1,1.5-5.9,4.2-8.9s3.7-2.4,5-4,2.5-3.4,3-4-.2-.8,0-1c2.4-2.6,6.3-6.5,9-9h3s-1-1-1-1v-1c1.5-1.3,4.2-2.6,6-4,2.5,2.1,2.3.3,3.2-.2,3.3-1.7,6.4-4.4,10-6.2s10.9-2.1,7.7-7.5-3-.7-3.8-1.1c-4.5-2.4-7.8-5-11-9s.5-2.2-.5-2-7.1,5.2-9.3,5.7-5,0-7.2.3ZM313,463c-.4.6-.6,1.4-1,2h-1l-3,1,1,1c-.3.4-.8.7-1,1-3,4.9,10.3,7.9,14.3,10.2s5.6,4.2,8.7,6.8,2.9,4.5,7,6,1.5,1.7.8-1.3c-1.2-4.8-4.6-12.1-6.3-17.7s.2-3.6-2.5-3c-.4-1.5-.5-3.3-1-5s.2-1.3,0-2l-13.6-2c-2.7.2-1.8,1.9-2.4,3ZM713,493c-12.6-7.3-25.6-14.3-40.5-12-1.9.3-4.1-1.3-3.5,2-9.1.2-24.2-3.1-31-2-9.9,1-18.6,5.6-26,12-6.4,3.8-18.5,12.9-23,18.5s-2.3,2.3-2,4.5c-2.3,2.5-11.7,12.3-10.9,15.4s10.2,7.5,11.7,8.5,1.9-.1,2.2,0,.6.7,1,1,.6.7,1,1c2,1.6,1.9,2.9,2,3,6.3,5.2,143.4-1.9,162.6,1,1.5.2,1.6,0,2.4-1s-.1-1.4,0-2c.7-3.2-3.7-11.6-5.6-14.9-5.3-9.1-16.9-21.7-25.9-27.1s-2.7-2.2-2.5,1c-2-1.3-3.9-2.8-6-4,.6-1.9-4.1-4.1-6-5ZM304,493c2.4-2.2-5.4-5.3-6.6-5.9-21.8-9.8-20.2-2.1-39.8-1.1-10.9.5-20.9-3.7-30-3.8-8.3-.1-30.9,10.5-38.7,14.9l-3.8,3.9c-2.4,1.4-4,.4-2,3-3.2,1.9-2.4,2.4-7,4s-.3-1.4-2.5-.1-12.9,12.4-13.5,16.1c-.7.7-1.4,1.3-2,2s-1.2-.3-2.1.6c-1.6,1.9-11.2,19.3-5.4,19.3h159.1c1.6.5,2.4-.5,3.4-1,2.7-1.2,8.3-7.1,10-9,3.6-1.7,18.3-6.7,18-11.5s-2-1-2.6-1.9c-1.5-2.2-1.9-2-2.3-2.6-9.5-11.6-18.2-20.2-32-27ZM352,545c-2.5,1-5.8,1.7-7,4-.3,0-.7,0-1,0-3,.2-6.3,2.1-2,2-14.9,9.6-28.6,20.4-39,35s-12.1,21.3-14.7,31.8-4.1,18.2-.8,18.2h54.5c4,0-.6-36.2,5-40,1-.7,1.6-1.6,3-2-.4,3.4,1,1.5,2.8,1.3,7.2-.7,14.1-1.8,21.2-3.3s2.1-.8,3-1c5.6,1,12.6-1.1,18.2-2.3,9.4-2,20-3.9,28.8-7.7s.9-1.2,3-2c1.6,2.2,5-.3,7-1,6.2,1,15-5.3,20.4-5,11.6.7,41.6,11.3,55.6,14.5s6.1,1.3,9.2,1.8,3.2,1.9,2.8-1.4c2.7.6,5.3,1.4,8,2,10.5,2.2,21.9,3.3,32,6s1.2.7,2,1c.6.9.6,2,1,3v32.4c.2,1.2,1.5.4,2,.6,10.9,4.4,40-1.2,53,1-.2-2.6.3-5.5,0-8,1.2-6.4-5.6-27.2-10-31s-1.4-.6-2-1c-6.2-14.1-21.8-29.7-34-38-3.1-4.8-12.8-8.8-18.3-11.2-5.8-2.5-23.8-9.3-29.2-8.9s-13,7.5-16.8,9.3c-8.1,3.7-16,5.3-24.5,7.5-1.7.5-3.8-.6-3.2,2.3-3.9.6-9.9.8-14,1-31.1,1.5-50.2-3.8-78-16-1.8-.8-3.6-2.5-5-3-2-3.8-7.9-1.4-11.2-.7-7.1,1.4-15.8,4.6-21.8,8.7ZM364,613h-1c-1.6,1.1-1,3.8-1,5.5-.2,19.5-3,61.9.4,78.8s12,23.7,22.6,31.7c18.8,14.2,40.2,30,60,42s8,6,8.5,6.1c2.2.3,9.5-3.3,9.5-5.1,3.7.8,4.1-3,5.8-4,7.1-4.6,15.2-7.7,21.2-14,17.5-11.6,32.9-23.2,46-40s.5.7,1,0c5.2-7.1,6.9-15,9-23.5v-76.9c.1-1.1-1.3-.5-2-.6-2.8-.5-6.1-.6-9-1,.6-2.7-1.4-2.1-3.2-2.3-11-1.6-21.9-2.8-32.8-5.1s-37.7-11.7-45.5-11.5-30.2,10.2-42,10.9l-45.8,7.2-1.6,1.8Z"/>
  <path class="st0" d="M405,192c0,0,.3-1.2-.3-1.7-1.6-1.4-14.7-8.2-14.7-9.3v-22h40.5c2.4,0,11.7-33.7,9.5-38h26.8c2.8,3.4.7,7.9,1.1,10.3s1.8.6,2,1.4c.8,3.6,4.5,26.3,8.6,26.3h38l1.5,1.5v20c0,1.1-5.7,4.4-7,5.5s-2.6,1.9-4,3c-.4-2-3,.1-3.7.7-2.6,2-10.8,8.4-11.3,10.9-1.5,8.1,8.6,28.5,8.9,38.1s0,4.4-1.4,4.4h-19c-.8,0-11.4-6.8-13.5-8s-11.7-7.2-13.4-7c-4.7.5-17,10.2-21.6,13-3.4,1.4-22.7,1.7-23.8-.1-2.8-4.4,9.7-32,8.8-39.3s-7.7-9.3-11-8.5c-.3-.3-.6-.7-1-1ZM497,178c.6-.8,2.5-.6,1.9-3.3-1.9-7.5-23.2-.9-28.9-5.2s-2.7-36.9-21-29.9-8.5,28.5-12,31-39.8-4.5-22.1,11.4c.2.3.7.7,1,1,1.5,1.6,2.3,4,5,4,1,1,2,2,3,3s-.2,1.2.3,1.7c2,2.2,5.4,1.2,5.8,5.8s-6.1,22.7-4,26.4,3.9.5,5.1,0c4.9-1.9,14.5-10.6,19-12.3s10.8,1.6,15.5,4,7.9,7.4,13.3,6.3.7-.7,1-1,1.6.3,1.9,0c1.7-2.4-5.4-20.3-4.6-24.3s14.3-13.1,16.7-15.6.7-.7,1-1,.7-.6,1-1,.7-.6,1-1Z"/>
  <path class="st0" d="M739,157c-2.6-2.8-29,.5-29-1v-32.5c0-.2.8-3.5,1-3.5h28v35l1-3.5v-31.5c.3.1.9-.2,1,0v37c5.4.9,30.3-1.7,33,1h-33l-2-1Z"/>
  <path class="st1" d="M740,120v31.5s-1,3.5-1,3.5v-35h-28c-.2,0-1,3.3-1,3.5v32.5c0,1.5,26.4-1.8,29,1h-30v33c0,1.6,29.2,0,32,0,0-10.7,0-21.3,0-32h33c2.6,2.6.1,25.7,1,31-.4.2-.7,1-1,1-7.6,1.2-21.5,0-30,0s-2,0-3,0c0,8.8,1.5,26.9,0,34.5s-2.5,4.1-5,4.5c-.3-.9-1.2-.9-2-1-2-.1-5.1-.3-7,0s-.9.6-1,1c-.6.1-1.3,0-2,0-3.2-1.7-9.7-1.7-13,0h-1c-.4-.1-1.3.3-1.8-.2s0-1.4-.2-1.8c-.6-4.5,1.2-35.2-1-36-8.6-1.7-19.3-1.7-28,0h-3c-1.8-1-1.4-1.3-2-3v-27c.5-1.5,1.5-3.3,3-4h31l1-1.4c1-6-1.8-31.8.9-35.2s26.9-1.9,30.1-.4ZM774,159h-32v30h32v-30ZM707,160h-30v28l30,1v-29ZM738,192c-9.5,0-18.6,1.3-28,0l1,34h25.5l1.5-1.5v-32.5Z"/>
  <path class="st1" d="M777,567h-160c0-.7-.4-2.1.6-2l160.4-.4c5.8-1.8,4.4-13.9,3.7-18.8-1.6-11.4-9.2-25.1-14.7-34.8,7.7,7.2,13.8,22.5,15.7,32.8,1.6,8.4,3.7,19.2-5.7,23.2Z"/>
  <path class="st1" d="M145,508c-3.3,6-8.6,11.7-11.5,18s-13,35.7-3.8,38.9l159.3,2.2h-157c-10.7-3.3-7.8-16.4-5.7-25.2,3.1-12.8,10.2-24.1,18.7-33.8Z"/>
  <path class="st1" d="M462,120h4c.8.6,2.6.2,3.5,2s2.5,13.1,3.5,17,2.6,15.9,6,18c5.3,3.3,31.2-.4,39,1h1c.4,1.4.3,21.8-.2,23.3-.8,2.4-5.4,4.2-7.8,4.7,1.3-1.1,7-4.4,7-5.5v-20l-1.5-1.5h-38c-4.1,0-7.7-22.7-8.6-26.3s-1.8-.7-2-1.4c-.4-2.4,1.7-6.9-1.1-10.2h-26.8c2.2,4.2-7.1,37.9-9.5,37.9h-40.5v22c0,1.1,13.1,7.9,14.7,9.3s.2,1.6.3,1.7c-2.4,1.6-5.9-2.5-8-4s-8.9-6.2-9-6.7c-.8-2.8-.7-24.3,2.5-24.3h40.5l3-13c1.4-4.1,3.3-9.4,3.9-13.6s-.3-10,.1-10.4c.8-.8,20.7,0,24,0Z"/>
  <path class="st1" d="M625,581c10.3,17.1,17,29.5,18.9,50.6.9,10.4,2.8,21-6.9,26.4h-70v37.5c0,7.1-6.8,22.4-11,28.5,3.1-8.4,7.8-16.8,8.5-25.9s-2.3-42.1,1.5-42.1h72.5c2.1,0,4.3-6.7,4.5-8.6.4-4.6-1.6-7.8-2-12-1.1-11.4-2.2-22.3-6.3-33.7s-8.1-13.2-9.7-20.8Z"/>
  <path class="st1" d="M520,274c-35.7-17.1-88.2-19.6-124.7-3.2s-6.2,5-10.3,5.2c20.5-12,37.4-17.6,61.5-18s52.1,3.2,73.5,16Z"/>
  <path class="st1" d="M282,580c-8,15.5-14.8,33.9-16,51.5-.3,4.6-1.6,24.5,4.5,24.5h71.5l-3.5,1h-66.5c-1.6-.4-2.5.3-4.5-.9-6-3.7-3.1-21.8-2.5-28.1,1.7-16.6,6.9-34.7,17-48Z"/>
  <path class="st2" d="M289,567c2.9,2.4-1.8,2.7-2,3,.6-3-1.5-1.9-3.5-2-48.9-1.9-99.1,1.4-148.2,0-1.5.6-2.6-.8-3.4-1.1h157Z"/>
  <path class="st2" d="M777,567l.5,1c-51-.5-102,.6-153,0-1.7,0-4.4.6-5.5-1h158Z"/>
  <path class="st1" d="M318,260c-7.6-2.6-14-7-21.8-9.7-32.2-11.3-69.3-7.5-98.2,9.7,7-5.5,18.4-10.7,27.2-13.3,30.8-9.1,66.3-5.2,92.8,13.3Z"/>
  <path class="st2" d="M272,657c20.1,4.6,49.1-1.7,70,1,1.1,14.7-1.9,32.7,1,47-5-14.3-1.1-30.9-2-46h-70.5c-.8,0-4.8-3.5-5.5-4.5-3-4.4-2.4-16.3-2.1-22.1s-.2-3.7,2.1-4.4c-.6,6.3-3.6,24.3,2.5,28.1s3,.6,4.5.9Z"/>
  <path class="st2" d="M637,658s1.7,1,.5,1h-69.5c1.7,35.6,1.3,60.8-28,84,4.2-7.2,11.4-12.2,16-19s11-21.4,11-28.5v-37.5h70Z"/>
  <path class="st1" d="M721,273c-4.6-.7-7.2-4.8-11.3-7.2-25.3-14.5-62.9-15.3-89.6-4.3-3.1,1.3-5.8,3.4-9,4.5,33.7-20.2,79.7-18.8,110,7Z"/>
  <path class="st1" d="M751,327c2.3,12.8,2.3,25,2,38-.5-.3-1.7.7-2-.6-1.4-4.8.6-20.4,0-26.9-1.1-14-6.8-30.9-13-43.5,7,9.1,11,21.8,13,33Z"/>
  <path class="st1" d="M342,658c.6,0,1.9-.2,2,0,.8,1.1-1.2,22.2-1,26.6.5,12.3,3.1,23.9,7,35.5-2.6-4.7-5.9-9.6-7-15-2.9-14.3.1-32.3-1-47Z"/>
  <path class="st1" d="M406,193c3.3-.8,10.7,5.8,11,8.5.8,7.4-11.6,34.9-8.8,39.3s20.4,1.5,23.8.1c-.4.3-.3,1.6-2.5,2-4.4.8-20.8,1.1-22.8-3.3s11.3-32.9,7.8-39.7-6.8-5.5-8.5-7Z"/>
  <path class="st1" d="M507,189c-3.3,2.6-12.2,7.7-13,11.5-1.9,9.3,11.7,36.2,7.1,42.1s-18.3,1.9-21.4,1.2-10.4-6.7-12.7-8.8c2.1,1.2,12.7,8,13.5,8h19c1.5,0,1.5-3.1,1.4-4.4-.4-9.6-10.5-30-8.9-38.1s8.7-8.9,11.3-10.9,3.3-2.7,3.7-.7Z"/>
  <path class="st2" d="M744,190l30,1c-2.8,2.9-32-.6-32,1v33.5c0,6.6-27.6,5.2-32,3.5h1c4.3-.1,8.7.2,13,0s1.4.1,2,0,.8-.6,1-1c1.9-.3,5-.1,7,0,.2.9,1.3,1.1,2,1,2.5-.5,4.5-2,5-4.5,1.5-7.5,0-25.6,0-34.5,1,0,2,0,3,0Z"/>
  <path class="st2" d="M741,120c3.2,3.6-.8,36,1,36h31.5c2.5,0,3.2,3.5,3.5,5.5.4,3.2.6,24.8,0,26.9s-1.7.4-2,.6c-.9-5.3,1.6-28.4-1-31s-27.6,0-33-1v-37Z"/>
  <path class="st1" d="M154,361c-.7-21-.3-40.4,8.8-59.7s3.7-5.7,5.2-8.3c-6.9,14.7-11.5,29.2-13,45.5s1.3,18.6-1,22.5Z"/>
  <path class="st1" d="M143,370c-6.1,19.2-7,45.6,18.8,48.2l6.2,20.8c-2.3-4.4-6.3-17.3-7.5-19-1.9-2.4-11.5-3.3-15-6-8.7-6.9-9.6-33.6-4.8-42.8s2.2-1.1,2.3-1.2Z"/>
  <path class="st2" d="M679,191c5.1,0,25-1,28,0s.4,31.5,1,36c-2.4-6.3.2-33.8-1-35s-26.2,1.7-31-1h3Z"/>
  <path class="st2" d="M751,327l3,9.5c.3,5.8-1.2,23.2,0,26.8s4.4,2,6.1,3.6l-5-1c-.8-.6-1.6-.8-2-1,.3-13,.3-25.2-2-38Z"/>
  <path class="st1" d="M466,795c-11.7,11.7-22.1,1.7-32-5,.3-1.8,3,.4,3.7.8,12,7.4,13.7,11.4,28.3,4.2Z"/>
  <path class="st1" d="M760,367c10.4,9.9,10.4,18.4,8,32-2.8-18.3,3.6-22-13-33l5,1Z"/>
  <path class="st1" d="M379,751c3.7,1.1,11.1,5.3,13.9,7.7s2.9,4.1,3.1,4.3c-6.5-1.5-12-8-17-12Z"/>
  <path class="st2" d="M434,144l-3,13h-40.5c-3.2,0-3.3,21.5-2.5,24.3s7.6,5.7,9,6.7c-2.4-1.3-9-4.1-9.8-6.7s-.5-20.8.7-22.9,2.7-2.2,4.5-2.5c9.3-1.3,29.6,2.2,36.9,0s4.1-10.3,4.7-12Z"/>
  <path class="st2" d="M473,139l5.1,16.9c1.5,1.1,32-.6,37.4,0s2.9.1,3.5,2h-1l-39-1c-3.4-2.1-4.9-13.7-6-18Z"/>
  <path class="st1" d="M590,283l-12.2,21.3c-1.9,6.8-5.1,13.5-4.8,20.7-2.2-.2-2.4-3.3-3-4,2.9.6,1.8-1.5,2.3-3.2,3.9-14.4,8.1-23.7,17.7-34.8Z"/>
  <path class="st2" d="M708,157h-31c5.9-2.7,23.8-.9,31,0Z"/>
  <path class="st0" d="M774,190v1l-30-1c8.5,0,22.4,1.2,30,0Z"/>
  <path class="st2" d="M462,120l-21-2,24.8.2c.4.2,0,1.7.2,1.8h-4Z"/>
  <path class="st2" d="M674,188c-1.8-5.2-1.7-21.8,0-27v27Z"/>
  <path class="st1" d="M731,451c2.6-6.5,7.2-12,10.4-18.1s4-13,5.6-14.9c-1.9,12.4-7.8,23.8-16,33Z"/>
  <path class="st1" d="M764,507c-1.7,2.3-2.7-2.6-3-3h1l2,3Z"/>
  <path class="st1" d="M191,266c-1.1.8-3.1,2.3-4,3v-1c.4-.3.7-.7,1-1,.6-.6,2.9-.9,3-1Z"/>
  <path class="st2" d="M188,267c.7-.6.8-2.9,1-3,1.3-.9,2.9.7,2,2s-2.4.4-3,1Z"/>
  <path class="st2" d="M756,498c.2.2,3,0,3,3l-2-1c-.4-.6-.6-1.4-1-2Z"/>
  <path class="st1" d="M156,497c1.1-1,2.3-1.4,3-2l-3,2Z"/>
  <path class="st2" d="M187,268v1c-4.2,3.3-3.5,2.4-7,7l-2,2c-.6,0-1.4.8-2,1,3.9-5.7,6.5-7,11-11Z"/>
  <path class="st2" d="M765,507h-1l-2-3c1.5.6,2.2,1.7,3,3Z"/>
  <path class="st1" d="M146,507l8-8c-2.2,2-6,5.8-8,8Z"/>
  <path class="st1" d="M759,501v1c-.4-.5-1.2-.8-2-2l2,1Z"/>
  <path class="st2" d="M755,497h-1l-3-3v-1c1.9,1.5,2.8,3,4,4Z"/>
  <path class="st2" d="M497,358c.8-.4,7.6-2.5,8-2.4,3.4.6,2.9,4.4,4.5,6.4,12,14.5,32.8,21.5,51.5,21-1.1,28.1,3.6,55.8-5.7,82.8-2.8,8-7,14.6-10.3,22.2-7.3,6.3-12.1,14.6-19,21.3s-2.4.7-4,2.7-1,1.1-1,2c-.3.1-.7-.1-1,0-12.3,5.4-19.3,12.5-34,16.5-38.1,10.3-67.9,2.1-100-18.5-3.1-4-3.6-3-6-5.5-3.4-3.5-6.9-8.1-11-10.5-4.6-7.5-9.7-15.2-13.2-23.3-13.3-31.1-6-65.7-7.8-98.7,38.1,12.9,86.3,11.9,124-2.5s11.9-6.4,18-9.5,5.5-3.4,7-4ZM394.7,405.2c-1.2.2-3.5.9-4.3,1.7-2.4,2.4-2.8,25-2.5,29.6s.9,8.4,1.5,9.5c1.7,3,26.8,3.5,29.3-.7s1.9-32.5.4-36c-2.2-5.2-19.6-4.9-24.5-4ZM517,446c3-3.3,3-34.8.5-38s-24.1-4.2-27.5-.5-1.6,36.4,0,38.9,24.3,2.8,27.1-.3Z"/>
  <path class="st7" d="M345,549c7.2-1,13.2-5.1,19.8-6.9s14.5-3.2,17.7-3.1,9.5,5.7,11.8,6.7c41,17.9,83.2,18.6,123.5-1.4.9-.5,5-4.4,5.5-4.6,5.2-1.7,17.7,2.4,23.4,4.2s11.3,4.2,15.1,5.9,3.5,4.9,6.3,2.3c1.1.7,4.6,3.1,6,4,12.2,8.3,27.8,23.9,34,38,3.3,7.5,5,15.8,9,23,0,.3,0,.7,0,1,.6,4.9,1.1,10,1,15h-50v-31.5c0-.7-2.7-5-3.2-5.3s-.7.9-.8.8c-.8-.3-1.9-1-2-1,2.3-2.7-2.2-3.4-3.8-3.7-5.9-1.4-16.5-2.7-22.8-3.3s-4.4-.6-5.5,1c-2.7-.6-5.3-1.4-8-2s-2.1-.8-3-1l-64.6-16.9c-9.5,1.5-18.9,5.8-27.4,8.9s-2.7,1.9-3,2c-.7,0-1.3,0-2,0l-63,12c-3.3.5-5.1-.2-9,1s-2,1.3-3,2c-2.7,2-3.6.8-5,6l-1-.5v31.5s-52,0-52,0c1.1-9.3,2.7-18.7,6.1-27.4s5.2-8.9,6.9-14.6.9-3.3,1-5c10.4-14.6,24.1-25.4,39-35s2.6.7,2-2c.3,0,.7,0,1,0Z"/>
  <path class="st2" d="M299,335c1.7,10.7,12.3,15.4,21,19.5s6.4-.9,6,7c-.5,10.6-1.6,21.2-1.2,31.8-13.7,6.7-18.5,12.6-19.8,28.2s5.9,17.5-8,29.5-6.1,4.5-9,6l-1,1h-1c-29.8,13.3-60.6,9-86-11-12.7-13.7-20.9-28.1-24-47,0-1.3,0-2.7,0-4s0-1.3,0-2c0-1.3,0-2.7,0-4v-49c34.3,10.1,77.2,12.7,111-.5,3.1-1.2,7.9-2.8,10-5.5.6,0,1.5-.2,2,0ZM230,398.5c1-6.6,0-17.8,0-25s-22.3-3.6-24-.7-1.8,29.1,1,30.8,10.1,1.5,11.5,1.5c5.9,0,10.5,0,11.5-6.6ZM280.5,371c-.4.7-2.5,2.2-2.5,2.5v28c0,4,24,5.2,24-1v-28l-1.5-1.5h-20Z"/>
  <path class="st2" d="M731,353c1.2,11.6-1.7,24.5,1,36,0,1,0,2,0,3l-1,7c-1.6,12.3-4.4,21.5-11,32-6.9,8.4-17.1,18.5-27,23-29.4,13.4-64.5,8-85.4-17.1-5.7-6.9-2.9-12.1-3.9-20.1-1.3-10-5.1-18.6-14.7-22.5v-29.3c.2-.2.7.1,1,0,3.5-1.6,9.3-1.3,13.8-2.7s11.1-4.1,14.2-7.3c.7-.3,1.3-.6,2-1,3.2-1.6,11.7-9.6,12.5-9.7s14.9,7.1,18.5,8.2c25,7.7,54.9,6.9,80,.5ZM616,378c-1.4,4.9-2,20.4,0,25s-.3,2.4,2.5,3,19.7.2,20.6-.4c1.7-1.2,4-29.6-1.1-32.1s-17.3-.9-19.3-.3c-2.9.9-2.2,2.9-2.7,4.8ZM680,377.5c-1.2,5.2,0,19.6,0,26s20.5,3.8,23.1,2.1,3.6-27.5-.7-30.4-21.2-2.7-22.3,2.3Z"/>
  <path class="st7" d="M437,284c9.1-.6,21.4-.7,28.7,1s5.7-1.3,7.7-1c17.1,2.2,43,14.5,57.6,26l2,1,1,1c.2.1-.2.8,0,1,.3.3.7.7,1,1s.7.6,1,1,.7.6,1,1,.7.6,1,1,.4,2.2,2,4,3.4,2.8,5,3c.3.7.6,1.4,1,2s1.2,2.5,2,4l7.7,18.8c0,1.8,2.8,10.8,2.3,11.2-3.7,3.2-25.8-6.9-30-10-2-2-2.4-2.6-4-5l-5.7-15.7c-1.5-1.5-1.9-3-4.3-3.3s-6.9-.2-9.7.8l-13.3,10.2c-2.8,1.5-4.3,4.1-6,5,.2-5.3-6.4,1.7-6.8,1.9-33.9,16.6-83.5,20.1-118.4,10.8-1.1-.3-5.4-2.5-5.7-3.3l9.9-24.4c9-12.4,15.6-18.3,27-28,2.3.4,3.4-1.2,5-2,6.6-3.3,13.3-6,20-9,8-2.3,12.6-3.5,21-4Z"/>
  <path class="st3" d="M535,612c2.9.4,6.2.5,9,1-2,25.7,2.6,55.3,0,80.5-.7,7-3.9,13.4-7,19.5-3.3.3-1.6-.6-.8-2.3,2.1-4.7,6.8-14.3,6.8-19.2v-77.5l-15-1v84c-.3-12.2,0-33.6-3-43.7-.5-1.6,1-5.2-1-5.3v42.5c0,3.1-3.8,3.3-4,3.5v-1c2.3-.7,2-2.6,2.1-4.4.3-5.4.5-41.2-1-43.2s-2.2-1-3.1-1.4c-1.8-.9-4-.9-5-1.5-2.9-1.9-.9-5.7-5-6.5.5-4.1-3.6-10.6-7.4-12.1s-27.6-1.7-30.1,0-8.3,8.1-9,9c-1.5,1.8-2,4.2-3.5,6-1.2.9-.7,2.9-1.5,3.1-5.9,1.5-6.1-5-6.7-5.8-1.9-2.3-6.4-6.5-8.7-8.3-.2-2.3-1.2-3.5-3.5-4s-25.9-.6-28.9,0-7.8,7.6-8.5,11c-2,2.3-4.3,6.9-6,8-3.8-.5-8.1.2-9,4.5s-.9,37.5,0,43,7.8,9.4,11.1,12.4c9.2,8.4,19.4,16,28.6,24.4s21.9,29.8,39.4,19.6c-2.4,2.8-7.9,4.9,0,6-5.6,3.7-11,8.1-16.7,11.8s-4.9,1.9-5.3,2.2c-1.1.9,4.9,2.5,3,4-19.8-12-41.2-27.8-60-42-2.4-5.2-7.4-8.5-11-13-5.7-8.2-8.3-17.5-9-27.5-1.8-24,1.4-50.3,0-74.6,3.2.7,5.3-.4,8-1,10.2-2.4,20-3.3,30-5.5s43.8-13.4,51.5-13.4,33.9,10.7,43.2,12.6c11.7,2.5,25.3,3.4,37.3,5.2Z"/>
  <path class="st7" d="M296,489c.8.3,1.4.8,2,1l4,2c.7.3,1.3.7,2,1,13.8,6.8,22.5,15.4,32,27-2.5,2.5,3.7,4.7,1.9,6.9s-11.3,4.5-13.3,6.2-1.4,2.6-1.6,2.9c-.7.3-2.7.3-4.3,1s-5.8,6-6.2,6h-161.5l4-10c1.4-2.2,3.3-3.8,3-7,.6-.7,1.3-1.3,2-2,5.1-5.2,12-9.9,16-16,4.6-1.6,3.8-2.1,7-4,13.6-8.2,32-19.2,48.4-17.9,9.5.8,16.4,3.6,27.1,2.9,18.5-1.2,16.6-7.5,37.5,0Z"/>
  <path class="st7" d="M719,498c2.1,1.2,4,2.7,6,4,11.4,7.5,22.2,17.7,28,30s4.6,10.4,4,11l-165-1c-.4-.3-.6-.7-1-1l-1-1c-.3-.2-1.6.3-2.2,0-1.6-1.1-11.5-7.8-11.7-8.5-.7-3.1,8.6-12.9,10.9-15.4,10.3-11,23.4-22.1,37.3-28.2s17.3-3.2,33.1-2.8c8.9.3,19.1-2.7,26.8-1.8s28.1,11,34.7,14.8Z"/>
  <path class="st7" d="M270,266l3.3,2.1,22.7,5.9c.5.2,4.8,3.3,6,4,9.6,5.9,16.3,12.2,22,22,6.8,11.8,7.2,18,9.2,29.3s5.3,6.2-3.2,4.3-9.9-4.5-12.9-7.6c-4.8-4.9-5.9-13.7-8.2-15.3-5.8-4.1-11.9.5-16.8,3.3l-29.7,9.9-3.3,2.1c-12.5,2.1-23.4,2.1-36,2l-39.6-9c-1.6-2.3,6.8-18,8.6-21s4.3-5.9,6-9c3.4-2.9,9.3-7.8,13-10,11.6-6.7,29.6-11.7,43-13,5.4-.5,10.5-.8,16,0Z"/>
  <path class="st7" d="M697,286c1.3.7,2.7,1.3,4,2,4.1,2.4,5.7,3.9,9,7,4.5,8.3,9.7,13.2,13.2,22.3,6.3,16.6,3.9,16.5-13.7,17.7s-47.3-.3-67.7-10.2c-6-2.9-6.7-7.8-15.1-5.6s-4,3.9-4.7,4.8c-8.1,8.6-13.6,13.9-24.5,16.9s-3.3,3.1-6.5,2.1c0-1.3,0-2.7,0-4l10-31c5.2-8.3,9.1-13.4,18-19,24.6-15.5,52.3-15.7,78-3Z"/>
  <path class="st6" d="M528,697v-84s15,1,15,1v77.5c0,4.9-4.7,14.5-6.8,19.2s-2.5,2.6.8,2.3c-.1.2,0,.7,0,1h-1c-13.1,16.8-28.5,28.4-46,40s-16.5,9.9-24.6,15-2.9.9-2.4,3c0,1.7-7.3,5.4-9.5,5.1s-6.8-5-8.5-6.1c1.9-1.5-4.1-3.1-3-4s3.8-1.3,5.3-2.2c5.7-3.7,11.1-8.1,16.7-11.8,15.3-10.1,33-19.7,47-31.5,7.7-6.4,17.2-13.8,17-24.5Z"/>
  <path class="st7" d="M597,458c3.2,4,6.5,6.6,11,9l2,4c-7.7,1.2-13.1,6.6-19,11s-4.5,2.7-6,4-1.3,1.4-2,2c-2.7,2.5-6.6,6.4-9,9-1.8.4-2.4-1.1-3-2.4-1.7-3.8,3-8.5,4.5-12.6s3.4-13.8,4.6-15.4c2-2.7,14.2-3.4,16.9-8.6Z"/>
  <path class="st3" d="M336,520c.5.6.8.4,2.3,2.6s2.6,1.3,2.6,1.9c.4,4.8-14.3,9.8-18,11.5-1.7,1.9-7.3,7.8-10,9h-164c.3-4.7,3.7-8.3,6-12l-4,10h161.5c.4,0,4.9-5.4,6.2-6s3.6-.7,4.3-1c.2-.3-.1-1.4,1.6-2.9s12.8-5.5,13.3-6.2c1.7-2.2-4.4-4.4-1.9-6.9Z"/>
  <path class="st1" d="M490,362c-6.1,3.1-11,6.8-18,9.5-37.7,14.5-85.9,15.4-124,2.5,0-1.6,1.3-.8,2.2-.8,6.5.1,18.8,3.5,26,4.8s.8,1.9,1.4,1.9c1.9.2,5.2-1.8,8.7-1,30.8,7.4,72.2-4.3,101.6-17.6s2.2-3.2,2.1.6Z"/>
  <path class="st3" d="M759,543c-.1.6.2,1.7,0,2h-165c-.1-.1,0-1.4-2-3l165,1c.6-.6-3.3-9.5-4-11,3.9,2.4,3.4,7.7,6,11Z"/>
  <path class="st1" d="M620,354c-2.9-2.7,3.6-3.4,4.9-4.6,2.4-2.1,3.9-7.2,8.6-7s13.8,6.2,17.3,7.3c19.6,6.1,38.3,6.2,56.9,4.3,6.2-.6,17-3,21.9-3s1.3.2,1.5,2c-25.1,6.4-55,7.2-80-.5-3.6-1.1-17.5-8.3-18.5-8.2s-9.3,8.1-12.5,9.7Z"/>
  <path class="st7" d="M314,463l14,2c0,5.9,3.2,11.7,4.3,17.2s1.1,1.2-1.3,2.7c-3-2.6-5-4.7-8.7-6.8s-17.3-5.2-14.3-10.2l.5,1c2.9-.8,2.6-2.5,3.5-4s.6-1.4,1-2h1Z"/>
  <path class="st3" d="M710,295c10.2,9.4,16.9,20.7,18,33.4s2,.5,2.1,1.1c.6,5.2-5.2,5.4-9,6.4-20,1.4-38.3,1.8-58-2-10-1.9-12-2.8-21-7-6.2-5.9-10.2-9.8-18-4s-1.1,1.1-2,1c.8-.8,1.6-4,4.7-4.8,8.4-2.2,9.1,2.7,15.1,5.6,20.4,9.8,45.2,11.8,67.7,10.2s20-1.1,13.7-17.7-8.7-14-13.2-22.3Z"/>
  <path class="st1" d="M497,358c0-3.1,7.4-5.6,9.3-5.1s3.7,6.5,5.2,8.1c8.5,9.6,25.4,18.6,38.1,20s6.5-2,9.8-.8,1.3,2.6,1.6,2.9,2.5,0,2.7,1.4c-.3,14.3.9,28.8.3,43.1-.9,19.3-5.3,48.6-19,60.5,3.3-7.7,7.5-14.2,10.3-22.2,9.3-27,4.7-54.7,5.7-82.8-18.6.5-39.4-6.5-51.5-21s-1.1-5.8-4.5-6.4-7.2,2.1-8,2.4Z"/>
  <path class="st3" d="M364,327l-9.9,24.4c.3.9,4.7,3.1,5.7,3.3,34.9,9.3,84.5,5.7,118.4-10.8.4-.2,7-7.3,6.8-1.9-.6.3-1.3.7-2,1-15,7.9-28.6,11.4-45,15-7.4,1.6-14.6,3.3-23,4-6.3-.9-13,.3-19.5,0s-11.9-1.5-17.5-2-3.4.2-5,0l-20-5c-.4-.3-.6-1.5-1-2l10-24c.7-1.1,1.7-1.6,2-2Z"/>
  <path class="st1" d="M297,335c-2.1,2.6-6.9,4.3-10,5.5-33.8,13.2-76.7,10.6-111,.5,2.7-4.7,2.9-.2,3.7,0,40,9.4,74.3,9.6,113.7-5s-1.7-1.8,3.7-1Z"/>
  <path class="st1" d="M386,512c32.1,20.5,61.9,28.8,100,18.5,14.7-4,21.7-11.1,34-16.5-.3,2-1.1,2.2-2.4,3.3-9.4,7.8-32.7,17.5-43.3,18.8-1.6.2-3.7-1.4-5.7-1.1-26.4,4.1-50.1-1.1-72.4-13.8-5.5-3.1-6.7-4.6-10.3-9.2-10-6.4-10.6-5.5-17-16,4.1,2.4,7.6,7.1,11,10.5s2.9,1.5,6,5.5Z"/>
  <path class="st3" d="M385,537c1.4.5,3.2,2.2,5,3,22.3,14.6,51.6,19.7,78,16,4.1-.2,10.1-.4,14-1,7.7-1.1,17.8-4.5,25-7.5s17.5-10.3,18.5-10.5c8-.9,34.8,10.5,42.5,15-2.8,2.7-4.9-1.7-6.3-2.3-3.8-1.6-11.7-4.8-15.1-5.9-5.6-1.8-18.2-5.9-23.4-4.2s-4.6,4.1-5.5,4.6c-40.2,20-82.5,19.3-123.5,1.4-2.2-1-8-6.6-11.8-6.7s-14.3,2.2-17.7,3.1c-6.5,1.8-12.6,5.9-19.8,6.9,1.2-2.3,4.5-3,7-4,6.6-2.6,27.2-10.1,33-8Z"/>
  <path class="st1" d="M200,447c25.4,20,56.2,24.3,86,11-1.5,2.1-4.3,3.8-6.6,4.9-13.6,6.1-36.6,5.8-49.1,2.5s-22.6-10.1-30.2-18.4Z"/>
  <path class="st1" d="M759,545c-.8,1.1-.9,1.2-2.4,1-19.2-3-156.3,4.1-162.6-1h165Z"/>
  <path class="st1" d="M158,526c.3,3.2-1.6,4.8-3,7-2.3,3.7-5.7,7.3-6,12h164c-1,.5-1.8,1.5-3.4,1.1h-159.1c-5.7-.1,3.8-17.6,5.4-19.4s2-.6,2.1-.6Z"/>
  <path class="st1" d="M364,691c.8,10.5,3.6,16.9,10,25,3.6,4.5,8.6,7.8,11,13-10.6-8-19.8-17.8-22.6-31.7s-.6-59.3-.4-78.8-.6-4.4,1-5.5l1,78Z"/>
  <path class="st1" d="M544,613c.7.1,2.1-.5,2,.6v76.9c-2.1,8.5-3.8,16.4-9,23.5,0-.3-.1-.8,0-1,3.1-6.1,6.3-12.5,7-19.5,2.7-25.2-1.9-54.8,0-80.5Z"/>
  <path class="st1" d="M364,613l1.6-1.8,45.8-7.2c11.9-.7,31.5-10.7,42-10.9s35.1,9.3,45.5,11.5,21.9,3.5,32.8,5.1c1.8.3,3.8-.3,3.2,2.3-12-1.8-25.5-2.7-37.3-5.2-9.3-2-36-12.6-43.2-12.6s-40.4,11-51.5,13.4-19.8,3.1-30,5.5c-2-2-6,.9-9,0Z"/>
  <path class="st3" d="M519,587c-3.4-.7-7.8-.8-11.8-1.7-12.9-2.9-41-12.9-51.7-13.3s-15.6,4-21.4,6-5.4,3.2-7,1c8.5-3.2,17.9-7.4,27.4-8.9l64.6,16.9Z"/>
  <path class="st1" d="M299,335c4.7,1.6,2,2.9,3.9,5.6s7.4,3.2,8.1,7.9l16.3,7.4.8,1.6c-3.6,9.7.2,28.4-2.1,36.8s-10.6,6.9-12.3,8.7c-10.2,10.8-2.7,28.6-6.2,40.1s-6,5.9-8.6,8.4-2.1,3-2-.4c13.9-12,6.6-13,8-29.5s6.1-21.5,19.8-28.2c-.4-10.6.7-21.2,1.2-31.8.3-7.9-.4-4.4-6-7-8.7-4.1-19.3-8.8-21-19.5Z"/>
  <path class="st1" d="M391,299c31.1-26.5,82.7-22.6,118.2-5.7,1.8.8,7,2.5,6.8,4.7-20.4-12.2-52-19.6-75.5-16-1.9.3-4.1-1.3-3.5,2-8.4.5-13,1.7-21,4s-2.8-.1-4.9.6c-4.6,1.5-11.4,5.2-15.1,8.4-1.6.8-2.7,2.4-5,2Z"/>
  <path class="st1" d="M302,591c-2.4-.5-2.1,1.2-2.8,2.6-6.7,12.5-11.2,26-11.2,40.4h54v-32c1.4-5.2,2.3-4,5-6-5.6,3.8-1,40-5,40h-54.5c-3.3,0,.3-16,.8-18.2,2.6-10.5,8.4-23,14.7-31.8-.1,1.7-.5,3.4-1,5Z"/>
  <path class="st1" d="M732,389c.5-10.4-1.5-25,0-34.5.3-1.8-.4-1.6,2-1.5v48c0,.1-1.8-.4-2,.7-2.8,14.2-3,18.4-12,29.3,6.6-10.5,9.4-19.7,11-32,.3-2.3.8-4.1,1-7s0-2,0-3Z"/>
  <path class="st3" d="M564,597c0,0,.4-1,.8-.8.5.3,3.2,4.6,3.2,5.3v31.5h50c0-5-.4-10.1-1-15,1.2,1.6,2.8,6.3,3,8,.3,2.5-.2,5.4,0,8-13-2.2-42.1,3.3-53-1-.8-10.9,2-22.6-2-33s-.4-2.1-1-3Z"/>
  <path class="st1" d="M519,587c.9.2,1.9.8,3,1,.4,3.2-1,1.7-2.8,1.4-3-.5-6.2-1.2-9.2-1.8-14-3.1-44-13.8-55.6-14.5s-14.2,6-20.4,5c5.9-2,15.4-6.3,21.4-6,10.8.4,38.8,10.5,51.7,13.3s8.4.9,11.8,1.7Z"/>
  <path class="st1" d="M302,278c-1.2-.7-5.5-3.8-6-4-7.5-3.6-17.8-6.8-26-8s-10.6-.5-16,0c-10.1-1.5-22,2.4-31.4,6.1s-8,5-11.6,6.9-3.1.1-1.5-1c22.8-15.1,50.8-18.7,76.7-9.7,4.6,1.6,13.6,5.1,15.8,9.7Z"/>
  <path class="st3" d="M669,483c4.7-.1,9.7-2.3,14.2-1.8s24.4,9.2,29.8,11.8,6.6,3.1,6,5c-6.6-3.8-27.9-13.9-34.7-14.8s-17.9,2-26.8,1.8c-15.8-.4-16-4.7-33.1,2.8s-27,17.1-37.3,28.2c-.4-2.3.8-3.1,2-4.5,4.5-5.6,16.6-14.6,23-18.5s21.8-11.3,26-12c6.8-1.1,21.9,2.2,31,2Z"/>
  <path class="st1" d="M304,493c-.7-.3-1.3-.7-2-1-1.1-.5-1.8-1.1-4-2s-1.2-.7-2-1c-12.8-10.1-22.3-3-35.5-2s-24.7-3.6-35-3-31.2,11.5-40.5,17l3.8-3.9c7.9-4.4,30.4-15,38.7-14.9,9.1.1,19.1,4.4,30,3.8,19.6-1,18-8.7,39.8,1.1s9,3.7,6.6,5.9Z"/>
  <path class="st3" d="M422,581c-11.9.8-32.2,7.3-45,10s-1.9.8-3,1c-4.7-.8-10.3.3-15,1l63-12Z"/>
  <path class="st1" d="M589,365v29.3c9.7,3.9,13.4,12.5,14.7,22.5,1,8-1.8,13.3,3.9,20.1,20.9,25.1,56,30.5,85.4,17.1l-9.8,5.7c-24,8.1-63.9-.5-77.5-23-7-11.7-.4-23.5-9.2-34.7-1.9-2.4-7.6-5.6-7.9-6.2-1.3-2.8-1.1-29.5.3-30.8Z"/>
  <path class="st1" d="M620,287c-.5-1.3,5.1-4.5,5.8-4.9,22.2-11.1,52.1-11.6,73.2,2.3,1.7,1.1,2.5.5,1.9,3.5-1.3-.7-2.7-1.3-4-2-3.2-4.2-11.4-6.6-16.6-7.9-20.6-5.4-42.4-2.7-60.4,8.9Z"/>
  <path class="st1" d="M290,316c-26.2,14.3-46.2,14.4-75.6,13s-4,1-3.4-2c4,.3,7.5,1,12,1,12.6.1,23.5,0,36-2s20.9-5,31-10Z"/>
  <path class="st7" d="M566,506c-2.7,3-3.4,7.8-4.2,8.9s-2.1-.2-2.5.4c-1.9,2.6-2.9,9.1-7.3,6.3s4.8-8.7,6-10.3,1.4-3.2,2-4.2c3,1.4,3.4-4.4,6-1Z"/>
  <path class="st3" d="M192,298c-1.8,3-10.2,18.7-8.6,21l39.6,9c-4.5,0-8-.7-12-1s-2.7.1-4,0l-26-6v-1l2.1-8.2,8.9-13.8Z"/>
  <path class="st1" d="M468,556c-26.4,3.7-55.7-1.4-78-16,27.8,12.2,46.9,17.5,78,16Z"/>
  <path class="st3" d="M597,458c-2.7,5.2-14.9,5.9-16.9,8.6s-3.3,12.1-4.6,15.4-6.3,8.8-4.5,12.6,1.2,2.8,3,2.4c-.2.2.2.8,0,1l-3,4c-1.3,1.6-3.8,2.7-5,4-2.6-3.4-3,2.4-6,1,.4-.6,2.7-4.4,4-7,6.5-8.9,10.6-19.4,13.6-30s.1-5,2.4-8c2.3-.3,4.7.4,7.2-.3s8.3-5.5,9.3-5.7.2,1.6.5,2ZM566,504v-2h-1v2h1Z"/>
  <path class="st3" d="M327,302l9,25c1.2,12.4-2.6,12.2-13,6.3-1.2-.7-8.3-5.4-6-7.3,3,3.1,8.2,6.5,12.9,7.6,8.6,2,3.8-1,3.2-4.3-2-11.3-2.3-17.5-9.2-29.3.9.7,2.3,1.3,3,2Z"/>
  <path class="st6" d="M364,691l-1-78h1c1.5,25.3-2,52.9,0,78Z"/>
  <path class="st3" d="M548,330c2.7,4.9,14.6,27.7,11,32s-14.6-2.3-17-3c-8.2-2.3-8.7-3.7-14-9,4.2,3.1,26.3,13.2,30,10s-2.4-9.4-2.3-11.2l-7.7-18.8Z"/>
  <path class="st3" d="M562,596c-10.1-2.7-21.5-3.8-32-6,1-1.6,3.8-1.2,5.5-1,6.2.6,16.9,1.9,22.8,3.3s6.1,1,3.8,3.7Z"/>
  <path class="st1" d="M422,581c.7,0,1.3,0,2,0-8.8,3.8-19.4,5.7-28.8,7.7-5.6,1.2-12.6,3.3-18.2,2.3,12.8-2.7,33.1-9.2,45-10Z"/>
  <path class="st1" d="M721,336c-1.9.5-7,2-8.5,2h-36c-2.8,0-11.8-1.5-13.5-4,19.7,3.8,38,3.4,58,2Z"/>
  <path class="st1" d="M608,467c.9.5,3.5.5,3.8,1.1,3.2,5.4-4.6,5.9-7.7,7.5s-6.7,4.5-10,6.2-.7,2.3-3.2.2c5.9-4.5,11.3-9.8,19-11l-2-4Z"/>
  <path class="st3" d="M329,464c.5,1.7.6,3.5,1,5,2.1,7.6,4.2,15,8,22-4.1-1.5-4.5-3.9-7-6,2.4-1.5,1.8-.6,1.3-2.7-1.2-5.5-4.3-11.3-4.3-17.2l-14-2c3-4.1,10.4,3,15,1Z"/>
  <path class="st1" d="M567,633c-.5-.2-1.8.6-2-.6v-32.4c4.1,10.4,1.2,22.1,2,33Z"/>
  <path class="st1" d="M618,355c-3.1,3.2-9.9,6-14.2,7.3s-10.3,1.1-13.8,2.7c1-4.3,9.1-3.7,13.4-5.1s11-3.4,14.6-4.9Z"/>
  <path class="st1" d="M176,390c0,1.3,0,2.7,0,4-3,.6-1.9-1.5-2-3.5-.6-16.3.5-32.7,0-49,1.4-1.6,1,1.1,1,2,.4,14.4-.5,28.8,0,43.1s1.1,3.2,1.1,3.4Z"/>
  <path class="st3" d="M601,308l-10,31c0-6.8,2.3-12.4,3-19,1.7-4.3,4.6-8.1,7-12Z"/>
  <path class="st1" d="M759,543c-2.6-3.3-2.1-8.6-6-11-5.8-12.3-16.6-22.5-28-30-.2-3.2.5-2.2,2.5-1,9,5.4,20.6,18.1,25.9,27.1,1.9,3.3,6.3,11.7,5.6,14.9Z"/>
  <path class="st1" d="M176,508c-4,6.1-10.9,10.8-16,16,.6-3.8,10.7-14.5,13.5-16.1s2.4.2,2.5.1Z"/>
  <path class="st1" d="M415,362c-11.2.9-21,1.3-32.5,0s-3.7.3-4.5-2c5.5.6,12,1.8,17.5,2s13.3-.9,19.5,0Z"/>
  <path class="st1" d="M514,326c.2,1,.4,2.1,1,3-7.6-3.2-17.1,4.2-24,8l13.3-10.2c2.8-1,6.8-1.1,9.7-.8Z"/>
  <path class="st3" d="M514,326c2.4.3,2.8,1.8,4.3,3.3l5.7,15.7c-3.6-5.7-5.4-10.8-9-16s-.8-2-1-3Z"/>
  <path class="st1" d="M374,592c-7.1,1.5-14,2.6-21.2,3.3-1.8.2-3.2,2.1-2.8-1.3,3.9-1.2,5.7-.5,9-1,4.7-.7,10.3-1.8,15-1Z"/>
  <path class="st1" d="M385,537c-5.8-2.1-26.4,5.4-33,8,6-4.1,14.7-7.3,21.8-8.7s9.2-3.1,11.2.7Z"/>
  <path class="st1" d="M546,326l7.2,9.3c2.3,4.4,9,22,7.9,26s-13.5.8-16.1.1-3.5.1-3-2.5c2.4.7,16.4,3.7,17,3,3.6-4.3-8.3-27.1-11-32s-1.9-3.8-2-4Z"/>
  <path class="st1" d="M620,626c-.2-1.7-1.8-6.4-3-8,0-.3,0-.7,0-1-1.3-8.2-4.1-14.4-7-22,4.4,3.8,11.2,24.6,10,31Z"/>
  <path class="st1" d="M207,327c-.1,0-.7.9-1.5.8-3.5-.4-23.3-4.7-24.5-6.8l26,6Z"/>
  <path class="st1" d="M198,289c-1.7,3.1-4.1,5.9-6,9l-8.9,13.8-2.1,8.2c-1.5-1.1-1.3-4.7-.9-6.3,1.4-5.8,13.7-21,17.9-24.7Z"/>
  <path class="st1" d="M591,339c0,1.3,0,2.7,0,4-1.7-.5-2.1,1.3-2-2.4.2-6.8,2.5-14.4,5-20.6-.7,6.6-3,12.2-3,19Z"/>
  <path class="st1" d="M574,556c-1.4-.9-4.9-3.3-6-4-7.7-4.5-34.5-15.9-42.5-15s-14.9,8.9-18.5,10.5c-7.2,3.1-17.3,6.4-25,7.5-.6-2.9,1.4-1.8,3.2-2.3,8.5-2.2,16.4-3.9,24.5-7.5s14-9.1,16.8-9.3c5.4-.4,23.4,6.5,29.2,8.9,5.5,2.4,15.2,6.4,18.3,11.2Z"/>
  <path class="st1" d="M352,353c-.2-.2-2.9,1-2-2.5s1.6-.5,1.9-1.3c3.4-8.7,4.8-12.4,10.1-20.2l-10,24Z"/>
  <path class="st1" d="M638,481c-4.2.7-21.6,9.4-26,12,7.4-6.4,16.1-11,26-12Z"/>
  <path class="st1" d="M373,360c-6.7-.8-14.3-.9-20-5l20,5Z"/>
  <path class="st1" d="M713,493c-5.4-2.6-24.9-11.3-29.8-11.8s-9.5,1.7-14.2,1.8c-.6-3.2,1.6-1.7,3.5-2,14.9-2.3,27.9,4.7,40.5,12Z"/>
  <path class="st1" d="M330,469c2.7-.6,2,1.4,2.5,3,1.7,5.7,5.2,12.9,6.3,17.7s1.7,2.2-.8,1.3c-3.8-7-5.9-14.4-8-22Z"/>
  <path class="st1" d="M313,463c.6-1-.3-2.8,2.4-3l13.6,2c.2.6-.1,1.5,0,2-4.6,2-12-5.1-15-1h-1Z"/>
  <path class="st1" d="M336,327l-9-25c5.4,5.5,8.3,17.5,9,25Z"/>
  <path class="st1" d="M483,343c-11.8,7.2-26.3,13.3-40,15.6s-4.1,1.3-5-.6c16.4-3.6,30-7.1,45-15Z"/>
  <path class="st1" d="M642,327c-6.5-3-9.4-7.6-18-4,7.8-5.8,11.8-1.9,18,4Z"/>
  <path class="st1" d="M545,324c-1.6-.2-4-1.9-5-3l-1-4c3.3,1.8,4.4,4,6,7Z"/>
  <path class="st3" d="M610,595c2.9,7.6,5.7,13.8,7,22-4-7.2-5.7-15.5-9-23,.6.4,1.5.6,2,1Z"/>
  <path class="st1" d="M580,462c-2.3,3.1-1.6,4.9-2.4,8-3,10.6-7,21-13.6,30,3-5.7,6.1-12,8.5-18s4.3-17.7,5.4-19.4,1.2-.5,2.1-.6Z"/>
  <path class="st3" d="M490,754c-6.1,6.3-14.1,9.4-21.2,14s-2,4.8-5.8,4c-.5-2.1,1.2-2.2,2.4-3,8-5.1,16.7-9.8,24.6-15Z"/>
  <path class="st3" d="M292,314c-.3.2-.8,1.3-2,2-10.1,5-19.9,8.2-31,10l3.3-2.1,29.7-9.9Z"/>
  <path class="st1" d="M176,400c-.4,4.7-1,3.9-1.1-.6s-.2-3,1.1-3.4c0,1.3,0,2.7,0,4Z"/>
  <path class="st1" d="M520,301c.5-1.3,4.8,1.7,5.2,2,1.7,1.3,4.4,4.2,5.8,6-4.1-2.1-7.3-5.5-11-8Z"/>
  <path class="st1" d="M754,497c-1.3.1-5-1.8-3-3l3,3Z"/>
  <path class="st3" d="M516,298c.8.5,2.7,2.1,4,3,3.7,2.5,6.9,5.9,11,8v1c-14.6-11.5-40.5-23.9-57.6-26-1.9-.2-4.7,1.7-7.7,1-7.3-1.7-19.6-1.6-28.7-1-.6-3.2,1.6-1.7,3.5-2,23.6-3.6,55.1,3.8,75.5,16Z"/>
  <path class="st3" d="M344,549c.6,2.7-1.5,1.7-2,2-4.3.1-1-1.8,2-2Z"/>
  <path class="st3" d="M308,468c.2-.3.7-.6,1-1,.4-.5,1.7-.9,2-2h1c-.9,1.5-.6,3.2-3.5,4l-.5-1Z"/>
  <path class="st3" d="M296,489c-20.8-7.4-19-1.2-37.5,0s-17.6-2.1-27.1-2.9c-16.4-1.4-34.8,9.6-48.4,17.9-2-2.6-.4-1.6,2-3,9.4-5.6,30-16.5,40.5-17s22.1,4.1,35,3,22.6-8.2,35.5,2Z"/>
  <path class="st3" d="M540,321c-1.6-1.8-1.6-3.5-2-4h1l1,4Z"/>
  <path class="st3" d="M697,286c-25.7-12.7-53.4-12.5-78,3,0-1,.2-1.5,1-2,18-11.6,39.8-14.4,60.4-8.9,5.1,1.4,13.4,3.7,16.6,7.9Z"/>
  <path class="st1" d="M522,512c3,2.2,0,1.7-1,2,0-.9.5-1.4,1-2Z"/>
  <path class="st1" d="M178,278l2-2c-1.1,1.5.9,1.5-2,2Z"/>
  <path class="st1" d="M535,313c2.1-.2,2.2-.1,2,2h-1c-.3-.4-.7-.6-1-1v-1Z"/>
  <polygon class="st1" points="585 487 586 488 584 488 585 487"/>
  <path class="st1" d="M571,502l3-4c-.5.6-1.8,2.5-3,4Z"/>
  <path class="st1" d="M309,467l-1-1,3-1c-.3,1.1-1.6,1.5-2,2Z"/>
  <path class="st1" d="M287,458l1-1c-.2,0-.4.9-1,1Z"/>
  <path class="st3" d="M591,541c-.4-.3-.6-.7-1-1l1,1Z"/>
  <path class="st3" d="M536,714h1c-.5.7-1,0-1,0Z"/>
  <path class="st1" d="M534,312l-1-1c.4.2.7.7,1,1Z"/>
  <path class="st3" d="M535,314c-.3-.3-.7-.7-1-1h1v1Z"/>
  <path class="st3" d="M537,316c-.3-.4-.7-.6-1-1h1v1Z"/>
  <path class="st3" d="M585,487l-1,1h-1c.7-.6,1.2-1.3,2-2v1Z"/>
  <path class="st4" d="M415,182c-1.8-2.7-4.9-4.9-2.1-8.6l25.9-1.6c1.9-1.2,6.6-24.7,8.9-28.6s9.4-3.8,11.7-1.3c2.4,2.5,6.7,27.8,9.5,29.5s23.2,0,27.5,1.4.3,3.9.6,5c-.3.4-.7.6-1,1l-1,1c-.3.3-.7.7-1,1-3.3,2.5-16.8,11.8-17.9,14.7-1.8,5.2,5.8,19.1,3.9,25.3-.3.3-.8,1-1,1l-25.6-14-25.4,16c-2.5-12,12-28.7-4-34-1-1-2-2-3-3-1.5-1.5-3.2-2.8-5-4-.3-.3-.8-.7-1-1Z"/>
  <path class="st1" d="M497,178c-.3-1.1.7-4.6-.6-5-4.2-1.4-23.7.9-27.5-1.4s-7.1-27-9.5-29.5c-2.4-2.5-9.4-2.6-11.7,1.3s-7,27.4-8.9,28.6l-25.9,1.6c-2.8,3.7.2,5.8,2.1,8.6-17.8-15.9,18.7-9,22.1-11.4s7.2-29.2,12-31c18.3-7,14.3,24.8,21,29.9s27-2.3,28.9,5.2-1.3,2.5-1.9,3.3Z"/>
  <path class="st1" d="M424,190c16.1,5.3,1.5,22,4,34l25.4-16,25.6,14c-5.4,1.2-8.7-4-13.3-6.3s-10.4-5.8-15.5-4-14.1,10.3-19,12.3-4.5.9-5.1,0c-2.1-3.7,4.5-20.7,4-26.4s-3.9-3.6-5.8-5.8-.1-1.6-.3-1.7Z"/>
  <path class="st1" d="M494,181c-2.4,2.5-16.5,14.5-16.7,15.6-.8,4,6.3,21.9,4.6,24.3s-1.7,0-1.9,0c1.9-6.2-5.7-20.1-3.9-25.3,1-2.9,14.5-12.2,17.9-14.7Z"/>
  <path class="st1" d="M421,187c-2.7,0-3.5-2.4-5-4,1.8,1.2,3.5,2.5,5,4Z"/>
  <path class="st1" d="M495,180l1-1c-.3.4-.7.7-1,1Z"/>
  <path class="st4" d="M739,157l2,1c0,10.7,0,21.3,0,32-2.8,0-32,1.6-32,0v-33h30Z"/>
  <path class="st0" d="M738,192v32.5l-1.5,1.5h-25.5l-1-34c9.4,1.3,18.5,0,28,0Z"/>
  <polygon class="st0" points="707 160 707 189 677 188 677 160 707 160"/>
  <path class="st0" d="M707,191c-3-1-22.9,0-28,0,8.7-1.7,19.4-1.7,28,0Z"/>
  <path class="st3" d="M724,229c-4.3.2-8.7-.1-13,0,3.3-1.7,9.8-1.7,13,0Z"/>
  <path class="st3" d="M736,229c-.7.1-1.8-.1-2-1,.8,0,1.7,0,2,1Z"/>
  <path class="st3" d="M726,229c.1-.4.6-.9,1-1-.2.4-.6.9-1,1Z"/>
  <rect class="st0" x="742" y="159" width="32" height="30"/>
  <path class="st0" d="M518,158c-7.8-1.4-33.7,2.3-39-1l39,1Z"/>
  <path class="st1" d="M394.7,405.2c4.9-.9,22.3-1.1,24.5,4s1.3,33.1-.4,36c-2.5,4.2-27.6,3.7-29.3.7s-1.4-7.6-1.5-9.5c-.4-4.6,0-27.2,2.5-29.6s3.1-1.5,4.3-1.7ZM418,409c-1.3.5-2.9-1-3.5-1h-22.5c-.4,2-1.9,37,0,37h23.5c.4,0,2.5-3.9,2.5-4.5v-31.5Z"/>
  <path class="st1" d="M517,446v-37c-5.5-3.1-7.9-1.1-13.4-1s-9.9-1.2-10.4-.9c-3.9,2.2-4.1,32.1-2.8,36.6,1.4,4.8,22,3.3,26.7,2.3-2.8,3.1-25.4,2.9-27.1.3s-1.4-37.3,0-38.9c3.4-3.7,24.5-3.3,27.5.5s2.5,34.7-.5,38Z"/>
  <path class="st3" d="M302,591c-1.8,5.7-5.1,9.7-6.9,14.6-3.3,8.8-5,18.2-6.1,27.4h52v-31.5s1,.5,1,.5v32h-54c0-14.4,4.4-27.9,11.2-40.4s.4-3.1,2.8-2.6Z"/>
  <path class="st1" d="M230,398.5c-1,6.5-5.6,6.6-11.5,6.6s-11-1.2-11.5-1.5c-2.8-1.7-2.7-27.8-1-30.8s24-2.8,24,.7c0,7.2,1,18.4,0,25ZM208,374.5v26l1.5,1.5h17c2.2,0,3.7-25.1,1.6-28.3s-19-2.7-20.1.8Z"/>
  <path class="st1" d="M280.5,371h20l1.5,1.5v28c0,6.2-24,5-24,1v-28c0-.3,2.1-1.8,2.5-2.5ZM298.9,372.1c-.7-.6-17.6,0-18.7,1.1-1.9,2.2-2.2,28,1,29.6l18.3-.8c.2-5.6,3.5-26.6-.7-30Z"/>
  <path class="st1" d="M616,403v-25c.5-1.9-.2-3.9,2.7-4.8s17.7-.5,19.3.3c5,2.4,2.8,30.9,1.1,32.1s-18.7.9-20.6.4c-2.8-.6-1.8-1.4-2.5-3ZM617,404h18.5c.4,0,1.7,1.5,2.5,1,1.5-1-1-23.6,0-27.5-.8-5.7-16-3.9-19.9-1.3l-1.2,27.8Z"/>
  <path class="st1" d="M680,377.5c1.1-5.1,19.1-4.5,22.3-2.3s2.5,29.2.7,30.4c-2.6,1.8-23.1,1.2-23.1-2.1,0-6.4-1.2-20.8,0-26ZM685.5,404c3.1.7,11.2,0,15,0s1.9-1.7,2.1-2.5c.6-3.3-.8-14.3-.6-19.1s1.3-5.3,1.1-5.4c-.6-.5-13.6-2.3-15.6-2.1-8.7.8-5,5.5-5.3,10.6s-3.1,17,3.4,18.5Z"/>
  <path class="st3" d="M616,403c-2-4.6-1.4-20.1,0-25v25Z"/>
  <path class="st0" d="M731,399l1-7c-.2,2.9-.7,4.7-1,7Z"/>
  <path class="st3" d="M416,288c-6.7,3-13.4,5.7-20,9,3.7-3.2,10.5-6.9,15.1-8.4s3.8-.3,4.9-.6Z"/>
  <path class="st0" d="M441,628c2.4,1.8,6.8,6,8.7,8.3s.9,7.3,6.7,5.8.4-2.2,1.5-3.1,2.1.3,3.5-1,5.9-9,7.5-10.5c2.3-2.2,27.2-2.1,31.2-1.2s7.9,7.5,6.8,10.7c.7.3.9-1,1-1,4.2.8,2.1,4.6,5,6.5s3.2.7,5,1.5c2.4,1.3,2.7,2.9,3,5.5,1.4,13.1-.2,30.4-1,43.5v1c-16.9,14.3-41.7,36.7-56,53-17.5,10.1-28.5-9.8-39.4-19.6s-19.5-16-28.6-24.4c1.1-4.5-7.1-8-8.9-11.6s-1.8-37.3-.8-42.6,3.6-3,7.7-5.7,4-5.7,6-8,1.9-.2,3-1.5c2.5-2.8,2.4-7.6,7.5-8.5s23.7-.7,26.9,0,2.3,2.1,3.5,3ZM434,712l-1,1c.6.2,1.7-.2,2,0,1.9,1.1,1.9,2,3,3s1.3,1.3,2,2,1.3,1.3,2,2c2.3,2.7,4.5,6.8,8,8,8.6,3,10.7-3.7,16-9,4.4-1.2,7.1-6,10-9s2.7-2.6,4-4c4.5-2.4,7.6-6.5,11-10s12.6-12.6,13-14.5c.9-4.3.7-27.2,0-32s-.6-4.2-2-5-23.1-.9-25.3-.3c-4,1.2-18.8,20.8-22.2,20.8l-20.5-20.6c-5.8,0-26.4-2.6-29.1,2s-1.5,34.2,0,38.1l29.1,27.4Z"/>
  <path class="st7" d="M520,694c.2-.2,4-.4,4-3.5v-42.5c2.1.1.5,3.7,1,5.3,3.1,10.1,2.7,31.5,3,43.7s-9.3,18.1-17,24.5c-14,11.8-31.7,21.4-47,31.5-7.9-1.1-2.4-3.2,0-6,14.3-16.3,39.1-38.7,56-53Z"/>
  <path class="st1" d="M508,636c0,0-.3,1.3-1,1,1.2-3.2-3.8-10.1-6.8-10.7s-28.9-.9-31.2,1.2-5.9,9-7.5,10.5-3.2.8-3.5,1c1.5-1.8,2-4.2,3.5-6s8.4-8.7,9-9c2.5-1.7,26.5-1.4,30.1,0s7.9,8,7.4,12.1Z"/>
  <path class="st2" d="M373,613c-2.7.6-4.8,1.7-8,1,1.4,24.3-1.8,50.5,0,74.6s3.4,19.2,9,27.5c-6.4-8.1-9.2-14.5-10-25-2-25.1,1.5-52.7,0-78,3,.9,7-2,9,0Z"/>
  <path class="st1" d="M394,643c-4.1,2.7-6.6-.8-7.7,5.7s-.9,39,.8,42.6,10,7.2,8.9,11.6c-3.3-3-10.4-8.2-11.1-12.4s-.9-38,0-43,5.2-5.1,9-4.5Z"/>
  <path class="st1" d="M441,628c-1.2-.9-1.2-2.5-3.5-3s-23.4-.5-26.9,0c-5.2.9-5,5.7-7.5,8.5s-2.9,1.3-3,1.5c.7-3.3,5.4-10.3,8.5-11s25.9-.6,28.9,0,3.3,1.7,3.5,4Z"/>
  <path class="st1" d="M520,693c.8-13.1,2.4-30.4,1-43.5s-.6-4.2-3-5.5c.9.4,2.2.2,3.1,1.4,1.5,2,1.3,37.8,1,43.2s.2,3.7-2.1,4.4Z"/>
  <path class="st3" d="M302,492l-4-2c2.2.9,2.9,1.5,4,2Z"/>
  <path class="st3" d="M254,266c-13.4,1.3-31.4,6.3-43,13,3.7-1.9,7.2-5.1,11.6-6.9,9.4-3.8,21.2-7.7,31.4-6.1Z"/>
  <path class="st3" d="M296,274l-22.7-5.9-3.3-2.1c8.2,1.2,18.5,4.4,26,8Z"/>
  <rect class="st7" x="565" y="502" width="1" height="2"/>
  <path class="st0" d="M418,409v31.5c0,.6-2.1,4.5-2.5,4.5h-23.5c-1.9,0-.4-35,0-37h22.5c.6,0,2.2,1.5,3.5,1Z"/>
  <path class="st0" d="M517,446c-4.7,1.1-25.3,2.5-26.7-2.3-1.3-4.5-1-34.5,2.8-36.6s7.9,1,10.4.9c5.6-.1,7.9-2.2,13.5,1v37Z"/>
  <path class="st0" d="M208,374.5c1.1-3.5,18.3-3.5,20.1-.8s.6,28.3-1.6,28.3h-17l-1.5-1.5v-26Z"/>
  <path class="st0" d="M298.9,372.1c4.2,3.4.8,24.4.7,30l-18.3.8c-3.2-1.6-2.9-27.4-1-29.6s17.9-1.7,18.7-1.1Z"/>
  <path class="st0" d="M617,404l1.2-27.8c3.9-2.6,19.1-4.4,19.9,1.3-1,3.9,1.4,26.5,0,27.5s-2.1-1-2.5-1h-18.5Z"/>
  <path class="st0" d="M685.5,404c-6.5-1.5-3.7-13.8-3.4-18.5s-3.3-9.7,5.3-10.6,15,1.5,15.6,2.1-1,4-1.1,5.4c-.2,4.8,1.2,15.8.6,19.1s-1.8,2.5-2.1,2.5c-3.8,0-11.9.7-15,0Z"/>
  <path class="st5" d="M491,696c-4.1,2.8-7.5,6.5-11,10s-2.7,2.6-4,4c-3.3,2.9-6.9,5.9-10,9-5.3,5.3-7.4,12-16,9-1.9-3.3-5.3-5.4-8-8s-1.3-1.3-2-2l-2-2c-1.1-1-1.1-1.9-3-3l-1-1-29.1-27.4c-1.5-3.9-1.6-35.4,0-38.1,2.7-4.6,23.3-1.9,29.1-2l20.5,20.6c3.4,0,18.2-19.6,22.2-20.8,2.2-.6,23.9-.5,25.3.3s1.8,3.4,2,5c.6,4.8.8,27.7,0,32s-10.7,12.2-13,14.5Z"/>
  <path class="st1" d="M450,728c-3.5-1.2-5.7-5.3-8-8,2.7,2.6,6.1,4.7,8,8Z"/>
  <path class="st1" d="M466,719c3.1-3.1,6.7-6.1,10-9-2.9,3-5.6,7.8-10,9Z"/>
  <path class="st1" d="M435,713c-.3-.2-1.4.2-2,0l1-1,1,1Z"/>
  <path class="st1" d="M491,696c-3.4,3.5-6.5,7.6-11,10,3.5-3.5,6.9-7.2,11-10Z"/>
  <path class="st1" d="M440,718c-.7-.7-1.3-1.4-2-2l2,2Z"/>
</svg>