<svg xmlns="http://www.w3.org/2000/svg" width="96" height="97" fill="none"><g fill-rule="evenodd" clip-path="url(#a)" clip-rule="evenodd"><path fill="#fff" d="M71.622 38.865h-2.054v2.054h2.054zM28.487 14.216V40.92h39.027v-2.054h2.054v-2.054h2.054v-2.054h2.054v-2.054h2.054v-2.054h2.054v-6.162h-6.162v-2.054h-2.054v-8.217zM61.35 30.65v8.216h2.055v-8.216zm12.325 6.162h-2.054v2.054h2.054zm-16.433-6.162v8.216h2.054v-8.216zm-8.216 0v8.216h6.162v-8.216zm-12.324 0v8.216h6.162v-8.216zm8.216 0v8.216h2.054v-8.216zm-12.324 8.216h2.054v-8.216h-2.054zm8.216-2.054v-4.108h-2.054v4.108zm12.324 0v-4.108h-2.054v4.108zm22.595-2.054h-2.054v2.054h2.054zm2.054-2.054H75.73v2.054h2.054zM49.027 18.324v8.217h6.162v-8.217zm-4.108 0v8.217h2.054v-8.217zm-4.108 0v8.217h2.054v-8.217zm16.432 0v8.217h6.163v-8.217zm-20.54 6.163v-4.108h-2.054v4.108zm16.432 0v-4.108h-2.054v4.108zm8.216 0v-4.108h-2.054v4.108zm14.379-6.163V16.27h-2.054v4.108h4.108v-2.054zm-36.973 8.217v-8.217h-6.162v8.217z"/><path fill="#E68C4F" d="M65.46 8.054H22.323v34.919h2.054V10.108H65.46zm4.108 2.054h-2.055v2.054h2.054z"/><path fill="#D26218" d="M65.46 10.108H24.377v32.865h2.054v-30.81H65.46zm6.161 0h-2.054v2.054h2.054zm-2.054-2.054h-2.054v2.054h2.054z"/><path fill="#E0D9D0" d="M28.487 42.973h51.35v-20.54h-8.215v2.054h6.162v6.162H75.73v2.054h-2.054v2.054h2.054v-2.054h2.054v2.054H75.73v2.054h-2.054v2.054h-2.054v2.054h-2.054v-2.054h-2.054v2.054H28.487zm43.135-6.162h-2.054v2.054h2.054zm2.054-2.054h-2.054v2.054h2.054zm-2.054-12.324v-8.217h-2.054v8.217zm8.216-4.109h-2.054v2.054h2.054zm-2.054-2.054H75.73v2.054h2.054zm-2.054-2.054h-2.054v2.054h2.054z"/><path fill="#EED3B1" d="M63.406 84.054h-2.054v2.054h2.054zm-4.109 0h-2.054v2.054h2.054zM61.352 82h-2.055v2.054h2.055zm4.108 0h-2.054v2.054h2.054zm2.054-2.054H65.46V82h2.054zm-4.108 0h-2.054V82h2.054zm2.054-2.054h-2.054v2.054h2.054zm4.108 0h-2.054v2.054h2.054zm2.054-2.054h-2.054v2.054h2.054zm-4.108 0H65.46v2.054h2.054zm6.162-2.054h-2.054v2.054h2.054zm-4.108 0h-2.054v2.054h2.054zm2.054-2.054h-2.054v2.054h2.054zm4.108 0h-2.054v2.054h2.054zm2.054-2.054H75.73v2.054h2.054zm-4.108 0h-2.054v2.054h2.054zm6.162-2.055h-2.054v2.055h2.054zm-4.108 0h-2.054v2.055h2.054zm2.054-2.054H75.73v2.055h2.054zm4.108 0h-2.054v2.055h2.054zm-2.054-2.054h-2.054v2.054h2.054zm2.054-2.054h-2.054v2.054h2.054zM20.27 38.865h-4.108v2.054h4.108zm10.27 26.702v-8.216h8.217v8.216zm49.298-6.162h2.054V45.027H12.054v41.081h4.108V69.676h2.054V67.62h2.054v-2.054h2.055v-10.27h2.053v-2.054h2.055V51.19h2.054v-2.054h10.27v2.054h2.054v2.054h2.054v2.054h2.054v2.054h2.054v10.27h2.054v2.055h2.054v2.054h2.054v14.378h2.054v-2.054h2.054V82h2.054v-2.054h2.055v-2.054h2.054v-2.054h2.054v-2.054h2.054V71.73h2.054v-2.054h2.054V67.62h2.054v-2.054h2.054v-2.054h2.054V61.46h2.054z"/><path fill="#DCA460" d="M16.162 86.108h-4.108v2.054h4.108zm34.92 2.054h32.864V45.027h-2.054v14.378h-2.054v2.054h-2.054v2.054h2.054V61.46h2.054v2.053h-2.054v2.055h-2.054v2.054h2.054v-2.054h2.054v2.054h-2.054v2.054h-2.054v2.054H75.73v2.054h-2.054v2.054h-2.054v2.054h-2.054v2.054h-2.054V82H65.46v2.054h-2.054v2.054h-2.054v-2.054h-2.055v2.054h-2.054v-2.054H55.19v2.054h-2.054V71.73h-2.054zM63.405 82h-2.054v2.054h2.054zm-4.109 0h-2.054v2.054h2.054zm6.163-2.054h-2.054V82h2.054zm-4.108 0h-2.055V82h2.055zm2.054-2.054h-2.054v2.054h2.054zm4.108 0H65.46v2.054h2.054zm2.054-2.054h-2.054v2.054h2.054zm-4.108 0h-2.054v2.054h2.054zm6.162-2.054h-2.054v2.054h2.054zm-4.108 0H65.46v2.054h2.054zm6.162-2.054h-2.054v2.054h2.054zm-4.108 0h-2.054v2.054h2.054zm2.054-2.054h-2.054v2.054h2.054zm4.108 0h-2.054v2.054h2.054zm2.054-2.054H75.73v2.054h2.054zm-4.108 0h-2.054v2.054h2.054zm2.054-2.054h-2.054v2.054h2.054zm-45.19 0V57.35h-2.053v8.217zm47.244-2.054H75.73v2.054h2.054zm-30.81 2.054V57.35h-2.055v8.217zm-10.271-10.27H30.54v2.053h6.162zM20.27 40.917h-6.162v2.055h6.162z"/><path fill="#CEDBF2" d="M18.216 69.676V92.27h2.054V69.676zm2.054 0h26.703v-2.054H20.27zm4.108-14.379v10.27h2.055v-10.27zm4.109-2.054h-2.054v2.054h2.054zm0 0h10.27V51.19h-10.27z"/><path fill="#64AAE8" d="M46.973 92.27H20.27V69.676h26.703zM30.54 73.784v2.054h-2.054V82h2.054v2.054h2.054v6.162h2.054v-6.162h2.054V82h2.055v-6.162h-2.054v-2.054zm-2.054-18.487h-2.054v2.054h2.054zm14.379 0H40.81v2.054h2.054zm-2.054-2.054h-4.108v2.054h4.108zm-10.27 0h-2.055v2.054h2.054z"/><path fill="#3979E2" d="M20.27 94.324h26.703V92.27H20.27zm28.757-2.054V69.676h-2.054V92.27zm-6.162-26.702V57.35H40.81v8.217zm-2.054-10.27h-2.054v2.053h2.054z"/><path fill="#000" d="M46.973 94.324H20.27v2.054h26.703zM20.27 92.27h-2.054v2.054h2.054zm28.757 0h-2.054v2.054h2.054zm-30.81 0V69.676h-2.055v18.486h-4.108v2.054h4.108v2.054zm32.864-4.108V69.676h-2.054V92.27h2.054v-2.054h32.865v-2.054zM36.703 73.784H30.54v2.054h-2.053V82h2.054v2.054h2.054v6.162h2.054v-6.162h2.054V82h2.054v-6.162h-2.054zM86 88.162V45.027h-2.054v43.135zm-73.946 0V45.027H10v43.135zm8.216-20.54h-2.054v2.054h2.054zm28.757 0h-2.054v2.054h2.054zm-24.649-2.054v-10.27h-2.054v10.27H20.27v2.054h26.703v-2.054h-2.054v-10.27h-2.054v10.27H40.81V57.35h-2.054v8.217h-10.27V57.35h-2.055v8.217zm6.163-10.27h-2.055v2.053h2.055zm8.216 0h-2.054v2.053h2.054zm-2.054-2.055H30.54v2.054h6.163zm6.162 0H40.81v2.054h2.054zm-16.433 0h-2.054v2.054h2.054zm14.379-2.054h-2.054v2.054h2.054zm-12.324 0h-2.055v2.054h2.055zm10.27-2.054h-10.27v2.054h10.27zM69.567 6H20.27v30.81h-4.108v2.055h-2.054v2.054h2.054v-2.054h4.108v4.108h-6.162v-2.054h-2.054v4.108h71.892v-2.054h-2.054V18.324h-2.054v2.054h-6.162v-6.162h2.054v-2.054h-2.054v-2.054h-2.054v2.054h-4.109V8.054h2.055zM22.325 8.054v34.919h4.108v-30.81H65.46V8.053zm6.162 6.162v28.757h51.352v-20.54h-8.216v-8.217zm34.92 24.649v-8.216H61.35v8.216zm-8.217 0h-6.162v-8.216h6.162zm-12.324 0h-6.162v-8.216h6.162zm16.432 0v-8.216h-2.054v8.216zm-12.324 0v-8.216h-2.054v8.216zm-12.324 0v-8.216h-2.054v8.216zm16.432-6.162v4.108h2.054v-4.108zm-12.324 0v4.108h2.054v-4.108zm8.216-6.163v-8.216h-2.054v8.217zm-4.108 0v-8.216H40.81v8.217zm20.54 0h-6.162v-8.216h6.162zm-8.216 0h-6.162v-8.216h6.162zm-16.432 0h-6.162v-8.216h6.162zm20.54-6.162v4.108h2.054v-4.108zm-24.648 0v4.108h2.054v-4.108zm16.432 0v4.108h2.054v-4.108zm28.757-4.108h-2.054v2.054h2.054zm-2.054-2.054H75.73v2.054h2.054zm-6.162-6.162h-2.054v2.054h2.054z"/></g><defs><clipPath id="a"><path fill="#fff" d="M10 6h76v90.378H10z"/></clipPath></defs></svg>