<?xml version="1.0" encoding="UTF-8"?>
<svg id="Layer_1" xmlns="http://www.w3.org/2000/svg" version="1.1" viewBox="0 0 576 576">
  <!-- Generator: Adobe Illustrator 29.7.1, SVG Export Plug-In . SVG Version: 2.1.1 Build 8)  -->
  <defs>
    <style>
      .st0 {
        fill: #01052b;
      }

      .st1 {
        fill: #1b3e8f;
      }

      .st2 {
        fill: #f1a745;
      }

      .st3 {
        fill: #000008;
      }

      .st4 {
        fill: #f1cc83;
      }

      .st5 {
        fill: #deaf79;
      }

      .st6 {
        fill: #805e43;
      }

      .st7 {
        fill: #01001e;
      }

      .st8 {
        fill: #a27e5c;
      }

      .st9 {
        fill: #ebb981;
      }

      .st10 {
        fill: #eb4c44;
      }

      .st11 {
        fill: #d3a472;
      }

      .st12 {
        fill: #fdf1b4;
      }

      .st13 {
        fill: #212853;
      }

      .st14 {
        fill: #12103a;
      }

      .st15 {
        fill: #0a0a33;
      }

      .st16 {
        fill: #00000c;
      }

      .st17 {
        fill: #eac77f;
      }

      .st18 {
        fill: #eb4844;
      }

      .st19 {
        fill: #efcc83;
      }

      .st20 {
        fill: #00003e;
      }

      .st21 {
        fill: #1b224d;
      }

      .st22 {
        fill: #11153c;
      }

      .st23 {
        fill: #0c0a31;
      }

      .st24 {
        fill: #13112e;
      }

      .st25 {
        fill: #d7a376;
      }

      .st26 {
        fill: #e19046;
      }

      .st27 {
        fill: #04083a;
      }

      .st28 {
        fill: #e6a04a;
      }

      .st29 {
        fill: #dad3a7;
      }

      .st30 {
        fill: #010745;
      }

      .st31 {
        fill: #2a2547;
      }

      .st32 {
        fill: #0c0a39;
      }

      .st33 {
        fill: #1a3d8c;
      }

      .st34 {
        fill: #eaa14a;
      }

      .st35 {
        fill: #00023c;
      }

      .st36 {
        fill: #efd0a1;
      }

      .st37 {
        fill: #7b6356;
      }

      .st38 {
        fill: #1e2550;
      }

      .st39 {
        fill: #9f7a54;
      }

      .st40 {
        fill: #010115;
      }

      .st41 {
        fill: #eeb54a;
      }

      .st42 {
        fill: #040a39;
      }

      .st43 {
        fill: #f26f4e;
      }

      .st44 {
        fill: #eb624d;
      }

      .st45 {
        fill: #e94945;
      }

      .st46 {
        fill: #463e50;
      }

      .st47 {
        fill: #a58058;
      }

      .st48 {
        fill: #161d48;
      }

      .st49 {
        fill: #22264e;
      }

      .st50 {
        fill: #141a43;
      }

      .st51 {
        fill: #272848;
      }

      .st52 {
        fill: #14193e;
      }

      .st53 {
        fill: #ebba80;
      }

      .st54 {
        fill: #000647;
      }

      .st55 {
        fill: #080b40;
      }

      .st56 {
        fill: #e6dfab;
      }

      .st57 {
        fill: #e15b4c;
      }

      .st58 {
        fill: #000124;
      }

      .st59 {
        fill: #fdefb1;
      }

      .st60 {
        fill: #1e244a;
      }

      .st61 {
        fill: #202047;
      }

      .st62 {
        fill: #001049;
      }

      .st63 {
        fill: #fdd54d;
      }

      .st64 {
        fill: #d8b593;
      }

      .st65 {
        fill: #000020;
      }

      .st66 {
        fill: #181348;
      }

      .st67 {
        fill: #e74844;
      }

      .st68 {
        fill: #fac34d;
      }

      .st69 {
        fill: #f6ce4e;
      }

      .st70 {
        fill: #000127;
      }

      .st71 {
        fill: #13153a;
      }

      .st72 {
        fill: #f36c50;
      }

      .st73 {
        fill: #e34a45;
      }

      .st74 {
        fill: #09083f;
      }

      .st75 {
        fill: #eeb763;
      }

      .st76 {
        fill: #001148;
      }

      .st77 {
        fill: #2a2a47;
      }

      .st78 {
        fill: #eee2af;
      }

      .st79 {
        fill: #e3c19a;
      }

      .st80 {
        fill: #000949;
      }

      .st81 {
        fill: #050c47;
      }

      .st82 {
        fill: #00012a;
      }

      .st83 {
        fill: #0b0938;
      }

      .st84 {
        fill: #010e48;
      }

      .st85 {
        fill: #f9c44c;
      }

      .st86 {
        fill: #f0d0a3;
      }

      .st87 {
        fill: #dea861;
      }

      .st88 {
        fill: #fde14f;
      }

      .st89 {
        fill: #efd0a3;
      }

      .st90 {
        fill: #cb3742;
      }

      .st91 {
        fill: #f2a644;
      }

      .st92 {
        fill: #090b3e;
      }

      .st93 {
        fill: #e79c44;
      }

      .st94 {
        fill: #061449;
      }

      .st95 {
        fill: #161c47;
      }

      .st96 {
        fill: #00104a;
      }

      .st97 {
        fill: #d2a472;
      }

      .st98 {
        fill: #21254e;
      }

      .st99 {
        fill: #000549;
      }

      .st100 {
        fill: #232955;
      }

      .st101 {
        fill: #6a2c48;
      }

      .st102 {
        fill: #151c47;
      }

      .st103 {
        fill: #fc7b4f;
      }

      .st104 {
        fill: #0b1239;
      }

      .st105 {
        fill: #0f0f3b;
      }

      .st106 {
        fill: #d04146;
      }

      .st107 {
        fill: #e7daa6;
      }

      .st108 {
        fill: #06154a;
      }

      .st109 {
        fill: #06144a;
      }

      .st110 {
        fill: #fdeb8a;
      }

      .st111 {
        fill: #161c48;
      }

      .st112 {
        fill: #00011a;
      }

      .st113 {
        fill: #f0ae4d;
      }

      .st114 {
        fill: #211f48;
      }

      .st115 {
        fill: #29264b;
      }

      .st116 {
        fill: #141941;
      }

      .st117 {
        fill: #0b0e3e;
      }

      .st118 {
        fill: #fd5444;
      }

      .st119 {
        fill: #222952;
      }

      .st120 {
        fill: #020f49;
      }

      .st121 {
        fill: #00002a;
      }

      .st122 {
        fill: #151c48;
      }

      .st123 {
        fill: #a27343;
      }

      .st124 {
        fill: #be8445;
      }

      .st125 {
        fill: #ecb982;
      }

      .st126 {
        fill: #d1a271;
      }

      .st127 {
        fill: #15193d;
      }

      .st128 {
        fill: #010a48;
      }

      .st129 {
        fill: #0c0b41;
      }

      .st130 {
        fill: #202651;
      }

      .st131 {
        fill: #20213e;
      }

      .st132 {
        fill: #fde68c;
      }

      .st133 {
        fill: #a37443;
      }

      .st134 {
        fill: #090925;
      }

      .st135 {
        fill: #fba63b;
      }

      .st136 {
        fill: #222853;
      }

      .st137 {
        fill: #fede4f;
      }

      .st138 {
        fill: #fddb88;
      }

      .st139 {
        fill: #fdc54b;
      }

      .st140 {
        fill: #e7c59b;
      }

      .st141 {
        fill: #05093b;
      }

      .st142 {
        fill: #f6b74f;
      }

      .st143 {
        fill: #8a6344;
      }

      .st144 {
        fill: #fddc84;
      }

      .st145 {
        fill: #f5ce82;
      }

      .st146 {
        fill: #222856;
      }

      .st147 {
        fill: #071449;
      }

      .st148 {
        fill: #02033d;
      }

      .st149 {
        fill: #212954;
      }

      .st150 {
        fill: #b1885e;
      }

      .st151 {
        fill: #1e2653;
      }

      .st152 {
        fill: #00002b;
      }

      .st153 {
        fill: #efcd81;
      }

      .st154 {
        fill: #fefefe;
      }

      .st155 {
        fill: #1d234a;
      }

      .st156 {
        fill: #1e2140;
      }

      .st157 {
        fill: #000137;
      }

      .st158 {
        fill: #000343;
      }

      .st159 {
        fill: #1f2552;
      }

      .st160 {
        fill: #fce351;
      }

      .st161 {
        fill: #d7b694;
      }

      .st162 {
        fill: #050d46;
      }

      .st163 {
        fill: #001;
      }

      .st164 {
        fill: #ca3a44;
      }

      .st165 {
        fill: #22264f;
      }

      .st166 {
        fill: #010a47;
      }

      .st167 {
        fill: #d44246;
      }

      .st168 {
        fill: #d44745;
      }

      .st169 {
        fill: #031248;
      }

      .st170 {
        fill: #d44346;
      }

      .st171 {
        fill: #de5c4d;
      }

      .st172 {
        fill: #edcc83;
      }

      .st173 {
        fill: #000f4a;
      }

      .st174 {
        fill: #e7c49b;
      }

      .st175 {
        fill: #000349;
      }

      .st176 {
        fill: #ea624d;
      }

      .st177 {
        fill: #000646;
      }

      .st178 {
        fill: #090a42;
      }

      .st179 {
        fill: #000042;
      }

      .st180 {
        fill: #846043;
      }

      .st181 {
        fill: #ea624e;
      }

      .st182 {
        fill: #deae79;
      }

      .st183 {
        fill: #e55a4b;
      }

      .st184 {
        fill: #fdf7ae;
      }

      .st185 {
        fill: #fdeb89;
      }

      .st186 {
        fill: #d7a475;
      }

      .st187 {
        fill: #ce9248;
      }

      .st188 {
        fill: #09113e;
      }

      .st189 {
        fill: #ebcf50;
      }

      .st190 {
        fill: #0e1030;
      }

      .st191 {
        fill: #020732;
      }

      .st192 {
        fill: #9f7a53;
      }

      .st193 {
        fill: #000132;
      }

      .st194 {
        fill: #05093a;
      }

      .st195 {
        fill: #fc7a4e;
      }

      .st196 {
        fill: #1e2651;
      }

      .st197 {
        fill: #0c0c43;
      }

      .st198 {
        fill: #171e48;
      }

      .st199 {
        fill: #d7a476;
      }

      .st200 {
        fill: #040a35;
      }

      .st201 {
        fill: #bb8245;
      }

      .st202 {
        fill: #d84945;
      }

      .st203 {
        fill: #ce9d60;
      }

      .st204 {
        fill: #060739;
      }

      .st205 {
        fill: #f26b50;
      }

      .st206 {
        fill: #fce6a6;
      }

      .st207 {
        fill: #21264f;
      }

      .st208 {
        fill: #161d47;
      }

      .st209 {
        fill: #fde650;
      }

      .st210 {
        fill: #00042f;
      }

      .st211 {
        fill: #09082d;
      }

      .st212 {
        fill: #010536;
      }

      .st213 {
        fill: #1f213d;
      }
    </style>
  </defs>
  <path class="st154" d="M576,0v576H0V0h576ZM66,71c0,.3,0,.7,0,1h-20c0,13,0,26,0,39-6.3,0-12.7,0-19,0v81c6.3,0,12.7,0,19,0,0,6.3,0,12.7,0,19,1.4.5,1.9-1,2-1,5.5-.8,11.2.9,16,1s.7,0,1,0c0,.3,0,.7,0,1,.2,51.5-.6,103,0,154.5,0,1.7-.7,4.5,1,5.5v1h-20v152h484v-152h-19v-161c.4-.5,1.9-.8,2-2,4.7.2,10.6-.6,15,0s.6,1.5,2,1v-12s0-7,0-7c5.6-.5,12.1.7,17.5,0s1.5,0,1.5-1v-79c0-1-.6-.9-1.5-1-5-.6-12.2,0-17.5,0,0-13,0-26,0-39h-18c-.3,0-.7,0-1,0v-20H66v19Z"/>
  <path class="st111" d="M121,212v161s96,0,96,0c-2.3.6-1.1,2.9-1.9,3.5-1.2.8-2.5.3-4,2.1s-3.3,8.2-3.1,11.4c-45.5-.2-91-.5-136.5,0-1.7,0-4.5-.7-5.5,1l-2,4.5c.2,29.5-.2,59,0,88.5,0,4-.7,17.8.5,20.1s1,.8,1.5.9c0,.3,0,.7,0,1h445c0-.3,0-.7,0-1v-113l-5-1c-1-1.7-3.8-1-5.5-1-31.8-.3-63.7-.2-95.5,0,1-2.3-.1-4.8,0-7.5s1.3-3.6,1-4.9-3.3-2-4.4-3.7c-2-3-2-8.1-.6-11.4l2,1.4c-.3,1.4-1.3,8.7-1,9,17.7-.1,35.4.2,53,0s-.3.3,1,0,.7,0,1,0v-161c1.8.5,3.5,1,5.5,1,15.3.7,31.2-.6,46.5,0,0,52.1-1,104.4,0,156.5,0,1.2-.7,3.7,1,3.5v-158.6c-.4-1.4.4-1.7,1-2.4v161h19v152H46v-152h20l1-1,1-159h50l1,160,1-4.5c0-51.8.1-103.7,0-155.5,0-.3,0-.7,0-1h1ZM84,373l1,1h16l1-1h1l.9-.6v-140.9s-.9-.6-.9-.6c-.3,0-.7,0-1,0-6-.3-12,.2-18,0v142ZM474,373l1,1c5.7,0,10.5.4,16-1s.7.1,1,0,.7,0,1,0v-142c-.7,0-1.3,0-2,0-5.3-.2-10.7.1-16,0-3-.5-1.9,1.5-2,3.5-1.7,43.2-.4,89.6,0,133,0,1.7-.7,4.5,1,5.5ZM47,523h482v-149c-1.7-.2-1,2.3-1,3.5-.9,48.1.7,96.4,0,144.5H48c-.7-48.1.9-96.4,0-144.5,0-1.2.7-3.7-1-3.5v149Z"/>
  <path class="st122" d="M66,71v-19h445v20c-.3,0-.7,0-1,0-.5-2.3.7-8.5,0-10s-.7,0-1,0c-.1.9.2,2.2,0,3s-1.8,2.8-1,5c-7.4,1.6-71-2.5-72,1s0,.7,0,1,0,.7,0,1h-1v117l1,1v1h-19c0-.3,0-.7,0-1,1.3-.3,7,.6,7-.5l-6-.5c-.3-36.6.4-73.4,0-110,0-2.8.1-5.6,0-8.5l-.9-.5h-72c-.6.1-.8.8-1,1-.4.3-.7.6-1,1l-1,117c-.7,0-1.3,0-2,0-4.3.1-8.7-.1-13,0l-.5-117-1.5-1h-74v96c0,4.3,0,8.7,0,13l-1,9h-16s0-115.6,0-115.6c.5-1.2-.9-2-1.1-2.4s-1-.4-1-1h-73c-1.9,1.1-2.1,3.4-2,5.5,1.6,35.9-1.9,73.4,0,109.1s.2,2.9,1.1,4.4h-18c0-38.5,0-77,0-115.5l-1-1.5c0-.3,0-.7,0-1l-73-1Z"/>
  <path class="st122" d="M46,111c0,.3,0,.7,0,1,0,26.6-.1,53.4,0,80-6.3,0-12.7,0-19,0v-81c6.3,0,12.7,0,19,0ZM29,191v-79c0,0-1,0-1,0v79c0,0,1,0,1,0Z"/>
  <path class="st111" d="M549,112c-.5.2-.7.6-1,1-.8,1-.9.8-1.1,2.4-2,23,1.7,48.9,0,72.2-.4,1.3.8,1.9,1.1,2.4s.6.7,1,1c0,1-.6.9-1.5,1-5.4.7-12-.5-17.5,0,0-26.7,0-53.4,0-80,0-.3,0-.7,0-1,5.3,0,12.5-.6,17.5,0s1.5,0,1.5,1Z"/>
  <path class="st95" d="M48,193h16s0,18,0,18c-4.8-.1-10.5-1.8-16-1v-17Z"/>
  <path class="st111" d="M528,193v17c-4.4-.6-10.3.2-15,0s-.7,0-1,0v-17s16,0,16,0Z"/>
  <path class="st188" d="M512,210c.3,0,.7,0,1,0-.1,1.2-1.6,1.5-2,2-.6.7-1.4,1-1.1,2.4v158.6c-1.7.2-.9-2.3-.9-3.5-1-52.1,0-104.4,0-156.5v-2l1-1c.7,0,1.3,0,2,0Z"/>
  <path class="st202" d="M530,192v7l-1.1-6.5-.9-.5c-4.2,0-8.3,0-12.5,0s-4.5-.7-5.5,1c0,0-1.1-.5-.9-1.3.3-1.1,1.2-1.2,1.9-1.7h17s0-39,0-39c1.7-1,1-3.8,1-5.5.1-10.2-1-22.8,0-32.5,0-.3.7-.7,1-1,0,26.6,0,53.3,0,80Z"/>
  <polygon class="st40" points="67 213 67 372 66 373 66 372 66 212 67 213"/>
  <path class="st18" d="M66,372c-1.7-1-1-3.8-1-5.5-.6-51.5.2-103,0-154.5h1v160Z"/>
  <path class="st22" d="M66,72c0,.3,0,.7,0,1v36c0-.3-.9-.9-1.1-2.4-.7-9.8,1.2-21.6,0-31.1s0-1.5-1-1.5h-16c-.5,11.2.6,22.9,0,34s-1.7,1.5,0,3c-.7,0-1.3,0-2,0,0-13,0-26,0-39h20Z"/>
  <path class="st71" d="M512,72h18c0,13,0,26,0,39h-18c.3,0,.9-.9,2.4-1.1,4.7-.3,9.8.4,14.6,0l-1-6c.1-10-.1-20,0-30-5.3-.2-10.7.3-16,0s-.7,0-1,0l1-2Z"/>
  <path class="st94" d="M120,211c0,.3,0,.7,0,1s0,.7,0,1h-53l-1-1h-1c0-.3,0-.7,0-1,18.3.5,36.7-.3,55,0Z"/>
  <path class="st3" d="M549,191c-.4-.3-.8-.6-1-1v-77c.3-.4.5-.8,1-1v79Z"/>
  <path class="st44" d="M510,72c.3,0,.7,0,1,0s.7,0,1,0l-1,2c-.3,0-.7,0-1,0s-.9-1-2.4-1.1c-23.5-.7-47.1.7-70.6,0v-1h73Z"/>
  <path class="st177" d="M66,71l73,1h-73c0-.3,0-.7,0-1Z"/>
  <path class="st200" d="M48,192v18c-.1,0-.6,1.5-2,1,0-6.3,0-12.7,0-19,.7,0,1.3,0,2,0Z"/>
  <path class="st84" d="M65,211c-.3,0-.7,0-1,0v-18s-16,0-16,0v-1c5.1,0,11.5.9,16-1l1,.5c0,6.5,0,13,0,19.5Z"/>
  <path class="st0" d="M530,199v12c-1.4.5-1.9-1-2-1v-18l.9.5,1.1,6.5Z"/>
  <path class="st154" d="M345,192l.5,19h18.5c0,6.6,0,13.3,0,20h34c0-6.7,0-13.3,0-20,.3,0,.7,0,1,0h18c0-6.3,0-12.7,0-19h19c.3,0,.7,0,1,0v1l.4,17.1c1.4,2.1,13.4.4,16.6.9h1c.3,54-.2,108,0,162-17.6.2-35.4-.1-53,0-.3-.3.7-7.6,1-9,2-9.8,9.6-30.1,9-39l8.1-34.5c-.2-6.4-1.9-10.5-8.1-12.5s-.7-1.3-2-1h-1l-188.5-1-2-1c-1.9-14.1-5.3-25.6-20.4-29.1-9.7-2.2-36-1.9-46.6-1.1-2.1.2-2.1.5-3.4,1.1s-2.6-.2-3,2.5-.3,14,.5,15.6,1.1.7,1.5,1,.9,1.2,2,1h45l14,62c-.1,2.4,1.4,4.3,1.5,5.5s-.6,2.2-.3,3.7c2,12,5.5,23.9,7.8,35.8h-96s0-161,0-161c0-.3,0-.7,0-1h18s0-19,0-19c.3,0,.7,0,1,0h19v19c5.6,0,11.3,0,17,0s1.3,0,2,0c0,.7,0,1.3,0,2,0,6,0,12,0,18h34c0-6.7,0-13.3,0-20,.7,0,1.3,0,2,0,1.3,0,2.9-.9,4.5-1,4.5-.2,10.1-.9,13.5,2,0-6.7,0-13.3,0-20,6.3-.2,12.7,0,19,0,0,6.3,0,12.7,0,19,6.3,0,12.7,0,19,0,0,6.7,0,13.3,0,20h36c0-6.7,0-13.3,0-20,.3,0,.7,0,1,0h18c0-6.3,0-12.7,0-19,5,0,10,0,15,0s3.7-1,4-1,.1,1,1,1Z"/>
  <path class="st52" d="M400,302c5.8-2.5,9.1,4.8,15,2l1,2.5c.1.4-1.6.4-2,1.2-2.7,5.4-2.4,11.7-2,17.3.6,8.9-7,29.2-9,39l-2-1.4c-1.4,3.3-1.4,8.3.6,11.4s4,2.3,4.4,3.7-.9,3.3-1,4.9c0,2.7,1,5.2,0,7.5-2.5,0-6.4-.8-8,1,0,.3,0,.7,0,1-1.1.2-1.4.8-1.8,1.7-1.9,4.4-1.9,11.6-4,16s-2.5,2.9-3.7,4.3-2.8,2.2.5,2c-1.7,1.7-1.4,1.1-3,2h-1l-2-1c-1-1.7-3.8-1-5.5-1-47-.4-94,.4-141,0-1.5.4.5.9.5,1,0,.3,0,.7,0,1v1c-.9,0-2.2-.2-3,0-4.2,1.1-8.8,13.7-4,17-3.5,2.2-7.8,2.7-10.6,5.9-4.4-4-5.4,2.2-9.4-1.9-2-7.2-3.1-12.4-.5-20s3.7-5.5,3.5-9c1.7-2,6.8-6.4,9-8s2.5,0,2.8-1.4c-1.2-1.7-.4-4.1-.8-5.6l.5-4c1.5.9,4.4,3.1,6,3s2.2-1.6,3.2-1.8c2.7-.8,5.6,3.2,8.3,3.8.3,1,1,1.7,2,2h135s22-97,22-97Z"/>
  <path class="st167" d="M140,190v2c-.3,0-.7,0-1,0s-.7,0-1,0h-17s0,18,0,18c0,.3,0,.7,0,1s0,.7,0,1h-1c0-.3,0-.7,0-1,0-5.5.1-11,0-16.5s.7-3.7-1-3.5v19c-.8.2-1.2-1-1.5-1h-50.5v-17.5l-1.5-1.5h-16c-2.5-2.3-1.4-6.7-1.5-10,1.7-1,1-3.8,1-5.5,0-7.5,0-15,0-22.5h88v38h-16s0,1,0,1h18c0-13.3,0-26.7,0-40,0-26,.3-52,0-78l1,1.5c0,38.5,0,77,0,115.5Z"/>
  <path class="st50" d="M225,320c3.5,17.6,7.3,35.4,11,53s3,17.2,5,24c-2.6-.7-5.5-4.6-8.3-3.8s-1.8,1.8-3.2,1.8-4.5-2.1-6-3l-.5,4c-.3-1.4-1.6-4.7-3-5-2.9-1.8-8.2-1-12-1-.2-3.2,1.1-8.9,3.1-11.4s2.7-1.3,4-2.1-.4-2.8,1.9-3.5c-2.3-11.9-5.8-23.9-7.8-35.8s.5-2.8.3-3.7-1.7-3.1-1.5-5.5.7-5.8,2.5-5,2.3,2.4,2.8,3.3c1,2.2-.3,5.5,2.8,4.7-.2-6.6.6-13.7,9-11Z"/>
  <path class="st55" d="M220,391c1.4.3,2.7,3.6,3,5s-.4,3.9.8,5.6c-.3,1.5-2.3,1.1-2.8,1.4l-1-9H66v91l-2-1c-.2-29.5.2-59,0-88.5l2-4.5h154Z"/>
  <polygon class="st65" points="528 523 529 523 47 523 48 523 528 523"/>
  <rect class="st196" x="48" y="522" width="480" height="1"/>
  <path class="st158" d="M511,505c0,.3,0,.7,0,1H66c0-.3,0-.7,0-1h445Z"/>
  <path class="st155" d="M511,506H66h445Z"/>
  <path class="st101" d="M437,73c0,26,0,52,0,78s0,26.7,0,40h19s0,19,0,19c0,.3,0,.7,0,1s0,.7,0,1v161c-1.3.3-.7,0-1,0-.2-54,.3-108,0-162,0-6.3,0-12.7,0-19-6,0-12,0-18,0s-.7,0-1,0v-1c.8-39.3-1-78.7,0-118,0-.3,0-.7,0-1h1v1Z"/>
  <path class="st133" d="M102,231v1c-.4.2-.8,1-1,1-4.7.6-10.2-.4-15,0v139c4.4-1.6,10.7-1.7,15,0v2h-16l-1-141v-2c6,.2,12-.3,18,0Z"/>
  <path class="st123" d="M491,231v2h-15v138h15v2c-5.5,1.4-10.3,1.1-16,1l-1-141,1-2c5.3.1,10.7-.2,16,0Z"/>
  <path class="st112" d="M457,213v160c-.3,0-.7,0-1,0v-161h1v1Z"/>
  <polygon class="st38" points="119 373 118 213 119 213 119 373"/>
  <path class="st159" d="M457,373v-160,160Z"/>
  <path class="st134" d="M119,373v-160h1c.1,51.8,0,103.7,0,155.5l-1,4.5Z"/>
  <polygon class="st100" points="67 372 67 213 68 213 67 372"/>
  <path class="st60" d="M208,390c3.8,0,9.1-.8,12,1H66c1-1.7,3.8-1,5.5-1,45.5-.5,91-.2,136.5,0Z"/>
  <path class="st42" d="M529,523h-1v-1c.7-48.1-.9-96.4,0-144.5,0-1.2-.7-3.7,1-3.5v149Z"/>
  <path class="st210" d="M48,522v1h-1v-149c1.7-.2,1,2.3,1,3.5.9,48.1-.7,96.4,0,144.5Z"/>
  <path class="st51" d="M493,231v142c-.3,0-.7-.1-1,0l-1-141v-1c.7,0,1.3,0,2,0Z"/>
  <path class="st175" d="M475,231l-1,2v140c-1.7-1-1-3.8-1-5.5-.4-43.5-1.7-89.8,0-133,0-1.9-1-4,2-3.5Z"/>
  <path class="st201" d="M102,373l-1,1v-141c.2,0,.6-.8,1-1v141Z"/>
  <path class="st166" d="M493,373v-142,142Z"/>
  <polygon class="st128" points="103 373 103 231 103.9 231.6 103.9 372.4 103 373"/>
  <path class="st77" d="M103,373h-1v-142c.3,0,.7,0,1,0v142Z"/>
  <polygon class="st99" points="84 233 84 373 84 231 84 233"/>
  <polygon class="st180" points="475 374 474 373 474 233 475 374"/>
  <polygon class="st6" points="85 374 84 373 84 233 85 374"/>
  <path class="st124" d="M492,373c-.3.1-.7,0-1,0v-141l1,141Z"/>
  <path class="st35" d="M506,391l5,1h-114c0-.3,0-.7,0-1h109Z"/>
  <path class="st179" d="M511,505c0-.3,0-.7,0-1,1-36.9-.7-74.1,0-111v-1,113Z"/>
  <path class="st60" d="M405,390c31.8-.3,63.7-.3,95.5,0s4.5-.7,5.5,1h-109c1.6-1.8,5.5-1,8-1Z"/>
  <path class="st147" d="M509,211v2c-15.3-.6-31.3.8-46.5,0-1.9,0-3.6-.5-5.5-1h-1c0-.3,0-.7,0-1h53Z"/>
  <path class="st162" d="M66,485c0,.3,0,.7,0,1s0,.7,0,1c0,5.3-.3,10.7,0,16s0,.7,0,1,0,.7,0,1c-.6-.2-1.2-.4-1.5-.9-1.2-2.3-.4-16.1-.5-20.1l2,1Z"/>
  <path class="st208" d="M417,192c0,6.3,0,12.7,0,19h-18s0-18,0-18c4.7-.4,10,.5,14.6,0s2-.9,2.4-1.1.5-.9,1-1c0,.3,0,.7,0,1Z"/>
  <path class="st27" d="M159,72c0,.3,0,.7,0,1-1.5,38.3,1.1,77.6,0,116,0,.3.8,1.5,1,2l-1,1h-19v-2h18c-.8-1.5-1-2.7-1.1-4.4-1.9-35.7,1.6-73.2,0-109.1,0-2,.2-4.3,2-5.5,0,.3,0,.7,0,1Z"/>
  <path class="st169" d="M325,72l1.5,1,.5,117c4.3-.1,8.7.1,13,0v2c-5,0-10,0-15,0,0-13.6,0-27.4,0-41,0-26.3,0-52.7,0-79Z"/>
  <path class="st24" d="M345,72v101c0,5.2.4,10.9,0,16s0,1.7-1,2c-.3,0-2.3,1-4,1v-2c.7,0,1.3,0,2,0l1-117c.3-.4.6-.7,1-1h1Z"/>
  <path class="st73" d="M253,151c0,1,0,2,0,3,0,12,0,24,0,36h18c.5,1.4-1,1.9-1,2h-19c0-3.7,0-7.3,0-11s0-8.7,0-13,0-12,0-18c.6.2,1.5.9,2,1Z"/>
  <path class="st80" d="M436,191l-1-1v-117h1c-1,39.3.8,78.7,0,118Z"/>
  <path class="st49" d="M234,190h-1v-118c.2.4,1.5,1.1,1.1,2.4v115.6Z"/>
  <path class="st152" d="M418,80c.4,36.6-.3,73.4,0,110l6,.5c0,1.1-5.7.2-7,.5,0-13.3,0-26.7,0-40,0-23.6.2-47.4,0-71h1Z"/>
  <path class="st61" d="M435,190v-117,117Z"/>
  <path class="st207" d="M342,190l1-117-1,117Z"/>
  <path class="st66" d="M251,150c0,6,0,12,0,18v-96c0,26,0,52,0,78Z"/>
  <path class="st30" d="M510,72h-74c0-.3,0-.7,0-1h73s0-6,0-6c.2-.8-.1-2,0-3,.3,0,.9-.1,1,0,.7,1.5-.5,7.7,0,10Z"/>
  <path class="st82" d="M417,71l.9.5c.2,2.8,0,5.6,0,8.5h-1c0-2.3,0-4.7,0-7-1-1.7-3.8-1-5.5-1-22.2-.2-44.4.2-66.5,0h-1c.2-.2.4-.9,1-1h72Z"/>
  <path class="st114" d="M509,65v6s-73,0-73,0c1-3.5,64.6.6,72-1-.8-2.2.7-3.8,1-5Z"/>
  <path class="st121" d="M232,71c0,.6.9.8,1,1v1h-1c-1.3-.9-2.9-1-4.4-1-22.5-1.2-46,1-68.6,0,0-.3,0-.7,0-1h73Z"/>
  <path class="st98" d="M159,71h73-73Z"/>
  <path class="st54" d="M325,72h-74,74Z"/>
  <path class="st176" d="M139,72c0,.3,0,.7,0,1h-73c0-.3,0-.7,0-1h73Z"/>
  <path class="st165" d="M417,71h-72,72Z"/>
  <path class="st66" d="M251,192c-6.3,0-12.7-.2-19,0,0-.3,0-.7,0-1l1-1h17s1-9,1-9c0,3.7,0,7.3,0,11Z"/>
  <path class="st168" d="M47,151c0,13.3,0,26.7,0,40h17c-4.5,1.8-10.9,1-16,1s-1.3,0-2,0c-.1-26.6,0-53.4,0-80,1.7,1,1,3.8,1,5.5.1,11.2,0,22.4,0,33.5Z"/>
  <path class="st210" d="M29,191s-1,0-1,0v-79c0,0,1,0,1,0v79Z"/>
  <path class="st103" d="M48,111c5.3,0,10.7.2,16,0v1c-4.6.1-10.2-.6-14.5,0s-1.5,0-1.5,1c0,12.7,0,25.3,0,38h-1c0-11.2.1-22.3,0-33.5s.7-4.5-1-5.5c0-.3,0-.7,0-1,.7,0,1.3,0,2,0Z"/>
  <path class="st72" d="M510,74v37c.6,0,1.4.1,2,0h18c0,.3,0,.7,0,1-.3.3-1,.7-1,1h-1c-2.4-2.5-18,0-19-1v-38c-1.6.1-3.4-.2-5,0h-66s1,75,1,75h89c0,.3,0,.7,0,1-1.7,1.2-3.6,1-5.5,1-28,.9-57-.8-84.5,0h-1c0-26,0-52,0-78,23.5.6,47.1-.8,70.6,0,1.5,0,2.3,1.1,2.4,1.1Z"/>
  <path class="st136" d="M548,190c-.3-.5-1.5-1.1-1.1-2.4,1.7-23.3-2-49.2,0-72.2.1-1.6.3-1.4,1.1-2.4v77Z"/>
  <path class="st173" d="M528,192v1h-16s0,17,0,17c-.7,0-1.3,0-2,0-.2-5.6.2-11.4,0-17,1-1.7,3.8-1,5.5-1,4.2,0,8.3,0,12.5,0Z"/>
  <path class="st45" d="M510,210l-1,1h-53c0-.3,0-.7,0-1,1.8-.5,3.5-1,5.5-1,16.1-.8,32.6.4,48.5,1Z"/>
  <path class="st170" d="M455,190c-3.1-2.4-12.3-1.8-14.4-5s-1.6-4.9-1.7-5.5c-.9-8.8,1-18.7,0-27.6h88v37c-4.6.7-12.2-1.4-16,1s-1.6.6-1.9,1.7c-.2.9.9,1.3.9,1.3.2,5.6-.2,11.4,0,17-16-.6-32.4-1.8-48.5-1s-3.6.5-5.5,1v-19c-.1-.7-.6-.7-1-1Z"/>
  <path class="st106" d="M528,150v40s-17,0-17,0c3.8-2.4,11.4-.3,16-1v-37h-88c.9,8.8-.9,18.8,0,27.6s1.5,5.1,1.7,5.5c2.1,3.2,11.3,2.6,14.4,5h-17s0-39,0-39c27.6-.8,56.5,1,84.5,0,1.9,0,3.8.2,5.5-1Z"/>
  <path class="st195" d="M528,151v-1c0-.3,0-.7,0-1,0-10.7,0-21.3,0-32v-4h1c-1,9.7.1,22.4,0,32.5s.7,4.5-1,5.5Z"/>
  <path class="st48" d="M64,74v35c-3.5,0-7,0-10.5,0s-4.5.7-5.5-1c.6-11.1-.5-22.8,0-34h16Z"/>
  <path class="st205" d="M139,73c.3,26,0,52,0,78h-1l-89-2h89v-75h-71v38c-1,0-2,0-3,0v-1c.7,0,1.3,0,2,0,0-.6.1-1.4,0-2v-36h73Z"/>
  <path class="st120" d="M66,109c.1.6,0,1.4,0,2-.7,0-1.3,0-2,0-5.3.2-10.7,0-16,0-1.7-1.5,0-2.7,0-3,1,1.7,3.8,1,5.5,1,3.5,0,7,0,10.5,0v-35c1,0,.9.6,1,1.5,1.2,9.5-.8,21.3,0,31.1s1,2.1,1.1,2.4Z"/>
  <path class="st48" d="M512,74c5.3.2,10.7-.2,16,0-.1,10,.1,20,0,30s0,3.3,0,5h-16s0-35,0-35Z"/>
  <path class="st81" d="M512,74v35s16,0,16,0c0-1.7,0-3.3,0-5l1,6c-4.8.3-9.9-.4-14.6,0s-2.1,1-2.4,1.1c-.6.1-1.4,0-2,0v-37c.3,0,.7,0,1,0s.7,0,1,0Z"/>
  <path class="st18" d="M48,180c0,3.3-1,7.7,1.5,10h16l1.5,1.5v17.5h50.5c.3,0,.7,1.2,1.5,1v-19c1.7-.2,1,2.3,1,3.5.1,5.5,0,11,0,16.5-18.3-.3-36.7.5-55,0,0-6.5,0-13,0-19.5l-1-.5h-17c0-13.3,0-26.7,0-40h1c0,9.6-.2,19.4,0,29Z"/>
  <path class="st102" d="M148,246c1,1.7,3.8,1,5.5,1,13,.1,26,.1,39,0,1.7,0,4.5.7,5.5-1,15.2,3.4,18.5,14.9,20.4,29.1l2,1,188.5,1c-61.5.5-123-.7-184.5,0-1.7,0-4.5-.7-5.5,1l4.5,1h183s5.5-1,5.5-1c6.2,2,7.8,6.1,8.1,12.5l-8.1,34.5c-.3-5.6-.6-11.9,2-17.3s2.1-.8,2-1.2l-1-2.5c-5.9,2.7-9.1-4.6-15-2,.3-1.9,2.2-4.9,0-6h-178c-1.4.6-1.1,2.2-1.1,3.5.4,5.2,2.9,14.8,4.1,20.5-8.4-2.7-9.2,4.4-9,11-3,.7-1.7-2.5-2.8-4.7s-2-2.9-2.8-3.3c-1.8-.8-2.4,4-2.5,5l-14-62,.9-.5-.9-.5c-1-1.7-3.8-1-5.5-1-11.9-.1-24.2-.4-36,0-1.9,0-3.8-.1-5.5,1-.4-.3-1.2-.3-1.5-1-.8-1.6-.9-13.1-.5-15.6s1.5-1.9,3-2.5Z"/>
  <path class="st48" d="M271,211c-.5,3,1.5,1.9,3.5,2,8.4.3,18.7.3,27.1,0s4,1,3.5-2c.3,0,.7,0,1,0,0,6.7,0,13.3,0,20h-36c0-6.7,0-13.3,0-20,.3,0,.7,0,1,0Z"/>
  <path class="st95" d="M366,211c-1.8,2.7-1,1.9,1.5,2,9.5.2,19-.2,28.5,0v17c1.7.2,1-2.3,1-3.5.1-5.2,0-10.4,0-15.5.3,0,.7,0,1,0,0,6.7,0,13.3,0,20h-34c0-6.7,0-13.3,0-20,.7,0,1.3,0,2,0Z"/>
  <path class="st102" d="M232,192c0,6.7,0,13.3,0,20-3.5-2.9-9-2.2-13.5-2s-3.2,1-4.5,1v-18c4.8-.2,9.8.3,14.6,0s2.3-1.1,2.4-1.1c.3,0,.7,0,1,0Z"/>
  <path class="st48" d="M252,192c1,1.7,3.8,1,5.5,1,3.5,0,7,0,10.5,0v15.4c0,1.1,1.3.4,2,.6,0,.7,0,1.3,0,2-6.3,0-12.7,0-19,0,0-6.3,0-12.7,0-19h1Z"/>
  <path class="st198" d="M160,192c.8,1.3,1.1,1,2.4,1,4.5.3,9.1-.3,13.6,0v18c-5.7,0-11.4,0-17,0v-19s1-1,1-1c.1.3-.1.8,0,1Z"/>
  <path class="st21" d="M412,278l-5.5,1h-183s-4.5-1-4.5-1c62.5-.2,125.1.2,187.6,0,2.1,0,2.7-.9,3.4-1.1,1.3-.3,1.8.9,2,1Z"/>
  <path class="st191" d="M409,277h1c-.7.1-1.3,1.1-3.4,1.1-62.5.2-125.1-.3-187.6,0,1-1.7,3.8-1,5.5-1,61.5-.7,123,.5,184.5,0Z"/>
  <path class="st146" d="M212,211c0,6.7,0,13.3,0,20h-34c0-6,0-12,0-18h3c-2.1,5.2-.5,11.5-1,17,10.3-1.8,20.7-.8,31,0,0-5.7,0-11.3,0-17v-2c.3,0,.7,0,1,0Z"/>
  <path class="st104" d="M198,246c-1,1.7-3.8,1-5.5,1-13,.1-26,.1-39,0-1.7,0-4.5.7-5.5-1,1.4-.5,1.3-.9,3.4-1.1,10.6-.8,36.9-1.1,46.6,1.1Z"/>
  <path class="st105" d="M231,191v1c-.1,0-.9,1-2.4,1.1-4.8.3-9.8-.3-14.6,0v18c-.7,0-1.3,0-2,0,0-6.7,0-13.3,0-20h19Z"/>
  <path class="st190" d="M364,192v1c-.6.2-1.5.9-2,1-.2-1.1-.5-.9-1.5-1-4.2-.5-9.2.4-13.5,0v17h13c.9.2,2-.1,3,0h1c0,.3,0,.7,0,1h-18.5s-.5-19-.5-19c6.3,0,12.7,0,19,0Z"/>
  <path class="st141" d="M211,211v2h-33c0-.7,0-1.3,0-2,11,0,22,.3,33,0Z"/>
  <path class="st13" d="M439,193v16c4.9-.4,10.4,1,15-1v3c-3.2-.5-15.2,1.1-16.6-.9l-.4-17.1h2Z"/>
  <path class="st70" d="M160,192h18c0,6.3,0,12.7,0,19-.7,0-1.3,0-2,0v-18c-4.5-.2-9.1.3-13.6,0s-1.6.3-2.4-1Z"/>
  <path class="st119" d="M325,192c0,6.3,0,12.7,0,19h-18v-2h17s0-16,0-16v-1c.3,0,.7,0,1,0Z"/>
  <path class="st151" d="M194,265l-45,1c-1.1.2-1.4-.6-2-1,1.7-1.2,3.6-1,5.5-1,11.9-.3,24.1-.1,36,0s4.5-.7,5.5,1Z"/>
  <polygon class="st16" points="194 265 194.9 265.5 194 266 149 266 194 265"/>
  <path class="st78" d="M364,190c.2.7.9,1.4,1,2h-1c-6.3,0-12.7,0-19,0s-.9-1-1-1c1.1-.3.9-1.1,1-2h1c5.2,2.3,12.2.4,18,1Z"/>
  <path class="st58" d="M416,192c-.4.1-.6.9-2.4,1.1-4.6.4-9.9-.4-14.6,0v18c-.3,0-.7,0-1,0,0-6.7,0-13.3,0-20,5.6,2.1,12.1.5,18,1Z"/>
  <path class="st163" d="M139,192v19s-18,0-18,0c0-.3,0-.7,0-1h17s0-17,0-17v-1c.3,0,.7,0,1,0Z"/>
  <path class="st62" d="M437,192c6,0,12,0,18,0,0,6.3,0,12.7,0,19h-1v-3c0-5,0-10,0-15-5,0-10,0-15,0h-2v-1Z"/>
  <path class="st76" d="M324,192v1h-17c0,5.3,0,10.7,0,16v2c-.3,0-.7,0-1,0,0-6.3,0-12.7,0-19h18Z"/>
  <path class="st5" d="M68,394l149.4.9c1.4.2.7,7.6,3.6,8.1-2.2,1.6-7.3,6-9,8s-2.7,5.6-5,8l-1-1c-2.7,8-2.8,16,0,24l1-1,3,3c1.8,4.9,2.6,5.6,6,9s.6.7,1,1l5,20,1-1c2.4,3.7,1.5,3.7,5,6l2,5H67s0-90,0-90c.3,0,.7,0,1,0Z"/>
  <path class="st182" d="M425,394l67,1v89s-116-1-116-1c1.8-4,3.8-4.7,6-8s3.3-7.5,4-8,1.8.6,2-.7c1.5-8.6,1.2-15.2-2-23.3l-1,1-4-5c-.2-.7.4-2-.2-2.8s-4.2-2.9-4.8-3.2c-6.5-6.1-15.5-8.9-24.4-7.9s-7.4,1.4-8.9,2-2.3,2.1-3.7,3c-4.6,2.9-6,3.2-9,8-2.6.9-3.5,1.8-6.4,2.1-10,.8-31.4,1.1-41.1,0s-3.3-1.7-5.4-2.1c-1.6-4.4-2.7-3.8-6-6,.2-2.4-1.4-2.6-3-3.5-8.2-4.8-22.9-6-31.1-.9s.1,1.4,0,1.5c-.4,1.1-2.6,1.6-3,3-.3,0-.7,0-1,0-.7,0-1.3-1.9-4,1-2-6.2,2.5-8.4,4-12l3-1,10.6,1.9c33.1-2,66.6-.6,99.9-.9s4.5.7,5.5-1c8.9,0,19.9.9,28.5,0s2.8-1.1,4.5-2,1.3-.3,3-2c5.7-5.6,7.6-12.3,9-20,1.1-1.9,1.2-1.9,3.4-2.1,7.9-.5,16.6,0,24.6,0Z"/>
  <path class="st116" d="M268,430c1,.5,2,1.4,3,2,3.3,2.2,4.4,1.6,6,6s-.3,2.3,3,3c-1.8,2.7-.9,1.9,1.5,2,15.4.5,31.2,0,46.6-.5,1.1-.7.7-2.1.9-2.5s.6-1.4,1-2c3-4.8,4.4-5.1,9-8l8.4-1.1c2.2-1,3.1-1.7,5.6-1.9l3,2c-2.3-.3-2.3,2-3.5,3-4.7,4-8.7,4.9-14.9,5.2l-1.2.8c-1.9,3.2-3.8,8.3-6,11s-2.7,1.7-3.2,2.3c-.9,1.2-1.5,5.9-2.3,7.7h-20c-.2,1.7,2.3,1,3.5,1,4.5,0,9,0,13.5,0-.2,0-.9,1-2.4,1-10.7.4-21.4-.2-32.1,0s-4.5-.7-5.5,1c-.7-.1-1.4,0-2-.5-1.9-2.4-6.6-8.9-9-10s-3.9-.4-5.8-1.3-2.7-4.9-6.2-4.3c2.8,3.7,5.8,5.3,6,10.5s-.3,9.7-4,7.5c1-1.7,1.8-2.1,2.1-4.4,2.4-21.8-32.6-15.5-21.1,5.4,0,0-.5.8-1,.5-2.8-1.6-3.2-7.5-3-10.5-5.9-1.4-8.5,3.4-13.5,5-1.4-1-1.4-2.7-2.5-4s-4-3.4-6-3c-3.4-3.4-4.2-4.1-6-9s-.6-2.7-1-4c4,4.2,5-2.1,9.4,1.9,2.8-3.2,7.1-3.7,10.6-5.9s3.1-2.2,4-4c.3,0,.7,0,1,0,3.7-.1,12.2-5.9,17.5-5.1l16.5,3.1Z"/>
  <path class="st148" d="M400,302l-22,97h-135s0-1,0-1h133l.9-.5c.2-6.6,1.9-13,3.1-19.5,1.8-1,1.6-2.8,2-4.5,1.5-6.1,2.8-12.3,4-18.5s1.3-7.4,2-11c3.2-7.7,4.8-16.6,6.8-24.8s0-3.9.2-5.2,1.1-1.1,1.3-2.2c1.1-4.6,3.1-10.4,3.7-14.8s0-.7,0-1c2.2,1.1.3,4.1,0,6Z"/>
  <path class="st132" d="M384,418h1c-1.7.9-1.4,1.7-4.5,2-8.6.8-19.6,0-28.5,0-38.6.2-77.4-.2-116,0l-3,1c.2-.4-.1-1.4,0-2,.8-.2,2.1,0,3,0,46.6-2.7,95.9,2.5,142.6,0,2.1-.1,2.7-.9,3.4-1.1s1.4,0,2,0Z"/>
  <path class="st193" d="M382,417l2,1c-.6,0-1.4-.1-2,0h-146c0-.3,0-.7,0-1h146Z"/>
  <path class="st156" d="M382,417h-146c0,0-2-.6-.5-1,47,.3,94-.4,141,0,1.7,0,4.5-.7,5.5,1Z"/>
  <path class="st31" d="M382,418c-.7.1-1.3,1-3.4,1.1-46.7,2.4-96-2.8-142.6,0v-1h146Z"/>
  <path class="st23" d="M209,440c.4,1.3.5,2.8,1,4l-3-3c-2-7.8-2-14.2,0-22,2.3-2.4,2.7-5.4,5-8,.2,3.5-2.4,6-3.5,9-2.7,7.6-1.5,12.7.5,20Z"/>
  <path class="st129" d="M239,375c.3,1.5.7,2.7,1,4,1.2,5.5,1.2,11.5,2,17s.8,1.4,1,2v1c-1-.3-1.7-1-2-2-2-6.8-3.4-16.7-5-24l1-2c.2.9,1.8,3.1,2,4Z"/>
  <path class="st15" d="M397,393c-.2,1.5,0,2.9,0,3-1.4,7.7-3.3,14.4-9,20-3.3.2-1.8-.5-.5-2s2.9-2.5,3.7-4.3c2.1-4.4,2.1-11.6,4-16s.7-1.5,1.8-1.7c0,.3,0,.7,0,1Z"/>
  <path class="st172" d="M233,421c-1.5,3.6-5.9,5.8-4,12,2.7-2.9,3.3-1,4-1-.9,1.8-2.3,2.9-4,4-4.8-3.3-.2-15.9,4-17-.1.6.2,1.6,0,2Z"/>
  <path class="st164" d="M138,151c-.6,12,.8,24.6,0,36.5s.3,2.4-1,2.5v-38H49c0,7.5,0,15,0,22.5s.7,4.5-1,5.5c-.2-9.6,0-19.4,0-29h90Z"/>
  <path class="st176" d="M139,151c0,13.3,0,26.7,0,40h-18v-1s16,0,16,0c1.4,0,1-1.4,1-2.5.7-11.9-.6-24.6,0-36.5h1Z"/>
  <polygon class="st96" points="138 192 138 193 137 193 122 193 122 209 122 210 121 210 121 192 138 192"/>
  <path class="st74" d="M222,297l2,9c-.2,2.1,1.5,7.3,2,10,2.1,11.3,4.7,22.7,7,34s2.5,14.1,4,21l-1,2c-3.7-17.6-7.5-35.4-11-53-1.1-5.7-3.7-15.3-4.1-20.5s-.3-2.9,1.1-3.5v1Z"/>
  <path class="st199" d="M220,394l1,9c-2.9-.5-2.2-7.8-3.6-8.1l-149.4-.9h152Z"/>
  <path class="st185" d="M220,394H68c-.3,0-.7,0-1,0s-.7,0-1,0h154Z"/>
  <path class="st144" d="M67,484v2h-1c0-.3,0-.7,0-1v-91c.3,0,.7,0,1,0v90Z"/>
  <path class="st46" d="M510,504h1c0,.3,0,.7,0,1H66c0-.3,0-.7,0-1h444Z"/>
  <path class="st118" d="M438,151v39s17,0,17,0c.4.3.9.3,1,1h-19c0-13.3,0-26.7,0-40h1Z"/>
  <path class="st143" d="M101,233v139c-4.3-1.7-10.6-1.6-15,0v-139c4.8-.4,10.3.6,15,0Z"/>
  <path class="st143" d="M491,233v138h-15v-138h15Z"/>
  <path class="st115" d="M511,392v1h-1c-.3,0-.7,0-1,0-1.6.4-3,1.5-5,1-3.3-.4-7.5,0-11,0l-96-1c0-.3,0-.7,0-1h114Z"/>
  <path class="st37" d="M511,504h-1v-111h1c-.7,36.9,1,74.1,0,111Z"/>
  <path class="st150" d="M504,394c.2,0,4,1.3,4.1,1.6v106.4c0,0-440.1,1-440.1,1h-2c-.3-5.3,0-10.7,0-16h168l2-1c.9.5,3.1.9,3,2l-1,1c8.7,3.1,13.2,4.1,22,1s5.1-2.2,8-4h2c1,1.7,3.8,1,5.5,1,21.3.2,42.6,0,63.9,0,.5-.2.4-.6.6-.9s0-.7,0-1c1.3.8,3.5,2.9,3.7,2.9,9.2,3.4,19.9,3.2,27.3-2.9-.5,3,1.5,1.9,3.5,2,38.7,1.5,78.3-1.2,117.1,0l1.5-1v-92c3.5,0,7.7-.4,11,0ZM495,486v-89c0,0-1,0-1,0v89c0,0,1,0,1,0Z"/>
  <path class="st75" d="M68,503h442v1H66c0-.3,0-.7,0-1h2Z"/>
  <path class="st192" d="M234,487H66c0-.3,0-.7,0-1h1c53.8.4,107.7-.5,161.5,0,1.7,0,4.5-.7,5.5,1Z"/>
  <path class="st206" d="M417,191c-.5,0-.8.9-1,1-5.9-.5-12.4,1.1-18-1v-1c4.8-.9,12.1.8,17,0s.9-.5,1-1.5c-.1-12.5,0-25,0-37.5h1c0,13.3,0,26.7,0,40Z"/>
  <path class="st79" d="M229,151v39c-4.6.8-10.8-.6-15.5,0s-1,.6-1.5,1c-1,1-.9.9-1.1,2.4-.4,5.3.4,11.2,0,16.6h-32v-19h-19c-.2-.5-1-1.7-1-2,1.5-12.7,1-26,1-39,1.7,1.2,3.6,1,5.5,1,21.1.7,42.4-.6,63.5,0Z"/>
  <path class="st12" d="M159,73h72s0,118,0,118h-19c.4-.4.3-.8,1.5-1,4.8-.6,11,.8,15.5,0s.9-.5,1-1.5c-.2-12.5.2-25.1,0-37.5s0-1.3,0-2v-75s-70,1-70,1v75c0,13,.5,26.3-1,39,1.1-38.4-1.5-77.7,0-116Z"/>
  <path class="st56" d="M232,73c0,39.3,0,78.7,0,118s0,.7,0,1c-.3,0-.7,0-1,0v-119s-72,0-72,0c0-.3,0-.7,0-1,22.6.9,46.1-1.2,68.6,0s3.1,0,4.4,1Z"/>
  <path class="st43" d="M325,72c0,26.3,0,52.7,0,79h-1c0-12,0-24.6,0-36.5,0-13.5-.1-27,0-40.5h-71c0,25.7,0,51.3,0,77-.5,0-1.4-.8-2-1,0-26,0-52,0-78h74Z"/>
  <path class="st10" d="M325,192c-.3,0-.7,0-1,0h-18v-2h18c0-12.6,0-25.3,0-38s0-.7,0-1h1c0,13.6,0,27.4,0,41Z"/>
  <path class="st184" d="M417,73c0,2.3,0,4.7,0,7,.2,23.6,0,47.4,0,71h-1c-.1-20.9-1.1-41.8-1-62.5,0-4.8-.3-9.3,1-14l-1-.5h-69s0,75,0,75c0,.7,0,1.3,0,2-.3,12.6.2,25.4,0,38h-1c.4-5.1,0-10.8,0-16,0-33.3,0-66.7,0-100h72Z"/>
  <path class="st29" d="M417,73h-72c0,33.3,0,66.7,0,100v-101c22.1.2,44.3-.3,66.5,0,1.7,0,4.5-.7,5.5,1Z"/>
  <path class="st170" d="M324,152c0,12.7,0,25.4,0,38h-18c-1.9.5-2,8.7-2.1,10.5s1.6,9.2-.4,9.4c-.9-.6-1.9-.9-3-1-9.7-.3-19.4.5-29.1.6s-1.1-.4-1.5-.5c0-5.1-.7-12.2,0-17s1.5-.6,1-2h-18c0-12,0-24,0-36,1.1-1.9,1.2-1.9,3.4-2.1,22.1-1.3,45.4,1.1,67.6,0Z"/>
  <path class="st90" d="M324,151c0,.3,0,.7,0,1-22.2,1-45.5-1.3-67.6,0-2.2.1-2.3.1-3.4,2.1,0-1,0-2,0-3,22.4,2.2,48.2-1.6,71,0Z"/>
  <path class="st108" d="M270,192c-.7,4.8,0,11.9,0,17-.7-.1-1.9.6-2-.6v-15.4c-3.4,0-7,0-10.5,0s-4.5.7-5.5-1h18Z"/>
  <path class="st7" d="M233,190l-1,1c0-39.3,0-78.7,0-118h1v117Z"/>
  <path class="st176" d="M64,112c1,0,2,0,3,0v-38s71,0,71,0v75H49c0-10.2.1-20.3,0-30.5s.7-4.5-1-5.5c0-1,.6-.9,1.5-1,4.3-.5,10,.2,14.5,0Z"/>
  <path class="st183" d="M49,149l89,2H48c0-12.7,0-25.3,0-38,1.7,1,1,3.8,1,5.5.1,10.2,0,20.4,0,30.5Z"/>
  <path class="st44" d="M504,74c1.6-.2,3.4.1,5,0v38c1,1,16.6-1.5,19,1v4c-1.7,1-1,3.8-1,5.5,0,8.8,0,17.7,0,26.5h-88v-74c20.5-1,42.2,1.3,62.6,0,1.4,0,2.3-1,2.4-1.1Z"/>
  <path class="st57" d="M504,74c-.1,0-1,1-2.4,1.1-20.4,1.2-42.1-1-62.6,0v74s-1-75-1-75h66Z"/>
  <path class="st171" d="M528,149h-1c0-8.8-.1-17.7,0-26.5,0-1.7-.7-4.5,1-5.5,0,10.7,0,21.3,0,32Z"/>
  <path class="st20" d="M400,296h-178,178Z"/>
  <path class="st67" d="M306,192c0,6.3,0,12.7,0,19-.3,0-.7,0-1,0-11.3,0-22.7,0-34,0s-.7,0-1,0c0-.7,0-1.3,0-2,.4,0,.8.5,1.5.5,9.6,0,19.4-.8,29.1-.6s2.1.4,3,1c2-.2.4-7.5.4-9.4s.1-10,2.1-10.5v2Z"/>
  <path class="st109" d="M305,211c.5,3-1.5,1.9-3.5,2-8.4.3-18.7.3-27.1,0s-4,1-3.5-2c11.3,0,22.7,0,34,0Z"/>
  <path class="st117" d="M397,211c0,5.2.1,10.3,0,15.5s.7,3.7-1,3.5v-17c-9.5-.2-19,.2-28.5,0s-3.3.7-1.5-2c10.3,0,20.7,0,31,0Z"/>
  <path class="st59" d="M365,192c.5,2.9-.6,17.4,0,18h31s1,1,1,1c-10.3,0-20.7,0-31,0s-1.3,0-2,0c0-.3,0-.7,0-1v-18h1Z"/>
  <path class="st36" d="M398,191c0,6.7,0,13.3,0,20-.3,0-.7,0-1,0l-1-1c.6-5.4-.8-12.3,0-17.5s.6-2.2,2-2.5v1Z"/>
  <path class="st107" d="M160,191h19v19h32c.4-5.4-.5-11.3,0-16.6s0-1.4,1.1-2.4c0,6.7,0,13.3,0,20-.3,0-.7,0-1,0-11,.3-22,0-33,0,0-6.3,0-12.7,0-19h-18c-.1-.2.1-.7,0-1Z"/>
  <path class="st208" d="M211,213c0,5.7,0,11.3,0,17-10.3-.8-20.7-1.8-31,0,.5-5.5-1.1-11.8,1-17h30Z"/>
  <path class="st122" d="M362,194c.8,4.9-1.3,11.3,1,16-1-.1-2.1.2-3,0s-.9-.9-2.4-1.1c-3.1-.2-6.4.3-9.6,0v-15c4.5-.3,9.5.4,14,0Z"/>
  <path class="st130" d="M362,194c-4.5.4-9.5-.3-14,0v15c3.1.2,6.5-.3,9.6,0s2.2,1,2.4,1.1h-13v-17c4.3.4,9.4-.5,13.5,0s1.3,0,1.5,1Z"/>
  <path class="st194" d="M364,210h-1c-2.3-4.7-.2-11.1-1-16,.5,0,1.4-.8,2-1v17Z"/>
  <path class="st122" d="M439,193c5,0,10,0,15,0,0,5,0,10,0,15-4.6,2-10.1.6-15,1v-16Z"/>
  <path class="st111" d="M324,193v16s-17,0-17,0c0-5.3,0-10.7,0-16h17Z"/>
  <path class="st79" d="M347,151h68s0,39,0,39c-4.9.8-12.2-.9-17,0s-1.8,1.2-2,2.5c-.8,5.2.6,12.1,0,17.5h-31c-.6-.6.5-15.1,0-18s-.8-1.3-1-2c-1-1.7-3.8-1-5.5-1-3.8,0-7.7,0-11.5,0v-38Z"/>
  <path class="st161" d="M347,151v38c3.8,0,7.7,0,11.5,0s4.5-.7,5.5,1c-5.8-.6-12.8,1.3-18-1,.2-12.6-.3-25.4,0-38h1Z"/>
  <polygon class="st149" points="138 193 138 210 122 210 122 209 137 209 137 193 138 193"/>
  <path class="st122" d="M261,464c3.8,2.3,4.1-5.6,4-7.5-.3-5.2-3.2-6.8-6-10.5,3.5-.7,4.1,3.3,6.2,4.3s4,.4,5.8,1.3,7.2,7.6,9,10c.6.5,1.3.4,2,.5s.7,0,1,0c-1.1,2.6-1.1,6.6-2,9s-2.1,4.1-2.6,4.9c-1.4,2.4-4,4.6-5.4,7.1-1.4-.2-2.9,1.2-4,2l-17.5,4.1c-5.4,1-13.6-4.9-17.5-5.1s-.7,0-1,0c-1.2-2.2-3-3.7-5-5-3.5-2.3-2.6-2.3-5-6v-1c2.1-2-.5-4.9-.9-7.6s.1-5.7,0-8.4c1.2,1.3,1.2,3,2.5,4,5-1.6,7.6-6.4,13.5-5-.2,3,.2,8.9,3,10.5s1-.5,1-.5c1.3.9,2.1,2.8,4,3.4,3,1,12.6-.1,14.4-2.5s.4-1.6.5-1.9Z"/>
  <path class="st9" d="M233,484c-.3,0-1.3,1-3.4,1.1-54.1,1.1-108.5-1-162.6,0v-1h163s-2-5-2-5c2,1.3,3.8,2.8,5,5Z"/>
  <path class="st19" d="M207,419c-2,7.8-2,14.2,0,22l-1,1c-2.8-8-2.8-16,0-24l1,1Z"/>
  <path class="st92" d="M222,456c.2,2.8-.3,5.7,0,8.4s3.1,5.6.9,7.6c-1.2-2.8-2.1-5.8-2.8-8.7-1.1-5.3,1.4-5.1-3.2-9.3s-.7-.7-1-1c2-.4,4.7,1.6,6,3Z"/>
  <path class="st153" d="M223,472v1l-1,1-5-20c4.7,4.2,2.2,4,3.2,9.3s1.5,6,2.8,8.7Z"/>
  <path class="st122" d="M376,433c.6.3,4.6,3,4.8,3.2.6.8,0,2.1.2,2.8,3.7,14.3,8.4,15.8,1.5,32-.4,1-2.6,3.4-.5,4-2.2,3.3-4.2,4-6,8s-.8.6-1,1c-.4,0-1.4.8-2,1,.3-3.1-.8-2.1-2.7-1.2-9.9,4.4-19,5.9-28.9.3h-.9c-.6,0-.4.6-.5.9-1.5-1-3.8-2.1-5-3s-4.4-3.7-4.5-4c-.7-1.1-.2-2.7-.8-3.7s-1.3-.3-2-1.5c-2.2-3.7-1.2-8.7-2.7-10.8s-1.1-2.3-3-2c-4.5,0-9,0-13.5,0s-3.7.7-3.5-1h20c.8-1.8,1.4-6.6,2.3-7.7s2.1-.9,3.2-2.3c2.2-2.8,4.1-7.9,6-11l1.2-.8c6.2-.2,10.2-1.2,14.9-5.2s1.2-3.3,3.5-3l-3-2c8.6-.9,13.7,2.1,20.8,5.8s1.9,0,2.2.2ZM353.7,445.2c-7.6,1.3-12.1,10.8-8.2,17.7s4.2,5.3,4.5,5.5c9.8,7.3,23.5-9.9,14-20-3-3.2-6-4-10.3-3.3Z"/>
  <path class="st125" d="M493,486h-1c-1-1.7-3.8-1-5.5-1-35-.3-77.9,3.1-111.5-1,.2-.4.9-.7,1-1l116,1v-89s0-1,0-1c.3,0,.7,0,1,0v92Z"/>
  <path class="st25" d="M352,420c-1,1.7-3.8,1-5.5,1-33.3.4-66.8-1.1-99.9.9l-10.6-1.9c38.6-.2,77.4.2,116,0Z"/>
  <path class="st110" d="M493,394c-.3,0-.7,0-1,0-22.3-.4-44.7,0-67,0-8,0-16.7-.5-24.6,0-2.2.1-2.3.1-3.4,2.1,0-.1-.2-1.5,0-3l96,1Z"/>
  <path class="st14" d="M376,433c-.3-.2-1.5.1-2.2-.2-7.1-3.6-12.2-6.7-20.8-5.8s-3.4.9-5.6,1.9l-8.4,1.1c1.4-.9,3.5-2.9,3.7-3,1.5-.6,7.1-1.8,8.9-2,8.9-1,17.9,1.8,24.4,7.9Z"/>
  <path class="st186" d="M492,394v1l-67-1c22.3,0,44.7-.4,67,0Z"/>
  <path class="st138" d="M330,438c-.4.6-.6,1.4-1,2-1.7,1.2-3.6,1-5.5,1-14.5.4-29.1-.4-43.5,0-3.3-.7-2.4-1.2-3-3,2.1.4,3.1,1.8,5.4,2.1,9.7,1.1,31.2.8,41.1,0s3.9-1.2,6.4-2.1Z"/>
  <path class="st4" d="M271,432c-1-.6-2-1.5-3-2-10.2-5.1-20.4-5.7-31-1,0,0-1.3-.7,0-1.5,8.2-5.1,22.9-3.9,31.1.9s3.1,1.1,3,3.5Z"/>
  <path class="st211" d="M268,430l-16.5-3.1c-5.4-.8-13.8,4.9-17.5,5.1.4-1.4,2.6-1.9,3-3,10.6-4.7,20.8-4.1,31,1Z"/>
  <path class="st204" d="M385,444c2.3,7.4,3,15.5,1,23-.7.5-3,6.5-4,8-2.1-.6,0-2.9.5-4,6.8-16.2,2.2-17.7-1.5-32l4,5Z"/>
  <path class="st17" d="M385,444l1-1c3.2,8.2,3.5,14.7,2,23.3s-1.7.5-2,.7c2-7.5,1.3-15.6-1-23Z"/>
  <path class="st33" d="M261,464c-.2.3,0,1.2-.5,1.9-1.9,2.4-11.5,3.5-14.4,2.5s-2.8-2.6-4-3.4c-11.5-21,23.4-27.2,21.1-5.4-.3,2.4-1.1,2.8-2.1,4.4Z"/>
  <path class="st212" d="M329,440c-.3.5.1,1.8-.9,2.5-15.4.5-31.1.9-46.6.5-2.4,0-3.3.7-1.5-2,14.5-.3,29.1.5,43.5,0,1.9,0,3.8.1,5.5-1Z"/>
  <path class="st157" d="M325,462h-1c-13.5-.6-27.6.8-41,0s-.7,0-1,0c1-1.7,3.8-1,5.5-1,10.7-.1,21.4.4,32.1,0,1.5,0,2.2-1,2.4-1,1.9-.3,2.2.9,3,2Z"/>
  <path class="st26" d="M381,298c5.6-.2,11.4.2,17,0-1.2,5.4-2.8,10.6-4,16-2.2,9.9-4,20.1-6,30s-1.3,7.4-2,11c-2.1.6-1.9,2.6-2.3,4.2-1.8,6.2-2.6,13-3.7,18.8s-2.9,12.9-3.1,19.5l-.9.5c.3-3-.3-1.4-2-1.6-34.2-3-71.4-.5-105.4-.4s-16.7-.7-24.5,1v-4s-2,3-2,3c-.8-5.5-.8-11.5-2-17l2-1.5c.2,1.1-.6,3.3.6,3.5,2.9.5,7.3,0,10.4,0,6.6,0,13.3,0,20,0,30,0,60,0,90,0,.2-1.3-.2-2.8,0-4s.9.2,1-.5c5.3-26.2,9.9-52.5,16-78.5.3,0,.7,0,1,0Z"/>
  <path class="st135" d="M242,396l2-3v4c7.9-1.7,16.4-1,24.5-1,34.1-.1,71.3-2.6,105.4.4,1.8.2,2.3-1.4,2,1.6h-133c-.2-.6-.9-1.4-1-2Z"/>
  <path class="st187" d="M400,296c0,.3,0,.7,0,1h-178v-1h178Z"/>
  <path class="st93" d="M400,297c-.6,4.4-2.6,10.2-3.7,14.8s-1.2,1.9-1.3,2.2h-1c1.2-5.4,2.8-10.6,4-16-5.6.2-11.4-.2-17,0v-1h19Z"/>
  <path class="st91" d="M388,344c2-9.9,3.8-20.1,6-30h1c-.3,1.3.2,3.4-.2,5.2-1.9,8.2-3.5,17.1-6.8,24.8Z"/>
  <path class="st2" d="M380,378c1.1-5.8,1.9-12.6,3.7-18.8s.2-3.6,2.3-4.2c-1.2,6.2-2.5,12.4-4,18.5s-.2,3.5-2,4.5Z"/>
  <path class="st34" d="M234,345c1.1-2.6,1.3,1.2,1.5,2,.7,3.3,1.7,6.6,1.5,10h2.5c.5,3.6,5.6,5.9,7.9,10.1s1.1,4.4,2.1,5.9,5.4,3.3,6.5,5.5-2.5,1.2-3,2.5c-3.2,0-7.6.5-10.4,0s-.3-2.5-.6-3.5l-2,1.5c-.3-1.3-.7-2.5-1-4,0-3.7-.6-7.6-1.3-11.2s-2.7-9.9-3.7-14.8.2-2.8,0-4Z"/>
  <path class="st41" d="M239,375c-.2-.9-1.8-3.1-2-4-1.5-6.9-2.6-14-4-21l1-1c1,4.9,2.8,9.8,3.7,14.8s1.3,7.5,1.3,11.2Z"/>
  <rect class="st102" x="122" y="193" width="15" height="16"/>
  <path class="st113" d="M380,298c-6.1,26-10.7,52.3-16,78.5-.1.7-1,.5-1,.5l-1,3-89,1c-6.7,0-13.4,0-20,0,.5-1.3,4-.4,3-2.5s-5.4-4-6.5-5.5-1.1-4-2.1-5.9c-2.3-4.2-7.4-6.5-7.9-10.1h-2.5c.1-3.4-.8-6.6-1.5-9.9s-.4-4.6-1.5-2c-1.7-8.3-3.9-17.2-5.9-25.6s1-3.9-2.1-3.4c-.5-2.7-2.2-7.9-2-10s.4-2.5,0-6c1.7-1.2,3.6-1,5.5-1,49.3-1.7,99.4.7,148.5-1,.7,0,1.3,0,2,0ZM271,316v19c-3.8,0-7.7,0-11.5,0s-4.5-.7-5.5,1v19l.5.9c3.1.7,14.6-1.1,16,1l.4,19.5c.2,1.2,1.5.4,2,.6,5.8,2,12.9,1.2,18.9,0,.4-7.3-.3-14.7,0-21.9h1c0,6.2-.1,12.3,0,18.5,0,1.2-.7,3.7,1,3.5v-21h20v22s19-1,19-1c0-5.5,0-11,0-16.5s-.7-4.5,1-5.5c0,6.2-.1,12.3,0,18.5,0,1.2-.7,3.7,1,3.5v-21h18.5c1.5-.3-.5-.9-.5-1-.8-5.8.6-13,0-19-1-1.7-3.8-1-5.5-1-4.2,0-8.4,0-12.5,0-.6-.6.6-15.2,0-18s-1.3-2.1-2-2.5c-1.7-.9-14.9-.9-17.5-.5s-1.5.3-2,1c-.9.7.5.9.5,1,0,6.3,0,12.7,0,19-1.9-4-.9-9.9-1-14.5s.7-3.7-1-3.5v18h-18c-.8-5,1.5-15-1-19s-1.1-1.8-3.4-2.1-17.8-.7-18.6,2.1Z"/>
  <path class="st63" d="M381,297v1c-.3,0-.7,0-1,0-.7,0-1.3,0-2,0h-153.4c-.9-.1-.7,1.3-.6,2,.4,3.5.3,3.1,0,6l-2-9h159Z"/>
  <path class="st69" d="M226,316c3.1-.6,1.7,1.5,2.1,3.4,2,8.5,4.2,17.3,5.9,25.6s-.2,2.8,0,4l-1,1c-2.3-11.3-4.9-22.7-7-34Z"/>
  <path class="st11" d="M236,486l-2,1c-1-1.7-3.8-1-5.5-1-53.8-.5-107.7.4-161.5,0v-1c54.1-.9,108.5,1.2,162.6,0,2.1,0,3.1-1,3.4-1.1s.7,0,1,0c.3,1.2,1.1,1.5,2,2Z"/>
  <path class="st8" d="M509,503H68l440-1v-106.4c0-.2-3.8-1.5-4-1.6,2,.5,3.4-.6,5-1v110Z"/>
  <path class="st87" d="M510,503h-1v-110c.3,0,.7,0,1,0v110Z"/>
  <path class="st192" d="M492,486h1l-1.5,1c-38.8-1.2-78.4,1.5-117.1,0-1.9,0-4,1-3.5-2h1c39.6,2.3,80.1.3,120,1Z"/>
  <path class="st47" d="M495,486s-1,0-1,0v-89c0,0,1,0,1,0v89Z"/>
  <path class="st53" d="M340,485c0,.3.1.8,0,1h-72c.3-.2.6-.7,1-1,1.1-.8,2.6-2.2,4-2,15.7,2.5,41.9,1.7,58.5,1,1.9,0,4,1,3.5-2,1.2.9,3.5,2,5,3Z"/>
  <path class="st178" d="M340,485c0-.4-.1-.9.5-1h.9c9.9,5.7,19,4.2,28.9-.2s3-1.9,2.7,1.2h-2c-7.4,6.2-18.1,6.4-27.3,2.9s-2.5-2.1-3.7-2.9Z"/>
  <path class="st39" d="M338,486h2c-.2.3,0,.8-.6.9-21.3,0-42.6.3-63.9,0s-4.5.7-5.5-1h68Z"/>
  <path class="st197" d="M269,485c-.4.3-.7.8-1,1-2.9,1.8-4.7,2.8-8,4-7.2.1-14.1.5-21-2,.1-1.1-2.1-1.5-3-2s-1.7-.8-2-2c3.9.2,12.1,6,17.5,5.1l17.5-4.1Z"/>
  <path class="st203" d="M260,490c-8.8,3.1-13.3,2.1-22-1l1-1c6.9,2.5,13.8,2.1,21,2Z"/>
  <path class="st86" d="M416,151c0,12.5,0,25,0,37.5-.1.9,0,1.3-1,1.5v-39s-68,0-68,0h-1c0-.7,0-1.3,0-2s1-.9,1.1-2.4c.4-23.9-.4-47.8,0-71.6l68-1,1,.5c-1.3,4.6-1,9.2-1,14,0,20.7.9,41.5,1,62.5Z"/>
  <path class="st89" d="M160,75h69c.3,23.8-.4,47.7,0,71.6,0,1.5,1.1,2.3,1.1,2.4,0,.7,0,1.3,0,2h-1c-21.1-.6-42.4.8-63.5,0-1.9,0-3.8.2-5.5-1v-75Z"/>
  <path class="st64" d="M229,190v-39h1c.2,12.5-.2,25,0,37.5-.1.9,0,1.3-1,1.5Z"/>
  <path class="st174" d="M160,75l70-1v75c0-.1-1-.9-1.1-2.4-.3-23.9.4-47.8,0-71.6h-69Z"/>
  <path class="st181" d="M253,151c0-25.7,0-51.3,0-77h71c0,13.5,0,27,0,40.5,0,11.9,0,24.5,0,36.5-22.8-1.6-48.6,2.2-71,0Z"/>
  <path class="st140" d="M415,74l-68,1c-.3,23.8.5,47.8,0,71.6,0,1.5-1.1,2.3-1.1,2.4v-75s69,0,69,0Z"/>
  <path class="st182" d="M325,462c1.5,2.1.5,7.1,2.7,10.8s1.9,1.3,2,1.5c.6,1.1.1,2.6.8,3.7s4,3.6,4.5,4c.5,3-1.5,1.9-3.5,2-16.7.7-42.9,1.5-58.5-1,1.4-2.5,4-4.7,5.4-7.1s2.4-4.4,2.6-4.9l1.2.7,3.3-8.5c10.8,1.1,22.1.9,33.1.8s4.9-1.9,4.5.2l1-2.3h1Z"/>
  <path class="st145" d="M324,462l-1,2.3c.4-2.2-2-.3-4.5-.2-11,.1-22.2.3-33.1-.8l-3.3,8.5-1.2-.7c.9-2.4.9-6.4,2-9,13.4.8,27.5-.6,41,0Z"/>
  <path class="st1" d="M353.7,445.2c4.3-.8,7.2,0,10.3,3.3,9.6,10-4.2,27.2-14,20s-4.2-5-4.5-5.5c-4-6.9.6-16.4,8.2-17.7Z"/>
  <path class="st97" d="M492,486c-39.9-.7-80.4,1.3-120-1h1c.6-.2,1.6-1,2-1,33.6,4.1,76.5.7,111.5,1,1.7,0,4.5-.7,5.5,1Z"/>
  <path class="st142" d="M363,377c-.2,1.2.2,2.7,0,4-30,0-60,0-90,0l89-1,1-3Z"/>
  <path class="st127" d="M292,317c-.7,5.9.5,13,0,19,6.4-.3,13.2.5,19.5,0,1,0,2.8.4,2.5-1,0-6.3,0-12.7,0-19h19c0,4.8,0,9.7,0,14.5s-.7,4.5,1,5.5h18c-.3,0-.8.9-2.4,1-3.5.2-7.5,0-11.1,0s-4.5-.7-5.5,1c.4,1.7,3.1.9,4.5,1,4.5.2,9-.1,13.5,0v13c-4.7.7-13.2-1.4-17,1s-1.7.7-2,2.5c-.5,3.3.7,19.7,0,20.5-4.8-2-11.1-.6-16,0,.3-1-1-2.2-1-2.5v-19c-.5-.6-.9-1.1-1.6-1.4-2.5-.8-15.4-.4-18.9-.2s-2.1-.4-2.5,1c-1.7,1-1,3.8-1,5.5,0,5.5,0,11,0,16.5-5-1.6-11.9-1.6-17,0-.7-.8.5-17.3,0-20.5s-.8-1.7-2-2.5c-3.6-2.3-10.6-.4-15-1v-13c3.8-.1,7.7.2,11.5,0s4.1.7,4.5-1c-1-1.7-3.8-1-5.5-1-3.3,0-6.8.3-10,0s-1.4-.9-1.5-1h16c1,0,.9-.6,1-1.5.4-3-.7-17.9,0-18.6,4.5,0,9,0,13.5,0s4.5-.7,5.5,1Z"/>
  <path class="st83" d="M353,355h-19c-1.7,1-1,3.8-1,5.5,0,5.5,0,11,0,16.5l-19,1v-22c0-1-.6-.9-1.4-1-6-.7-13.4.6-19.5,0h-1c0-.3,0-.7,0-1,.4-1.4,1.4-1,2.5-1,3.5-.2,16.5-.6,18.9.2s1.2.8,1.6,1.4v19c0,.3,1.3,1.5,1,2.5,4.9-.6,11.1-2,16,0,.7-.8-.5-17.3,0-20.5s.8-1.7,2-2.5h18v-15h-19c1-1.7,3.8-1,5.5-1,3.6,0,7.6.3,11.1,0s2.1-1,2.4-1,.7,0,1,0c.6,6-.8,13.2,0,19Z"/>
  <path class="st32" d="M256,336c.2,0,.7.9,1.5,1,3.2.3,6.7,0,10,0s4.5-.7,5.5,1h-17v15h16c1.2.8,1.7.7,2,2.5.5,3.3-.7,19.7,0,20.5,5-1.6,12-1.6,17,0,0-5.5,0-11,0-16.5s-.7-4.5,1-5.5c0,.3,0,.7,0,1-.4,7.3.4,14.7,0,21.9-6.1,1.3-13.1,2.1-18.9,0v-22s-19,0-19,0v-19c.6,0,1.4-.1,2,0Z"/>
  <path class="st28" d="M378,298c-49.1,1.6-99.2-.7-148.5,1s-3.8-.2-5.5,1c0-.7-.4-2.1.6-2h153.4Z"/>
  <path class="st139" d="M293,316c2.5,4,.2,14,1,19h18v-18c1.7-.2,1,2.3,1,3.5,0,4.6-.9,10.5,1,14.5.3,1.4-1.5.9-2.5,1-6.3.5-13.1-.4-19.5,0,.5-6-.7-13.1,0-19s.8-.6,1-1Z"/>
  <path class="st68" d="M293,316c-.2.4-1,.8-1,1-1-1.7-3.8-1-5.5-1-4.5,0-9,0-13.5,0-.7.7.4,15.6,0,18.6s0,1.5-1,1.5c0-4.8,0-9.7,0-14.5s.7-4.5-1-5.5c.7-2.8,15.5-2.4,18.6-2.1s2.3.2,3.4,2.1Z"/>
  <path class="st189" d="M254,355h19s0,22,0,22c-.6-.2-1.9.6-2-.6l-.4-19.5c-1.4-2.1-12.9-.3-16-1l-.5-.9Z"/>
  <path class="st85" d="M335,317c-1.7,1-1,3.8-1,5.5,0,4.5,0,9,0,13.5-1.7-1-1-3.8-1-5.5,0-4.8,0-9.7,0-14.5h-19c0,0-1.4-.3-.5-1,.5-.8,1.2-.9,2-1,2.6-.4,15.8-.3,17.5.5s1.8,1.7,2,2.5Z"/>
  <path class="st209" d="M314,356h-20v21c-1.7.2-1-2.3-1-3.5-.1-6.2,0-12.4,0-18.5,6.2.6,13.5-.8,19.5,0s1.5,0,1.5,1Z"/>
  <path class="st137" d="M353,355c0,0,2,.7.5,1h-18.5s0,21,0,21c-1.7.2-1-2.3-1-3.5-.1-6.2,0-12.4,0-18.5h19Z"/>
  <path class="st88" d="M335,317c.6,2.8-.6,17.4,0,18,4.2,0,8.3,0,12.5,0s4.5-.7,5.5,1c-.3,0-.7,0-1,0h-18c0-4.5,0-9,0-13.5s-.7-4.5,1-5.5Z"/>
  <path class="st160" d="M272,336h-16c-.6-.1-1.4,0-2,0,1-1.7,3.8-1,5.5-1,3.8,0,7.7,0,11.5,0v-19c1.7,1,1,3.8,1,5.5,0,4.8,0,9.7,0,14.5Z"/>
  <path class="st126" d="M338,486h-67,67Z"/>
  <path class="st213" d="M333,338h19v15h-18c3.8-2.4,12.3-.3,17-1v-13c-4.5-.1-9,.2-13.5,0s-4.1.7-4.5-1Z"/>
  <path class="st131" d="M273,338c-.4,1.7-3.1.9-4.5,1-3.8.2-7.7-.1-11.5,0v13c4.4.6,11.4-1.3,15,1h-16v-15h17Z"/>
</svg>