<svg xmlns="http://www.w3.org/2000/svg" width="96" height="96" fill="none"><g fill-rule="evenodd" clip-path="url(#a)" clip-rule="evenodd"><path fill="#CEDBF2" d="M73.524 34.714h-2.048v2.048h2.048zM40.762 22.43h-2.048v2.047h2.048zm2.048 0h4.095V20.38H42.81zm4.095-6.143h-2.048v2.047h2.048zm4.095 0h-2.047v2.047H51zm2.048-2.048H51v2.048h2.048zm-8.19 0H42.81v2.048h2.047zm-2.048-2.047h-2.048v2.047h2.048zm12.285 0h-2.047v2.047h2.047zm2.048-2.048h-2.048v2.047h2.048zm-16.381 0h-2.048v2.047h2.048zm-2.048-2.048h-2.047v2.048h2.047zm20.477 0h-2.048v2.048h2.048zM36.667 6.048h-2.048v2.047h2.048zm24.571 0h-2.047v2.047h2.047z"/><path fill="#C01969" d="M73.524 53.143h4.095v-4.095h-2.047v2.047h-2.048zM53.048 30.619h-6.143v2.048h6.143z"/><path fill="#E68C4F" d="M69.429 65.429H67.38v2.047h2.048zm10.238 0h-2.048v2.047h2.048zm-8.19-2.048h-2.048v2.047h2.047zm10.237 0h-2.047v2.047h2.047zm-59.38-30.714h6.142v-2.048h-6.142z"/><path fill="#D26218" d="M71.476 65.429H69.43v2.047h2.047zm10.238 0h-2.047v2.047h2.047z"/><path fill="#F168AA" d="M28.476 73.62h-6.142v-4.096h6.142zm18.429-4.096h-6.143V32.667h6.143zM73.524 47h-2.048v2.048h2.048z"/><path fill="#F2B973" d="M34.62 73.62h-6.144v-4.096h6.143zm-6.144-4.096h-6.142V32.667h6.142zM69.43 63.38H67.38v2.048h2.048zm10.238 0h-2.048v2.048h2.048z"/><path fill="#EB2682" d="M34.62 69.524h6.142v4.095h-6.143zm12.285-36.857h6.143v36.857h-6.143zM77.619 47h-4.095v2.048h-2.048v4.095h2.048v-2.048h2.047v-2.047h2.048zM46.905 30.619h-6.143v2.048h6.143z"/><path fill="#64AAE8" d="M40.762 69.524h6.143v4.095h-6.143zM28.476 32.667h6.143v36.857h-6.143zm49.143 2.047h-4.095v2.048h-2.048v4.095h2.048V38.81h2.047v-2.048h2.048zM44.857 22.43h-4.095v2.047h4.095zm8.19-2.048h-6.142v2.048h6.142z"/><path fill="#3979E2" d="M46.905 69.524h6.142v4.095h-6.142zM34.619 32.667h6.143v36.857h-6.143zm43 8.19v-4.095H75.57v2.047h-2.047v2.048zm-43-10.238h-6.143v2.048h6.143zm22.524-8.19H44.857v2.047h12.286z"/><path fill="#fff" d="M24.38 73.62h-2.047v2.047h2.048zm20.477 0H34.62v2.047h10.238zm8.19 0v-4.096h4.096v4.095zM16.19 38.81v30.714h6.143v-34.81h-4.095v4.096z"/><path fill="#3939EA" d="M34.62 73.619H24.38v2.048H34.62zm18.428 0h-8.19v2.048h8.19zm-34.81 0v-4.095h4.096v4.095zm22.524-43H34.62v2.048h6.143zm18.429 38.905h-6.143v-34.81h4.095v4.096h2.048z"/><path fill="#E0D9D0" d="M24.381 75.667h-2.047v2.047h2.047zm10.238 2.047h10.238v-2.047H34.62zm-16.38-2.047h4.095v-2.048h-4.096zm38.904-6.143v4.095h2.048v-4.095zm-43-30.714v30.714h2.048V38.81zm2.048-4.096v4.096h2.047v-4.096zm6.143-2.047h-4.096v2.047h4.096z"/><path fill="#1D1DA1" d="M24.38 77.714H34.62v-2.047H24.381zm20.477 0h8.19v-2.047h-8.19zm8.19-2.047h4.096v-2.048h-4.095zM16.19 69.524v4.095h2.048v-4.095zm43-30.714v30.714h2.048V38.81zm-2.047-4.096v4.096h2.047v-4.096zm0-2.047h-4.095v2.047h4.095z"/><path fill="#F9EFE4" d="M65.334 40.857V28.571h18.428v-2.047H10.048v53.238h2.047v-51.19h51.19v12.285z"/><path fill="#EED3B1" d="M71.476 77.714H69.43v2.048h2.047zm-4.095 0h-2.048v2.048h2.048zm-4.095 0h-2.048v2.048h2.048zm-4.096 0h-2.047v2.048h2.047zM14.143 73.62v-4.095h-2.048v10.238h10.238v-2.048h-4.095v-2.047h-2.047v-2.048zm47.095 4.095v-2.047h2.048v2.047h2.047v-2.047h2.048v-2.048h-2.048v-2.048h6.143v-2.047h-4.095v-2.048h-2.048v-4.095h2.048v-2.048h4.095v2.048h2.048v4.095h2.047v-4.095h2.048v-2.048h4.095v-2.047h-16.38V40.857h-2.048v28.667h-2.048v6.143H59.19v2.047zm14.333-4.095h-2.047v2.048h2.047zm-4.095 0H69.43v2.048h2.047zm4.095-4.095h-2.047v2.047h2.047zm4.096 0h-2.048v2.047h2.048zm-2.048-2.048h-2.048v2.048h2.048zm-4.095 0h-2.048v2.048h2.048zm10.238-6.143h-2.048v2.048h2.048zM63.286 38.81V28.57H53.048v2.048h4.095v2.048h2.047v2.047h2.048v4.096zm-49.143 0v-4.096h2.047v-2.047h2.048v-2.048h4.095v-2.048H12.095V38.81z"/><path fill="#DCA460" d="M79.667 83.857H16.19v2.048h2.047v2.047H77.62v-2.047h2.048zm-69.62-2.047H85.81V26.524h-2.048v32.762h-2.047v2.047h2.047v6.143h-2.047v2.048h-2.048v2.047h4.095v2.048h-8.19v2.048h8.19v2.047H71.476v2.048H69.43v-2.048H67.38v2.048h-2.047v-2.048h-2.048v2.048h-2.048v-2.048h-2.047v2.048h-2.048v-2.048h-4.095v2.048h-43zm49.144-6.143h-2.048v2.047h2.048zm4.095 0h-2.048v2.047h2.048zm6.143-2.048H67.38v2.048h2.048zm4.095 0h-2.048v2.048h2.048zm-12.286 0h-2.047v2.048h2.047zm12.286-4.095h-2.048v2.047h2.048zm4.095 0h-2.047v2.047h2.047zm-2.047-2.048h-2.048v2.048h2.048zm6.142-10.238H67.382V30.62h14.334zM71.477 44.952V47H69.43v6.143h2.047v2.047h6.143v-2.047h2.048V47h-2.048v-2.048zm0-12.285v2.047H69.43v6.143h2.047v2.048h6.143v-2.048h2.048v-6.143h-2.048v-2.047z"/><path fill="#000" d="M77.619 87.952h-59.38V90h59.38zm-59.38-2.047H16.19v2.047h2.048zm61.428 0h-2.048v2.047h2.048zm6.142-4.096H10.049v2.048h4.095v2.048h2.047v-2.048h63.477v2.048h2.047v-2.048h4.096zM38.715 24.477V22.43h-2.047v2.047H8V81.81h2.048V26.524H85.81V81.81h2.047V24.475H59.191V22.43h-2.048v2.047zm14.334 53.238H22.333v2.048h30.715zm30.714-2.047H65.333v2.047h18.429zm-61.429 0h-4.095v2.047h4.095zm34.81 0h-4.095v2.047h4.095zm2.047-2.048h-2.047v2.048h2.047zm-40.952 0h-2.047v2.048h2.047zm-2.047 0v-4.095h-2.048v4.095zm67.57-2.048H65.334v2.048h18.429zM61.239 73.62v-4.095h-2.047v4.095zm20.476-6.143H77.62v2.048h4.095zm-10.238 0h-4.095v2.048h4.095zm-8.19 2.048V38.81h-2.048v30.714zm-49.143 0V38.81h-2.048v30.714zm63.476-2.048v-4.095h-2.048v4.095zm-4.095 0v-4.095h-2.048v4.095zm10.238 0v-4.095h-2.048v4.095zm-16.381 0v-4.095h-2.048v4.095zm14.333-6.143H77.62v2.048h4.095zm-10.238 0h-4.095v2.048h4.095zm12.286-2.047H65.333V28.57h18.429zM67.38 30.619v26.62h14.333v-26.62zm10.238 22.524h-6.143v2.047h6.143zm-6.143 0V47H69.43v6.143zm8.19 0V47H77.62v6.143zm-2.047-8.19h-6.143V47h6.143zm0-4.096h-6.143v2.048h6.143zm2.048 0v-6.143h-2.048v6.143zm-8.19 0v-6.143h-2.048v6.143zM61.237 38.81v-4.096h-2.047v4.096zm-45.047 0v-4.096h-2.048v4.096zm61.428-6.143h-6.143v2.047h6.143zm-18.428 0h-2.048v2.047h2.047zm-40.953 0h-2.047v2.047h2.047zm4.095-2.048h-4.095v2.048h4.095zm34.81 0h-4.095v2.048h4.095zm-4.095-2.048H22.333v2.048h30.715zm4.095-8.19h-4.095v2.048h4.095zm-14.333 0h-4.096v2.048h4.096zm0-4.095v4.095h10.238v-4.095H51v2.047h-2.048v-2.047h-2.047v2.047h-2.048v-2.047zM51 14.238h-2.048v2.048H51zm4.095 0h-2.047v2.048h2.047zm-8.19 0h-2.048v2.048h2.048zm-4.096 0h-2.047v2.048h2.047zm14.334-2.047h-2.048v2.047h2.048zm-4.095 0H51v2.047h2.048zm-8.19 0H42.81v2.047h2.047zm-4.096 0h-2.048v2.047h2.048zm-2.048-2.048h-2.047v2.047h2.047zm4.096 0h-2.048v2.047h2.047zm12.285 0h-2.047v2.047h2.047zm4.096 0h-2.048v2.047h2.047zm2.047-2.048h-2.047v2.048h2.047zm-4.095 0h-2.048v2.048h2.048zm-20.476 0h-2.048v2.048h2.048zm4.095 0h-2.048v2.048h2.048zm22.524-2.047h-2.048v2.047h2.048zm-4.096 0h-2.047v2.047h2.047zm-24.571 0h-2.048v2.047h2.048zm4.095 0h-2.047v2.047h2.047zM36.667 4h-2.048v2.048h2.048zm24.571 0h-2.047v2.048h2.047z"/></g><defs><clipPath id="a"><path fill="#fff" d="M8 4h79.857v86H8z"/></clipPath></defs></svg>