<?xml version="1.0" encoding="UTF-8"?>
<svg id="Layer_1" xmlns="http://www.w3.org/2000/svg" version="1.1" viewBox="0 0 692 692">
  <!-- Generator: Adobe Illustrator 29.7.1, SVG Export Plug-In . SVG Version: 2.1.1 Build 8)  -->
  <defs>
    <style>
      .st0 {
        fill: #d46548;
      }

      .st1 {
        fill: #12121a;
      }

      .st2 {
        fill: #daa46b;
      }

      .st3 {
        fill: #e1d496;
      }

      .st4 {
        fill: #ca5c44;
      }

      .st5 {
        fill: #7f6357;
      }

      .st6 {
        fill: #0c0c16;
      }

      .st7 {
        fill: #fbe4a8;
      }

      .st8 {
        fill: #e2ae74;
      }

      .st9 {
        fill: #f3c995;
      }

      .st10 {
        fill: #977862;
      }

      .st11 {
        fill: #171e34;
      }

      .st12 {
        fill: #161e32;
      }

      .st13 {
        fill: #fefed8;
      }

      .st14 {
        fill: #843129;
      }

      .st15 {
        fill: #8a332b;
      }

      .st16 {
        fill: #4a4537;
      }

      .st17 {
        fill: #02040b;
      }

      .st18 {
        fill: #fbecb8;
      }

      .st19 {
        fill: #e3ae73;
      }

      .st20 {
        fill: #f0b989;
      }

      .st21 {
        fill: #be533e;
      }

      .st22 {
        fill: #252d3b;
      }

      .st23 {
        fill: #f4ca96;
      }

      .st24 {
        fill: #947044;
      }

      .st25 {
        fill: #e3af74;
      }

      .st26 {
        fill: #192033;
      }

      .st27 {
        fill: #f3ca96;
      }

      .st28 {
        fill: #ab4636;
      }

      .st29 {
        fill: #d79761;
      }
    </style>
  </defs>
  <path class="st12" d="M32,158c3.7.4,14.2.6,17.5,0s1.9-.5,2.5-1.5v-27.5h22l1,51h-23c0,.7,0,1.3,0,2,0,2,0,4,0,6h-1v-5.5s-1-.5-1-.5v334c.5.8,1.3.7,2,1,6.8,2.5,16.5.2,24,1l-1,49c-.7,0-1.3,0-2,0l3,2c-8.1-.6-17.2,1.3-25-1h10s-9-1-9-1v-26h-21s1-383,1-383Z"/>
  <path class="st1" d="M76,103c0-.7-.5-2.1.6-2h539.4c-.1,8.3.1,16.7,0,25s.6,4.2-1,5c0-1.1.2-2.3-.1-3.4l-.9-.6c-.3,0-.7,0-1,0-1.5-.2-3.4,0-5,0-1.3-1.7-5.7-1.7-7,0-2.3,0-4.7,0-7,0-.3-1.5-3.6-1.6-4,0-8.3,0-16.7,0-25,0-4.6-1.7-12.3-1.7-17,0-4,0-8,0-12,0-6.1-1.7-14.9-1.7-21,0-1,0-2,0-3,0-3-1.7-9.8-1.7-13,0-4.3,0-8.7,0-13,0-1-1.7-3.8-1-5.5-1-6.2,0-13.7-.8-19.5,1h-3c-2.2-1.7-8-1.7-10,0-1.3,0-2.7,0-4,0-.9-1.6-5-1.6-6,0-1,0-2,0-3,0-1.3-1.7-5.7-1.7-7,0h-6c-1.9-1.7-7.1-1.7-9,0h-10c-5.4-1.7-13.6-1.7-19,0-1.3,0-2.7,0-4,0-4.6-1.7-12.3-1.7-17,0-2.7,0-5.3,0-8,0-6.8-1.7-16.2-1.7-23,0h-8c-1.5-1.7-6.4-1.7-8,0-1,0-2,0-3,0-2.2-1.7-8-1.7-10,0-.7,0-1.3,0-2,0-3.6-1.7-10.6-1.7-14,0h-9c-1-1.7-3.8-1-5.5-1-8,0-16,0-24,0-1.7,0-4.4-.6-5.5,1-.7,0-1.3,0-2,0-3.6-1.7-10.6-1.7-14,0-6,0-12,0-18,0-.3-1.5-3.6-1.6-4,0-1.7,0-3.3,0-5,0-.1-1.5-2.9-1.5-3,0h-4c-1-1.7-3.8-1-5.5-1-7.6,0-16.3-.7-23.5,1-2.7,0-5.3,0-8,0-1.9-1.7-7.1-1.7-9,0-11.3,0-22.7,0-34,0-.1-1.5-2.9-1.5-3,0-11,0-22,0-33,0,0,9.7,0,19.4,0,29s0,17.3,0,26c-8.3-.2-16.7.2-25,0,0-.7,0-1.3,0-2h23s-1-51-1-51h-22v27.5c-.6,1-1.4,1.3-2.5,1.5-3.3.6-13.8.4-17.5,0s-1.4-.8-2-1v-2s21,0,21,0v-29c7.5-.2,15.1.3,22.6,0s2.3-1,2.4-1c.7,0,1.3,0,2,0h536v-22H76Z"/>
  <path class="st17" d="M661,156c.7,0,2.1-.5,2,.6v385.7c-.7,2.9-18.6,1.2-22,1.7v25h-25c0-17.3-.2-34.7,0-52h25l-23,1v49h21s1-25,1-25l21-1c0-127.7,0-255.4,0-383v-2Z"/>
  <path class="st1" d="M571,443c.6,3.6-.8,22.2,0,23,6.9.6,15.3-.9,22,0s.7,0,1,0v23.6s1,1.4,1,1.4c.7,0,1.3,0,2,0,4.4.4,9.4-.1,14,0s.7,0,1,0c1.3,0,2.7,0,4,0,0,8.7,0,17.3,0,26-.2,17.3,0,34.7,0,52s0,15.4,0,23h-225v-2h223c.2-6.6-.3-13.4,0-20s1-.7,1-1,0-.7,0-1c.4-13.5,1.8-38.6,0-51s-.5-.9-1-1c1.2-3.5,1.9-22.3,0-23.6-.7-.6-1.3.6-1.5.6h-17.5v22h18v1s-8,1-8,1h-11v-26s-24,0-24,0c0-8,0-16,0-24v-24h1ZM592,468h-20v21h20v-21Z"/>
  <path class="st17" d="M32,158l-1,383h21v26l9,1h-10s0-24,0-24h-21V157c.6.2,1.5.9,2,1Z"/>
  <path class="st6" d="M160,590v2c-24.1,0-58.9,2.8-81.6,0s-2.3.3-2.4-1c.7,0,1.7-1,2-1,23.4-2.7,57.4,0,82,0Z"/>
  <path class="st6" d="M620,126h21v30c6.3.6,13.9-.8,20,0v2c-7-.8-16,1.8-22-1.5v-27.5c-6.2.4-12.9-.5-19,0v-3Z"/>
  <path class="st6" d="M215,590v2c-17.3,0-34.7,0-52,0v-2c17.3,0,34.7,0,52,0Z"/>
  <rect class="st6" x="355" y="590" width="28" height="2"/>
  <path class="st6" d="M246,590v2c-9,0-18,0-27,0v-2c9,0,18,0,27,0Z"/>
  <path class="st1" d="M75,567c.7,0,1.3,0,2,0,0,.3,0,.7,0,1s0,.7,0,1l1,1v20c-.3,0-1.3,1.1-2,1v-22l-3-2c.7,0,1.3,0,2,0Z"/>
  <path class="st6" d="M78,103v22c-.7,0-1.3,0-2,0,.6-7-.9-15.2,0-22h2Z"/>
  <rect class="st1" x="303" y="590" width="20" height="2"/>
  <path class="st6" d="M618,126v3l-1,1.4c0,8.5,0,17,0,25.6h-1c-.6-6.7,1.3-14.6-1-21,0-1.3,0-2.7,0-4,1.6-.8,1-3.4,1-5h2Z"/>
  <rect class="st1" x="246" y="590" width="15" height="2"/>
  <rect class="st6" x="339" y="590" width="12" height="2"/>
  <rect class="st1" x="266" y="590" width="10" height="2"/>
  <rect class="st6" x="276" y="590" width="10" height="2"/>
  <rect class="st6" x="323" y="590" width="9" height="2"/>
  <rect class="st1" x="286" y="590" width="7" height="2"/>
  <rect class="st1" x="332" y="590" width="7" height="2"/>
  <rect class="st6" x="261" y="590" width="5" height="2"/>
  <rect class="st1" x="383" y="590" width="5" height="2"/>
  <path class="st1" d="M219,590v2c-1.3,0-2.7,0-4,0v-2h4Z"/>
  <path class="st6" d="M297,590v2c-1.3,0-2.7,0-4,0v-2c1.3,0,2.7,0,4,0Z"/>
  <rect class="st1" x="351" y="590" width="4" height="2"/>
  <rect class="st6" x="388" y="590" width="3" height="2"/>
  <rect class="st6" x="300" y="590" width="3" height="2"/>
  <path class="st1" d="M300,590v2c-1,0-2,0-3,0v-2c1,0,2,0,3,0Z"/>
  <path class="st1" d="M163,590v2c-1,0-2,0-3,0v-2c1,0,2,0,3,0Z"/>
  <path class="st17" d="M620,126v3c-.7,0-1.3,0-2,0v-3h2Z"/>
  <path class="st22" d="M50,516V182v334Z"/>
  <polygon class="st17" points="51 188 51 511.5 50 516 50 182 51 182.5 51 188"/>
  <path class="st1" d="M52,207c-.3,103,.2,206,0,309v1c-.7-.3-1.5-.2-2-1l1-4.5V188h1c-.1,6.3,0,12.7,0,19Z"/>
  <path class="st20" d="M77,182c0,.3,0,.7,0,1,0,8,0,16,0,24s-.7,17.3,0,25c7.6.4,16.7.5,24-1v25h-2c0-7.3,0-14.7,0-22h-22c0-.7,0-1.3,0-2-.7,0-1.3,0-2,0l.6-23.1c-1.8-2.5-17.8-.2-21.6,0h-1c0-.7,0-1.3,0-2h23c0-.7,0-1.3,0-2,.4-7.3-.3-14.7,0-22h-23v22c0,.7,0,1.3,0,2h-1c0-6.3-.1-12.7,0-19s0-4,0-6c8.3.2,16.7-.2,25,0Z"/>
  <path class="st17" d="M77,517c0,15.9-1.2,34.4,0,50-.7,0-1.3,0-2,0l1-49c-7.5-.8-17.2,1.5-24-1,8.3,0,16.7,0,25,0Z"/>
  <rect class="st12" x="78" y="103" width="536" height="22"/>
  <path class="st13" d="M110,127c1,0,2,0,3,0,11.3,0,22.7,0,34,0,3,0,6,0,9,0s5.3,0,8,0c9.7,0,19.3,0,29,0h4c1,0,2,0,3,0,1.7,0,3.3,0,5,0s2.7,0,4,0c6,0,12,0,18,0s9.3,0,14,0,1.3,0,2,0h58c.7,0,1.3,0,2,0,3.3,0,6.7,0,10,0s2,0,3,0c2.7,0,5.3,0,8,0h8c7.7,0,15.3,0,23,0s5.3,0,8,0c5.7,0,11.3,0,17,0s2.7,0,4,0c6.3,0,12.7,0,19,0h25c2.3,0,4.7,0,7,0s2,0,3,0c2,0,4,0,6,0s2.7,0,4,0h13c8.3,0,16.7,0,25,0s8.7,0,13,0,8.7,0,13,0,2,0,3,0c7,0,14,0,21,0s8,0,12,0c5.7,0,11.3,0,17,0,8.3,0,16.7,0,25,0s2.7,0,4,0c2.3,0,4.7,0,7,0s4.7,0,7,0,3.5-.2,5,0c0,.9-.2,1.5-1,2H79l-.5-1-.5,1v1c0,8.7,0,17.3,0,26h-1c0-9.7,0-19.4,0-29,11,0,22,0,33,0Z"/>
  <path class="st7" d="M78,158c0,7,0,14,0,21l.9,1.5,22.1-.5c.1.5,1.5,1.5,2,2-.5,0-1.5,1-2,1-8.1.1-16-.8-24-1,0-8.7,0-17.3,0-26h1c0,.7,0,1.3,0,2Z"/>
  <path class="st16" d="M278,127h-35c1-1.7,3.8-1,5.5-1,8,0,16,0,24,0s4.4-.6,5.5,1Z"/>
  <path class="st13" d="M615,131c0,1.3,0,2.7,0,4,.2,7,0,14,0,21h-1v-29l.9.6c.3,1.1,0,2.3.1,3.4Z"/>
  <path class="st16" d="M193,127c-9.7,0-19.3,0-29,0,7.2-1.8,16-1.1,23.5-1s4.4-.6,5.5,1Z"/>
  <path class="st16" d="M486,127c-8.3,0-16.7,0-25,0,5.8-1.8,13.3-1.1,19.5-1,1.7,0,4.4-.6,5.5,1Z"/>
  <path class="st16" d="M355,127c-7.7,0-15.3,0-23,0,6.8-1.7,16.2-1.7,23,0Z"/>
  <path class="st16" d="M536,127c-7,0-14,0-21,0,6.1-1.7,14.9-1.7,21,0Z"/>
  <path class="st16" d="M403,127c-6.3,0-12.7,0-19,0,5.4-1.7,13.6-1.7,19,0Z"/>
  <path class="st16" d="M565,127c-5.7,0-11.3,0-17,0,4.7-1.7,12.4-1.7,17,0Z"/>
  <path class="st16" d="M380,127c-5.7,0-11.3,0-17,0,4.7-1.7,12.4-1.7,17,0Z"/>
  <path class="st16" d="M241,127c-4.7,0-9.3,0-14,0,3.4-1.7,10.4-1.7,14,0Z"/>
  <path class="st16" d="M301,127h-14c3.4-1.7,10.4-1.7,14,0Z"/>
  <path class="st16" d="M512,127c-4.3,0-8.7,0-13,0,3.2-1.7,10-1.7,13,0Z"/>
  <path class="st16" d="M313,127c-3.3,0-6.7,0-10,0,2-1.7,7.8-1.7,10,0Z"/>
  <path class="st16" d="M458,127h-10c2-1.7,7.8-1.7,10,0Z"/>
  <path class="st16" d="M422,127h-9c1.9-1.7,7.1-1.7,9,0Z"/>
  <path class="st16" d="M156,127c-3,0-6,0-9,0,1.9-1.7,7.1-1.7,9,0Z"/>
  <path class="st16" d="M324,127c-2.7,0-5.3,0-8,0,1.6-1.7,6.5-1.7,8,0Z"/>
  <path class="st16" d="M608,127c-2.3,0-4.7,0-7,0,1.3-1.7,5.7-1.7,7,0Z"/>
  <path class="st16" d="M435,127c-2.3,0-4.7,0-7,0,1.3-1.7,5.7-1.7,7,0Z"/>
  <path class="st16" d="M444,127c-2,0-4,0-6,0,1-1.6,5.1-1.6,6,0Z"/>
  <path class="st16" d="M594,127c-1.3,0-2.7,0-4,0,.4-1.6,3.7-1.5,4,0Z"/>
  <path class="st16" d="M209,127c-1.3,0-2.7,0-4,0,.4-1.6,3.7-1.5,4,0Z"/>
  <path class="st16" d="M113,127c-1,0-2,0-3,0,.1-1.5,2.9-1.5,3,0Z"/>
  <path class="st16" d="M200,127c-1,0-2,0-3,0,.1-1.5,2.9-1.5,3,0Z"/>
  <path class="st27" d="M614,129c-2.5,3.1,0,23-1,24l-12,1c-2.4,0-4.9,0-7.3,0-.7.2-1.7,2.3-1.7,2.5v24.5c-5.3-1.4-11-1.2-16.5-1s-4-1-3.5,2h-1c-2.5,3.1,0,23-1,24-7.1.6-15.2-1.3-22,1-2.6.9,0,8.5,0,10.5.2,4.2,0,8.3,0,12.5,7-.4,14.4,1,21-1s1.4.1,2,0c0,1,0,2,0,3-8,0-16,0-24,0,.2,8.6-.2,17.4,0,26-7.5.2-15.1-.3-22.6,0s-2.3,1-2.4,1c-.3,0-.7,0-1,0-8.3.3-16.7-.2-25,0,0-7.9-.3-16.1,0-24s2.9-3.7-.7-4.8l-22.3-.2v-24c-6.2-1.4-13.9-1.8-20,0v-21.6s-1-1.4-1-1.4v-1h-75l-1.4,23.1c-1.2,1.7-17.2.9-20.6.9-6.6,0-13.4,0-20,0s-4.7,0-7,0-.4-.7-1.2-.7-.6.7-.8.7h-11v-23.5c-.9-1.4-2-1.4-3.4-1.6-17.6-2.1-45.4-.2-64.1,0s-4.4-.6-5.5,1v1l-1,1.4v21.6c-6.6.2-13.3-.3-20,0s-1.3,0-2,0v23c-1.3,0-2.7,0-4,0-2.6-.1-5.4,0-8,0v2c-3.1.2-6.9-.8-9.6.9-.9,1.3-.5,18.7-.4,22.1-6.3,3.6-13.5-.1-20.5,1l-3.5-4c0-6.3,0-12.7,0-19h-24c0-.9.3-1.9-1-2,0-.3,0-.7,0-1-.2-2.4-.8-4.2-1-6,2.1-5.7-1.2-10.4,1-16l-22-1c-.8-4.5,1.5-20.5-1-23s-18.1-1.1-22-1c-.5-.5-1.9-1.5-2-2-.8-3.6.9-23.2,0-24h-23c0-8.6,0-17.3,0-26h530.6c1.8.5,2.3-.4,3.4-1s1-1.1,1-2c.3,0,.7,0,1,0v2ZM546,232l-23,1v22c7.6,2.1,15.4.2,23,1v-24Z"/>
  <path class="st12" d="M620,129c6.1-.5,12.8.4,19,0v27.5c6,3.3,15,.7,22,1.5,0,127.7,0,255.4,0,383l-21,1-1,25h-21v-49l23-1v-1c1.7-1,1-3.8,1-5.5,1.3-108.6-1-217.4,0-326l-1.7-4.5h-22.3v-51c.7,0,1.3,0,2,0Z"/>
  <path class="st3" d="M616,491l1,1.4v21.6c6.4-1.7,14.1-1.1,21-1s.7,0,1,0,.5.9,1,0h1c0,1,0,2,0,3v1h-25c0-8.7,0-17.3,0-26Z"/>
  <path class="st22" d="M618,567v-49,49Z"/>
  <path class="st11" d="M614,570c-.3,6.6.2,13.4,0,20h-223s-3,0-3,0h-88c-1,0-2,0-3,0s-2.7,0-4,0h-47c-9,0-18,0-27,0h-4c-17.3,0-34.7,0-52,0-1,0-2,0-3,0-24.6,0-58.6-2.7-82,0v-20h536Z"/>
  <path class="st17" d="M615,569c0,.3-1,.8-1,1H78l-1-1h538Z"/>
  <path class="st24" d="M614,568h1c0,.3,0,.7,0,1H77c0-.3,0-.7,0-1h537Z"/>
  <path class="st26" d="M614,516v1h-9l8-1v-1s-18,0-18,0v-22h17.5c.3,0,.8-1.2,1.5-.6,1.9,1.3,1.2,20.1,0,23.6Z"/>
  <path class="st3" d="M570,491h24s0,26,0,26h-2v-24s-22,0-22,0c0-.7,0-1.3,0-2Z"/>
  <path class="st18" d="M594,517h21c1.8,12.4.4,37.5,0,51h-1v-2c0-15.5,0-31,0-46.6l-1-1.4c-1.7,0-3.3,0-5,0s-4,0-6,0-1.3,0-2,0c-1,0-2,0-3,0s-1.3,0-2,0-.7,0-1,0c-.7,0-1.3,0-2,0v-1h2Z"/>
  <path class="st13" d="M596,489h20c0,.7,0,1.3,0,2-1.3,0-2.7,0-4,0l-.5-1-.5,1c-4.6-.1-9.6.4-14,0l-1.5-1-.5,1-1-1.4v-23.6s1,1.5,1,1.5v20.1s1,1.4,1,1.4Z"/>
  <path class="st8" d="M597,491c-.7,0-1.3,0-2,0l.5-1,1.5,1Z"/>
  <path class="st8" d="M612,491c-.3,0-.7,0-1,0l.5-1,.5,1Z"/>
  <path class="st3" d="M615,517h-1v-1c.5.1.9.5,1,1Z"/>
  <path class="st18" d="M101,517h1v1c-.3,0-.7,0-1,0-7.3,0-14.7,0-22,0l-1,1.4c0,15.2,0,30.4,0,45.6v3h-1c0-.3,0-.7,0-1-1.2-15.6,0-34.1,0-50,8,0,16,0,24,0Z"/>
  <path class="st17" d="M617,156c0,7.5,0,15,0,22.6l1,1.4h22.3s1.7,4.5,1.7,4.5c-1,108.6,1.4,217.4,0,326,0,1.7.6,4.4-1,5.5,0-1,0-2,0-3,5.3-99.7-3.9-203.9,0-304,0-.7,0-1.3,0-2s0-1.3,0-2v-22c-7.5-2.3-16.2-.4-24-1l-2-24c0-.7,0-1.3,0-2h2Z"/>
  <path class="st22" d="M618,180l-1-1.4c0-7.5,0-15,0-22.6s0-17,0-25.6l1-1.4v51Z"/>
  <path class="st16" d="M616,156h-1c0-7,.2-14,0-21,2.3,6.4.4,14.3,1,21Z"/>
  <path class="st18" d="M53,209c0,.3,0,.7,0,1,0,8.3,0,16.7,0,25s0,15.3,0,23,0,1.3,0,2v123c0,.7,0,1.3,0,2,0,10.7,0,21.3,0,32s0,7.3,0,11c0,29,0,58,0,87l22-1v-1c0-5.3-.1-10.7,0-16h2c0,6.3,0,12.7,0,19h-25c.2-103-.3-206,0-309h1c0,.7,0,1.3,0,2Z"/>
  <path class="st10" d="M77,516c0,.3,0,.7,0,1-8.3,0-16.7,0-25,0v-1h25Z"/>
  <path class="st25" d="M54,209c3.8-.2,19.8-2.6,21.6,0l-.6,23.1c.7,0,1.3,0,2,0,0,.7,0,1.3,0,2l1.4,1h19.6s0,21,0,21h-19.4c-1.2.2-.4,1.7-.6,2s-.9.7-1,1c-.6,1.8-2,7.1-2,8.5v210c0,.3.9,1.7,1,3,.2,2.8-1,6.6,1,8.5,0,.7,0,1.3,0,2-.7,0-1.3,0-2,0,0,2,0,4,0,6-.1,5.3,0,10.7,0,16h-20s0-81.5,0-81.5l-2-3.5c0-3.7,0-7.3,0-11,3,.6,1.9-1.5,2-3.5.3-8,.3-17,0-25.1s1-4-2-3.5c0-.7,0-1.3,0-2,3,.6,1.9-1.5,2-3.5,1.5-36.9,1.2-79.1,0-116.1s1-4-2-3.5c0-.7,0-1.3,0-2,3,.6,1.9-1.5,2-3.5.2-5.2.2-10.9,0-16.1s1-4-2-3.5c0-8.3,0-16.7,0-25l1-1Z"/>
  <path class="st10" d="M53,205v-22h23c-.3,7.3.4,14.7,0,22h-23Z"/>
  <path class="st1" d="M80,184c-1.3,6.9-1,14-1,21h21s0,2,0,2h-23c0-8,0-16,0-24,.9.5,1.9.9,3,1Z"/>
  <path class="st5" d="M78,208c.1,7.7,1.4,14.3,0,22,7,0,14,0,21,0h2v1c-7.3,1.5-16.4,1.4-24,1-.7-7.7,0-17,0-25h1v1Z"/>
  <path class="st6" d="M101,183v24c-.3,0-.7,0-1,0v-2c0-7,0-14,0-21-6.6-.3-13.4.5-20,0s-2.1-.5-3-1c0-.3,0-.7,0-1,8,.2,15.9,1.1,24,1Z"/>
  <path class="st5" d="M76,205c0,.7,0,1.3,0,2h-23c0-.7,0-1.3,0-2h23Z"/>
  <path class="st2" d="M53,210c0-.3,0-.7,0-1h1l-1,1Z"/>
  <path class="st20" d="M612,129c-1.1.6-1.6,1.5-3.4,1.1H78v-1.1h534Z"/>
  <polygon class="st18" points="79 129 78 129 78.5 128 79 129"/>
  <path class="st8" d="M78,158h22v21h-22c0-7,0-14,0-21Z"/>
  <path class="st2" d="M125,183v22h-22c-.2-5.8.2-11.7,0-17.5s1-4-2-3.5v-1c.5,0,1.5-1,2-1,3.9,0,20.2-.8,22,1ZM123,184h-19v20h19v-20Z"/>
  <path class="st2" d="M78,156h23c.8.8-.8,20.4,0,24l-22.1.5-.9-1.5h22v-21h-22c0-.7,0-1.3,0-2Z"/>
  <path class="st7" d="M601,154c4.3-.1,8.7,0,13,0v2h-20c-1.7,1-1,3.8-1,5.5,0,6.2-.8,13.7,1,19.5v1c-.7,0-1.3,0-2,0-6.6.2-13.4-.2-20,0-.6-3,1.5-1.9,3.5-2,5.5-.2,11.2-.4,16.5,1v-24.5c0-.3,1-2.3,1.7-2.5,2.4,0,4.9.1,7.3,0Z"/>
  <path class="st20" d="M614,154c-4.3,0-8.7-.1-13,0l12-1c1-1-1.5-20.9,1-24v25Z"/>
  <path class="st9" d="M615,158c0,7.7,0,15.3,0,23h-1v-25h1c0,.7,0,1.3,0,2Z"/>
  <path class="st8" d="M638,209v304c-6.8,0-14.5-.7-21,1v-21.6s-1-1.4-1-1.4c0-.7,0-1.3,0-2s1.1-1.5,1.1-3.4c.5-75.7-.6-151.4,0-227,.1-1.1-1.3-.5-2-.6-5.5-.7-15.2-.3-21,0s-1.3,0-2,0v23s-43,0-43,0c0-1.3,0-2.7,0-4,2.3-5.4.4-12.3,1-18,1.6.5,3.3.7,5,1s2.9,1.8,5,1v-2c3.4-.2,7.8.5,11,0s1-.4,1-1v-3l1-20c5.8-.8,15.1,1.5,20-1s1-1.8,1-2c0-.3,0-.7,0-1h2c1-1.9-1-4.7-1-5,0-.7,0-1.3,0-2l1-14c1-1,17.3,1.5,20-1,7.5-.1,14.7-1.6,22,0Z"/>
  <path class="st7" d="M641,207c0,.7,0,1.3,0,2l-1,304c-.5.9-.9,0-1,0,0-101.3,0-202.7,0-304v-2h2Z"/>
  <path class="st29" d="M639,513c-.3,0-.7,0-1,0V209h1c0,101.3,0,202.7,0,304Z"/>
  <path class="st20" d="M641,513h-1l1-304c-3.9,100.1,5.3,204.3,0,304Z"/>
  <rect class="st7" x="78" y="566" width="536" height="2"/>
  <path class="st2" d="M570,493h22s0,24,0,24v1c-3.5,0-20.4.8-21.6-.9-.9-8-.4-16.1-.4-24.1ZM591,494h-19v20h16.5c.3,0,1.4,1.4,2.5,1v-21Z"/>
  <path class="st18" d="M570,491c0,.7,0,1.3,0,2-1.3-.1-.9-1.1-1-2-.7-7.3.5-15.6,0-23,.2,0,.6-.8,1-1,0,8,0,16,0,24Z"/>
  <path class="st23" d="M240,390c0,3.5-.6,23.9.2,24.8s1.6,0,1.8.2-.5,1.7.7,2c3.1.8,20.6-.8,21.3,0l1,24,1,1c2.3,1.9,18.5,1,23,1v1c0,3,0,6,0,9,0,4.3,0,8.7,0,13,6.3,0,12.7,0,19,0h3c.4,3.6,1.9,3.7,2,4,1.3,4.3-.7,15.5,0,21s-.5,2.1.6,2c19.9-.6,40,.8,59.9,0s4,1,3.5-2c.3,0,.7,0,1,0,.7,0,1.3,0,2,0v-22c0-1,0-2,0-3,7.6-.3,15.4.4,23,0s1.3,0,2,0v-23s21.6,0,21.6,0l1.5-1c0-.3,0-.7,0-1l1-24c.8-.8,18.2.8,21.3,0s.5-1.9.7-2,1.7.5,2-.7c1.4-5.3-1.1-16.3,0-22.3,5.6-.4,11.8,1.1,17-1,0,.3,0,.7,0,1,0,6.4-1.1,17.7,1,23s-.6,1.8.6,2c8.1,0,16.3,0,24.4,0,.3,8-.4,16.1,0,24s0,1.3,0,2c8.7,0,17.4,0,26,0,.3,7.6-.4,15.4,0,23s0,1.3,0,2h24c0,4.3,0,8.7,0,13s0,6.7,0,10c.7,0,1.3,0,2,0,7,.3,14-.2,21,0,0,.9-.3,1.9,1,2,0,8-.4,16.1.4,24.1,1.2,1.7,18.1.9,21.6.9s1.3,0,2,0v24.6s-1,1.4-1,1.4l-492-1c0-.7,0-1.3,0-2-.3-7.6.2-15.4,0-23,.3,0,.7,0,1,0,7.2,0,14.4,0,21.6,0l1.4-1c0-8,0-16,0-24l.9-.6c.2-.8,0-1.6,0-2.4h22c1.9-7.4,1-16.2,1-24h24s0-23,0-23c3.4,0,22.9.5,23.8-.2s0-1.6.2-1.8,2.4.6,2.1-1.4v-22.6c0,0,21.9,0,21.9,0,0-.7,0-1.3,0-2,.4-7.6-.3-15.4,0-23,3.2-.4,1.6-1.7,2-2,1.3-.8,14.1.6,17,0Z"/>
  <path class="st19" d="M79,518c6.4,2.3,14.3.4,21,1,1,1-1.5,19.1,1,22,0,.7,0,1.3,0,2s0,.7,0,1c.1.7-.5,2.1.6,2h491.7c3.1-.7,1.1-24,1.7-28,.7,0,1.3,0,2,0,.1,1.5,2.9,1.5,3,0,.7,0,1.3,0,2,0,1,1.6,5.1,1.6,6,0,1.7,0,3.3,0,5,0v47s-535,0-535,0c0-15.2,0-30.4,0-45.6l1-1.4Z"/>
  <path class="st29" d="M614,566H78v-1h535s0-47,0-47l1,1.4c0,15.5,0,31,0,46.6Z"/>
  <path class="st29" d="M595,518c-.6,4.1,1.4,27.3-1.7,28H101.6c-1.1,0-.5-1.3-.6-2h492l1-1.4v-24.6c.3,0,.6,0,1,0Z"/>
  <path class="st29" d="M608,518c-.9,1.6-5,1.6-6,0,2,0,4,0,6,0Z"/>
  <path class="st29" d="M600,518c-.1,1.5-2.9,1.5-3,0,1,0,2,0,3,0Z"/>
  <path class="st9" d="M594,282l1-1.5v-21.5s19,0,19,0v229c-5.7.6-12.6-1.3-18,1l-1-1.4v-20.1s-1-1.5-1-1.5c-.3,0-.7,0-1,0-2.8-2.5-20,0-21-1-.2-7.5.3-15,0-22.5s.5-3.9-2-1.5c-6,.2-12-.3-18,0s-1.4-.1-2,0l-2-1c0-.3,0-.7,0-1,6.5-.2,13,.3,19.5,0s3.7.8,3.5-1h-21c-.2-7.2.7-14.1-1-21s-.7-2.7-1-4l-1.4-1h-21.6c-.8-6.2,1.6-16.7-1-22s-1.5-1.4-2-2,.6-1.8-.6-2h-22.4c0,0-1-16-1-16,0-2,0-4,0-6,0-8.7,0-17.4,0-26h22.6c2,.4,1.3-1.8,1.4-2s1.4.3,1.8-.2c1.2-1.3-.4-21.2.2-24.8h23.4c1.2-.2.4-1.5.6-2,2.2-5.4.9-18.3,1-25,13.5-.3,27.1.5,40.5,0s4,1,3.5-2c.3,0,.7,0,1,0Z"/>
  <path class="st29" d="M615,258c.7,0,2.1-.5,2,.6-.5,75.7.6,151.4,0,227,0,1.8-1.1,3.2-1.1,3.4h-1v-231Z"/>
  <path class="st25" d="M614,488h1v1h-19c5.4-2.3,12.3-.4,18-1Z"/>
  <path class="st1" d="M102,491c-1.7,8.4-.8,17.2-1,26-8,0-16,0-24,0,0-.3,0-.7,0-1,0-6.3,0-12.7,0-19s0-4,0-6c2.3-.1,4.7,0,7,0h4c.7,0,1.3,0,2,0h2c2.3,0,4.8.2,7,0h1l1-2c1,0,1.1,1.3,1,2ZM100,493h-19.5l-1.5,1.5v19.5c4.5.1,9-.2,13.5,0s7.5,2.1,7.5-.5v-20.5Z"/>
  <path class="st3" d="M107,491h18c0,.7,0,1.3,0,2h-22s0,24,0,24h-2c.2-8.8-.7-17.6,1-26h5Z"/>
  <path class="st29" d="M101,518c.2,7.6-.3,15.4,0,23-2.5-2.9,0-21-1-22-6.7-.6-14.6,1.3-21-1,7.3,0,14.7,0,22,0Z"/>
  <path class="st7" d="M125,517l-1.4,1c-7.2,0-14.4,0-21.6,0v-1h23Z"/>
  <path class="st20" d="M641,183c-.7,0-1.3,0-2,0-7.3-.4-14.7.3-22,0-.8.8.5,18.5,0,22s-.5.9-1,1v-24c.3,0,.7,0,1,0,7.8.6,16.5-1.3,24,1Z"/>
  <path class="st16" d="M617,182c-.3,0-.7,0-1,0l-1-1c0-7.7,0-15.3,0-23l2,24Z"/>
  <path class="st2" d="M53,260c3-.6,1.9,1.5,2,3.5,1.2,37,1.5,79.2,0,116.1,0,1.9,1,4-2,3.5v-123Z"/>
  <path class="st2" d="M53,428l2,3.5v81.6s20,0,20,0v1l-22,1c0-29,0-58,0-87Z"/>
  <path class="st2" d="M53,385c3-.6,1.9,1.5,2,3.5.3,8.1.3,17,0,25.1s1,4-2,3.5c0-10.7,0-21.3,0-32Z"/>
  <path class="st2" d="M53,235c3-.6,1.9,1.5,2,3.5.2,5.2.2,10.9,0,16.1s1,4-2,3.5c0-7.7,0-15.3,0-23Z"/>
  <path class="st23" d="M77,491c0,2,0,4,0,6h-2c0-2,0-4,0-6,.7,0,1.3,0,2,0Z"/>
  <path class="st23" d="M75,514v-1,1Z"/>
  <path class="st2" d="M77,488v1c-2-1.9-.7-5.8-1-8.5s-1-2.6-1-3v-210c0-1.4,1.4-6.7,2-8.5v229Z"/>
  <path class="st7" d="M99,258c.7,0,1.3,0,2,0v1c-7.7,0-15.4,0-23,0v229s-1,0-1,0v-229c0-.3.8-.6,1-1,7,0,14.1,0,21,0Z"/>
  <path class="st2" d="M77,234h22c0,7.3,0,14.7,0,22v2c-6.9,0-14,0-21,0,.2-.3-.6-1.8.6-2h19.4s0-21,0-21h-19.6s-1.4-1-1.4-1Z"/>
  <path class="st13" d="M124,441v26s-23,0-23,0c-.3.8,1,.9,1,1,.1.6,0,1.3,0,2-2,4.9-.8,11.5-1,17s0,1.3,0,2l-1,2c-.4-.7-.8,0-1,0-2.2.2-4.7,0-7,0s-1.2,0-2,0-1.3,0-2,0c-1.3,0-2.2,0-4,0s-4.7-.1-7,0c0-.7,0-1.3,0-2v-1h1l22,1v-21.5c0-.3,1.3-1.5,1-2.5h22c.9-7.5-1.7-18.4,1-25v1Z"/>
  <path class="st26" d="M80,184c6.6.5,13.4-.3,20,0,0,7,0,14,0,21h-21c0-7-.3-14.1,1-21Z"/>
  <path class="st25" d="M100,207c.3,0,.7,0,1,0v2c-.6-.1-1.5.2-2,0-6.6-2-14-.6-21-1v-1h22Z"/>
  <path class="st10" d="M99,209v21c-7,0-14,0-21,0,1.4-7.7.1-14.3,0-22,7,.4,14.4-1,21,1Z"/>
  <path class="st1" d="M101,207c8,0,16,0,24,0v25h23c0,.3,0,.7,0,1-7.9,0-16.1.3-24,0s-.9-1-2.4-1.1c-6.8-.3-13.8.3-20.6,0v-25ZM123,209h-21v21h21v-21Z"/>
  <path class="st2" d="M101,209v21h-2v-21c.5.2,1.4-.1,2,0Z"/>
  <path class="st7" d="M125,183c2.5,2.5.2,18.5,1,23l22,1h-22v23h22c0,.7,0,1.3,0,2h-23v-25c-8,0-16,0-24,0v-23c3-.6,1.9,1.5,2,3.5.2,5.8-.2,11.7,0,17.5h22v-22Z"/>
  <path class="st10" d="M521,259v22s-25,0-25,0c0-7.3,0-14.7,0-22,8.3-.2,16.7.3,25,0Z"/>
  <path class="st8" d="M148,229h-21v-20h19c.4,3.7-.5,8.1,0,11.6s1,2.3,1.1,2.4c.2,1.8.8,3.6,1,6Z"/>
  <path class="st6" d="M451,207c7,0,14,0,21,0v25c7,.4,14.6-.5,21.5,0s2.6-.5,2.5,3c-.3,7.9,0,16.1,0,24s0,14.7,0,22l.6.9c1,.5,2.5,0,3.4.1,4.9,1.2,11.3,2.1,16,0h6c0,.3,0,.7,0,1,0,.5-1,1.5-1,2h-1c-6.8-2.5-15.5,0-22.5-.9s-3.5-1.9-3.5-2.1v-48c-5.9-.3-12.1.4-18,0s-3.9-.9-5-1-.7-1-1-1l-.5-1-.5,1c-3-.4-17.4.6-18,0,.1-6-.1-12,0-18,1.6-.7,1.6-4.3,0-5,0-.7,0-1.3,0-2ZM470,209h-17v21h17v-21Z"/>
  <path class="st22" d="M595,205c0,.5.8,1.4,1,2l-1.6,1c-.5.7.6.9.6,1-.2,4.8-.2,10.2,0,15s0,1.3,0,2c-1.5,1.4-.9,3.3-1,5s0,.7,0,1h-23c0,.7,0,1.3,0,2s-.9,1.3-1,3c-.3,7,.2,14,0,21-5.3-.5-14.2-.4-19.5,0s-2.6-.5-2.5,3c0-.2-1-1.2-1-3-.2-8.6.2-17.4,0-26,8,0,16,0,24,0,0-1,0-2,0-3,.2-7.3,0-14.7,0-22,.3,0,.7,0,1,0,7.5-.1,13.8,0,21-1s.6-.9,1-1,.7,0,1,0ZM572,230h18.5l1.5-1.5v-18l-1.5-1.5h-17l-1.5,1.5v19.5ZM569,234h-20v22h20v-22Z"/>
  <path class="st2" d="M149,232h24c0,6.3,0,12.7,0,19s0,3.3,0,5h-24c0-5.7.1-11.4,0-17h2s0,15,0,15h20v-20l-22,1c0-1,.1-2,0-3Z"/>
  <path class="st20" d="M197,254c0,2.1,1,3.8,1,4,0,.3,0,.7,0,1s0,.7,0,1c.3,7.3-.2,14.7,0,22-.7,0-1.3,0-2,0-6.9.4-14-.2-21,0s-1.3,0-2,0c0-7.7,0-15.3,0-23s0-1.3,0-2,0-.7,0-1c0-1.7,0-3.3,0-5l3.5,4c7.1-1.2,14.3,2.6,20.5-1ZM197,259h-23v22h23v-22Z"/>
  <path class="st13" d="M452,183l1,1.4v21.6c6.1-1.8,13.8-1.4,20,0v24l22.3.2c3.5,1.2.7,4.2.7,4.8.1-3.5.6-2.8-2.5-3-7-.5-14.5.4-21.5,0v-25c-7,0-14,0-21,0,0-.5,1-2,1-3.4.2-6.8-.1-13.7,0-20.6Z"/>
  <path class="st17" d="M547,258c0,1.8,1,2.8,1,3,.1,4.9.2,10.1,0,15-1.8,1.1-.9,4.1-1,6h-22.6s-1.4,1-1.4,1h-1c0-.3,0-.7,0-1,0-1,0-2,0-3,1.7-4.3,1.2-10.8,1-15.5,0-1.4.7-4.1-1-4.5.1,0,1.1-1,2.4-1,7.5-.3,15.1.3,22.6,0ZM546,259h-22v22h22v-22Z"/>
  <path class="st2" d="M546,232v24c-7.6-.8-15.4,1.1-23-1v-22l23-1ZM545,234h-21v20h21v-20Z"/>
  <path class="st2" d="M569,207v22c-6.6,2-14,.6-21,1-.1-4.1.2-8.3,0-12.5s-2.6-9.6,0-10.5h21ZM568,209h-19v20h19v-20Z"/>
  <path class="st29" d="M148,207c-2.2,5.6,1.1,10.3-1,16,0-.1-.9-.9-1.1-2.4-.5-3.6.4-7.9,0-11.6h-19v20h21c0,.3,0,.7,0,1h-22v-23h22Z"/>
  <path class="st13" d="M221,210c0,7.6-.2,15.4,0,23h-23s0,25,0,25c0-.2-.9-1.9-1-4,0-3.3-.5-20.7.4-22.1,2.6-1.8,6.4-.8,9.6-.9s5.3-.7,8,0v-2c1.3,0,2.7,0,4,0l1,2v-21.5s1-1.5,1-1.5v2Z"/>
  <path class="st5" d="M592,182c0,.7-1,1.7-1,2h-18s0,22,0,22c-.5,0-.9.5-1,1-.3,0-.7,0-1,0,0-8.3,0-16.7,0-25h1c6.6-.2,13.4.2,20,0Z"/>
  <polygon class="st10" points="452 182 452 183 377 183 377 182 378 182 452 182"/>
  <path class="st13" d="M452,182h-74,74Z"/>
  <path class="st13" d="M242,182c1-1.7,3.8-1,5.5-1,18.7-.2,46.4-2.1,64.1,0,1.5.2,2.6.1,3.4,1.6v23.5h13c2.3,0,4.7,0,7,0v1h-21c0-7.2.7-16.1,0-23v-1l-72-1Z"/>
  <polygon class="st10" points="314 183 242 183 242 182 314 183"/>
  <path class="st13" d="M377,183c0,.3,0,.7,0,1-.4,6.8-.6,15.5,1,22,0,.3,0,.7,0,1h-22c0,0-1-.4-1-1,3.4,0,19.4.8,20.6-.9l1.4-23.1v1Z"/>
  <path class="st20" d="M522,279c0,1,0,2,0,3h-22c-.9-.2-2.4.3-3.4-.1l-.6-.9h25s0-22,0-22c.3,0,.7,0,1,0-.2,6.6.2,13.4,0,20Z"/>
  <path class="st7" d="M571,207c-.7,0-1.3,0-2,0h-21c6.8-2.3,14.9-.4,22-1,1-1-1.5-20.9,1-24,0,8.3,0,16.7,0,25Z"/>
  <path class="st13" d="M242,206v1c-2,0-4,0-6,0-4.7,0-9.3,0-14,0h-1v-1c6.6-.3,13.4.2,20,0v-21.6s1-1.4,1-1.4v23Z"/>
  <path class="st23" d="M571,207c0,7.3.2,14.7,0,22-.6.1-1.5-.2-2,0v-22c.7,0,1.3,0,2,0Z"/>
  <path class="st20" d="M221,206v2l-1,1.5v21.5s-1-2-1-2v-23c.7,0,1.3,0,2,0Z"/>
  <path class="st18" d="M149,232c.1,1,0,2,0,3s0,2.7,0,4c.1,5.6,0,11.3,0,17v1c-.3,0-.8-1-1-1v-3c0-6.6.2-13.4,0-20s0-.7,0-1c0-.7,0-1.3,0-2,1.3.1.9,1.1,1,2Z"/>
  <path class="st7" d="M355,206c0,.6,1,.9,1,1,1,7.5-1.5,16.6,1,24l-22,1v-24c1.8,6.6.8,13.6,1,20.6l1,1.4h18v-23c-6,0-12,0-18,0s-1.3,0-2,0v-1c6.6,0,13.4,0,20,0Z"/>
  <path class="st20" d="M215,229v2c-2.7-.7-5.3-.1-8,0v-2c2.6,0,5.4-.1,8,0Z"/>
  <path class="st7" d="M328,206h-2c.2,0,.5-.7.8-.7.8,0,1.1.7,1.2.7Z"/>
  <rect class="st8" x="104" y="184" width="19" height="20"/>
  <path class="st5" d="M614,156v2h-19v21h16c.2,1.8-2.3.9-3.5,1-4.5.2-9-.1-13.5,0v-24h20Z"/>
  <path class="st20" d="M594,180c0,.3,0,.7,0,1-1.8-5.8-1.1-13.3-1-19.5,0-1.7-.6-4.4,1-5.5v24Z"/>
  <path class="st10" d="M614,158v23c-6.7-.4-13.3.8-20,1v-1c0-.3,0-.7,0-1,4.5-.1,9,.2,13.5,0s3.7.8,3.5-1h-16v-21h19Z"/>
  <path class="st6" d="M614,181h1l1,1v25c-6.7,0-13.3,0-20,0-.2-.6-.9-1.5-1-2,5.9-.7,13,.5,19,0v-21h-19c.5,6.8-.7,14.3,0,21-.3,0-.7,0-1,0v-23c6.7-.2,13.3-1.4,20-1Z"/>
  <path class="st5" d="M639,184c.1,5.8-.2,11.7,0,17.5s-1,4,2,3.5c0,.7,0,1.3,0,2h-2c-7.7,0-15.3,0-23,0v-1c.5-.1.9-.5,1-1h21c1-1-1.5-18.2,1-21Z"/>
  <path class="st2" d="M641,183v22c-3,.6-1.9-1.5-2-3.5-.2-5.8.1-11.7,0-17.5v-1c.7,0,1.3,0,2,0Z"/>
  <path class="st7" d="M615,258v230h-1v-229h-19v21.5s-1,1.5-1,1.5v-24c5.8-.3,15.5-.7,21,0Z"/>
  <path class="st29" d="M594,258v24c-.3,0-.7,0-1,0-13.3,1.8-30.3-1.3-44,0,0-.3,0-.7,0-1h43s0-23,0-23c.7,0,1.3,0,2,0Z"/>
  <path class="st20" d="M616,207c7.7,0,15.3,0,23,0v2h-1c-7.3-1.6-14.5-.1-22,0s-14,0-21,0c0,0-1.1-.3-.6-1l1.6-1c6.7,0,13.3,0,20,0Z"/>
  <path class="st18" d="M570,258c.5,0,.9.5,1,1-3.2.5-7.5-.2-11,0s-1.4,0-2,0l-2,1h-1c-1.7-.3-3.4-.5-5-1-1.5,0-.9,1.4-1,2.5-.5,4.7,0,10.6,0,15.5s0,2.7,0,4h-1c0-1.7,0-3.3,0-5,.2-4.9.1-10.1,0-15-.1-3.5-.6-2.8,2.5-3,5.3-.4,14.3-.5,19.5,0Z"/>
  <path class="st29" d="M593,234c-4.9,2.5-14.2.2-20,1l-1,20c0-4.8.2-9.7,0-14.5s1-4-2-3.5c0-1.7,1-2.8,1-3h22Z"/>
  <path class="st25" d="M594,232c0,.2,1.9.5-1,2h-22c0-.7,0-1.3,0-2h23Z"/>
  <path class="st25" d="M570,237c3-.6,1.9,1.5,2,3.5.2,4.8,0,9.7,0,14.5v3c0,.6-.5.9-1,1-.1-.5-.5-1-1-1,.2-7-.3-14,0-21Z"/>
  <path class="st29" d="M616,209c-2.7,2.5-19,0-20,1l-1,14c-.2-4.8-.2-10.2,0-15,7,0,14,.1,21,0Z"/>
  <path class="st29" d="M549,277c0-4.9-.5-10.8,0-15.5s-.5-2.4,1-2.5c-.6,5.7,1.3,12.6-1,18Z"/>
  <path class="st29" d="M595,226c0,.3,2,3.1,1,5h-2c.1-1.7-.5-3.6,1-5Z"/>
  <path class="st29" d="M560,259v2c-2.1.8-3.8-.7-5-1h1c.8,0,1.7-1,2-1,.6,0,1.3,0,2,0Z"/>
  <path class="st29" d="M572,258v-1,1Z"/>
  <path class="st3" d="M471,364c0,8.9,2,17,0,26h25c0,6.3,0,12.7,0,19,0,1,0,2,0,3s0,2,0,3c8.7,0,17.4,0,26,0,0,9,0,18,0,27l26-1v25s22,0,22,0v1c-.4.2-.8,1-1,1-.3,0-.7,0-1,0-6.3.3-12.7-.3-19,0s-1.3,0-2,0c-.6,4.4.7,8.7,1,13h-2c0-4.3,0-8.7,0-13s0-1.3,0-2c0-7.4.8-15.9-1-23-7.3,0-14.7,0-22,0s-.7,0-1,0c-8.7,0-17.4,0-26,0,0-.7,0-1.3,0-2h24c-.6-7.8,1.3-16.5-1-24-1,0-2,0-3,0-6.6-.2-13.4,0-20,0s-16.3,0-24.4,0c-1.2-.2-.4-1.5-.6-2v-1l24,1v-23c-1-1.7-3.8-1-5.5-1-6.3,0-13.5-.7-19.5,1,0-.3,0-.7,0-1s0-.7,0-1v-25c-1,0-2,0-3,0-4.3-.1-8.7,0-13,0s-.7,0-1,0-.7,0-1,0h-1c6.1-2.3,13.6-.4,20-1Z"/>
  <path class="st17" d="M552,441c5.3,2.9,12.9-.9,18,2v23h-22s0-24,0-24c.8,0,1.6-.9,2-1,.6-.1,1.3,0,2,0ZM549,444v20s19,0,19,0c2.3-6.4.4-14.3,1-21-6.4.6-13.9-1.3-20,1Z"/>
  <path class="st22" d="M592,468v21h-20v-21h20ZM591,470h-18v18h18v-18Z"/>
  <path class="st13" d="M570,441c2.5-2.4,1.9-.4,2,1.5.3,7.5-.2,15,0,22.5,1,1,18.2-1.5,21,1-6.7-.9-15.1.7-22,0-.8-.8.6-19.4,0-23s0-1.7-1-2Z"/>
  <path class="st22" d="M570,441c1,.3.9,1.2,1,2h-1c-5.1-2.9-12.7.9-18-2,6-.3,12,.2,18,0Z"/>
  <path class="st25" d="M591,494v21c-1.1.4-2.2-1-2.5-1h-16.5v-20h19Z"/>
  <path class="st29" d="M549,468v21h19v-21c.3,0,.7,0,1,0,.5,7.4-.7,15.7,0,23-7-.2-14,.3-21,0-.1-3.3.2-6.7,0-10s-1.6-8.6-1-13c.7,0,1.3,0,2,0Z"/>
  <path class="st7" d="M593,544H101c0-.3,0-.7,0-1l492,1Z"/>
  <path class="st19" d="M148,468c0,7.3,0,14.7,0,22h-22c.3-5.6.8-16.8,0-22h22Z"/>
  <path class="st19" d="M291,443c7,0,14,0,21,0-1.2,6.6-1.8,16.3-1,23h-3l-17.1-1.4-1.9-11.6c0-3,0-6,0-9l2-1Z"/>
  <path class="st3" d="M265,390v25c8,0,16,0,24,0v26c8,0,16,0,24,0,0,.3,0,.7,0,1v26s66,0,66,0c0,.5.5.9,1,1v22c-.7,0-1.3,0-2,0,2.2-6.9,0-13.1,0-20l1-.5-1-.5c-.3,0-.7,0-1,0-20.5-1.4-42.4,1-63,0h-1c0-.3-1.6-.4-2-4-.8-6.7-.2-16.4,1-23-7,0-14,0-21,0s-1.3,0-2,0c-4.5,0-20.7.9-23-1,7.2-1.8,14.7-.8,22,0l-1-11c.3-4.1,0-8.8,0-13s2-.7.5-1h-22.5s-1-1-1-1v-24c-6.6-2.7-14.4.6-21-2h22Z"/>
  <path class="st3" d="M451,390h2v2c-1,6,1.4,17.1,0,22.3s-1.9.5-2,.7c-.8-4.5,1.5-20.5-1-23s-17.7-1.5-21,0c1.9,7.2-.6,14.3,0,22s0,1.3,0,2c5.9-1.9,12.7-.8,19-1s1.3,0,2,0h1c-.1.1.5,1.7-.7,2-3.1.8-20.6-.8-21.3,0l-1,24c1-7.3-.7-16.5,0-24l-11,1h-2l-10-1v25c7.1-1.8,15.9-1.5,23,0l-1.5,1h-21.6s0,23,0,23c-.7,0-1.3,0-2,0l1-23c-.7,0-1.3,0-2,0-4.3-.2-8.7,0-13,0h-9v-1l22.9-1.1v-24.9c.1,0,1.1-1,1.1-1h24s0-24,0-24c0-.3,0-.7,0-1,7.7,0,15.3,0,23,0Z"/>
  <path class="st3" d="M197,382c0,2.7,0,5.3,0,8,7.9-.7,16.5,1.3,24-1s.7,0,1,0h1v1c-.4.3,1.2,1.6-2,2s-.7,0-1,0c-6.6.4-13.4-.3-20,0-2.3,7.1-.4,15.6-1,23h22c0,.7,0,1.3,0,2h-22s0,22.6,0,22.6c.3,2-1.9,1.3-2.1,1.4-.8-4.6,1.5-21.5-1-24s-18.5-.2-23-1c0-.3,0-.7,0-1,8,0,16,0,24,0v-22.6s-1-1.4-1-1.4c0-1.3,0-2.7,0-4s0-3.3,0-5h1Z"/>
  <path class="st29" d="M314,470v19h63v-19c.3,0,.7,0,1,0v1c0,6.9,2.2,13.1,0,20-.3,0-.7,0-1,0-21.3.5-42.7-.4-64,0-.7-5.5,1.3-16.7,0-21h1Z"/>
  <path class="st18" d="M196,417h-22c.3,7.3-.4,14.7,0,22s0,2,0,3c2.1-1.2,3.8-.9,6-1s2.7,0,4,0c4.3,0,8.7,0,13,0-.1.1.3,1.4-.2,1.8-.9.8-20.4.2-23.8.2s-1.3,0-2,0c-3,0-6,0-9,0s-4,0-6,0-3.3,0-5,0-1.3,0-2,0c0,7.7,0,15.4,0,23s.9,16.6-1,24c0-7.3,0-14.7,0-22s0-1.3,0-2c0-8,0-16,0-24h23.5c1-.6,1.3-1.4,1.5-2.5,1-5.7,0-17,0-23.5,4.5.8,20.5-1.5,23,1Z"/>
  <path class="st2" d="M415,418l-9,1v20h20v-20l-9-1,11-1c-.7,7.5,1,16.7,0,24s0,.7,0,1c-7.1-1.5-15.9-1.8-23,0v-25l10,1Z"/>
  <path class="st2" d="M125,493c0,8,0,16,0,24h-22v-24s22,0,22,0ZM123,494h-19v20h19v-20Z"/>
  <path class="st7" d="M241,364c-.2,8.4.2,16.9,0,25.4.2,1.2,1.5.4,2,.6,6.6,2.6,14.4-.7,21,2h-21l-1,23,22,1,1,1v24l-1-24c-.8-.8-18.2.8-21.3,0s-.5-1.9-.7-2-1.4.3-1.8-.2c-.8-.9-.2-21.3-.2-24.8,0-7.8,0-15.7,0-23.6l-1-1.4c-1,0-2,0-3,0-2.2-.1-4.7,0-7,0s-.7,0-1,0c-1,0-2.1-.2-3,0s-.7,0-1,0l-1,1.5v22.5s-1,0-1,0v-25c6.3,0,12.7,0,19,0Z"/>
  <path class="st2" d="M265,417h22.5c1.5.3-.5.9-.5,1l-20,1v21c6.1-1.5,12.9-1.5,19,0-1-3.1.8-6.9,1-9l1,11c-7.3-.8-14.8-1.8-22,0l-1-1v-24Z"/>
  <path class="st2" d="M151,443v21h20v-21c.7,0,1.3,0,2,0v23s-24,0-24,0c0-7.7,0-15.4,0-23,.7,0,1.3,0,2,0Z"/>
  <path class="st2" d="M516,417c.6,2.9-1.6,2-3.5,2-5.1,0-9.5-1.4-14.5-1v22c7.1.9,14-2.5,21,0v-23c2.3,7.5.4,16.2,1,24h-24c-.4-8,.3-16,0-24,6.6,0,13.4-.2,20,0Z"/>
  <path class="st7" d="M377,491c.6,3-1.5,1.9-3.5,2-19.9.8-40-.6-59.9,0-1.1.1-.5-1.3-.6-2,21.3-.4,42.7.5,64,0Z"/>
  <path class="st29" d="M225,365c.9-.2,2,0,3,0l.5,1,.5-1c2.3,0,4.8-.1,7,0,.1,1.5,2.9,1.5,3,0l1,1.4c0,7.8,0,15.7,0,23.6-2.9.6-15.7-.8-17,0v-23.5s1-1.5,1-1.5l.5,1,.5-1ZM239,367h-15v22h15v-22Z"/>
  <path class="st29" d="M523,443v22h22v-22c1.8,7.1,1,15.6,1,23h-24c-.4-7.6.3-15.4,0-23,.3,0,.7,0,1,0Z"/>
  <path class="st2" d="M402,443c.7,0,1.3,0,2,0l-1,23c-7.6.4-15.4-.3-23,0,0-.3,0-.7,0-1,7.3.8,15.2-1.3,22,0v-22Z"/>
  <path class="st29" d="M200,392v22h18.5c3.3-6,.7-15,1.5-22,.3,0,.7,0,1,0-.3,7.6.4,15.4,0,23h-22c.6-7.4-1.3-15.9,1-23Z"/>
  <path class="st27" d="M546,466c0,.7,0,1.3,0,2h-24c0-.7,0-1.3,0-2h24Z"/>
  <path class="st27" d="M470,390c0,.3,0,.7,0,1-5.2,2.1-11.4.6-17,1v-2h17Z"/>
  <path class="st29" d="M308,466c-6.3,0-12.7,0-19,0,0-4.3,0-8.7,0-13l1.9,11.6,17.1,1.4Z"/>
  <path class="st18" d="M380,443v18c0,.7,0,1.3,0,2v2c0,.3,0,.7,0,1,0,1,0,2,0,3-.5-.1-1-.5-1-1-.6-6.2-.6-17.8,0-24s0-.7,0-1l1-1v1Z"/>
  <path class="st18" d="M126,468c.8,5.2.3,16.4,0,22s.2,1.6,0,2.4l-.9.6c0-.7,0-1.3,0-2,0-7-.6-15.2,0-22s0-1.3,0-2c.5.1.9.5,1,1Z"/>
  <path class="st7" d="M495,392h-24s0,22,0,22v1c-2.1-5.3-.9-16.6-1-23,6-1.7,13.2-1.1,19.5-1s4.4-.6,5.5,1Z"/>
  <path class="st9" d="M548,481c.2,3.3-.1,6.7,0,10-.7,0-1.3,0-2,0,0-3.3,0-6.7,0-10h2Z"/>
  <path class="st29" d="M291,443l-2,1v-1c.7,0,1.3,0,2,0Z"/>
  <path class="st7" d="M546,284c-6.9-.5-15.3-.3-22,1v25l24-1c-.2.5.6,1.8-.6,2h-23.4c-.6,3.6.9,23.4-.2,24.8s-1.6,0-1.8.2l1-25-25,1v23l24,1c-.2.2.6,2.4-1.4,2.1h-22.6c0,8.6,0,17.3,0,25.9h-1c0-.5-1-1.5-1-2s1-1.1,1-2.4c0-7.2,0-14.4,0-21.6-3.7,0-7.3,0-11,0v-1c2.7,0,10,1,10.9-1.6l-.9-26.4c.3,0,.7,0,1,0,8.6-.4,17.4.3,26,0v-26c7.4.6,15.9-1.3,23,1Z"/>
  <path class="st1" d="M497,389l.6.9c.8.2,1.6,0,2.4,0,6.9.4,14-.3,21,0,2.1,5.3.9,18.4,1,25,8.4,0,16.9,0,25.4,0l.6,2v22c0,.3,0,.7,0,1v1l-26,1c0-9,0-18,0-27-8.7,0-17.4,0-26,0,0-1,0-2,0-3,.6.2,1.5.9,2,1,4.9.5,10.5-.2,15.5,0s6.3,2.4,7.3-.6,0-4.4.2-6.3.7-14.5-1-15h-22c-2.1,4.5-.7,10.6-1,15.6s-1,2.2-1,2.4c0-6.3,0-12.7,0-19s-.8-7,1-9c0,2.7,0,5.3,0,8ZM546,417h-21.5l-1.5,1.5v21.5h23v-20.5c0-.6-.8-1.5,0-2.5Z"/>
  <path class="st18" d="M522,388c.5.6,1.7,1.4,2,2v23s24,0,24,0c.3,1.3.7,2.7,1,4h-1l-.6-2c-8.4,0-16.9,0-25.4,0,0-6.6,1.1-19.7-1-25s-1.3-1.7-1-2h2Z"/>
  <path class="st20" d="M498,370l1,16h22.4c1.2.1.4,1.8.6,2h-2c-.3.3.7,1.3,1,2-7-.3-14.1.4-21,0v-2s-2,0-2,0c.5-5.5,0-12.3,0-18ZM516,388h-6v1h6v-1Z"/>
  <path class="st7" d="M593,282c.6,3-1.5,1.9-3.5,2-13.5.5-27.1-.3-40.5,0,0-.7,0-1.3,0-2,13.7-1.3,30.7,1.8,44,0Z"/>
  <path class="st20" d="M549,417c1.7,6.9.8,13.8,1,21h21c.2,1.8-2.3.9-3.5,1-6.5.3-13-.2-19.5,0v-3c0-.3,0-.7,0-1v-18h1Z"/>
  <path class="st20" d="M549,282c0,.7,0,1.3,0,2,0,6.7,1.2,19.6-1,25v-24l-1-1c-.3,0-.7,0-1,0-7.1-2.3-15.6-.4-23-1l1.4-1h22.6s1-1,1-1h1c0,.3,0,.7,0,1Z"/>
  <path class="st20" d="M524,390c2.6,5.3.2,15.7,1,22h21.6s1.4,1,1.4,1h-24s0-23,0-23Z"/>
  <path class="st13" d="M498,370c0,5.7.5,12.5,0,18s-.5.9-1,1c0-2.7,0-5.3,0-8s0-4,0-6,0-.7,0-1c0-3.3,0-6.7,0-10h1c0,2,0,4,0,6Z"/>
  <path class="st22" d="M550,441c-.4,0-1.2,1.1-2,1v-2l2,1Z"/>
  <path class="st11" d="M100,493v20.5c0,2.5-5.9.5-7.5.5-4.5-.1-9,.2-13.5,0v-19.5l1.5-1.5h19.5Z"/>
  <path class="st25" d="M88,491h-4c1.8,0,2.7,0,4,0Z"/>
  <path class="st25" d="M92,491h-2c.8,0,1.2,0,2,0Z"/>
  <path class="st25" d="M100,491h-1c.2,0,.6-.7,1,0Z"/>
  <path class="st17" d="M103,468v21h20v-21c.5,0,1.4.8,2,1-.6,6.8,0,15,0,22h-2l-.5-1-.5,1h-7c-1.5-1.7-6.4-1.7-8,0h-5c.1-.7,0-2.1-1-2,0-.7,0-1.3,0-2,1.6-4.6,1.3-11.8,1-17s.1-1.4,0-2h1Z"/>
  <path class="st1" d="M115,491h-8c1.6-1.7,6.5-1.7,8,0Z"/>
  <polygon class="st1" points="123 491 122 491 122.5 490 123 491"/>
  <path class="st10" d="M639,183v1c-2.5,2.8,0,20-1,21h-21c.5-3.5-.8-21.2,0-22,7.3.3,14.7-.4,22,0Z"/>
  <path class="st23" d="M123,258c.3,0,.7,0,1,0,.7,0,1.3,0,2,0,6.1,0,14.3-.8,20,0s.7,0,1,0c-.3,1-1.1.9-2,1s-1.3,0-2,0c-3.8,0-9-.9-12,1-1-.1-2.1.2-3,0s-2.4-1.5-4-1v24c6.5,0,13,0,19.5,0s2.9-1,3.5-1c-.2,3.9-.7,9.8,1,13,0,2.3,0,4.7,0,7-1.8,1.6-.2,3.7-2,6v-24h-22v25c7,0,14,0,21,0s2,0,3,0c0,.7,0,1.3,0,2,0,8.2-.4,16.8,0,25s0,1.3,0,2h23c0,16.6,0,33.3,0,50s0,.7,0,1l-1,23h-20.6c-1.1-.2-1.1.3-1.4,1s.1,1.4,0,2c-.4,0-.7.8-1,1s-.9.7-1,1c-2.5,5.3-.2,14.8-1,21h-20.4c-1.2.2-.4,1.5-.6,2-2.7,6.6-.1,17.5-1,25h-22c.3,1-1,2.2-1,2.5v21.5l-22-1v-229c7.6,0,15.3,0,23,0v4c-1.7,1-1,3.8-1,5.5,0,2.5-.7,13,1,13.5,7-.8,16,1.8,22-1.5v-21.5c-7.3,0-14.7,0-22,0v-1c7.3,0,14.7,0,22,0Z"/>
  <path class="st25" d="M101,256v2c-.7,0-1.3,0-2,0v-2h2Z"/>
  <path class="st5" d="M123,234c0,.3,0,.7,0,1h-21v21h21v2c-7.3,0-14.7,0-22,0v-24h22Z"/>
  <path class="st2" d="M124,233c-.7-.2-.8.4-1,1h-22v-2c6.8.3,13.8-.3,20.6,0s2.3,1.1,2.4,1.1Z"/>
  <path class="st1" d="M172,415c.3,0,.7,0,1,0,0,.3,0,.7,0,1,0,6.5,1,17.8,0,23.5s-.5,1.9-1.5,2.5h-23.5c0,8,0,16,0,24h-21.6s-1.4,1-1.4,1c0,.7,0,1.3,0,2-.6-.2-1.5-.9-2-1-6.3-.6-13.5.5-20,0h-1c0,0-1.3-.2-1-1h23s0-26,0-26h24c0-.7,0-1.3,0-2s0-.7,0-1c0-1,0-2,0-3,.2-5.6.7-12.8-1-18v-1c.3-.2.6-.9,1-1,5.6-1.1,17.5,0,24,0ZM171,417h-22v23h22v-23ZM127,464h20c-.3-2.8.4-5.9,0-8.6s-1-2.3-1.1-2.4v-8l1-1.5-1-.5h-20s1,21,1,21Z"/>
  <path class="st1" d="M101,487c.2-5.5-1-12.1,1-17,.3,5.2.6,12.4-1,17Z"/>
  <rect class="st26" x="102" y="209" width="21" height="21"/>
  <path class="st6" d="M148,233c.2,6.6,0,13.4,0,20l-1,.5,1,.5v2c-.7,0-1.3,0-2,0v-22h-20v22c5.4-.7,14.3-.2,20,0v2c-5.7-.8-13.9,0-20,0v-2c-.6,0-1.4.8-2,1v-24c7.9.3,16.1,0,24,0Z"/>
  <path class="st0" d="M267,207h46c0,.3,0,.7,0,1h-1c-6.6.5-14,0-21,0s-2.7,0-4,0c-6.4,0-14-.8-20,1-.3,0-.7,0-1,0-.6,0-2-.9-3.4-1-5.9-.6-12.6.4-18.6,0v24c7.3,0,14.7.1,22,0s13.4.4,20-1c8.1,2.3,17.6.4,26,1l1,1c.3,0,.7,0,1,0,6.1,2.3,13.6.4,20,1,1,1-1.5,20,1,23,0,.3,0,.7,0,1l1,1c6.5.4,12.7,0,19-1s2,2,4-1,.1-16.7,1-22h16.6c.9.2,1.1-.6,1.4-1s1-1.9,1-2c7.1-.7,15.7.9,22.6,0s2.3-1,2.4-1.1h11c5.1.6,8.9.8,14,1s14-.2,21,0v-24c-2.3.1-4.7-.1-7,0,1.4-1.7,4.8-1,7-1s.7,0,1,0c0,.7,0,1.3,0,2,0,1.7,0,3.3,0,5-.1,6,.1,12,0,18,.6.6,15-.4,18,0s.7,0,1,0,.8,1,1,1l1,72c-3,.6-1.9-1.5-2-3.5-.2-6.7,0-13.4,0-20-.1-15.8.2-31.7,0-47.5-.6,0-1.4-.1-2,0h-16c-.2,18.8.3,37.7,0,56.5s-1,14.2-1,21.5c-7.3,0-14.7,0-22,0v26s-1,1-1,1c-2.7-2-22-1-22.9,0v23c0,0,0,1,0,1l-1,1h-2c-6.3,0-12.7-.3-19,0s-3.3,0-5,0v26c-21.6.3-43.4-.4-65,0,0-.7,0-1.3,0-2,0-8,0-16,0-24h-23c-2.5-2.5-.2-21.2-1-26h-23c-.2-4.4.8-21.8-.5-24s-18.3-2-22.5-2h-2c0-3,0-6,0-9,0-23,0-46,0-69h-18c-.5,26,.7,52.1,0,78s0,.7,0,1c-1.7-1-1-3.8-1-5.5-.3-24.9-.3-49.9-1-74.5s0-15.4,0-23l1,22c6-.5,12,.2,18,0s2,0,3,0c0-2.7,0-5.4,0-8s0-3.3,0-5v-4c0-1.7,0-3.3,0-5v-1c0-.9,1-1.8,1-2h23Z"/>
  <path class="st26" d="M476,234c5.9.4,12.1-.3,18,0v48c0,.2,3.3,2,3.5,2.1,7,.9,15.7-1.6,22.5.9v21c-1,1-20-1.5-23,1v2c-.3,0-.7,0-1,0h-1c-2.5,3.2,0,24-1,25-5.7.6-12.6-1.3-18,1h-2c-1-3.1-1-13.2-1-17.5-.5-27,.5-54.1,0-81.1l3.1-2.4Z"/>
  <rect class="st26" x="453" y="209" width="17" height="21"/>
  <path class="st12" d="M476,234l-3.1,2.4c.5,27-.4,54.1,0,81.1,0,4.3,0,14.3,1,17.5s-.1,1.4,0,2c-.7,0-1.4,0-2,0,0-8.3,0-16.7,0-25s0-3.3,0-5,0-1.3,0-2l-1-72c1.1,0,2.9.8,5,1Z"/>
  <path class="st26" d="M451,214c0-1.7,0-3.3,0-5,1.6.7,1.6,4.3,0,5Z"/>
  <path class="st26" d="M470,232c-.3,0-.7,0-1,0l.5-1,.5,1Z"/>
  <polygon class="st11" points="572 230 572 210.5 573.5 209 590.5 209 592 210.5 592 228.5 590.5 230 572 230"/>
  <path class="st29" d="M594,182v23c-.4,0-.8,1-1,1h-2c.6-7-.8-15.1,0-22s1.1-1.3,1-2c.7,0,1.3,0,2,0Z"/>
  <path class="st7" d="M591,206h2c-7.2,1-13.5.9-21,1,.1-.5.5-.9,1-1,4.9-.7,12.7,0,18,0Z"/>
  <path class="st8" d="M149,235l22-1v20h-20v-15s-2,0-2,0c0-1.3,0-2.7,0-4Z"/>
  <path class="st27" d="M173,256c0,.3,0,.7,0,1-8-.2-16,.3-24,0v-1h24Z"/>
  <path class="st26" d="M220,234v101h-21c-.6-8.4,1.3-17.9-1-26h-25c0-9,0-18,0-27,.7,0,1.3,0,2,0,6.1,1.7,14.9,1.7,21,0,.7,0,1.3,0,2,0s1.3,0,2,0v-48s20,0,20,0Z"/>
  <rect class="st10" x="174" y="259" width="23" height="22"/>
  <path class="st1" d="M148,256c.2,0,.7,1,1,1,8,.3,16-.2,24,0,0,.7,0,1.3,0,2h-24v22h22c0,.2.8.6,1,1-8.4.2-16.8,0-25,0,.4-7,1.7-14.3,1-21.6s.3-2.3-1-2.4c-.3,0-.7,0-1,0v-2c.7,0,1.3,0,2,0Z"/>
  <path class="st1" d="M221,233l-1,1h-20s0,48,0,48c-.7,0-1.3,0-2,0-.2-7.3.3-14.7,0-22v-1c0-.3,0-.7,0-1v-25s23,0,23,0Z"/>
  <path class="st6" d="M173,259c0,7.7,0,15.3,0,23-.3,0-.7,0-1,0-.2-.4-1-.8-1-1-1.1-6.3.8-15.4,0-22h2Z"/>
  <path class="st2" d="M196,282c-6.1,1.7-14.9,1.7-21,0,7-.2,14.1.4,21,0Z"/>
  <path class="st26" d="M198,260c0-.3,0-.7,0-1v1Z"/>
  <rect class="st12" x="549" y="234" width="20" height="22"/>
  <path class="st1" d="M452,183c-.1,6.8.2,13.7,0,20.6s-1,2.9-1,3.4c-.3,0-.7,0-1,0v-2c0-6.6,1.2-15.5-1.5-21h-69.5c.4,7-1,14.4,1,21s-.1,1.4,0,2h-2c0-.3,0-.7,0-1,0-7.1.8-15.3-1-22,0-.3,0-.7,0-1h75Z"/>
  <rect class="st26" x="524" y="259" width="22" height="22"/>
  <path class="st1" d="M523,283v26c-8.6.3-17.4-.4-26,0v-1c4.5-.8,20.5,1.5,23-1s.8-17.7,1-22,1-1.5,1-2h1Z"/>
  <path class="st26" d="M522,279c.2-6.6-.2-13.4,0-20,1.7.4.9,3.1,1,4.5.2,4.7.7,11.2-1,15.5Z"/>
  <path class="st22" d="M548,281l-1,1c.1-1.9-.8-4.9,1-6,0,1.7,0,3.3,0,5Z"/>
  <rect class="st8" x="524" y="234" width="21" height="20"/>
  <rect class="st8" x="549" y="209" width="19" height="20"/>
  <path class="st17" d="M314,183v1c-1.8,7-1.1,15.6-1,23h-1v-3c0-6.3,1.2-14.8-1.5-20h-66.5c-.3,7,.4,14.1,0,21s0,.7,0,1,0,.7,0,1-1,1.1-1,2,0,.8,0,1c0,1.7,0,3.3,0,5s0,2.6,0,4,0,3.3,0,5l-2,5v-20h-18v21c4.5.1,9-.2,13.5,0s4-1,3.5,2c-6,.2-12-.5-18,0l-1-22v-2c.3,0,.7,0,1,0,4.4-.6,10.2,1.3,14-1,2,0,4,0,6,0l1-.5-1-.5v-23h72Z"/>
  <path class="st10" d="M591,184c-.8,6.9.6,15,0,22-5.3,0-13.1-.7-18,0v-22s18,0,18,0Z"/>
  <path class="st6" d="M378,207c0,.7,0,1.3,0,2h-2c-6,0-12,0-18,0v21s-1,1-1,1c-2.5-7.4,0-16.5-1-24h22Z"/>
  <path class="st10" d="M378,206c-1.6-6.5-1.4-15.2-1-22,1.8,6.7,1,14.9,1,22Z"/>
  <path class="st1" d="M516,282c-4.7,2.1-11.1,1.2-16,0h16Z"/>
  <path class="st6" d="M335,207c0,.3,0,.7,0,1v24l-2-2v-21c-6,0-12,0-18,0h-1v-2h21Z"/>
  <path class="st5" d="M314,207v2h-1c0-.3,0-.7,0-1s0-.7,0-1c-.1-7.4-.8-16,1-23,.7,6.9,0,15.8,0,23Z"/>
  <path class="st26" d="M236,207c-3.8,2.3-9.6.4-14,1v-1c4.7,0,9.3,0,14,0Z"/>
  <path class="st0" d="M222,208c-.3,0-.7,0-1,0v-1h1v1Z"/>
  <polygon class="st26" points="242 207 242 206 243 206.5 242 207"/>
  <polygon class="st1" points="148 254 147 253.5 148 253 148 254"/>
  <path class="st19" d="M337,207c-.6,3,1.5,1.9,3.5,2,4.5.2,9.1-.1,13.5,0v20l-17,1-1-1.4c-.2-7,.8-13.9-1-20.6s0-.7,0-1c.7,0,1.3,0,2,0Z"/>
  <path class="st29" d="M337,207c6,0,12,0,18,0v23h-18l17-1v-20c-4.5-.1-9,.2-13.5,0s-4,1-3.5-2Z"/>
  <path class="st26" d="M595,205c-.7-6.7.5-14.2,0-21h19v21c-6,.5-13.1-.7-19,0Z"/>
  <path class="st8" d="M558,259c-.3,0-1.2,1.1-2,1l2-1Z"/>
  <polygon class="st19" points="495 392 495 415 471 414 471 392 495 392"/>
  <path class="st19" d="M545,443v22h-22v-22c7.3,0,14.7,0,22,0Z"/>
  <path class="st25" d="M519,417v23c-7-2.5-13.9.9-21,0v-22c5-.3,9.5,1,14.5,1s4,.9,3.5-2c1,0,2,0,3,0Z"/>
  <path class="st25" d="M568,468v21h-19v-21c6.3-.3,12.7.3,19,0Z"/>
  <path class="st6" d="M497,364c0,3.3,0,6.7,0,10v1c0,2,0,4,0,6-1.8,2-1,6.2-1,9h-25c2-9,0-17.1,0-26l1-1,25,1ZM473,367v21s21,0,21,0c2.3-6.8.4-14.9,1-22-7.1.6-15.2-1.3-22,1Z"/>
  <path class="st29" d="M467,365c1,0,2,0,3,0v25h-17c0-.3,0-.7,0-1h16v-22h-15c-.3,5.8.3,11.8,0,17.6s-1,2.3-1,2.4v-22c.3,0,.7,0,1,0,3,1.7,9.8,1.7,13,0Z"/>
  <path class="st17" d="M472,339v24l-1,1c-6.4.6-13.9-1.3-20,1v25c-7.7,0-15.3,0-23,0,0-.7,0-1.3,0-2,.3,0,.7,0,1,0,7,0,14,0,21,0,.2-7.3-.3-14.7,0-22s0-1.3,0-2,1-1.1,1-2h20s0-24,0-24v-1c.3,0,.7,0,1,0v2Z"/>
  <path class="st17" d="M498,413c-.5,0-1.4-.8-2-1,0-1,0-2,0-3s1-1.1,1-2.4c.3-5-1.1-11.1,1-15.6v22Z"/>
  <rect class="st29" x="451" y="365" width="1" height="25"/>
  <path class="st7" d="M453,387c0,.7,0,1.3,0,2s0,.7,0,1h-1v-25c.3,0,.7,0,1,0v22Z"/>
  <path class="st19" d="M467,365c-3.2,1.7-10,1.7-13,0,4.3,0,8.7-.1,13,0Z"/>
  <rect class="st11" x="549" y="444" width="19" height="20"/>
  <path class="st22" d="M549,444c6.1-2.3,13.6-.4,20-1-.6,6.7,1.3,14.6-1,21v-20s-19,0-19,0Z"/>
  <rect class="st12" x="573" y="470" width="18" height="18"/>
  <path class="st3" d="M148,466c0,.7,0,1.3,0,2h-22c0-.5-.5-.9-1-1l1.4-1h21.6Z"/>
  <path class="st12" d="M377,441v2c-2.5,2.9,0,21-1,22l-61,1-2-24c0-.3,0-.7,0-1,21.3,0,42.7,0,64,0Z"/>
  <path class="st19" d="M377,470v19h-63v-19c20.6,1,42.5-1.4,63,0Z"/>
  <path class="st19" d="M264,392v22h-21s0-22,0-22h21Z"/>
  <path class="st25" d="M287,418c0,4.2.3,8.9,0,13s-2,5.9-1,9c-6.1-1.5-12.8-1.5-19,0v-21l20-1Z"/>
  <path class="st17" d="M315,466h62c0-7.6,0-15.3,0-23v-1h1c0,.3,0,.7,0,1,.1.5.5.8,1,1-.6,6.2-.6,17.8,0,24h-66s0-26,0-26l2,24Z"/>
  <path class="st1" d="M243,364v25c6.8-2.8,15.2.8,22-2,0,.4,1.5,1.8,1,3-.3,0-.7,0-1,0h-22c-.5-.2-1.8.6-2-.6.2-8.4-.2-16.9,0-25.4s1-.9,1-1c.6,0,.9,1,1,1Z"/>
  <path class="st17" d="M267,390v23s22,0,22,0c0,.7,0,1.3,0,2-8,0-16,0-24,0v-25c.3,0,.7,0,1,0h1Z"/>
  <path class="st6" d="M291,415v25s22-1,22-1c0,.7,0,1.3,0,2-8,0-16,0-24,0v-26c.7,0,1.3,0,2,0Z"/>
  <polygon class="st29" points="243 392 243 414 264 414 264 416 242 415 243 392"/>
  <polygon class="st19" points="378 471 378 470 379 470.5 378 471"/>
  <path class="st12" d="M428,390c0,.3,0,.7,0,1-2.5,2.9,0,21-1,22h-23c.1-1.3.4-3.4-1-4,.2-6-.1-12,0-18,.2-.3.7-.6,1-1,8,0,16,0,24,0Z"/>
  <path class="st19" d="M382,443h5l1.5,1,.5-1c4.3,0,8.7-.2,13,0v22c-6.8-1.3-14.7.8-22,0v-2l1-1.5-1-.5v-18h1l.5,1,.5-1Z"/>
  <path class="st19" d="M450,392v23c-.7,0-1.3,0-2,0-5.7-2.3-12.9-.4-19-1-.6-7.7,1.9-14.8,0-22h21Z"/>
  <polygon class="st25" points="417 418 426 419 426 439 406 439 406 419 415 418 417 418"/>
  <path class="st6" d="M403,416v24.9c-.1,0-23,1.1-23,1.1l-1,1h-1c0-.3,0-.7,0-1s0-.7,0-1,0-.7,0-1h24s0-24,0-24c.3,0,.7,0,1,0Z"/>
  <path class="st17" d="M428,391v24s-24,0-24,0c0-.7,0-1.3,0-2h23c1-1-1.5-19.1,1-22Z"/>
  <path class="st29" d="M451,415h-1v-23c2.5,2.5.2,18.5,1,23Z"/>
  <path class="st7" d="M450,392h-21c3.3-1.5,19.2-1.8,21,0Z"/>
  <path class="st29" d="M448,415c-6.3.2-13.1-.9-19,1,0-.7,0-1.3,0-2,6.1.6,13.3-1.3,19,1Z"/>
  <path class="st16" d="M404,413c0,.7,0,1.3,0,2l-1,1c-.3,0-.7,0-1,0s-.8-1-1-1h2c0-2,0-4,0-6,1.4.6,1.1,2.7,1,4Z"/>
  <polygon class="st2" points="389 443 388.5 444 387 443 389 443"/>
  <polygon class="st2" points="381 443 382 443 381.5 444 381 443"/>
  <path class="st8" d="M173,338h23c0,1,0,2,0,3-1.8,7.4-1.1,16.3-1,24s.9,11.8,1,17,0,3.3,0,5c-7.6-.2-14.5-.2-22,1l-1-49c0-.3,0-.7,0-1Z"/>
  <path class="st19" d="M220,392c-.8,7,1.8,16-1.5,22h-18.5v-22c6.6-.3,13.4.4,20,0Z"/>
  <path class="st9" d="M170,309c.7.1,2.3,1.9,3,2v26s23-1,23-1c1,.4,1.5,1.1,2,2-.3,7.6.2,15.4,0,23-1.3.5-1,1.9-1,3-.2,5.9-.1,12.1,0,18h-1c-.1-5.2-.9-11.4-1-17,1.7-1,1-3.8,1-5.5,0-6.1.2-12.4,0-18.5s0-2,0-3h-23s-2-2-2-2v-25s-23,0-23,0c0-.7,0-1.3,0-2,.3,0,.7,0,1,0,6.1,0,15.5-.9,21,0Z"/>
  <path class="st1" d="M221,364c-.5,8.3.3,16.7,0,25-7.5,2.3-16.1.4-24,1,0-2.7,0-5.3,0-8-.1-5.9-.2-12.1,0-18,.5-.2.9-.5,1-1,7.2,1.8,15.5,1,23,1ZM220,366h-19.5c-3.5,6.2-.7,15.1-.5,22h20v-22Z"/>
  <path class="st17" d="M174,391v22h22c-.1-7.3.2-14.7,0-22l1,1.4v22.6c-8,0-16,0-24,0,0-8,0-16,0-24h1Z"/>
  <path class="st9" d="M196,387c0,1.3,0,2.7,0,4h-23c0-.7,0-1.3,0-2s0-.7,0-1c.3,0,.7,0,1,0,7.5-1.2,14.4-1.2,22-1Z"/>
  <path class="st29" d="M197,441c-4.3,0-8.7,0-13,0l12-1v-23c2.5,2.5.2,19.4,1,24Z"/>
  <path class="st29" d="M222,389c-.3,0-.7,0-1,0,.3-8.3-.5-16.7,0-25,.3,0,.7,0,1,0v25Z"/>
  <path class="st19" d="M196,417v23s-12,1-12,1c-1.3,0-2.7,0-4,0l-6-2c-.4-7.3.3-14.7,0-22h22Z"/>
  <path class="st25" d="M156,443v2s5.4,0,5.4,0l.6-2c3,0,6,0,9,0v21h-20v-21c1.7,0,3.3,0,5,0Z"/>
  <path class="st2" d="M162,443l-.6,2h-5.4s0-2,0-2c2,0,4,0,6,0Z"/>
  <path class="st29" d="M180,441c-2.2,0-3.9-.2-6,1,0-1,0-2,0-3l6,2Z"/>
  <rect class="st25" x="104" y="494" width="19" height="20"/>
  <path class="st17" d="M223,337c.8,7.9-.6,16.9,0,25h19c0,.3,0,.7,0,1s-1,.4-1,1c-6.3,0-12.7,0-19,0,0-.7,0-1.3,0-2,0-2,0-4,0-6s0-.7,0-1c0-4.7,0-9.4,0-14h-2s0-1,0-1c0-.3,0-.7,0-1v-1c.9-.1,1.9.2,2-1,0-.3,0-.7,0-1,.5.1,1,.5,1,1Z"/>
  <path class="st19" d="M239,365c-.1,1.5-2.9,1.5-3,0,1,0,2,0,3,0Z"/>
  <path class="st19" d="M228,365c.3,0,.7,0,1,0l-.5,1-.5-1Z"/>
  <path class="st19" d="M224,365c.3,0,.7,0,1,0l-.5,1-.5-1Z"/>
  <rect class="st19" x="224" y="367" width="15" height="22"/>
  <path class="st2" d="M380,463c0-.7,0-1.3,0-2l1,.5-1,1.5Z"/>
  <path class="st22" d="M379,444c-.5-.2-.9-.5-1-1h1c0,.3,0,.7,0,1Z"/>
  <path class="st19" d="M486,338c3.7,0,7.3,0,11,0,0,7.2,0,14.4,0,21.6s-1,2.3-1,2.4h-22v-24c4,0,8,0,12,0Z"/>
  <rect class="st25" x="498" y="312" width="23" height="23"/>
  <path class="st2" d="M546,284c.3,0,.7,0,1,0l1,1v24l-24,1v-25c6.7-1.3,15.1-1.5,22-1ZM546,286h-21v21h21v-21Z"/>
  <path class="st1" d="M486,337c-4,0-8,.2-12,0-.1-.6.2-1.5,0-2h2c6.3,0,12.7,0,19,0v-26s1,0,1,0l.9,26.4c-.9,2.7-8.1,1.6-10.9,1.6Z"/>
  <polygon class="st29" points="498 312 523 311 522 336 498 335 521 335 521 312 498 312"/>
  <path class="st3" d="M474,337c4,.2,8,0,12,0v1c-4,0-8,0-12,0v24h22c0,.5,1,1.5,1,2l-25-1v-1c1.7-6.8,1.7-16.2,0-23v-2c.6,0,1.3,0,2,0Z"/>
  <path class="st12" d="M546,417c-.8,1,0,1.9,0,2.5v20.5h-23v-21.5l1.5-1.5h21.5Z"/>
  <path class="st22" d="M548,436v-1c0,.3,0,.7,0,1Z"/>
  <rect class="st18" x="510" y="388" width="6" height="1"/>
  <path class="st18" d="M498,388h2s0,2,0,2c-.8,0-1.6.2-2.4,0l-.6-.9c.5-.1,1-.5,1-1Z"/>
  <path class="st25" d="M548,285l-1-1,1,1Z"/>
  <path class="st1" d="M497,375v-1c0,.3,0,.7,0,1Z"/>
  <path class="st22" d="M123,468v21h-20v-21c6.5.5,13.7-.6,20,0ZM122,470h-18v18h18v-18Z"/>
  <path class="st8" d="M148,311h23s0,25,0,25h-23c-.4-8.2,0-16.8,0-25Z"/>
  <path class="st8" d="M145,309c-7,0-14,0-21,0v-25h22v24c-.3.4-.7.6-1,1Z"/>
  <path class="st8" d="M101,259c7.3,0,14.7,0,22,0v21.5c-6,3.3-15,.7-22,1.5v-23Z"/>
  <path class="st10" d="M145,259v18c-4.3-.4-4.3.7-5.6,4.1h-12.4c0,0,1-21.1,1-21.1.9.2,2-.1,3,0s1.1.9,2.4,1c3.1.3,6.4-.2,9.6,0v-2c.7,0,1.3,0,2,0Z"/>
  <path class="st2" d="M172,282c.3,0,.7,0,1,0,0,9,0,18,0,27h25s-1,27-1,27l25,1c-.1,1.2-1.1.9-2,1-6.6.8-14.1-.7-21,1,0-.4-.8-.7-1-1-.5-.9-1-1.6-2-2v-25s-21,0-21,0c-.3,0-.7,0-1,0s-.7,0-1,0c-.7-.1-2.3-1.9-3-2,1-.3,1-1.2,1-2,.4-7.6-.3-15.4,0-23-4.7,3.4-19.1-1.9-22,1s-.9,7.1-1,10c-1.7-3.2-1.2-9.1-1-13,8.2,0,16.6.2,25,0Z"/>
  <path class="st5" d="M147,282c-.5,0-2,1-3.5,1-6.5,0-13,0-19.6,0v-24c1.6-.5,2.9.8,4,1l-1,21h12.4c1.3-3.4,1.3-4.4,5.6-4v-18c.9,0,1.7,0,2-1,1.3.1,1,1.5,1,2.4.6,7.3-.7,14.6-1,21.6Z"/>
  <path class="st27" d="M171,336l2,2c0,.3,0,.7,0,1,1.9,14.9-1.4,33.6,0,49-.7,0-1.3,0-2,0,0-16.7,0-33.4,0-50h-23c0-.7,0-1.3,0-2h23Z"/>
  <path class="st18" d="M173,388c0,.3,0,.7,0,1-2.3,8.1-.4,17.6-1,26-6.5,0-18.4-1.1-24,0,.1-.6-.2-1.6,0-2h23c0-8,0-16,0-24s0-.7,0-1c.7,0,1.3,0,2,0Z"/>
  <path class="st20" d="M146,417v22c0,0-22,1-22,1,.2-.5-.6-1.8.6-2h20.4c.8-6.1-1.5-15.6,1-21Z"/>
  <path class="st18" d="M147,417c.6,5.7-1.3,12.6,1,18,0,1,0,2,0,3l-1,.5,1,.5c0,.7,0,1.3,0,2h-24s0-1,0-1l21.9-1v-22c.2-.3.8-.8,1.1-1v1Z"/>
  <path class="st20" d="M171,389c0,8,0,16,0,24h-23c.3-.7.4-1.2,1.4-1h20.6s1-23,1-23Z"/>
  <path class="st20" d="M124,257v1c-.3,0-.7,0-1,0v-23c0-.3,0-.7,0-1,.2-.6.3-1.2,1-1v24Z"/>
  <path class="st16" d="M149,307v2c-.3,0-.7,0-1,0,0-2.3,0-4.7,0-7s0-4.7,0-7-.8-8.1,1-10v22Z"/>
  <path class="st5" d="M143,259v2c-3.1-.2-6.4.3-9.6,0s-2.2-1-2.4-1c3-1.9,8.2-.9,12-1Z"/>
  <path class="st7" d="M101,282c-1.7-.6-1-11-1-13.5s-.6-4.4,1-5.5v19Z"/>
  <path class="st2" d="M148,309c-1,0-2,0-3,0,.3-.4.7-.6,1-1,1.8-2.3.2-4.4,2-6,0,2.3,0,4.7,0,7Z"/>
  <path class="st1" d="M126,258c-.7,0-1.3,0-2,0v-1c.6-.2,1.4-.9,2-1v2Z"/>
  <path class="st10" d="M123,235v21h-21v-21h21Z"/>
  <rect class="st11" x="149" y="417" width="22" height="23"/>
  <path class="st12" d="M127,464v-20h18c-.8,3.4.6,6.5,1,9s.9.9,1.1,2.4c.3,2.7-.3,5.8,0,8.6h-20Z"/>
  <path class="st22" d="M146,443v10c-.4-2.5-1.8-5.6-1-9h-18v20l-1-21h20Z"/>
  <path class="st2" d="M173,391c0,8,0,16,0,24-.3,0-.7,0-1,0,.6-8.4-1.3-17.9,1-26,0,.7,0,1.3,0,2Z"/>
  <path class="st23" d="M148,435c-2.3-5.4-.4-12.3-1-18,1.7,5.2,1.2,12.4,1,18Z"/>
  <polygon class="st12" points="146 445 146 443 147 443.5 146 445"/>
  <path class="st23" d="M148,439l-1-.5,1-.5c0,.3,0,.7,0,1Z"/>
  <path class="st26" d="M126,256v-22h20v22c-5.7-.2-14.6-.7-20,0Z"/>
  <path class="st28" d="M223,312c.7-25.9-.5-52,0-78h18c0,23,0,46,0,69l-1,9h-17Z"/>
  <path class="st28" d="M468,234c.6-.1,1.4,0,2,0,.2,15.8-.2,31.7,0,47.5,0,6.6-.1,13.3,0,20,0,1.9-1,4,2,3.5,0,.7,0,1.3,0,2h-2s0,5,0,5c-5.7,0-11.3,0-17,0v-77c5.3.4,10,0,15-1Z"/>
  <path class="st28" d="M451,312c0,8,0,16,0,24h19s1,1,1,1v1h-20c-.2,8,.3,16,0,24s-1,1.8-1,2c-7.3,0-14.7,0-22,0s-15.8.8-23-1v-1c2.5-2.9,0-21,1-22h22c-1,6.6.7,15.2,0,22h22v-24h-21v-26c7.3,0,14.7,0,22,0Z"/>
  <path class="st28" d="M266,338h23c.8,4.8-1.5,23.5,1,26s17.6.2,22,1l1,23c0,.7,0,1.3,0,2,21.6-.4,43.4.3,65,0v-26c1.6,0,3.3,0,5,0,5.4,1.7,13.6,1.7,19,0h2l-1,24c8.3,0,16.7,0,25,0,0,.7,0,1.3,0,2-8,0-16,0-24,0s-.7,0-1,0c-4.4,0-23.1-.9-25,1s-.2,18.5-1,23h-20v-22h-20.5c-.2,0-1.1-1.5-1.5-1v24c-7.3,0-14.7,0-22,0,0-8.3,0-16.7,0-25-4.3,0-8.7-.2-13,0-2.9-.4-6.6.6-9.3,0s-1.4-1.9-1.7-2v-22.6c.4-2-1.8-1.3-2-1.4s.5-1.7-.7-2c-2.9-.8-18.6.8-19.3,0-.2-6.5.3-13.1,0-19.6s-1-2.3-1-2.4c0-.3,0-.7,0-1s0-.7,0-1Z"/>
  <path class="st14" d="M428,364v24c-8.3,0-16.7,0-25,0l1-24,1-1c7.2,1.8,15.5,1,23,1Z"/>
  <path class="st21" d="M429,208v24c-5.1-.2-8.9-.4-14-1s-5.4-.8-11,0-.9.9-2.4,1.1c-6.9.8-15.5-.7-22.6,0,.2-.9-.1-2.1,0-3,.3,0,.7,0,1,0,7.5,2.3,16.1.4,24,1v-21c8-.3,16.5-1,25-1Z"/>
  <path class="st4" d="M291,208l1,22c-2.4-.8-4.4.7-6,1-6.6,1.4-13.3.9-20,1v-23c.3,0,.7,0,1,0,5.4.4,10.7,1.2,16.5,1s4,1,3.5-2c1.3,0,2.7,0,4,0Z"/>
  <path class="st28" d="M266,209v23c-7.3.1-14.7,0-22,0v-24c6,.4,12.6-.6,18.6,0s2.8,1,3.4,1Z"/>
  <path class="st14" d="M429,338h21v24h-22c.7-6.8-1-15.4,0-22s0-.7,0-1l1-1Z"/>
  <path class="st21" d="M312,208v24c-8.4-.6-17.9,1.3-26-1,1.7-.3,3.6-1.8,6-1l-1-22c7,0,14.4.5,21,0Z"/>
  <path class="st28" d="M440,209c1.2,0,2.4-1,3-1,2.3-.2,4.7,0,7,0v24c-7-.2-14,.2-21,0v-24c4,0,7.7,1,11,1Z"/>
  <path class="st15" d="M241,312c0,8.6.2,17.4,0,26-6-.2-11.9-1.4-18-1,0-.5-.5-.9-1-1,.6-6.1-.3-13.2,0-19.6s1-2.9,1-3.4,0-.7,0-1h17s1-9,1-9c0,3,0,6,0,9Z"/>
  <path class="st26" d="M240,232c.6-3-1.5-1.9-3.5-2-4.5-.2-9.1.1-13.5,0v-21h18v20s2-5,2-5c0,2.7,0,5.3,0,8-1,0-2,0-3,0Z"/>
  <path class="st1" d="M315,209v21s18,0,18,0l2,2,22-1,1-1h19c-2.1-6.5-.5-14.1-1-21h2c0,6.6.2,13.4,0,20s0,2,0,3h-21c-.2,7.5.3,15,0,22.5s1,4-2,3.5c-6.3.9-12.5,1.4-19,1l-1-1c0-.3,0-.7,0-1-.6-7.8.4-16.2,0-24-6.9-.4-14.2.5-21,0s-.7,0-1,0c-.8-4.6,1.1-9.1,1.1-13.5s-1.1-6.7-1.1-10.5h2ZM356,234h-19v22h18c0-7.4-.4-14.7,1-22Z"/>
  <path class="st6" d="M223,313c0,.5-.9,2-1,3.4-.2,6.3.6,13.5,0,19.6s0,.7,0,1l-25-1,1-27c2.3,8.1.4,17.6,1,26h21v-101l1-1c.6,24.6.7,49.6,1,74.5s-.6,4.4,1,5.5Z"/>
  <path class="st12" d="M450,205v2c-2.2,0-5.6-.7-7,1-.6,0-1.8,1-3,1,.6-3-1.5-1.9-3.5-2-18.7-.6-37.8,0-56.5,0-.1-.6.2-1.5,0-2h70Z"/>
  <path class="st15" d="M468,234c-5,1-9.7,1.3-15,1v77c-.7,0-1.3,0-2,0,0-7.3.9-14.7,1-21.5.3-18.8-.3-37.7,0-56.5h16Z"/>
  <path class="st6" d="M312,207h-4c-2.9-1.7-9.3-1.7-12,0h-5l-.5-1-1.5,1h-5c-1.5-1.7-6.4-1.7-8,0h-9c-7.1-2.3-15.6-.4-23-1,0-.3,0-.7,0-1l68-1v3Z"/>
  <path class="st15" d="M266,338c0,.3,0,.7,0,1-.6-.2-1.4-.9-2-1v-24s-21,0-21,0v-2c4.2,0,20.7-1.1,22.5,2s.3,19.6.5,24Z"/>
  <path class="st29" d="M379,232c0,.1-.9,1.9-1,2h-20c2.2,7.2.5,15.5,1,23-2,3-3.7,1-4,1,3,.6,1.9-1.5,2-3.5.3-7.5-.2-15.1,0-22.6h21c0-1,0-2,0-3h1c-.1.9.2,2.1,0,3Z"/>
  <path class="st21" d="M243,312v2c0,7.3,0,14.7,0,22,5.6.1,11.8-.7,17,2-5.6-.1-11.4.2-17,0s-.7,0-1,0-.7,0-1,0c.2-8.6,0-17.4,0-26h2Z"/>
  <path class="st15" d="M428,339c0,.3,0,.7,0,1h-22c-1,1,1.5,19.1-1,22v-23c1-1,20.3-2,23,0Z"/>
  <path class="st15" d="M290,364h23c0,8,0,16,0,24l-1-23c-4.4-.8-19.5,1.5-22-1Z"/>
  <path class="st29" d="M314,233c6.8.5,14.1-.4,21,0,.4,7.8-.6,16.2,0,24-2.5-3,0-22-1-23-6.4-.6-13.9,1.3-20-1Z"/>
  <path class="st4" d="M378,234c-.4.4-.5,1.2-1.4,1h-16.6c-.9,5.3,1.6,18.1-1,22-.5-7.5,1.2-15.8-1-23h20Z"/>
  <path class="st21" d="M287,208c.6,3-1.5,1.9-3.5,2-5.9.2-11.1-.6-16.5-1,6-1.8,13.6-1,20-1Z"/>
  <path class="st29" d="M313,209c0,3.8,1.1,7.1,1.1,10.5s-1.9,8.9-1.1,13.5l-1-1v-24h1c0,.3,0,.7,0,1Z"/>
  <path class="st26" d="M267,207h-23c0-.3,0-.7,0-1,7.4.6,15.9-1.3,23,1Z"/>
  <path class="st14" d="M402,364c-5.4,1.7-13.6,1.7-19,0,6.3-.3,12.7,0,19,0Z"/>
  <path class="st26" d="M308,207h-12c2.7-1.7,9.1-1.7,12,0Z"/>
  <path class="st28" d="M415,231h-11c5.6-.8,5.4-.6,11,0Z"/>
  <path class="st26" d="M284,207h-8c1.6-1.7,6.5-1.7,8,0Z"/>
  <path class="st26" d="M243,219c0-1.4,0-2.2,0-4v4Z"/>
  <polygon class="st26" points="291 207 289 207 290.5 206 291 207"/>
  <path class="st26" d="M243,210c0-.2,0-.5,0-1v1Z"/>
  <path class="st29" d="M336,259l-1-1,1,1Z"/>
  <path class="st22" d="M520,307h-23c3-2.5,22,0,23-1v-21s1,0,1,0c-.2,4.3,1,20-1,22Z"/>
  <path class="st22" d="M495,309v26c-6.3,0-12.7,0-19,0,5.4-2.3,12.3-.4,18-1,1-1-1.5-21.8,1-25Z"/>
  <path class="st6" d="M520,307c-2.5,2.5-18.5.2-23,1v-1h23Z"/>
  <path class="st21" d="M472,337c-.3,0-.7,0-1,0l-1-1,1-24h1c0,8.3,0,16.7,0,25Z"/>
  <path class="st0" d="M472,307c0,1.7,0,3.3,0,5h-2v-5s2,0,2,0Z"/>
  <path class="st26" d="M171,259c.8,6.6-1.1,15.7,0,22h-22v-22h22Z"/>
  <path class="st26" d="M450,205h-70c-2-6.6-.6-14-1-21h69.5c2.7,5.5,1.5,14.4,1.5,21Z"/>
  <path class="st0" d="M380,207c18.7,0,37.8-.6,56.5,0s4-1,3.5,2c-3.3,0-7-1-11-1-8.5,0-17,.7-25,1s-2,0-3,0c-2,0-4,0-6,0s-2.7,0-4,0-3.3-.1-5,0-3-.2-4,0l-2,1v19c-.3,0-.7,0-1,0h-1c.2-6.6,0-13.4,0-20s0-1.3,0-2h2Z"/>
  <path class="st26" d="M312,204l-68,1c.4-6.9-.3-14,0-21h66.5c2.7,5.2,1.5,13.7,1.5,20Z"/>
  <path class="st26" d="M376,209c.5,6.9-1.1,14.5,1,21h-19s0-21,0-21c6,0,12,0,18,0Z"/>
  <path class="st26" d="M315,209c6,0,12,0,18,0v21s-18,0-18,0v-21Z"/>
  <rect class="st11" x="473" y="367" width="21" height="21"/>
  <path class="st22" d="M473,367c6.8-2.3,14.9-.4,22-1-.6,7.1,1.3,15.2-1,22v-21s-21,0-21,0Z"/>
  <path class="st26" d="M520,391c.6,4.8-1.2,10.8,1,15,0,1.9.4,4.6-.2,6.3-1,3-4.7.7-7.3.6-5-.1-10.7.5-15.5,0v-22h22Z"/>
  <path class="st17" d="M521,406c-2.2-4.2-.4-10.2-1-15,1.7.5,1.1,12.3,1,15Z"/>
  <path class="st19" d="M453,387c0-.1,1-1.1,1-2.4.3-5.8-.3-11.8,0-17.6h15v22h-16c0-.7,0-1.3,0-2Z"/>
  <path class="st26" d="M450,366c-.3,7.3.2,14.7,0,22-7,0-14,0-21,0l1-22h20Z"/>
  <path class="st12" d="M450,364c0,.7,0,1.3,0,2h-20s-1,22-1,22c-.3,0-.7,0-1,0v-24c7.3,0,14.7,0,22,0Z"/>
  <path class="st12" d="M471,338v24s-20,0-20,0c.3-8-.2-16,0-24h20Z"/>
  <path class="st12" d="M472,362v-23c1.7,6.8,1.7,16.2,0,23Z"/>
  <path class="st21" d="M335,415v-24c.4-.5,1.3,1,1.5,1h20.5v22h20c.8-4.5-1.5-20.5,1-23v44c0,.3,0,.7,0,1,0,1,0,2,0,3s0,.7,0,1,0,.7,0,1h-1c-21.3,0-42.7,0-64,0,0-.7,0-1.3,0-2l64,1v-25c-14,0-28,0-42,0Z"/>
  <path class="st22" d="M377,443c0,7.7,0,15.4,0,23h-62s61-1,61-1c1-1-1.5-19.1,1-22Z"/>
  <path class="st22" d="M378,442h-1v-1h1c0,.3,0,.7,0,1Z"/>
  <path class="st12" d="M265,363c0,.3,0,.7,0,1,0,6.7-.9,16.8,0,23-6.8,2.8-15.2-.8-22,2v-25c7.3,1,14.7-1.2,22-1Z"/>
  <path class="st15" d="M283,364c-.4,0-1.1.9-2.4,1-4.4.3-10.2-1.4-13.6,1.5v21.5c5.8,1,17-1.4,22,0s.8,1.7,1.7,2c2.7.6,6.4-.3,9.3,0-2.3.1-7.6,1.2-10,2h-1l-.6-2h-21.4s-1,0-1,0c.5-1.2-.9-2.6-1-3-.9-6.2,0-16.3,0-23h18Z"/>
  <path class="st28" d="M243,338v24s22,0,22,0c0,.3,0,.7,0,1-7.3-.2-14.7,2-22,1s-.4-1-1-1c0-.3,0-.7,0-1,.3-8-.2-16,0-24,.3,0,.7,0,1,0Z"/>
  <polygon class="st12" points="267 390 288.4 390 289 392 289 413 267 413 267 390"/>
  <path class="st28" d="M312,415c-7,0-14,0-21,0s-1.3,0-2,0c0-.7,0-1.3,0-2v-21h1l.4,21.1c1.9,2.7,17.9-.9,21.6,1.9Z"/>
  <path class="st12" d="M312,415c.3,0,.7,0,1,0,0,.7,0,1.3,0,2,0,6.3,0,12.7,0,19s0,2,0,3l-22,1v-25c7,0,14,0,21,0Z"/>
  <path class="st28" d="M403,409c0,2,0,4,0,6h-2c-7-.2-14,0-21,0l22-1c1-1-1.5-18.8,1-23-.1,6,.2,12,0,18Z"/>
  <path class="st16" d="M403,391v-1c.3,0,.7,0,1,0-.3.4-.8.7-1,1Z"/>
  <path class="st12" d="M380,415c7,0,14-.2,21,0s.7,1,1,1v24s-23,0-23,0l-1-1c0-1,0-2,0-3l1-.5-1-.5v-17l1-.5-1-.5v-2h2Z"/>
  <path class="st22" d="M379,440h-1c0-.3,0-.7,0-1l1,1Z"/>
  <path class="st29" d="M174,388c-.3,0-.7,0-1,0-1.4-15.4,1.9-34.1,0-49l1,49Z"/>
  <path class="st25" d="M195,365c-.1-7.7-.8-16.6,1-24,.2,6.1,0,12.4,0,18.5s.6,4.4-1,5.5Z"/>
  <path class="st5" d="M174,311v24h21v-23c-6.9,0-13.4.3-20-1h21s0,25,0,25l-23,1v-26c.3,0,.7,0,1,0Z"/>
  <path class="st5" d="M171,307c0,.8,0,1.7-1,2-5.5-.9-14.9,0-21,0v-2h22Z"/>
  <path class="st5" d="M199,339c1.3,6.3-1.3,16.7,0,23h-1c0-.3,0-.7,0-1,.2-7.6-.3-15.4,0-23,.2.3.9.6,1,1Z"/>
  <path class="st25" d="M198,362c0,.3,0,.7,0,1-.1.5-.5.8-1,1,0-1.1-.3-2.5,1-3,0,.3,0,.7,0,1Z"/>
  <path class="st26" d="M220,366v22h-20c-.2-6.9-3-15.8.5-22h19.5Z"/>
  <path class="st2" d="M220,341h2c0,4.6,0,9.3,0,14l-1,.5,1,.5c0,2,0,4,0,6-1,.3-1,1.2-1,2-7.5,0-15.8.8-23-1,0-.3,0-.7,0-1h1c0,.4-.1.8.5,1l.5-1c6.7,0,13.3,0,20,0,0-7,0-14,0-21Z"/>
  <path class="st26" d="M196,391c.2,7.3-.1,14.7,0,22h-22v-22h22Z"/>
  <path class="st5" d="M222,364c-.3,0-.7,0-1,0,0-.8,0-1.7,1-2,0,.7,0,1.3,0,2Z"/>
  <path class="st10" d="M220,338v1l-1,.5,1,.5v1c0,7,0,14,0,21-6.7,0-13.3,0-20,0h-1c-1.3-6.3,1.3-16.7,0-23,6.9-1.7,14.4-.2,21-1Z"/>
  <path class="st12" d="M241,338c.3,0,.7,0,1,0-.2,8,.3,16,0,24h-19c-.6-8.1.8-17.1,0-25,6.1-.4,12,.8,18,1Z"/>
  <path class="st5" d="M222,356l-1-.5,1-.5c0,.3,0,.7,0,1Z"/>
  <path class="st2" d="M220,340l-1-.5,1-.5c0,.3,0,.7,0,1Z"/>
  <rect class="st25" x="525" y="286" width="21" height="21"/>
  <rect class="st12" x="104" y="470" width="18" height="18"/>
  <path class="st10" d="M149,285c2.8-2.9,17.3,2.4,22-1-.3,7.6.4,15.4,0,23h-22v-22Z"/>
  <path class="st10" d="M175,311c6.6,1.3,13.1,1.1,20,1v23h-21v-24c.3,0,.7,0,1,0Z"/>
  <path class="st14" d="M453,312c5.7,0,11.3,0,17,0h1l-1,24h-19c0-8,0-16,0-24,.7,0,1.3,0,2,0Z"/>
  <path class="st15" d="M335,415c14,0,28,0,42,0v25l-64-1c0-1,0-2,0-3,1.7-5.4,1.7-13.6,0-19,0-.7,0-1.3,0-2,7.3,0,14.7,0,22,0Z"/>
  <path class="st14" d="M403,390v1c-2.5,4.2,0,22-1,23l-22,1h-1l-1-1v-23c1.9-1.9,20.6-1,25-1Z"/>
  <path class="st14" d="M313,390c0,8.3,0,16.7,0,25-.3,0-.7,0-1,0-3.6-2.8-19.7.8-21.6-1.9l-.4-21.1c2.4-.8,7.7-1.9,10-2,4.3-.2,8.7,0,13,0Z"/>
  <path class="st14" d="M287,364c.2.2,2.4-.6,2.1,1.4v22.6c-5.1-1.4-16.3,1-22.1,0v-21.5c3.3-2.9,9.2-1.1,13.6-1.5s2.1-1,2.4-1c1.2-.2,2.7.2,4,0Z"/>
  <path class="st4" d="M386,209c.7,1.6,4.3,1.6,5,0,1.3,0,2.7,0,4,0,1,1.6,5.1,1.6,6,0,1,0,2,0,3,0v21c-7.9-.7-16.5,1.3-24-1v-19c1,.4,1.8-.9,2-1,1-.2,2.8,0,4,0Z"/>
  <path class="st14" d="M260,338c1,0,2,0,3,0s.7,0,1,0c.6,0,1.4.8,2,1,0,.3,0,.7,0,1-2.7,4.3,0,9.5,0,13.5s-1,5.7-1,8.5h-22s0-24,0-24c5.6.2,11.4-.1,17,0Z"/>
  <path class="st21" d="M266,340c0,.1.9.3,1,2.4.3,6.5-.3,13.1,0,19.6.7.7,16.5-.8,19.3,0s.5,1.9.7,2c-1.3.2-2.8-.2-4,0h-18c0-.3,0-.7,0-1s0-.7,0-1c0-2.8,1-6.2,1-8.5,0-4-2.7-9.2,0-13.5Z"/>
  <path class="st26" d="M356,234c-1.4,7.3-1,14.6-1,22h-18v-22h19Z"/>
  <path class="st28" d="M243,314h21s0,23,0,23l-1,1c-1,0-2,0-3,0-5.2-2.7-11.4-1.9-17-2,0-7.3,0-14.7,0-22Z"/>
  <path class="st21" d="M264,338c-.3,0-.7,0-1,0l1-1v1Z"/>
  <path class="st21" d="M401,209c-.9,1.6-5,1.6-6,0,2,0,4,0,6,0Z"/>
  <path class="st21" d="M391,209c-.7,1.6-4.3,1.6-5,0,1.7-.1,3.3,0,5,0Z"/>
  <path class="st21" d="M382,209c-.2,0-1,1.4-2,1l2-1Z"/>
  <path class="st22" d="M378,436c0-.3,0-.7,0-1l1,.5-1,.5Z"/>
  <polygon class="st28" points="379 415 378 415 378 414 379 415"/>
  <polygon class="st22" points="378 418 378 417 379 417.5 378 418"/>
  <path class="st21" d="M313,436c0-6.3,0-12.7,0-19,1.7,5.4,1.7,13.6,0,19Z"/>
  <path class="st25" d="M199,362h1l-.5,1c-.6-.2-.4-.6-.5-1Z"/>
</svg>