<?xml version="1.0" encoding="UTF-8"?>
<svg id="Layer_1" xmlns="http://www.w3.org/2000/svg" version="1.1" viewBox="0 0 904 904">
  <!-- Generator: Adobe Illustrator 29.7.1, SVG Export Plug-In . SVG Version: 2.1.1 Build 8)  -->
  <defs>
    <style>
      .st0 {
        fill: #1c3a91;
      }

      .st1 {
        fill: #e6d733;
      }

      .st2 {
        fill: #0f2877;
      }

      .st3 {
        fill: #060b1c;
      }

      .st4 {
        fill: #f52c40;
      }

      .st5 {
        fill: #123190;
      }

      .st6 {
        fill: #c5202f;
      }

      .st7 {
        fill: #a71726;
      }

      .st8 {
        fill: #1341a2;
      }

      .st9 {
        fill: #010102;
      }

      .st10 {
        fill: #124099;
      }

      .st11 {
        fill: #1345a1;
      }

      .st12 {
        fill: #12139e;
      }

      .st13 {
        fill: #080a11;
      }

      .st14 {
        fill: #1839a5;
      }

      .st15 {
        fill: #efb93b;
      }

      .st16 {
        fill: #1b62db;
      }

      .st17 {
        fill: #eb2e3f;
      }

      .st18 {
        fill: #050b1d;
      }

      .st19 {
        fill: #0e2774;
      }

      .st20 {
        fill: #050c1e;
      }

      .st21 {
        fill: #c11e2d;
      }

      .st22 {
        fill: #143692;
      }

      .st23 {
        fill: #020309;
      }

      .st24 {
        fill: #02050e;
      }

      .st25 {
        fill: #0d1d56;
      }

      .st26 {
        fill: #12337d;
      }

      .st27 {
        fill: #010106;
      }

      .st28 {
        fill: #123396;
      }
    </style>
  </defs>
  <path class="st20" d="M100,82c2-8.3,0-16.6,2-25h29.5c.5,0,2.2-1.5,3.5-1v-25l33.5-2c189.5,4.4,382-6.1,571.1,1,10.2.4,20.4,0,30.5,1v22.5c0,.5,1.5,2.2,1,3.5h30v27c1.5.5,1.9-1,2-1,.3,0,.7,0,1,0-.6,3,1.5,1.9,3.5,2,7.2.3,14.4-.2,21.6,0v22.4c.2,1.2,1.7.4,2,.6s.5,1.3,1,1.5c5.4,1.6,16.3.7,22-.5v31c1.3-.5,3,1,3.5,1h15.5v622c-4.5.8-12.4-1.1-16.3,0s-.5,1.9-.7,2-2.4-.6-2.1,1.4v31.6c0,0-23.9,0-23.9,0,.5,1.3-1,3-1,3.5v20.5c-3.7.6-24.5-.9-25.8.2s0,1.6-.2,1.8-2.4-.6-2.1,1.4v22.6c0,0-28.9,0-28.9,0,.4,1.5-2,4-2,4.5v22.5H135.5c-1-.7-1.1-.9-1.1-2,0-5.6,1.9-17.5.6-22.3s-1.9-.5-2-.7.6-2.4-1.4-2.1h-29.4c-3.2-7.8,1.1-16.1-1.2-23.9-.6-.3-1.3,0-1.9,0s-1.3,0-2,0c.6-3-1.5-1.9-3.5-2-5.8-.2-13.1.7-18.5,0,2.2-2.9-1.1-.8-1.1-4.4,0-6.6,2.6-12.5-.9-19.6h-23v-25.5c0-1.4-1.9-5.5-1.2-7.8l-1.3-1.7h-16.5V141h16.5c.7,0,2.3-2.4,2.5-3.5.9-4.5-1.3-26.4.2-27.3,5.8-1.3,16.1,1.2,21.2-.1s.5-1.9.7-2,1.4.2,2-.6c3.2-4.5-1.7-19.8,2.2-22.1l23.8-.2c.1-.6-.2-1.5,0-2s0-.7,0-1ZM164,67c-.3.3-1.4.7-2,1s-1.9-.6-2.1.6v6.4c0,0,2.1,0,2.1,0-.1.7-.9,1.4-1,2s-.9.9-1.1,2.4c-.3,2.4.3,5.2,0,7.6l-19,1c-1,0-2,0-3,0v-2s-5.6,0-5.6,0c-2-.4-1.3,2-1.4,2.1-.5.3-2.2.3-3,1-1.9,1.8-1,17.9-1,22l-24.9,1.2v1.9c-.1,0-.1,1-.1,1-.3,0-.7,0-1,0s-.2-1.3-1-1c-1.3,6-2,14,0,20,0,1,0,2,0,3-7.3.5-13.5-1.6-20,2s-1.3,1.4-2,2-1.8-.5-2,.6v31.4c-5.2-.9-3.4,1.1-4,2s-1.8,2.8-2,3-2.4-.6-2.1,1.4v327.1c0,0,2.1,3.5,2.1,3.5,0,1,0,2,0,3-3-.6-2,1.6-2,3.5,0,14.6-.6,29.4,0,44,0,1.9-1,4,2,3.5,0,1.7,0,3.3,0,5s0,1.3,0,2c-3-.6-1.9,1.5-2,3.5-.1,4.3.1,8.7,0,13,.2,1.2,1.6.4,2.1.6,0,3.3,0,6.7,0,10,0,5.4.5,11.8,0,17s-2.3,2.3,0,3v98c-3-.7-2.2,2.9-2,4.5.2,3.2,1.1,6.3,1.1,9.5l1-1,5,2c0,.3,0,.7,0,1s-1,.3-1,.5c1,.8,1.9,0,2.1,1.9,1,7.4-.4,18.1,0,26.1s-1,4,2,3.5c0,.3,0,.7,0,1,0,.6-.3,1.3.1,1.8l19.9,1.2,2,24c.7.3,1.3.7,2,1,4.7,2.3,24.1,0,25,1-.8,7.5-.9,15.5,1,23l1,1c.5,1,1.4.9,2.4,1.1,4.3.5,27.6-1.1,28.6,0v17.4c0,1.2,1.6.4,2,.6.6.3,1.7.7,2,1s-.7,2.5,1.4,2.1h571.1s7-2,7-2l.4-1.5c0-.8-1-1.4-1-1.5,0-.7,0-1.3,0-2,3,.6,1.9-1.5,2-3.5.1-3.5,0-7.1,0-10.6,1-1,20,1.5,23-1,1.3,0,2.7,0,4,0s2.1.1,3,0,.7-.8,1-1,1.8.6,2-.6v-22.4c6.5-.9,17.3,1.7,23-1s1.4-1.4,2-2,1.8.5,2-.6l-1-15.4c0-.7,0-1.3,0-2l2-6c2.4,1.4,19,1.5,19.8.8s0-1.6.2-1.8,1.4.3,1.8-.2c.7-.8.8-17.5-.8-19.8,0-1.3,0-2.7,0-4h2s0-11,0-11c.7-.7,3.1-2.4,4-3s1.5.3,1.9-.1l.2-550.5c.3-1.9-2-1.3-2.1-1.4-1-1.7,2.4-2.6-3-3s-.7,0-1,0c-.2-5.5.3-11.1,0-16.6s-1-2.3-1-2.4c-.5-6.1,2-15.9-6-17s-4.8.2-7,0v2c-1,0-2,0-3,0v-2s-8-1-8-1c0-.3,0-.7,0-1s0-.7,0-1,0-.7,0-1c.7-6,1.2-6.5,0-13s-.3-7.9-6-9-14,.8-20,0c0-.3,0-.7,0-1,0-3.3.8-7.3-1-10,0-1.6.1-3.4,0-5s0-2-1-4c-1.6-2.9-2.8-2-4-3s.3-1.4-.2-1.8c-.7-.6-7.6-.3-9.4-.2s-4-1-3.5,2c-1.7,0-3.3,0-5,0l-9-1c-.7-.7.7-13.8,0-16.3s-1.9-.5-2-.7c-.2-.2-1.5-2.3-2-3s.3-1.4-.1-1.8l-576.2-.2c-1.3-.2-.3,1.7-.6,2Z"/>
  <path class="st23" d="M100,83c-.2.5.2,1.4,0,2l-23.8.2c-3.9,2.3,1,17.6-2.2,22.1s-1.9.5-2,.6.5,1.7-.7,2c-5.1,1.4-15.4-1.2-21.2.1-1.5,1,.7,22.8-.2,27.3s-1.7,3.5-2.5,3.5h-16.5v622h16.5l1.3,1.7c-.7,2.4,1.2,6.5,1.2,7.8v25.5h23c3.5,7,.9,12.9.9,19.6s3.3,1.6,1.1,4.4c-.6,0-1.4-.8-2-1-.2-6.5.1-13,0-19.6l-1-1.4-24.6-1c0-1.1-.4-2.6-.4-3.5v-30.5h-18V139h17.5c2.9,0,.5-7.7.5-9.5,0-3.1-.4-19.3.5-20.6l24.6-.9,1-16v-4c0-1-.3-2-.6-2.9l1.2-1.9h26.4Z"/>
  <path class="st27" d="M831,108h25v31h19c.3,20.8-.2,41.7,0,62.5.2,54.1,0,108.1,0,162.5,0,9,0,18,0,27,0,67.2.7,134.8.6,201.7,0,5.1-1.7,10.5.2,15.8l-.8,156.5h-19s0,35,0,35h-25v24h-28v26h-31v26l-16.5,1H137.5s-5.5-1.1-5.5-1.1l1-26h-34s0-26,0-26c.6,0,1.3-.2,1.9,0,2.3,7.8-2,16,1.2,23.8h29.4c2-.2,1.3,2,1.4,2.1s1.7-.5,2,.7c1.3,4.8-.6,16.7-.6,22.3s0,1.3,1.1,2h634.5v-22.5c0-.5,2.4-3,2-4.5h29v-22.6c-.4-2,1.8-1.3,2-1.4s-.3-1.4.2-1.8c1.4-1.2,22.1.4,25.8-.2v-20.5c0-.5,1.5-2.2,1-3.5h24v-31.6c-.4-2,1.8-1.3,2-1.4s-.5-1.7.7-2c3.9-1,11.8.8,16.3,0V141h-15.5c-.5,0-2.2-1.5-3.5-1v-31c-5.6,1.1-16.6,2.1-22,.5s-.8-1.3-1-1.5Z"/>
  <path class="st23" d="M164,28c191.1-4.2,385.5-.2,577,0,4,0,8,0,12,0,3,1.9,8.2.9,12,1s4.7,0,7,0c.8,4.8-1.5,23.5,1,26,.8,1.6,4.2,1.6,5,0,8.3,0,16.7,0,25,0v28c-.1,0-.5,1.5-2,1v-27h-30c.5-1.3-1-3-1-3.5v-22.5c-10.1-1.1-20.3-.6-30.5-1-189.1-7.2-381.5,3.3-571.1-1l-33.5,2v25c-1.3-.5-3,1-3.5,1h-29.5c-2,8.4,0,16.7-2,25v-26c1-1,1-.9,2.4-1.1,9.5-1,20.9.9,30.6,0,0-2,0-4,0-6,1.7-3,1.7-9.8,0-13,0-2.3,0-4.7,0-7,2.7,0,5.3,0,8,0,5-.1,10.4-.8,15-1s5.3,0,8,0Z"/>
  <path class="st13" d="M741,28c-191.5-.2-385.9-4.2-577,0h577Z"/>
  <path class="st9" d="M804,83c8.7-.7,18.2.5,27,0v25c-.3-.2-1.8.6-2-.6v-22.4c-7.1-.2-14.3.3-21.5,0s-4,1-3.5-2Z"/>
  <path class="st27" d="M75,822c5.5.7,12.7-.2,18.5,0s4-1,3.5,2c-7.9-.4-16,.3-24,0,0-1,0-2,0-3,.6.2,1.4.9,2,1Z"/>
  <path class="st15" d="M875,391c0-9,0-18,0-27,1.8,6.5,1.1,14.6,1,21.5s.6,4.4-1,5.5Z"/>
  <path class="st25" d="M73,821c0,1,0,2,0,3-2.3-7.5-.4-16.2-1-24l1,1.4c.1,6.5-.2,13.1,0,19.6Z"/>
  <path class="st13" d="M156,28c-4.6.2-10,.9-15,1,4.2-2.2,10.2-.4,15-1Z"/>
  <path class="st13" d="M133,49c.2-4.3-.1-8.7,0-13,1.7,3.2,1.7,10,0,13Z"/>
  <path class="st13" d="M765,29c-3.8,0-9,.9-12-1,3.8,0,9-.8,12,1Z"/>
  <path class="st13" d="M100,66c-1.7-1.7-1.7-8.3,0-10v10Z"/>
  <path class="st13" d="M778,55c-.8,1.6-4.2,1.6-5,0h5Z"/>
  <path class="st13" d="M73,92c-2.3-1.6,0-3.5,0-4v4Z"/>
  <path class="st2" d="M161,90c.2.1,0,2.4,2.8,3.8s5.3.6,8.2.2c-1.4,4.1-7.6,5.7-11.3,8.2-24.8,16.7-47.6,41.4-60.6,68.4v490.4c0,2.3,0,4.7,0,7s0,4.7,0,7c.1,19-2.8,51.5,3.2,68.3,9.6,26.8,45.6,59.4,74.4,62.6h559.9c25.3-5.3,47.3-19.8,61.5-41.5,1.3-.9,2.9.6,4,.6v1l-1,25h-27v27c-.9.1-2,0-3,0,.6-3-1.5-1.9-3.5-2-6-.2-12.1,0-18.1,0s-4.4-.6-5.5,1l-1,1.4c.7,5-.9,9.7-1,14.6s0,1.3,0,2c-1.1.1-1.6,1.8-2,2H163s0-17.3,0-17.3c-.3-1.2-1.9-.5-2-.7s-.2-1.8-1-2l-29.9-2.1v-22.9c-.8,0-1.5,0-2.1,0s-.7,0-1,0c-3.2-2.5-24,0-25-1-.1-8,.8-16.3-2-24,0-.3,0-.7,0-1,0-.7,0-1.3,0-2h-10.4s-.6,2-.6,2c-3.9,0-5.2.2-9-1l-1-31.4c-.2-1.2-1.6-.4-2-.6-.6-.3-1.2-1-2-1,0-.3,0-.7,0-1l-3.1-1.6c-.7-33.3,1.2-66.7,0-99.9s1-4-2-3.5v-7l2-.5v-2.5s-2,0-2,0v-1c.5-5.2,0-11.6,0-17l.9-9.4c-.2-.4-.6-.4-.9-.6,0-5.7,0-11.3,0-17s0-1.3,0-2c1.7-1,1-3.8,1-5.5,1.3-127.7-1-255.4,0-383.1l2.1-5.4c1.8-.6,2.7-2,4-3s1.8.6,2-.6c.9-5.5-1.7-26.7.9-30s14.4-.7,18.6-1.4l1.5-1c0-.3,0-.7,0-1,3.6-7.2.8-15.4,3-23,8.6.2,18.5-1.1,27-2v-23c4.4.9,29.2-1.2,31,0Z"/>
  <path class="st11" d="M783,124l7-1c.8,1.3.2,5.6,2.5,5,1.5-3,2.7-4.6,6.5-4,.1,4.1,1.5,10.1,3,14s-.6,1.8.6,2l21.9.9,1.4,31.4c.7,1.9,2.8.6,3,.7.3,0,.7,0,1,0,.6.9.7,2,1,3s.9,1.5,1,2,0,.6,0,1c.1,2,0,4,0,6v536c0,.7,0,1.3,0,2s0,1,0,1c-1.3,7.2-3.8,5-5.5,8-3.9,7.3.1,29.1-2,32-1.8,1.8-12.9.9-13.6,0s.3-1.8,0-2c-.5-.4-3.6.5-5.1-.4l-1-3,6.1-25v-116.5c0-3.3,0-6.7,0-10s0-2,0-3c0-3,0-6,0-9s0-4,0-6v-37c0-.7,0-1.3,0-2,0-3,0-6,0-9v-4c0-17.3,0-34.7,0-52,0-3,0-6,0-9,0-11.3,0-22.7,0-34s0-1.3,0-2c0-15.7,0-31.3,0-47v-3c0-1.7,0-3.3,0-5s0-1.3,0-2c0-1,0-2,0-3,0-4.7,0-9.3,0-14s0-10,0-15,0-4,0-6c0-5.3,0-10.7,0-16s0-2.7,0-4c0-30,.9-60.7,0-90.5,0-2.2-.3-4.4-1-6.5,0-.1.8-.8,1-2s0-2,0-3,0-2,0-3,0-2.7,0-4,0-2.7,0-4c-.1-5.4-.9-10.6-1-16s0-4.7,0-7,0-5.3,0-8,0-.7,0-1l1-.5-1-.5c0-1.3,0-2.7,0-4v-1c-1.1-19.1-7-26.1-19-40s-6.1-8.1-8-10Z"/>
  <path class="st10" d="M743,70v17l-1,.5,1,.5c.3,0,.7,0,1,0-.6,3,1.5,1.9,3.5,2,8.5.3,17.1-.6,25.6.4,1.4.9,1.4,17.5,1.9,21.1s.6,2.1,2,2.5.7,0,1,0c3.7.4,11.2.4,15,0s5.6-.2,5-3c5.7,1.1,5.3,5.1,6,9-1.9,3.4-1.4,9.4,0,13,0,.3,0,.7,0,1l-1,.5,1,.5c0,.3,0,.7,0,1-.1.9,0,1.7-1,2h-1c-1.5-3.9-2.9-9.9-3-14-3.8-.6-5,1-6.5,4-2.3.6-1.8-3.6-2.5-5l-7,1c-9.3-9.1-42.7-33-55.5-33h-48.5v-2h19.5c1.3,0,7-2.8,8-4,1.6-2,1.1-4.2,2.1-5.9,1.5-2.6,9.1-6.3,8.5-11,6.5,0,13,.3,19.5,0s4.1.7,4.5-1c.5.7,1.8,2.8,2,3Z"/>
  <path class="st16" d="M833,176c.1.6-.2,1.5,0,2s.6.8,1,1v541.5s-1,7.5-1,7.5c-.9.6-3.3,2.3-4,3-3.4,3.3-1.8,6.5-2,11s0,2.7,0,4c-.4,6.7-1.5,13.3-1,20-6.6-.6-13.9,1.3-20-1,1.6-.2,3.3-1.1,5-1,.7,1,11.8,1.9,13.6,0,2.1-3-1.9-24.8,2-32s4.2-.8,5.5-8v-1c0-.7,0-1.3,0-2-3.6-178.5,4.9-357.6,0-536,0-2,.1-4,0-6v-1c0-.5-.8-1.3-1-2h2Z"/>
  <path class="st14" d="M161,819c.2.1,1.7-.5,2,.7v17.3s578,0,578,0c-3.4,2.1-11.9.8-16.5,1-26.8,1.2-53-.4-80,1.1h-298.9s-181.5-1.1-181.5-1.1c-.3-.3-1.4-.7-2-1l-1-18Z"/>
  <path class="st27" d="M164,67c.3-.3-.6-2.2.6-2l576.2.2c.5.4,0,1.6.1,1.8-5.2-.1-10.4.1-15.5,0s-4.2-1.1-6-1.1c-173.3-.4-348.4-3-522.5,0-11,.2-22,1.3-33,1Z"/>
  <path class="st9" d="M743,835c0,.1,1,.7,1,1.5l-.4,1.5-7,2H165.4c-2.1.4-1.3-1.9-1.4-2l181.5,1h298.9c27-1.4,53.2,0,80-1.1,4.6-.2,13.2,1.1,16.5-1s.9-1.9,2-2Z"/>
  <path class="st27" d="M70,178c0,110.6,0,221.4,0,332l-2-3.5V179.4c-.4-2,1.9-1.3,2-1.4Z"/>
  <path class="st9" d="M833,176c0,.1,2.4-.5,2.1,1.4l-.2,550.5c-.4.5-1.6,0-1.9.1l1-7.5V179s-1-1-1-1c-.2-.5.1-1.4,0-2Z"/>
  <path class="st14" d="M70,569c0-1.7,0-3.3,0-5,0-17,0-34,0-51s0-2,0-3c0-110.6,0-221.4,0-332,.2-.2,1.5-2.3,2-3h1l-2.1,5.4c-.9,127.7,1.4,255.4,0,383.1s.6,4.4-1,5.5Z"/>
  <path class="st5" d="M70,626c3-.6,1.9,1.5,2,3.5,1.1,33.2-.8,66.7,0,99.9l3.1,1.6-5-2v-103Z"/>
  <path class="st14" d="M804,773c0,.7,0,1.3,0,2,0,5.5-.3,10.6-1,16-.6.6-.7,1.4-2,2l-24-1c-.3,8.3.8,16.8-1,25-.3.2-.7,1-1,1v-27h27l1-25c1.7,1.8,1,4.6,1,7Z"/>
  <path class="st11" d="M754,88c1.7,0,3.3,0,5,0h13c1.2,1,2.4,0,4,3l1,4c.1,1.6,0,3.4,0,5s-1.2,1.8-1,4.5.6,4.2,2,5.5c0,.3,0,.7,0,1s0,.7,0,1,0,.7,0,1l-1,1c-1.4-.4-1.7-1.1-2-2.5-.6-3.5-.6-20.1-1.9-21.1-8.5-1.1-17.1-.1-25.6-.4s-4,1-3.5-2c3.3.2,6.7,0,10,0Z"/>
  <path class="st5" d="M128,792c.7,0,1.3,0,2,0v22.9c.1,0,30,2.1,30,2.1l-31,1-1-1v-25Z"/>
  <path class="st28" d="M197,66v2c-.3,0-.7,0-1,0-7.6,0-15.4-.3-23,0s-6.6.5-9.9,1v18c-.5.8,0,2.4-2.1,3-1.8-1.2-26.6.9-31,0v23c-8.5.9-18.4,2.2-27,2s-.7,0-1,0v-1h1l1-1c3.8-.5,23.2.9,24,0v-24c.8-.7,2.5-.7,3-1h7c1,0,2,0,3,0,6.7,0,13.3.4,20,1v-12c0-.6.9-1.3,1-2,.4-2-.3-4.8,0-7,.6-.3,1.7-.7,2-1,11,.3,22-.8,33-1Z"/>
  <path class="st27" d="M70,513c0,17,0,34,0,51-3,.6-1.9-1.5-2-3.5-.6-14.6,0-29.5,0-44s-1-4.1,2-3.5Z"/>
  <path class="st16" d="M828,154l-1,8.5,2,10.5c-.2,0-2.4,1.3-3-.7l-1.4-31.4-21.9-.9c-1.2-.2-.4-1.5-.6-2h1c2.4,1.8,6,1,9,1s2,0,3,0c2.3,0,4.7,0,7,0v-2c8,1.1,5.5,10.9,6,17Z"/>
  <path class="st5" d="M100,767c2.8,7.7,1.9,16,2,24,1,1,21.8-1.5,25,1-8.3-.2-16.6,1.9-25,1-.7-.3-1.3-.7-2-1-.1-8.3.2-16.7,0-25Z"/>
  <path class="st27" d="M70,714v-78,78Z"/>
  <path class="st23" d="M80,765c3.8,1.2,5.1.9,9,1s7.3,0,11,0c0,.3,0,.7,0,1,.2,8.3-.1,16.7,0,25l-2-24-19.9-1.2c-.4-.5,0-1.3-.1-1.8.6.1,1.5-.2,2,0Z"/>
  <path class="st27" d="M128,89v24c-.8.8-20.2-.5-24,0s-.9.5-1,1h-1v-1.9c.1,0,25-1.2,25-1.2,0-4.1-.9-20.2,1-22Z"/>
  <path class="st14" d="M100,139l-1.5,1c-4.3.6-16.4-1.5-18.6,1.4s0,24.5-.9,30c-.2,1.2-1.8.5-2,.6l1-31c.7-.6.8-1.3,2-2h20Z"/>
  <path class="st9" d="M160,817c.8.2.8,1.8,1,2l1,18c-.4-.2-1.9.6-2.1-.6v-17.4c-1-1-24.3.6-28.6,0s-1.9,0-2.4-1.1l31-1Z"/>
  <path class="st24" d="M801,793c-5.6,2.7-16.4.1-23,1v22.4c-.2,1.2-1.6.4-2,.6,1.8-8.2.7-16.7,1-25l24,1Z"/>
  <path class="st23" d="M127,792c.3,0,.7,0,1,0v25c-1.9-7.5-1.8-15.5-1-23-.9-.9-20.3,1.3-25-1,8.4.9,16.7-1.2,25-1Z"/>
  <path class="st23" d="M77,733c2,10.2.5,20.7,1,31-3,.6-1.9-1.5-2-3.5-.3-8,1.1-18.7,0-26.1s-1.1-1.1-2.1-1.9c0-.2,1-.3,1-.5.8,0,1.4.7,2,1Z"/>
  <path class="st24" d="M827,746c1.5,2.3,1.4,19.1.8,19.8s-1.6,0-1.8.2.3,1.4-.2,1.8c-.8.7-17.4.6-19.8-.8l-2,6c0-2.4.7-5.2-1-7v-1c.7,0,1.3,0,2,0s.7,0,1,0c6.1,2.3,13.4.4,20,1-.5-6.7.6-13.3,1-20Z"/>
  <path class="st9" d="M768,818c-3,2.5-22,0-23,1,0,3.5.1,7,0,10.6s1,4-2,3.5c0-4.9,1.7-9.6,1-14.6l1-1.4c7.7.6,15.3,1.2,23,1Z"/>
  <path class="st27" d="M78,141l-1,31c-1.3,1-2.2,2.4-4,3h-1c.6-.9-1.2-2.9,4-2v-31.4c.2-1.2,1.8-.5,2-.6Z"/>
  <path class="st14" d="M745,817c1-1.7,3.8-1,5.5-1,6,0,12.1-.2,18.1,0s4-1,3.5,2c-1.3,0-2.7,0-4,0-7.7.2-15.3-.4-23-1Z"/>
  <path class="st27" d="M743,70c0,.1,1.7-.5,2,.7.7,2.6-.7,15.7,0,16.3l9,1c-3.3,0-6.7.2-10,0s-.7,0-1,0v-18Z"/>
  <path class="st5" d="M77,733c.4.2,1.8-.6,2,.6l1,31.4c-.5-.2-1.4.1-2,0,0-.3,0-.7,0-1-.5-10.3,1-20.8-1-31Z"/>
  <path class="st27" d="M100,137c0,.3,0,.7,0,1s0,.7,0,1h-20c6.5-3.6,12.7-1.5,20-2Z"/>
  <path class="st27" d="M161,77v12c-6.7-.6-13.3-1-20-1l19-1c.2-2.4-.4-5.2,0-7.6s1-2.3,1.1-2.4Z"/>
  <path class="st27" d="M70,571c0,5.7,0,11.3,0,17-.4-.2-1.9.6-2.1-.6.2-4.3,0-8.7,0-13s-1-4,2-3.5Z"/>
  <path class="st22" d="M103,115c-2.2,7.6.6,15.8-3,23,0-.3,0-.7,0-1,0-1,0-2,0-3,.3-6.3,1-12.6,1-19,.3,0,.7,0,1,0s.7,0,1,0Z"/>
  <path class="st27" d="M829,173l-2-10.5,1-8.5c0,.1.9.3,1,2.4.3,5.5-.3,11.1,0,16.6Z"/>
  <path class="st27" d="M101,115c0,6.4-.7,12.7-1,19-1.9-6-1.3-14,0-20,.8-.3.8,1,1,1Z"/>
  <path class="st27" d="M798,111c.6,2.8-2.9,2.8-5,3v-2s-15,0-15,0c0-.3,0-.7,0-1,6,.8,14.4-1,20,0Z"/>
  <path class="st27" d="M759,88c-.6-3,1.5-1.9,3.5-2s8.7-.3,9.4.2,0,1.7.2,1.8h-13Z"/>
  <path class="st27" d="M804,133c-1.4-3.6-1.9-9.6,0-13,1.2,6.5.7,7,0,13Z"/>
  <path class="st27" d="M70,716v13l-1,1c0-3.2-.9-6.3-1.1-9.5s-1-5.3,2-4.5Z"/>
  <path class="st24" d="M804,775l1,15.4c-.2,1.2-1.9.5-2,.6.7-5.4,1-10.5,1-16Z"/>
  <path class="st24" d="M829,731v11s-2,0-2,0c.2-4.5-1.4-7.7,2-11Z"/>
  <path class="st27" d="M804,136l8,1v2c-3,0-6.6.8-9-1,1-.3.9-1.1,1-2Z"/>
  <path class="st27" d="M778,110c-1.5-1.4-1.9-3.6-2-5.5s1-4.2,1-4.5c1.8,2.7,1,6.7,1,10Z"/>
  <path class="st27" d="M131,88c.1,0-.6-2.5,1.4-2.1h5.6c0,0,0,2.1,0,2.1h-7Z"/>
  <path class="st27" d="M162,68c-.3,2.2.4,5,0,7h-2s0-6.4,0-6.4c.1-1.2,1.6-.4,2.1-.6Z"/>
  <path class="st27" d="M822,137v2c-2.3,0-4.7,0-7,0v-2c2.2.2,4.9-.3,7,0Z"/>
  <path class="st14" d="M70,598c0-3.3,0-6.7,0-10,.3.2.7.1.9.6l-.9,9.4Z"/>
  <path class="st24" d="M830,173c5.4.4,2,1.3,3,3h-2c-.3-1-.4-2.1-1-3Z"/>
  <polygon class="st5" points="70 616 72 616 72 618.5 70 619 70 618 70 616"/>
  <path class="st27" d="M777,95l-1-4c1.1,2,.9,1.8,1,4Z"/>
  <path class="st27" d="M70,616v2c-2.3-.7,0-2.7,0-3v1Z"/>
  <path class="st27" d="M804,135l-1-.5,1-.5c0,.3,0,.7,0,1Z"/>
  <path class="st28" d="M196,89c0,0-.3,1.4.2,1.7,66.8.7,133.9,0,200.8.3.2,0,1.5,1.1,3.4,1.1,80.9.3,161.8-.4,242.6,0v6s6.4-2.1,6.4-2.1c1.2,3.9,8.1,3.5,10.3,5.3s3.3,6.5,3.2,7.2c0,1.4-1.8,2.5-2,4.1s1,3.7.8,5.7c-1.3,16.6-17.3,34.2-20.6,51.5s.8,6.4.7,8.8c-.3,4.1-3,4.1-.3,11.4s11.3,15.1,15.9,22.1,1.9,11.6,3.5,13.5,3.4,1.4,4.6,2.4c5.8,5,10.7,10.1,16,15s5.7,3,8,5,2.1,4.1,4.8,5.3,15.5,1.2,19.2,1.8,2.5,1.7,3.3,1.8c1.8.3,2.9-2.6,4.3-3.3s3.6-.3,5-1,1.8-4.9,4-6,8.3-2.4,11.3-4.5,2.9-6.5,4-7.8,6.7-4.1,8.2-5.3,7.2-5.1,7.5-5.5c1.4-1.4.6-3.9,1.5-5.5,3.3-6,6.5-10.1,10-17s8.2-7.8,9-9.1-.6-2.9-.4-4.3c.5-3.4,4.3-9.1,3.8-14.2s-1.7-2.5-1.9-4.1c-1.2-8.8,0-12.8-5.1-20.7-.6-1-2.3-1.3-3.2-3-3.2-5.6-5-14.5-3.8-20.8,8.2-1.1,11.4,10.6,20,9,12,13.9,17.9,20.9,19,40,0,.2,0,.6,0,1,0,1.3,0,2.7,0,4s0,.7,0,1,0,.7,0,1c-1.7,1.5-1.7,6.4,0,8,0,2.3,0,4.7,0,7-1.7,3.4-1.2,8.8-1,12.5s-1,4,2,3.5c0,1.3,0,2.7,0,4l-2,.6v3.4s2,0,2,0c0,1,0,2,0,3l-2,.5v2.5s2,0,2,0c-.2,1.2-1,1.9-1,2-2.9,27.3-2.1,65.4-1,93.5s-1,4,2,3.5c0,1.3,0,2.7,0,4-3-.6-1.9,1.5-2,3.5,0,3-.1,6.1,0,9.1s-1,4,2,3.5c0,2,0,4,0,6-3-.6-1.9,1.5-2,3.5s-.1,5.4,0,8.1-1,4,2,3.5c0,4.7,0,9.3,0,14l-2,.5v2.5s2,0,2,0c0,.7,0,1.3,0,2l-2,.6v4.4s2,0,2,0v3c-3-.6-1.9,1.5-2,3.5-.4,12.8-.5,27.3,0,40.1s-1,4,2,3.5c0,.7,0,1.3,0,2-3-.6-1.9,1.5-2,3.5-.3,8.7-.3,18.4,0,27.1,0,1.9-1,4,2,3.5,0,3,0,6,0,9-3-.6-1.9,1.5-2,3.5-.5,14.4-.6,30.7,0,45.1s-1,4,2,3.5v4l-2,.6v8.4s2,0,2,0c0,.7,0,1.3,0,2-3-.6-1.9,1.5-2,3.5-.2,5.8-.2,12.3,0,18.1s-1,4,2,3.5v12l-2,.6v5.4s2,0,2,0c0,3,0,6,0,9l-2,.5v2.5s2,0,2,0c0,3.3,0,6.7,0,10-3-.6-1.9,1.5-2,3.5-.2,5.5.2,11,0,16.5-7.7-.1-5.8,5,.1,6.7v11.8c-5.2,1.4-6.1,4.9-.2,5.8l.2,4.2-4.9,1.7c2.1,9.8-8.7,11.8-16.1,9.8-1.6-5.5,4.8-4.5,3.9-8.9l-4,1c.2-1.9-2.6-16.8-5-14,.6,3.7-.9,7.6-4.5,9s1.2-4.3.5-5l-5,1c-1.4-1.2,6.7-8.4,9-6-2.6-8.1-4.7-1.2-5.7-1-1.8.4-4.3-.3-6.3,0,0,2.8,0,5.7,0,8.5s2.5,3.2-2,6.5c1.4-7.9,1-16,1-24,3.9.7,4,6.9,8,2.5-3.1-3.6-1-5.3-1.1-8s-1.6-2.4-1.8-4c-1-6.4.7-12.8-5.1-16.4,0-.7,0-1.4,0-2,4.3.4,3.4-9.2,2.8-11.3s-5.5-7.8-7.8-6.7c-.2-.5-.7-1.3-1-2,4.1-1.6-.4-4.8,0-8-1.5-.5-3.1.9-4,1s-1.4-.8-2-1c-3.6-8.6-10.8-20.4-15.6-28.9-16.7-29.5-34.3-59-51.4-88.1l-11.2-21.3c-8.8-12.4-16.1-26.2-23.8-39.7-10.7-18.8-20.5-38.3-31.8-56.7-.9-1.4-1.6-2.7-3.2-3.3-.5-1.6-1.6-2.9-2-4-5.9-16.4-24.8-46.1-35-63.5s-.8-2.9-3-2.5c0-.3,0-.7,0-1-.8-4.2-1.1-2-2.3-4.2-13.4-25.4-28.5-50.2-42.9-75.1-7-12-22.4-45.8-33.8-50.7s-1.1-1-2-1c0-.3,0-.7,0-1s1.8-1,.6-2c-3.7-.2-5.6-3.5-7.6-4.4-11.7-5.6-66.6-6.9-77.7-1.7s-2.9,2.8-4.5,3.5-5.9.3-6.6,2.4.9,1.3.8,1.4c0,.2-2.3,2.2-3,3-2.8.8-6.7,2.7-7,6-.2.1-.7-.1-1,0-3,1.6-12.7,19.1-15.2,23.3-12.6,21.5-26.1,44.5-36.8,66.7-.4.1-1.3-.4-1.8.2s-3.1,6.9-4,8.5c-21.5,36.3-44.4,74.8-64.2,111.9-.9,1.6-.9,3.2-1,3.5-.6,1.4-1.4,2.6-2,4-2.1,1.5-3.5,4.4-4.8,6.7-11.9,20.3-24,41.4-34.2,62.3s-.7,1.3-1,2c-4.8,3.6-6.7,10-9,15s-1.4,2.7-2,4c-1.6.6-2.3,1.9-3.2,3.3-6.6,10.8-14.5,24.3-19.8,35.7s-.6,2.1-1,3c-3.9,1.9-4.5,6.7-6,10s-1.3,2.5-2,4c-1.7.6-2.3,1.9-3.2,3.3-6.7,10.2-13.5,22.9-19.8,33.7-4.3-1.3-7-1.1-9.5,3.1s-.3,3.4-.7,3.8-3.5-.3-5,1.5-.2,7.6-4.9,10.1-3.4.3-3.8.7-3.7,8.4-3.8,8.8c-.3,1.8.8,4.1.2,5-1.2,2-8.9,3.4-9.4,4.2s-.2,5.2-1.2,6.8c-2.4.5-2.9-2.4-4.7-2.9s-5.5,1.9-7.3-.8c1.2-3.5-2-6.1-2-8.8s.3-8.3.4-8.9c.2-1.3,2.3-2.6,1.8-5.1l-3.5-1.5c-2.9-3.5,3.6-3.8,4.2-6.7s-.6-7.1-.8-7.7-1.9-.6-2-1.3c-.6-4.5,3.6-8.5,4.1-11.8s0-14.2-.3-15.9-2.8-2.2-2.8-4.1,2.8-2.8,3.1-5.1-1.7-3.9-1.9-5.1,1.5-2.4,1.8-3.9c1-5-1.8-4.3-1.9-5.1-1.2-4.8,2.6-9.4,2.1-12.7s-2.6-.6-3.6-1.5c-3.6-2.9,0-8.3-.4-11.5s-3.1-3.1-2.9-4.9,2.4-3,2.7-4.4,1.2-8.3,1.2-8.7-1.9,0-2.1-2c-.6-4.3,0-9.2,2.2-13-8-3.3,0-12.1-.1-15.1s-1.8-3.2-1.9-5.1c-.2-2.6,2.2-7,1.7-11.1s-2-3.1-1.7-4.7,4.1-.8,3.1-4.9-2.4-.8-2.9-2.3c-1.3-3.9-.7-15.5-.1-19.8,1.2-9.6,1.2-14.9,0-25s-1.8-12.6-2-23-1.9-8.3-1-12.5l-4.6.9c-1.2,1.7.6,4.4.5,6.5-4,107.9,3.4,217.9-.9,327.2,0,1.9,1,4-2,3.5V170.6c13.1-27,35.9-51.7,60.7-68.4,3.7-2.5,9.9-4.1,11.3-8.2,5.1-.6,20.9-7,24-5ZM107,321c1-2.1-1.6-4.7-1.6-5.5,0-2.2,5.8-9.2-3.4-8.5.6,4.6,3.4,7.5,1.1,12.4l3.9,1.6ZM809.5,369v1c.6-.3.6-.7,0-1Z"/>
  <path class="st5" d="M100,661c3,.6,1.9-1.5,2-3.5,4.3-109.2-3.1-219.2.9-327.2,0-2-1.7-4.7-.5-6.5l4.6-.9c-.9,4.2,1,8.8,1,12.5.1,10.5.7,13.6,2,23s1.3,15.4,0,25-1.2,16,.1,19.8,2.7,1.3,2.9,2.3c1,4.1-3,4.2-3.1,4.9-.2,1.7,1.5,2.9,1.7,4.7.5,4.1-1.9,8.5-1.7,11.1s1.9,3.3,1.9,5.1c0,3-7.8,11.8.1,15.1-2.1,3.8-2.7,8.7-2.2,13s2.1,1.4,2.1,2-1.1,8-1.2,8.7c-.3,1.4-2.5,2.9-2.7,4.4s2.6,2.6,2.9,4.9-3.2,8.6.4,11.5,3.5.6,3.6,1.5c.5,3.4-3.2,7.9-2.1,12.7s3,.2,1.9,5.1-2,2.8-1.8,3.9,2.3,2.1,1.9,5.1-3.1,3.2-3.1,5.1,2.6,2.8,2.8,4.1.6,14,.3,15.9c-.5,3.3-4.7,7.3-4.1,11.8s1.8.5,2,1.3.9,7.3.8,7.7c-.5,3-7.1,3.2-4.2,6.7l3.5,1.5c.5,2.5-1.6,3.8-1.8,5.1s-.4,8-.4,8.9c0,2.6,3.3,5.3,2,8.8,1.8,2.7,5.1.3,7.3.8s2.4,3.3,4.7,2.9c1-1.6.6-5.9,1.2-6.8s8.2-2.1,9.4-4.2-.5-3.2-.2-5,3.4-8.5,3.8-8.8,2.6,0,3.8-.7c4.7-2.5,3.1-7.8,4.9-10.1s4.5-1,5-1.5,0-2.6.7-3.8c2.4-4.2,5.1-4.4,9.5-3.1-3.8,6.5-7.2,13.4-11,20-14.1,24.5-18.4,30-17,61-4-.6-1,6.4-.9,8.5s-.8,5.6-.7,7.9c2,40.4,27.9,69.6,68.1,75.7h497c33.7-4.9,53-24.5,68.5-53,.7-1.3,3.1-4,1-5,.3-1.2.9-2.6,1-3,4.5-3.3,2-2.7,2-6.5s0-5.7,0-8.5c2-.3,4.5.5,6.3,0s3.1-7.2,5.7,1c-2.3-2.4-10.4,4.8-9,6l5-1c.7.7-4.3,6.4-.5,5s5.1-5.3,4.5-9c2.4-2.8,5.2,12,5,14l4-1c.9,4.5-5.6,3.5-3.9,8.9,7.3,2,18.2,0,16.1-9.8l4.9-1.7-.2-4.2c-5.9-.9-4.9-4.3.2-5.8v-11.8c-5.9-1.6-7.8-6.8-.1-6.7.2-5.5-.1-11,0-16.5,0-1.9-1-4,2-3.5v116.5l-6.1,25,1,3c1.4,1,4.5,0,5.1.4s-.2,1.7,0,2c-1.7-.1-3.4.8-5,1-.3-.1-.4-1.2-1,0-.7,0-1.3,0-2,0-1.1,0-2.6-1.4-4-.6-14.3,21.6-36.2,36.1-61.5,41.5H177.6c-28.8-3.3-64.7-36-74.4-62.7-6.1-16.8-3.1-49.2-3.2-68.3h2s0-6.4,0-6.4l-2-.6c0-2.3,0-4.7,0-7Z"/>
  <path class="st26" d="M196,68v21c-3.1-2-18.9,4.4-24,5s-5.2,1.2-8.2-.2-2.6-3.6-2.8-3.8c2-.6,1.6-2.2,2-3,2.8-5.1,2.5-1.8,6.8-3.7s.3-10.7,3.2-15.3c7.6-.3,15.4,0,23,0Z"/>
  <path class="st5" d="M89,766l.6-2h10.4c0,.7,0,1.4,0,2-3.7,0-7.3,0-11,0Z"/>
  <path class="st28" d="M100,668l2,.6v6.4s-2,0-2,0c0-2.3,0-4.7,0-7Z"/>
  <path class="st22" d="M717,68c.6,4.8-7,8.5-8.5,11s-.5,3.9-2.1,5.9-6.6,4-8,4h-19.5v2h48.5c12.8,0,46.2,23.9,55.5,33s5.8,7.4,8,10c-8.6,1.6-11.8-10.1-20-9-1.3,6.3.6,15.2,3.8,20.8s2.6,2,3.2,3c5,7.9,3.8,11.9,5.1,20.7.2,1.6,1.8,2.7,1.9,4.1.5,5.1-3.3,10.8-3.8,14.2s1.1,3.1.4,4.3-7.3,5.7-9,9.1c-3.5,6.9-6.7,10.9-10,17s-.1,4.1-1.5,5.5-5.9,4.2-7.5,5.5-7.9,4.9-8.2,5.3c-1.1,1.3-1.5,6.1-4,7.8s-8.6,3.2-11.3,4.5-2.5,5.1-4,6-3.4.3-5,1-2.5,3.6-4.3,3.3-1.8-1.6-3.3-1.8c-3.7-.5-16.9-.8-19.2-1.8s-3-3.9-4.8-5.3-6.2-3.3-8-5c-5.3-5-10.1-10.1-16-15s-3.7-1.2-4.6-2.4c-1.5-2-1.5-10.5-3.5-13.5-4.5-7-12.4-12.8-15.9-22.1s0-7.2.3-11.4-1.4-4.8-.7-8.8c3.3-17.3,19.2-34.9,20.6-51.5.2-2-1.1-3.8-.8-5.7s1.9-2.7,2-4.1-2.8-6.9-3.2-7.2c-2.2-1.8-9.1-1.4-10.3-5.3l-6.4,2.1v-6c-80.9-.3-161.8.4-242.6,0-1.8,0-3.2-1.1-3.4-1.1,78.6-.1,157.4.2,236,0,13.6,0,27.3,0,41,0,.2-2.6.2-1.7-1.5-2-2.7-.5-4.9-.3-7.7-1.3-8.3-3-13.3-7.1-19.3-12.7s-7.2-1.9-6.5-7c26,0,52,.1,78,0ZM649,92h-2v2h2v-2ZM769,155c-8.4-9.8-21.8-12.1-27.5-25-4.3-9.8-3.2-13.6-12.6-21.4-3.8-3.2-8.4-4.7-13.3-4.4-25.8,1.2-31,12.2-44,30.9-4.5,6.4-9.6,12.5-12.6,19.9s-.9.7-1,1c-.8,2.4-1.6,4-1,7h-4c1.8,7.7-5.1,17.8,0,24.5s4,2.1,5.5,3.5,3.4,7.2,5.6,9.4c3.3,3.2,8,3.4,12.5,8.5,9.5,10.8,10.3,17.3,25.2,23.8s15.1,2.7,19.3,1.9,5.8-3.7,9-4.1v-3.5c1.3,0,2.7,0,3.9-.5,4.8-2.3,15.6-16.4,20-21,7.3-7.4,11.5-9.2,17.6-18.4s5.7-5.3,4.4-13.5c-.4-2.5-3.7-8.9-3.9-11.1s1.5-4.3,1-6.5c-.6-.2-1.6.2-2,0-.6-.3-1.5-.9-2-1Z"/>
  <path class="st22" d="M832,721V185c4.9,178.4-3.6,357.5,0,536Z"/>
  <path class="st5" d="M811,325c-3,.6-1.9-1.5-2-3.5-1.1-28.1-1.9-66.2,1-93.5.7,2.1,1,4.2,1,6.5.8,29.9,0,60.6,0,90.5Z"/>
  <path class="st5" d="M811,485c0,17.3,0,34.7,0,52-3,.6-1.9-1.5-2-3.5-.6-14.4-.5-30.7,0-45.1s-1-4,2-3.5Z"/>
  <path class="st5" d="M811,393c0,15.7,0,31.3,0,47-3,.6-1.9-1.5-2-3.5-.5-12.8-.4-27.3,0-40.1,0-1.9-1-4,2-3.5Z"/>
  <path class="st5" d="M811,442c0,11.3,0,22.7,0,34-3,.6-1.9-1.5-2-3.5-.3-8.7-.3-18.4,0-27.1,0-1.9-1-4,2-3.5Z"/>
  <path class="st5" d="M811,552v25c-3,.6-1.9-1.5-2-3.5-.2-5.8-.2-12.3,0-18.1s-1-4,2-3.5Z"/>
  <path class="st5" d="M811,329c0,5.3,0,10.7,0,16-3,.6-1.9-1.5-2-3.5-.1-3,0-6.1,0-9.1s-1-4,2-3.5Z"/>
  <path class="st5" d="M811,351c0,5,0,10,0,15-3,.6-1.9-1.5-2-3.5s0-5.4,0-8.1-1-4,2-3.5Z"/>
  <path class="st5" d="M811,212c-3,.6-1.9-1.5-2-3.5-.2-3.8-.7-9.2,1-12.5,0,5.4.9,10.6,1,16Z"/>
  <path class="st5" d="M811,541c0,3,0,6,0,9h-2s0-8.4,0-8.4l2-.6Z"/>
  <path class="st5" d="M811,589c0,2,0,4,0,6h-2s0-5.4,0-5.4l2-.6Z"/>
  <path class="st5" d="M811,385c0,1.7,0,3.3,0,5h-2s0-4.4,0-4.4l2-.6Z"/>
  <path class="st5" d="M810,189c-1.7-1.6-1.7-6.5,0-8,0,2.7,0,5.3,0,8Z"/>
  <path class="st5" d="M811,216c0,1.3,0,2.7,0,4h-2s0-3.4,0-3.4l2-.6Z"/>
  <path class="st5" d="M811,604c0,1,0,2,0,3h-2s0-2.5,0-2.5l2-.5Z"/>
  <path class="st5" d="M811,223c0,1,.2,2.1,0,3h-2s0-2.5,0-2.5l2-.5Z"/>
  <path class="st5" d="M811,380c0,1,0,2,0,3h-2s0-2.5,0-2.5l2-.5Z"/>
  <path class="st22" d="M832,724s0-.5,0-1v1Z"/>
  <path class="st5" d="M810,180c0-.3,0-.7,0-1l1,.5-1,.5Z"/>
  <path class="st22" d="M832,179c0-.4,0-1,0-1v1Z"/>
  <path class="st5" d="M810,175c0-.4,0-.8,0-1v1Z"/>
  <path class="st16" d="M741,67c-.4,1.7-3.1.9-4.5,1-6.5.3-13,0-19.5,0-26,.1-52,0-78,0s-26,0-39,0c-133.6,0-267.4-.8-401,0-.3,0-.7,0-1,0s-.7,0-1,0v-2c174.1-3,349.1-.4,522.5,0,1.8,0,3.8,1,6,1.1,5.2,0,10.4-.2,15.5,0Z"/>
  <path class="st24" d="M778,112h15s0,2,0,2c-3.8.4-11.3.4-15,0v-1c0-.3,0-.7,0-1Z"/>
  <path class="st27" d="M778,114c-.3,0-.7,0-1,0l1-1v1Z"/>
  <polygon class="st11" points="743 88 742 87.5 743 87 743 88"/>
  <path class="st5" d="M834,179c-.4-.2-.9-.6-1-1l1,1Z"/>
  <path class="st8" d="M198,68l.5,1,.5-1c133.6-.8,267.4,0,401,0-1.2,4.6,2.6,4.5,4,6.5s1.6,5,4,6,6.1-.1,8.4,1.6.8,4.3,3.2,5.8,7,1,9.9,1.1,4-1.1,3.5,2c-78.6.2-157.4-.1-236,0-66.9-.3-134,.4-200.8-.3-.4-.4,0-1.7-.2-1.7v-21c.3,0,.7,0,1,0s.7,0,1,0Z"/>
  <path class="st2" d="M173,68c-2.9,4.6,2.6,12.6-3.2,15.3s-3.9-1.4-6.8,3.7v-18c3.4-.6,6.6-.9,10-1Z"/>
  <path class="st20" d="M103,114c.1-.5.5-.9,1-1l-1,1Z"/>
  <path class="st11" d="M806,765c-.3,0-.7,0-1,0,.6-1.2.7-.1,1,0Z"/>
  <path class="st18" d="M427,139c1,1.7,3.8,1,5.5,1,16.1.2,33-.3,48.5,0s1.3,0,2,0c-1,2.3,3.9,3.5,5,2,4.5,1.4,7.8,2.3,12,5,0,.3,0,.7,0,1,0,.7,0,1.3,0,2h2c2.9,4.8,8.4,8.6,11.9,13.8,11.4,17.2,22.6,40.2,33.1,58.6,9.6,16.7,19.9,38.7,30.6,54.3,1,1.5,2,1.3,3.3,2.3,0,.3,0,.7,0,1,3.6,16.9,26.3,41.4,32,59.3l6,6.7c.4,1.1,1.5,2.4,2,4,4.5,13.7,22.9,43.4,31.5,57,1,1.5,1.1,3.1,3.5,3,7.7,13.5,15,27.3,23.8,39.7l11.2,21.3c-1.9,1.3,1.1,5.4,1.8,6.7,21.1,37.7,43.9,74.5,64.1,112.7.3,1.1,1.9.5,2.1.6,2.4,2.3,5,6.6,5,10s-1.4,1.1-1,2h2c0,.7,0,1.3,0,2,0,1.8-1.6,6.8,2,6,0,.7,0,1.3,0,2s-1.9,3.1-1,5h2c0,.7,0,1.3,0,2-1.1,1.2-1.7,4.2-1.7,5.8-.9,17.3,0,22.3-7.3,39.2s-1.2,2.5-2,4c-4.1.7-2.4,2.6-3,4s-.6,2.3-1,3-1.3,1.1-2,2-.7.6-1,1c-2.4,2.8-4.4,4.5-7,7s-.7.7-1,1c-2.3,1.8-4.6,3.4-7,5-3.5,2.3-5.8,4.1-10,5s-2.7-.3-3,0,.2,1.7,0,2c-.8.9-2.9.8-4,1s-2.7-.2-4,0v2c-.6,0-1.5.1-2,0s-.2-1.3-1-1v2c-.7,0-1.4,0-2,0s-.6-.9-1.4-.9c-2.3,0-4.9,1.5-7.6.9v2c-.7,0-1.3,0-2,0H206c-.7,0-1.3,0-2,0v-2c-3,.9-7-2-9,0-.6-.1-1.4,0-2,0v-2c-.4-.4-1.5.9-2,1s-.7,0-1,0c.6-2.8-1.4-1.9-3-2.5-3-1.2-5.5-2.6-8.3-3.7s-3.1-1.9-2.7,1.2c-6.9-4.2-25.6-19.5-28-27s.4-2.3-.1-2.9-1.7,0-1.9-.1c-2.8-2.8-2.8-5.2-4-8l-3.9-16.6c-1.3-9.6,2-19.1.1-28.6l3.7-17.8c1.1-2.3.7-3.8,3-6s1.5.3,1.9-.1,0-2.2.1-2.9c.8-3,1.7-3.7,3-6,1.7-.5,2.3-.8,3.3-2.3,10.8-16,24.9-42.5,32.7-59.7s1.5-2.9,2-4c3.6,0,4.9-7.3,6-10s.5-1.9,1-3c2.7,0,3.6-2.8,4.8-4.7,6.7-11,12.6-22.9,18.2-34.3s1.4-2.7,2-4c2.5.6,2-1.3,2.8-2.6,2.9-4.7,4-7.8,6.2-12.4s.7-1.3,1-2c2.5.6,2-1.3,2.8-2.6,12-20.8,27.2-44.5,36.2-66.4.6-1.4,1.4-2.6,2-4,4.4-1.7,6.4-8.7,8.7-12.7,21-35.9,44.2-73.6,62.3-111.3.4-.1,1.2.3,1.8-.2,7.6-14.4,15.8-28.5,23.9-42.6,8-13.8,16.9-28.2,24.8-42.2s2-2.6,1.5-5c.3-.1.8.1,1,0,3.6-2.3,4.8-3.5,7-6s3-2.8,3-3c.7,0,1.3,0,2,0,3.5-.3,6.7-2.3,10-3.5s3.6.3,3-2.5c.6,0,1.3,0,2,0s.8,1.6,1.8.9l.2-1.9c1,0,2,0,3,0ZM429,183c-2.1,1.8-2.8,3.1-4.2,5.3-19.8,31.3-37.2,66.2-55.4,98.5s-35.8,59.4-50.4,90.1c-3.8,1.2-1.5,1.3-3.2,4.3-24.5,40.2-46.4,81.9-69.8,122.7-.1.3.1.7,0,1s-.8.6-1,1c-.6,1.6-.6,2.7-1,4-2.8.7-4.7,4.8-6.2,7.3-11.4,19.2-22.3,39-32.8,58.7s-1.3,3.7-2,5c-2.4-.5-2.1,1.2-2.8,2.6-8.8,16.4-24.3,33.2-17.6,53.3s6.4,11.4,12.4,16.1.6.7,1,1c4.4,3.3,4.8,3.3,10,5s.6.9,1,1,.7,0,1,0c2,.4,1.6,0,2,0,.7,0,1.3,0,2,0l3.5,2h475.1c3.6.2,6.4-1.7,9.5-3,5.2-2.2,7.9-4.3,12-8s1.3-1.2,2-2c10-10.9,11.9-23.8,6.2-37.7-2.1-5.1-5.7-8.9-8.2-13.3-72-130.2-146.6-259.2-221-388-4.2-7.3-8.6-17.8-13-24.2s-22.5-5-31.5-4.7c-4.7.2-10.5-1.5-15.9,0-1.3.4-1.3,1.5-1.6,1.8Z"/>
  <path class="st19" d="M135,637c0,2-.2,4.1,0,6,1.1,10.1,7.3,18.8,11,28l1-1h1c2.4,7.5,21.1,22.8,28,27s9.3,4.6,14,5,.7,0,1,0v1c.4,1,1.3,1,2.2,1.3,2.1.8,10.5,2.7,12.3,2.7h492c.7,0,5.5-1.3,6.5-2,.3,0,.7,0,1,0,1.1,0,2.3.2,3.4-.1l.6-.9v-1c.6,0,1.3,0,2,0l1-1c.5.1,1.4,0,2,0,1.6-.1,3.1-.6,4-2,1.1-.2,3.2-.1,4-1,1.4,0,2.6-.6,3-2,4.2-.9,6.5-2.7,10-5l.5,1c2.8-1.5,4.5-4.1,6.5-6s.7-.7,1-1c3-.6,6.4-4,7-7,.3-.4.7-.6,1-1l2-2c.4-.7.6-2,1-3,1.9-.7,2.2-2.5,3-4s1.3-2.3,2-4c.6-.4,1.6-.6,2-1,2.7-2.6,7.1-15,8-19s0-.7,0-1h1c0,8,.4,16.1-1,24s-.7,1.8-1,3-1,3.3-1,5c-15.5,28.4-34.8,48.1-68.5,53H201.5c-40.2-6-66.2-35.2-68.1-75.7-.1-2.3.7-5.1.7-7.9s-3.1-9.1.9-8.5Z"/>
  <path class="st24" d="M502,149c11.5,4.9,26.8,38.7,33.8,50.7,14.4,24.9,29.5,49.7,42.9,75.1,1.2,2.3,1.5,0,2.3,4.2-1.3-.9-2.3-.8-3.3-2.3-10.7-15.6-21.1-37.6-30.6-54.3-10.6-18.5-21.8-41.4-33.1-58.6-3.5-5.2-9-9-11.9-13.8v-1Z"/>
  <path class="st24" d="M394,155c.6,2.4-.5,3.3-1.5,5-7.9,14.1-16.8,28.5-24.8,42.2-8.1,14.1-16.3,28.2-23.9,42.6-.6.5-1.4,0-1.8.2-18.1,37.7-41.3,75.4-62.3,111.3-2.4,4-4.3,11.1-8.7,12.7,0-.2.1-1.8,1-3.5,19.8-37.1,42.7-75.6,64.2-111.9.9-1.6,3.7-8.2,4-8.5.5-.5,1.4,0,1.8-.2,10.7-22.2,24.2-45.2,36.8-66.7,2.5-4.2,12.2-21.7,15.2-23.3Z"/>
  <path class="st24" d="M758,588c.4,1,.9,1.9,1,3-.1-.1-1.8.5-2.1-.6-20.2-38.2-43-75-64.1-112.7-.7-1.3-3.7-5.4-1.8-6.7,17.1,29.1,34.7,58.6,51.4,88.1,4.8,8.5,12,20.3,15.6,28.9Z"/>
  <path class="st14" d="M500,147c-4.2-2.7-7.5-3.6-12-5s-2.6-1.9-5-2-1.3,0-2,0c-1.7-1.1-3.5-1-5.4-1-15-.5-33.7-.9-48.6,0-1,0-2,0-3,0l-2,1c-.7,0-1.4,0-2,0-3.5.3-10.8,3-13,6-.7,0-1.3,0-2,0,0-.1-1-.8-.8-1.4.7-2.1,4.4-1.4,6.6-2.4s2.8-2.6,4.5-3.5c11.1-5.2,66-3.9,77.7,1.7s3.9,4.3,7.6,4.4c1.2,1.1-.5,1.9-.6,2Z"/>
  <path class="st24" d="M269,373c-9,21.9-24.2,45.5-36.2,66.4-.8,1.3-.3,3.2-2.8,2.6,10.2-21,22.3-42,34.2-62.3,1.3-2.2,2.7-5.2,4.8-6.7Z"/>
  <path class="st24" d="M581,280c2.2-.5,2.2,1.1,3,2.5,10.2,17.5,29.1,47.1,35,63.5l-6-6.7c-5.7-17.9-28.4-42.4-32-59.3Z"/>
  <path class="st5" d="M770,618c5.7,3.7,4,10,5.1,16.4s1.8,2.7,1.8,4c.1,2.8-2,4.5,1.1,8-4,4.5-4.1-1.7-8-2.5h-1c1.4-7.4,1.7-18.5,1-26Z"/>
  <path class="st24" d="M656,410c-2.4.1-2.6-1.4-3.5-3-8.6-13.7-27-43.3-31.5-57,1.6.6,2.3,1.9,3.2,3.3,11.3,18.4,21.1,37.9,31.8,56.7Z"/>
  <path class="st24" d="M186,519c-7.8,17.3-21.9,43.7-32.7,59.7s-1.6,1.8-3.3,2.3c.9-1.6,1.8-3.2,2-5,3.8-6.6,7.2-13.5,11-20,6.3-10.8,13.1-23.5,19.8-33.7s1.5-2.7,3.2-3.3Z"/>
  <path class="st24" d="M195,502c5.3-11.4,13.2-24.9,19.8-35.7s1.6-2.7,3.2-3.3c-5.6,11.4-11.5,23.3-18.2,34.3s-2.1,4.7-4.8,4.7Z"/>
  <path class="st5" d="M770,616c-.5-3.6-3.6-14.4-5-18,2.3-1.1,7.4,5.5,7.8,6.7.6,2.1,1.5,11.7-2.8,11.3Z"/>
  <path class="st14" d="M760,589c.6,2.5,3.1,5,4,7s.8,1.5,1,2c1.4,3.6,4.5,14.4,5,18s0,1.3,0,2c.7,7.5.4,18.6-1,26s0,.7,0,1h-1c1-6.6,0-17.8,0-25s0-1.3,0-2c0-1.6.6-4.2-1-5,0-.7,0-1.3,0-2,0-2-.4-4.5-2-6,0-.7,0-1.3,0-2s0-1.7-1-2c0-3.4-2.6-7.7-5-10,0-1.1-.6-2-1-3,.6.2,1.6,1,2,1Z"/>
  <path class="st5" d="M107,321l-3.9-1.6c2.3-4.9-.5-7.8-1.1-12.4,9.2-.7,3.4,6.3,3.4,8.5s2.7,3.4,1.6,5.5Z"/>
  <path class="st24" d="M229,444c-2.2,4.5-3.3,7.6-6.2,12.4s-.3,3.2-2.8,2.6c2.3-5,4.2-11.4,9-15Z"/>
  <path class="st5" d="M760,589c.9,0,2.5-1.5,4-1-.4,3.2,4.1,6.4,0,8-.9-2-3.4-4.5-4-7Z"/>
  <path class="st24" d="M194,505c-1.1,2.7-2.4,10-6,10,1.5-3.3,2.1-8.1,6-10Z"/>
  <path class="st23" d="M402,149c-2.2,2.5-3.4,3.7-7,6,.3-3.3,4.2-5.2,7-6Z"/>
  <path class="st23" d="M502,149v1h-2c0-.7,0-1.3,0-2,.9,0,1.5.8,2,1Z"/>
  <path class="st5" d="M809.5,369c.6.3.6.7,0,1v-1Z"/>
  <path class="st16" d="M150,581c-1.3,2.3-2.2,3-3,6-1.4.4-2,1.5-2,3-2.3,2.2-1.9,3.7-3,6-5.9,12.5-7.8,33.3-6,47h-1c-.2-1.9,0-4,0-6-1.4-31,2.9-36.5,17-61-.2,1.8-1.1,3.4-2,5Z"/>
  <path class="st28" d="M767,676c0-1.7.6-3.3,1-5,2.1,1-.3,3.7-1,5Z"/>
  <path class="st0" d="M659,155c2.9-7.4,8.1-13.5,12.6-19.9,13-18.7,18.3-29.7,44-30.9s9.5,1.2,13.3,4.4c9.4,7.8,8.3,11.6,12.6,21.4,5.7,12.9,19,15.2,27.5,25-12.2-1.3-26.6,1-39,0-.7-5,1.1-37.3-.2-38.8s-1.6,0-1.8-.2.6-2.4-1.4-2.1l-26.4.2c-.1.7-1.2,2-1.2,2.3v38.5h-40Z"/>
  <path class="st0" d="M658,156v30c.7,0,1.3,0,2,0,10.3.5,21.7.2,32,0v1c-9.2-.2-19.3-.4-28.5,0s-3.7-.8-3.5,1h39v37.5c0,.3,1.3,1.5,1,2.5h28.5l1.5-1.5v-38.5c10.5.1,21-.1,31.5,0s6.1,2.1,8.5-.5.9-7.7,1-11c0-6.8,0-13.7,0-20.5.4.2,1.4-.2,2,0,.5,2.2-1.2,4.5-1,6.5s3.5,8.6,3.9,11.1c1.3,8.2-.9,8.2-4.4,13.5-6,9.2-10.3,11-17.6,18.4s-15.2,18.7-20,21-2.6.6-4,.5v3.5c-3.2.4-6.1,3.6-9,4.1-4.2.8-15.2,0-19.3-1.9-14.9-6.5-15.7-13-25.2-23.8-4.5-5.1-9.2-5.3-12.5-8.5s-3.7-7.6-5.6-9.4-3.8-1.2-5.5-3.5c-5.1-6.7,1.8-16.8,0-24.5h4c-.6-3,.2-4.6,1-7Z"/>
  <path class="st10" d="M639,68c-.7,5.1,4.5,5.1,6.5,7,6,5.6,11,9.8,19.3,12.7s5,.9,7.7,1.3,1.7-.6,1.5,2c-13.6,0-27.3,0-41,0,.6-3.1-1.5-1.9-3.5-2-2.9-.1-7.4.4-9.9-1.1s-1-4.2-3.2-5.8-5.9-.5-8.4-1.6-2.7-4.3-4-6-5.3-1.9-4-6.5c13,0,26,0,39,0Z"/>
  <path class="st12" d="M659,155h40v-38.5c0-.4,1-1.6,1.2-2.3l26.4-.2c2-.3,1.3,1.9,1.4,2.1s1.4-.3,1.8.2c1.3,1.5-.5,33.8.2,38.8,12.4,1,26.8-1.3,39,0s1.4.7,2,1c0,6.8,0,13.7,0,20.5s2,7.8-1,11-5.7.5-8.5.5c-10.5-.1-21,.2-31.5,0v38.5l-1.5,1.5h-28.5c.3-1-1-2.2-1-2.5v-37.5h-39c-.2-1.8,2.3-.9,3.5-1,9.2-.4,19.3-.2,28.5,0s5.3,0,8,0v38s1.4,1,1.4,1h26.6v-39h42v-29.5l-1.5-1.5h-40.5v-40h-26.6s-1.4,1-1.4,1v39c-12.9.6-26.1-.5-39,0l-1,1c-1.8,2.6-1.5,12.2,0,15v14c-.7,0-1.3,0-2,0v-30c0-.3.8-.6,1-1Z"/>
  <rect class="st28" x="647" y="92" width="2" height="2"/>
  <path class="st10" d="M198,68c.3,0,.7,0,1,0l-.5,1-.5-1Z"/>
  <path class="st21" d="M491,358c15.2-8.4,8.9,2.2,10.4,4s6.8,3.5,7.4,5.6-.2,6.9.2,7.3,5.2-.6,7.2,4.3.2,3.3-.3,5.7l6-1c1.3,4-4.2,5.9-2.9,9.4s2.9,1.2,3.7,1.8.6,2.3,1.2,3c2.4,3,4.1,1.3,2.1,7.7,4.3-1,6.5,3.4,10.4,1,1.4,4.5,5,0,8.1.1s6.4,1.8,6.7,2c1.8.9,2,4.5,6.8,3-.5,2.2-.6,4.8-1,7-1.3.1-2.7,0-4,0-1.1,4.2,2.9,7.4,4,2.5s-.1-1.8,0-2.5c3.2-.3,4-.9,7-2l1,5h-4.5c-2.7,2.7,4.1,5.3,6.2,5.7s3-1,3.3-.7-.3,2,.2,2.7c1.2,1.7,5.7-.5,3.1,5s-3.3.9-2.3,4.2c2-.5,12.9.8,10.9,3.9s-2.9-.7-1.9,2.1c7,1,6-6,5-11,4.4.2,5.6,2.9,5,7h3.4c.4-4.7,5.2-3.1,5.5-7l-13.9-2.1c1.6-11.4,3.5-1.2,3.9-.9,3.7,2.3,3.5-3.5,4.2-4.7s4.4-1.4,3.7-4.3l-8.4,2.9-1.7-2.4,2-4.5c-.8-.7-8.1,1.4-7-1.5,2.6-6.6,7.1-1.8,10-3s3-4.3,4.5-5.5l1.5,3,4-2c1.8,3.1,5.1,4.2,6,9l-5,4.5,4.9-.7c.5-.5.1-2,.1-2.8,2.3,1,1.9,3.9,2.4,4.7,2.4,4.1,4.9,7.7,7.3,12,30.8,54.3,62.7,107.4,93.3,162.3,5.2,9.4,11,16.2,11.1,28.5,0,3.3-2.2,12.4-3.6,15.5s-4,3.9-4.5,7c-.7.8-1.2,1.3-2,2-7.8,4.1-15.9,8.7-25,8H214l-18-5c-.4-.3-.6-.7-1-1l-6.9-8.8c-1-2.8-1.2-5.4-4.1-6.8,1.8-4.8-1.2-12.3-.9-17s11.1-23.9,14.2-29.7,4-6.4,5.7-9.8,1.1-3.3,2-5c1.9-.1,3.1-.9,3.8-2.7,3.7-9.8,10.6-20.9,16.2-30.5s16.8-25.4,19-32.7.4-2.4,1-4l1-1c.1-.3-.1-.7,0-1,3,.4,2-2.8,2.9-4.3,4.8-7.5,13.1-19.2,17.1-27.7,2.7,4.8,1.5,15.4,7.5,16s.5-3.7,1.6-4.9c5.4.3,3.9-3.3,7.4-5.1.8,0,.8,5.4.5,6.3s-3.5,1.1-3,3.2,2,1.7,3.3,1.4c4.1-1.1,4.4-12.6,7.2-15.8l1.5,5.5,5-.5v4c-1.6-1.3-7.6-.4-7,2.4s11.5,8.2,13.5,8.5c5.8,1,4.5-2.3,6.4-3.5s3.4-.2,3.9-.6-.4-4,1.6-4.9c5.4.5-1.3,7.2.5,9,3.1,3,3.3-6.3,8.5-7s-1.4,3.2-1.5,3.5c-1.4,4.3,3.3,1.8,4.7.1s0-2,.9-2.7,3.2-.6,3.4-1c1.8-2.7-2.8-2.4-2-4.9,6.1-1.3,6.2,1.9,10,5-11.4,19.8-21.2,40.3-32.7,59.7-1.2,2-5.3,5.5-6.1,7s-4.1,12.9-4,13.6c.3,3.8,2.8,9.2,5.8,11.7,1.7,3.1,7.7,6.9,11,8s6.5,2.3,9,0h3c.9,1.6,5,1.6,6,0h3c.9,1.6,5,1.6,6,0h210c.7,1.6,4.3,1.6,5,0h3c1,1.7,3.8,1,5.5,1,7,0,19.6,1,25.5-1s5.6-3.3,8-5c5-3.5,7-5.7,7.9-12.6.6-4.6-1.9-12.4-4-16.6-2.3-4.4-6.6-10.3-9.6-15.6-19.6-34.9-39.4-68.4-59.3-103.5-2.9-5.2-9.4-19.3-12-22.7,1-2.4,1-4.5,0-6.9h-2.9c0,0,0,2.9,0,2.9-1.6-3.1-12.1-22-13-23l1-4c-1.5-.5-1.9,1-2,1-.7,0-1.2.1-1.8-.2-2.4-1.2-9.2-18.2-11.2-21.8ZM547,410h-2v3h2v-3ZM532,420c-1.6-1.6-4.6,1.4-3,3s4.6-1.4,3-3ZM587,447h-3v2h3v-2Z"/>
  <path class="st28" d="M193,703c.6,0,1.4-.1,2,0,2.8.5,5.8,1.8,9,2s1.3,0,2,0c163.8-2,328.5,2.7,492,0,.7,0,1.3,0,2,0,1.3,0,2.7,0,4,0-1,.7-5.8,2-6.5,2H205.5c-1.8,0-10.2-1.9-12.3-2.7s-1.8-.3-2.2-1.3h2Z"/>
  <path class="st23" d="M700,659c-3.1,1.3-5.8,3.2-9.5,3H215.5s-3.5-2-3.5-2c159.9,4.2,320.5-3.2,480.5,0l7.5-1Z"/>
  <path class="st4" d="M712,651c-4.1,3.7-6.8,5.8-12,8l-7.5,1c-160-3.3-320.6,4.2-480.5,0-.7,0-1.3,0-2,0h-2c-.3,0-.7,0-1,0l-1-1c-5.2-1.7-5.6-1.7-10-5l18,5h473c9.1.7,17.2-3.9,25-8Z"/>
  <path class="st9" d="M698,705c-163.5,2.7-328.2-2-492,0h492Z"/>
  <path class="st24" d="M142,659c-1.9-4.2-5.4-11.4-6-16-1.8-13.7.1-34.5,6-47l-3.7,17.8c1.9,9.5-1.4,19-.1,28.6l3.9,16.6Z"/>
  <path class="st17" d="M203,581c-1.8,3.4-4,6.4-5.7,9.8-3.1,5.8-13.9,24.7-14.2,29.7s2.7,12.2.9,17c2.9,1.4,3.1,3.9,4.1,6.8l6.9,8.8c-6-4.7-9.9-8.6-12.4-16.1-6.7-20.1,8.8-36.8,17.6-53.3s.4-3.2,2.8-2.6Z"/>
  <path class="st24" d="M768,645c-.8,5.5-5.5,13.4-7,19-.4.4-1.4.6-2,1,7.2-16.9,6.4-21.9,7.3-39.2,0-1.6.6-4.6,1.7-5.8,0,7.2,1,18.4,0,25Z"/>
  <path class="st4" d="M429,183c.4-.3.4-1.5,1.6-1.8,5.3-1.6,11.1,0,15.9,0,8.9-.3,25.4-4,31.5,4.7s8.8,17,13,24.2h-1c-3.3-5.8-6.5-12.6-10.2-18.3-3.8-6-4.8-9-12.3-9.7-8.1-.8-22.9-.6-31.1,0s-5,.8-7.5,2v-1Z"/>
  <path class="st23" d="M481,140c-15.5-.3-32.4.2-48.5,0-1.7,0-4.4.6-5.5-1,14.8-1,33.5-.5,48.6,0s3.8,0,5.4,1Z"/>
  <path class="st4" d="M714,649c.5-3.1,3.2-4.1,4.5-7s3.6-12.2,3.6-15.5c-.1-12.3-5.8-19.1-11.1-28.5h1c2.5,4.4,6.1,8.2,8.2,13.3,5.7,13.9,3.8,26.7-6.2,37.7Z"/>
  <path class="st17" d="M244,510c-2.2,7.4-14.4,24.8-19,32.7s-12.5,20.8-16.2,30.5-1.9,2.6-3.8,2.7c10.5-19.7,21.4-39.5,32.8-58.7s3.4-6.6,6.2-7.3Z"/>
  <path class="st17" d="M429,184c.3,3.9-4.7,7.5-6.3,10.2-7.1,11.9-13.6,25.6-20.7,38-21.9,38.5-48,80.2-66.5,118.8-.6,1.3-2.7,1.5-3.6,2.7-1.2,1.7-1.1,4.9-2,6.5s-6.1,7.9-7.2,10-.9,4.7-1.9,6.6c-.5.4-1.4,0-1.8.1-12.8,27-30.6,53-44.7,79.3s-5,7.9-5.2,8.4c-.9,2.7,1.6,4.8-3,4.5-.7.6,0,2.3-.2,2.8-4,8.5-12.3,20.2-17.1,27.7s0,4.7-2.9,4.3c23.3-40.8,45.3-82.6,69.8-122.7,1.8-2.9-.6-3,3.2-4.3,14.6-30.7,33.6-60.3,50.4-90.1s35.7-67.2,55.4-98.5c1.4-2.2,2.1-3.5,4.2-5.3v1Z"/>
  <path class="st9" d="M176,697c-.4-3.1.8-2,2.7-1.2,2.8,1.1,5.3,2.6,8.3,3.7s3.6-.3,3,2.5c-4.7-.4-10-2.5-14-5Z"/>
  <path class="st17" d="M712,598h-1c-30.6-54.9-62.5-107.9-93.3-162.3-2.4-4.3-4.9-7.9-7.3-12s0-3.8-2.4-4.7c0-.3,0-.7,0-1-.9-4.8-4.2-5.9-6-9-6.4-10.7-12.4-24.3-18.3-34.7-31.1-54.5-62.4-109.9-93.7-164.3h1c74.4,128.8,149,257.8,221,388Z"/>
  <path class="st23" d="M420,140c.6,2.8-1.4,1.9-3,2.5-3.3,1.3-6.5,3.2-10,3.5,2.2-3,9.5-5.7,13-6Z"/>
  <path class="st9" d="M709,703v1l-4,1c-.3,0-.7,0-1,0-1.3,0-2.7,0-4,0v-2c2.6.6,5.2-.8,7.6-.9s1.3.8,1.4.9Z"/>
  <path class="st9" d="M195,703c2-2,6,.9,9,0v2c-3.2-.2-6.2-1.5-9-2Z"/>
  <path class="st24" d="M767,611c-3.6.8-2-4.2-2-6,1.6,1.5,2,4,2,6Z"/>
  <path class="st24" d="M768,618h-2c-1-1.9.9-4.3,1-5,1.6.8,1,3.4,1,5Z"/>
  <path class="st23" d="M488,142c-1.1,1.5-6,.3-5-2,2.4,0,3.5,1.5,5,2Z"/>
  <path class="st28" d="M142,659c1.2,2.8,1.2,5.2,4,8l1,3-1,1c-3.7-9.2-9.9-17.9-11-28h1c.6,4.6,4.1,11.8,6,16Z"/>
  <path class="st9" d="M718,700c-.9,1.4-2.4,1.9-4,2v-2c1.3-.2,2.8.2,4,0Z"/>
  <path class="st24" d="M146,667c.2.2,1.5-.3,1.9.1s-.1,2.2.1,2.9h-1l-1-3Z"/>
  <path class="st9" d="M725,697c-.4,1.4-1.6,1.9-3,2,.2-.3-.2-1.8,0-2s2.2.2,3,0Z"/>
  <path class="st24" d="M147,587c-.2.7.4,2.3-.1,2.9s-1.7,0-1.9.1c0-1.5.6-2.6,2-3Z"/>
  <path class="st24" d="M754,673c.6-1.4-1.1-3.3,3-4-.8,1.5-1.1,3.3-3,4Z"/>
  <path class="st23" d="M424,139l-.2,1.9c-1.1.7-1.7-.9-1.8-.9l2-1Z"/>
  <path class="st24" d="M765,603h-2c-.4-.9,1-1.8,1-2,.9.3,1,1.1,1,2Z"/>
  <path class="st9" d="M193,703h-2v-1c.5,0,1.6-1.4,2-1v2Z"/>
  <path class="st23" d="M210,660c-.4,0,0,.4-2,0h2Z"/>
  <path class="st9" d="M712,702l-1,1v-2c.8-.3.9,1,1,1Z"/>
  <path class="st28" d="M743,686c2.6-2.5,4.6-4.2,7-7-.6,3-4,6.4-7,7Z"/>
  <path class="st28" d="M735,692c2.4-1.6,4.7-3.2,7-5-2,1.9-3.7,4.5-6.5,6l-.5-1Z"/>
  <path class="st23" d="M207,660c-.4-.1-.8-.9-1-1l1,1Z"/>
  <path class="st17" d="M245,506c.2-.4.9-.7,1-1l-1,1Z"/>
  <path class="st28" d="M751,678c.7-.9,1.9-1.9,2-2l-2,2Z"/>
  <path class="st5" d="M769,645c-.9,4-5.3,16.4-8,19,1.5-5.6,6.2-13.5,7-19h1Z"/>
  <path class="st28" d="M709,704l-.6.9c-1.1.4-2.3,0-3.4.1l4-1Z"/>
  <path class="st15" d="M700,156c.7,0,1.3,0,2,0v-39h25v39.5l1.5,1.5h39.5v27h-39.5l-1.5,1.5v38.5h-25v-38c-1.8-.2-.9,2.3-1,3.5-.4,9.6.1,19.4,0,29s.6,4.4-1,5.5v-38c-2.7,0-5.3,0-8,0v-1c2.7,0,5.3,0,8,0v-1s-39,0-39,0v-27h39c.2-1.8-2.3-.9-3.5-1-11.7-.5-24.2,1.2-35.5-1,12.9-.5,26.1.6,39,0Z"/>
  <path class="st1" d="M661,156c11.3,2.2,23.8.5,35.5,1s3.7-.8,3.5,1h-39v27h39v1c-2.7,0-5.3,0-8,0-10.3.2-21.7.5-32,0v-29l1-1Z"/>
  <path class="st1" d="M728,116v40h40.5l1.5,1.5v29.5h-42v39h-26.6s-1.4-1-1.4-1c1.7-1,1-3.8,1-5.5.1-9.6-.4-19.4,0-29,0-1.2-.8-3.7,1-3.5v38h25v-38.5l1.5-1.5h39.5v-27h-39.5l-1.5-1.5v-39.5h-25v39c-.7,0-1.3,0-2,0v-3c1.7-1,1-3.8,1-5.5.1-8.3,0-16.7,0-25s.6-4.4-1-5.5l1.4-1h26.6Z"/>
  <path class="st15" d="M700,153v-36c1.7,1,1,3.8,1,5.5,0,8.3.1,16.7,0,25s.6,4.4-1,5.5Z"/>
  <path class="st0" d="M660,172c-1.5-2.8-1.8-12.4,0-15v15Z"/>
  <path class="st6" d="M429,184c2.4-1.3,4.7-1.8,7.5-2,8.2-.6,22.9-.7,31.1,0,7.5.7,8.5,3.7,12.3,9.7,3.6,5.7,6.8,12.6,10.2,18.3,31.3,54.4,62.5,109.8,93.7,164.3,6,10.4,12,24,18.3,34.7l-4,2-1.5-3c-1.5,1.3-2.8,4.8-4.5,5.5-2.8,1.2-7.4-3.7-10,3-1.1,2.9,6.2.8,7,1.5l-2,4.5,1.7,2.4,8.4-2.9c.7,2.8-3.1,3.2-3.7,4.3s-.6,7.1-4.2,4.7-2.4-10.5-3.9.9l13.9,2.1c-.4,3.9-5.2,2.3-5.5,7.1h-3.4c.6-4.1-.6-6.8-5-7.1,1,5,2,11.9-5,11-1-2.7,1.7-1.7,1.9-2.1,2-3.1-8.9-4.4-10.9-3.9-1-3.3,1.6-2.6,2.3-4.2,2.6-5.5-2-3.3-3.1-5s0-2.5-.2-2.7c-.3-.3-2.2.9-3.3.7-2.1-.4-8.9-3-6.2-5.7h4.5s-1-5-1-5c-2.9,1.1-3.8,1.7-7,2-.1.7.2,1.7,0,2.5-1.1,4.9-5.1,1.7-4-2.5,1.3-.1,2.7.1,4,0,.4-2.2.5-4.8,1-7-4.8,1.5-5-2.1-6.8-3s-6.3-1.9-6.7-2c-3.1,0-6.7,4.4-8.1-.1-3.9,2.4-6.2-2-10.4-1,2-6.5.4-4.7-2.1-7.7s-.4-2.3-1.2-3-3.1-.2-3.7-1.8c-1.3-3.5,4.3-5.4,2.9-9.4l-6,1c.5-2.4,1.2-3.3.3-5.7-2-4.9-6.8-3.9-7.2-4.3s.4-5.5-.2-7.3-6.8-4.9-7.4-5.6c-1.5-1.9,4.8-12.4-10.4-4-5.7-10.5-12-19.6-18-29.8-.9-1.5-3.7-7.4-4.3-8s-1.6,0-1.8-.2c-.3-.3-.7-.7-1-1-1.2-8.6-17.9-10.1-23.6-6s-1,1.6-1.4,2c-1.1,1-2.9,2.9-4,4-8.2,8.4-13.8,23.9-20.5,35-10.4,17.1-21.4,35.4-31.5,53s-.7.5-1,1c-5,8.7-8.5,18.7-15,27v1c-.1,1.3-1.6,2.2-2,3s-.7.5-1,1c-1,1.8-2.1,4.2-3,6s-1.4,1.5-2,3-.5,2.8-1,4c-.4.1-1.4-.3-1.8.1-1.4,2.8-1.5,9.3-5.2,9.9s-2.7-.1-4,0l1,5c-.3.4-.6,1.3-1,2l-10,1c-2.3,2.4,7.5,2.7,8,4-.6,1-1.4,2-2,3h-5c0,2.2-.6,5.2,2,6-.6,1.1-1.8,1.7-2,2-3.8-3.1-3.9-6.3-10-5-.8,2.5,3.8,2.2,2,4.9s-2.6.3-3.4,1-.4,2.2-.9,2.7c-1.5,1.6-6.2,4.2-4.7-.1s6.2-4.1,1.5-3.5-5.4,10-8.5,7,4.9-8.5-.5-9c-2,.9-1.1,4.4-1.6,4.9s-2.6-.1-3.9.6c-2,1.2-.7,4.4-6.4,3.5s-13.2-6.9-13.5-8.5c-.6-2.9,5.3-3.7,7-2.4v-4s-5,.5-5,.5l-1.5-5.5c-2.8,3.2-3.1,14.8-7.2,15.8s-3.1-.2-3.3-1.4c-.4-2.1,2.7-1.9,3-3.2s.2-6.3-.5-6.3c-3.5,1.9-1.9,5.4-7.4,5.1-1,1.2,1.6,5.2-1.6,4.9-6-.6-4.8-11.2-7.5-16,.2-.5-.5-2.3.2-2.8,4.5.3,2.1-1.8,3-4.5s4.4-6.9,5.2-8.4c14.1-26.3,31.9-52.3,44.7-79.3.4-.1,1.3.3,1.8-.1,1.1-2,.9-4.7,1.9-6.6s6.1-7.8,7.2-10,.8-4.8,2-6.5,2.9-1.3,3.6-2.7c18.5-38.5,44.5-80.3,66.5-118.8,7.1-12.4,13.6-26.1,20.7-38s6.6-6.3,6.3-10.2ZM292,470c1.9-1.9-3.2-6.2-4-2.5s3.3,3.2,4,2.5ZM279,470c-1.2-1.5-7.7-.6-7,3,2.2,1.9,8.9-.5,7-3ZM277,477h-2v2h2v-2ZM308,488c.5-3.2-1.9-5.4-5-5-1.1,1,3.9,6.1,5,5Z"/>
  <path class="st7" d="M687,659H214h473Z"/>
  <path class="st4" d="M310,582c11.9,5.2,32.2,2.9,46,3,.3,0,.7,0,1,0,66.6.5,133.4,0,200,0,.7,0,1.3,0,2,0,7.3,0,14.7,0,22,0s.7,0,1,0c.7,0,1.3,0,2,0,1.3,0,3.3.5,4-1,5-.3,3.6-1,6-2s2.1-.3,3-1h1c-2.4,1.7-5.1,4-8,5h-276c-3.3-1.1-9.3-4.9-11-8,2.8,2.3,3.9,2.7,7,4Z"/>
  <path class="st7" d="M492,586h-148,148Z"/>
  <path class="st7" d="M549,586h-54,54Z"/>
  <path class="st17" d="M437,319c-23.7,42.6-47.5,85.2-72.4,127.1-2,3.4-.7,5.6-4.6,6.9-13.9,33.6-38.9,66.1-55.7,98.8-4.5,8.6-6.3,17.2-1.3,26.2-2.9-2.5-5.4-7.9-5.8-11.7s3.6-12.8,4-13.6c.8-1.4,4.9-5,6.1-7,11.5-19.4,21.3-39.9,32.7-59.7s1.4-.9,2-2c1.2-2,1.9-4,3-6s1.4-2,2-3c1.2-2,1.3-3.8,2-5s.7-1.6,1-2,4-.7,3-5c3.7-.5,3.8-7.1,5.2-9.9.5-.4,1.4,0,1.8-.1.5-1.2.5-2.8,1-4,1.4-.4,2-1.5,2-3,.9-1.8,2-4.2,3-6l1-1c.4-.8,1.9-1.7,2-3v-1c6.5-8.3,10-18.3,15-27l1-1c10.1-17.7,21-35.9,31.5-53s12.4-26.5,20.5-35Z"/>
  <path class="st17" d="M467,320c.1.1,1.3-.3,1.8.2s3.4,6.5,4.3,8c6,10.2,12.2,19.2,18,29.8s8.8,20.6,11.2,21.8,1.1.3,1.8.2l-1.1,2.4c0,1,1.9.4,2.1.6.9,1,11.4,19.9,13,23s1.9,2.6,3,4c2.6,3.4,9,17.5,12,22.7,20,35.1,39.8,68.6,59.3,103.5,3,5.3,7.3,11.2,9.6,15.6,2.2,4.2,4.6,12,4,16.6-.9,6.9-3,9.1-7.9,12.6h-1c9.4-7.6,8.3-18.7,3.2-28.7-19.7-38.8-47.6-78.2-68.2-117l-65-115.3Z"/>
  <path class="st7" d="M590,586c-6,2-18.6,1.1-25.5,1-1.7,0-4.4.6-5.5-1h31Z"/>
  <path class="st6" d="M518,406v-3s2.9,0,2.9,0c1,2.4,1.1,4.5,0,6.9-1.1-1.4-.9.1-3-4Z"/>
  <path class="st6" d="M608,418c0,.3,0,.7,0,1,0,.8.3,2.3-.1,2.8l-4.9.7,5-4.5Z"/>
  <path class="st6" d="M532,420c1.6,1.6-1.4,4.6-3,3s1.4-4.6,3-3Z"/>
  <path class="st7" d="M323,586c-2.5,2.3-6.2,1-9,0h9Z"/>
  <path class="st6" d="M504,380c.1,0,.5-1.5,2-1l-1,4c-.1-.1-2,.4-2.1-.6l1.1-2.4Z"/>
  <rect class="st6" x="584" y="447" width="3" height="2"/>
  <rect class="st6" x="545" y="410" width="2" height="3"/>
  <path class="st7" d="M332,586c-1,1.6-5.1,1.6-6,0h6Z"/>
  <path class="st7" d="M341,586c-1,1.6-5.1,1.6-6,0h6Z"/>
  <path class="st7" d="M556,586c-.7,1.6-4.3,1.6-5,0h5Z"/>
  <path class="st3" d="M441,315c10-4.8,17.4-3.3,25,4s.7.7,1,1l65,115.3c20.5,38.8,48.5,78.2,68.2,117,5.1,10,6.2,21.1-3.2,28.7-.9.7-2.1.6-3,1h-284c-3.1-1.3-4.2-1.7-7-4-5-9-3.2-17.6,1.3-26.2,16.8-32.7,41.8-65.2,55.7-98.8,3.9-1.3,2.6-3.5,4.6-6.9,24.9-41.9,48.7-84.5,72.4-127.1,1.1-1.1,2.9-3,4-4ZM446,398c-2.5-.5-2,1.3-2.8,2.6-6.5,11.4-12.8,22.9-19.2,34.4s.1.7,0,1-.8.6-1,1c-6,10.9-12.1,21-18,32-5.4,6.6-8.8,14.6-13,22-6.4,11.4-16.1,25.4-21,37-4.8,3.9-4.2,11.2,2.4,12.1l157.9-.3c4.7-.7,4.1-6.7,2.8-10.3-3.1-8.2-11.9-20-16.4-28.7s0-3.3-2.7-2.8c-13.4-24.8-27.2-49.4-41-74-5.1-9.1-9.9-18.2-15.4-27.1-.8-1.3-.9-3.4-1.5-4.3s-1.8-.5-2.1-.6-.5-1.5-1.7-1.8c-4.8-1.4-5.8,4.9-7.3,7.8Z"/>
  <path class="st21" d="M349,470c-.7,1.2-.8,3-2,5-.5-1.3-10.3-1.6-8-4l10-1Z"/>
  <path class="st17" d="M441,315c.4-.4.6-1.4,1.4-2,5.6-4.1,22.3-2.6,23.6,6-7.6-7.3-15-8.8-25-4Z"/>
  <path class="st21" d="M279,470c1.9,2.5-4.8,4.9-7,3-.7-3.5,5.8-4.5,7-3Z"/>
  <path class="st21" d="M345,478c-1.1,2-1.8,4-3,6-2.6-.8-2-3.8-2-6h5Z"/>
  <path class="st21" d="M353,463c1,4.3-2.8,4.7-3,5l-1-5c1.3-.1,2.7.2,4,0Z"/>
  <path class="st21" d="M308,488c-1.1,1.1-6.1-4-5-5,3.1-.5,5.4,1.8,5,5Z"/>
  <path class="st21" d="M292,470c-.7.7-4.5-.4-4-2.5.8-3.7,5.9.5,4,2.5Z"/>
  <rect class="st21" x="275" y="477" width="2" height="2"/>
  <path class="st21" d="M361,449c.6-1.5,1.6-2.2,2-3,0,1.5-.6,2.6-2,3Z"/>
  <path class="st21" d="M366,440c.3-.5.9-.8,1-1l-1,1Z"/>
  <path class="st21" d="M369,436v-1,1Z"/>
  <path class="st21" d="M384,408c.3-.5.9-.8,1-1l-1,1Z"/>
  <path class="st24" d="M594,582c-2.4,1-1,1.7-6,2s-3.3-.5-4,1c-.7,0-1.3,0-2,0l-.5-1-.5,1c-7.3,0-14.7,0-22,0l-1.5-1-.5,1c-66.6,0-133.4.5-200,0l-.5-1-.5,1c-13.8-.1-34.1,2.2-46-3h284Z"/>
  <path class="st3" d="M588,584c-.7,1.5-2.7,1-4,1,.7-1.5,2.7-.9,4-1Z"/>
  <path class="st3" d="M559,585c-.7,0-1.3,0-2,0l.5-1,1.5,1Z"/>
  <path class="st3" d="M582,585c-.3,0-.7,0-1,0l.5-1,.5,1Z"/>
  <path class="st3" d="M357,585c-.3,0-.7,0-1,0l.5-1,.5,1Z"/>
  <path class="st7" d="M455,392c3.7,9.2,10.4,16.6,13.7,25.7l5.3,6.3c13.8,24.6,27.6,49.2,41,74s16.8,26.7,18.7,33.8.6,3.4.1,5.1c-.4.7-13.9,2.1-16.3,2.2-46.3,2.3-94.5-1.8-141,0-8.8-.4-8.4-4-5.5-11,4.9-11.6,14.6-25.6,21-37l5.4-7.1c2.9-4.7,5-10.1,7.6-14.9,5.9-11,12-21.1,18-32l1.5,1-.5-2c.1-.3-.1-.7,0-1,2.3,0,4.2-5,5.4-7.1,6-10,11.4-20.1,16.6-29.9s2.5-9.3,7.3-7.8,1.4,1.6,1.7,1.8Z"/>
  <path class="st17" d="M515,498c2.7-.6,2,1.4,2.7,2.8,4.5,8.7,13.2,20.4,16.4,28.7s2,9.6-2.8,10.3l-157.9.3c-6.7-.9-7.2-8.2-2.4-12.1-2.9,7-3.3,10.6,5.5,11,46.5-1.7,94.7,2.3,141,0s15.9-1.5,16.3-2.2c.4-1.7.3-3.5-.1-5.1-1.9-7.1-14.4-25.9-18.7-33.8Z"/>
  <path class="st6" d="M446,398c-5.2,9.8-10.6,19.9-16.6,29.9s-3.1,7-5.4,7.1c6.4-11.5,12.7-22.9,19.2-34.4s.3-3.2,2.8-2.6Z"/>
  <path class="st17" d="M455,392c.3.2,1.3-.4,2.1.6s.7,2.9,1.5,4.3c5.5,8.9,10.3,18,15.4,27.1l-5.3-6.3c-3.3-9.1-10-16.5-13.7-25.7Z"/>
  <path class="st17" d="M405,469c-2.6,4.8-4.7,10.2-7.6,14.9l-5.4,7.1c4.2-7.4,7.6-15.4,13-22Z"/>
  <path class="st6" d="M423,437c.2-.4.8-.7,1-1l.5,2-1.5-1Z"/>
</svg>