<?xml version="1.0" encoding="UTF-8"?>
<svg id="Layer_1" xmlns="http://www.w3.org/2000/svg" version="1.1" viewBox="0 0 450 450">
  <!-- Generator: Adobe Illustrator 29.7.1, SVG Export Plug-In . SVG Version: 2.1.1 Build 8)  -->
  <defs>
    <style>
      .st0 {
        fill: #010324;
      }

      .st1 {
        fill: #a6d1fd;
      }

      .st2 {
        fill: #81b1f5;
      }

      .st3 {
        fill: #0a1c59;
      }

      .st4 {
        fill: #efb161;
      }

      .st5 {
        fill: #fcfcfd;
      }

      .st6 {
        fill: #051754;
      }

      .st7 {
        fill: #5f9bfe;
      }

      .st8 {
        fill: #08103e;
      }

      .st9 {
        fill: #97c3fa;
      }

      .st10 {
        fill: #6fa4fe;
      }

      .st11 {
        fill: #cfecfa;
      }

      .st12 {
        fill: #528ffe;
      }

      .st13 {
        fill: #3f79f6;
      }

      .st14 {
        fill: #02052b;
      }

      .st15 {
        fill: #2d5cd8;
      }

      .st16 {
        fill: #1937a1;
      }

      .st17 {
        fill: #061955;
      }

      .st18 {
        fill: #112669;
      }

      .st19 {
        fill: #5695fe;
      }

      .st20 {
        fill: #244fc5;
      }

      .st21 {
        fill: #cd875e;
      }

      .st22 {
        fill: #2048b8;
      }

      .st23 {
        fill: #3569ec;
      }

      .st24 {
        fill: #3a70f0;
      }

      .st25 {
        fill: #2249bb;
      }

      .st26 {
        fill: #000017;
      }

      .st27 {
        fill: #afd5fd;
      }

      .st28 {
        fill: #3a71f0;
      }

      .st29 {
        fill: #224bc1;
      }
    </style>
  </defs>
  <path class="st5" d="M450,0v450H0V0h450ZM63,31c0,1,0,2,0,3s0,2.7,0,4v3c-.5,0-2.7.8-4,1l-8.1-.6c-1.5,1.1-.8,4.8-.9,6.6s0,4,0,6c-2,0-4,0-6,0s-4,0-6,0c0,.7,0,1.3,0,2,0,1,0,2,0,3-.1,2.7,0,5.3,0,8-4.1-.5-8.8.3-13,0v324c4.3.2,8.7-.2,13,0v12l.6.9c2.1.2,4.3.2,6.4,0s2.1.1,3,0c3-.6,1.9,1.5,2,3.5.1,3.2,0,6.4,0,9.6h13s0,13,0,13c.3.4,1.5-.9,2-1,4.7-.6,11.7.9,17,1s2.7,0,4,0c100.4,1.6,201-1.2,301.5,0,1.6-.4-.5-1.9-.5-2-.2-1.5-.2-4.5,0-6s1.8-3.1,1-5h11.9c0-.1,1.1-13,1.1-13l12.6-.9.4-11.5c.3-1.2,2.6-.3,3.1-.5h9s0-323,0-323l-12-1v-13s-13,0-13,0c-.2-4,.1-8,0-12-1.6.1-3.4-.2-5,0l-8-1,1-12.5-1-.5-324.4-1c-1.1.2-.5,2.9-.6,4Z"/>
  <path class="st3" d="M45,404c-2.1,0-4.3,0-6.4,0l-.6-.9c2.2.2,5.6-.9,7,1Z"/>
  <path class="st3" d="M38,59c0-1,0-2,0-3,1.5.1,1.5,2.9,0,3Z"/>
  <g>
    <path class="st17" d="M424,80c-.9,102.9.8,206-.1,308.8-1.7,2-6.5.1-6.7.3s0,1.7-.1,1.8c-.4.3-2.7-.7-3.1.5l-.4,11.5-12.6.9-1.1,12.9h-11.9c.8,2.1-.9,4.2-1,5.1-2.1-5.8-4.3-3.3-8.6-4s-2.3-1-2.4-1v-13h4v2c3.4.5,4.6-.2,7-2s.8-.7,1-1c.8-1.4,0-.6,0-1,.2-3.3,0-6.7,0-10l12.6-.9c1-3.9.2-8.1.4-12.1,4.6,0,9.1.8,13-2l1-297h9Z"/>
    <path class="st17" d="M376,42c2.9-.9,5-1.5,8.3-1l1.7,4h1.5c.9-3.5,3.3-1.5,6.1-1.9s2.3-1,2.4-1c1.6-.2,3.4.1,5,0,.1,4-.2,8,0,12s0,1.3,0,2h11c-1.6,6.5,1.8,13.3,1.1,19.6s-3.1,1.5-2.1,4.4h-9c-.1-2-1.3-13.1-1.9-13.6l-11.1.6c0-.5-.5-.9-1-1,0-4.4.6-7.9-1-12s.6-1.8-.6-2h-10.4s0-10,0-10Z"/>
    <path class="st14" d="M426,68v323s-9,0-9,0c.2-.1-.2-1.5.1-1.8s5,1.7,6.7-.3c1-102.9-.8-205.9.1-308.8,0-3.7-.6-7.6,1-11l-8-1h9Z"/>
    <path class="st14" d="M388,28l1,.5-1,12.5-1-12c-4.7,0-9.4,0-14,0-98.5-.9-197.5-1.2-296,0-4,0-8,0-12,0,0,1.7.1,3.4,0,5h-2c0-1,0-2,0-3l2.4-3.1h322.6Z"/>
    <path class="st18" d="M388,28H65.4c0,0-2.4,3-2.4,3,0-1.1-.5-3.8.6-4l324.4,1Z"/>
    <path class="st3" d="M401,54h13s0,13,0,13l12,1h-9s8,1,8,1c-1.6,3.4-1,7.3-1,11h-13c-1-2.9,1.8-2.6,2.1-4.4.8-6.3-2.7-13.1-1.1-19.6h-11c0-.7,0-1.3,0-2Z"/>
    <path class="st18" d="M373,29c4.7,0,9.4,0,14,0l1,12,8,1c-.2,0-1.2.9-2.4,1-2.8.4-5.1-1.5-6.1,2h-1.5s-1.7-4.1-1.7-4.1c-3.4-.5-5.4.1-8.3,1s-1.4-.1-2,0c0-.3,0-.7,0-1s0-.7,0-1c0-3.6.7-7.7-1-11Z"/>
    <path class="st18" d="M77,29l-1,12c-2.6.2-5.4-.2-8,0s-3.4-.2-5,0v-3h2c0-1.3,0-2.7,0-4s0-3.4,0-5c4,0,8,0,12,0Z"/>
    <path class="st8" d="M44,54l6,1-10,1v12c-.3.4-1.5-.9-2-1,0-2.7-.1-5.3,0-8,1.5-.1,1.5-2.9,0-3,0-.7,0-1.3,0-2,2,0,4,0,6,0Z"/>
    <path class="st18" d="M59,42c-2.1.4-4.6,1.5-7,1.5l1,2-3,2.5c0-1.8-.6-5.5.9-6.6l8.1.6Z"/>
    <path class="st3" d="M65,34c0,1.3,0,2.7,0,4h-2c0-1.3,0-2.7,0-4h2Z"/>
    <path class="st18" d="M50,54v1l-6-1c2,0,4,0,6,0Z"/>
    <path class="st16" d="M403,80l9,1,1,285c2.1,3.1.6,7.4,1,11-3.9,2.8-8.4,1.9-13,2-.2,4,.5,8.1-.4,12.1l-12.6.9c0-4.7,0-9.3,0-14h12l1,1c.2-4.2.3-8.3,1-12.5-4.2-94.2,5.4-192.9,0-286.5h1Z"/>
    <path class="st14" d="M415,80l-1,297c-.4-3.6,1.1-7.9-1-11V80h2Z"/>
    <path class="st20" d="M386,367h2c0,.3,0,.7,0,1,0,3.3,0,6.7,0,10s0,9.3,0,14,.2,6.7,0,10v1c-.2.3-.7.8-1,1h-11l10-1v-12c-4,0-8,0-12,0s-3.3,0-5,0c-2.7,0-5.3,0-8,0v-10.4c.3-2,8.8,1.7,8-2.6,1.7,0,3.3,0,5,0v-11c4,0,8,0,12,0Z"/>
    <path class="st14" d="M387,404c-2.4,1.8-3.6,2.5-7,2v-2h7Z"/>
    <path class="st14" d="M388,403v-1c0,.4.8-.4,0,1Z"/>
    <path class="st12" d="M52,106l12-1v252.6c-.7,1.3,1,3,1,3.4.2,1.9-.1,4,0,6h-13s0,11,0,11c-.3,0-.7,0-1,0s-.7,0-1,0c1.4-2.9.3-7.4,0-11s0-.7,0-1c.5-.2.9-.5,1-1s0-.7,0-1,0-.7,0-1c.1-.6,1.6-2,1.1-3.4-.1-84.5,0-169.1,0-253.6Z"/>
    <path class="st14" d="M39,80v293c0,1.3,0,2.7,0,4s-1,.7-1,1h-1V80c.3,0,.7,0,1,0s.7,0,1,0Z"/>
    <path class="st16" d="M51,106c0,.7,0,1.3,0,2-1.5.1-1.5,2.9,0,3,0,1.7,0,3.3,0,5-1.7,2-1.7,7.8,0,10,0,2.3,0,4.7,0,7l-1,1.5,1,.5c0,4.3,0,8.7,0,13-1.7,1.6-1.7,6.5,0,8,0,4,0,8,0,12-1.6,1-1.6,5.1,0,6,0,1.3,0,2.7,0,4l-1,1.5,1,.5v26l-1,1.5,1,.5c0,1,0,2,0,3-1.6.7-1.6,4.3,0,5v12l-1,.5,1,.5v71l-1,.5,1,.5v8l-1,1.5,1,.5v5c-1.6.7-1.6,4.3,0,5v2c-1.7,2-1.7,7.8,0,10v5c-1.6,1-1.6,5.1,0,6v12c-1.6,1-1.6,5.1,0,6v1c0,.3,0,.7,0,1h-1c0-.3-1.7-2.1-1.1-3.4V81c0,0,0-1,0-1h1c0,8.7.8,17.7,1,26Z"/>
    <path class="st15" d="M55,378c1.3,0,2.7,0,4,0,4.2,0,8.9-.3,13,0s.7,0,1,0,.6.8,1,1h1c0,4,0,8,0,12h-1c-3.3,0-6.7,0-10,0s-8.7,0-13,0v-13c.3,0,.7,0,1,0,1,0,2,0,3,0Z"/>
    <path class="st26" d="M27,83c-.1,15,0,30,0,45s0,2.7,0,4c0,18.7,0,37.3,0,56s0,1.3,0,2c0,40.7,0,81.3,0,122v76V80c0,1,0,2,0,3Z"/>
    <path class="st23" d="M48,80h1v1h-9s0,292,0,292h-1V80c3,0,6,0,9,0Z"/>
    <path class="st10" d="M52,80v26c0,84.5,0,169.1,0,253.6.6,1.4-.9,2.8-1.1,3.4v-147c0-1.7,0-3.3,0-5s0-2,0-3,0-1.3,0-2v-26c0-.7,0-1.3,0-2,0-1.3,0-2.7,0-4,0-2,0-4,0-6,0-4,0-8,0-12s0-5.3,0-8c0-4.3,0-8.7,0-13s0-1.3,0-2c0-2.3,0-4.7,0-7,0-3.3,0-6.7,0-10s0-3.3,0-5,0-2,0-3,0-1.3,0-2v-39h1v13Z"/>
    <path class="st13" d="M64,54c1.6,5.8-1.7,19.2,0,26h-12v-13l10.1-.4c1.5-1.1.8-4,.9-5.6.1-2.3-.1-4.7,0-7,.3,0,.7,0,1,0Z"/>
    <path class="st17" d="M373,29c1.7,3.3,1,7.4,1,11h-4l-.5-1-.5,1c-97.3,0-194.8-.4-292.1.5l-.9,1.5c0,.7,0,1.3,0,2-.2,2.2,0,4.7,0,7s0,1.3,0,2,0,.7,0,1h-2l-.5-2-.5,2c-3,0-6,0-9,0,0-.3-1.7-.8-2-1.7-.6-2.7.3-6.4,0-9.3.8-.8,6.9,1.9,6-2,2.6-.2,5.4.2,8,0l1-12c98.5-1.2,197.5-.9,296,0Z"/>
    <path class="st18" d="M27,80c0-3.7,0-7.3,0-11l11-1v12c-.3,0-.7,0-1,0-3.3,0-6.7,0-10,0Z"/>
    <path class="st18" d="M37,378h1c-.3,3.6.2,7.4,0,11l-4.9-1c.3-4.2.3-8.7-5.1-6.4l-1,6.4v-10h10Z"/>
    <path class="st16" d="M50,378c-3.6,0-7.7.7-11-1,0-1.3,0-2.7,0-4h10c.5-.5-1-5.3,1-6,.3,3.6,1.4,8.1,0,11Z"/>
    <path class="st29" d="M51,106c-.2-8.3-1-17.3-1-26s-.8-9.7,1-13v39Z"/>
    <path class="st18" d="M63,54c-.1,2.3.1,4.7,0,7l-2-.6v-6.4c.7,0,1.4,0,2,0Z"/>
    <polygon class="st18" points="49 80 48 80 48.5 79 49 80"/>
    <path class="st20" d="M402,80c5.4,93.6-4.1,192.4,0,286.5-.8,4.2-.8,8.3-1,12.5l-1-1c0-7.7,0-15.3,0-23-.8-89.3.5-178.7,0-268,0-6.3,0-12.7,0-19l-11,1c0-.7.1-1.4,0-2l11.1-.6c.6.4,1.8,11.6,1.9,13.6Z"/>
    <path class="st16" d="M389,67c.1.6,0,1.3,0,2,0,2,0,4,0,6,.6,91.6.1,183.4,0,275,0,5.7.9,12.7-1,18,0-.3,0-.7,0-1,.2-86.8-.2-173.7,0-260.5l-2-16.5v-3c1.9-1.4.8-4.8,1-7,.5-4.6,1-8,1-13s0-.7,0-1c.5.1.9.5,1,1Z"/>
    <polygon class="st20" points="411 80 413 80 413 366 412 81 403 80 411 80"/>
    <path class="st28" d="M387,54c1.6,4.1,1,7.6,1,12s0,.7,0,1c-4.8-.8-9.6.8-14,1,.2-3.9,0-8.1,0-12v-2c.3,0,.7,0,1,0,4.2,0,8.2,1.2,12,0Z"/>
    <path class="st14" d="M376,42v10s10.4,0,10.4,0c1.2.2.4,1.5.6,2-3.8,1.2-7.8,0-12,0-.2-.6-.9-1.4-1-2-.4-3,0-6.9,0-10,.6-.1,1.5.2,2,0Z"/>
    <path class="st26" d="M369,40h5c0,.3,0,.7,0,1l-298,1,.9-1.5c97.2-.9,194.7-.5,292.1-.5Z"/>
    <path class="st23" d="M374,41c0,.3,0,.7,0,1,0,3.1-.4,7,0,10h-1v-9s-297,1-297,1c0-.7,0-1.3,0-2l298-1Z"/>
    <path class="st28" d="M77,79c.7-3.1,1.6-5.4,1-9h293.4c1.6.2-.7,6.7,1.6,9s9.5.4,13,1v287c-4,0-8,0-12,0v11c-1.6,0-3.3,0-5,0-3,.1-6,0-9,0v11s-11,0-11,0v-50c-1.8-.2-.9,2.3-1,3.5-.6,14.2-.6,30.9,0,45.1,0,1.8,1.1,3.2,1.1,3.4,0,.3,0,.7,0,1,.3,4-.2,8,0,12h-2c-.2-21.6.1-43.4,0-65-3-1.8-8.2-1-12-1-.7-4.2,1.9-11.6-2-14s-25.9.1-27-1v-10s13,0,13,0c0-4,0-8,0-12s0-8.7,0-13c1.7-1,1-3.8,1-5.5.5-49.7.4-100.1-1-149.5-.2-.4-1-.8-1-1-.7-3.2.5-8.5,0-12,.7,0,1.3,0,2,0-1,11.4.6,13.1,12,12l1,1,1.1,11.9,11.9-.9-1-11,1-1,11.6-.9c1.2-1.7.1-8.3.4-11.1,4.8,0,9.6.2,14.4-.1l1.2-.8.4-13.1c-4.5,0-9.1.1-13.6,0s-2.3-1-2.4-1v-10s-12-1-12-1c0-.7,0-1.3,0-2,0-4,0-8,0-12h-12.4c-1.1.1-.6,10.1-.6,12s0,1.3,0,2l-12,1-1,11c-4.9,0-9.5.7-14,1s-.7,0-1,0c-4.3.2-8.9,1-13,1s-.7,0-1,0-.8-1-1-1-.7,0-1,0c-1-1.7-3.8-1-5.5-1-42.8-.4-84.3-.3-127.1,0-8.4,0-15.7-1.4-24.5,1s-2.1-.2-3,0v2s2,0,2,0c-.5,2.5.2,6.2,0,9h-16s0,13,0,13c-3.9-.3-6.4-.1-10,1s-.8-.1-1,0c-.4.2-.8.6-1,1-1,1.6-.9,1.5-1.1,3.4-.6,7.6,0,17.3,0,25.1s-.6,4.4,1,5.5v3c-1.7,1-1,3.8-1,5.5,0,7.7,0,15.4,0,23s-.6,4.4,1,5.5v91c0,1.8-.2,3.6,0,5.4l.9.6c0,3.7,0,7.3,0,11,4.3,0,8.7,0,13,0,0,3.7,0,7.3,0,11h-29s9,2,9,2c-3,0-6,0-9,0,0,4.3,0,8.7,0,13s0,.7,0,1c-4.3,0-8.7,0-13,0h-1c-1.2.5-.8,1.3-1,2-.4,1.1,0,.7,0,1,0,1.7,0,3.3,0,5-2.3,9.9-.4,20.9-1,31-4.1-.3-8.8,0-13,0-.3-1.5-3.6-1.6-4,0-1,0-2,0-3,0v-11s13,0,13,0c-.1-2,.2-4.1,0-6,1.3-6.7.7-13.3,1-20s1.8-1.8,1.1-3.4c-2.2-84,2.8-169.3,0-253.1,0-1.9,1-4-2-3.5.6-1.7,6-1,8-1l.5,2c4.7.4,2.8-.3,3.5-2s0-.7,0-1ZM87,338v-12c-1.8-.2-1,2.3-1,3.5-.1,2.5,0,5,0,7.5h-12c-.2,1.7,2.3.9,3.5,1,3.2.1,6.4,0,9.5,0Z"/>
    <path class="st13" d="M388,367h-2V90l2,16.5c-.3,86.8.2,173.7,0,260.5Z"/>
    <path class="st22" d="M400,355c0,7.7,0,15.3,0,23h-12c0-3.3,0-6.7,0-10,1.9-5.3,1-12.3,1-18,5.9-.5,3.2,8.9,11,5Z"/>
    <path class="st25" d="M369,378c.8,4.3-7.7.5-8,2.6v10.4c2.7,0,5.4,0,8,0v3s5,0,5,0c0,2,0,4,0,6s0,.7,0,1c0,1,0,2,0,3h-3c-3.6-1-.7-7.4-3.6-8s-3.6,1.6-5.2,1.8-7.7-.5-8.6-.8c-2-.5,0-6.6-4.7-5,0-.3,0-.7,0-1l11-2v-11c3,0,6,.1,9,0Z"/>
    <path class="st22" d="M374,391c4,0,8,0,12,0v12s-10,1-10,1h-2c0-1,0-2,0-3v-1c0-2,0-4,0-6v-3Z"/>
    <path class="st29" d="M374,391v3h-5s0-3,0-3c1.7,0,3.3,0,5,0Z"/>
    <path class="st25" d="M49,81v279.6c-.7,1.2,1,3.1,1,3.4s0,.7,0,1,0,.7,0,1,0,.7,0,1c-2,.7-.5,5.5-1,6h-9s0-292,0-292h9Z"/>
    <path class="st7" d="M73,54h2l-10,1v12c3.8-.9,7.9.8,11,1,.5,3.5-1.2,8.3,1,11,0,.3.1.7,0,1-1.3,0-2.7,0-4,0-2,0-7.4-.7-8,1l1,260c-.3,6.7.3,13.3-1,20,0-.4-1.7-2.1-1.1-3.4V105c0,0-11.9,1-11.9,1v-26h12c-1.7-6.8,1.6-20.2,0-26,3,0,6,0,9,0Z"/>
    <path class="st16" d="M50,366c0-.3,0-.7,0-1h1c-.1.5-.5.8-1,1Z"/>
    <path class="st29" d="M51,365h-1c0-.3,0-.7,0-1h1c0,.3,0,.7,0,1Z"/>
    <path class="st17" d="M37,80v298h-10v-5c1.7-1.9,1.7-7.1,0-9v-8c1.7-4.7,1.7-12.4,0-17v-15c1.7-1.3,1.7-5.7,0-7v-127c0-.7,0-1.3,0-2v-56c0-1.3,0-2.7,0-4v-45c0-1,0-2,0-3,3.3,0,6.7,0,10,0Z"/>
    <path class="st29" d="M51,333c-1.7-2.2-1.7-8,0-10v10Z"/>
    <path class="st29" d="M51,126c-1.7-2.2-1.7-8,0-10,0,3.3,0,6.7,0,10Z"/>
    <path class="st29" d="M51,156c-1.7-1.5-1.7-6.4,0-8,0,2.7,0,5.3,0,8Z"/>
    <path class="st29" d="M51,362c-1.6-.9-1.6-5,0-6v6Z"/>
    <path class="st29" d="M51,344c-1.6-.9-1.6-5,0-6v6Z"/>
    <path class="st29" d="M51,174c-1.6-.9-1.6-5,0-6,0,2,0,4,0,6Z"/>
    <path class="st29" d="M51,321c-1.6-.7-1.6-4.3,0-5v5Z"/>
    <path class="st29" d="M51,216c-1.6-.7-1.6-4.3,0-5,0,1.7,0,3.3,0,5Z"/>
    <path class="st29" d="M51,111c-1.5-.1-1.5-2.9,0-3,0,1,0,2,0,3Z"/>
    <path class="st29" d="M51,208l-1-.5,1-1.5c0,.7,0,1.3,0,2Z"/>
    <polygon class="st29" points="51 311 50 310.5 51 309 51 311"/>
    <path class="st29" d="M51,180l-1-.5,1-1.5c0,.7,0,1.3,0,2Z"/>
    <path class="st29" d="M51,135l-1-.5,1-1.5c0,.7,0,1.3,0,2Z"/>
    <polygon class="st29" points="51 301 50 300.5 51 300 51 301"/>
    <polygon class="st29" points="51 229 50 228.5 51 228 51 229"/>
    <path class="st23" d="M73,378c-.3,0-.7,0-1,0,.6-10.1-1.3-21.1,1-31-.2,10.3.2,20.7,0,31Z"/>
    <path class="st12" d="M59,378c-1.3,0-2.7,0-4,0,.4-1.6,3.7-1.5,4,0Z"/>
    <path class="st3" d="M27,312c0-40.7,0-81.3,0-122v122Z"/>
    <path class="st3" d="M27,188c0-18.7,0-37.3,0-56v56Z"/>
    <path class="st3" d="M27,128c0-15-.1-30,0-45v45Z"/>
    <path class="st3" d="M27,356v-17c1.7,4.6,1.7,12.3,0,17Z"/>
    <path class="st3" d="M27,373v-9c1.7,1.9,1.7,7.1,0,9Z"/>
    <path class="st3" d="M27,324v-7c1.7,1.3,1.7,5.7,0,7Z"/>
    <path class="st22" d="M76,44l297-1v9c-96.2-2.7-194.5,3.6-290.6,0-2.2,0-4.4-.3-6.5-1,0-2.3-.2-4.8,0-7Z"/>
    <path class="st16" d="M373,52h1c0,.6.8,1.4,1,2-.3,0-.7,0-1,0-2,0-4,0-6,0-.1-1.5-2.9-1.5-3,0-1.3,0-2.7,0-4,0-.3-1.5-3.6-1.6-4,0-6.7,0-13.3,0-20,0-.7-1.6-4.3-1.6-5,0-1.7,0-3.3,0-5,0-2.5-1.7-8.7-1.7-11,0-1,0-2,0-3,0-.9-1.6-5-1.6-6,0-.7,0-1.3,0-2,0-6.1-1.7-14.9-1.7-21,0-.7,0-1.3,0-2,0-1.5-1.7-6.4-1.7-8,0-5.7,0-11.3,0-17,0-2.5-1.7-8.7-1.7-11,0h-5c-.3-1.5-3.6-1.6-4,0-2,0-4,0-6,0l-.5-1-1.5,1c-1.3,0-2.7,0-4,0l-.5-1-1.5,1h-8c-2.5-1.7-8.7-1.7-11,0h-71c-1.3,0-2.7,0-4,0-4.6-1.7-12.3-1.7-17,0-5,0-10-.1-15,0l-.5-1-.5,1c-.7,0-1.3,0-2,0s-.7,0-1,0c-4.9-2.3-11.6-.4-17-1,0-.7,0-1.3,0-2,2.1.8,4.2,1,6.5,1,96,3.6,194.3-2.8,290.5,0Z"/>
    <path class="st13" d="M76,55c.2,4.4,1.4,8.6,1,13-.3,0-.7,0-1,0-3.1-.2-7.2-1.9-11-1v-12s10-1,10-1h1c0,.3,0,.7,0,1Z"/>
    <path class="st25" d="M93,54c-4.6.2-10.7,1.9-16,1h-1c0-.3,0-.7,0-1s0-.7,0-1c5.4.6,12.1-1.3,17,1Z"/>
    <polygon class="st18" points="74 54 73 54 73.5 52 74 54"/>
    <path class="st29" d="M389,75c4.3-.2,2,6.1,3.9,8.6s5.4,2.7,7.1,3.4c.5,89.3-.8,178.7,0,268-7.8,3.9-5.1-5.5-11-5,.1-91.6.6-183.4,0-275Z"/>
    <path class="st22" d="M389,69l11-1c0,6.3,0,12.7,0,19-1.7-.7-6.2-2.2-7.1-3.4-1.9-2.5.4-8.8-3.9-8.6,0-2,0-4,0-6Z"/>
    <path class="st19" d="M388,67c0,5-.5,8.4-1,13h-1c-3.5-.6-10.7,1.3-13-1-.9-3.7.8-8,1-11,4.4-.2,9.2-1.8,14-1Z"/>
    <path class="st13" d="M386,87v-7h1c-.2,2.2.9,5.6-1,7Z"/>
    <path class="st19" d="M374,55v1l-1,11-276,1c-.7,0-1.3,0-2,0v-1c-.3-3.9.4-8.2,0-12h279Z"/>
    <path class="st7" d="M374,68c-91.1,4.2-185.5-3.2-277,0l276-1,1-11c0,3.9.2,8.1,0,12Z"/>
    <path class="st2" d="M96,54c.3,0,.7,0,1,0,5-.1,10,0,15,0s11.3,0,17,0,2.7,0,4,0c22.7-.1,45.3,0,68,0h24c1.3,0,2.7,0,4,0s1.3,0,2,0c2,0,4,0,6,0h20c5.7,0,11.3,0,17,0s5.3,0,8,0,1.3,0,2,0c7,0,14,0,21,0s1.3,0,2,0c2,0,4,0,6,0s2,0,3,0c3.7,0,7.3,0,11,0s3.3,0,5,0,3.3,0,5,0c6.7,0,13.3,0,20,0s2.7,0,4,0,2.7,0,4,0,2,0,3,0c2,0,4,0,6,0v1H95c0-.2-.8-.6-1-1,.7,0,1.3,0,2,0Z"/>
    <polygon class="st18" points="370 40 369 40 369.5 39 370 40"/>
    <path class="st23" d="M95,68c.7,0,1.3,0,2,0,91.5-3.2,185.9,4.2,277,0-.2,3-1.9,7.3-1,11-2.3-2.3,0-8.8-1.6-9H78c.6,3.6-.3,6-1,9-2.2-2.7-.5-7.5-1-11,.3,0,.7,0,1,0,5.9.3,12.1,0,18,0Z"/>
    <path class="st23" d="M65,81c3-.6,1.9,1.5,2,3.5,2.8,83.8-2.1,169.1,0,253.1.8,1.6-1,3.3-1.1,3.4l-1-260Z"/>
    <path class="st19" d="M289,107c-48.7.2-98.5-1.4-147,0-.4,0-1.4.9-2.5.9-2.4,0-4.9-1.5-7.5-.9,8.8-2.3,16.1-.9,24.5-1,42.8-.4,84.3-.5,127.1,0s4.4-.6,5.5,1Z"/>
    <path class="st12" d="M104,287c0,1.3,0,2.7,0,4,0,3.3,0,6.7,0,10l-.9-.6c-.3-1.8,0-3.6,0-5.4-1.3-29,0-59.8,0-89v-73c.2-.4.6-.8,1-1,.1,51.6-.2,103.4,0,155Z"/>
    <path class="st29" d="M349,392c4.6-1.6,2.6,4.6,4.7,5s7.7.8,8.6.8c1.6-.1,4-2,5.2-1.8,2.9.6,0,7,3.6,8h-22c-.2-4,.3-8,0-12Z"/>
    <path class="st23" d="M318,120c.5,3.5-.7,8.8,0,12-.4.2-.8,1-1,1-1.5.2-3.4,0-5,0-1.1-1.8-4.1-.9-6-1,0-3.3,0-6.7,0-10s0-1.3,0-2c4-.1,8,0,12,0Z"/>
    <path class="st18" d="M333,94c0,4,0,8,0,12-2.9-.4-5.7,1.1-8.5,1.1s-3.8-1.1-4.5-1.1l1-11,12-1Z"/>
    <path class="st18" d="M353,120c1.7,0,3.3,0,5,0-.3,2.7.8,9.4-.4,11.1l-11.6.9v-12c2.3,0,4.7,0,7,0Z"/>
    <path class="st18" d="M332,132c-11.4,1.1-13-.6-12-12,2.6,0,10.4-.7,11.6.9l.4,11.1Z"/>
    <path class="st23" d="M305,107v11h-13s0-10,0-10c4.1,0,8.7-.8,13-1Z"/>
    <path class="st18" d="M346,94l12,1v10c-1.6,0-10.8,2.2-12,1,0-4,0-8,0-12Z"/>
    <path class="st23" d="M103,295v-89c0,29.2-1.3,60,0,89Z"/>
    <path class="st12" d="M349,391c0-.2-1-1.6-1.1-3.4-.5-14.2-.5-30.9,0-45.1,0-1.2-.8-3.7,1-3.5v50h11l-11,2Z"/>
    <path class="st12" d="M117,323v2c-.3,0-.7,0-1,0l-.5-1-.5,1c-2,0-4,0-6,0l-.5-1-.5,1c-3.7,0-7.3,0-11,0l-9-2h29Z"/>
    <path class="st12" d="M306,313v10c1.1,1.1,22.8-1.7,27,1-.4.2-.8,1-1,1-.6,0-1.3,0-2,0-7.8-2.3-16.9-.4-25-1v-1c0-3,0-6,0-9s0-.7,0-1h1Z"/>
    <path class="st23" d="M103,204c-1.7-1-1-3.8-1-5.5,0-7.7,0-15.4,0-23s-.6-4.4,1-5.5v34Z"/>
    <path class="st23" d="M103,167c-1.7-1-1-3.8-1-5.5,0-7.8-.7-17.6,0-25.1s0-1.8,1.1-3.4v34Z"/>
    <path class="st13" d="M335,338c-.7,0-1.3,0-2,0-.5-4.1,1.2-9.6-1-13,.2,0,.6-.8,1-1,3.9,2.4,1.3,9.8,2,14Z"/>
    <path class="st12" d="M87,338c-3.2,0-6.4.1-9.5,0s-3.7.8-3.5-1h12c0-2.5-.1-5,0-7.5s-.8-3.7,1-3.5v12Z"/>
    <path class="st19" d="M292,108v10s13,0,13,0l-1.4,1h-12.6c-.2-3.7.1-7.4,0-11,.3,0,.7,0,1,0Z"/>
    <path class="st23" d="M77,80c-.7,1.8,1.3,2.4-3.5,2l-.5-2c1.3,0,2.7,0,4,0Z"/>
    <path class="st12" d="M132,107c-.2.7-.9,1.4-1,2h-2s0-2,0-2c.9-.2,2.2.2,3,0Z"/>
    <path class="st23" d="M73,342c0-.3-.4.1,0-1v1Z"/>
    <path class="st20" d="M374,401c0-.3,0-.7,0-1v1Z"/>
    <path class="st10" d="M95,55c.4,3.8-.3,8.1,0,12h-17s-1-12-1-12c5.3.9,11.4-.8,16-1s.7,0,1,0c.2.4,1,.8,1,1Z"/>
    <path class="st25" d="M201,54c-22.7,0-45.3-.1-68,0h68Z"/>
    <path class="st25" d="M305,54c-7,0-14,0-21,0,6.1-1.7,14.9-1.7,21,0Z"/>
    <path class="st25" d="M129,54c-5.7,0-11.3,0-17,0,4.7-1.7,12.4-1.7,17,0Z"/>
    <path class="st25" d="M215,54h-11c2.3-1.7,8.5-1.7,11,0Z"/>
    <path class="st25" d="M257,54h-11c2.3-1.7,8.5-1.7,11,0Z"/>
    <path class="st25" d="M327,54c-3.7,0-7.3,0-11,0,2.3-1.7,8.5-1.7,11,0Z"/>
    <path class="st25" d="M282,54c-2.7,0-5.3,0-8,0,1.6-1.7,6.5-1.7,8,0Z"/>
    <path class="st25" d="M313,54c-2,0-4,0-6,0,1-1.6,5.1-1.6,6,0Z"/>
    <path class="st25" d="M337,54c-1.7,0-3.3,0-5,0,.7-1.6,4.3-1.6,5,0Z"/>
    <path class="st25" d="M361,54c-1.3,0-2.7,0-4,0,.4-1.6,3.7-1.5,4,0Z"/>
    <path class="st25" d="M241,54h-4c.4-1.6,3.7-1.5,4,0Z"/>
    <path class="st25" d="M368,54c-1,0-2,0-3,0,.1-1.5,2.9-1.5,3,0Z"/>
    <path class="st25" d="M231,54c-.7,0-1.3,0-2,0l1.5-1,.5,1Z"/>
    <polygon class="st25" points="225 54 223 54 224.5 53 225 54"/>
    <path class="st25" d="M97,54c-.3,0-.7,0-1,0l.5-1,.5,1Z"/>
    <path class="st2" d="M77,55l1,12h17s0,1,0,1c-5.9,0-12.1.3-18,0,.4-4.4-.8-8.6-1-13h1Z"/>
    <g>
      <path class="st22" d="M118,312c-.6,3,1.5,1.9,3.5,2,6.8.2,13.7-.2,20.6,0v11c-6.8,1-17.6,0-25,0v-2c0-3.7,0-7.3,0-11,.3,0,.7,0,1,0Z"/>
      <path class="st20" d="M319,301c0,4,0,8,0,12h-13s-1,0-1,0c0-.3,0-.7,0-1s0-.7,0-1c0-3.3,1-6.6,1-9l13-1Z"/>
      <path class="st7" d="M319,288c0-.3,0-.7,0-1,.2-51.3-.1-102.7,0-154,1.4,49.4,1.5,99.8,1,149.5s.6,4.4-1,5.5Z"/>
      <path class="st15" d="M305,312c0,.3,0,.7,0,1s0,.7,0,1l-12,.6v8.4s12,0,12,0v2h-13c0-.3,0-.7,0-1-.3-1.9-.1-5,0-7s0-3.3,0-5h13Z"/>
      <path class="st13" d="M330,325c-8.3.3-16.7,0-25,0v-1c8.1.6,17.2-1.3,25,1Z"/>
      <path class="st28" d="M116,325c-.3,0-.7,0-1,0l.5-1,.5,1Z"/>
      <path class="st28" d="M109,325c-.3,0-.7,0-1,0l.5-1,.5,1Z"/>
      <path class="st14" d="M305,311c0,.3,0,.7,0,1h-13c3.4-2.2,8.9-.5,13-1Z"/>
      <path class="st25" d="M305,314c0,3,0,6,0,9h-12s0-8.4,0-8.4l12-.6Z"/>
      <path class="st14" d="M292,317c-.1,2-.3,5.1,0,7-3,.6-1.9-1.5-2-3.5s0-5.4,0-8l2,4.5Z"/>
      <g>
        <path class="st6" d="M312,133c-2,0-4,0-6,0v-1c1.9.1,4.9-.8,6,1Z"/>
        <path class="st6" d="M291,108c.1,3.6-.2,7.4,0,11s0,1.3,0,2c5.1-.1,9.9-.9,15-1,0,.7,0,1.3,0,2-1.6,1.9-1.7,9.3,0,11s7.8.5,11,1v152h-10s-1-142-1-142c-.3,0-.7,0-1,0s-.7,0-1,0c-4.6-.3-9.4.2-14,0-.3-4.5.8-7.6-1-12s.6-1.8-.6-2h-9.4s0-9.5,0-9.5l-2,1.5c0-.7,0-1.3,0-2v-1l-133-1c0-2.7.5-6.7,0-9,7-2.6,14.4.1,21.5,0,36.7-.3,75.5-2.6,111.9-1s7.6,1.8,11.5,1l.5,11,.5-13c.2,0,.8,1,1,1Z"/>
        <path class="st26" d="M289,107c.3,0,.7,0,1,0l-.5,13-.5-11c-3.9.8-8-.8-11.5-1-36.5-1.5-75.2.8-111.9,1-7.2,0-14.6-2.6-21.5,0,0-.1-1.9-1-2-2,48.5-1.4,98.3.2,147,0Z"/>
        <path class="st16" d="M318,287h1c0,.3,0,.7,0,1,0,4.3,0,8.7,0,13l-13,1c0-1.7-.9-5.9-1-9s0-1.3,0-2,0-1.3,0-2,0-1.3,0-2h13Z"/>
        <path class="st25" d="M106,133v11l-1,2.4c1.9,46.3-2.4,94.4,0,140.6h-1c-.2-51.6.1-103.4,0-155,.2-.1.7.1,1,0,.1.5.5,1,1,1Z"/>
        <path class="st6" d="M319,133c-.1,51.3.2,102.7,0,154h-1l-1-154c.2,0,.6-.8,1-1,0,.2.8.6,1,1Z"/>
        <path class="st16" d="M142,107c0,1,2,1.9,2,2,.5,2.3,0,6.3,0,9s0,.7,0,1c-4.2.5-8.7,0-13,0,0-.3,0-.7,0-1,.2-2.8-.5-6.5,0-9s.8-1.3,1-2c2.6-.5,5.1,1,7.5.9s2.1-.9,2.5-.9Z"/>
        <path class="st15" d="M117,301c0,3.7,0,7.3,0,11-4.3,0-8.7,0-13,0,0-3.7,0-7.3,0-11h13Z"/>
        <path class="st12" d="M131,118c0,.3,0,.7,0,1-4.4,0-10.2-.8-14,1l-1,13c-3.2,0-6.9.3-10,0s-.9-.5-1-1c3.6-1.1,6.1-1.3,10-1v-13s16,0,16,0Z"/>
        <path class="st29" d="M306,120c-5.1.1-10,.9-15,1,0-.7,0-1.3,0-2h12.6s1.4-1,1.4-1v-11c.3,0,.7,0,1,0v13Z"/>
        <path class="st24" d="M290,144l-1,143c-1.3,0-2.7,0-4,0l-.5-1-.5,1h-4v-2s-2.5,0-2.5,0c-.9,0-.5,1.3-.5,2,0,2-.1,4,0,6l-1.6,5c-43.8-.4-87.7.5-131.4,0,.3-3.5-.5-7.6,0-11s1.4-.7,1-2h-13c0-3.3,0-6.7,0-10s0-.7,0-1l12,1c.2-.9-.2-2.2,0-3,.5-2,2.6-4.9,0-7v-2c1.7-5,1.7-12.9,0-18v-14c1.7-3.2,1.7-10,0-13v-3c3,.6,1.9-1.5,2-3.5s0-4.1,0-6.1,1-4-2-3.5c0-2,0-4,0-6l2-.6v-4.4s-2,0-2,0c0-.7,0-1.3,0-2,1.7-1.3,1.7-5.7,0-7,0-1,0-2,0-3l2-.6v-5.4s-2,0-2,0c0-1.7,0-3.3,0-5,0-3,0-6,0-9h13s1-13,1-13c-2.4,1.1-5.8-.9-7-1h125c2.2-2.2.5-8.7,1-12,.3,0,.7,0,1,0,1,0,2,0,3,0l1.4,9.1,6.6.9-1-11h1c1.8,4.4.7,7.5,1,12ZM156,177v1c0,4.3,0,8.7,0,13s0,.7,0,1c0,4,0,8,0,12s0,.7,0,1c0,4.6-.6,10.8,0,15s0,.7,0,1h64c1.3,0,2.7,0,4,0,1.3,1.7,5.7,1.7,7,0,2.7,0,5.3,0,8,0,.7,1.6,4.3,1.6,5,0,.7,0,1.3,0,2,0h3c2,0,4,0,6,0,.7,1.6,4.3,1.6,5,0,2.8,0,14.4.8,15-1,0-5,0-10,0-15s0-.7,0-1c0-3.7,0-7.3,0-11s0-1.3,0-2,0-.7,0-1c0-4,0-8,0-12v-1h-119ZM156,248c0,.3,0,.7,0,1,0,3.7,0,7.3,0,11s0,1.3,0,2,0,.7,0,1c0,.7,0,1.3,0,2,0,3.3,0,6.7,0,10h119c0-4.3,0-8.7,0-13s0-1.3,0-2c0-3.9-1-8.4-1-11s1-2,1-3.5c0-3.8,0-7.7,0-11.5l-120-1,1,15ZM273,277c.6-.2,3.1.4,1.5-1h-118c-1.4,1.8,4.9,1,5.5,1h46c2.7,0,5.3,0,8,0,4.3,1.7,11.9,1.7,16,0h8c1,1.7,3.8,1,5.5,1,8.1.1,20.1,1,27.5-1Z"/>
        <path class="st0" d="M306,132v1c-1.7-1.7-1.6-9.1,0-11,0,3.3,0,6.7,0,10Z"/>
        <path class="st0" d="M312,133c1.6,0,3.5.2,5,0l1,154h-13c0-.3,0-.7,0-1,0-2.7,0-5.3,0-8v-132l1-2,1,142h10v-152c-3.2-.5-8.8,1.2-11-1,2,0,4,0,6,0Z"/>
        <path class="st26" d="M277,119l-12,1h-4c-.3-1.5-3.6-1.6-4,0h-8c-.7-1.6-4.3-1.6-5,0h-12c-1.3-1.7-5.7-1.7-7,0h-5c-.1-1.5-2.9-1.5-3,0h-14c-.1-1.5-2.9-1.5-3,0h-6c-2.2-1.7-8-1.7-10,0h-7c-1.5-1.7-6.4-1.7-8,0h-25c0-.3,0-.7,0-1s0-.7,0-1l133,1Z"/>
        <path class="st13" d="M169,120h108c0,.7,0,1.3,0,2,.1,2.7.4,5.4,0,8h-1v-9s-132,0-132,0c0-.3,0-.7,0-1h25Z"/>
        <path class="st28" d="M305,146v132c-.4-29.3-.5-59.4-1-89,0-2.3,0-4.7,0-7s.1-5.3,0-8v-30c.3,0,.7,0,1,0v2Z"/>
        <path class="st8" d="M277,122l2-1.5v9.5s9.4,0,9.4,0c1.2.2.4,1.5.6,2h-1c-2.2,1.4-4.6.9-7,1s-2,0-3,0c-.1-.5-.5-.9-1-1,0-.7,0-1.4,0-2,.4-2.6.1-5.3,0-8Z"/>
        <path class="st15" d="M304,144v1h-14c0-.3,0-.7,0-1,4.6.2,9.4-.3,14,0Z"/>
        <polygon class="st18" points="277 119 277 120 265 120 277 119"/>
        <path class="st3" d="M305,146v-2c.3,0,.7,0,1,0l-1,2Z"/>
        <path class="st15" d="M143,313l1,11-1,1c-.3,0-.7,0-1,0v-11c-6.8-.2-13.7.2-20.5,0s-4,1-3.5-2c8.4,0,16.9.8,25,1Z"/>
        <path class="st14" d="M127,286c.6-.1,1.4,0,2,0h1c0,.5,1,2,1,3.5.1,3.5,0,7,0,10.6,4.3-.1,8.7.2,13,0-1,3.1.8,6.9,1,9s-.9,2.8-1,4c-.3,0-.7,0-1,0-8.1-.2-16.6-.9-25-1s-.7,0-1,0c0-3.7,0-7.3,0-11s.2-8.6-.1-12.9c-3.4-1.6-7.2-1.2-10.9-1.1v-1c2.9,0,5.7,0,8.6,0s2.2-1,2.4-1,.9,0,1,0c.4.2.4,1.6,2.5,2,3.3.6,4.3-.5,6.5-1ZM118,289v22h25v-10h-14v-12s-11,0-11,0Z"/>
        <path class="st8" d="M305,287c0,.7,0,1.3,0,2h-14c0-.7,0-1.3,0-2,.3,0,.7,0,1,0,4.3,0,9.1.7,13-1,0,.3,0,.7,0,1Z"/>
        <path class="st8" d="M305,293l-1-.5,1-1.5c0,.7,0,1.3,0,2Z"/>
        <path class="st16" d="M106,287c3.6,0,7.5-.5,10.9,1.1.3,4.3,0,8.6.1,12.9h-13c0-3.3,0-6.7,0-10h2c.4-.5-.9-3.1-1-4,.3,0,.7,0,1,0Z"/>
        <path class="st15" d="M105,287c0,.9,1.4,3.5,1,4h-2c0-1.3,0-2.7,0-4h1Z"/>
        <path class="st26" d="M106,286v1c-.3,0-.7,0-1,0-2.4-46.1,1.8-94.2,0-140.6l1-2.4v142Z"/>
        <path class="st16" d="M116,133h2c-.1,2.3-.9,4.5-1,7s0,2.7,0,4l-1,1-10-1v-11c3.1.3,6.8,0,10,0Z"/>
        <path class="st8" d="M144,119c0,.3,0,.7,0,1s0,.7,0,1c0,3,.2,6,0,9s0,.7,0,1c0,.5-.9,1.4-1,2h-13c.4-1-.1-2.3,1.6-2.9h11.4c0-.1,0-8.6,0-8.6,0-.9-11.4-.5-13-.5v-1l1-1c4.3,0,8.8.5,13,0Z"/>
        <path class="st26" d="M130,120v1c-4,0-8,0-12,0-.2,4,.2,8,0,12h-2l1-13h13Z"/>
        <path class="st18" d="M131,119l-1,1h-13c3.8-1.8,9.6-1,14-1Z"/>
        <path class="st1" d="M265,192v12h-109c0-4,0-8,0-12,36.3.4,72.7-.5,109,0Z"/>
        <path class="st12" d="M144,168c0,1.7,0,3.3,0,5s0,4,0,6,0,2,0,3c0,2.3,0,4.7,0,7s0,1.3,0,2c0,1.7,0,3.3,0,5s0,4,0,6c0,4.3,0,8.7,0,13v57c-.2.8.2,2.1,0,3l-12-1c-.5-35.6.4-71.4,0-107l12,1Z"/>
        <path class="st6" d="M156,263h118s0,11,0,11h-116v-9s-2,0-2,0c0-.7,0-1.3,0-2Z"/>
        <path class="st1" d="M260,249v10l-102,1h-2c0-3.7,0-7.3,0-11h104Z"/>
        <path class="st8" d="M275,205c0,5,0,10,0,15h-119c-.6-4.2,0-10.4,0-15h119ZM161,208c-.8,0-1.8-.5-2,.6l-1,8.4,2.4,1c35.5-1.9,73.3,2.3,108.6,0,.7,0,1.4,0,2,0s1.8.3,2-1c-.2-3.2,2.1-6.1,0-9h-112Z"/>
        <path class="st10" d="M158,133v11s11,1,11,1h-18c-2.3-.2-4.5,1.8-7,0,0,4.7,0,9.3,0,14s0,6,0,9l-12-1c.4,35.6-.5,71.4,0,107,0,.3,0,.7,0,1h-1c0-34,0-68,0-102s0-4,0-6l1-22c3.2-.5,8.8,1.2,11-1s.8-7.3,2-11h13Z"/>
        <path class="st13" d="M290,145c2.9,45.6,1.8,96.1,1,142-.7,0-1.3,0-2,0l1-143c0,.3,0,.7,0,1Z"/>
        <path class="st26" d="M275,262c0,4.3,0,8.7,0,13h-119c0-3.3,0-6.7,0-10h2s0,9,0,9h116v-11s-118,0-118,0c0-.3,0-.7,0-1h119Z"/>
        <path class="st26" d="M275,234c0,3.8,0,7.7,0,11.5s-1,3-1,3.5h-1c0-1,.9-2.3,1-3,.4-3.1-.3-6.8,0-10l-118,1c0-.9-.5-2.9.6-3h118.4Z"/>
        <path class="st0" d="M158,179c.2,2-.4,10.6,0,11,1,0,2,0,3,0,4.4.2,7.6-.9,11.5-1,33.3-1,67.8.9,100.5,0h1c0,.5.5.9,1,1,0,.3,0,.7,0,1h-119c0-4.3,0-8.7,0-13h1c.2.4,1,.8,1,1Z"/>
        <path class="st13" d="M132,275c0,3.3,0,6.7,0,10h13c.4,1.3-1,1.9-1,2h-12s0,10.4,0,10.4c.2,1,10.1.6,12,.6,43.8.5,87.6-.4,131.4,0l1.6-5c0,1.7,0,3.3,0,5l13,1c-1.8,1.6-10.1,1.1-13,1-43.1-1.3-87.8-2.4-131-1-.9,0-1.8,1-2,1-4.3.2-8.7-.1-13,0,0-3.5.1-7,0-10.6s-1-2.9-1-3.5c0-2.6,1-7.2,1-11h1Z"/>
        <path class="st11" d="M158,260c33.7,0,68.4-1.1,102,0s10.2,2.4,15,0c0,.7,0,1.3,0,2h-119c0-.7,0-1.3,0-2h2Z"/>
        <path class="st12" d="M151,145c1.2,0,4.6,2.1,7,1l-1,13h-13c0-4.7,0-9.3,0-14,2.5,1.8,4.7-.2,7,0Z"/>
        <path class="st2" d="M273,249h1c0,2.6,1,7.1,1,11-4.8,2.4-10,.2-15,0v-11h13Z"/>
        <path class="st29" d="M280,287h4c.3,0,.7,0,1,0,1.3,0,2.7,0,4,0s1.3,0,2,0c0,.7,0,1.3,0,2,0,2.8.1,5.7,0,8.5l-1,1.5-13-1c0-1.7,0-3.3,0-5s0-4,0-6h3Z"/>
        <path class="st7" d="M275,234h-118.4c-1.1.1-.5,2.1-.6,3-.2,2.6,0,5.4,0,8s0,2,0,3l-1-15,120,1Z"/>
        <path class="st20" d="M144,287c-.5,3.4.3,7.5,0,11-1.9,0-11.9.5-12-.6v-10.4s12,0,12,0Z"/>
        <path class="st26" d="M275,178c0,4,0,8,0,12-.5-.1-1-.5-1-1-.3-3.2.2-6.7,0-10h-116c0-.2-.8-.6-1-1h118Z"/>
        <path class="st5" d="M275,191c0,.7,0,1.3,0,2-3-1.6-6.7-1-10-1-36.3-.5-72.7.4-109,0,0-.3,0-.7,0-1h119Z"/>
        <path class="st19" d="M162,277c-.6,0-6.9.8-5.5-1h118c1.6,1.4-.8.8-1.5,1h-41c-5.3,0-10.7,0-16,0s-5.3,0-8,0c-15.3,0-30.7.2-46,0Z"/>
        <path class="st7" d="M275,220c-.6,1.8-12.2.9-15,1s-3.3,0-5,0-4,0-6,0h-3c-.7,0-1.3,0-2,0-1.7,0-3.3,0-5,0-2.7,0-5.3,0-8,0s-4.7,0-7,0-2.7,0-4,0c-21.3,0-42.7,0-64,0,0-.3,0-.7,0-1h119Z"/>
        <path class="st5" d="M265,204h10c0,.3,0,.7,0,1h-119c0-.3,0-.7,0-1h109Z"/>
        <path class="st9" d="M275,193c0,3.7,0,7.3,0,11h-10v-12c3.3,0,7-.6,10,1Z"/>
        <polygon class="st22" points="275 177 275 178 157 178 156 178 156 177 275 177"/>
        <path class="st7" d="M275,177h-119,119Z"/>
        <polygon class="st23" points="169 145 171 145 276 145 158 145 169 145"/>
        <path class="st2" d="M187,132c1.7,0,3.3,0,5,0s2,0,3,0c4.7,0,9.3,0,14,0s5.3,0,8,0,5.3,0,8,0,2,0,3,0c6.7,0,13.3,0,20,0s6,0,9,0,8,0,12,0,4,0,6,0,1.4-.1,2,0,.9.5,1,1c-.3,0-.7,0-1,0s-.7,0-1,0c-36.8.4-73.7.5-110.5,0s-4.4.6-5.5-1c.3,0,.7,0,1,0,8.6.3,17.4,0,26,0Z"/>
        <path class="st10" d="M276,145h-105l105-1v-11c.3,0,.7,0,1,0-.5,3.3,1.2,9.8-1,12Z"/>
        <path class="st5" d="M260,249h-104c0-.3,0-.7,0-1l104,1Z"/>
        <path class="st23" d="M288,132l1,11-6.6-.9-1.4-9.1c2.4,0,4.8.4,7-1Z"/>
        <path class="st23" d="M220,221h-64c21.3,0,42.7,0,64,0Z"/>
        <path class="st23" d="M208,277h-46c15.3.2,30.7,0,46,0Z"/>
        <path class="st23" d="M273,277c-7.4,2-19.4,1.1-27.5,1s-4.4.6-5.5-1h33Z"/>
        <path class="st23" d="M144,202c3-.6,1.9,1.5,2,3.5s0,4.1,0,6.1,1,4-2,3.5c0-4.3,0-8.7,0-13Z"/>
        <path class="st23" d="M144,263v-18c1.7,5.1,1.7,13,0,18Z"/>
        <path class="st23" d="M232,277c-4.1,1.7-11.7,1.7-16,0,5.3,0,10.7,0,16,0Z"/>
        <path class="st23" d="M144,231v-13c1.7,3,1.7,9.8,0,13Z"/>
        <path class="st23" d="M144,173h2s0,5.4,0,5.4l-2,.6c0-2,0-4,0-6Z"/>
        <path class="st23" d="M144,191h2s0,4.4,0,4.4l-2,.6c0-1.7,0-3.3,0-5Z"/>
        <path class="st23" d="M231,221c-1.3,1.7-5.7,1.7-7,0,2.3,0,4.7,0,7,0Z"/>
        <path class="st23" d="M144,272v-7c2.6,2.1.5,5,0,7Z"/>
        <path class="st23" d="M144,189c0-2.3,0-4.7,0-7,1.7,1.3,1.7,5.7,0,7Z"/>
        <path class="st13" d="M277,287c0-.7-.4-2.1.5-2h2.5s0,2,0,2h-3Z"/>
        <path class="st23" d="M260,221c-.7,1.6-4.3,1.6-5,0,1.7,0,3.3,0,5,0Z"/>
        <path class="st23" d="M244,221c-.7,1.6-4.3,1.6-5,0,1.7,0,3.3,0,5,0Z"/>
        <path class="st23" d="M249,221h-3,3Z"/>
        <path class="st13" d="M285,287c-.3,0-.7,0-1,0l.5-1,.5,1Z"/>
        <path class="st29" d="M292,150c2.6-1.6,10.6,2.7,11,4.7.9,4.4-.3,11.9,0,16.9s1,2.3,1,2.4c.1,2.7,0,5.3,0,8-1.7,1.3-1.7,5.7,0,7,.5,29.6.6,59.7,1,89,0,2.7,0,5.3,0,8-3.9,1.7-8.7,1-13,1v-137Z"/>
        <path class="st3" d="M305,222v-1,1Z"/>
        <path class="st18" d="M194,120h-10c2-1.7,7.8-1.7,10,0Z"/>
        <path class="st18" d="M177,120h-8c1.6-1.7,6.5-1.7,8,0Z"/>
        <path class="st18" d="M232,120h-7c1.3-1.7,5.7-1.7,7,0Z"/>
        <path class="st18" d="M249,120h-5c.7-1.6,4.3-1.6,5,0Z"/>
        <path class="st18" d="M261,120h-4c.4-1.6,3.7-1.5,4,0Z"/>
        <path class="st18" d="M203,120h-3c.1-1.5,2.9-1.5,3,0Z"/>
        <path class="st18" d="M220,120h-3c.1-1.5,2.9-1.5,3,0Z"/>
        <path class="st29" d="M144,121h132s0,9,0,9h-132c.2-3,0-6,0-9Z"/>
        <path class="st16" d="M276,130h1c0,.6,0,1.3,0,2-.6-.1-1.3,0-2,0-.9-1.6-5-1.6-6,0-4,0-8,0-12,0-1.9-1.7-7.1-1.7-9,0-6.7,0-13.3,0-20,0-.1-1.5-2.9-1.5-3,0-2.7,0-5.3,0-8,0-1.5-1.7-6.4-1.7-8,0-4.7,0-9.3,0-14,0-.1-1.5-2.9-1.5-3,0-1.7,0-3.3,0-5,0-1-1.7-3.8-1-5.5-1-6.5,0-14.3-.8-20.5,1-.3,0-.7,0-1,0-.7,0-1.3,0-2,0-3.5-.2-8.7-1.9-13-1h-1c0-.3,0-.7,0-1h132Z"/>
        <path class="st22" d="M304,145v29c0-.1-1-1.1-1-2.4-.3-5,.9-12.4,0-16.9s-8.4-6.3-11-4.7v-5h12Z"/>
        <path class="st22" d="M304,189c-1.7-1.3-1.7-5.7,0-7,0,2.3,0,4.7,0,7Z"/>
        <path class="st16" d="M292,145v142c-.3,0-.7,0-1,0,.8-45.9,1.9-96.4-1-142h2Z"/>
        <path class="st29" d="M146,299c-.6,3,1.5,1.9,3.5,2,42.4,1.4,85.1-1.1,127.5,0v11c-1.2.8-2.6.9-4,1,.6-3-1.5-1.9-3.5-2-36.6-1.2-75.4-.5-112.1,0-1.7,0-4.4-.6-5.5,1-.3,0-.7,0-1,0v-1.9c0,0-6-1.1-6-1.1-.2-2.1-2-5.9-1-9,.2,0,1.1-1,2-1Z"/>
        <path class="st22" d="M277,300v1c-42.4-1.1-85.1,1.4-127.5,0-1.9,0-4,1-3.5-2,43.2-1.4,87.9-.3,131,1Z"/>
        <path class="st26" d="M151,312c.3,0,.7,0,1,0,39.5.6,81.5,3.4,121,1,1.4,0,2.8-.2,4-1l-.9,1.5-131.1.5-1,10-1-11c.3,0,.7,0,1,0,1.2,0,4.3-1,7-1Z"/>
        <path class="st17" d="M116,145l1,140c-.2,0-1.1,1-2.4,1-2.9,0-5.7,0-8.6,0v-142l10,1Z"/>
        <path class="st20" d="M130,144c1.8,7.2,1,15.5,1,23s0,4,0,6c-3-.6-1.9,1.5-2,3.5-1.2,36.4.9,73.1,0,109.5-.6,0-1.4-.1-2,0l-7-1v-141c3.3-.2,6.7,0,10,0Z"/>
        <polygon class="st6" points="118 289 129 289 129 301 143 301 143 311 118 311 118 289"/>
        <path class="st15" d="M120,144v141s7,1,7,1c-2.3.5-3.2,1.6-6.5,1s-2.1-1.8-2.5-2v-141c.6,0,1.3,0,2,0Z"/>
        <path class="st22" d="M131,173c0,34,0,68,0,102s-1,8.4-1,11h-1c.9-36.4-1.2-73.1,0-109.5,0-1.9-1-4,2-3.5Z"/>
        <path class="st26" d="M118,285c-.1,0-.7,0-1,0l-1-140,1-1c.3,0,.7,0,1,0v141Z"/>
        <path class="st22" d="M145,309l5.9,1.1v1.9c-2.7,0-5.7,1-6.9,1,.1-1.2,1.1-2.9,1-4Z"/>
        <path class="st6" d="M130,121c1.7,0,13-.4,13,.5v8.5s-11.4.1-11.4.1c-1.7.6-1.2,1.9-1.6,2.9-1.3,3.3-1.2,5.4-1,9-3.7-.7-9.9,2-12-2,.1-2.5.9-4.7,1-7,.2-4-.2-8,0-12,4,0,8,0,12,0Z"/>
        <path class="st14" d="M131,133v11h-1c-3.3,0-6.7-.2-10,0s-1.4,0-2,0-.7,0-1,0c0-1.3,0-2.7,0-4,2.1,4,8.3,1.3,12,2-.2-3.6-.3-5.7,1-9h1Z"/>
        <path class="st15" d="M143,133c-.3,2.9.2,6.1,0,9h-12v-9h12Z"/>
        <path class="st20" d="M145,133c-1.2,3.7-.4,9.4-2,11h-12v-2h12c.2-2.9-.3-6.1,0-9s1-1.5,1-2h1c-.1.6.2,1.5,0,2Z"/>
        <path class="st9" d="M260,259v1c-33.6-1.1-68.3,0-102,0l102-1Z"/>
        <path class="st6" d="M161,208h112c2.1,2.9-.2,5.8,0,9l-2,1c-.6,0-1.3,0-2,0l-111-1,1-8.4c.2-1.2,1.3-.6,2-.6Z"/>
        <path class="st18" d="M273,208h-112,112Z"/>
        <path class="st3" d="M269,218c-35.2,2.4-73-1.8-108.6,0l-2.4-1,111,1Z"/>
        <path class="st3" d="M273,217c-.2,1.3-1.1.9-2,1l2-1Z"/>
        <path class="st7" d="M160,132c1,1.7,3.8,1,5.5,1,36.8.5,73.8.4,110.5,0v11s-105,1-105,1h-2l-11-1v-11s0-1,0-1c.7,0,1.3,0,2,0Z"/>
        <path class="st9" d="M143,144c-2.2,2.2-7.8.5-11,1l-1,22c0-7.5.8-15.8-1-23h13Z"/>
        <path class="st15" d="M158,132v1h-13c.2-.5-.1-1.4,0-2,4.3-.9,9.5.8,13,1Z"/>
        <path class="st17" d="M156,237l118-1c-.3,3.2.4,6.9,0,10h-53c-3.9-1.7-11.3-1.7-15,0-1.7,0-3.3,0-5,0h-40c-1.8,0-3.4,0-5-1,0-2.6-.2-5.4,0-8Z"/>
        <path class="st0" d="M161,246c13.2.5,26.7,0,40,0s3.3,0,5,0c5,0,10,0,15,0h53c0,.7-1.1,2-1,3h-13l-104-1c0-1,0-2,0-3,1.6,1.1,3.2.9,5,1Z"/>
        <path class="st17" d="M158,179h116c.2,3.3-.3,6.8,0,10h-1c-1-1.7-3.8-1-5.5-1-33.8-.4-69.4-1.1-103.1,0-1.9,0-4-1-3.5,2-1,0-2,0-3,0-.4-.4.2-9,0-11Z"/>
        <path class="st3" d="M273,189c-32.8.9-67.2-1.1-100.5,0s-7.1,1.2-11.5,1c-.6-3,1.5-1.9,3.5-2,33.6-1.1,69.3-.4,103.1,0s4.4-.6,5.5,1Z"/>
        <path class="st15" d="M187,132c-8.6,0-17.4.3-26,0,6.2-1.8,14-1.1,20.5-1s4.4-.6,5.5,1Z"/>
        <path class="st15" d="M257,132c-3,0-6,0-9,0,1.9-1.7,7.1-1.7,9,0Z"/>
        <path class="st15" d="M217,132c-2.7,0-5.3,0-8,0,1.6-1.7,6.5-1.7,8,0Z"/>
        <path class="st15" d="M275,132c-2,0-4,0-6,0,1-1.6,5.1-1.6,6,0Z"/>
        <path class="st15" d="M228,132c-1,0-2,0-3,0,.1-1.5,2.9-1.5,3,0Z"/>
        <path class="st15" d="M195,132c-1,0-2,0-3,0,.1-1.5,2.9-1.5,3,0Z"/>
        <path class="st15" d="M152,312c1-1.7,3.8-1,5.5-1,36.7-.5,75.5-1.2,112.1,0,1.9,0,4-1,3.5,2-39.5,2.4-81.5-.4-121-1Z"/>
        <path class="st18" d="M273,246h-49,49Z"/>
        <path class="st18" d="M201,246c-13.3,0-26.8.5-40,0h40Z"/>
        <path class="st18" d="M221,246c-5,0-10,0-15,0,3.7-1.7,11.1-1.7,15,0Z"/>
      </g>
    </g>
    <g>
      <path class="st4" d="M346,92c0,.7,0,1.3,0,2,0,4,0,8,0,12,1.2,1.2,10.4-1,12-1s1.2,1,2.4,1c4.5,0,9.1-.1,13.6,0l-.4,13.1-1.2.8c-4.8.3-9.6,0-14.4.1.1-1.1.1-2.5,1.5-2.7l13.6.7v-11h-15l1,10c-2.8.4-7-1.9-6,3-2.3,0-4.7,0-7,0v12s-1,1-1,1h-12l-1-1-.4-11.1c-1.1-1.7-9-.9-11.6-.9s-1.3,0-2,0c-4,0-8-.1-12,0v-13c4.5-.3,9.1-1,14-1s2.5,1.1,4.5,1.1c2.8,0,5.6-1.5,8.5-1.1,0-4,0-8,0-12s0-1.3,0-2h13Z"/>
      <path class="st21" d="M333,92c0-1.9-.5-11.9.6-12h12.4c0,4,0,8,0,12h-13Z"/>
      <polygon class="st21" points="345 133 346 144 334.1 144.9 333 133 345 133"/>
      <path class="st21" d="M353,120c-1-4.9,3.2-2.6,6-3l-1-10h15v11s-13.5-.7-13.5-.7c-1.3.2-1.3,1.6-1.5,2.7-1.7,0-3.3,0-5,0Z"/>
    </g>
    <g>
      <path class="st3" d="M68,41c.9,3.9-5.2,1.2-6,2,.4,2.9-.6,6.6,0,9.3s1.9,1.4,2,1.7c-.3,0-.7,0-1,0-.7,0-1.3,0-2,0v6.4s2,.6,2,.6c0,1.6.6,4.5-.9,5.6l-10.1.4h-1c-1.8,3.3-1,8.9-1,13h-1l-.5-1-.5,1c-3,0-6,0-9,0s-.7,0-1,0v-12s-11,1-11,1c0,3.7,0,7.3,0,11v308l1-6.4c5.3-2.3,5.3,2.2,5.1,6.4l4.9,1c.2-3.6-.3-7.4,0-11s1-.8,1-1c3.3,1.7,7.4.9,11,1s.7,0,1,0v13l1.4,1h9.6s1,11,1,11c.8,3.5,7.9,1.2,11,1s1.3,0,2,0v-6.4s-2-.6-2-.6v-6h1l1-51h10l1,77h1c.3,0,.7,0,1,0,.5,1.4,1.9.9,3,1v2c-1.1-.2-3.1.3-4,0s-.1-1.6-2.5-2-19.8-1.7-20.5-1v12c-.5,0-1.7,1.4-2,1v-13s-13,0-13,0c0-3.2.1-6.4,0-9.6s1-4-2-3.5c.2,0,3.4-1.1,3-2h-11s0-11,0-11c-.7,0-1.3,0-2,0-4.3-.2-8.7.2-13,0V67c4.2.3,8.9-.5,13,0s1.7,1.4,2,1v-12s10-1,10-1v-1c0-2-.1-4,0-6l3-2.5-1-2c2.5,0,5-1.1,7-1.5s3.5-.9,4-1c1.6-.2,3.4.1,5,0Z"/>
      <path class="st14" d="M89,427l1,1h284c3.5,1.8,9.3,1.5,13,0,0,.1,2.1,1.6.5,2-100.5-1.2-201.1,1.6-301.5,0v-2h1.8c-1.4-2.1,0-3.3.2-4,1.4.5.7,2.4,1,3Z"/>
      <path class="st18" d="M88,420c-.1,1.3.2,2.7,0,4s-1.5,1.9-.2,3.9h-1.8c0,.1-4,.1-4,.1v2c-5.3-.1-12.3-1.6-17-1v-12c.7-.7,18,.6,20.5,1s2.4,1.9,2.5,2Z"/>
      <path class="st18" d="M376,417c.1,0,1.2.9,2.4,1,4.3.6,6.5-1.8,8.6,4-.2,1.5-.2,4.5,0,6-3.7,1.5-9.5,1.8-13,0v-11c.7,0,1.3,0,2,0Z"/>
      <path class="st8" d="M38,391c.7,0,1.3,0,2,0v11s11,0,11,0c.4.9-2.8,2-3,2-.9.1-2,0-3,0-1.4-1.9-4.8-.8-7-1v-12Z"/>
      <path class="st6" d="M86,428v2c-1.3,0-2.7,0-4,0v-2s4,0,4,0Z"/>
      <path class="st14" d="M376,404v13c-.7,0-1.3,0-2,0,0-4.3,0-8.7,0-13h2Z"/>
      <path class="st6" d="M336,340h10s1,77,1,77c.7,0,1.3,0,2,0l-1.5,2c8.8.7,18.5-1.9,26.5,2v7H90c-.2-.4-.9-.7-1-1-.3-.6.4-2.5-1-3,.2-1.3-.1-2.7,0-4,.9.3,2.9-.2,4,0v-2c.6,0,1.3,0,2,0s.7,0,1,0c78.5.5,157-.4,235.6,0l2.4-1c.3,0,.7,0,1,0s.8,0,1,0,.8.2,1-.5l-1-.5c0-.6-.1-1.4,0-2,.2-.9,1-1.4,1.1-3.4,1.3-23-1.2-47.5,0-70.6Z"/>
      <path class="st26" d="M88,339c0,.3,0,.7,0,1l-1,77-1-77h-10l-1,51c0-4,0-8,0-12,.2-13.3-.1-26.7,0-40,4.3,0,8.7,0,13,0Z"/>
      <path class="st22" d="M74,391v2l-1.5,10-7.5-1-1-10v-1c3.3,0,6.7,0,10,0Z"/>
      <path class="st20" d="M64,392l1,10,7.5,1,1.5-10v11c-3.1.2-10.2,2.5-11-1s-.4-9.2,1-11Z"/>
      <path class="st14" d="M64,391v1c-1.4,1.8-1.5,8.8-1,11l-1-11h-9.6s-1.4-1-1.4-1c4.3,0,8.7,0,13,0Z"/>
      <path class="st26" d="M74,397l2,.6v6.4c-.7,0-1.4,0-2,0v-7Z"/>
      <path class="st3" d="M90,428l-1-1c.1.3.8.6,1,1Z"/>
      <path class="st8" d="M374,417v4c-8-3.9-17.7-1.3-26.5-2l1.5-2c8.1.6,16.9-.5,25,0Z"/>
      <path class="st29" d="M374,417c-8.1-.5-16.9.6-25,0s-1.3,0-2,0v-1h26s0-12,0-12h1c0,4.3,0,8.7,0,13Z"/>
      <path class="st26" d="M347,339c.1,21.6-.2,43.4,0,65,0,4,0,8,0,12v1l-1-77h-10s-1,74-1,74c-.1.6,0,1.4,0,2v1c-.2,0-.6,0-1,0v-78s13,0,13,0Z"/>
      <path class="st3" d="M335,414l1-74c-1.1,23.2,1.4,47.6,0,70.6s-.9,2.5-1.1,3.4Z"/>
      <path class="st3" d="M335,417v-1l1,.5c-.2.7-.7.4-1,.5Z"/>
      <path class="st3" d="M94,418h1c-.3,0-.6,0-1,0Z"/>
      <path class="st7" d="M74,379c-.4-.2-.8-1-1-1,.2-10.3-.2-20.7,0-31s0-3.3,0-5v-1c.2-.7-.2-1.5,1-2v40Z"/>
      <path class="st3" d="M75,379h-1v-40h1c-.1,13.3.2,26.7,0,40Z"/>
      <path class="st0" d="M97,325c3.7,0,7.3,0,11,0s.7,0,1,0c2,0,4,0,6,0s.7,0,1,0,.7,0,1,0c7.4,0,18.2,1,25,0s.7,0,1,0l-54,1v11h243v-11s-40-1-40-1h13c8.3,0,16.7.3,25,0s1.4,0,2,0c2.2,3.4.5,8.9,1,13-81.6-.2-163.4.2-245,0,0-4.3,0-8.7,0-13,3,0,6,0,9,0Z"/>
      <path class="st16" d="M349,404h24v12s-26,0-26,0c0-4,0-8,0-12h2Z"/>
      <path class="st17" d="M305,289c0,.7,0,1.3,0,2l-1,1.5,1,.5c0,3.1,1,7.3,1,9,0,2.4-1,5.7-1,9-4.1.5-9.6-1.2-13,1,0,1.7,0,3.3,0,5l-2-4.5c0,2.7-.1,5.4,0,8s-1,4,2,3.5c0,.3,0,.7,0,1l40,1v11H89v-11s54-1,54-1l1-1,1-10,131.1-.5.9-1.5v-12c2.9,0,11.2.6,13-1l1-1.5c.1-2.9,0-5.7,0-8.5h14ZM287,313c-3.6.5-5,2.6-9,1l-1,11h10s0-12,0-12Z"/>
      <path class="st18" d="M287,313v12s-10,0-10,0l1-11c4,1.6,5.3-.5,9-1Z"/>
      <path class="st22" d="M143,325l1-1-1,1Z"/>
      <g>
        <path class="st9" d="M333,414c0,1,0,2,0,3-80.7-2.5-163.5,3.4-244,0-.3,0-.7,0-1,0v-1l1-1c78.7-2.2,159,3,237.5,0,2.2,0,4.4-.3,6.5-1Z"/>
        <path class="st26" d="M333,417l-2.4,1c-78.5-.5-157.1.5-235.6,0h-1c-.7,0-1.3,0-2,0-1.1-.1-2.5.4-3-1,80.5,3.4,163.3-2.5,244,0Z"/>
        <polygon class="st15" points="88 416 88 417 87 417 88 340 88 416"/>
        <path class="st18" d="M333,338c.7,0,1.3,0,2,0,3.8,0,9-.8,12,1h-13s0,78,0,78c-.3,0-.7,0-1,0,0-1,0-2,0-3,.2-3.3,0-6.7,0-10,.2-21-.1-42,0-63v-1c-1-1.7-3.8-1-5.5-1-79.7-.8-159.8-1-239.5,0,0-.3,0-.7,0-1,81.6.2,163.4-.2,245,0Z"/>
        <path class="st2" d="M103,403c2.2,0,11.4-.2,12,0s2.8,3.6,6,2v-2c.7,0,1.3,0,2,0,.1,1.5,2.9,1.5,3,0,.7,0,1.3,0,2,0h16v1c-.2-.2-1,.2-1,.5,0,1.1,1.5,0,1-.5,3.8.3,7.2-1,11-1,0,1,1.2,1.2,2,1s.8-1,1-1c4.3-.4,8.7.8,13,1,6.3.3,8.6.6,14-1s6.8,1,8.5,1h23l7.5-1c4.3,0,8.7,0,13,0s.7,0,1,0,.7,0,1,0c3.1.1,6.5-.4,9.5,0s7.8,4.9,7.5,0c2.3.1,4.7,0,7,0,4.3,0,9.8-.7,14,0s2.4,1.6,4,2c9.9,2.7,38.7,1.4,49-1s.5-.8,1-1,.7,0,1,0,.6.8,1,1c0,3.3.2,6.7,0,10-2.1.8-4.2,1-6.5,1-78.5,2.9-158.9-2.3-237.5,0v-12h1c4.3,0,8.7-.1,13,0Z"/>
        <path class="st5" d="M333,340c-3,0-6,0-9,0-75.6-1.7-151.4,1.3-227,0h-8c0,21,0,42,0,63v12l-1,1v-76c0-.3,0-.7,0-1,79.7-1,159.8-.9,239.5,0,1.7,0,4.4-.6,5.5,1Z"/>
        <path class="st9" d="M333,340v1l-1,62c-.3,0-.8,0-1,0v-14c0-16,0-32,0-48l-7-1c3,0,6,0,9,0Z"/>
        <path class="st5" d="M333,404c-.4-.2-.8-1-1-1l1-62c-.1,21,.2,42,0,63Z"/>
        <path class="st27" d="M324,340l7,1c0,16,0,32,0,48-5.5-2.1-7.6,7.9-11,2,0-1,0-2,0-3,1.6-.7,1.6-4.3,0-5,0-10.5,0-21,0-31.6l-1-1.4c-4.3,0-8.7,0-13,0s-.7,0-1,0-.3-.8-.6-.8l-.4.8c-1.6,2.1-1.7,9.5,0,12,0,1,0,2,0,3s0,2.9,0,4,0,2.7,0,4c-2.6,4.1.6,10.5-2,15-1.3,0-3.3.9-5,1v-2s-4,0-4,0c0-1.6,0-3.3,0-5s0-2.1,0-3,0-2,0-3c1.6-.9,1.6-5,0-6,0-3,0-6,0-9,1.7-2.4,1.6-8.9,0-11l-.4-.8c-.2,0-.4.8-.6.8-.3,0-.7,0-1,0-3.8,0-8.8-.8-12,1l-1-2-1,1v53c-4.2-.7-9.7,0-14,0l1-53h-13c-.8,2.1,1.8,2.5,2,3,.8,2.2-.9,9.1-3,10.4s-11.4,1-13-.4v-13s-13,0-13,0v53s-7.5,1-7.5,1h-23c-1.7,0-5.4-1.9-8.5-1,.2-4-.8-8.3,1-12,3.1.5,7.6,0,11,0s2.9,1.7,4-.7l-.5-14.4-14.6-.9v-9c.8-.8,19,.6,22.5,0s1.9-.4,2.5-1.6c.2-.7-1-1.3-1-1.4,0-4.3,0-8.7,0-13h-39v54c-4.3-.2-8.7-1.4-13-1l-1-53c-4.2-.3-8.9.5-13,0s-1.7-1.4-2-1l-.4,12.1-10.6.9-1.1-13.9c-.6-.4-13-.5-14.2-.2s-.6,2-.7,2c-.5.3-9.9,0-12,0l-1,52h-12s0-61,0-61l7-1c75.6,1.3,151.4-1.7,227,0ZM210,347h-38v1h38v-1ZM265.5,350v1c.6-.3.6-.7,0-1ZM266,402v-49h-1v49h1Z"/>
        <path class="st9" d="M115,350v53c-.6-.2-9.8,0-12,0v-53c2.1,0,11.5.3,12,0Z"/>
        <path class="st8" d="M171,350h39c0,4.3,0,8.7,0,13-3.2,2.5-24,0-25,1v12s0,1,0,1c-6.3-2.4-1.2-3.8-.9-5.4.4-2.6,0-6.1-1.1-8.6,2-.3,4-.6,6-1l18-1c0-.3,0-.7,0-1l1-9c-1.3,0-2.7,0-4,0-7.6-.5-20.3-.8-27.6,0s-1.4,0-2.4,1.1c-2.7,2.7,0,43.2-1,50,1.7,0,3.3,0,5,0s2.7,0,4,0c.6-3.6,0-10,3-12,.8-.3.9,1,1,1-1.8,3.7-.8,8-1,12-5.4,1.6-7.7,1.3-14,1v-54Z"/>
        <path class="st27" d="M251,403c1.7,0,3.3,0,5,0,.2,4.9-6.1.3-7.5,0-3-.4-6.4,0-9.5,0v-25l10.6.9.4,22.6,1,1.4Z"/>
        <path class="st27" d="M131,403v-24s10.4,0,10.4,0l.6,24h-11Z"/>
        <path class="st8" d="M253,353c-.2-.5-2.8-1-2-3h13s-1,53-1,53c-2.3,0-4.7.1-7,0s-3.3,0-5,0v-7s2,0,2,0c.2,1.6,1,3.3,1.1,4.9h6.9c0,.1,0-49.9,0-49.9-2.8.2-6.8-1.1-8,2Z"/>
        <path class="st1" d="M331,389v14c-.5.2-.8,1-1,1-3.4.9-7.3-.8-10-1v-12c3.4,5.9,5.5-4.1,11-2Z"/>
        <path class="st0" d="M157,350v53c-.7,0-1.3,0-2,0-3.8,0-7.2,1.3-11,1v-1c0-.3,0-.7,0-1-.3-6.6,1.1-17.3,0-23s-.8-1.3-1-2c2.3.7,2,2.6,2.1,4.4.4,6.8-.4,13.8,0,20.6,2.3-.2,4.7.2,7,0s1.7.2,2.4,0l.6-.9c0-.7,0-1.3,0-2,1.2-15-.9-31.4,0-46.6l-1-1.4h-9c.4,4.5,0,7.8-1,12v-13c4.1.5,8.8-.3,13,0Z"/>
        <path class="st0" d="M224,403v-53s13,0,13,0v13s-1-12-1-12h-11v51c2.9-.7,5.9.2,9,0s1.3,0,2,0v-24c.3-.9.8-2.8,1.7-3l15.2,1.1c.3,2.6,0,5.3.1,7.9l-2,1c0-2.7,0-5.3,0-8h-12s-1,0-1,0c-2.3,8.1-.4,17.6-1,26-4.3,0-8.7,0-13,0Z"/>
        <path class="st11" d="M279,351v52l40,1-38,1c-1.6-.4-3.5-1.9-4-2v-53l1-1,1,2Z"/>
        <path class="st11" d="M115,350c0,0-.4-1.7.7-2s13.6-.2,14.2.2l1.1,13.9,10.6-.9.4-12.1c.3-.4,1.5.9,2,1v1c-1.7,2.5-1.7,8.7,0,11v1c0,.3.1.7,0,1h-14s-1-14-1-14l-13,1v51l.6.9c1.5.3,3,0,4.4,0v2c-3.2,1.6-5.7-1.9-6-2v-53Z"/>
        <path class="st26" d="M129,350c-.3.3-.7,1-1,1-3.2.4-6.8-.3-10,0v51h10c0-1.7,0-3.3,0-5h2c0,2,0,4,0,6h-2c-.7,0-1.3,0-2,0-1,0-2,0-3,0s-1.3,0-2,0c-1.5-.1-3,.2-4.4,0l-.6-.9v-51l13-1Z"/>
        <path class="st11" d="M143,377c.2.7.9,1.4,1,2-1.7,6.8-1.7,16.2,0,23,0,.3,0,.7,0,1h-2l-.6-24h-10.4s0,24,0,24h-3,2c0-2,0-4,0-6,.2-6.3-.1-12.7,0-19,3.5-2.2,8.9-.5,13-1Z"/>
        <path class="st1" d="M97,340l-7,1v61s0,1,0,1h-1c0-21,0-42,0-63h8Z"/>
        <path class="st11" d="M103,350v53c-4.3-.1-8.7,0-13,0v-1h12s1-52,1-52Z"/>
        <path class="st5" d="M158,403c-.2,0-.7.9-1,1v-54l1,53Z"/>
        <path class="st10" d="M330,404c-10.3,2.4-39.1,3.7-49,1l38-1v-1c.3,0,.7,0,1,0,2.7.2,6.6,1.9,10,1Z"/>
        <path class="st20" d="M238,403c-.3,0-.7,0-1,0,.6-8.4-1.3-17.9,1-26v26Z"/>
        <path class="st5" d="M239,378v25c-.3,0-.7,0-1,0v-26h1v1Z"/>
        <path class="st11" d="M126,403c-.1,1.5-2.9,1.5-3,0,1,0,2,0,3,0Z"/>
        <path class="st18" d="M157,403v1c-.8.2-2.1,0-2-1,.7,0,1.3,0,2,0Z"/>
        <path class="st11" d="M144,404c.5.5-.9,1.6-1,.5s.8-.7,1-.5Z"/>
        <path class="st17" d="M234,402c-3.1.2-6.1-.7-9,0v-51h11s1,12,1,12c1.6,1.5,12.1,1.1,13,.4,2-1.3,3.8-8.2,3-10.4,1.2-3.1,5.2-1.8,8-2v50h-6.9c-.1-1.7-.9-3.4-1.1-5s0-2.7,0-4c-.1-2.7,0-5.3,0-8s.2-5.3-.1-7.9l-15.2-1.1c-.9.2-1.4,2.2-1.7,3-2.7,7.5.7,16.3-2,24Z"/>
        <path class="st3" d="M292,350v40s12.4,0,12.4,0l.6-40c.3,0,.7,0,1,0l1,40c1.7-.4.9-3.1,1-4.5.5-11.5-.3-23,0-34.5h8l1,48c0,1,0,2,0,3h-36s0-51,0-51h8s1,39,1,39h1c-.2.2.2,1,.5,1,1.1,0,0-1.5-.5-1v-40c.3,0,.7,0,1,0ZM304.5,391v1c.6-.3.6-.7,0-1Z"/>
        <path class="st0" d="M291,350v40h-1l-1-39h-8s0,51,0,51h36c0-1,0-2,0-3,.4-15.5-.4-31.1,0-46.6l-1-1.4h-8l-1,1.4v37.6s-1-40-1-40c4.3,0,8.7,0,13,0v53c-13.2-.7-26.8.5-40,0v-52c3.2-1.8,8.2-1,12-1Z"/>
        <path class="st0" d="M291,390c.5-.5,1.6.9.5,1s-.7-.8-.5-1Z"/>
        <path class="st11" d="M210,363c0,.1,1.1.7,1,1.4-.5,1.2-1.3,1.4-2.5,1.6-3.5.6-21.7-.8-22.5,0v9s14.6.9,14.6.9l.5,14.4c-1.2,2.3-3.6.7-4,.7,3,.6,1.9-1.5,2-3.5.1-3.8,0-7.7,0-11.6h-14s0-12,0-12c1-1,21.8,1.5,25-1Z"/>
        <path class="st5" d="M293,350v11c0,3,0,6,0,9s0,4,0,6,0,2,0,3v3c0,1.7,0,3.4,0,5s0,1.3,0,2c1.3,0,2.7,0,4,0s3.7-1,5-1,1,1.4,2,1c0-5.3,0-10.7,0-16s0-2.7,0-4v-4c0-1,0-2,0-3,0-4,0-8,0-12l.4-.8c.2,0,.4.8.6.8l-.6,40h-12.4s0-40,0-40c.1,0,.3-.8.6-.8l.4.8Z"/>
        <path class="st14" d="M185,376h14c0,3.8.1,7.7,0,11.5s1,4-2,3.5c-3.4,0-7.9.5-11,0s-.2-1.3-1-1c3.3-2.1,8.1-.5,12-1l1-11c-4.7-.1-8.5.7-13-1v-1Z"/>
        <path class="st5" d="M171,403v-53,53Z"/>
        <path class="st5" d="M320,383v5c0,1,0,2,0,3v12c-.3,0-.7,0-1,0v-53l1,1.4c0,10.5,0,21,0,31.6Z"/>
        <path class="st1" d="M277,402v-52,52Z"/>
        <rect class="st9" x="265" y="353" width="1" height="49"/>
        <rect class="st1" x="172" y="347" width="38" height="1"/>
        <path class="st1" d="M304,373c0,5.3,0,10.7,0,16-1,.4-1.9-1-2-1,2.6-4.5-.6-10.9,2-15Z"/>
        <path class="st1" d="M304,362c-1.7-2.5-1.6-9.9,0-12,0,4,0,8,0,12Z"/>
        <path class="st1" d="M293,361v-11c1.6,2.1,1.7,8.6,0,11Z"/>
        <path class="st1" d="M293,387h4s0,2,0,2c-1.3,0-2.7,0-4,0,0-.7,0-1.3,0-2Z"/>
        <path class="st1" d="M293,376c0-2,0-4,0-6,1.6,1,1.6,5.1,0,6Z"/>
        <path class="st1" d="M320,388v-5c1.6.7,1.6,4.3,0,5Z"/>
        <path class="st1" d="M304,369c0-1.1,0-2.9,0-4v4Z"/>
        <path class="st1" d="M293,382v-3c0,.9,0,2.1,0,3Z"/>
        <path class="st9" d="M265.5,350c.6.3.6.7,0,1v-1Z"/>
        <path class="st17" d="M204,351v1.9c.1,0,3.1.7,3.1.7-.3,2.1.2,4.5,0,6.4s0,.7,0,1c-6.2-.3-12.1-.1-18,1s-4,.7-6,1c1.1,2.5,1.5,5.9,1.1,8.6s-5.4,3.1.9,5.4,8.3.9,13,1l-1,11c-3.9.4-8.7-1.1-12,1s-2.4,8.4-3,12c-1.3,0-2.7,0-4,0l-4.1-1.6v-48.4c1-1,1.1-.9,2.5-1.1,7.3-.7,20-.4,27.6,0Z"/>
        <path class="st18" d="M174,352v48.4c0,0,4,1.6,4,1.6-1.7,0-3.3,0-5,0,1-6.8-1.7-47.3,1-50Z"/>
        <path class="st18" d="M207,361l-18,1c5.9-1.1,11.8-1.3,18-1Z"/>
        <path class="st18" d="M204,351c1.3,0,2.7,0,4,0l-1,9c.3-2-.2-4.4,0-6.4l-2.9-.7v-1.9Z"/>
        <path class="st11" d="M239,377h12c0,2.7,0,5.3,0,8s0,4.7,0,7h2c0,1.3-.1,2.7,0,4h-2s0,7,0,7l-1-1.4-.4-22.6-10.6-.9v-1Z"/>
        <path class="st18" d="M261,351v50-50Z"/>
        <path class="st17" d="M128,351v13.9c.1,0,16,1.1,16,1.1.1-.6-.2-1.5,0-2s0-.7,0-1c1-4.2,1.4-7.5,1-12h9s1,48,1,48c0,.7,0,1.3,0,2l-3,1c-2.3.2-4.7-.2-7,0-.3-6.8.5-13.8,0-20.6s.2-3.7-2.1-4.4c-4.1.5-9.5-1.2-13,1s-1.8,14.6-2,19,0,3.3,0,5h-10v-51c3.2-.3,6.8.4,10,0Z"/>
        <path class="st18" d="M157,402v-51,51Z"/>
        <path class="st18" d="M155,399l-1-48,1,1.4c-.9,15.2,1.2,31.6,0,46.6Z"/>
        <path class="st9" d="M144,402c-1.7-6.8-1.7-16.2,0-23,1.1,5.7-.3,16.4,0,23Z"/>
        <path class="st27" d="M144,362c-1.7-2.3-1.7-8.5,0-11v11Z"/>
        <path class="st18" d="M155,401l-.6.9c-.7.3-1.7,0-2.4,0l3-1Z"/>
        <path class="st18" d="M236,378v24c-.7,0-1.3,0-2,0,2.7-7.7-.7-16.5,2-24Z"/>
        <path class="st28" d="M319,403v1l-40-1c13.2.5,26.8-.7,40,0Z"/>
        <path class="st0" d="M129,350l1,14h14c-.2.5.2,1.4,0,2l-15.9-1.1v-13.9c.1,0,.5-.7.9-1Z"/>
        <path class="st18" d="M116,402v-51,51Z"/>
        <path class="st14" d="M130,397h-2c.2-4.4-1.6-16.7,2-19-.1,6.3.2,12.7,0,19Z"/>
        <path class="st8" d="M253,392h-2c0-2.3,0-4.7,0-7l2-1c0,2.7-.1,5.3,0,8Z"/>
        <path class="st18" d="M317,399l-1-48,1,1.4c-.4,15.5.4,31.1,0,46.6Z"/>
        <path class="st18" d="M307,390v-37.6s1-1.4,1-1.4c-.3,11.5.5,23,0,34.5,0,1.4.7,4.1-1,4.5Z"/>
        <path class="st18" d="M290,390l-1-39,1,39Z"/>
        <path class="st0" d="M304.5,391c.6.3.6.7,0,1v-1Z"/>
      </g>
    </g>
  </g>
</svg>