<?xml version="1.0" encoding="UTF-8"?>
<svg id="Layer_1" xmlns="http://www.w3.org/2000/svg" version="1.1" viewBox="0 0 758 758">
  <!-- Generator: Adobe Illustrator 29.7.1, SVG Export Plug-In . SVG Version: 2.1.1 Build 8)  -->
  <defs>
    <style>
      .st0 {
        fill: #b57e49;
      }

      .st1 {
        fill: #e9e9ea;
      }

      .st2 {
        fill: #060617;
      }

      .st3 {
        fill: #595461;
      }

      .st4 {
        fill: #e9d4b0;
      }

      .st5 {
        fill: #2c2939;
      }

      .st6 {
        fill: #202747;
      }

      .st7 {
        fill: #212747;
      }

      .st8 {
        fill: #507cd1;
      }

      .st9 {
        fill: #cba872;
      }

      .st10 {
        fill: #01010c;
      }

      .st11 {
        fill: #99776a;
      }

      .st12 {
        fill: #395fab;
      }

      .st13 {
        fill: #eeb947;
      }

      .st14 {
        fill: #3e3b4e;
      }

      .st15 {
        fill: #f8ecd0;
      }

      .st16 {
        fill: #d3b48a;
      }

      .st17 {
        fill: #fcfbed;
      }

      .st18 {
        fill: #253d74;
      }

      .st19 {
        fill: #0a0d28;
      }

      .st20 {
        fill: #0d1438;
      }

      .st21 {
        fill: #e9e0d5;
      }

      .st22 {
        fill: #d8c2a5;
      }

      .st23 {
        fill: #3a60ab;
      }

      .st24 {
        fill: #6d96e6;
      }

      .st25 {
        fill: #d49f4d;
      }

      .st26 {
        fill: #e3d8c7;
      }

      .st27 {
        fill: #507cd0;
      }
    </style>
  </defs>
  <path class="st10" d="M632,614l-2.4,1c-86.9,0-173.7-.2-260.6,0l1-1c35,0,70,0,105,0s6.7,0,10,0,4,0,6,0,.7,0,1,0c.9,0,1.8-1,2-1,3.5,0,3.7.7,8,0s.8-.7,1.5-.7,1.2.6,1.5.7c10.6,1.4,22.3,1.8,33,0h1c3.2,1.8,8.1,1,12,1s2,0,3,0c5.3,0,10.7,0,16,0s11.3,0,17,0,7.3,0,10.5,0h19c.3,0,1-.8,2-.8,2.4,0,10.4,2.5,11.5-.2s0-1.4,0-2,0-1.3,0-2c0-2.3,0-4.7,0-7v-59c0-.3,0-.7,0-1,0-1.7,0-3.3,0-5s0-2,0-3,0-.7,0-1c0-3-.1-6,0-9s0-1.4,0-2-.3-1.9,1-2l1,94Z"/>
  <path class="st11" d="M692,519c.3,0,.7,0,1,0,2.5,0,6.3-.8,8,1h-69v-1c20,0,40-.1,60,0Z"/>
  <path class="st22" d="M654,202c-.3,0-.7,0-1,0s-.7,0-1,0c2.2-8.2.4-17.5,1-26l1,1.4v24.6Z"/>
  <path class="st11" d="M440,176l1-25c-.8,4.7,1.5,22.5-1,25Z"/>
  <g>
    <path class="st7" d="M392,203v22s-21.4,0-21.4,0c-1.2.2-.4,1.5-.6,2.1-2.6,7.4-.4,15.3-1,23-7.7,0-15.3,0-23,0v293c.1,1.3,1.2.9,2,1,2.5.4,6.9.4,9-1,3.8.4,6.5,0,10,0,2.2,7.9.4,16.8,1,25l-54,1h-2l-13-1c.4-7.6-1-15.6,1-23,3.3-.2,6.7,0,10,0s4,0,6,0v-2c1.6,0,3.5.2,5,0s.7,0,1,0l1-2.4V226s1-1,1-1c7.1,1.4,13.7,1,21,1,.2-3-.3-6.1,0-9s.9-1.1,1-2.4c.3-3.8-.3-7.8,0-11.6h46Z"/>
    <path class="st6" d="M369,615v21c-23.1-.8-47,1.1-70,0l-1-20c.4-.2.8-1,1-1,10.1-1.2,24.3.8,34.5.8s23.7-.8,35.5-.8Z"/>
    <path class="st10" d="M79,201l-46,1v412l263,1H32V201c15.3-.9,31.8,1.2,47,0Z"/>
    <path class="st2" d="M323,226v314.6s-1,2.4-1,2.4l-1-2c0-29.3,0-58.7,0-88v-176c0-17,0-34,0-51s0-.7,0-1h1l1,1Z"/>
    <path class="st20" d="M249,176h49c0,8,0,16,0,24h-2v-22s-46,0-46,0c0-.5-1-1.5-1-2Z"/>
    <path class="st10" d="M701,520c-1.7-1.8-5.5-1-8-1l8-1c0-22.7,0-45.4,0-68v-14c0-.7,0-1.3,0-2,.1-1.3,0-2.7,0-4,0-2.3,0-4.7,0-7v-1c3.4,1.1,1,7.1,1,9.5-.3,19,0,38.3,0,57,0,10.4.5,20.7,0,31l-.9.6Z"/>
    <polygon class="st22" points="632 614 631 520 632 520 632 614"/>
    <path class="st10" d="M393,202c0,.3,0,.7,0,1h-47c-.2,3.8.3,7.8,0,11.6s-1,2.2-1,2.4v-15c16,0,32,0,48,0Z"/>
    <path class="st10" d="M608,152h-49c0-.3,0-.7,0-1,14.5.2,29-.2,43.5,0s4.4-.6,5.5,1Z"/>
    <path class="st3" d="M440,176c-2.7,2.7-40.5,0-47,1l47-1Z"/>
    <path class="st19" d="M299,636c-.7,0-1.3,0-2,0v-20s1,0,1,0l1,20Z"/>
    <path class="st10" d="M686,422v1c-1.2-.2-3.3.6-4-1,1.3,0,2.7,0,4,0Z"/>
    <path class="st19" d="M324,225l-1,1-1-1c.6,0,1.4-.1,2,0Z"/>
    <path class="st0" d="M252,544c.6.1,1.4,1,3.4,1.1,13.8.4,27.8-.5,41.6,0l1,23,1,1h70c.2-.2-.1-.7,0-1,2.6-6,.2-16.2,1-23h46v22l-7,1c-.3,0-.7,0-1,0-.5,0-1,.5-1,1-4.2.2-9.6-.6-14,0v22h-22.5c-3.3,6-.7,15-1.5,22l-72-1c-.6-5.9.3-12.9,0-19s0-1.3,0-2c-7.7,0-15.3-.8-23-1s-.7,0-1,0v-22c-8,0-16,0-24,0v-22.5c0,0,1-1.5,1-1.5.6,0,1.4-.1,2,0Z"/>
    <path class="st16" d="M369,613l-71,1c-.5-.7-.9-.7-1-2l72,1Z"/>
    <path class="st10" d="M346,309c0,21.3,0,42.7,0,64s0,1.3,0,2c0,16,0,32,0,48v76c0,.3,0,.7,0,1-.4,6.5,0,13.4,0,20s0,.7,0,1c0,6.3-.3,12.7,0,19s0,2,0,3V250c0,19.7,0,39.3,0,59Z"/>
    <path class="st5" d="M369,543c0,.3,0,.7,0,1,0,8,0,16,0,24-.1.3.2.8,0,1h-55l54-1c-.6-8.2,1.2-17.1-1-25,.7,0,1.3,0,2,0Z"/>
    <path class="st9" d="M312,569h57-70,13Z"/>
    <path class="st19" d="M300,545c-2,7.4-.6,15.4-1,23l13,1h-13l-1-1v-23c.7,0,1.3,0,2,0Z"/>
    <path class="st5" d="M316,543v2c-2,0-4,0-6,0v-2c2,0,4,0,6,0Z"/>
    <path class="st3" d="M322,543c-.3,0-.7,0-1,0v-2l1,2Z"/>
    <g>
      <path class="st7" d="M246,151c4.2,6.6,1.1,16.4,2,24l-144,1-1.1,3.4c-.9,71.5,1,143.4,1.1,214.6,0,.3,0,.7,0,1,0,1,0,2,0,3-1.7,1.5-1.7,6.4,0,8,0,.7,0,1.3,0,2,0,1.3,0,2.7,0,4v2c0,.2-1.1,1.5-1.1,3.4,0,25.7.2,51.4,0,77-.1,1.1,1.3.5,2,.6,0,.3,0,.7,0,1l119,1v22l-119,1v1c.7,7.3-.9,15.9,0,23s-.5,2.1.6,2h119.8c1.1.1.5-1.3.6-2,.8-6.3.1-16.3,0-23l70-1,1,22c-.9.9-12.9-1.4-15,1-8.8,0-17.7-.1-26.5,0s-4.4-.6-5.5,1l-1.1,1.5v22.5c-39.3-.1-78.6,0-117.9,0-16.9,0-34.4.8-51-1v-1c3,.6,1.9-1.5,2-3.5,1.7-50.9.7-105,0-156.1,0-1.7.6-4.4-1-5.5,0-.3,0-.7,0-1,0-1.1,0-3,0-4s0-.7,0-1v-112c0-.3,0-.7,0-1,1.7-5.6,1.2-13.1,1-19s0-2.7,0-4c-.9-9.7,1.2-21.2,0-30.6s-.4-1.4-1.1-2.4c-2.2-3.2-5.3-.8-8.5-.9-5.8-.2-11.9-1.8-17.5.5l1,365.4h1c-.6,2,0,1.8,1.5,2,14.2,1.8,32-1.4,46.5,0,.7,0,1.3,0,2,0,8.3,0,16.7,0,25,0s2.7,0,4,0,3.3,0,5,0,.7,0,1,0h50c.3,0,.7,0,1,0,11.3,0,22.7,0,34,0h1c3,0,6,0,9,0s2.7,0,4,0,2.7,0,4,0,.7,0,1,0c5.3,0,10.7,0,16,0s.7,0,1,0c3,0,6,0,9,0s3.3,0,5,0c2.7,0,5.3,0,8,0s2.7,0,4,0c2.4,0,4.4-1,5-1s2.1,1.1,3,1c.3,6.1-.6,13.1,0,19s.5,1.3,1,2,.7.7,1,1c-.2,0-.6.8-1,1h-1l-1-1-263-1V202l46-1c.3,0,.7,0,1,0s.8.1,1,0c2.4-1.4.3-42.1,1-48h156.6c1.7.5,3.3-.8,4.4-1s2.3-.9,3-1Z"/>
      <path class="st19" d="M84,151c1,1.7,3.8,1,5.5,1,27.8.3,55.8.5,83.5,0s3.3-1,4-1c1,1.7,3.8,1,5.5,1,8.8.1,17.7.1,26.5,0s11.1.2,16.5,0c5.3-.2,12.2-2.8,17.5,0-1.2.2-2.8,1.5-4.4,1H82c-.7,5.8,1.4,46.6-1,48v-50c1,0,2,0,3,0Z"/>
      <path class="st10" d="M246,151c1-.1,2,0,3,0,.2,8.3-.3,16.7,0,25s1,1.5,1,2c.3,7.3-.2,14.7,0,22,15.3,0,30.7,0,46,0h2c0,.7,0,1.3,0,2h-5l-.5-1-.5,1c-.7,0-1.3,0-2,0l-.5-1-.5,1h-19l-.5-1-.5,1h-3l-.5-1-.5,1h-6l-.5-1-.5,1h-5l-.5-1-.5,1h-2l-2-1c1.3-3.7,2-22,0-24l-143-1h-1l144-1c-.9-7.6,2.2-17.4-2-24Z"/>
      <path class="st19" d="M298,202h23c0,7.6,0,15.3,0,23s0,.7,0,1h-23c0-.3,0-.7,0-1-.9-6.5,0-16.1,0-23ZM320,203h-20v19.5c0,.3-1.3.8-1,1.5h18.5c4.7-6.1-.2-14,2.5-21Z"/>
      <path class="st14" d="M173,152c-27.7.5-55.8.4-83.5,0-1.7,0-4.4.6-5.5-1,27.3-.9,56.1-.3,83.5,0,1.7,0,4.4-.6,5.5,1Z"/>
      <path class="st3" d="M81,201c-.2.1-.6,0-1,0l1-50v50Z"/>
      <path class="st14" d="M209,152c-8.8.1-17.7.1-26.5,0s-4.4.6-5.5-1c8.8-.2,17.7-.1,26.5,0,1.7,0,4.4-.6,5.5,1Z"/>
      <path class="st5" d="M81,226h-23c-1.7,1-1,3.8-1,5.5-.8,77.5.4,155,0,232.5,0,.7-1,2.5-1,4.4-.2,40.9.3,81.7,0,122.6l-1-365.4c5.6-2.2,11.8-.7,17.5-.5s6.3-2.3,8.5.9Z"/>
      <path class="st19" d="M105,177v64l-.7,1.2.7.8v27c-1.6.7-1.6,4.3,0,5v11l-.7,1.2.7.8c0,5.7,0,11.3,0,17-1.4,1.3-1.4,2.8,0,4,0,8,0,16,0,24-1.2,1-1.2,2,0,3,0,.7,0,1.3,0,2l-.7,1.2.7.8c0,4,0,8,0,12l-.7.8.7,1.2c0,2.3,0,4.7,0,7-1.4,1.3-1.4,2.8,0,4,0,4,0,8,0,12-1.2,1-1.2,2,0,3,0,1,0,2,0,3-1.6.9-1.6,5,0,6,0,1.3,0,2.7,0,4l-1,1c0-71.2-2-143.1-1.1-214.6l1.1-3.4,1,1Z"/>
      <path class="st15" d="M80,228v197c0,.7,0,1.3,0,2-.2,39.3,0,78.7,0,118v22h-1V228l1-1v1Z"/>
      <path class="st22" d="M58,479v3c0,.7,0,1.3,0,2v29c0,8.7,0,17.3,0,26s0,2,0,3c0,7,0,14,0,21v27l-1,1h-1c.2-40.8-.3-81.7,0-122.6s1-3.8,1-4.4h1c0,5,0,10,0,15Z"/>
      <path class="st19" d="M225,544h1c0,.7.5,2.1-.6,2h-119.8c-1.1.1-.5-1.3-.6-2h120Z"/>
      <path class="st22" d="M249,568l-.9,1.5c-16.7.8-33.8.7-50.6.4-20.2-.3-44.5,0-66.4,0v-2c39.3,0,78.7-.1,118,0Z"/>
      <path class="st5" d="M82,259c0,1.3,0,2.7,0,4-1.8,5.7-1,12.9-1,19s0,.7,0,1c0,37.3.2,74.7,0,112,0,.3,0,.7,0,1v4c0,.3,0,.7,0,1,0,7.9-1,16.6-1,24v-197c1.7,1,1,3.8,1,5.5.1,8.6.7,17.4,1,25.5Z"/>
      <path class="st19" d="M81,401c1.7,1,1,3.8,1,5.5.6,51.1,1.7,105.1,0,156.1s1,4-2,3.5v-139c0-.7,0-1.3,0-2,0-7.4,1-16.1,1-24Z"/>
      <path class="st22" d="M226,520c0,.3,0,.7,0,1,.1,6.7.8,16.7,0,23h-1l-1-1v-21s-23,0-23,0h-3c-.3,0-.7,0-1,0-.9,0-2.2,0-3,0s-1.3,0-2,0h-3l-3-1c-3.1.4-7.6-1.1-10,1-2.3,0-4.7,0-7,0-.7-1.6-4.3-1.6-5,0-.7,0-1.3,0-2,0-2.9-1.7-9.3-1.7-12,0-.7,0-1.3,0-2,0l-2-2h80Z"/>
      <path class="st15" d="M106,522c.6,6.7-.5,14.2,0,21h118s1,1,1,1h-120c-.9-7.1.7-15.7,0-23,.5.1,1,.5,1,1Z"/>
      <path class="st19" d="M105,419l-1,1.5,1,.5c.1,3,0,6,0,9-1.6,1-1.6,5.1,0,6,0,.7,0,1.3,0,2-1.6.7-1.6,4.3,0,5,0,.7,0,1.3,0,2-1.7,1.3-1.7,5.7,0,7,0,3.3,0,6.7,0,10-1.6.8-1,3.4-1,5s-.3,2.5,1,3c0,.7,0,1.3,0,2-1.5.1-1.5,2.9,0,3,0,6-.8,14.4,0,20-.7-.1-2.1.5-2-.6.1-25.7,0-51.3,0-77s1.1-3.2,1.1-3.4c.5,1.6.9,3.3,1,5Z"/>
      <path class="st19" d="M81,395c.2-37.3,0-74.7,0-112v112Z"/>
      <path class="st19" d="M191,591l1,2h-50l-.5-1-.5,1c-1.7,0-3.3,0-5,0v-1c17.9-1.8,36.8-1,55-1Z"/>
      <path class="st4" d="M131,568v2c-2,0-5.3-1.5-8.5,0l-43.1-1-.4-2h1c16.6,1.8,34.1,1,51,1Z"/>
      <path class="st19" d="M69,591l.5,1,.5-1c11,0,22,0,33,0l2,2c-14.6-1.4-32.3,1.8-46.5,0s-2.1,0-1.5-2c4,0,8,0,12,0Z"/>
      <path class="st19" d="M237,591v2c-3,0-6,0-9,0l-.5-1-.5,1c-11.3,0-22.7,0-34,0v-2c14.7,0,29.3,0,44,0Z"/>
      <path class="st19" d="M269,591l.5,1,.5-1c.7,0,1.4,0,2,0v2c-3,0-6,0-9,0l-.5-1-.5,1c-5.3,0-10.7,0-16,0l-.5-1-.5,1c-1.3,0-2.7,0-4,0v-1c8.8,0,18.8-.8,28-1Z"/>
      <path class="st19" d="M132,592v1c-8.3,0-16.7,0-25,0v-2c8.1,0,17.4-.9,25,1Z"/>
      <path class="st22" d="M141,520l-1,2h-4c-.9-1.6-5-1.6-6,0h-1c-1.9-1.7-7.1-1.7-9,0h-14c0-.5-.5-.9-1-1v-1c11.8.7,24,0,36,0Z"/>
      <path class="st5" d="M274,590c7.7.2,15.3.9,23,1,0,.7,0,1.3,0,2-.9.1-2.5-1-3-1-1.6,0-4.2-.6-5,1-1.3,0-2.7,0-4,0-1.6-1.7-6.5-1.7-8,0-1.7,0-3.3,0-5,0v-2c.8,0,1.7,0,2-1Z"/>
      <path class="st5" d="M282,543c5.3,0,10.7,0,16,0-.2,0-1.6,1-3.4,1.1-14.2.4-28.4-.4-42.6,0-.6-.1-1.4,0-2,0,1-1.7,3.8-1,5.5-1,8.8-.1,17.7,0,26.5,0Z"/>
      <path class="st19" d="M82,259c-.2-8.2-.9-16.9-1-25.5s.6-4.4-1-5.5v-2h1c.7,1,.9.8,1.1,2.4,1.1,9.4-.9,20.9,0,30.6Z"/>
      <path class="st19" d="M81,282c0-6.1-.8-13.3,1-19,.2,5.9.7,13.4-1,19Z"/>
      <path class="st19" d="M285,593c-2.7,0-5.3,0-8,0,1.5-1.7,6.4-1.7,8,0Z"/>
      <path class="st19" d="M104,406c-1.7-1.6-1.7-6.5,0-8,0,2.7,0,5.3,0,8Z"/>
      <path class="st5" d="M241,592v1c-1.3,0-2.7,0-4,0v-2c1.1,0,2.7,1,4,1Z"/>
      <path class="st5" d="M107,591v2c-.7,0-1.3,0-2,0l-2-2c1.3,0,2.7,0,4,0Z"/>
      <path class="st19" d="M294,592c-.6,0-2.6.9-5,1,.8-1.6,3.4-.9,5-1Z"/>
      <path class="st3" d="M109,495l-4,1c0-.3,0-.7,0-1,1.2.2,2.7-.1,4,0Z"/>
      <path class="st5" d="M136,592v1c-1.3,0-2.7,0-4,0v-1h4Z"/>
      <path class="st19" d="M104,412c0-1.3,0-2.7,0-4v4Z"/>
      <path class="st19" d="M81,400v-4c0,1,0,2.9,0,4Z"/>
      <path class="st5" d="M193,591v2c-.3,0-.7,0-1,0l-1-2c.7,0,1.3,0,2,0Z"/>
      <path class="st5" d="M142,593c-.3,0-.7,0-1,0l.5-1,.5,1Z"/>
      <polygon class="st5" points="228 593 227 593 227.5 592 228 593"/>
      <path class="st5" d="M246,593c-.3,0-.7,0-1,0l.5-1,.5,1Z"/>
      <path class="st5" d="M263,593c-.3,0-.7,0-1,0l.5-1,.5,1Z"/>
      <path class="st9" d="M310,543v2c-3.3,0-6.7-.2-10,0s-1.3,0-2,0v23s-1-23-1-23c-13.8-.4-27.8.5-41.6,0-2,0-2.7-1-3.4-1.1,14.2-.4,28.4.4,42.6,0s3.2-1.1,3.4-1.1c4-.1,8,.1,12,0Z"/>
      <polygon class="st14" points="105 177 104 176 105 176 105 177"/>
      <path class="st7" d="M320,203c-2.7,7,2.2,14.9-2.5,21h-18.5c-.3-.7,1-1.2,1-1.5v-19.5h20Z"/>
      <path class="st7" d="M250,178h46s0,22,0,22c-15.3,0-30.7,0-46,0-.2-7.3.3-14.7,0-22Z"/>
      <path class="st16" d="M79,228v339l.4,2,43.1,1c3.1-1.6,6.5,0,8.5,0,21.9,0,46.2-.3,66.4,0,16.8.2,33.9.4,50.6-.4l.9-1.5c8,0,16,0,24,0v22c-19.4-.4-38.8,0-58,0-5.4-2.6-12.5-1-18.5-1s-7.1-2.1-10.5,1c-17.3,0-34.7,0-52,0-2.4-2.5-8.7-1-12.5-1h-15c-3.2,0-8-.9-10.5,1-4.3,0-8.7,0-13,0-7.8-2.3-16.9-.4-25-1v-14c6-1.7,1.1-2,1-2.6-.2-1.6,0-3.2,0-4.8s2.5-2.9-1.1-2.6v-2c1.7-6.1,1.7-14.9,0-21,0-1,0-2,0-3l1.9-4.6-1.9-21.4v-29l.7-1.2-.7-.8v-3c3.5.8.9-5,2-6.4l-2-15.6c0-18.7,0-37.3,0-56,1.7-6.1,1.7-14.9,0-21,0-21.3,0-42.7,0-64,1.6-.7,1.6-4.3,0-5,0-.7,0-1.3,0-2,1.7-2,1.7-7.8,0-10,0-.7,0-1.3,0-2,1.3-2.5,2.6-8.3,0-10,0-.3,0-.7,0-1,2.1-3.3,2.1-8.7,0-12,0-1.3,0-2.7,0-4,2.1-4,2.1-10,0-14,0-9.6,0-19.3,0-29,6.7,2.1,14-.1,21,1ZM250.5,569v1c.6-.3.6-.7,0-1Z"/>
      <path class="st15" d="M273,590c.3,0,.7,0,1,0-.3,1-1.2.9-2,1s-1.3,0-2,0-.7,0-1,0c-9.2.2-19.2,1-28,1s-2.9-1-4-1c-14.7,0-29.3,0-44,0s-1.3,0-2,0c-18.2,0-37.1-.8-55,1h-4c-7.6-1.9-16.9-1-25-1s-2.7,0-4,0c-11,0-22,0-33,0s-.7,0-1,0c-4,0-8,0-12,0l1-1c8.3,0,16.7,0,25,0s8.7,0,13,0c12.7,0,25.3,0,38,0s34.7,0,52,0,19.3,0,29,0c19.2,0,38.6-.4,58,0Z"/>
      <path class="st26" d="M58,227c0,9.7,0,19.4,0,29s0,9.3,0,14,0,2.7,0,4c0,4,0,8,0,12s0,.7,0,1c0,3.3,0,6.7,0,10s0,1.3,0,2c0,3.3,0,6.7,0,10s0,1.3,0,2v5c0,21.3,0,42.7,0,64s0,14,0,21c0,18.7,0,37.3,0,56v7h-1c.4-77.5-.8-155,0-232.5,0-1.7-.6-4.4,1-5.5v1Z"/>
      <path class="st22" d="M80,226v1l-1,1c-7-1.1-14.3,1.1-21-1v-1h22Z"/>
      <path class="st4" d="M143,520l.5,1,.5-1c.7,0,1.3,0,2,0l2,2c-2.7,0-5.3,0-8,0l1-2c.7,0,1.3,0,2,0Z"/>
      <path class="st22" d="M143,520c.3,0,.7,0,1,0l-.5,1-.5-1Z"/>
      <path class="st5" d="M80,545c0-39.3-.2-78.7,0-118v118Z"/>
      <path class="st9" d="M58,539c0-8.7,0-17.3,0-26l1.9,21.4-1.9,4.6Z"/>
      <path class="st9" d="M58,457l2,15.6c-1.1,1.4,1.5,7.2-2,6.4,0-5,0-10,0-15v-7Z"/>
      <path class="st9" d="M83,590c-8.3,0-16.7,0-25,0v-1c8.1.6,17.2-1.3,25,1Z"/>
      <path class="st9" d="M58,563c0-7,0-14,0-21,1.7,6.1,1.7,14.9,0,21Z"/>
      <path class="st9" d="M58,565c3.6-.3,1.1.9,1.1,2.6s-.3,3.2,0,4.8,5,.9-1,2.6v-10Z"/>
      <path class="st9" d="M58,484c0-.7,0-1.3,0-2l.7.8-.7,1.2Z"/>
      <path class="st16" d="M189,522h3c.7,0,1.3,0,2,0h3c.3,0,.7,0,1,0h26s0,21,0,21h-118c-.5-6.8.6-14.3,0-21h34c2.7,0,5.3,0,8,0s1.3,0,2,0c4,0,8,0,12,0s1.3,0,2,0c1.7,0,3.3,0,5,0s4.7,0,7,0,7.3.8,10-1l3,1Z"/>
      <path class="st4" d="M162,522c-4,0-8,0-12,0,2.7-1.7,9.1-1.7,12,0Z"/>
      <path class="st4" d="M186,521c-2.7,1.8-6.7,1-10,1,2.4-2.1,6.9-.6,10-1Z"/>
      <path class="st4" d="M169,522c-1.7,0-3.3,0-5,0,.7-1.6,4.3-1.6,5,0Z"/>
      <path class="st4" d="M197,522h-3c.8,0,2.1,0,3,0Z"/>
      <path class="st4" d="M201,522h-3,3Z"/>
      <path class="st4" d="M192,522h-3,3Z"/>
      <path class="st5" d="M69,591c.3,0,.7,0,1,0l-.5,1-.5-1Z"/>
      <path class="st5" d="M269,591c.3,0,.7,0,1,0l-.5,1-.5-1Z"/>
      <path class="st4" d="M129,522h-9c1.9-1.7,7.1-1.7,9,0Z"/>
      <path class="st4" d="M136,522h-6c1-1.6,5.1-1.6,6,0Z"/>
      <path class="st9" d="M134,590c-12.7,0-25.3,0-38,0,2.5-1.9,7.3-1,10.5-1h15c3.8,0,10.1-1.5,12.5,1Z"/>
      <path class="st9" d="M215,590c-9.7,0-19.3,0-29,0,3.3-3.1,7-1,10.5-1,6,0,13.2-1.6,18.5,1Z"/>
      <path class="st9" d="M58,401c0-7,0-14,0-21,1.7,6.1,1.7,14.9,0,21Z"/>
      <path class="st9" d="M58,270c0-4.7,0-9.3,0-14,2.1,4,2.1,10,0,14Z"/>
      <path class="st9" d="M58,286c0-4,0-8,0-12,2.1,3.3,2.1,8.7,0,12Z"/>
      <path class="st9" d="M58,297c0-3.3,0-6.7,0-10,2.6,1.7,1.3,7.5,0,10Z"/>
      <path class="st9" d="M58,309c0-3.3,0-6.7,0-10,1.7,2.2,1.7,8,0,10Z"/>
      <path class="st9" d="M58,316v-5c1.6.7,1.6,4.3,0,5Z"/>
      <path class="st22" d="M250.5,569c.6.3.6.7,0,1v-1Z"/>
      <g>
        <path class="st17" d="M248,177c-.2.4-1,.8-1,1H107l-.9.6c-.4,1.4,0,2.9-.1,4.4s0,1.3,0,2c-.2,5.3,0,10.7,0,16s0,.7,0,1c0,.7,0,1.3,0,2s0,1.3,0,2c0,1,0,2,0,3s0,1.3,0,2c0,2,0,4,0,6s0,1.3,0,2c0,2.3,0,4.7,0,7s0,.7,0,1c0,.7,0,1.3,0,2v226.5c2,11.1-1.4,25.6,0,36.5s-.5,2.1.6,2c26.8,0,53.6,0,80.4,0,7.2,0,14.4,0,21.5,0,5,0,11.5-1.4,16.5,1h-116c-1.3-.1-2.8.2-4,0-.8-5.6,0-14,0-20s0-2,0-3,0-1.3,0-2c0-1,0-2,0-3,0-1.7,0-3.3,0-5,0-3.3,0-6.7,0-10s0-4.7,0-7,0-1.3,0-2c0-1.7,0-3.3,0-5s0-1.3,0-2c0-2,0-4,0-6,0-3,.1-6,0-9s0-1.3,0-2c-.1-1.7-.5-3.4-1-5v-6c0-.7,0-1.3,0-2,0-2.7,0-5.3,0-8s0-2,0-3c1-.3.9-1.2,1-2,0-1.3,0-2.7,0-4,0-2,0-4,0-6s0-2,0-3,0-2,0-3c0-4,0-8,0-12s0-2.7,0-4c0-2.3,0-4.7,0-7s0-1.3,0-2c0-4,0-8,0-12s0-1.3,0-2,0-1.3,0-2v-3c0-8,0-16,0-24v-4c0-5.7,0-11.3,0-17v-112l143,1Z"/>
        <path class="st2" d="M224,495l1,1c0,1.3,0,2.7,0,4,.1,5.5-.5,11.7,0,17s-.3,1.9,1,2c0,.3,0,.7,0,1h-80c-.7,0-1.3,0-2,0s-.7,0-1,0c-.7,0-1.3,0-2,0-12,0-24.2.7-36,0l119-1v-22l-119-1,4-1h115Z"/>
        <path class="st19" d="M297,519h1v24c-5.3,0-10.7,0-16,0,2.1-2.4,14.1,0,15-1l-1-22-70,1c0-.3,0-.7,0-1s0-.7,0-1h71Z"/>
        <path class="st14" d="M104,395c0-.3,0-.7,0-1l1-1c0,.8,0,1.7-1,2Z"/>
        <path class="st17" d="M321,226c0,17,0,34,0,51v176c0,29.3,0,58.7,0,88v2c-1.5.2-3.4,0-5,0s-4,0-6,0c-4,.1-8-.1-12,0v-24l1.8,18.5-.8,4.5h21v-111c0-.7,0-1.3,0-2,0-2,0-4,0-6s0-1.3,0-2v-21c0-1,0-2,0-3s0-.7,0-1v-31c0-1.3,0-2.7,0-4,0-2,0-4,0-6s0-1.3,0-2c0-1,0-2,0-3v-35c0-10.3,0-20.7,0-31,0-19,0-38,0-57h-20.6s-1.5-1-1.5-1h23Z"/>
        <path class="st3" d="M321,453v-3,3Z"/>
        <path class="st3" d="M321,279v-2,2Z"/>
        <path class="st26" d="M248,201c-1-.5-1-1.4-1.1-2.4-.4-3.9-.6-17,0-20.6s.8-.6,1-1c2,2,1.3,20.3,0,24Z"/>
        <path class="st4" d="M247,178c-.6,3.6-.5,16.7,0,20.6s0,1.8,1.1,2.4l1,1,48,1,1,22c0,.3,0,.7,0,1l1.5,1h20.6c0,19,0,38,0,57-1.4,3.7-1.4,9.5-1.4,13.5s0,12.4,1.4,17.5v10c-1.9,3.9-.9,9.1-1.1,13.4s-2.5,2.9,1.1,2.6v4l-2,3h2v2l-2,2.5,2,.5c0,.7,0,1.3,0,2-1.4,1.8-2.8,5.3,0,6,0,1.3,0,2.7,0,4-1.4,1.3-1.4,2.8,0,4v2c-1.7,7.1-2.7,16,0,23v3c0,1,0,2,0,3-1.7,2.9-1.7,9.3,0,12v9c0,.7,0,1.3,0,2-1.6.9-1.6,5,0,6,0,.7,0,1.3,0,2v3c-1.2,1-1.2,2,0,3v105h-21l.8-4.5-1.8-18.5h-1l-70-1c-.1-4.8.2-9.7,0-14.6s1-4-2-3.5c0-1.3,0-2.7,0-4v-1c-5-2.4-11.5-1-16.5-1-7.2,0-14.4,0-21.5,0-1-1.7-3.8-1-5.5-1-7.7,0-55.9,1.3-58.3-.2s.2-1.9-.7-1.8c-.9-.1-.2,1.4-.7,1.8-1.7,1.1-13,.2-15.8-.7-1.4-10.9,2-25.4,0-36.5v-223.5s1-.5,1-.5l-1-.5v-2l1-1.5-1-.5c0-.3,0-.7,0-1,2.5-1.5,1.3-4.6,2-7h-2c0-.7,0-1.3,0-2,1.6-1,1.6-5.1,0-6,0-.7,0-1.3,0-2,1.5-.1,1.5-2.9,0-3,0-.7,0-1.3,0-2h2s0-1.5,0-1.5l-2-.5c0-.3,0-.7,0-1,1.8-4.5,2-11.5,0-16,0-.7,0-1.3,0-2,1.6-.9.9-3.4,1-5h140ZM154,276c0,7.6.1,15.4,0,23s-1.7,1-.6,2l3,1,117.6-.5.9-1.5v-24l-.9-1.5h-120.1s-.8,1-.8,1c0,.2.9.4.9.5ZM154,349c-.1.1-1.4-.3-1.8.2-.7.8-.5,19.6-.1,22.2.6,4.5,1.8,3.8,5.9,3.6,0-.6,0-1.4,0-2,1.3,0,2.7,0,4,0-.5,3.2,1,1.7,2.9,1.7,23.1,0,46.1.9,69.1.3.3,0,.7,0,1,0,2.4,0,4.4-1.2,7,0v-2h3c8.9,3.6,18.7.6,27.9,1.8.3-.6,0-1.4.1-1.8,1.7-5.1,2-19.1,0-24s.3-1.3-.1-1.9l-1.3-.2-83.6,1.1c-.3,0-.7,0-1,0s-1.1-1-2.4-1c-3.8-.2-29.2-.7-30.4.3s0,1.6-.2,1.8ZM274,422c-4.5-4-106.3.9-120.4-.9-1.3.3-1.4,1.2-1.6,2.4-.8,4.4-.2,15,0,20s-1,4,2,3.5c0,.3,0,.7,0,1h119l1-1c1.3-.8,1-2.1,1.1-3.4.4-5,.5-14.3,0-19.2s0-1.5-1.1-2.4Z"/>
        <path class="st17" d="M252,202h37c.3,0,.7,0,1,0,.7,0,1.3,0,2,0s.7,0,1,0h5c0,6.9-.9,16.5,0,23l-1-22-48-1h3Z"/>
        <polygon class="st3" points="250 202 249 202 248 201 250 202"/>
        <polygon class="st3" points="266 202 265 202 265.5 201 266 202"/>
        <polygon class="st3" points="259 202 258 202 258.5 201 259 202"/>
        <polygon class="st3" points="270 202 269 202 269.5 201 270 202"/>
        <polygon class="st3" points="253 202 252 202 252.5 201 253 202"/>
        <path class="st3" d="M290,202c-.3,0-.7,0-1,0l.5-1,.5,1Z"/>
        <path class="st3" d="M293,202c-.3,0-.7,0-1,0l.5-1,.5,1Z"/>
        <path class="st22" d="M106,492c2.9,1,14.1,1.9,15.8.7s-.2-1.9.7-1.8c.9-.1.2,1.4.7,1.8,2.5,1.6,50.6.1,58.3.2s4.4-.6,5.5,1c-26.8,0-53.6,0-80.4,0-1.1.1-.5-1.3-.6-2Z"/>
        <path class="st22" d="M106,201c0-5.3-.2-10.7,0-16,2,4.5,1.8,11.5,0,16Z"/>
        <path class="st22" d="M106,219h2c-.7,2.4.5,5.5-2,7,0-2.3,0-4.7,0-7Z"/>
        <path class="st5" d="M105,452c-1.7-1.3-1.7-5.7,0-7,0,2.3,0,4.7,0,7Z"/>
        <path class="st5" d="M105,436c-1.6-.9-1.6-5,0-6,0,2,0,4,0,6Z"/>
        <path class="st14" d="M105,389c-1.6-1-1.6-5.1,0-6,0,2,0,4,0,6Z"/>
        <path class="st22" d="M106,217c0-2,0-4,0-6,1.6.9,1.6,5,0,6Z"/>
        <path class="st5" d="M105,467h-1c0-1.6-.6-4.2,1-5,0,1.7,0,3.3,0,5Z"/>
        <path class="st22" d="M106,183c0-1.4-.2-2.9.1-4.4l.9-.6c0,1.6.6,4.1-1,5Z"/>
        <path class="st5" d="M105,443c-1.6-.7-1.6-4.3,0-5,0,1.7,0,3.3,0,5Z"/>
        <path class="st14" d="M105,275c-1.6-.7-1.6-4.3,0-5v5Z"/>
        <path class="st14" d="M105,365c-1.4-1.2-1.4-2.7,0-4,0,1.3,0,2.7,0,4Z"/>
        <path class="st22" d="M106,202l2,.5v1.5s-2,0-2,0c0-.7,0-1.3,0-2Z"/>
        <path class="st14" d="M105,309c-1.4-1.2-1.4-2.7,0-4v4Z"/>
        <path class="st14" d="M105,380c-1.2-1-1.2-2,0-3,0,1,0,2,0,3Z"/>
        <path class="st3" d="M105,470c-1.3-.5-1-1.9-1-3h1c0,1,0,2,0,3Z"/>
        <path class="st22" d="M106,209c0-1,0-2,0-3,1.5.1,1.5,2.9,0,3Z"/>
        <path class="st14" d="M105,336c-1.2-1-1.2-2,0-3v3Z"/>
        <path class="st3" d="M105,475c-1.5-.1-1.5-2.9,0-3,0,1,0,2,0,3Z"/>
        <path class="st14" d="M105,354l-.7-1.2.7-.8c0,.7,0,1.3,0,2Z"/>
        <polygon class="st14" points="105 243 104.3 242.2 105 241 105 243"/>
        <path class="st5" d="M105,421l-1-.5,1-1.5c0,.7,0,1.3,0,2Z"/>
        <path class="st22" d="M106,229c0-.7,0-1.3,0-2l1,.5-1,1.5Z"/>
        <path class="st14" d="M105,340l-.7-.8.7-1.2c0,.7,0,1.3,0,2Z"/>
        <polygon class="st14" points="105 288 104.3 287.2 105 286 105 288"/>
        <polygon class="st3" points="225 496 224 495 225 495 225 496"/>
        <polygon class="st22" points="106 232 106 231 107 231.5 106 232"/>
        <path class="st17" d="M225,500c3-.6,1.9,1.5,2,3.5.2,4.8-.1,9.7,0,14.6l70,1h-71c-.1-.8,0-1.7-1-2-.5-5.3.1-11.5,0-17Z"/>
        <path class="st4" d="M226,519c-1.3-.1-.9-1.1-1-2,1,.3.9,1.2,1,2Z"/>
        <path class="st22" d="M320,315c-1.4-5.1-1.4-12.2-1.4-17.5s0-9.8,1.4-13.5c0,10.3,0,20.7,0,31Z"/>
        <path class="st22" d="M320,394c-2.7-7-1.7-15.9,0-23v23Z"/>
        <path class="st22" d="M320,341c-3.5.3-1.1-.8-1.1-2.6.2-4.3-.8-9.6,1.1-13.4v16Z"/>
        <path class="st22" d="M320,412c-1.7-2.7-1.7-9.1,0-12v12Z"/>
        <path class="st22" d="M320,361c-2.8-.7-1.4-4.2,0-6,0,2,0,4,0,6Z"/>
        <path class="st22" d="M320,429c-1.6-1-1.6-5.1,0-6,0,2,0,4,0,6Z"/>
        <path class="st22" d="M320,353l-2-.5,2-2.5c0,1,0,2,0,3Z"/>
        <polygon class="st22" points="320 348 318 348 320 345 320 348"/>
        <path class="st22" d="M320,369c-1.4-1.2-1.4-2.7,0-4v4Z"/>
        <path class="st22" d="M320,437c-1.2-1-1.2-2,0-3v3Z"/>
        <path class="st22" d="M320,397v-1c0,.3,0,.7,0,1Z"/>
        <path class="st22" d="M320,432v-1,1Z"/>
        <path class="st22" d="M320,421v-1,1Z"/>
        <path class="st7" d="M155,372v-22h117v21h-11s0,2,0,2h-2c.5-3.4-1.2-1.5-2.8-1.6-3.6-.3-6.1-.2-9.7,0s-2.9-1.7-2.5,1.6h-6l-.6-2h-3.4s0,2,0,2h-6l-.5-2-.5,2h-4l-.5-2h-1.5s0,2,0,2h-4c-2.3-2.2-5.6-2-8.5-2.1-4.1-.2-9.8,0-14,0s-4-1-3.5,2c-.7,0-1.3,0-2,0l-.6-2h-6.4s0,2,0,2c-.7,0-1.3,0-2,0l-.6-2h-9.4s0,2,0,2c-.7,0-1.3,0-2,0l-.6-2h-9.4c0,.7,0,1.4,0,2-.7,0-1.3,0-2,0l-1-1Z"/>
        <path class="st2" d="M274,423v24l-1,1h-119c0-.3,0-.7,0-1-1.1-7.8,1.6-17.4-1-25l121,1ZM272,423h-117v23h117v-23Z"/>
        <path class="st2" d="M274,276v24c-38.2-.3-76.4.4-114.5,0-1.7,0-4.4.6-5.5-1,.1-7.6,0-15.4,0-23h120ZM272,277h-116v22h116v-22Z"/>
        <path class="st26" d="M274,300h1l-.9,1.5-117.6.5-3-1c-1.1-1,.5-1.9.6-2,1,1.7,3.8,1,5.5,1,38.2.4,76.4-.3,114.5,0Z"/>
        <path class="st26" d="M275,276h-121c0,0-.9-.3-.9-.5l.8-1h120.1s.9,1.5.9,1.5Z"/>
        <path class="st19" d="M168,349c1.7,0,3.3,0,5,0,3.3,0,6.7,0,10,0s.7,0,1,0c1,0,2,0,3,0,3,0,6,0,9,0s2.7,0,4,0,.7,0,1,0c1.3,0,2.7,0,4,0,3,0,6,0,9,0s4,0,6,0h53c2,4.9,1.7,18.9,0,24h-1v-23h-117v23l-1-24c4.7,0,9.3,0,14,0Z"/>
        <path class="st15" d="M168,373c.7,0,1.3,0,2,0,3.3,0,6.7,0,10,0s1.3,0,2,0c2.3,0,4.7,0,7,0s1.3,0,2,0h51v2c-2.6-1.2-4.6,0-7,0l-.5-1-.5,1c-23.1.6-46.1-.4-69.1-.3-1.9,0-3.3,1.5-2.9-1.7,2,0,4,0,6,0Z"/>
        <path class="st15" d="M188,348l83.6-1.1,1.3.2c.4.6,0,1.5.1,1.9h-4l-.5-1-.5,1h-3c-.3-1.5-3.6-1.6-4,0h-2c-1.3-1.7-5.7-1.7-7,0h-7c-.3-1.5-3.6-1.6-4,0h-2c-.1-1.5-2.9-1.5-3,0h-2l-.5-1-.5,1h-4l-.5-1-.5,1h-2c-.9-1.6-5-1.6-6,0-2,0-4,0-6,0-1.9-1.7-7.1-1.7-9,0-1.3,0-2.7,0-4,0l-.5-1-.5,1c-1.3,0-2.7,0-4,0-1.7-1.9-5.5-.8-8-1Z"/>
        <path class="st1" d="M274,422v1l-121-1c2.6,7.6,0,17.2,1,25-3,.6-1.9-1.5-2-3.5-.2-5.1-.8-15.6,0-20s.3-2,1.6-2.4c14.1,1.7,115.8-3.1,120.4.9Z"/>
        <path class="st15" d="M273,448h-119,119Z"/>
        <path class="st15" d="M187,348v1c-1,0-2,0-3,0l-.5-1-.5,1c-3.3,0-6.7,0-10,0-.7-1.6-4.3-1.6-5,0-4.7,0-9.3,0-14,0l1,24h1c.7,0,1.3,0,2,0,0,.6,0,1.3,0,2-4.2.2-5.3.9-5.9-3.6s-.6-21.4.1-22.2,1.6,0,1.8-.2-.3-1.4.2-1.8c1.2-1,26.6-.5,30.4-.3s2.2,1,2.4,1Z"/>
        <path class="st15" d="M259,373h14c-.2.5.2,1.3-.1,1.8-9.2-1.3-19,1.8-27.9-1.8h14Z"/>
        <path class="st20" d="M244,373c-.4-3.3.8-1.5,2.5-1.6,3.6-.3,6.1-.3,9.7,0s3.3-1.8,2.8,1.6h-15Z"/>
        <path class="st17" d="M274,447v-25c1.1.9.9,1,1.1,2.4.5,4.9.4,14.2,0,19.2s.2,2.6-1.1,3.4Z"/>
        <rect class="st17" x="274" y="276" width="1" height="24"/>
        <path class="st20" d="M158,373c0-.6,0-1.3,0-2h9.4s.6,2,.6,2c-2,0-4,0-6,0s-2.7,0-4,0Z"/>
        <path class="st22" d="M196,349c-3,0-6,0-9,0v-1c.3,0,.7,0,1,0,2.5.2,6.3-.9,8,1Z"/>
        <path class="st20" d="M235,375c-.3,0-.7,0-1,0l.5-1,.5,1Z"/>
        <path class="st20" d="M217,373h-26c-.6-3,1.5-2,3.5-2,4.2-.1,9.9-.2,14,0s6.2-.2,8.5,2.1Z"/>
        <rect class="st20" x="261" y="371" width="11" height="2"/>
        <path class="st20" d="M170,373v-2s9.4,0,9.4,0l.6,2c-3.3,0-6.7,0-10,0Z"/>
        <path class="st20" d="M182,373v-2s6.4,0,6.4,0l.6,2c-2.3,0-4.7,0-7,0Z"/>
        <polygon class="st20" points="234 373 234 371 237.4 371 238 373 234 373"/>
        <polygon class="st20" points="221 373 221 371 222.5 371 223 373 221 373"/>
        <polygon class="st20" points="228 373 227 373 227.5 371 228 373"/>
        <polygon class="st20" points="156 373 155 373 155 372 156 373"/>
        <rect class="st7" x="155" y="423" width="117" height="23"/>
        <rect class="st7" x="156" y="277" width="116" height="22"/>
        <path class="st22" d="M214,349c-3,0-6,0-9,0,1.9-1.7,7.1-1.7,9,0Z"/>
        <path class="st22" d="M259,349h-7c1.3-1.7,5.7-1.7,7,0Z"/>
        <path class="st22" d="M226,349h-6c1-1.6,5.1-1.6,6,0Z"/>
        <path class="st22" d="M173,349c-1.7,0-3.3,0-5,0,.7-1.6,4.3-1.6,5,0Z"/>
        <path class="st22" d="M245,349h-4c.4-1.6,3.7-1.5,4,0Z"/>
        <path class="st22" d="M265,349h-4c.4-1.6,3.7-1.5,4,0Z"/>
        <path class="st22" d="M239,349h-3c.1-1.5,2.9-1.5,3,0Z"/>
        <polygon class="st22" points="269 349 268 349 268.5 348 269 349"/>
        <polygon class="st22" points="234 349 233 349 233.5 348 234 349"/>
        <polygon class="st22" points="229 349 228 349 228.5 348 229 349"/>
        <path class="st22" d="M201,349c-.3,0-.7,0-1,0l.5-1,.5,1Z"/>
        <path class="st22" d="M184,349c-.3,0-.7,0-1,0l.5-1,.5,1Z"/>
      </g>
    </g>
    <g>
      <path class="st8" d="M489,150v2c4.5-.5,10,1.2,14-1h2c7,1.7,16,1.7,23,0,.3,0,.7,0,1,0,1,1.7,3.8,1,5.5,1,6.6,0,13.2.2,19.7.3s2.7.6,3.8-1.3h1c0,.3,0,.7,0,1,.1,2.7,0,5.3,0,8,0,4.9-.6,11.4,0,16s-.5,2.1.6,2c12.9-1.2,25.9.6,38.9,0,2.8-.1,5.4-1,8.5-1s.7,0,1,0v2c-1.7,4.6-1.7,12.3,0,17,0,.7,0,1.3,0,2s-1.3,0,0,3-.2.8,0,1c.5,1.1,1.4,1,2.4,1.1,4.7.5,15.6.5,20.2,0s2.3-1,2.4-1c5.1-.8,13,0,19,0s.7,0,1,0v24c2.7,0,5.3,0,8,0s1.3,0,2,0c3.7,0,7.3,0,11,0,1.9.3,3.2-.8,5,1-.2,6,.3,12,0,18s0,1.3,0,2c0,1,0,2,0,3-7.3,0-14.8.1-22,1l-.9-2.3-1.5,1.4h-22.6c0,0-1,25.9-1,25.9-6.3-.1-12.7.3-19,0s-.7,0-1,0c-1.3,0-2.7,0-4,0v-26c-3.6,0-7.3,0-11,0l-36-1v-21.6s-1-1.5-1-1.5c-.2-.1-.7,0-1,0,.6-3-1.5-1.9-3.5-2-12.5-.4-25.5-.2-38.1,0s-4.4-.6-5.5,1c1.3,4.6-2.3,23.2.5,26s16.8,0,20.5,0,23.1-.3,24.1.4l.9,23.9c.2,1.2,1.5.4,2,.6,7.1,2.8,16.8,0,24,0v22c-7.8.6-16.5-1.3-24,1v1c-.2,6.3.3,12.7,0,19h-2c-.3,1.7.4,4.6,0,6-.6,0-1.3,0-2,0-3.3-1.4-8.9-1.4-12.5-1.4-8.9,0-18.9,0-27.5,1.4s-2,0-3,0c-.2-3.6.2-7.4,0-11-.3-5.3-.2-7.8,0-13s0-1.3,0-2c-1.4-.6-2.7,1-3,1-8.5.6-18.3,0-27,0s-.7,0-1,0c-4.3,0-10,.5-14,0-1.1-5.4,2.1-20.3-1-24l-1-1c-.7,0-1.3,0-2,0-1,0-2,0-3,0l-1,1c-1,0-2,0-3,0-.9-1.6-5-1.6-6,0-.7,0-1.3,0-2,0-5.7-1.7-14.2-1.7-20,0h-4l-7-1c.1-8.2.9-15.9,0-24v-1h-47c-.3,0-.7,0-1,0,.6-7.7-1.6-15.6,1-23l23.9-1.1c-.4-6.8.3-13.6.2-20.5s-1-2.3-1-2.4c0-.3,0-.7,0-1,.3,0,.7,0,1,0,4.4,0,10.3,1,14,1,8.4,0,17.5-.7,26-1s4,0,6,0c.3-6.2-.4-12.8,0-19l2-5c8.4-.6,17.8.8,26,0s1.3,0,2,0v-2c1,0,2,0,3,0,2.6,3.9,9.9,1.4,13.9,1.9.4-.6,0-1.5.1-1.9,1.5-3.8,1.3-9.7,1-14,0-3.7,0-7.3,0-11s0-.7,0-1h1Z"/>
      <path class="st6" d="M677,202l24,1c0,1.3,0,2.7,0,4-1.8-.2-4,.3-4,2.5l4-.5c.2,5.1-.5,11.1,0,16s-.3,1.4.1,1.9c2.6.9,5.2.9,7.9,1.1l.5,2h1.5s0-2,0-2c1,0,2,0,3,0l.6,5h6.4s-6-5-6-5c3,0,6.2.6,9-1,.9,3.6,1,9,1,13l-5,.5v3.5s5,0,5,0c0,1.7,0,3.3,0,5-6,0-12,0-18,0l5.1-7.5-5.1-7.5,5-2c-3.1-1.2-6.3.6-9.3,0s-.8-2.9-4.2-2.9c-4,1.1-4,4-9.4,3l-2.1,6.8c6.7-1.2,12.4.5,19,1,.5.5-.6,7.6-1,9s-1,.4-1,1h-1c-1.2.5-.7,1.4-1,2-2.6,6.2-.2,16.1-1,23-2.3-1.1-4.5-.1-7,0l1-6h-5s.6-3,.6-3l-3.6-1,2-3.5c-.2-4.2-4.6-2.6-4.9-2.8-.4-.3.5-2.6-2.1-1.7-1.3,1.8,7.4,8.3,2.5,8s-7.3-6.5-7.5-10c8.9.5,7.4-6.1,2-3.5s-2.1,2.1-2,3.5c-1.7,0-3.3-.8-5-1l-1,3-.6-2.1-4.8,1.1c-1-1.4,0-2.6-2.6-2.1l-.9,5.9,5.9,2.2-2.1,1.5c1.1,2.4,1.4,4.1,0,6.4h6s-1,4-1,4h3c0-2-1.7-3.7.5-5l2.8,2,4.5-1.3c-.8-3.7,2.8-3.2,4-1.5s-1.5,4.2,4.8,2l1.5,4.7c-4,.2-9.8-.9-13,1s-.7.7-1,1c-.4.5-2,3.6-2,4,.8-9.7-4.7,2.8-6.5-3l-2.5.5v3.5s3.5-1.1,3.5-1.1l.8,1.8,4.8-.8c0,9.5,1.1,15.7,0,26l-11,3c-.5,2.7.6,1.4,2,2.5-4.1,4.3-2.6,8.2,2.9,9.7l-.9,5.8h3s-1-4-1-4l6-2c0,4,0,8,0,12l-1-6h-3s1,6,1,6l-4-2v3s-3,0-3,0l.5-6-4.3,1.1c-.4,2.4-.9,4.5,1.7,5.3l-.9,2.5,4-1-1.1,2.4,2.1,1-2,4.5c3.9.6,5.4,4.3,10,0,0,17.7,0,35.3,0,53l-3,2c-.6.5-2.8-3.5-4-1.5v3.5s2.4-1.1,2.4-1.1l.6,2.1,4-2c0,6.6.7,13.6-1,20h-11l-.5-2-.5,2c-.7,0-1.3,0-2,0l-.5-2-.5,2c-2,0-4,0-6,0,0-.3,0-.7,0-1,1.7-5.6,1.1-13,1-19,2.7.7,2.2-2.4,3-4.5,0-1.2-2.4-.2-3,.5,0-1.3,0-2.7,0-4h-2c0-.7,0-1.3,0-2,.6.1,1.7-.2,2,0,.4.3.8,1.7,1.5,2h1.5s0-2,0-2h-3c-.1-5.8-.6-12.3,0-18,1.4.6,3.4,7.7,10,4l-2,6-3-1,1,7.6,3-.6c0,2-.8,3.6,2,3l1-10h6c1-2.4-3.9-5.2-4-5.5-.8-3.6,2.7-1.2,2-4.5l-6,1v-3s-3.1.6-3.1.6l-1.9-5.1c0-.3,6.2,1.1,5-2.5-6.8-1.6-9.4,4.3-10,10-.4-.2-1.4,0-2,0-7.3-.7-15.5.5-23,0,0-4.1.7-8.2,0-12h4s-1.5-4-1.5-4c-2.2,5.7-7.9-.1-7.5,8-3.4-1.4-4.5-.8-7.5,1-1.6-3.3-1.9-7-6.5-7,.3,5.9,4.7,1.7,4.4,8.5-.2,4.3-3.7,2.8-1.4,6.5-1,.1-2.1-.2-3,0-.6-1.5-.3-3.4-3-3l-2,5c2.1,0,2.8-1.5,5-2,.2.5-.1,1.4,0,2h6s-5,4-5,4c5.1,1.1,13.1-1.6,12,6,2.6.3,1.6,0,2-1.5.8-2.7,0-7.1,3-8.5-.9,14.7.7,30.2,0,45-1.5.2-4.6,2.6-7,2v-2s-2,0-2,0v2s2,0,2,0c-1,4-4,7.6,0,12l-10,1,3,6-4-1c1.7,5-2.3,10.5,4,12l1.5-6c1.7,1.9,4.8,1.4,6.5,2.5s.8,2.3,1.7,2.5c1.3.2,4.2-1.5,6.3,0-.5,3.5-5,5.2-2.5,9.1s2.9,0,3.6.4c1.9,1.1,1.7,5.1,2,5.5s8.6-2.3,7,3c-.8,0-1.7,0-2,1-3.5.2-4.5-.3-8,1s-4.2,0,0,3v2c-2.6,2.7-1.2,10.8,0,14,0,.3,0,.7,0,1s0,.7,0,1c.1,1.3,1.2.9,2,1v1c.1,1.3,1.5,1,2.4,1,13.3,1.3,28.4-1.3,42,0,1.1.1.5-1.3.6-2,.4,0,.8.1,1,0,1.4-.8.9-1.1,1-2.4.6-6.7.3-16,.4-23.1,0-11.6-.3-23.4-.4-35,0-1.7.6-4.4-1-5.5v-1c1.4-1.2,1.4-2.7,0-4v-2c.7,0,1.3,0,2,0,.7,1.6,2.8.8,4,1s2.8.9,4,1c1.2,6.3-4.3,8.8-2,15h3s.2-6.8.2-6.8l9.8-2.2c0,1.3.1,2.7,0,4l-6-1,2,5h-4s1,9,1,9l5.9-2.1c-1.6-2.9.9-6.7,1.1-8.9v12c-2.5-.5-8,1.4-8,4.5l5.4,1.5,2.6-3.9c0,22.7,0,45.4,0,68l-8,1c-.3,0-.7,0-1,0-1-1.7-3.8-1-5.5-1-11.5-.1-23,0-34.5,0l2.5-4-5.5,1,2,3c-6.1,0-13.3-.8-19,1v1h-1c-1.3.1-.9,1.2-1,2-3.2-1.3-3.3-4-3-7-3.4-.7-4.4,2.8-7,4l1-10c-4.2,1.1-4-3.3-8.5-2l-.6,2.5,5,3-5,1.5,1.1,9,2.4-.7,1.4,1.3-.9,8.3,5.9,2.1-.9,2.9h5.4c0,0,3.5-3,3.5-3,0,1,0,2,0,3-.7.4-.8,1.8-1,2s-5.7.6,0,2,.6.8,1,1c0,.3,0,.7,0,1-1.7,1-1,3.8-1,5.5,0,6.8,0,13.7,0,20.5l-5.9,1.1v4.9c-2.8,0-2.9-3.1-6.5-3s-1,2.4-2.6,2l.6,2,4.4,1.5c-1.9,3.9-6.4,16-2.1,19.1s4.5-2.3,4,.9l-7.8,1.7v3.8c-.1,0,5.8-1,5.8-1-1.2,4.7,5,2.6,5,7h-3s0,2,0,2h3s0-2,0-2c2.5.4,2.7,0,3.5-2l2.5,2c0,.7,0,1.3,0,2l-2,.5v1.5s2,0,2,0c-1.2,2.7-9.2.1-11.5.2s-1.7.8-2,.8h-19c-3.2,0-6.9,0-10.5,0,4.4-1.8-.2-3.5,0-5.4s3.3-2.8,3.7-5.3l-5.3-9.3c-.8.2-2.3-.6-2.5.5-.6,2.6,2.3.5,2,2.5-2.9,1.6-2.2,2.1-6,1l2-4h-5.5c0,0-.5,3-.5,3l-5-2v3c2.1,1.2,5.3,0,6.5.2s.4,1.6,1.1,1.8,3.4-1.2,5.4.5l2,8.5c-3.5-1.1-4.2-2.9-8.3-.9s-.2,2.5-2.2,1.9l-1.7-3.8-3.8-.2c.9,3.2,3,4.4,1,8-5.3,0-10.7,0-16,0l2-6-2.9.8-.6-1.8-3.5,2.6,2,4.4c-3.9,0-8.8.8-12-1l4.5-4,1.1,2.1,3.4-1.1-1.6-4.1c-4.7-.3-8,2.4-8.4,7.1-10.7,1.8-22.4,1.4-33,0l-.5-3h-3.5s1,3,1,3c-4.3.7-4.5,0-8,0-1.9-2.8,0-5.4,0-7.4s-6.2-4.7-3.1-9.5l-5.9-2.1,1,3c-3.5,1.6-4.2-4.5-6.5-4-4.3,1,.2,3.4.9,4.1s1,2.1,1.7,2.5c1.1.7,3.1-1.7,5,2.9l-3,.5,1,4,6-2c.5,5.5-2.1,6.4-6,3v6c-3.3,0-6.7,0-10,0,4-2.9,5-2.9,5-8.5s-3-.4-4.1,0c-7.1,2.3.4-3.1.6-3.5,1.7-2.5-3.4-5-4-1l-.5-1.2c-2.6-3.1-4.1,1.6-2.8,3.1s5.6-1.4,1.2,4.1h-4.3c2.3-3.7-.5-6.4-1-10,.2-.3,5.4-1.2,6.4-1.9s.5-2,.6-2.1c.3-.3,2.8,0,3-2,43.7,0,87.6,0,131.4-.1,1.3-.3,1.4-1.2,1.6-2.4,1.5-8-1.9-19.9,1-27.5s1.4-.2,1-1.5-.9-.3-1-.5-.9-.6-1-1l2-.6v-3.4s-2,1-2,1c-.2-2.6,0-5.4,0-8l2-.6v-8.4s-2,0-2,0c.2-2,.8-2.2,1-3s.9-.5,1.1-1.6c.2-1.7-1-2.2-1.1-2.4-1.8-7.2-.9-15.4-1-23-.1-12.6,0-25.4,0-38s0-27.3,0-41c0-2.3,0-4.7,0-7s0-.7,0-1c0-6.3.8-14.7,0-20.6s.3-2.3-1-2.4c-7.2.2-14.4-.2-21.6,0s-2.3,1-2.4,1c-7.6.3-15.4-.2-23,0-.4,6.5.6,13.6,0,20s0,1.3,0,2c-2.5,1-6.4-1-8-1l-.5-4c-2.2-.4-3.7.8-3.5,3l3,1c-13.8.1-28.5,1.9-42.6,1.1l-1.9-2.1c-.7.6-1.7,1.8-2.5,2l3-4-5-1.5,3.1-2.1-3.1-6.3h4s0-2.9,0-2.9l-5.9-1.1c-.1,2,.8,3.5-2,3,.4-.9.7-5-.5-5-4.9.1-1.2,12.8-2.5,16l5-1.5-3-.5c-3.3-3.1,9.3-7.5,3.2,2.8l1.8,3.2c-4.2.4-8-1.1-12,0v-21s-2,0-2,0c0-.7,0-1.3,0-2s0-.7,0-1c11.7,0,23.3,0,35,0s24.7,0,37,0l-1-23c2.3,0,4.7,0,7,0s5.6.8,7-1h4c2.3,0,4.7,0,7,0,8,0,16,0,24,0-1.9-3,0-5.7,0-7l1-3,2-.5v-1.5c0,0-2,0-2,0l-1-3c0-.5,0-1.4,0-2,1.5-.6.9-2.7,1-4l-1,1c0-.2-1-1.1,0-2h1c1.8.2,4-.3,4-2.5,0-1-3-.3-4-.5s-.6-.8-1-1c-1.7-2,0-4.5,0-5l1,1c0-1.3.5-3.4-1-4,0-.3,0-.7,0-1,0-4.8-.5-6.7,0-12l4,2-1-7,5-.5-1.5-3.5c-1.6,2.2-4,2.2-6.5,2-.2,1.9.3,4.2,0,6-5,0-10,0-15,0s-2.8.9-4,0l1.5-4c2,.2,1.6-1.4,1.5-3,1.7.3,2.8,1.4,4-.5-.9-2-1.2-5-2.2-6.8-1.5-2.9-3.3-1.3-3.8-7.7s0-2,0-3c5.7.1,11.4,0,17,0l1-23c.9.1,2.8.2,3-1,.3,0,.7,0,1,0-.4,5.7,1,1.2,3.5,1,6-.5,12.9,1.1,18.5-1,1,0,2,0,3,0s3,0,4,0c3,0,11.2,2,12.6,0l1.5-24.3c.4-1,1.2-.6,2-.7,7.2-.9,14.7-1,22-1,1.5,0,1.5-2.9,0-3,0-.7,0-1.3,0-2,1.5-3.1,1.8-16.2,0-18s-3.1-.7-5-1c-3.2-.5-8-2.6-11,0-.7,0-1.3,0-2,0-.3-1-1.2-.9-2-1,3.4-4.6,2.9-8.3,4.1-13.3.2-1,2-.2,1.8-2.1-.5-4.7-6.7-2.1-9.9-2.7v-4c4.3,0,8.7.1,13,0,0,.7,0,1.3,0,2-.5.2-1.4-.1-2,0-.3,2.1,0,2.3,2,2,0-.7,0-1.3,0-2,1.1-.4,2.5.5,2-2,2.4,0,5.1-1,6-1s.7,0,1,0ZM684,204c-3.6-3.2-4.2,6.5-.5,2s.8-1.8.5-2ZM693,208l-2-3h-3s0,3.9,0,3.9c-7.7.8,1.3,4.5,5.1,3.1v-4c3,.6,3.1-2.6,0-2v2ZM676,206h-2v3h2v-3ZM668,211c-1.6,0-2.3-.5-1.9,1.4.8,3.9,7.4,2.8,6,9.5h6s1-7.9,1-7.9c-3.2,0-7.5-6.9-9-1.1h-1.5c0,0-.5-1.9-.5-1.9ZM699,212h-3c0,3.7,3,3.7,3,0ZM686,224c-.1-1.5-.3-2.6-1-4h4s0-3,0-3l-8,1c-.8,2.6,1.4,1.7,2.4,3,1.6,2-.8,1.8,2.6,2.9.1,2-.1,4,0,6,2.4.3,2.6.1,3.4-1.9,4.9,2.4,2.9-.1,3.7-1.2,2.9-4.1.3-2.5,1-5.2s5-2.6,3.9-5.6c-6.9-1.6-5.7,3.9-8,8.6-.9.7-3-.2-4-.6ZM671,222h-2v2h2v-2ZM717,236h-2s-1,4-1,4h2s1-4,1-4ZM724,236h-2v2h2v-2ZM696,240l-2,.5c-.3,2.1.4,4.8,0,6.8s-2,.7-2.6,2.6c-.8,2.8-.1,5.9-1.4,8.5,3.8,2.7,9.9,4.9,5.7-2.1s-4.1-1-1.5-5.6,2.7-1.5,4.8-2.2l1.1-3.1-4.1-5.5ZM689,242c-6.2-1.1-1.2,4.3,0,3v-3ZM660,255h-2v2h2v-2ZM662,262h-5s0,4,0,4c3.3.4,5.6-.2,5-4ZM700,267l-4,1v2s4,0,4,0v-3ZM665,269l-6.9,2.1c-1.6,3.2,2.8,3.5,2.9,4.4s-4.8,4.7,3,5.5l-1.9-4.4c2.5-2.3,3.5-4.1,2.9-7.6ZM638,279c-5.2,1.9-8.9-.3-14-1,3.2,6.7-4.5,5.9-5,12l-1-6h-2.9c0,0-.2,5.9-.2,5.9l-1.9,1.1,6,3.5c0,2.3-6.6,6.7-2.5,8.5s1.1-2.1,1.7-2.7,2.7-.3,3.4-1.2l.3-4.6,8.1-2.5c1.3-2.7-2-3.1-2-3.5,0-.8,1-1.9.9-3,0-1.8-2.5-3.2-1.9-5.5,1.9.5,7.1,7.7,9,6-2.6-5.3,1.3-2.9,2-7ZM658,278h-3s0,2,0,2h1.5s1.5-2,1.5-2ZM643,279l-4,2.5v1.5s3-.5,3-.5l1-3.5ZM613,280h-2v2h2v-2ZM643.5,286.6c-2-2.3-6.6-4-6.4-1.1s6.6,1.8,5,5.5c4.6.6,3.7-1.7,1.4-4.4ZM658,284l-2.4,1.9-3.6-.5-1.9,6.6c3.6.5,6.1,0,6.5,4.1l9.4-1c.3,5,2.8,3.4,5.5,5s1.1,3.9,4.6,2.9c1.8-4.5-3.9-1.8-3-4.5s1.9,0,2.1-1.2c.3-1.6-1.6-4,.9-6.3l-8-1c-.7,3.7,10.4,3,3.5,7-.7-3.1-4.4-1.9-5.6-3.7s-.6-7.4-1.4-7.4l-4.5,1c-1.7,2,4.7,5.4,3,7s-4.8-2.8-6.9-2l2-8ZM632,293h-2v2h2v-2ZM638,293h-3v2h3v-2ZM645,294h-2v2h2v-2ZM665,300l-3.4-1.1-2.6,3.5,5,2.5,1-5ZM655,300h-24l2.1,50.9c1.4,1,3.7-.9,4.4-.9h17.5v-50ZM597,308c.9-9.4-6.7-9.9-3.9,0h3.9ZM618,306v-2c-3.1-.6-3.1,2.6,0,2l-2,10,10,1,2.1-5.4c-3.2-3.8-5.4-5-3.1-10.5-3.2-.8-1.3,2.2-3,3.5s-2.9.8-4,1.5ZM608,302l-2,.7v2.3s-5-1-5-1v6s3.9,0,3.9,0v2.8c5.2-1.2,4.9,2.9,9.1,3.1l1-6c-2.6-1.4-3.2,2.1-3.5,2.1-3.1.1-6.1-4.6-2.9-6.1l4.5,3c.7-4-1.8-3.9-4.9-4.2v-2.8ZM664,309c-1-1-4,2-3,3s4-2,3-3ZM628,329c-.7-3.6.8-7.4-2.5-10-4.7.9,3,7.3-1,9s-1.3-1.8-2.1-2c-1.6-.4-3.6.2-5.3,0-1,3.6,3.4,1.4,4,2,1,5.2-4.2,7.7-3,13l8,1,1.1-3.4-3-3.2,2-2.9c-2-1-2.4-.7-2-3.5h4ZM595,320h-2v2h2v-2ZM661,326h-2v2h2v-2ZM666,326l-4,.5c1.1,1.5,2.1,1.7,4,1.5v-2ZM613,335h-2v2h2v-2ZM662,337h-2v2h2v-2ZM615,338c-3.9,0-4,4,0,4v-4ZM623,344h-2v2h2v-2ZM618,345h-3v2h3v-2ZM665,348c-5.3.3-8.1,7-14,6,.2,2.7,1.1,5.4,4,3.5s.4-3.6,2.9-2.5c-.2,3.5,1.5,4.7,4.9,3.9l1.2-3.3-2.1-1.2c-1.1-4.8,3.3-2.9,3-6.4ZM628,351c-2.2-.2-7.4-2.1-7,2,3-.2,6.9,2.7,7-2ZM674,350h-3v2h3v-2ZM631,353h-2v2h2v-2ZM617,354c-3.9,0-4,4,0,4v-4ZM622,354h-2v2h2v-2ZM676,356c-2.4-2.1-12.1,1-9,4s2-1.1,2.8-.8.2,2.8,3.2,1.8v-4s3-1,3-1ZM626,356h-2v2h2v-2ZM621,357c-4.5-.3-1.2,5.3,2,4l-2-4ZM648,358h-2v2h2v-2ZM645,359c-1.8.3-4.7.4-4,3l5,2-1-5ZM640,360h-2v2h2v-2ZM658,361h-2v2h2v-2ZM649,367c-.6,0-1.3,0-2,0v2s2,0,2,0c0-.6.1-1.4,0-2,.6,0,1.3,0,2,0,.3-3.2.3-3.3-3-3-.4,1.2.9,2.3,1,3ZM676,364h-2v2h2v-2ZM613,367h-2v2h2v-2ZM642,371c.1-4-4.4-3-7-3-.7,3.7,2,1.1,3.5,1.4s1.7,2.1,3.5,1.6ZM676,371h-2v2h2v-2ZM580.3,378.7c-1.3-1.2-1.5-4.2-4.3-3.7,1,4.6,1.8,7.1,7,6,.8-3.1-1.8-1.4-2.7-2.2ZM591,378h-2c-.6,3.1,2.6,3,2,0h3s0-3,0-3h-3s0,3,0,3ZM567,377h-2v2h2v-2ZM594,385c-.2-.6-1.5-1.9-1.5-3l-2.5,4-4.8-1.3-.2-1.7c-3.1-1-1,1.9-3,2l-.5-3-3.5,1c-1.1,2.6,2.1,1.7,2.1,2.6s-1.4,4.8-3.1,3.4l-4-7-2,.5-.5,4.5-6-5-1.5,4,9,3-1,4,4-1.5c2.2.4,2.2,1.5,2,3.5h3s1.2-6.8,1.2-6.8l9.2-1.2c.3,3.3,1,7.3,5.5,7,.5-.5-1.5-7.7-2-9h2s0-2,0-2h-2s0,2,0,2ZM622,384l-7-1c-.4,6.3,9.5,3.2,7,1ZM601,386v-2s-2,0-2,0v2s2,0,2,0v1.3c-2.8,1.1-2.1,2.9-2,5.7l5.4-2c.8,3.2,4.2,1.7,6,2.9s-1.7,3.7,4.6,3.1c-.2.8.2,2.1,0,3h-4c.8,5.4,3.4,7.7,9,7l-2-5.5,2.5-1.6c1.9,4.3,5,2.1,3-2s-5.9-1.3-8.5-1c1.1-4,3-3.6,3-7-4,1.6-4.5-2.7-5.6-3-1.7-.4-4.6,3.8-7.9,3.1s-.6-5.2-3.6-4.1ZM608,384h-4s0,1.5,0,1.5c1.1,1.6,2.1,1.7,4,1.5v-3ZM623,388l-3,.5c-1.3.9-1,2.1-1,3.5h2.9c0,0,1.1-4,1.1-4ZM567,390h-3v2h3v-2ZM585,391h-2v2h2v-2ZM573.5,396v1c.6-.3.6-.7,0-1ZM668,398c-5.1-.1-3.2,2.8-4.3,4.7s-2.3.5-2.5,3,1,4.8,1,7.1c4.6,3.3,4.1-1.9,7.8.2.8-3.5-2.5-1.2-3.8-2.1-4.1-2.7,2.8-11.9,1.8-12.9ZM512,399l-4,1v2c1.8.2,2.9,0,4-1.5v-1.5ZM520,399l-7,1,.9,3.9c-3,.5-4.4,3.1-3.7,5.9s2.6,1.3,2.8,3.2c-2.9-.7-4.6,2.3-5,5l7.5-.9c1.4-2.3-1.2-5.9,2.5-6.6v-2s-2-1.5-2-1.5c2.8.6,4.8-7.1,4-8ZM528,400h-4s2,3,2,3l-5-1c-.4,2.7,0,2.5,2,3.5v1.5c-3,.3-4.2,3.7-3,6.2s2.7-.2.9,4.8c2.6,1.1,6-2,6.3-2,3.9.2,10.5,2.3,14.1,4,3-7.3,9.3-5.1,15.5-4l-1.9-9.6-7.4.7-2.6-2.1c-1.3,3.2,3.1,2.7,2,5.5s-3.4,1.7-5,1.5l2-3c-1.9,0-4.4.2-5-2,4-.2,3-3.9,3-7l-3.9,6.5c-3,.3-4.2-1.2-5.5-3.5l-4.5,4v-7ZM534,400h-2v2h2v-2ZM557.9,401.1l-4.9-1.1v4s5,0,5,0v-2.9ZM627,402h-2v2h2v-2ZM674.9,405.1l-4.9-1.1,3.6,2.9-.6,4c3.5.8,1.8-4.1,1.9-5.9ZM626,407h-2s0,4,0,4h3s-1-4-1-4ZM618,415c-1,.2-3.4.2-4.3,0s-1.1-3.9-2.7-2,6,15.8,7,2c3.8-.6,4.2-3.4,1.5-6-2.6-.4-1.4,4.4-1.5,6ZM624,420c4.1,0,4.1-5.1,0-5v5ZM530,418h-2v2h2v-2ZM615,422c-1.6-1.6-4.6,1.4-3,3s4.6-1.4,3-3ZM620,425l-5,5c2.7.6,5.6-2.4,5-5ZM687,444h-2v2h2v-2ZM692,449l-5.6,1-1.4,13h3.9c0-.1.6-3,.6-3l8.5,2c0-6.1-9.8-4.9-6-13ZM623,458c0,3.3-3.2,3.5,2.1,4.6v5.4c-.1,0,2.9,0,2.9,0l-.5-6.9c-1.2-2.1-2.7-2.3-4.5-3,0-1-.6-8.3-3-6-2.3,6.5-.5,4.5,3,6ZM617,455h-3v2h3v-2ZM616.5,459.5c-2-2-1-.7-4.5-.5l4,4.5-5-.5c-1.3,1.1,4.2,6.1,6.1,3.4,1-3.5,1.9-4.3-.6-6.9ZM623,466c-1.6-1.6-4.6,1.4-3,3s4.6-1.4,3-3ZM697,468c0-.6.1-1.3,0-2-2.1-.3-2.3,0-2,2,.6.1,1.4-.1,2,0,.3,1.8,1.5,3.3,3,2v-2c-1-.2-2.1.2-3,0ZM690,467c-5.5-.9-1.9,2.8-2.2,6.3s-2.1,4.3-2.4,6.4-.3,7.2-.2,7.6c1.2,7.1,17,8.1,12.8-1.3l-2,3c-5.9-1.6-2.2-4.5-3.4-6.1l-3.6-.9c.2-4.3,2.5-4.7,6.1-5.6v-7.4c0,0-5.1,2-5.1,2v-4ZM631,469h-2v2h2v-2ZM621,502c.1-1.6.1-3.3-.1-4.9h-4.9c0-.1,0-4.1,0-4.1,2.9,3.6,8.3.8,6.9-3.4s-6.9-2.7-1.9-9.6c6.6,5.1,5.3-2.4,2.9-6.9l-4.9,1.9c-.2-3.6-3.1-3.2-6-3,2.3,4.2-1.4,5.8-1,10l5-4c-1.9,3.6-1.1,6.8,1,10-1,0-2.5-.5-3.1.6s-3.5,12.3-2.8,13.2c4.8,3.2,5.2,1.1,8.9.2,0,.9-1.4,3.6-1,4l4.5,2,2.5-7c-2.1-.2-4,.5-6,1ZM698,483l-1-3.5-3-.5c-1.1.8,3.2,5.1,4,4ZM628,494h-4v2h4v-2ZM686,495c-2.6-.6-1.5.6-2.5,2.1l-3.4-1.1c1.6,7.3-3.5,6.4-4,7-2.1,2.1,5.7,5.8,3,9h4.9c0,0,0-3,0-3l3,1-.7-3-2.2-1c3.7,1.7,5.3-1.9,5.7-2,3.1-.7,7.6.7,10.3-2.5l-4-1.5,1-3c-3.1-.7-2.6,3.5-3.9,4.6-4.7-.4-9.6-.9-7.1-6.6ZM644,500c-5.6-1.6-5.3,3.8-10,4l.6,2c4.6,2.9,2.8-2.2,6.4-2,0,1.8.9,3.3.6,5.1s-3.7,1.7-2.6,4.9c1.3,0,2.8.3,4-.5s3.8-5.7,4-6c.6-1.4-4-2.8-5-3.5l2-4ZM654,501h-3v2h3v-2ZM662,501h-2v2h2v-2ZM672,501c-2.9-.3-4,3.4-6,4.4s-8.5.5-11,1.6l4.1,2.6-1.1,6.4,7-2-2-4.5,1.5-2.5c2.6,2.8,5.2,1,8.5,1l-1-7ZM654,507l-3.5,1-.5,3,3.5-1,.5-3ZM693,507l-3,.6v4.4c3.9.7.7-2.1,1.2-2.9s2.7.6,1.8-2.1ZM675,509c-6.2-1.1-1.2,4.3,0,3v-3ZM700,510h-2v2h2v-2ZM637,514c1.3-1.2-2.6-4.3-4-3s2.6,4.3,4,3ZM693,513h-5c0,0,0,3,0,3-.2.3-4.6-4.9-5,1l9.3-1,.7-3ZM679,514h-2s0,1.5,0,1.5l1.5,1.5.5-3ZM700,517c-.8-2.1-2.7-3.4-5-3v3s5,0,5,0ZM614,528h-2v3h2v-3ZM619,556c2,.3,6.3-.5,6.9-2.7l-1.9-5.3c1.7-.3,3.4-.9,3-3l-4.5-3-.5,2h-5c.7-4.1,3.6-4.4,7-3,0-4-4.2-3.4-7-2l-2-4c3.3,6.9-4.8,8.3-2.7,13.7.1.3,4.6,3.7,5.4,4.6s.2,1.4.3,1.7l-3.6.9-.4,6.1,2.5-5,2.5,4v-5ZM628,558h-3s0,2,0,2h1.5s1.5-2,1.5-2ZM624,562h-2v2h2v-2ZM618,565h-2v2h2v-2ZM615,568h-2v3h2v-3ZM517,593h-2v2h2v-2ZM610,593h-6s1.5,6,1.5,6l.5-4,4,1v-3ZM509,594h-3s2,6,2,6l-7-2c.3,12.3,4.4,5.2,12,7v-5.9s-3.9-1.2-3.9-1.2v-3.9ZM528,594h-4s2,4,2,4l2-.5v-3.5ZM561,598c-1.1,0-2.8.7-4,1v-3s-2,0-2,0v3s2,0,2,0c-.1,0-.3,1.7-2.4,1s-.9-3.6-4.5-1.9l-1.1,4.9,6.4,1c2-3.5,4.3-2.2,5.6-6,.9,0,2.8,1.2,3,1v-5c-2.8-.7-2.4,2.3-3,4ZM597,595l-6,4.5,4.1,1.1,1.9-5.6ZM547,602c.3-2.8-4.9-8-7-6s2.9,3.9,2.1,5.8l4.9.2ZM603,596h-3s0,5,0,5h3s0-5,0-5ZM497,597h-2v2h2v-2ZM538,597h-4v2h4v-2ZM529,600c-3.5.2-4.8,3.1-3,6l-6.5-2-4.5,4.6,5.5,3.5,2-5,9.5,5,1-6-3.9-1.2v-4.9ZM565,600c-3.5-1-1.2,3-2.1,4l-2.7.2-.2,3.9,5.6-1-.6-7ZM571,603c.3-1.9-1.2-3.3-3-3v3s3,0,3,0ZM607,602c-1.6,1.4-5.6,0-5.9.1-1.3.8-1.8,6-8.1,3.9v4s5-3,5-3c.5,1.8.3,4.7,3,4v-4c3.7.9,5.4-1.5,6-5ZM539,603h-2v2h2v-2ZM514,610c1-1-2-4-3-3s2,4,3,3ZM615,607c-3.6-3.2-4.2,6.5-.5,2s.8-1.8.5-2ZM609,609l-6-1v2.9s4.4.9,4.4.9l1.6-2.8Z"/>
      <path class="st6" d="M619,556l-1-1,1,1Z"/>
      <path class="st13" d="M661,422c.3,0,.7,0,1,0,.7,0,1.3,0,2,0s.7,0,1,0h13c.3,0,.7,0,1,0,0,2.7,0,5.3,0,8s0,2.3,0,3c0,2.7,0,5.3,0,8s0,2.9,0,4c0,2,0,4,0,6s-.7.4-.7,1.2.7.6.7.8v2c-1.7,5.4-1.7,13.6,0,19,0,.7,0,1.3,0,2-1.7,2.9-1.7,9.3,0,12,0,1,0,2,0,3s0,.9,0,1c0,.7,0,1.4,0,2h-1c-10.2,1-21.3-.9-31-1l2.5-6,3.5,3-2-3.5,1.8-.6.2-6.9-3-1c1.3,0,2.1.5,3-.8,2.4-3.6.8-3,1-5.2s.9-.4,1-1c2.4-12.9,1.2-28.2,1-41.5,0-1.7.6-4.4-1-5.5,0-.7,0-1.3,0-2,2,0,4,0,6,0ZM651,490h-1.5s-1.5,2-1.5,2h3s0-2,0-2Z"/>
      <path class="st6" d="M524,123l33,1c.6.6-.4,14.8,0,17.6s1,2.3,1.1,2.4c.1,1.1.7,3.2,1,5h-1c-20.5.2-41-.3-61.5,0-1.7,0-4.4-.6-5.5,1-.3,0-.7,0-1,0v-25c9.4-1.3,19.1-.6,28.6-1,1.3,0,2.3-1,2.4-1,1,0,2,0,3,0Z"/>
      <path class="st7" d="M608,152c-1.6,7.5-1,15.3-1,23h-47c-.9-.9,1.4-12.9-1-15,0-2.7.1-5.3,0-8h49Z"/>
      <path class="st20" d="M653,176c-.6,8.5,1.2,17.8-1,26-6,0-13.9-.8-19,0-6.5-.5-13.8,1.2-20-1,.1,0,.6-.7,1.5-1,2.5-.7,5.2,1.6,6-2,1,0,0,1.5.9,1.8,3.5,1.4,17.1-.5,22-.6s5.6,1.4,8.5.8v-20c0,0-1.1.2-1.6-.4s-.3-1.6-.4-1.6h-41v19.5c0,0,3,1.1,3,1.1l-3,3.5h-1c-.2-.2.1-.7,0-1v-3c0-.7,0-1.3,0-2,0-5.7,0-11.3,0-17v-2c1.8,0,3.5.4,5-1h40Z"/>
      <path class="st10" d="M678,422h-2c1.7-6.4,1-13.4,1-20s0-2,0-3c0-17.7,0-35.3,0-53,0-3.7,0-7.3,0-11s0-8,0-12,0-.7,0-1c0-2.3,0-4.7,0-7s0-1.3,0-2c0-1.3.5-3.3-1-4,0-.3,0-.7,0-1,1.1-10.3,0-16.5,0-26s0-.7,0-1,1.6-3.5,2-4v145Z"/>
      <path class="st23" d="M607,176v1c-3.1,0-5.6.9-8.5,1-13,.5-26-1.3-38.9,0-1.1.1-.5-1.3-.6-2,14.4-.6,29.2.8,43.6,0s2.5,0,3.4-1.1h1v1Z"/>
      <path class="st2" d="M488,151c0,3.7,0,7.3,0,11,0-.1-.9-1.2-1-2.4-.3-2.4.2-5.1,0-7.6h-45c-1,7,1.3,17.5,0,24s-1.7,1.6-2,3l-46-1v24c-.3,0-.7,0-1,0-.2-8.3.1-16.7,0-25,6.5-1,44.3,1.7,47-1s.2-20.3,1-25h47Z"/>
      <path class="st2" d="M502,123c6.3,0,12.7,0,19,0-.1,0-1.1,1-2.4,1-9.5.3-19.2-.4-28.6,1v25c-.3,0-.7,0-1,0h-1c.3-9,1.6-18,1-27,4.3,0,8.7,0,13,0Z"/>
      <path class="st10" d="M680,424v71c-.2.1-.6,0-1,0,0-.3,0-.7,0-1,0-.6,0-1.3,0-2v-1c0-1,0-2,0-3,0-4,0-8,0-12s0-1.3,0-2c0-6.3,0-12.7,0-19v-4c0-2,0-4,0-6v-4c0-2.7,0-5.3,0-8v-3c0-2.7,0-5.3,0-8,.3,0,.7,0,1,0v2Z"/>
      <path class="st2" d="M535,123c7.7-.1,15.4,0,23,0v21c0-.1-.9-.9-1.1-2.4-.3-2.8.7-17,0-17.6l-33-1c3.7,0,7.3,0,11,0Z"/>
      <path class="st2" d="M724,226c.7,0,1.3,0,2,0v24s-22,0-22,0c0-.6,1-.9,1-1h2c6,0,12,0,18,0,0-1.7,0-3.3,0-5s0-2.7,0-4c0-4-.1-9.4-1-13v-1Z"/>
      <path class="st2" d="M702,276h-23c3.2-1.9,9-.8,13-1s1.3,0,2,0c2.4-.1,4.7-1.1,7,0,.8-6.9-1.5-16.8,1-23v24Z"/>
      <path class="st10" d="M677,202c8.3-.2,16.7.2,25,0v23h-1c-.5-4.9.2-10.9,0-16s0-1.3,0-2c0-1.3,0-2.7,0-4l-24-1Z"/>
      <path class="st19" d="M724,226v1c-2.8,1.6-6,.9-9,1s-.7,0-1,0c-1,0-2,0-3,0s-1.3,0-2,0c-2.7-.2-5.3-.2-7.9-1.1-.4-.4,0-1.3-.1-1.9h1c6.6,2.1,14.8.7,22,1Z"/>
      <path class="st3" d="M535,123c-3.7,0-7.3,0-11,0s-2,0-3,0c-6.3,0-12.7,0-19,0,1-1.7,3.8-1,5.5-1,7.3,0,14.7,0,22,0s4.4-.6,5.5,1Z"/>
      <path class="st19" d="M701,422v1c-3.2,1.5-7.5,1.2-11,1s-2.7-.8-4-1v-1c3.4,0,12.7-.7,15,0Z"/>
      <path class="st11" d="M702,276v-24c.3-.6-.2-1.5,1-2-.6,8.4,1.3,17.9-1,26Z"/>
      <path class="st10" d="M676,202c-.9,0-3.6.9-6,1s-1.3,0-2,0c-4.3.1-8.7,0-13,0h-2v-1c.3,0,.7,0,1,0h22Z"/>
      <path class="st12" d="M613,176c-1.5,1.4-3.2.9-5,1s-.7,0-1,0v-1h6Z"/>
      <path class="st18" d="M559,151h-1c-.3,0-.7,0-1,0l1-2h1c0,.6,0,1.3,0,2Z"/>
      <path class="st19" d="M407,569c.5,0,1-.4,1-1,.3,0,.7,0,1,0,4.4.7,4.9,0,8,0,0,.7,0,1.3,0,2h-23v20.5c0,.3-1.3,1.5-1,2.5h-23v21l-1,1c-11.8,0-23.7.8-35.5.8s-24.4-2-34.5-.8c-.3-.3-.7-.6-1-1l71-1c.8-7-1.8-16,1.5-22h22.5v-22c4.4-.6,9.8.2,14,0Z"/>
      <path class="st6" d="M417,250v1c-1.7,7.2-1.7,17,0,24l1,1c.5,1,1.4,1,2.4,1.1,10.6,1.2,28,.3,39.2,0s4,1,3.5-2c.7,0,1.3,0,2,0,.2.4,1,.8,1,1,.2.8,0,2,0,3-1.7,1-1,3.8-1,5.5,0,2.8-.7,14.7,1,15.5.3,0,.7,0,1,0,.5,1.6,12.1,1.7,14,0,.3,0,.7,0,1,0,1,1.7,3.8,1,5.5,1,7.2,0,14.4,0,21.5,0h1c.1,5-.2,10,0,15s-.2,6.1,1,9h-8c-3.3,0-6.7,0-10,0s-2,0-3,0-.7,0-1,0c-7.8.2-15.5,0-23,0v-24h-49c0,6.4,0,12.9.3,19.2s1.7,4.6,1.7,5.8-.8.8-.7,1.5c.1,4.4-1.5,20.3.7,22.5,3.7,3.7,18.8-2.6,22,4v4l-2.1,7.5v7.4c.7.3,1.8-.1,2.1,0,3,1.8,4.8,3,8.8,1.7l.7-1.8c.9,0-.2,3.2,2.5,2l.5-3,33.9,1.9.6,21.1-70,1c-.4-6.9,1.5-16.7-1-23s.6-1.9-.6-2.1h-6.4c0,0,0,2.1,0,2.1-.7,0-1.3,0-2,0v-2c-1.9-.8-3.1.8-4,1-1.3.3-2.7.8-4,1v-2s-6,0-6,0c-1.6-31,1.2-63.4,0-94.5-.2-3.3-8.1-4.5-5,.5-5.2-.3-13.6,1-18,0-.6-3,1.5-1.9,3.5-2,3-.1,6,.1,9.1,0s3.7.8,3.5-1h-16l-1-23c0-.3,0-.7,0-1,15.7,0,31.3,0,47,0Z"/>
      <path class="st6" d="M442,176c1.3-6.5-1-17,0-24h45c.2,2.5-.3,5.1,0,7.6s1,2.3,1,2.4c.3,4.3.5,10.2-1,14-4.6.2-9.4-.2-14,0s-2,0-3,0-1.8,1-2,1c-4.3.2-8.7,0-13,0h-1c-3,0-6.1.2-9,0l-3-1Z"/>
      <path class="st6" d="M440,179c-.2,1.1,0,2.7,0,4-.4,6.2.3,12.8,0,19-2,0-4,0-6,0,.4-3.5-1.1-1.4-2.8-1.3-6.6.4-13.1,0-19.8.3s-4-1-3.5,2c-3.7,0-9.6-1-14-1v-24s46,1,46,1Z"/>
      <path class="st6" d="M555,325c.7,0,1.4,0,2,0-.2.7-2.3.8-2,1.5,5.8,4.7,1.3,14.8,3,21.5h-45c.7-6.4-.9-14.3,0-20.5s1-1.5,2.1-2.5c13.1-.7,27,.9,40,0Z"/>
      <path class="st23" d="M657,251c-.8,0-1.6-.3-2,.7l-1.5,24.3c-1.3,1.9-9.6,0-12.6,0h-4c-1,0-2,0-3,0s-2,0-3,0l1-26h22.6c0,0,1.5-1.3,1.5-1.3l.9,2.3Z"/>
      <path class="st23" d="M608,277l-1,23c-5.7,0-11.4,0-17,0s-4.7,0-7,0v-24c8.6-.1,16.6-.2,25,1Z"/>
      <path class="st20" d="M559,247c.2.8-.2,2.1,0,3,12.3.1,24.7-.2,37,0,3.7,0,7.3,0,11,0v26c1.3,0,2.7,0,4,0-.2,1.2-2.1,1.1-3,1-8.4-1.2-16.4-1.1-25-1s-16.9,2.8-24,0l-1-26c-8.7,0-17.4.1-26,0s-7.3.1-11,0c3.8-2,9.5-1,13.5-1h20c1.3,0,3.4-1.2,4.5-2ZM606,252l-46-1v22.5c.9,1.4,2,1.4,3.4,1.6,6.6.8,15.6,0,22.2-.9l20.4.9v-23Z"/>
      <path class="st15" d="M369,250c.3,0,.7,0,1,0,0,.3,0,.7,0,1-.4,3,0,6.8,0,10s0,.7,0,1c0,1.7,0,3.3,0,5s0,1.9,0,2c0,1,.1,2.1,0,3s-1.4.9-1,2v1c-2.7-4.9,0-16.9-1-23h-20v63c0-.9-1.4-4.9-2-6,0-19.7,0-39.3,0-59,7.7,0,15.3,0,23,0Z"/>
      <path class="st6" d="M559,324c2.5-3,0-22,1-23,7.8.2,15.7-.3,23.6,0s4-1,3.5,2c-2.7.6-3.4.9-3,4h1.5s2.5-4,2.5-4c.7,0,1.3,0,2,0,.5,6.3,2.3,4.8,3.8,7.7s1.3,4.8,2.2,6.8c-1.2,1.9-2.3.8-4,.5,0,1.7.5,3.2-1.5,3l-1.5,4h-30s0,24,0,24c-5-.2-3.4,1.8-5.4,2.1-3.8.5-6.7-.9-9.6-1.1-8.4-.5-19.3-1.4-27.5-1s-4-1-3.5,2c-.4,0-1.4-1.8-2-2v-24c-1.2-2.9-.9-5.9-1-9l2-2c.2,3.6-.1,7.4,0,11,1,0,2.1.1,3,0-1.1.9-1.9.7-2.1,2.5-.8,6.2.7,14.1,0,20.5h45c-1.7-6.7,2.8-16.8-3-21.5-.3-.7,1.8-.8,2-1.5.9-.1,1.9.3,2-1Z"/>
      <path class="st19" d="M558,149l-1,2c-1.3,0-2.7,0-4,0l-.5-1-.5,1c-1.3,0-2.7,0-4,0l-.5-1-.5,1c-6,0-12,0-18,0s-.7,0-1,0c-6.7-.1-16.2-2.8-23,0h-2c-3-1.8-8.2-1-12-1,1-1.7,3.8-1,5.5-1,20.5-.3,41,.2,61.5,0Z"/>
      <path class="st19" d="M393,203c0,.1,1,1.1,1,2.4.2,6.9-.5,13.7-.2,20.5l-23.9,1.1c.2-.5-.6-1.9.6-2.1h21.4c0,0,0-21.9,0-21.9h1Z"/>
      <path class="st24" d="M511,225c1-1.7,3.8-1,5.5-1,12.5-.2,25.6-.4,38.1,0s4-1,3.5,2c-.5-.1-1.4,0-2,0s-.9,0-1,0c-5.9-.4-11.1,0-17,0l-.5-1-1.5,1c-7,0-14,0-21,0l-3-1h-1Z"/>
      <path class="st20" d="M583,300c2.3,0,4.7,0,7,0,0,1,0,2,0,3-.7,0-1.3,0-2,0s-.7,0-1,0c.6-3-1.5-1.9-3.5-2-7.8-.3-15.7.2-23.6,0-1,1,1.5,20-1,23,0-1.7,0-3.3,0-5,.3-6.3-.2-12.7,0-19l1-1c5.2,1.2,10.1-.2,15.5,0,2.5,0,4.8,1,7.5,1Z"/>
      <path class="st24" d="M559,226l1,1.5v21.6s36,1,36,1c-12.3-.2-24.7.1-37,0-.2-.9.2-2.2,0-3-1.8-7.4.4-12.5,0-20v-1Z"/>
      <path class="st20" d="M559,160c2.4,2.1,0,14.1,1,15h46c-.9,1.1-2.1,1-3.4,1.1-14.4.7-29.2-.7-43.6,0-.6-4.6,0-11.1,0-16Z"/>
      <path class="st27" d="M512,226v1c0,7.1-.1,14.2.1,21.4l1.5,1.5c2.4.4,4.9,0,7.4.1,3.7.1,7.3,0,11,0v1c-3.7,0-18.9,1.7-20.5,0-2.8-2.8.8-21.4-.5-26h1v1Z"/>
      <path class="st24" d="M532,250c8.7.1,17.4,0,26,0l1,26c-.5-.2-1.8.6-2-.6l-.9-23.9c-1-.7-20.8-.5-24.1-.4v-1Z"/>
      <path class="st20" d="M655,203v4c0,6,0,12,0,18,1.3,0,2.7,0,4,0s1.7,0,2,1c-2.7,0-5.3,0-8,0v-23h2Z"/>
      <path class="st19" d="M555,226h1c.6,0,1.5-.1,2,0s.8-.1,1,0v1h-47v-1h3c7,0,14,0,21,0s1.3,0,2,0c5.9,0,11.1-.4,17,0Z"/>
      <path class="st20" d="M463,275c.6,3-1.5,1.9-3.5,2-11.1.4-28.6,1.2-39.2,0s-1.8,0-2.4-1.1h10c6.7,0,13.3,0,20,0s1.3,0,2,0c2,0,4,0,6,0s2,0,3,0,.8-1,1-1c1,0,2,0,3,0Z"/>
      <path class="st24" d="M417,250c-15.7,0-31.3,0-47,0h47Z"/>
      <path class="st18" d="M528,151c-7,1.7-16,1.7-23,0,6.8-2.8,16.3-.1,23,0Z"/>
      <path class="st24" d="M555,325c-13,.9-26.9-.7-40,0,8.6-1.4,18.6-1.4,27.5-1.4s9.2,0,12.5,1.4Z"/>
      <path class="st24" d="M445,177c2.9.2,6,0,9,0s.7,0,1,0c4.3,0,8.7.2,13,0v1c-8.2.8-17.6-.6-26,0l-2,5c0-1.3-.2-2.9,0-4s1.9-2.7,2-3l.5,1c.8,0,1.7,0,2.5,0Z"/>
      <path class="st20" d="M408,203c-.6-3,1.5-1.9,3.5-2,6.6-.2,13.1.1,19.8-.3s3.2-2.2,2.8,1.3c-8.5.3-17.6,1-26,1Z"/>
      <path class="st24" d="M583,298v2c-2.7,0-4.9-1-7.5-1-5.5-.1-10.4,1.2-15.5,0h-1c7.5-2.3,16.2-.4,24-1Z"/>
      <path class="st24" d="M547,151h1c1.3,0,2.7,0,4,0s.7,0,1,0c1.3,0,2.7,0,4,0s.7,0,1,0c-1.1,2-2.1,1.4-3.8,1.3-6.6,0-13.1-.2-19.7-.3s-4.4.6-5.5-1c6,0,12,0,18,0Z"/>
      <path class="st20" d="M417,275c-1.7-7-1.7-16.8,0-24,.9,8.1.1,15.8,0,24Z"/>
      <path class="st18" d="M491,150c3.8,0,9-.8,12,1-4,2.2-9.5.5-14,1v-2c.3,0,.7,0,1,0s.7,0,1,0Z"/>
      <path class="st18" d="M487,176c-.2.4.3,1.3-.1,1.9-4-.4-11.3,2-13.9-1.9,4.6-.2,9.4.2,14,0Z"/>
      <path class="st20" d="M509,300v1c-7.2,0-14.3.1-21.5,0s-4.4.6-5.5-1c8.7,0,18.5.6,27,0Z"/>
      <path class="st24" d="M633,202c-.1,0-.4.8-2.4,1-4.6.6-15.5.5-20.2,0s-1.9,0-2.4-1.1h1c1.6.4,2.9-.7,4-1,6.2,2.2,13.5.5,20,1Z"/>
      <path class="st24" d="M467,300c-.3,0-.7,0-1,0-.2-7,.2-14,0-21s.2-2.2,0-3c3.1,3.7-.1,18.6,1,24Z"/>
      <path class="st20" d="M631,276c1,0,2,0,3,0-5.6,2.2-12.5.5-18.5,1s-3.9,4.7-3.5-1c6.3.3,12.7-.1,19,0Z"/>
      <path class="st20" d="M512,301c-.2,5.2-.3,7.7,0,13l-2,2c-.2-5,.1-10,0-15,.7,0,1.3,0,2,0Z"/>
      <path class="st23" d="M448,276c-6.7,0-13.3,0-20,0,5.8-1.7,14.3-1.7,20,0Z"/>
      <path class="st20" d="M679,245c.3-6-.2-12,0-18,1.8,1.8,1.5,14.9,0,18Z"/>
      <path class="st12" d="M608,196c-1.7-4.7-1.7-12.4,0-17,0,5.7,0,11.3,0,17Z"/>
      <path class="st20" d="M481,300c-1.9,1.7-13.5,1.6-14,0,4,.5,9.7,0,14,0Z"/>
      <path class="st24" d="M559,319c0,1.7,0,3.3,0,5-.1,1.3-1.1.9-2,1,.4-1.4-.3-4.3,0-6h2Z"/>
      <path class="st20" d="M674,226c-3.7,0-7.3,0-11,0,3-2.6,7.8-.5,11,0Z"/>
      <polygon class="st23" points="424 276 418 276 417 275 424 276"/>
      <path class="st23" d="M456,276c-2,0-4,0-6,0,1-1.6,5.1-1.6,6,0Z"/>
      <path class="st6" d="M509,300c.3,0,1.6-1.6,3-1,0,.7,0,1.3,0,2-.7,0-1.3,0-2,0h-1v-1Z"/>
      <path class="st18" d="M470,176v2c-.7,0-1.3,0-2,0v-1c.2,0,1.1-1,2-1Z"/>
      <path class="st12" d="M608,201c-1.3-3,0-2.1,0-3v3Z"/>
      <path class="st20" d="M679,250c0-1,0-2,0-3,1.5,0,1.5,2.9,0,3Z"/>
      <polygon class="st18" points="559 300 559 299 560 299 559 300"/>
      <path class="st18" d="M466,276c0-.2-.8-.6-1-1l1,1Z"/>
      <path class="st23" d="M459,276l1-1c-.2,0-.7,1-1,1Z"/>
      <path class="st12" d="M607,398c.6,7.4-1.3,15.9,1,23,0,.3,0,.7,0,1-1.7,1.3-1.7,5.7,0,7,0,13.7,0,27.3,0,41-1.7,1-1,3.8-1,5.5-.1,9,0,18,0,27s-.6,4.4,1,5.5c0,7.6-.8,15.8,1,23v4c-.2.8-.8,1-1,3s0,6.3,0,9-.2,5.4,0,8-.2,2.3,0,3,.9.7,1,1v2c-2.9,7.6.5,19.5-1,27.5s-.3,2-1.6,2.4c-43.8.2-87.6.1-131.4.1h-1c-1-1.7-3.8-1-5.5-1-7.9,0-16.9-.7-24.5,1h-27c-.8-5.9,0-14.7,0-21s0-1.3,0-2c11.7.3,23.1.9,35,1s30,0,45,0c22.6,0,45.4.2,68,0s11.6,0,17.5,0c1.2-.3.3-2.7.5-3.1s2.1.5,2-.5l-2-.5v-3l2-.5-2-.5v-4l2-.5-2-.5c0-1.3,0-2.7,0-4l2-.5-2-.5c0-1.3-.2-2.9,0-4,0-.3.9-.7,1-1,.2-1,0-2.8,0-4v-1c1.7-4.6,1.7-12.3,0-17,0-.7,0-1.3,0-2l1-.5-1-6.5c0-.7,0-1.3,0-2s0-.7,0-1c0-2.7,0-5.5,0-8s0-4.7,0-7,0-.7,0-1c1.9-4.2,1.1-13.4,1-18.5s.6-4.4-1-5.5c0-.3,0-.7,0-1,0-2.8.8-7-1-9,0-1.7,0-3.3,0-5l2-.5v-1.5s-2,0-2,0c0-2,0-4,0-6l2-.5v-1.5s-2,0-2,0c0-1,0-2,0-3,1.8-2.3,1-6.9,1-10s.3-5.7,0-8-.5-.9-1-1c0-.3,0-.7,0-1,0-.7,0-1.3,0-2-.2-7.7-.5-15.3,0-23,.1,0,1.1-1,2.4-1,7.2-.2,14.4.2,21.6,0Z"/>
      <path class="st27" d="M466,325c7.5,0,15.2.2,23,0l.5,1,.5-1c1,0,2,0,3,0,2.5,1.1,9.1,3.1,10,0h2c2.6,1.7,5,.5,5,4.5v20.5c.5,0,.9-1,1-1,.6.2,1.6,2,2,2,1.3.1,6.1,0,8.5,0,7.1.3,15.8.5,22.5-1,2.9.2,5.8,1.6,9.6,1.1s.4-2.3,5.4-2.1c7.9.3,15.9,1.5,23.9,1.1,2,7.2-.9,15.3,1.1,22.9-2.3,0-4.7,0-7,0h-4c-1.7,0-3.3,0-5,0s.3-.9-1.6-1-4.6,1.1-6.9.3l-1.5,1.2v22.5l-35,1c-11.7,0-23.3,0-35,0v-2l-.6-21.1-33.9-1.9-.5,3c-2.7,1.2-1.6-2.1-2.5-2l-.7,1.8c-4,1.3-5.8,0-8.8-1.7l4-.5-2.9-1c1.1-2.8-2.3-8.9,1.9-8.6v-1c-4.5.1-.4-8.4-1.4-11.5l-1.6-1.5-22,1c-2.2-2.2-.6-18-.7-22.5s.7-1.3.7-1.5c15.5-1.6,31.4-1,47-1Z"/>
      <path class="st6" d="M417,570c0,6.3-.8,15.1,0,21s-.5,2.1.6,2c11.7-.1,23.3,0,35,0s3.2-1.1,3.4-1.1c.5,0,2,1,3.5,1,4.2,0,8.4,0,12.5,0-.1.1.6,1.3-.6,2.1s-6.2,1.7-6.4,1.9c.5,3.6,3.3,6.3,1,10h4.3c4.4-5.5-.7-3.4-1.2-4.1-1.3-1.6.2-6.2,2.8-3.1l.5,1.2c.6-4,5.7-1.5,4,1s-7.6,5.8-.6,3.5,4.1-3.6,4.1,0c0,5.5-1,5.6-5,8.5-35,0-70,0-105,0v-21h23c-.3-1,1-2.2,1-2.5v-20.5h23ZM465,607l-.5-2-1.5,2h2Z"/>
      <path class="st23" d="M589,325c1.2.9,2.7,0,4,0l13,1c-.6,2.8-.2,5.7,0,8.5s-1.2,4,2,3.5c0,.3,0,.7,0,1,0,1,0,2,0,3s-1.7,3,0,5v4c-1,.9,0,1.8,0,2,0,1,0,2,0,3s0,1.5,0,2c0,2.7,0,5.3,0,8s-1.9,4,0,7c-8,0-16,0-24,0-2.1-7.5.8-15.6-1.1-22.9-8,.3-16-.8-23.9-1.1v-24s30,0,30,0Z"/>
      <path class="st6" d="M623,424h-2s0-2,0-2h2s0,2,0,2c2.4.6,5.5-1.8,7-2s.7,0,1,0c.7,0,1.3,0,2,0,.8,2.6,2,1.2,3.6,1.2,5.3-.1,11.5.6,16.4-1.2.3,0,.7,0,1,0v49c-4,.2-8.1-.3-12,0,1.7-5.3-6.6-2.7-7-3s-.1-4.4-2-5.5-2.8.9-3.6-.4c-2.4-3.9,2-5.5,2.5-9.1-2.1-1.5-5,.3-6.3,0s-.9-2-1.7-2.5c-1.7-1.1-4.8-.6-6.5-2.5l-1.5,6c-6.3-1.5-2.2-7-4-12l4,1-3-6,10-1c-4-4.4-1-8,0-12Z"/>
      <path class="st23" d="M655,300v50h-17.5c-.7,0-3,1.9-4.4.9l-2.1-50.9h24Z"/>
      <path class="st1" d="M654,374c.1,6-.1,12,0,18s0,1.3,0,2c.3,9,.9,17.9,1,27s0,.7,0,1c-.3,0-.7,0-1,0s-.7,0-1,0c-6.5.1-13.6-.4-20,0s-1.3,0-2,0c.2-16-.3-32,0-48,7.5.5,15.7-.7,23,0Z"/>
      <path class="st26" d="M562,422c0,.2-1.1,1.6-1.1,3.4-.2,20.4,2.4,47.8.1,67.2-.2,1.5-.1,2.6-1.6,3.4h-118.5c.1,7,0,14,0,21s0,1.3,0,2c-22.6,0-46.1-.9-68.5,0-1.9,0-4-1-3.5,2,0-.3-1.1-1.3-1-2,.2-.5-.6-1.8.6-2h71.4s0-21.5,0-21.5c.9-1.4,2-1.4,3.4-1.6,9.3-1.1,22.7,0,32.6,0s18,0,27,0,8,0,12,0c9.7,0,19.3,0,29,0s1.3,0,2,0,1.3,0,2,0c3.7,0,7.3,0,11,0v-71l-71-1c0-.3,0-.7,0-1h72c0-.7,0-1.3,0-2,.8.6,2,2.1,2,3Z"/>
      <path class="st11" d="M583,399c-.5,7.7-.2,15.3,0,23h-21c0-.9-1.2-2.4-2-3,.6-6.4-.4-13.5,0-20,7.6-.2,15.4.3,23,0Z"/>
      <path class="st6" d="M629,569c0,11.1.6,22.2,1,33s0,4.7,0,7l-2.5-2c-.8,2.1-1,2.4-3.5,2v2s-3,0-3,0v-2s3,0,3,0c0-4.4-6.2-2.3-5-7l-6,1v-3.8c.1,0,8-1.7,8-1.7.5-3.2-3-.2-4-.9-4.3-3,.1-15.1,2.1-19.1l-4.4-1.5-.6-2c1.6.4,2.1-2,2.6-2,3.6-.1,3.7,2.9,6.4,3v-4.9c.1,0,6-1.1,6-1.1Z"/>
      <path class="st25" d="M640,472c4.6-.2,9.4.1,14,0-.3,2.2,1.4,1.7-1,5.2s-1.7.8-3,.8l3,1-.2,6.9-1.8.6,2,3.5-3.5-3-2.5,6c-.4,0-1.5,1-2.6,1h-11.4s-1-1-1-1c0-.3,0-.7,0-1-.3-4.6,0-9.4,0-14v-5c3.5-1.3,4.5-.8,8-1Z"/>
      <path class="st6" d="M528,400v7s4.5-4,4.5-4c1.4,2.3,2.5,3.8,5.5,3.5l3.9-6.5c0,3.1,1,6.8-3,7,.6,2.2,3.1,2,5,2l-2,3c1.6.2,4.3.3,5-1.5,1.1-2.7-3.2-2.3-2-5.5l2.6,2.1,7.4-.7,1.9,9.6c-6.3-1.1-12.5-3.2-15.5,4-3.6-1.7-10.2-3.9-14.1-4s-3.8,3.1-6.3,2c1.7-4.9-.2-3.3-.9-4.8-1.3-2.6,0-5.9,2.9-6.2v-1.5c-2-1-2.4-.8-2-3.5l5,1-2-3h4ZM524,416l.5-3-1.5,1.5v1.5h1Z"/>
      <path class="st6" d="M677,255c0-1.4.8-2.9,2-3.5,5.4-2.6,6.9,4-2,3.5.2,3.5,3.3,9.8,7.5,10s-3.8-6.3-2.5-8c2.6-.9,1.7,1.4,2.1,1.7s4.7-1.4,4.9,2.8l-2,3.5,3.6,1-.6,3h5s-1,6-1,6c-.7,0-1.3,0-2,0l-1.5-4.7c-6.2,2.2-3.6-.2-4.8-2s-4.7-2.2-4,1.5l-4.5,1.3-2.8-2c-2.2,1.3-.5,3-.5,5h-3s1-4,1-4h-6c1.3-2.3,1.1-4.1,0-6.5l2.1-1.5-5.9-2.2.9-5.9c2.6-.5,1.5.6,2.6,2.1l4.8-1.1.6,2.1,1-3c1.7.2,3.2.9,5,1Z"/>
      <path class="st6" d="M612,375c.9-.2,2,.1,3,0-2.3-3.7,1.3-2.1,1.4-6.5.3-6.8-4.2-2.6-4.4-8.5,4.6,0,5,3.7,6.5,7,3-1.8,4-2.4,7.5-1-.4-8.1,5.3-2.3,7.5-8l1.5,4h-4c.7,3.8,0,7.9,0,12l-.9.6c-.2.8,0,1.6,0,2.4-2.9,1.4-2.2,5.9-3,8.5s.6,1.7-2,1.5c1.1-7.6-7-4.9-12-6l5-4h-6c-.1-.6.2-1.5,0-2-2.2.5-2.9,2-5,2l2-5c2.7-.4,2.4,1.5,3,3ZM622,376h-2v2h2v-2Z"/>
      <path class="st6" d="M630,534l-3.5,3.1h-5.4c0,0,.9-3,.9-3l-5.9-2.1.9-8.3-1.4-1.3-2.4.7-1.1-9,5-1.5-5-3,.6-2.5c4.4-1.3,4.3,3.1,8.5,2l-1,10c2.5-1.2,3.6-4.7,7-4-.3,3-.2,5.7,3,7,0,.6,0,1.3,0,2l-5-1-2.1,6.5,7.1,3.6c0,.3,0,.7,0,1Z"/>
      <path class="st6" d="M621,502c-3.7,1-4.1,3-8.9-.2-.6-1,2.2-12.1,2.8-13.2s2.1-.6,3.1-.6c-2.1-3.2-2.9-6.4-1-10l-5,4c-.4-4.1,3.3-5.8,1-10,2.9-.2,5.8-.6,6,3l4.9-1.9c2.4,4.5,3.6,12.1-2.9,6.9-5,6.9,1.2,7.5,1.9,9.6,1.4,4.2-4,6.9-6.9,3.4v4s4.9.1,4.9.1c.3,1.6.2,3.3.1,4.9,2-.5,3.9-1.2,6-1l-2.5,7-4.5-2c-.4-.4.9-3.1,1-4ZM621,476l-3,.5,1.5,1.5h1.5s0-2,0-2Z"/>
      <path class="st6" d="M570,614c2-3.6,0-4.8-1-8l3.8.2,1.7,3.8c2,.6,1.1-1.4,2.2-1.9,4-1.9,4.7-.2,8.3.9l-2-8.5c-2-1.7-4.3-.3-5.4-.5s-.5-1.7-1.1-1.8c-1.3-.2-4.5,1-6.5-.2v-3s5,2,5,2l.5-3.1h5.5c0,0-2,4.1-2,4.1,3.8,1.1,3.1.6,6-1,.3-2-2.6.2-2-2.5s1.7-.4,2.5-.5l5.3,9.3c-.3,2.5-3.5,4.2-3.7,5.3-.3,1.8,4.3,3.6,0,5.4-5.7,0-11.3,0-17,0Z"/>
      <path class="st6" d="M656,374c.6-5.7,3.2-11.6,10-10,1.2,3.6-5,2.2-5,2.5l1.9,5.1,3-.6v3s6-1,6-1c.7,3.3-2.8.9-2,4.5s5,3.1,4,5.5h-6s-1,10-1,10c-2.8.6-2-1-2-3l-3,.6-1-7.6,3,1,2-6c-6.6,3.7-8.6-3.4-10-4Z"/>
      <path class="st6" d="M705,249c.4-1.4,1.5-8.5,1-9-6.6-.6-12.3-2.2-19-1l2.1-6.8c5.4,1,5.4-2,9.4-3,3.4,0,3.4,2.7,4.2,2.9,3,.7,6.2-1.2,9.3,0l-5,2,5.1,7.5-5.1,7.5h-2ZM705.5,237v1c.6-.3.6-.7,0-1Z"/>
      <path class="st6" d="M638,279c-.7,4.1-4.6,1.6-2,7-1.9,1.7-7.1-5.5-9-6-.6,2.2,1.8,3.7,1.9,5.5s-.9,2.2-.9,3,3.3.8,2,3.5l-8.1,2.5-.3,4.6c-.8.9-2.8.6-3.4,1.2s.5,3.7-1.7,2.7c-4.1-1.8,2.5-6.1,2.5-8.5l-6-3.5,1.9-1.1.2-5.9h2.9c0,0,1,5.9,1,5.9.5-6.1,8.2-5.3,5-12,5.1.7,8.8,2.9,14,1Z"/>
      <path class="st6" d="M690,467v4s5-2,5-2v7.4c-3.5.8-5.8,1.2-6,5.6l3.6.9c1.2,1.6-2.5,4.4,3.4,6.1l2-3c4.2,9.4-11.7,8.3-12.8,1.3s.1-7.2.2-7.6c.4-2.1,2.3-4.2,2.4-6.4.3-3.4-3.3-7.2,2.2-6.3ZM687.5,479v1c.6-.3.6-.7,0-1Z"/>
      <path class="st6" d="M594,385c.5,1.3,2.5,8.5,2,9-4.5.3-5.2-3.7-5.5-7l-9.2,1.2-1.2,6.8h-3c.2-2.1.2-3.2-2-3.5l-4,1.5,1-4-9-3,1.5-4,6,5,.5-4.5,2-.5,4,7c1.6,1.4,3.1-2.3,3.1-3.4s-3.1,0-2.1-2.6l3.5-1,.5,3c2-.1-.1-2.9,3-2l.2,1.7,4.8,1.3,2.5-4c0,1.1,1.3,2.4,1.5,3v-2s2,0,2,0v2s-2,0-2,0ZM592.5,387v1c.6-.3.6-.7,0-1Z"/>
      <path class="st6" d="M618,555c-.2-.2.1-1.1-.3-1.7-.8-.9-5.2-4.3-5.4-4.6-2.1-5.4,6-6.8,2.7-13.7l2,4c2.8-1.4,7-2,7,2-3.3-1.5-6.3-1.1-7,3h5s.5-2,.5-2l4.5,3c.5,2.1-1.3,2.7-3,3l1.9,5.3c-.6,2.1-4.9,2.9-6.9,2.7l-1-1Z"/>
      <polygon class="st6" points="618 555 619 556 619 561 616.5 557 614 562 614.4 555.9 618 555"/>
      <path class="st6" d="M686,495c-2.5,5.7,2.3,6.2,7.1,6.6,1.3-1,.8-5.2,3.9-4.6l-1,3,4,1.5c-2.7,3.3-7.3,1.8-10.3,2.5s-2,3.7-5.7,2l2.2,1,.7,3-3-1v2.9c0,0-5,0-5,0,2.7-3.1-5-6.9-3-9s5.6.3,4-7l3.4,1.1c1-1.4,0-2.6,2.5-2.1Z"/>
      <path class="st6" d="M677,346c-4.6,4.3-6.1.6-10,0l2-4.5-2.1-1,1.1-2.4-4,1,.9-2.5c-2.7-.8-2.2-2.9-1.7-5.3l4.3-1.1-.5,6h3s0-3,0-3l4,2-1-6h3s1,6,1,6c0,3.7,0,7.3,0,11Z"/>
      <path class="st6" d="M658,284l-2,8c2.2-.8,4.9,3.9,6.9,2s-4.7-5-3-7l4.5-1c.8,0,.3,5.7,1.4,7.4s4.9.6,5.6,3.7c6.9-4-4.2-3.3-3.5-7l8,1c-2.5,2.4-.7,4.8-.9,6.3s-1.8.2-2.1,1.2c-.9,2.7,4.8,0,3,4.5-3.5,1-2.8-1.8-4.6-2.9-2.7-1.7-5.2,0-5.5-5l-9.4,1c-.5-4.1-2.9-3.5-6.5-4.1l1.9-6.6,3.6.5,2.4-1.9Z"/>
      <path class="st6" d="M485,614v-6c3.9,3.4,6.5,2.5,6-3l-6,2-1-4,3-.5c-1.9-4.6-3.8-2.2-5-2.9s-1-1.8-1.7-2.5-5.2-3.1-.9-4.1,3,5.6,6.5,4l-1-3,5.9,2.1c-3.1,4.8,3.1,8.9,3.1,9.5,0,2-1.9,4.6,0,7.4-.2,0-1.1,1-2,1l-.5-2-.5,2c-2,0-4,0-6,0Z"/>
      <path class="st17" d="M417,375c.4,7.3-.3,14.7,0,22,11.9.8,25.3-1.1,37,0,0,.5.5,1,1,1,2.2,0,4.2-.9,6.5-1,4.5-.2,9.1,0,13.5,0l.5,1,.5-1c4,0,8,0,12,0,0,.3,0,.7,0,1l-2,1h-68.3c-2.4-.5-1.7-12.4-1.7-15s-.8-7,1-9Z"/>
      <path class="st6" d="M655,207c3.2.6,9.4-2,9.9,2.7s-1.6,1-1.8,2.1c-1.2,4.9-.7,8.7-4.1,13.3-1.3,0-2.7,0-4,0,0-6,0-12,0-18Z"/>
      <path class="st6" d="M676,308c0,.3,0,.7,0,1-.2,1.5-1.5,2.5,1,4,0,.7,0,1.3,0,2l-3.5-2c-1,.2.3,3-2.5,2v-3s-3,1.5-3,1.5c3.7,2.7,3,9.8,9,8.5,0,.3,0,.7,0,1l-6,2,1,4h-3s.9-5.8.9-5.8c-5.5-1.5-6.9-5.3-2.9-9.7-1.4-1-2.5.2-2-2.5l11-3Z"/>
      <path class="st6" d="M520,399c.8.9-1.2,8.7-4,8l2,1.5v2c-3.6.7-1.1,4.3-2.5,6.6l-7.5.9c.4-2.7,2-5.7,5-5-.2-1.9-2.1-.5-2.8-3.2s.8-5.4,3.7-5.9l-.9-3.9,7-1Z"/>
      <path class="st6" d="M628,329h-4c-.4,2.8,0,2.5,2,3.5l-2,2.9,3,3.2-1.1,3.4-8-1c-1.2-5.3,4-7.8,3-13-.6-.6-5,1.6-4-2,1.7.2,3.7-.4,5.3,0s.3,2.7,2.1,2c4-1.7-3.7-8.1,1-9,3.3,2.6,1.8,6.4,2.5,10Z"/>
      <path class="st10" d="M488,400h2s0,21,0,21c4-1.1,7.8.4,12,0s1.4.1,2,0c.8-.2,1.8-1.4,2.5-2l1.9,2.1c14.1.8,28.8-1,42.6-1.1.3,0,.7,0,1,0,1.6,0,5.5,2,8,1h-72c-.3-2.4,0-5.5,0-8l1-1.5-1-.5c0-1.3,0-2.7,0-4,1.4-.6,1.1-2.7,1-4s-.5-.9-1-1c0-.7,0-1.3,0-2Z"/>
      <path class="st6" d="M618,306c1.1-.7,3.1-.8,4-1.5,1.6-1.3-.2-4.2,3-3.5-2.3,5.5,0,6.7,3.1,10.5l-2.1,5.4-10-1,2-10c-3.1.6-3.1-2.6,0-2v2Z"/>
      <path class="st6" d="M502,421l-1.8-3.2c6.2-10.3-6.5-5.9-3.2-2.8l3,.5-5,1.5c1.3-3.2-2.4-15.9,2.5-16s.9,4.1.5,5c2.8.6,1.9-1,2-3l5.9,1.1v2.9c0,0-3.9,0-3.9,0l3.1,6.3-3.1,2.1,5,1.5-3,4c-.6.1-1.3,0-2,0Z"/>
      <path class="st6" d="M701,430l-9.8,2.2-.2,6.8h-3c-2.3-6.2,3.2-8.7,2-15,3.5.2,7.8.5,11-1,0,2.3,0,4.7,0,7Z"/>
      <path class="st6" d="M529,600v4.9c.1,0,4,1.2,4,1.2l-1,6-9.5-5-2,5-5.5-3.5,4.5-4.6,6.5,2c-1.8-2.9-.5-5.8,3-6Z"/>
      <path class="st6" d="M672,501l1,7c-3.3,0-5.9,1.8-8.5-1l-1.5,2.5,2,4.5-7,2,1.1-6.4-4.1-2.6c2.5-1.1,9.3-.8,11-1.6s3.1-4.7,6-4.4Z"/>
      <path class="st6" d="M601,386h-2s0-2,0-2h2s0,2,0,2c3-1.1,2.1,3.7,3.6,4.1,3.2.7,6.2-3.5,7.9-3.1s1.5,4.6,5.6,3c0,3.4-1.9,3-3,7,2.6-.3,6.7-2.7,8.5,1s-1.1,6.3-3,2l-2.5,1.6,2,5.5c-5.6.7-8.2-1.5-9-7h4c.2-.9-.2-2.2,0-3-6.3.6-3-2-4.6-3.1s-5.2.3-6-2.9l-5.4,2c0-2.8-.8-4.5,2-5.7v-1.3Z"/>
      <path class="st6" d="M692,449c-3.8,8.1,6.1,6.9,6,13l-8.5-2-.6,2.9h-3.9c0,.1,1.4-12.9,1.4-12.9l5.6-1Z"/>
      <path class="st6" d="M608,302v2.8c3.2.3,5.6.1,5,4.2l-4.5-3c-3.2,1.5-.2,6.2,2.9,6.1s1-3.4,3.5-2.1l-1,6c-4.1-.2-3.9-4.3-8.9-3.1v-2.8c-.1,0-4.1,0-4.1,0v-6s5,1,5,1v-2.3s2-.7,2-.7Z"/>
      <path class="st6" d="M696,240l4.1,5.5-1.1,3.1c-2.2.7-3.6,0-4.8,2.2-2.6,4.6.8,4.4,1.5,5.6,4.2,7-1.9,4.8-5.7,2.1,1.3-2.7.7-5.8,1.4-8.5s2.4-1.8,2.6-2.6c.4-2-.3-4.7,0-6.8l2-.5Z"/>
      <path class="st6" d="M668,211l.5,2h1.5c1.5-5.9,5.9,1,9,1l-1,8h-6c1.5-6.7-5.2-5.7-6-9.6s.3-1.5,1.9-1.4Z"/>
      <path class="st6" d="M509,594v3.9c.1,0,4,1.2,4,1.2v5.9c-7.6-1.8-11.7,5.3-12-7l7,2-2-6h3Z"/>
      <path class="st6" d="M644,500l-2,4c.9.8,5.5,2.1,5,3.5s-3.7,5.8-4,6c-1.2.8-2.7.4-4,.5-1.1-3.2,2.2-2.8,2.6-4.9s-.6-3.3-.6-5.1c-3.6-.2-1.8,4.9-6.4,2l-.6-2c4.7-.2,4.4-5.6,10-4Z"/>
      <path class="st6" d="M701,434c0,.7,0,1.3,0,2-.2,2.2-2.7,6-1.1,8.9l-5.9,2.1-1-9h4s-2-5-2-5l6,1Z"/>
      <path class="st24" d="M568,373l-2,1c-2.3,0-4.7,0-7,0l1,23c-12.3,0-24.7,0-37,0l35-1v-22.5l1.5-1.2c2.4.8,4.7-.4,6.9-.3s1.5.9,1.6,1Z"/>
      <path class="st6" d="M686,224c1,.4,3.2,1.3,4,.6,2.3-4.7,1-10.2,8-8.6,1,3-3.6,4.5-3.9,5.6-.7,2.8,1.9,1.1-1,5.2s1.3,3.6-3.7,1.2c-.8,2-1,2.2-3.4,1.9-.1-2,.1-4,0-6-3.3-1.1-.9-.9-2.6-2.9s-3.2-.4-2.4-3l8-1v3s-4,0-4,0c.7,1.4.9,2.4,1,4Z"/>
      <path class="st6" d="M665,348c.2,3.5-4.1,1.6-3,6.4l2.1,1.2-1.2,3.3c-3.4.8-5.1-.4-4.9-3.9-2.5-1.1-1.9,1.8-2.9,2.5-2.9,1.9-3.8-.8-4-3.5,5.9,1,8.6-5.7,14-6Z"/>
      <path class="st18" d="M680,495v-66c1.7,1,1,3.8,1,5.5.1,11.6.5,23.4.4,35,0,7,.2,16.3-.4,23.1s.3,1.6-1,2.4Z"/>
      <path class="st19" d="M638,495c.1,1.5,2.9,1.5,3,0,1,0,2,0,3,0,.1,1.5,2.9,1.5,3,0,1,0,2,0,3,0l1.5,1,.5-1c1,0,2,0,3,0,.1,1.5,2.9,1.5,3,0,.7,0,1.3,0,2,0l.5,1,.5-1c1.7,0,3.3,0,5,0l1.5,1,.5-1c1,0,2,0,3,0,1,1.6,5.1,1.6,6,0,.3,0,.7,0,1,0s.7,0,1,0c-.1.7.5,2.1-.6,2-13.6-1.2-28.6,1.3-42,0s-2.3.2-2.4-1l2-1c.7,0,1.3,0,2,0Z"/>
      <path class="st2" d="M655,424v47c-.1.6-1,.9-1,1-4.6.1-9.4-.2-14,0,.3-1,1.2-.9,2-1,3.9-.3,8,.2,12,0v-49c.3,0,.7,0,1,0,0,.7,0,1.3,0,2Z"/>
      <path class="st6" d="M668,398c.9,1-5.9,10.1-1.8,12.9s4.6-1.4,3.8,2.1c-3.7-2.1-3.3,3.1-7.8-.2,0-2.3-1.2-5-1-7.1s2.2-2.4,2.5-3c1.1-1.9-.9-4.8,4.3-4.7Z"/>
      <path class="st10" d="M651,518c.3,0,.7,0,1,0,11.5,0,23-.1,34.5,0s4.4-.6,5.5,1c-20-.1-40,0-60,0,5.7-1.8,12.9-1,19-1Z"/>
      <path class="st14" d="M630,602c-.4-10.8-1-21.9-1-33,0-6.8-.1-13.7,0-20.5s-.6-4.4,1-5.5v59Z"/>
      <path class="st6" d="M607,602c-.6,3.5-2.3,5.9-6,5v4c-2.7.7-2.5-2.2-3-4l-5,3v-4c6.3,2.1,6.9-3.1,8.1-3.9s4.2,1.3,5.9-.1Z"/>
      <path class="st4" d="M647,493c9.7,0,20.8,2,31,1v1c-.3,0-.7,0-1,0-2,.1-4,0-6,0s-2,0-3,0-1.3,0-2,0c-1.7,0-3.3,0-5,0s-.7,0-1,0c-.7,0-1.3,0-2,0-1,0-2,0-3,0s-2,0-3,0-1.3,0-2,0c-1,0-2,0-3,0s-2,0-3,0-2,0-3,0-2,0-3,0-1.3,0-2,0-1.4.1-2,0-1.9.3-2-1h12.4c1.1,0,2.2-1,2.6-1Z"/>
      <path class="st6" d="M665,269c.6,3.5-.4,5.3-2.9,7.6l1.9,4.4c-7.8-.8-2.9-4.4-3-5.5s-4.5-1.3-2.9-4.4l6.9-2.1Z"/>
      <path class="st2" d="M631,422c-.3,0-.7,0-1,0,.7-14.8-.9-30.3,0-45,0-.8-.2-1.6,0-2.4l.9-.6c-.3,16,.2,32,0,48Z"/>
      <path class="st6" d="M561,598c.6-1.7.2-4.7,3-4v5c-.1.2-2.1-1-3-1-1.4,3.8-3.7,2.5-5.6,6l-6.4-1,1.1-4.9c3.5-1.6,4,1.8,4.5,1.9,2.2.7,2.3-1,2.4-1h-2s0-3,0-3h2s0,3,0,3c1.2-.3,2.9-1,4-1Z"/>
      <path class="st6" d="M608,325c.3-1.8-.2-4.1,0-6,2.5.2,4.9.2,6.5-2l1.5,3.5-5,.5,1,7-4-2c0-.3,0-.7,0-1Z"/>
      <path class="st27" d="M608,508c-1.7-1-1-3.8-1-5.5,0-9-.1-18,0-27s-.6-4.4,1-5.5c0,12.6-.1,25.4,0,38Z"/>
      <path class="st6" d="M616.5,459.5c2.5,2.6,1.7,3.4.6,6.9-1.9,2.7-7.4-2.3-6.1-3.4l5,.5-4-4.5c3.4-.2,2.5-1.5,4.5.5Z"/>
      <path class="st6" d="M538,613c.4-4.7,3.8-7.4,8.4-7.1l1.6,4.1-3.4,1.1-1.1-2.1-4.5,4h-1Z"/>
      <path class="st6" d="M693,208v4c-3.7,1.4-12.7-2.3-5.1-3.1v-4c0,0,3.1,0,3.1,0l2,3v-2c3.1-.6,3,2.6,0,2Z"/>
      <path class="st2" d="M654,394h2c0,1.3,0,2.7,0,4s0,2.7,0,4c.1,6,.7,13.4-1,19-.1-9.1-.7-18-1-27Z"/>
      <path class="st18" d="M474,591h1c-.2,1.9-2.7,1.7-3,2-4.2,0-8.4,0-12.5,0s-2.9-1-3.5-1v-1c6,0,12,0,18,0Z"/>
      <path class="st2" d="M656,374c-.6,5.7-.1,12.2,0,18-.3-.2-1.4.1-2,0-.1-6,.1-12,0-18,.6,0,1.6-.2,2,0Z"/>
      <path class="st6" d="M618,415c-1,13.8-8.2-.5-7-2s2.1,1.9,2.7,2c1,.2,3.3.2,4.3,0,.1-1.6-1.2-6.4,1.5-6,2.7,2.6,2.3,5.4-1.5,6Z"/>
      <path class="st6" d="M676,282l-4.8.8-.8-1.8-3.4,1.1v-3.5s2.5-.5,2.5-.5c1.8,5.9,7.3-6.7,6.5,3,0,.3,0,.7,0,1Z"/>
      <path class="st6" d="M701,448v2l-2.6,3.9-5.4-1.5c0-3.1,5.5-5,8-4.5Z"/>
      <path class="st27" d="M608,325c0,.3,0,.7,0,1-.5,5.3,0,7.2,0,12-3.1.6-1.8-1.6-2-3.5-.2-2.8-.6-5.7,0-8.5l-13-1c5,0,10,0,15,0Z"/>
      <path class="st6" d="M676,356l-3,1v4c-3,1.1-3-1.7-3.2-1.8-.9-.3-2.4,1.2-2.8.8-3.1-3,6.6-6.1,9-4Z"/>
      <path class="st6" d="M623,458c-3.5-1.5-5.2.5-3-6,2.4-2.3,3,5,3,6,1.8.8,3.4.9,4.5,3l.5,6.9h-3s.1-5.4.1-5.4c-5.3-1.1-2.2-1.3-2.1-4.6Z"/>
      <path class="st6" d="M565,600l.6,7-5.6,1,.2-3.9,2.7-.2c.9-.9-1.5-4.9,2.1-4Z"/>
      <path class="st6" d="M551,614l-2-4.4,3.5-2.6.6,1.8,2.9-.8-2,6c-1,0-2,0-3,0Z"/>
      <path class="st6" d="M643.5,286.6c2.3,2.7,3.2,5-1.4,4.4,1.6-3.7-4.9-3.9-5-5.5-.1-3,4.5-1.3,6.4,1.1Z"/>
      <path class="st6" d="M693,513l-.7,3-9.3,1c.4-5.9,4.8-.7,5-1v-2.9c0,0,5,0,5,0Z"/>
      <path class="st6" d="M597,308h-3.9c-2.8-9.9,4.8-9.4,3.9,0Z"/>
      <path class="st6" d="M547,602l-4.9-.2c.8-1.9-3.7-4.3-2.1-5.8s7.3,3.2,7,6Z"/>
      <path class="st6" d="M677,399c0,1,0,2,0,3l-4,2-.6-2.1-2.4,1.1v-3.5c1.2-2,3.4,2,4,1.5l3-2Z"/>
      <polygon class="st6" points="665 300 664 305 659 302.5 661.6 299 665 300"/>
      <path class="st6" d="M715,228l6,5h-6.4s-.6-5-.6-5c.3,0,.7,0,1,0Z"/>
      <path class="st27" d="M608,421c-2.3-7.1-.4-15.6-1-23,1.4.1.9,1.5,1,2.4.7,5.9-.1,14.3,0,20.6Z"/>
      <polygon class="st6" points="610 593 610 596 606 595 605.5 599 604 593 610 593"/>
      <path class="st6" d="M580.3,378.7c.9.9,3.4-.9,2.7,2.2-5.2,1.1-6-1.4-7-6,2.9-.5,3,2.5,4.3,3.7Z"/>
      <polygon class="st6" points="597 595 595.1 600.6 591 599.5 597 595"/>
      <path class="st6" d="M662,262c.6,3.8-1.7,4.4-5,4v-4s5,0,5,0Z"/>
      <path class="st6" d="M622,384c2.5,2.2-7.4,5.3-7-1l7,1Z"/>
      <polygon class="st6" points="557.9 401.1 558 404 553 404 553 400 557.9 401.1"/>
      <path class="st6" d="M628,351c0,4.7-4,1.8-7,2-.4-4.1,4.8-2.2,7-2Z"/>
      <path class="st6" d="M725,240c0,1.3,0,2.7,0,4h-5s0-3.5,0-3.5l5-.5Z"/>
      <path class="st20" d="M608,538h2s0,8.4,0,8.4l-2,.6c0-2.7-.2-6.6,0-9Z"/>
      <polygon class="st6" points="609 609 607.4 611.8 603 610.9 603 608 609 609"/>
      <path class="st6" d="M645,359l1,5-5-2c-.7-2.6,2.2-2.6,4-3Z"/>
      <path class="st6" d="M651,518l-2-3,5.5-1-2.5,4c-.3,0-.7,0-1,0Z"/>
      <path class="st6" d="M674.9,405.1c-.1,1.7,1.6,6.7-1.9,5.9l.6-4-3.6-2.9,4.9,1.1Z"/>
      <path class="st5" d="M632,492c-1.2-3.2-2.6-11.3,0-14,0,4.6-.3,9.4,0,14Z"/>
      <polygon class="st6" points="654 507 653.5 510 650 511 650.5 508 654 507"/>
      <path class="st6" d="M642,371c-1.8.5-2.2-1.3-3.5-1.6s-4.2,2.2-3.5-1.4c2.6,0,7.1-1,7,3Z"/>
      <path class="st6" d="M620,425c.6,2.6-2.3,5.6-5,5l5-5Z"/>
      <path class="st6" d="M623,388l-1.1,3.9h-2.9c0-1.4-.3-2.6,1-3.4l3-.5Z"/>
      <path class="st6" d="M624,420v-5c4.1,0,4.1,5.1,0,5Z"/>
      <polygon class="st6" points="603 596 603 601 600 601 600 596 603 596"/>
      <path class="st6" d="M551,420l-3-1c-.3-2.2,1.3-3.3,3.5-3l.5,4c-.3,0-.7,0-1,0Z"/>
      <path class="st6" d="M700,517h-5s0-3,0-3c2.3-.4,4.2.9,5,3Z"/>
      <polygon class="st6" points="528 594 528 597.5 526 598 524 594 528 594"/>
      <polygon class="st6" points="643 279 642 282.5 639 283 639 281.5 643 279"/>
      <path class="st6" d="M609,348c1,.2,4-.5,4,.5,0,2.2-2.2,2.7-4,2.5v-3Z"/>
      <path class="st6" d="M656,398c.7-.7,3.1-1.7,3-.5-.8,2.1-.3,5.2-3,4.5,0-1.3,0-2.7,0-4Z"/>
      <path class="st6" d="M693,507c.9,2.7-1.5,1.7-1.8,2.1-.5.8,2.7,3.6-1.2,2.9v-4.4s3-.6,3-.6Z"/>
      <path class="st6" d="M621,357l2,4c-3.2,1.3-6.5-4.2-2-4Z"/>
      <path class="st6" d="M698,483c-.8,1.1-5.1-3.2-4-4l3,.5,1,3.5Z"/>
      <path class="st6" d="M608,384v3c-1.8.2-2.9,0-4-1.5v-1.5s4,0,4,0Z"/>
      <path class="st6" d="M502,613l-1-3h3.5s.5,3,.5,3c-.3,0-.8-.7-1.5-.7s-1.2.6-1.5.7Z"/>
      <path class="st6" d="M615,338v4c-4,0-3.9-4,0-4Z"/>
      <path class="st6" d="M617,354v4c-4,0-3.9-4,0-4Z"/>
      <path class="st6" d="M637,514c-1.4,1.3-5.3-1.8-4-3s5.3,1.8,4,3Z"/>
      <polygon class="st6" points="700 267 700 270 696 270 696 268 700 267"/>
      <polygon class="st6" points="626 407 627 411 624 411 624 407 626 407"/>
      <path class="st6" d="M701,207c0,.7,0,1.3,0,2l-4,.5c0-2.2,2.2-2.7,4-2.5Z"/>
      <path class="st6" d="M512,399v1.5c-1.1,1.6-2.1,1.7-4,1.5v-2s4-1,4-1Z"/>
      <path class="st6" d="M591,378v-3s3,0,3,0v3s-3,0-3,0c.6,3-2.6,3.1-2,0h2Z"/>
      <path class="st6" d="M615,422c1.6,1.6-1.4,4.6-3,3s1.4-4.6,3-3Z"/>
      <path class="st6" d="M623,466c1.6,1.6-1.4,4.6-3,3s1.4-4.6,3-3Z"/>
      <path class="st6" d="M684,204c.3.2,0,1.4-.5,2-3.7,4.5-3.1-5.2.5-2Z"/>
      <path class="st6" d="M689,242v3c-1.2,1.3-6.2-4.1,0-3Z"/>
      <path class="st6" d="M649,367c-.1-.7-1.4-1.8-1-3,3.2-.3,3.3-.3,3,3-.7,0-1.4,0-2,0,.1.6,0,1.4,0,2h-2s0-2,0-2c.7,0,1.3,0,2,0Z"/>
      <path class="st20" d="M609,361v2l-1,3c0-2.7,0-5.3,0-8l1,3Z"/>
      <polygon class="st6" points="717 236 716 240 714 240 715 236 717 236"/>
      <rect class="st6" x="624" y="494" width="4" height="2"/>
      <rect class="st6" x="534" y="597" width="4" height="2"/>
      <path class="st6" d="M571,603h-3s0-3,0-3c1.8-.3,3.3,1.1,3,3Z"/>
      <path class="st6" d="M615,607c.3.2,0,1.4-.5,2-3.7,4.5-3.1-5.2.5-2Z"/>
      <path class="st6" d="M675,509v3c-1.2,1.3-6.2-4.1,0-3Z"/>
      <path class="st27" d="M608,429c-1.7-1.3-1.7-5.7,0-7,0,2.3,0,4.7,0,7Z"/>
      <path class="st6" d="M666,326v2c-1.8.2-2.9,0-4-1.5l4-.5Z"/>
      <path class="st20" d="M608,555l2-1v3.4s-2,.6-2,.6c-.2-.7,0-2.1,0-3Z"/>
      <path class="st23" d="M568,373c1.7,0,3.3,0,5,0-1.4,1.8-4.8,1-7,1l2-1Z"/>
      <path class="st6" d="M514,610c-1,1-4-2-3-3s4,2,3,3Z"/>
      <path class="st6" d="M699,212c0,3.7-3,3.7-3,0h3Z"/>
      <path class="st6" d="M664,309c1,1-2,4-3,3s2-4,3-3Z"/>
      <rect class="st6" x="615" y="345" width="3" height="2"/>
      <rect class="st6" x="651" y="501" width="3" height="2"/>
      <rect class="st6" x="671" y="350" width="3" height="2"/>
      <rect class="st6" x="635" y="293" width="3" height="2"/>
      <rect class="st6" x="564" y="390" width="3" height="2"/>
      <rect class="st6" x="613" y="568" width="2" height="3"/>
      <rect class="st6" x="614" y="455" width="3" height="2"/>
      <rect class="st6" x="674" y="206" width="2" height="3"/>
      <path class="st6" d="M697,468c-.6-.1-1.4.1-2,0-.3-2.1,0-2.3,2-2,.1.6,0,1.4,0,2,.9.2,2-.2,3,0v2c-1.5,1.3-2.7-.2-3-2Z"/>
      <rect class="st6" x="612" y="528" width="2" height="3"/>
      <path class="st14" d="M630,542c-.4-.2-.8-.9-1-1v-2c.2-.2.3-1.6,1-2,0,1.7,0,3.3,0,5Z"/>
      <polygon class="st6" points="628 558 626.5 560 625 560 625 558 628 558"/>
      <polygon class="st6" points="658 278 656.5 280 655 280 655 278 658 278"/>
      <path class="st6" d="M656,392h3s0,2,0,2h-1.5c-.7-.3-1.1-1.7-1.5-2Z"/>
      <path class="st5" d="M632,473v3c-4.2-3-2.1-2.2,0-3Z"/>
      <polygon class="st6" points="679 514 678.5 517 677 515.5 677 514 679 514"/>
      <path class="st20" d="M641,276c-1,0-2.9,0-4,0h4Z"/>
      <path class="st6" d="M630,611c0,.6.2,1.6,0,2h-2s0-1.5,0-1.5l2-.5Z"/>
      <rect class="st6" x="537" y="603" width="2" height="2"/>
      <rect class="st6" x="528" y="418" width="2" height="2"/>
      <rect class="st6" x="621" y="344" width="2" height="2"/>
      <path class="st20" d="M608,339c1.5.6.9,2.7,1,4l-1-1c0-1,0-2,0-3Z"/>
      <rect class="st6" x="495" y="597" width="2" height="2"/>
      <rect class="st6" x="685" y="444" width="2" height="2"/>
      <path class="st20" d="M608,356c0-1,0-2,0-3l1-1c0,1.3.5,3.4-1,4Z"/>
      <rect class="st6" x="629" y="353" width="2" height="2"/>
      <rect class="st6" x="515" y="593" width="2" height="2"/>
      <rect class="st6" x="620" y="354" width="2" height="2"/>
      <rect class="st6" x="624" y="356" width="2" height="2"/>
      <rect class="st6" x="646" y="358" width="2" height="2"/>
      <path class="st18" d="M680,428v-4c1.4,1.3,1.4,2.8,0,4Z"/>
      <rect class="st6" x="638" y="360" width="2" height="2"/>
      <polygon class="st6" points="609 361 610.9 361 611 362.5 609 363 609 361"/>
      <rect class="st6" x="656" y="361" width="2" height="2"/>
      <rect class="st6" x="658" y="255" width="2" height="2"/>
      <rect class="st6" x="674" y="364" width="2" height="2"/>
      <rect class="st6" x="625" y="402" width="2" height="2"/>
      <rect class="st6" x="660" y="501" width="2" height="2"/>
      <rect class="st6" x="532" y="400" width="2" height="2"/>
      <rect class="st6" x="616" y="565" width="2" height="2"/>
      <rect class="st6" x="698" y="510" width="2" height="2"/>
      <rect class="st6" x="611" y="367" width="2" height="2"/>
      <rect class="st6" x="622" y="562" width="2" height="2"/>
      <rect class="st6" x="611" y="280" width="2" height="2"/>
      <rect class="st6" x="660" y="337" width="2" height="2"/>
      <path class="st6" d="M670,203c.5,2.5-.9,1.6-2,2,0,.7,0,1.3,0,2-2.1.3-2.3,0-2-2,.6-.2,1.5.2,2,0,0-.7,0-1.3,0-2,.7,0,1.3,0,2,0Z"/>
      <rect class="st6" x="643" y="294" width="2" height="2"/>
      <rect class="st6" x="583" y="391" width="2" height="2"/>
      <rect class="st6" x="674" y="371" width="2" height="2"/>
      <rect class="st6" x="611" y="335" width="2" height="2"/>
      <rect class="st6" x="722" y="236" width="2" height="2"/>
      <path class="st20" d="M609,348v3h-1v-4c.4.2.8,1,1,1Z"/>
      <rect class="st6" x="659" y="326" width="2" height="2"/>
      <rect class="st6" x="629" y="469" width="2" height="2"/>
      <rect class="st6" x="669" y="222" width="2" height="2"/>
      <path class="st6" d="M629,539v2c-5.7-1.4-.2-1.8,0-2Z"/>
      <path class="st6" d="M711,228v2s-1.5,0-1.5,0l-.5-2c.7,0,1.3,0,2,0Z"/>
      <rect class="st6" x="593" y="320" width="2" height="2"/>
      <path class="st20" d="M609,535v-4c0,.3,1.3.7,1.1,2.4s-1,1.4-1.1,1.6Z"/>
      <rect class="st6" x="630" y="293" width="2" height="2"/>
      <rect class="st6" x="565" y="377" width="2" height="2"/>
      <path class="st26" d="M488,398c0,.7,0,1.3,0,2h-1c0-.3-.7-.7-1-1l2-1Z"/>
      <path class="st23" d="M577,373h-3,3Z"/>
      <path class="st6" d="M665,422c-.3,0-.7,0-1,0l.5-2,.5,2Z"/>
      <path class="st3" d="M636,495l-2,1v-1c.6.1,1.3,0,2,0Z"/>
      <path class="st20" d="M609,561v-2c.1.2.9.2,1,.5.4,1.3-1,1.4-1,1.5Z"/>
      <path class="st6" d="M662,422c-.3,0-.7,0-1,0l.5-2,.5,2Z"/>
      <path class="st6" d="M573.5,396c.6.3.6.7,0,1v-1Z"/>
      <path class="st5" d="M633,494h-1c0-.3,0-.7,0-1l1,1Z"/>
      <path class="st15" d="M369,521c.8,7,0,14.9,0,22-.7,0-1.3,0-2,0-3.5,0-6.2.4-10,0s.1-.8-1.5-1c-2.5-.3-5,0-7.5,0v2c-.8-.1-1.9.3-2-1,0-1,0-2,0-3,.6.1,1.5-.2,2,0,6.6,2.1,12.6-.2,19,2,.8-7-1.5-16.7,1-23,0,.7,1,1.7,1,2Z"/>
      <path class="st21" d="M357,543c-2.1,1.4-6.5,1.4-9,1v-2c2.5.1,5-.3,7.5,0s1.4,1,1.5,1Z"/>
      <path class="st4" d="M655,471v-47c1.7,1,1,3.8,1,5.5.1,13.3,1.3,28.6-1,41.5Z"/>
      <path class="st0" d="M679,474c-1.7-5.4-1.7-13.6,0-19,0,6.3,0,12.7,0,19Z"/>
      <path class="st0" d="M679,488c-1.7-2.7-1.7-9.1,0-12,0,4,0,8,0,12Z"/>
      <polygon class="st25" points="651 490 651 492 648 492 649.5 490 651 490"/>
      <path class="st0" d="M679,445c0-1.1,0-2.9,0-4v4Z"/>
      <path class="st0" d="M679,433c0-.7,0-2.2,0-3v3Z"/>
      <path class="st0" d="M679,453c0-.2-.7-.5-.7-.8,0-.8.7-1.1.7-1.2v2Z"/>
      <path class="st0" d="M679,495c-.3,0-.7,0-1,0v-1h1c0,.3,0,.7,0,1Z"/>
      <path class="st0" d="M679,492c0-.1,0-.6,0-1v1Z"/>
      <path class="st6" d="M630,524c-.1,3,0,6,0,9l-7.1-3.6,2.1-6.5,5,1Z"/>
      <path class="st6" d="M492,614c-.3,0-.7,0-1,0l.5-2,.5,2Z"/>
      <path class="st7" d="M609,202l3-3.5-3.1-1.1v-19.5h41.1c0,0-.2,1.1.4,1.6s1.6.3,1.6.4v20c-2.9.7-6-.8-8.5-.8-4.9,0-18.6,2-22,.6s0-1.9-.9-1.8c-.8,3.6-3.4,1.3-6,2s-1.4.9-1.5,1c-1.1.3-2.4,1.4-4,1ZM614.5,198v1c.6-.3.6-.7,0-1Z"/>
      <path class="st6" d="M677,322c-6,1.3-5.2-5.8-9-8.5l3-1.5v3c2.8,1,1.5-1.8,2.5-2l3.5,2c0,2.3,0,4.7,0,7Z"/>
      <path class="st6" d="M677,313c-2.5-1.5-1.2-2.5-1-4,1.5.7,1,2.7,1,4Z"/>
      <path class="st9" d="M417,543c1.1,1.1,0,21.9,0,25-3.1,0-3.6.7-8,0l7-1v-22h-46c-.8,6.8,1.6,17-1,23,0-8,0-16,0-24h12c4,0,8,0,12,0s4,0,6,0,.8-1,1-1c2.9,0,8.2,1,11.5,1s3.6-.4,5.5-1Z"/>
      <path class="st9" d="M407,569c0-.5.5-1,1-1,0,.6-.5,1-1,1Z"/>
      <path class="st4" d="M348,315v-63h20c.9,6.1-1.7,18.1,1,23s.9,1.8,2,2c4.4,1,12.8-.3,18,0s2.7,0,4,0c0,5,0,10,0,15-2.2.7-2,2.6-2.1,4.5-.4,9.6.9,20.5.9,30.1,0,13.9-1,26.9.2,41s-.4,2.7-.7,4c0,.8.9,1.3,1.7,1.4s.7,0,1,0c0,.7,0,1.3,0,2,7.1-.5,13.9-1.5,21,0l1,9c0,2.6-.7,14.5,1.7,15h68.3c.3.3,1,.7,1,1,.8,7-1.4,15.3,1,22l71,1v71c-3.7,0-7.3,0-11,0l-1.2-.7-.8.7c-.7,0-1.3,0-2,0,.3-3.6-.8-1.1-2.6-1.1-8.7.3-18.1-.9-26.4,1.1-4,0-8,0-12,0-1-1.7-3.8-1-5.5-1-6.9,0-15-.7-21.5,1-9.9,0-23.2-1.1-32.6,0s-2.6.1-3.4,1.6v21.5h-71.4c-1.2.2-.4,1.5-.6,2-2.5,6.3-.2,16-1,23-6.4-2.2-12.4,0-19-2-.1-.6.2-1.5,0-2-.2-16,.3-32,0-48s0-1.3,0-2v-115c0-.7,0-1.3,0-2,0-3.3,0-6.7,0-10s0-1.3,0-2c0-6.7.8-14.6-1-21,0-1,0-2,0-3,1.6-5.1,1.3-12.6,1-18s0-1.3,0-2Z"/>
      <path class="st23" d="M419,326c0-1.2-1.6-3.8-1.7-5.8-.3-6.4-.4-12.8-.3-19.2h49v24c-15.6,0-31.5-.6-47,1Z"/>
      <path class="st2" d="M394,371c0,.7,0,1.3,0,2-.3,0-.7,0-1,0,0-27,0-54.1,0-81,0-5,0-10,0-15-1.3,0-2.7,0-4,0-3.1-5,4.8-3.8,5-.5,1.2,31.1-1.6,63.5,0,94.5Z"/>
      <path class="st2" d="M417,373c2.5,6.3.6,16.1,1,23l70-1v2c-4,0-8,0-12,0-.3,0-.7,0-1,0-4.5,0-9.1-.2-13.5,0-2.3,0-4.3,1-6.5,1-.1-.5-.5-1-1-1-11.7-1.1-25.1.8-37,0-.3-7.3.4-14.7,0-22s0-1.3,0-2Z"/>
      <path class="st15" d="M404,372c.7,1.5,2.7,1,4,1s1.3,0,2,0c2.3,0,4.7,0,7,0,0,.7,0,1.3,0,2-1.8,2-1,6.2-1,9l-1-9c-7.1-1.5-13.9-.5-21,0,0-.7,0-1.3,0-2,1.6.2,4.4.2,6,0s2.7-.7,4-1Z"/>
      <path class="st2" d="M370,251l1,23h16c.2,1.8-2.3.9-3.5,1-3,.1-6-.1-9.1,0s-4-1-3.5,2c-1.1-.2-1.5-1.1-2-2v-1l1-2c.1-.9,0-2,0-3v-2c0-1.7,0-3.3,0-5v-1c0-3.2-.4-7,0-10Z"/>
      <path class="st24" d="M511,325v24c0,0-.5.9-1,1v-5.5s0-15,0-15c0-4-2.4-2.8-5-4.5h6Z"/>
      <path class="st24" d="M441,349l1.6,1.5c1,3.1-3.1,11.6,1.4,11.5v1c-4.2-.3-.8,5.8-1.9,8.6l2.9,1-4,.5v-24Z"/>
      <path class="st20" d="M441,349v5c-3.2-6.6-18.3-.3-22-4l22-1Z"/>
      <path class="st20" d="M441,358v15c-.3-.2-1.3.2-1.9,0v-7.4c-.1,0,1.9-7.5,1.9-7.5Z"/>
      <path class="st18" d="M466,300c-1.7-.8-1.1-12.7-1-15.5s-.6-4.4,1-5.5c.2,7-.2,14,0,21Z"/>
      <path class="st20" d="M410,373v-2s6.4,0,6.4,0c1.3.2.4,1.6.6,2.1-2.3,0-4.7,0-7,0Z"/>
      <path class="st24" d="M503,325c-.9,3.1-7.5,1.1-10,0,3.3,0,6.7,0,10,0Z"/>
      <path class="st20" d="M394,371h6s0,2,0,2c-1.6.2-4.4.2-6,0,0-.7,0-1.3,0-2Z"/>
      <path class="st20" d="M404,372c.9-.2,2.1-1.8,4-1v2c-1.3,0-3.3.5-4-1Z"/>
      <path class="st24" d="M489,325c.3,0,.7,0,1,0l-.5,1-.5-1Z"/>
      <path class="st18" d="M445,177c-.8,0-1.7,0-2.5,0l-.5-1,3,1Z"/>
      <path class="st18" d="M455,177c-.3,0-.7,0-1,0h1Z"/>
      <path class="st7" d="M606,252v23l-20.4-.9c-6.6.8-15.6,1.7-22.2.9s-2.6-.1-3.4-1.6v-22.5l46,1Z"/>
      <path class="st6" d="M559,227c.4,7.5-1.8,12.6,0,20-1.1.8-3.2,2-4.5,2h-20c-4,0-9.7-1-13.5,1-2.4,0-4.9.2-7.4-.1l-1.5-1.5c-.3-7.1-.1-14.3-.1-21.4h47Z"/>
      <path class="st21" d="M348,315c0,.7,0,1.3,0,2-1.9,5.3-1,12.3-1,18s0,2,0,3c0,6.7-.8,14.6,1,21,0,.7,0,1.3,0,2-1.7,2-1.7,7.8,0,10,0,.7,0,1.3,0,2h-2c0-21.3,0-42.7,0-64,.6,1.1,1.9,5.1,2,6Z"/>
      <path class="st4" d="M370,269c0-.1,0-1.3,0-2v2Z"/>
      <path class="st4" d="M369,274c-.4-1.1,1-1.9,1-2l-1,2Z"/>
      <path class="st4" d="M370,262c0-.3,0-.6,0-1v1Z"/>
      <path class="st8" d="M544,350c-6.8,1.6-15.5,1.3-22.5,1-2.4,0-7.2,0-8.5,0-.6-3,1.5-1.9,3.5-2,8.3-.4,19.1.5,27.5,1Z"/>
      <path class="st18" d="M553,151c-.3,0-.7,0-1,0l.5-1,.5,1Z"/>
      <polygon class="st18" points="548 151 547 151 547.5 150 548 151"/>
      <polygon class="st23" points="515 226 512 226 512 225 515 226"/>
      <path class="st23" d="M538,226c-.7,0-1.3,0-2,0l1.5-1,.5,1Z"/>
      <path class="st23" d="M556,226h-1c.1,0,.3,0,1,0Z"/>
      <path class="st6" d="M587,303c.3,0,.7,0,1,0l-2.5,4h-1.5c-.4-3.1.3-3.4,3-4Z"/>
      <path class="st6" d="M583,424c0,.3,0,.7,0,1,.1.5.5.8,1,1,.3,2.3,0,5.5,0,8-1.8,2-1,6.2-1,9-1.7,1-1,3.8-1,5.5,0,6.2-.8,13.7,1,19.5,0,.3,0,.7,0,1-.3,14.4-3.8,36.2,0,50,.2.7-.2,1.7,0,2.5l1,.5c0,.7,0,1.3,0,2,0,1.3,0,2.7,0,4-1.6.7-1.6,4.3,0,5,0,1,0,2,0,3v1c0,.7,0,1.4,0,2s-2.7,1.8,0,3c0,1.2.2,3,0,4-.3.3-.9.7-1,1,0,.1-.9.7-1.1,2.4-.6,5.8.6,12.7,0,18.6-1.2,1.2-14.5-2-17,1-22.6.2-45.4,0-68,0h-45c-11.9,0-23.3-.7-35-1,0-3.1,1.1-23.9,0-25-.4-1.2-1.4-1-2.4-1.1-6.5-.6-15.3,0-22.1,0s-4.4-.6-5.5,1c-.7,0-1.3,0-2,0-4.2-2.2-10.2-.4-15-1v-22h69c.7,6.5-.9,14.7,0,21s.8,1.6,1,2,.8.6,1,1-.3,1.5.1,1.9l118.3.2c1.1.1.5-1.3.6-2s0-.7,0-1c3.5.5,1.4-1.4,1.5-3,.4-6.7,0-13.3.5-20-1.2-1.7-24.8-1-29-1-30.6-.2-61.4,0-92,0,0-.7,0-1.3,0-2,3,.3,1.5-.3,1.6-2.1.5-5.9-.7-12-.6-17.9h117.5c.3,0,1.5-1.3,2.5-1v-73l21,1Z"/>
      <path class="st2" d="M583,422c0,.7,0,1.3,0,2l-21-1v73c-1-.3-2.2,1-2.5,1h-117.5c-.1,5.9,1.1,12.1.6,17.9s1.3,2.4-1.6,2.1c0-7,.1-14,0-21h118.5c1.4-.9,1.4-2,1.6-3.4,2.3-19.3-.3-46.8-.1-67.2s1.1-3.2,1.1-3.4h21Z"/>
      <path class="st20" d="M584,471c0,.3,0,.7,0,1,0,1.7,0,3.3,0,5l-.7.8.7,1.2c0,2,0,4,0,6l-.7.8.7,1.2c0,3,0,6,0,9,0,.2-.7.2-1,.5l1,.5c0,2.3,0,4.7,0,7-1.8,1.8-1.5,6.1,0,8v1c0,.7,0,1.3,0,2s0,.7,0,1l-1,3c-3.8-13.8-.3-35.6,0-50l1,2Z"/>
      <path class="st20" d="M436,591l.5,1,.5-1h8c.1,1.5,2.9,1.5,3,0,1.3,0,2.7,0,4,0l.5,1,.5-1h3v1c-.2,0-1.6,1.1-3.4,1.1-11.7,0-23.3-.2-35,0-1.1.1-.5-1.3-.6-2h19Z"/>
      <path class="st20" d="M497,569c-15,0-30,0-45,0h45Z"/>
      <path class="st20" d="M583,551c0,.3,0,.7,0,1,0,1.3,0,2.7,0,4s0,.7,0,1v9c-.3.4.7,2.7-.5,3.1-5.8,0-11.7-.1-17.5,0,2.5-3,15.8.2,17-1,.5-5.9-.7-12.8,0-18.6s1-2.3,1.1-2.4c-.2,1.1,0,2.7,0,4Z"/>
      <path class="st27" d="M474,591c-6,0-12,0-18,0h-3c-.3,0-.7,0-1,0-1.3,0-2.7,0-4,0s-2,0-3,0h-1c7.6-1.8,16.6-1.1,24.5-1s4.4-.6,5.5,1Z"/>
      <path class="st20" d="M583,444c0,1,0,2,0,3s0,1.3,0,2c0,2,0,4,0,6s0,1.3,0,2c0,1.7,0,3.3,0,5s0,4,0,6c-1.8-5.8-1.1-13.3-1-19.5,0-1.7-.6-4.4,1-5.5,0,.3,0,.7,0,1Z"/>
      <path class="st27" d="M584,496c0-3,0-6,0-9s0-1.3,0-2c0-2,0-4,0-6s0-1.3,0-2c0-1.7,0-3.3,0-5,1.7,1,1,3.8,1,5.5,0,5.1.9,14.3-1,18.5Z"/>
      <path class="st27" d="M584,541v-2c0-.6,0-1.3,0-2s0-.7,0-1c0-1,0-2,0-3,0-1.7,0-3.3,0-5s0-2.7,0-4c1.7,4.7,1.7,12.4,0,17Z"/>
      <path class="st18" d="M584,512c-1.5-1.9-1.8-6.2,0-8,0,2.5,0,5.3,0,8Z"/>
      <path class="st18" d="M583,444c0-.3,0-.7,0-1,0-2.8-.8-7,1-9,0,3.1.8,7.7-1,10Z"/>
      <path class="st18" d="M584,471l-1-2c0-.3,0-.7,0-1,0-2,0-4,0-6,1.8,2,1,6.2,1,9Z"/>
      <path class="st27" d="M584,522c0-2,0-4,0-6s0-.7,0-1l1,6.5-1,.5Z"/>
      <path class="st18" d="M583,447h2s0,1.5,0,1.5l-2,.5c0-.7,0-1.3,0-2Z"/>
      <path class="st18" d="M583,455h2s0,1.5,0,1.5l-2,.5c0-.7,0-1.3,0-2Z"/>
      <path class="st18" d="M584,541v1c-2.7-1.2,0-2.8,0-3v2Z"/>
      <path class="st18" d="M583,551l2,.5-2,.5c0-.3,0-.7,0-1Z"/>
      <path class="st18" d="M583,556l2,.5-2,.5c0-.3,0-.7,0-1Z"/>
      <polygon class="st18" points="583 561 585 561.5 583 562 583 561"/>
      <path class="st18" d="M583,565l2,.5c0,1-1.8.2-2,.5v-1Z"/>
      <path class="st18" d="M584,497l-1-.5c.3-.3.9-.3,1-.5,0,.3,0,.7,0,1Z"/>
      <polygon class="st18" points="436 591 437 591 436.5 592 436 591"/>
      <path class="st18" d="M584,426c-.5-.2-.9-.5-1-1,.5.1.9.5,1,1Z"/>
      <path class="st27" d="M584,513v-1c0,.3,0,.7,0,1Z"/>
      <path class="st18" d="M583,547c0-.3.7-.7,1-1,0,.3-1,.7-1,1Z"/>
      <polygon class="st6" points="465 607 463 607 464.5 605 465 607"/>
      <path class="st2" d="M653,422c-4.9,1.7-11.2,1.1-16.4,1.2s-2.8,1.4-3.6-1.2c6.4-.4,13.5.1,20,0Z"/>
      <path class="st2" d="M441,519c30.6,0,61.4-.2,92,0v1c-29.7-.1-61.6-1.4-91,0s-1.3,0-2,0c0,7,0,14,0,21h-1c-.9-6.3.7-14.5,0-21h-69v23c-.3,0-.7,0-1,0,0-7.1.8-15,0-22-.6-3,1.5-1.9,3.5-2,22.4-.9,46,0,68.5,0Z"/>
      <path class="st22" d="M544,494c-9.7,0-19.3,0-29,0,8.3-2,17.7-.8,26.4-1.1s2.9-2.5,2.6,1.1Z"/>
      <path class="st22" d="M503,494c-9,0-18,0-27,0,6.5-1.8,14.6-1.1,21.5-1s4.4-.6,5.5,1Z"/>
      <path class="st17" d="M488,402c0,.3,0,.7,0,1,0,1.3,0,2.7,0,4s0,2.7,0,4,0,1.3,0,2c0,2.5-.3,5.6,0,8s0,.7,0,1c-2.4-6.7-.2-15-1-22h1c0,.7,0,1.3,0,2Z"/>
      <path class="st22" d="M548,494c-.7,0-1.3,0-2,0l.8-.7,1.2.7Z"/>
      <polygon class="st6" points="524 416 523 416 523 414.5 524.5 413 524 416"/>
      <rect class="st6" x="620" y="376" width="2" height="2"/>
      <polygon class="st6" points="621 476 621 478 619.5 478 618 476.5 621 476"/>
      <path class="st6" d="M705.5,237c.6.3.6.7,0,1v-1Z"/>
      <path class="st6" d="M687.5,479c.6.3.6.7,0,1v-1Z"/>
      <path class="st6" d="M592.5,387c.6.3.6.7,0,1v-1Z"/>
      <path class="st11" d="M475,397c.3,0,.7,0,1,0l-.5,1-.5-1Z"/>
      <path class="st11" d="M455,398c-.5,0-1-.5-1-1,.5,0,.9.5,1,1Z"/>
      <path class="st26" d="M488,407c0-1.3,0-2.7,0-4h1c0,1.3.4,3.4-1,4Z"/>
      <path class="st26" d="M488,413c0-.7,0-1.3,0-2l1,.5-1,1.5Z"/>
      <path class="st6" d="M489,403h-1c0-.3,0-.7,0-1,.5.1,1,.5,1,1Z"/>
      <path class="st3" d="M677,495c-.9,1.6-5,1.6-6,0,2,0,4,.1,6,0Z"/>
      <path class="st3" d="M658,495c-.1,1.5-2.9,1.5-3,0,1,0,2,0,3,0Z"/>
      <path class="st3" d="M647,495c-.1,1.5-2.9,1.5-3,0,1,0,2,0,3,0Z"/>
      <path class="st3" d="M641,495c-.1,1.5-2.9,1.5-3,0,1,0,2,0,3,0Z"/>
      <path class="st3" d="M652,495l-.5,1-1.5-1c.7,0,1.3,0,2,0Z"/>
      <path class="st3" d="M668,495l-.5,1-1.5-1c.7,0,1.3,0,2,0Z"/>
      <path class="st3" d="M660,495c.3,0,.7,0,1,0l-.5,1-.5-1Z"/>
      <path class="st15" d="M348,373v115c-.2-10.4-.9-21.7-1-32.5s.6-4.4-1-5.5v-1c1.7-1.3,1.7-5.7,0-7v-1c1.7-4.1,1.7-11.7,0-16v-50c0-.7,0-1.3,0-2h2Z"/>
      <path class="st21" d="M348,488c0,.7,0,1.3,0,2l-2,9v-49c1.7,1,1,3.8,1,5.5.1,10.9.8,22.1,1,32.5Z"/>
      <path class="st15" d="M348,538c-1.9-6.1.2-11.2-2-17,0-.3,0-.7,0-1,1.7-5.8,1.7-14.3,0-20,0-.3,0-.7,0-1l2-9c.3,16-.2,32,0,48Z"/>
      <path class="st21" d="M346,423c0-16,0-32,0-48v48Z"/>
      <path class="st21" d="M348,538c.2.5-.1,1.4,0,2-.5-.2-1.4.1-2,0-.3-6.3,0-12.7,0-19,2.2,5.8.1,10.9,2,17Z"/>
      <path class="st21" d="M346,520c0-6.6-.4-13.5,0-20,1.7,5.7,1.7,14.2,0,20Z"/>
      <path class="st21" d="M346,441v-16c1.7,4.3,1.7,11.9,0,16Z"/>
      <path class="st21" d="M346,449v-7c1.7,1.3,1.7,5.7,0,7Z"/>
      <path class="st14" d="M373,544h-4c0-.3,0-.7,0-1,.3,0,.7,0,1,0,1.1,0,2.5-.3,3,1Z"/>
      <path class="st20" d="M614.5,198c.6.3.6.7,0,1v-1Z"/>
      <path class="st19" d="M417,543c-1.8.6-3.5,1-5.5,1-3.3,0-8.6-1-11.5-1l-1,1c-2,0-4,0-6,0-1.1-1.7-4.1-1-6-1,1-1.7,3.8-1,5.5-1,6.8,0,15.6-.7,22.1,0s2-.1,2.4,1.1Z"/>
      <path class="st19" d="M385,543c-1.3,0-3.3-.5-4,1h-4l-.5-1-1.5,1h-2c-.5-1.3-1.9-.9-3-1v-1c4.8.6,10.8-1.2,15,1Z"/>
      <path class="st14" d="M385,543c.7,0,1.3,0,2,0,1.9,0,4.9-.7,6,1-4,0-8,0-12,0,.7-1.5,2.7-1,4-1Z"/>
      <polygon class="st14" points="377 544 375 544 376.5 543 377 544"/>
      <path class="st14" d="M399,544l1-1c-.2,0-.7,1-1,1Z"/>
      <path class="st15" d="M393,373c-.7-.2-1.6-.6-1.7-1.4.3-1.3.8-2.6.7-4-1.2-14.1-.2-27-.2-41,0-9.6-1.3-20.5-.9-30.1,0-1.9-.1-3.8,2.1-4.5,0,26.9,0,54,0,81Z"/>
      <path class="st15" d="M348,359c-1.8-6.4-1-14.3-1-21,1.8,6.4,1,14.3,1,21Z"/>
      <path class="st15" d="M347,335c0-5.7-.9-12.7,1-18,.3,5.4.6,12.9-1,18Z"/>
      <path class="st15" d="M348,371c-1.7-2.2-1.7-8,0-10,0,3.3,0,6.7,0,10Z"/>
      <path class="st5" d="M560,544c-.1.7.5,2.1-.6,2l-118.3-.2c-.4-.4,0-1.6-.1-1.9h119Z"/>
      <path class="st15" d="M442,520v23h117v-23c1.7,1,1,3.8,1,5.5,0,5.6.4,12,0,17.5s0,.7,0,1h-119c-.2-.4-.9-.7-1-1v-2c0-7,0-14,0-21,.7,0,1.3,0,2,0Z"/>
      <path class="st5" d="M533,519c4.2,0,27.8-.7,29,1-.6,6.7,0,13.3-.5,20s2,3.4-1.5,3c.4-5.5,0-11.9,0-17.5s.6-4.4-1-5.5c-8.7,0-17.3,0-26,0v-1Z"/>
      <path class="st18" d="M584,522l-1-.5c-.2-.8.2-1.8,0-2.5l1-3c0,2,0,4,0,6Z"/>
      <path class="st18" d="M584,533c-1.6-.7-1.6-4.3,0-5,0,1.7,0,3.3,0,5Z"/>
      <path class="st5" d="M440,543c-.2-.4-.8-.6-1-2h1v2Z"/>
      <path class="st18" d="M584,537v-1c0,.3,0,.7,0,1Z"/>
      <path class="st18" d="M584,487l-.7-1.2.7-.8c0,.7,0,1.3,0,2Z"/>
      <path class="st18" d="M584,479l-.7-1.2.7-.8c0,.7,0,1.3,0,2Z"/>
      <path class="st18" d="M448,591c-.1,1.5-2.9,1.5-3,0,1,0,2,0,3,0Z"/>
      <path class="st18" d="M452,591c.3,0,.7,0,1,0l-.5,1-.5-1Z"/>
      <path class="st22" d="M533,520c8.7,0,17.3,0,26,0v1c-5.1,0-10.4,1-15.5,1-18.1.2-38-.4-54.2-.6-15.5-.2-31.9,2.2-47.3-.4v-1c29.4-1.4,61.3-.1,91,0Z"/>
      <path class="st16" d="M442,521c15.4,2.6,31.8.2,47.3.4,16.2.2,36.2.8,54.2.6,5.1,0,10.3-.9,15.5-1v22h-117v-22Z"/>
    </g>
  </g>
</svg>